<?xml version="1.0" encoding="UTF-8"?>
<svg xmlns="http://www.w3.org/2000/svg" version="1.1" viewBox="0 0 267 180">
  <defs>
    <style>
      .cls-1 {
        fill: none;
      }

      .cls-2 {
        fill: #c59f7b;
      }
    </style>
  </defs>
  <!-- Generator: Adobe Illustrator 28.7.1, SVG Export Plug-In . SVG Version: 1.2.0 Build 142)  -->
  <g>
    <g id="Layer_1">
      <rect class="cls-1" width="267" height="180"/>
      <path class="cls-2" d="M254.9,8.6h5l-19.6,32.4h-5l19.6-32.4ZM237.6,25.1h-1.2c-4.1,0-6.2-2.2-6.2-6.6v-3.8c0-4.4,2.1-6.6,6.2-6.6h1.2c4.1,0,6.2,2.2,6.2,6.6v3.8c0,4.4-2.1,6.6-6.2,6.6ZM235.3,21c0,.3,0,.5.2.7.2.2.4.3.7.3h1.6c.3,0,.5-.1.6-.3.2-.2.3-.4.3-.7v-8.8c0-.3-.1-.5-.3-.7-.2-.2-.4-.3-.6-.3h-1.6c-.3,0-.5.1-.7.3-.2.2-.2.4-.2.7v8.8ZM258.6,24.5c4.1,0,6.2,2.2,6.2,6.6v3.8c0,4.4-2.1,6.6-6.2,6.6h-1.2c-4.1,0-6.2-2.2-6.2-6.6v-3.8c0-4.4,2.1-6.6,6.2-6.6h1.2ZM259.8,37.4v-8.8c0-.3,0-.5-.3-.7-.2-.2-.4-.3-.6-.3h-1.6c-.3,0-.5.1-.7.3-.2.2-.2.4-.2.7v8.8c0,.3,0,.5.2.7.2.2.4.3.7.3h1.6c.3,0,.5-.1.6-.3.2-.2.3-.4.3-.7Z"/>
      <g>
        <path class="cls-2" d="M107.2,109.8l-19.4-19.4-15,15c1,.2,1.8.7,2.5,1.5,1,1,1.6,2.3,1.6,3.6v7.8l10.9,10.9,19.4-19.4Z"/>
        <path class="cls-2" d="M28.7,109.8l17.7,17.7v-17c0-1.4.4-2.6,1.3-3.6,1-1,2.3-1.6,3.6-1.6h11.7l-14.9-14.9-19.4,19.4Z"/>
        <polygon class="cls-2" points="76.8 119 76.8 140.2 87.4 129.6 76.8 119"/>
        <path class="cls-2" d="M63.8,105.3h8.1c0,0,.1,0,.2,0l15.3-15.3-14.4-14.4c-.7.6-1.6.9-2.6.9h-8.2l-13.6,13.6,15.3,15.3Z"/>
        <path class="cls-2" d="M75.3,39.5v23l12.1-12.1-12.4-12.4c.1.5.2,1,.2,1.5Z"/>
        <path class="cls-2" d="M107.1,69.4c.3-2.3.4-4.9.4-7.5v-22.4c0-2.8-.2-5.5-.5-8l-18.9,18.9,19,19Z"/>
        <path class="cls-2" d="M75.3,63.2v8c0,1.4-.5,2.6-1.6,3.6-.1.1-.3.2-.4.4l14.4,14.4,19.2-19.2c0-.1,0-.3,0-.4l-19.3-19.3-12.5,12.5Z"/>
        <path class="cls-2" d="M117.3,39.5v.5l10,10,19.4-19.4-19-19c-6.9,5.6-10.4,14.9-10.4,27.9Z"/>
        <path class="cls-2" d="M106.7,29.4c-1.9-10.7-7.2-17.8-15.7-21.4l-2.9,2.9,18.6,18.6Z"/>
        <path class="cls-2" d="M87.7,10.4l2.7-2.7c-2.2-.9-4.7-1.6-7.4-2l4.7,4.7Z"/>
        <path class="cls-2" d="M115.8,118.4c0,.3,0,.6,0,.9v21.5l11.2-11.2-11.2-11.2Z"/>
        <path class="cls-2" d="M128.2,11.3l19,19,19.4-19.4-5.6-5.6h-11.4c-9,0-16.2,2-21.4,6.1Z"/>
        <path class="cls-2" d="M147.5,30.6l4.5,4.5c.8-.6,1.7-.8,2.8-.8h17.4c1.4,0,2.5.5,3.4,1.6,1,1,1.6,2.3,1.6,3.6v.3l9.2-9.2-19.4-19.4-19.4,19.4Z"/>
        <path class="cls-2" d="M146.8,109.8l-19.4-19.4c-.1,0-.3.2-.4.3l-4.5,4.5c-4.3,5.5-6.5,13-6.7,22.5l11.5,11.5,19.4-19.4Z"/>
        <path class="cls-2" d="M186.4,70.2l-9.2-9.2v10.3c0,1.4-.5,2.6-1.6,3.6-.9,1-2,1.6-3.4,1.6h-17.4c-.4,0-.8,0-1.2-.2l13.4,13.4,19.4-19.4Z"/>
        <path class="cls-2" d="M127.7,50.4l19.4,19.4,2.7-2.7v-27.6c0-1.4.4-2.6,1.3-3.6.2-.2.3-.3.5-.4l-4.5-4.5-19.4,19.4Z"/>
        <path class="cls-2" d="M147.5,109.8l.8.8h0c0-.7,0-1.3.3-1.8l-1.1,1.1Z"/>
        <path class="cls-2" d="M152.4,75.8c-.4-.2-.8-.5-1.2-.9-.2-.3-.4-.6-.6-.9l-3.4-3.4-19.3,19.3s0,0,.1.1c0,0-.1.1-.2.2l19.3,19.3,2-2c.1-.2.2-.4.4-.6.3-.3.6-.5.9-.7l16.1-16.1-14.2-14.2Z"/>
        <polygon class="cls-2" points="177.1 40.6 177.1 60.2 186.7 69.8 206.2 50.4 186.7 31 177.1 40.6"/>
        <path class="cls-2" d="M118.2,160.4c1.5,4.4,3.8,8,6.9,10.8l2-2-8.8-8.8Z"/>
        <path class="cls-2" d="M187.1,30.6l19.4,19.4,2.8-2.8v-7.7c0-10.5-2.3-18.6-6.9-24.3l-15.4,15.4Z"/>
        <polygon class="cls-2" points="206.9 50.4 209.4 52.9 209.4 47.9 206.9 50.4"/>
        <path class="cls-2" d="M88.1,169.2l5.9,5.9c8.5-4.2,13.4-12.3,14.7-24.2l-1.2-1.2-19.4,19.4Z"/>
        <path class="cls-2" d="M209.4,53.6l-2.8-2.8-19.4,19.4,15.7,15.7c4.4-5.5,6.5-13.5,6.5-24.1v-8.3Z"/>
        <path class="cls-2" d="M72.7,35c.4.2.7.5,1,.9.3.3.5.6.7.8l13.3,13.3,19.2-19.2c0-.2,0-.4-.1-.7l-19.1-19.1-19.4,19.4,4.4,4.4Z"/>
        <path class="cls-2" d="M96.8,89.9c5.3-3.9,8.6-10.1,10-18.7l-18.7,18.7,19.4,19.4.6-.6c-1.6-8.4-5.4-14.8-11.3-18.9Z"/>
        <path class="cls-2" d="M108.3,109.4l-.4.4.5.5c0-.3,0-.6-.1-.8Z"/>
        <path class="cls-2" d="M127.3,50.8l-10,10v1.1c0,13.2,3.4,22.4,10.1,27.7l19.3-19.3-19.4-19.4Z"/>
        <path class="cls-2" d="M109.1,119.3c0-2.9-.2-5.6-.6-8.2l-1-1-19.4,19.4,19.4,19.4,1.4-1.4c0-1.1,0-2.2,0-3.3v-25Z"/>
        <path class="cls-2" d="M107.9,149.4l.9.9c0-.6.1-1.3.2-1.9l-1,1Z"/>
        <polygon class="cls-2" points="117.3 60.1 127 50.4 117.3 40.8 117.3 60.1"/>
        <path class="cls-2" d="M149.8,71.2v-3.4l-2.3,2.3,2.6,2.6c-.1-.5-.2-1-.2-1.5Z"/>
        <polygon class="cls-2" points="161.7 5.2 166.9 10.4 172.2 5.2 161.7 5.2"/>
        <polygon class="cls-2" points="166.9 169.5 157.9 178.6 176 178.6 166.9 169.5"/>
        <path class="cls-2" d="M18.4,79.8l9.6-9.6-12.5-12.5v4.2c0,7.1,1,13.1,3,17.9Z"/>
        <polygon class="cls-2" points="206.2 129.6 186.7 110.2 178.7 118.2 178.7 141 186.7 149 206.2 129.6"/>
        <path class="cls-2" d="M178.7,141.7v3.4c0,1.4-.5,2.6-1.6,3.6-.9,1-2,1.6-3.4,1.6h-20.5c-1.4,0-2.6-.5-3.6-1.6-.2-.3-.4-.5-.6-.8l-1.5,1.5,19.4,19.4,19.4-19.4-7.7-7.7Z"/>
        <path class="cls-2" d="M78,178.6l9.4-9.4-18.9-18.9h-1l-18.9,18.9,9.4,9.4h18.9c.4,0,.8,0,1.2,0Z"/>
        <path class="cls-2" d="M64.6,34.3h5.7c.4,0,.8,0,1.1.1l-3.5-3.5-3.3,3.3Z"/>
        <path class="cls-2" d="M57.2,178.6l-9.1-9.1-8.6,8.6c2.1.3,4.3.4,6.6.4h11.1Z"/>
        <path class="cls-2" d="M38.9,178.1l8.9-8.9-19.4-19.4-11.7,11.7c3.7,9.5,11.1,15.1,22.2,16.7Z"/>
        <path class="cls-2" d="M147.1,149.7l-19.4,19.4,7.8,7.8c3.7,1.1,7.9,1.6,12.6,1.6h9.2l9.4-9.4-19.4-19.4Z"/>
        <path class="cls-2" d="M210.9,134.4l-4.4-4.4-19.4,19.4,17.9,17.9c3.9-5.6,5.9-13.3,5.9-23.1v-9.9Z"/>
        <path class="cls-2" d="M204.8,167.8l-18-18-19.4,19.4,9.4,9.4h2c12.1,0,20.8-3.6,26.1-10.8Z"/>
        <polygon class="cls-2" points="206.9 129.6 210.9 133.6 210.9 125.5 206.9 129.6"/>
        <path class="cls-2" d="M18.9,20.8l9.5,9.5,19.4-19.4-5.4-5.4c-11.6,1.2-19.4,6.3-23.5,15.4Z"/>
        <path class="cls-2" d="M43.1,5.4l5.1,5.1,5.3-5.3h-5.7c-1.6,0-3.1,0-4.6.2Z"/>
        <path class="cls-2" d="M15.5,43.1l12.5-12.5-9.3-9.3c-2.1,4.9-3.2,11-3.2,18.2v3.6Z"/>
        <path class="cls-2" d="M210.9,124.8v-5.5c0-11.1-2.6-19.6-7.9-25.5l-16,16,19.4,19.4,4.4-4.4Z"/>
        <path class="cls-2" d="M13.9,135.3v9c0,6.5.9,12,2.6,16.6l11.5-11.5-14.1-14.1Z"/>
        <path class="cls-2" d="M107.2,149.4l-19.4-19.4-10.9,10.9v4.2c0,1.4-.5,2.6-1.6,3.6-.9,1-2,1.6-3.4,1.6h-2.7l18.6,18.6,19.4-19.4Z"/>
        <polygon class="cls-2" points="15.5 43.8 15.5 57 28.3 69.8 47.8 50.4 28.3 31 15.5 43.8"/>
        <path class="cls-2" d="M66.7,150.3h-15.4c-1.4,0-2.6-.5-3.6-1.6-.9-1-1.3-2.3-1.3-3.6v-13.4l-17.7,17.7,19.4,19.4,18.6-18.6Z"/>
        <path class="cls-2" d="M93.6,175.4l-5.8-5.8-9,9c5.8-.2,10.7-1.3,14.8-3.2Z"/>
        <path class="cls-2" d="M28.7,70.2l19.4,19.4,13.2-13.2h-8.5c-1.4,0-2.6-.5-3.6-1.6-.9-1-1.3-2.3-1.3-3.6v-20.3l-19.3,19.3Z"/>
        <path class="cls-2" d="M127.3,169.5l-2,2c2.5,2.2,5.5,3.9,9,5.1l-7.1-7.1Z"/>
        <path class="cls-2" d="M18.6,80.3c1.8,4.1,4.3,7.3,7.5,9.7-3.4,2.4-6.1,5.5-8,9.2l10.3,10.3,19.4-19.4-19.4-19.4-9.7,9.7Z"/>
        <path class="cls-2" d="M28,109.8l-10.1-10.1c-2.6,5.2-3.9,11.8-3.9,19.7v4.6l14.1-14.1Z"/>
        <polygon class="cls-2" points="46.4 131 46.4 128.2 28.3 110.2 13.9 124.6 13.9 134.6 28.3 149 46.4 131"/>
        <path class="cls-2" d="M67.9,30.2l19.4-19.4-5.2-5.2c-2.2-.3-4.5-.5-7-.5h-21.1l-5.6,5.6,19.4,19.4Z"/>
        <path class="cls-2" d="M186.7,30.2l15.5-15.5c-5.4-6.4-13.7-9.6-25.1-9.6h-4.2l-5.6,5.6,19.4,19.4Z"/>
        <path class="cls-2" d="M127.3,130l-11.6,11.6v2.8c0,5.7.7,10.7,2,15l9.5,9.5,19.4-19.4-19.4-19.4Z"/>
        <path class="cls-2" d="M28.7,30.6l19.3,19.3v-10.4c0-1.4.4-2.6,1.3-3.6,1-1,2.3-1.6,3.6-1.6h11l3.7-3.7-19.4-19.4-19.4,19.4Z"/>
        <path class="cls-2" d="M148.8,147.4c-.3-.7-.5-1.5-.5-2.3v-33.8l-1.1-1.1-19.4,19.4,19.4,19.4,1.6-1.6Z"/>
        <path class="cls-2" d="M202.7,93.4c-1.2-1.3-2.5-2.5-4-3.5,1.4-1,2.7-2.2,3.8-3.6l-15.8-15.8-19.4,19.4,19.4,19.4,16-16Z"/>
        <path class="cls-2" d="M186.4,109.8l-19.4-19.4-15.2,15.2c.5-.1.9-.2,1.4-.2h20.5c1.4,0,2.5.5,3.4,1.6,1,1,1.6,2.3,1.6,3.6v7l7.7-7.7Z"/>
      </g>
    </g>
  </g>
</svg>