<?xml version="1.0" encoding="UTF-8"?>
<svg xmlns="http://www.w3.org/2000/svg" version="1.1" viewBox="0 0 255 180">
  <defs>
    <style>
      .cls-1 {
        fill: none;
      }

      .cls-2 {
        fill: #c59f7b;
      }
    </style>
  </defs>
  <!-- Generator: Adobe Illustrator 28.7.1, SVG Export Plug-In . SVG Version: 1.2.0 Build 142)  -->
  <g>
    <g id="Layer_1">
      <rect class="cls-1" width="255" height="180"/>
      <path class="cls-2" d="M242.9,8.6h5l-19.6,32.4h-5l19.6-32.4ZM225.6,25.1h-1.2c-4.1,0-6.2-2.2-6.2-6.6v-3.8c0-4.4,2.1-6.6,6.2-6.6h1.2c4.1,0,6.2,2.2,6.2,6.6v3.8c0,4.4-2.1,6.6-6.2,6.6ZM223.3,21c0,.3,0,.5.2.7.2.2.4.3.7.3h1.6c.3,0,.5-.1.6-.3.2-.2.3-.4.3-.7v-8.8c0-.3-.1-.5-.3-.7-.2-.2-.4-.3-.6-.3h-1.6c-.3,0-.5.1-.7.3-.2.2-.2.4-.2.7v8.8ZM246.6,24.5c4.1,0,6.2,2.2,6.2,6.6v3.8c0,4.4-2.1,6.6-6.2,6.6h-1.2c-4.1,0-6.2-2.2-6.2-6.6v-3.8c0-4.4,2.1-6.6,6.2-6.6h1.2ZM247.8,37.4v-8.8c0-.3-.1-.5-.3-.7-.2-.2-.4-.3-.7-.3h-1.5c-.3,0-.5.1-.7.3-.2.2-.2.4-.2.7v8.8c0,.3,0,.5.2.7.2.2.4.3.7.3h1.5c.3,0,.5-.1.7-.3.2-.2.3-.4.3-.7Z"/>
      <g>
        <polygon class="cls-2" points="81.8 90.4 81.7 90.4 62.3 109.8 75.1 122.6 81.8 90.4"/>
        <polygon class="cls-2" points="62.3 70.2 81.7 89.6 82 89.4 88.6 57.6 81.7 50.8 62.3 70.2"/>
        <path class="cls-2" d="M104.1,152.3c1.3,10.1,5.4,17.3,12.3,21.6l4.7-4.7-16.9-16.9Z"/>
        <polygon class="cls-2" points="88.7 57 92.1 40.4 82.1 50.4 88.7 57"/>
        <path class="cls-2" d="M107.1,24.7l13.9-13.9-1.7-1.7c-5.9,3.2-10,8.4-12.2,15.6Z"/>
        <path class="cls-2" d="M119.7,8.9l1.6,1.6,3.7-3.7c-1.9.6-3.7,1.3-5.3,2.1Z"/>
        <path class="cls-2" d="M180.4,70.2l-15.5-15.5v16.5c0,1.4-.5,2.6-1.6,3.6-.9,1-2,1.6-3.4,1.6h-12.3l13.2,13.2,19.4-19.4Z"/>
        <path class="cls-2" d="M141.5,30.6l3.7,3.7h14.8c1.4,0,2.5.5,3.4,1.6,1,1,1.6,2.3,1.6,3.6v6.6l15.5-15.5-19.4-19.4-19.4,19.4Z"/>
        <path class="cls-2" d="M136.1,114.5v-4c0-1.4.4-2.6,1.3-3.6,0,0,.2-.1.3-.2l-16.3-16.3-16.4,16.4c-.4,1.6-.7,3.3-.9,5.1l17.3,17.3,14.7-14.7Z"/>
        <path class="cls-2" d="M164.9,5.2h-9.2l5.3,5.3,5.2-5.2c-.4,0-.8,0-1.3,0Z"/>
        <polygon class="cls-2" points="136.1 115.2 121.7 129.6 136.1 144 136.1 115.2"/>
        <path class="cls-2" d="M147,76.4h-4.5c-1.4,0-2.6-.5-3.6-1.6-.3-.4-.6-.8-.8-1.3l-16.4,16.4,16.3,16.3c.9-.7,1.9-1,3-1h4.3l15.3-15.3-13.6-13.6Z"/>
        <path class="cls-2" d="M137.9,73.1c-.2-.6-.3-1.2-.3-1.9v-4.2l-16.3-16.3-16.1,16.1c.2,2.9.6,5.6,1.2,8l14.8,14.8,16.6-16.6Z"/>
        <path class="cls-2" d="M181.1,70.2l12,12c2.7-5.2,4.1-12,4.1-20.3v-7.7l-16.1,16.1Z"/>
        <polygon class="cls-2" points="164.9 46.8 164.9 54 180.7 69.8 197.2 53.4 197.2 47.4 180.7 31 164.9 46.8"/>
        <polygon class="cls-2" points="53.2 61.8 49.2 82.6 61.6 70.2 53.2 61.8"/>
        <path class="cls-2" d="M197.2,46.7v-7.2c0-8.4-1.5-15.3-4.4-20.6l-11.7,11.7,16.1,16.1Z"/>
        <path class="cls-2" d="M198.7,127.4v-8.1c0-9-1.7-16.4-5.2-21.9l-12.4,12.4,17.6,17.6Z"/>
        <polygon class="cls-2" points="61.6 109.8 46.8 95 40.4 127.5 42.1 129.2 61.6 109.8"/>
        <path class="cls-2" d="M106.8,25.7c-.7,2.5-1.2,5.3-1.4,8.3l16,16,19.4-19.4-19.4-19.4-14.6,14.6Z"/>
        <polygon class="cls-2" points="41.8 129.6 40.3 128.1 39.6 131.8 41.8 129.6"/>
        <path class="cls-2" d="M121.7,50.4l15.9,15.9v-26.8c0-1.4.4-2.6,1.3-3.6,1-1,2.3-1.6,3.6-1.6h1.9l-3.3-3.3-19.4,19.4Z"/>
        <path class="cls-2" d="M105.2,105.8l15.8-15.8-14.2-14.2c1.7,6.3,4.7,11,9,14.2-5.2,3.6-8.7,8.9-10.6,15.9Z"/>
        <path class="cls-2" d="M126,6.5l-4.3,4.3,19.4,19.4,19.4-19.4-5.6-5.6h-17.6c-4.2,0-8,.4-11.4,1.3Z"/>
        <polygon class="cls-2" points="81.4 90 61.9 70.6 49 83.5 46.9 94.4 61.9 109.4 81.4 90"/>
        <path class="cls-2" d="M105.3,34.7c-.1,1.5-.2,3.1-.2,4.8v22.4c0,1.5,0,2.9.1,4.3l15.7-15.7-15.7-15.7Z"/>
        <path class="cls-2" d="M103.9,112.5c-.2,2.1-.4,4.4-.4,6.8v25c0,.9,0,1.8,0,2.7l17.4-17.4-17.1-17.1Z"/>
        <path class="cls-2" d="M141.7,150.3h-.7c-.1,0-.2,0-.3,0l-19,19,9.2,9.2c1.6.1,3.2.2,4.9.2h15.4l9.4-9.4-18.9-18.9Z"/>
        <path class="cls-2" d="M166.5,135.5v9.6c0,1.4-.5,2.6-1.6,3.6-.9,1-2,1.6-3.4,1.6h-19.2l18.6,18.6,19.4-19.4-13.9-13.9Z"/>
        <polygon class="cls-2" points="17.7 35.6 27 35.6 22.3 31 17.7 35.6"/>
        <polygon class="cls-2" points="68.2 156 61.9 149.7 42.5 169.2 49.3 176 64 176 68.2 156"/>
        <polygon class="cls-2" points="42.1 169.5 35.7 176 48.6 176 42.1 169.5"/>
        <polygon class="cls-2" points="33.9 161.3 31 176 35 176 41.8 169.2 33.9 161.3"/>
        <path class="cls-2" d="M169.9,178.5l-8.9-8.9-9.1,9.1h14.6c1.2,0,2.3,0,3.4-.1Z"/>
        <path class="cls-2" d="M194.9,163.9l-14.1-14.1-19.4,19.4,9.3,9.3c11.8-.9,20-5.7,24.3-14.6Z"/>
        <path class="cls-2" d="M198.7,131.8l-17.6,17.6,14,14c2.4-5.1,3.6-11.5,3.6-19.1v-12.5Z"/>
        <polygon class="cls-2" points="198.7 131.1 198.7 128.1 180.7 110.2 166.5 124.4 166.5 134.8 180.7 149 198.7 131.1"/>
        <polygon class="cls-2" points="17 35.6 22 30.6 13.1 21.7 13.1 35.6 17 35.6"/>
        <polygon class="cls-2" points="13.1 21 22.3 30.2 41.8 10.8 38.8 7.8 13.1 7.8 13.1 21"/>
        <polygon class="cls-2" points="42.1 10.4 44.8 7.8 39.5 7.8 42.1 10.4"/>
        <polygon class="cls-2" points="71.5 140.2 62.3 149.4 68.3 155.4 71.5 140.2"/>
        <polygon class="cls-2" points="57.3 35.6 58.3 35.6 53.3 61.2 61.9 69.8 81.4 50.4 61.9 31 57.3 35.6"/>
        <polygon class="cls-2" points="61.6 149.4 42.1 130 39.5 132.6 34 160.7 42.1 168.8 61.6 149.4"/>
        <polygon class="cls-2" points="95.5 24.2 98.9 7.8 85.1 7.8 82.1 10.8 95.5 24.2"/>
        <polygon class="cls-2" points="71.6 139.4 75 123.2 61.9 110.2 42.5 129.6 61.9 149 71.6 139.4"/>
        <polygon class="cls-2" points="81.7 50 92.3 39.5 95.4 24.8 81.7 11.2 62.3 30.6 81.7 50"/>
        <polygon class="cls-2" points="81.7 10.4 84.4 7.8 79.1 7.8 81.7 10.4"/>
        <polygon class="cls-2" points="22.7 30.6 27.7 35.6 56.6 35.6 61.6 30.6 42.1 11.2 22.7 30.6"/>
        <path class="cls-2" d="M193.2,97c-1.8-2.8-4-5.1-6.7-7,2.6-1.9,4.7-4.3,6.3-7.3l-12.1-12.1-19.4,19.4,19.4,19.4,12.5-12.5Z"/>
        <path class="cls-2" d="M180.7,30.2l11.8-11.8c-4.8-8.4-13.4-12.8-25.7-13.2l-5.6,5.6,19.4,19.4Z"/>
        <polygon class="cls-2" points="61.9 30.2 81.4 10.8 78.4 7.8 45.5 7.8 42.5 10.8 61.9 30.2"/>
        <path class="cls-2" d="M137.4,148.7c-.9-1-1.3-2.3-1.3-3.6v-.4l-14.7-14.7-17.7,17.7c0,1.3.2,2.6.3,3.8l17.4,17.4,18.7-18.7c-1-.2-1.9-.7-2.7-1.5Z"/>
        <path class="cls-2" d="M121.3,169.5l-4.6,4.6c3.7,2.2,8.1,3.6,13.3,4.2l-8.8-8.8Z"/>
        <path class="cls-2" d="M180.4,109.8l-19.4-19.4-14.9,14.9h15.5c1.4,0,2.5.5,3.4,1.6,1,1,1.6,2.3,1.6,3.6v13.2l13.9-13.9Z"/>
      </g>
    </g>
  </g>
</svg>