<?xml version="1.0" encoding="UTF-8"?>
<svg id="Layer_2" xmlns="http://www.w3.org/2000/svg" viewBox="0 0 311.81 311.81">
  <defs>
    <style>
      .cls-1 {
        fill: none;
      }

      .cls-2 {
        fill: #231f20;
      }

      .cls-3 {
        fill: #c39d7b;
      }

      .cls-4 {
        fill: #fff;
      }
    </style>
  </defs>
  <g id="Layer_1-2" data-name="Layer_1">
    <path class="cls-4" d="M241.27,132.96c-.18-6.72-1.14-13.38-2.86-19.79-3.39-20.57-14.02-39.42-29.95-53.1-16.14-13.86-36.73-21.5-57.99-21.5-49.15,0-89.13,39.99-89.13,89.13,0,10.83,1.39,19.4,4.64,28.49-5.98,20.28-10.79,55.59,19.26,74.73.5.32,1,.59,1.53.83,1.53.69,5.31,2.25,10.62,3.38l-4.33,17.74c-6.13,5.57-8.76,10.26-7.81,13.96.36,1.39,1.53,3.83,5.42,4.64l.23.05,33.18,1.54,11.56.14c.89.05,5.07.12,8.57-3.1,2.75-2.53,4.22-6.35,4.26-11.06l4.61-38.85c1.13.05,2.18.07,3.2.07,4.08,0,8.21-.31,12.33-.91l4.7,39.55c.05,4.87,1.49,8.63,4.27,11.19,3.05,2.81,6.65,3.11,8.05,3.11.17,0,.32,0,.45-.01l11.56-.15,33.21-1.56.49-.06c2.7-.58,4.59-2.26,5.2-4.61.94-3.69-1.69-8.38-7.82-13.95l-13.7-56.17c.41-.4.83-.81,1.26-1.25,2.57.62,5.18.92,7.81.89.34.03,1.03.08,1.97.08,3.83,0,13.38-.89,19.43-9.14,7.79-10.62,6.37-28.9-4.24-54.34Z"/>
    <g>
      <circle class="cls-3" cx="156.27" cy="135.25" r="82.04"/>
      <path d="M136.12,270.23c-.21,0-.34,0-.37-.01l-11.53-.14-32.95-1.53c-2.22-.46-2.91-1.58-3.13-2.45-.93-3.65,5.23-9.5,7.6-11.59l5.62-23.04c.16-.66.83-1.07,1.49-.91.66.16,1.07.83.91,1.49l-5.71,23.43c-.06.25-.2.47-.39.64-3.77,3.26-7.53,7.81-7.12,9.38.07.28.43.49,1.05.63l32.7,1.5,11.57.14c.11,0,2.68.16,4.66-1.68,1.63-1.52,2.47-3.99,2.48-7.35l5.22-44.04c.08-.68.73-1.16,1.37-1.08.68.08,1.16.69,1.08,1.37l-5.21,43.9c0,3.94-1.11,7.03-3.29,9.04-2.3,2.11-5.07,2.32-6.05,2.32Z"/>
      <path d="M185.62,270.24c-.93,0-3.71-.2-6.02-2.32-2.18-2-3.29-5.09-3.3-9.18l-5.73-48.26c-.08-.67.4-1.29,1.08-1.37.65-.1,1.29.4,1.37,1.08l5.74,48.4c.02,3.51.86,5.99,2.51,7.51,1.98,1.82,4.54,1.66,4.55,1.66l11.7-.15,32.86-1.53c.43-.11.78-.32.85-.6.4-1.57-3.36-6.12-7.13-9.38-.19-.17-.33-.39-.39-.64l-15.37-63.04c-.16-.66.24-1.33.91-1.49.66-.16,1.33.24,1.49.91l15.28,62.66c2.37,2.09,8.53,7.94,7.6,11.59-.22.87-.91,1.99-2.92,2.42l-33.11,1.56-11.66.15s-.12,0-.31,0Z"/>
      <path class="cls-2" d="M109.84,233.47c-11.11,0-19.43-3.35-21.84-4.44-.4-.18-.78-.39-1.15-.62-42.94-27.35-10.98-89.8-10.65-90.42.32-.6,1.06-.83,1.66-.52.6.32.84,1.06.52,1.66-.32.61-31.24,61.06,9.79,87.21.27.17.54.33.84.46,34.39,15.56,60.83-13.94,63.73-17.35.1-.12.2-.24.29-.37,2.1-2.83,20.52-28.42,19.12-54.96-.03-.47-.09-.91-.21-1.34-.61-2.32-2.27-6.08-6.49-5.24-3.2.63-6.27-.29-8.24-2.46-.75-.82-1.69-1.09-2.99-.84-3.08.59-6.15-.52-8.07-2.91-.68-.85-2.76-3.45-8.16.13-1,.66-1.79,1.66-2.23,2.82-3.54,9.3-18.02,39.94-55.81,43.9-.67.07-1.28-.42-1.35-1.1-.07-.68.42-1.28,1.1-1.35,36.39-3.82,50.35-33.36,53.76-42.32.63-1.64,1.75-3.06,3.18-4,6.33-4.2,9.89-1.56,11.45.38,1.32,1.65,3.54,2.44,5.67,2.03,2.69-.52,4.36.58,5.29,1.61,1.38,1.52,3.6,2.16,5.93,1.69,4.47-.88,7.96,1.75,9.35,7.03.16.59.25,1.2.29,1.84,1.45,27.41-17.44,53.66-19.6,56.56-.13.17-.26.33-.39.49-11.99,14.11-26.2,21.64-42.24,22.38-.86.04-1.71.06-2.55.06Z"/>
      <path class="cls-2" d="M226.07,193.44c-1.05,0-1.73-.07-1.84-.08-11.8.18-22.74-6.71-31.73-19.93-6.71-9.86-9.9-19.62-10.03-20.03-.21-.48-.39-1.06-.51-1.68-1.06-5.36.94-9.25,5.34-10.41,2.31-.61,4.02-2.15,4.6-4.12.39-1.32,1.4-3.05,4.05-3.76,2.09-.56,3.75-2.25,4.21-4.3.55-2.43,2.61-6.35,10.13-5.34,1.67.22,3.01,1.53,4.09,2.58l.46.44c.27.33,12.85,17,22.75,21.67.61.29.88,1.03.59,1.64-.29.62-1.03.88-1.64.59-10.45-4.94-23-21.56-23.53-22.27l-.34-.31c-.82-.8-1.84-1.79-2.7-1.91-6.42-.86-7.16,2.38-7.4,3.45-.68,2.99-2.97,5.34-5.98,6.14-1.27.34-2.01.99-2.32,2.06-.82,2.81-3.19,4.98-6.33,5.81-4.17,1.1-4.01,5.2-3.55,7.55.09.45.22.88.4,1.3.16.49,12.73,38.36,39.16,38.36.14,0,.28,0,.42,0,.26.02,10.93,1.11,16.75-6.85,4.81-6.58,7.53-21.21-6.87-53.56-.28-.62,0-1.35.63-1.63.61-.27,1.35,0,1.63.63,11.95,26.85,14.17,45.71,6.59,56.04-5.18,7.07-13.37,7.92-17.01,7.92Z"/>
      <g>
        <path class="cls-2" d="M87.56,186.54c-.33,0-.65-.13-.89-.38-3.72-3.9-5.83-7.29-8.5-11.6l-.85-1.36c-.36-.58-.19-1.34.39-1.7.57-.36,1.34-.19,1.7.39l.85,1.36c2.59,4.18,4.64,7.48,8.18,11.19.47.49.45,1.27-.04,1.74-.24.23-.54.34-.85.34Z"/>
        <path class="cls-2" d="M151.81,213.84h-.62l-.96-.67,1.42-2.02.32.22c10.14-.02,20.07-1.89,29.51-5.56,12.36-4.81,22.1-10.69,28.96-17.47l1.73,1.75c-7.11,7.02-17.13,13.08-29.8,18.02-9.77,3.8-20.05,5.73-30.56,5.73Z"/>
        <path class="cls-2" d="M69.01,155.78c-3.28-8.98-4.68-17.37-4.68-28.07,0-47.49,38.64-86.13,86.13-86.13s86.13,38.64,86.13,86.13c0,6.79-.79,13.59-2.35,20.22l-2.4-.56c1.51-6.45,2.28-13.06,2.28-19.66,0-46.14-37.53-83.67-83.67-83.67s-83.67,37.53-83.67,83.67c0,10.39,1.36,18.54,4.53,27.23l-2.32.85Z"/>
      </g>
      <g>
        <path d="M109.77,76.22c-.68,0-1.23-.55-1.23-1.23l-.02-4.71-4.58-.64c-.68-.09-1.15-.72-1.05-1.39.09-.68.75-1.14,1.39-1.05l5.64.78c.61.08,1.06.6,1.06,1.22l.02,5.78c0,.68-.55,1.24-1.23,1.24h0Z"/>
        <path d="M100.59,84.11c-.57,0-1.08-.4-1.2-.98l-.97-4.61-4.61.3c-.74.03-1.27-.47-1.31-1.15s.47-1.27,1.15-1.31l5.68-.37c.67-.02,1.16.38,1.29.98l1.19,5.66c.14.67-.29,1.32-.95,1.46-.09.02-.17.03-.26.03Z"/>
        <path d="M92.82,93.31c-.48,0-.93-.28-1.13-.74l-1.87-4.33-4.46,1.22c-.67.19-1.34-.21-1.51-.87-.18-.66.21-1.33.86-1.51l5.49-1.5c.6-.16,1.21.14,1.46.7l2.29,5.31c.27.62-.02,1.35-.64,1.62-.16.07-.33.1-.49.1Z"/>
        <path d="M86.5,102.53c-.42,0-.83-.22-1.06-.61l-2.39-4.06-4.28,1.76c-.63.26-1.35-.04-1.61-.67-.26-.63.04-1.35.67-1.61l5.26-2.17c.57-.23,1.22-.02,1.53.51l2.94,4.98c.35.59.15,1.34-.44,1.69-.2.12-.41.17-.63.17Z"/>
      </g>
      <g>
        <path class="cls-4" d="M182.15,126.82c.4-1.26-.62-2.51-1.93-2.37l-10.3,1.05-.15.02-10.3,1.05c-1.31.13-2.06,1.57-1.41,2.71,1.53,2.72,5.08,6.62,12.69,5.9h0s.05,0,.07,0c.03,0,.05,0,.08,0h0c7.6-.84,10.29-5.38,11.24-8.35Z"/>
        <rect class="cls-4" x="156.17" y="111.85" width="14.21" height="6.14" rx="3.07" ry="3.07" transform="translate(65.5 289) rotate(-95.82)"/>
        <rect class="cls-4" x="167.06" y="110.74" width="14.21" height="6.14" rx="3.07" ry="3.07" transform="translate(78.6 298.62) rotate(-95.82)"/>
      </g>
    </g>
    <rect class="cls-1" width="311.81" height="311.81"/>
  </g>
</svg>