<?xml version="1.0" encoding="UTF-8"?>
<svg xmlns="http://www.w3.org/2000/svg" version="1.1" viewBox="0 0 265 180">
  <defs>
    <style>
      .cls-1 {
        fill: none;
      }

      .cls-2 {
        fill: #c59f7b;
      }
    </style>
  </defs>
  <!-- Generator: Adobe Illustrator 28.7.1, SVG Export Plug-In . SVG Version: 1.2.0 Build 142)  -->
  <g>
    <g id="Layer_1">
      <rect class="cls-1" width="265" height="180"/>
      <path class="cls-2" d="M252.9,8.6h5l-19.6,32.4h-5l19.6-32.4ZM235.6,25.1h-1.2c-4.1,0-6.2-2.2-6.2-6.6v-3.8c0-4.4,2.1-6.6,6.2-6.6h1.2c4.1,0,6.2,2.2,6.2,6.6v3.8c0,4.4-2.1,6.6-6.2,6.6ZM233.3,21c0,.3,0,.5.2.7.2.2.4.3.7.3h1.6c.3,0,.5-.1.6-.3.2-.2.3-.4.3-.7v-8.8c0-.3-.1-.5-.3-.7-.2-.2-.4-.3-.6-.3h-1.6c-.3,0-.5.1-.7.3-.2.2-.2.4-.2.7v8.8ZM256.6,24.5c4.1,0,6.2,2.2,6.2,6.6v3.8c0,4.4-2.1,6.6-6.2,6.6h-1.2c-4.1,0-6.2-2.2-6.2-6.6v-3.8c0-4.4,2.1-6.6,6.2-6.6h1.2ZM257.8,37.4v-8.8c0-.3,0-.5-.3-.7-.2-.2-.4-.3-.6-.3h-1.6c-.3,0-.5.1-.7.3-.2.2-.2.4-.2.7v8.8c0,.3,0,.5.2.7.2.2.4.3.7.3h1.6c.3,0,.5-.1.6-.3.2-.2.3-.4.3-.7Z"/>
      <g>
        <rect class="cls-2" x="22" y="68.4" width="27.5" height="27.5" transform="translate(-47.7 49.4) rotate(-45)"/>
        <path class="cls-2" d="M14,83.8l1.6-1.6-2.7-2.7c.3,1.5.7,3,1.1,4.3Z"/>
        <polygon class="cls-2" points="113.8 22 113.8 23.6 114.6 22.8 113.8 22"/>
        <polygon class="cls-2" points="75.3 22.4 90 7.8 60.7 7.8 75.3 22.4"/>
        <path class="cls-2" d="M36.1,62.4l19.4,19.4,11.1-11.1h-16.6c-1.4,0-2.6-.5-3.6-1.6-.9-1-1.3-2.3-1.3-3.6v-12.1l-9,9Z"/>
        <path class="cls-2" d="M55.2,161.4l-19.4-19.4-19.4,19.4c0,0,0,.2.1.3l14.6,14.6c2.3.9,4.7,1.5,7.4,1.9l16.7-16.7Z"/>
        <polygon class="cls-2" points="87.8 35.6 75.3 23.2 62.9 35.6 87.8 35.6"/>
        <path class="cls-2" d="M14.2,84.3c3.4,9.8,10.4,15.7,21.2,17.6l-19.4-19.4-1.8,1.8Z"/>
        <path class="cls-2" d="M114.9,62.8l-1.2,1.2v11.4c0,9.3,1.8,16.7,5.3,22.2l15.3-15.3-19.4-19.4Z"/>
        <polygon class="cls-2" points="114.9 23.2 113.8 24.3 113.8 60.9 114.9 62 134.4 42.6 114.9 23.2"/>
        <path class="cls-2" d="M29.9,175.7l-12.9-12.9c2.7,6,7,10.3,12.9,12.9Z"/>
        <polygon class="cls-2" points="95.5 121.8 107 133.3 107 110.3 95.5 121.8"/>
        <path class="cls-2" d="M75.3,142l-1.9,1.9v1.2c0,1.4-.5,2.6-1.6,3.6-.9,1-2,1.6-3.4,1.6h-1.5l-11.1,11.1,17.2,17.2h1.7c1,0,2,0,2.9,0l17.1-17.1-19.4-19.4Z"/>
        <path class="cls-2" d="M106.8,149.4c.1-1.6.2-3.3.2-5.1v-10.3l-11.9-11.9-19.4,19.4,19.4,19.4,11.7-11.7Z"/>
        <polygon class="cls-2" points="73.5 140.1 73.5 143.1 75 141.6 73.5 140.1"/>
        <path class="cls-2" d="M68.5,102.7c1.4,0,2.5.5,3.4,1.6.1.1.3.3.4.5l2.7-2.7-19.4-19.4-19.4,19.4h0c2.4.5,5.1.7,7.9.7h24.4Z"/>
        <polygon class="cls-2" points="75.7 22.8 88.5 35.6 100.2 35.6 100.2 8.5 99.6 7.8 90.7 7.8 75.7 22.8"/>
        <path class="cls-2" d="M75.3,101.6l19.4-19.4-10.6-10.6c-2.9-.6-6-.9-9.4-.9h-7.4l-11.5,11.5,19.4,19.4Z"/>
        <path class="cls-2" d="M53.2,150.3c-1.4,0-2.6-.5-3.6-1.6-.9-1-1.3-2.3-1.3-3.6v-13.3h-2.3l-9.8,9.8,19.4,19.4,10.8-10.8h-13.1Z"/>
        <path class="cls-2" d="M35.4,141.6l-9.8-9.8h-11.9v12.5c0,6.4.8,11.9,2.5,16.5l19.2-19.2Z"/>
        <polygon class="cls-2" points="176.4 163.8 176.4 176 188.6 176 176.4 163.8"/>
        <path class="cls-2" d="M105.6,92.3c-1.3-5.5-3.7-9.9-6.9-13.3l-3.2,3.2,10.1,10.1Z"/>
        <path class="cls-2" d="M45.9,178.6h26.5l-16.9-16.9-16.4,16.4c2.1.3,4.4.4,6.8.4Z"/>
        <path class="cls-2" d="M107,109.6v-4.6c0-4.3-.4-8.3-1.2-11.8l-10.7-10.7-19.4,19.4,19.4,19.4,11.9-11.9Z"/>
        <path class="cls-2" d="M95.1,81.8l3.2-3.2c-3.4-3.4-7.8-5.7-13.3-6.9l10.1,10.1Z"/>
        <polygon class="cls-2" points="113.8 61.6 113.8 63.2 114.6 62.4 113.8 61.6"/>
        <polygon class="cls-2" points="45.2 131.8 26.3 131.8 35.7 141.2 45.2 131.8"/>
        <path class="cls-2" d="M94.8,121.8l-19.4-19.4-2.7,2.7c.6.8.9,1.8.9,2.8v31.5l1.9,1.9,19.4-19.4Z"/>
        <polygon class="cls-2" points="113.8 7.8 113.8 21.3 114.9 22.4 129.6 7.8 113.8 7.8"/>
        <path class="cls-2" d="M101,167.6l-5.8-5.8-16.7,16.7c10.3-.7,17.8-4.3,22.5-10.9Z"/>
        <polygon class="cls-2" points="176.4 40.9 176.4 44.3 194.1 62 208.9 47.3 208.9 37.9 194.1 23.2 176.4 40.9"/>
        <polygon class="cls-2" points="208.9 87.6 194.5 102 208.9 116.4 208.9 87.6"/>
        <polygon class="cls-2" points="179.5 7.8 194.1 22.4 208.8 7.8 179.5 7.8"/>
        <polygon class="cls-2" points="208.9 86.9 208.9 77.5 194.1 62.8 174.7 82.2 194.1 101.6 208.9 86.9"/>
        <polygon class="cls-2" points="193.8 102 174.3 82.6 154.9 102 162.6 109.7 176.4 109.7 176.4 119.4 193.8 102"/>
        <polygon class="cls-2" points="176.4 40.2 193.8 22.8 178.8 7.8 176.4 7.8 176.4 40.2"/>
        <polygon class="cls-2" points="208.9 76.8 208.9 48 194.5 62.4 208.9 76.8"/>
        <polygon class="cls-2" points="176.4 124.2 176.4 159 193.8 141.6 176.4 124.2"/>
        <polygon class="cls-2" points="208.9 156.7 194.1 142 176.4 159.7 176.4 163.1 189.3 176 199 176 208.9 166.1 208.9 156.7"/>
        <polygon class="cls-2" points="208.9 166.8 199.7 176 208.9 176 208.9 166.8"/>
        <polygon class="cls-2" points="208.9 37.2 208.9 8.4 194.5 22.8 208.9 37.2"/>
        <polygon class="cls-2" points="208.9 127.2 194.5 141.6 208.9 156 208.9 127.2"/>
        <polygon class="cls-2" points="208.9 126.5 208.9 117.1 194.1 102.4 176.4 120.1 176.4 123.5 194.1 141.2 208.9 126.5"/>
        <path class="cls-2" d="M193.8,62.4l-17.4-17.4v28.8c0,1.4-.5,2.6-1.6,3.6-.9,1-2,1.5-3.3,1.6l2.8,2.8,19.4-19.4Z"/>
        <polygon class="cls-2" points="35.7 22.4 50.4 7.8 21.1 7.8 35.7 22.4"/>
        <path class="cls-2" d="M95.5,161.4l5.7,5.7c3-4.4,4.9-10.1,5.5-17l-11.2,11.2Z"/>
        <path class="cls-2" d="M11.8,47.1v21.3c0,3.7.3,7.1.9,10.2l3.3,3.3,19.4-19.4-19.4-19.4-4.1,4.1Z"/>
        <path class="cls-2" d="M134.7,82.6l-15.4,15.4c5.2,7.8,14.1,11.7,26.7,11.7h.5l7.7-7.7-19.4-19.4Z"/>
        <path class="cls-2" d="M170.8,79h-19.9c-1.4,0-2.6-.5-3.6-1.6-.9-1-1.3-2.3-1.3-3.6v-2.5l-10.9,10.9,19.4,19.4,19.4-19.4-3.2-3.2Z"/>
        <polygon class="cls-2" points="48.9 35.6 62.2 35.6 75 22.8 60 7.8 51.1 7.8 36.1 22.8 48.9 35.6"/>
        <polygon class="cls-2" points="35.7 62 45.1 52.7 45.1 35.6 48.2 35.6 35.7 23.2 16.3 42.6 35.7 62"/>
        <polygon class="cls-2" points="146 54.2 134.7 43 115.3 62.4 134.7 81.8 146 70.6 146 54.2"/>
        <polygon class="cls-2" points="15.6 42.6 11.8 38.8 11.8 46.4 15.6 42.6"/>
        <polygon class="cls-2" points="147.2 109.7 161.9 109.7 154.5 102.4 147.2 109.7"/>
        <polygon class="cls-2" points="11.8 38.1 15.9 42.2 35.4 22.8 20.4 7.8 11.8 7.8 11.8 38.1"/>
        <polygon class="cls-2" points="146 13.9 146 7.8 139.9 7.8 146 13.9"/>
        <polygon class="cls-2" points="115.3 22.8 134.7 42.2 146 31 146 14.6 139.2 7.8 130.3 7.8 115.3 22.8"/>
        <polygon class="cls-2" points="135.1 42.6 146 53.5 146 31.7 135.1 42.6"/>
      </g>
    </g>
  </g>
</svg>