<?xml version="1.0" encoding="UTF-8"?>
<svg xmlns="http://www.w3.org/2000/svg" version="1.1" viewBox="0 0 261 180">
  <defs>
    <style>
      .cls-1 {
        fill: none;
      }

      .cls-2 {
        fill: #c59f7b;
      }
    </style>
  </defs>
  <!-- Generator: Adobe Illustrator 28.7.1, SVG Export Plug-In . SVG Version: 1.2.0 Build 142)  -->
  <g>
    <g id="Layer_1">
      <rect class="cls-1" x=".5" width="260" height="180"/>
      <path class="cls-2" d="M248.4,8.6h5l-19.6,32.4h-5l19.6-32.4ZM231.1,25.1h-1.2c-4.1,0-6.2-2.2-6.2-6.6v-3.8c0-4.4,2.1-6.6,6.2-6.6h1.2c4.1,0,6.2,2.2,6.2,6.6v3.8c0,4.4-2.1,6.6-6.2,6.6ZM228.8,21c0,.3,0,.5.2.7.2.2.4.3.7.3h1.6c.3,0,.5-.1.6-.3.2-.2.3-.4.3-.7v-8.8c0-.3-.1-.5-.3-.7-.2-.2-.4-.3-.6-.3h-1.6c-.3,0-.5.1-.7.3-.2.2-.2.4-.2.7v8.8ZM252.1,24.5c4.1,0,6.2,2.2,6.2,6.6v3.8c0,4.4-2.1,6.6-6.2,6.6h-1.2c-4.1,0-6.2-2.2-6.2-6.6v-3.8c0-4.4,2.1-6.6,6.2-6.6h1.2ZM253.3,37.4v-8.8c0-.3-.1-.5-.3-.7-.2-.2-.4-.3-.7-.3h-1.5c-.3,0-.5.1-.7.3-.2.2-.2.4-.2.7v8.8c0,.3,0,.5.2.7.2.2.4.3.7.3h1.5c.3,0,.5-.1.7-.3.2-.2.3-.4.3-.7Z"/>
      <g>
        <path class="cls-2" d="M144.5,5.2c-7.3,0-13.3,1.3-18.1,3.9l-1.7,1.7,19.4,19.4,19.4-19.4-5.6-5.6h-13.5Z"/>
        <path class="cls-2" d="M124.7,10.1c-.1,0-.2.2-.4.3h0c0,0,.3-.3.3-.3Z"/>
        <path class="cls-2" d="M124.3,50l19.4-19.4-19.4-19.4-7.7,7.7c-2.7,5-4.2,11.4-4.4,19.1l12.1,12.1Z"/>
        <path class="cls-2" d="M106,31.7c0-.7-.2-1.3-.3-2l-.8.8,1.1,1.1Z"/>
        <path class="cls-2" d="M85.1,50.4l19.4,19.4,1.7-1.7c.2-2,.3-4.1.3-6.3v-22.4c0-2.5-.1-4.8-.4-7l-1.6-1.6-19.4,19.4Z"/>
        <path class="cls-2" d="M147.6,66.4v-31.3c0-.2,0-.4,0-.6l-3.5-3.5-19.4,19.4,19.4,19.4,3.5-3.5Z"/>
        <polygon class="cls-2" points="147.6 67.1 144.5 70.2 147.6 73.3 147.6 67.1"/>
        <path class="cls-2" d="M183.4,30.6l-19.4-19.4-19.4,19.4,3.3,3.3c.2-.9.6-1.7,1.2-2.4,1-1,2.3-1.6,3.6-1.6h14.8c1.4,0,2.5.5,3.4,1.6,1,1,1.6,2.3,1.6,3.6v6.6l11.1-11.1Z"/>
        <polygon class="cls-2" points="44.8 90 44.1 89.3 44.1 90.7 44.8 90"/>
        <path class="cls-2" d="M104.2,149.4l-19.4-19.4-8.9,8.9v7c0,1.4-.5,2.6-1.6,3.6-.9,1-2,1.6-3.4,1.6h-3.9l17.8,17.8,19.4-19.4Z"/>
        <path class="cls-2" d="M74.3,61.2v10.2c0,1.4-.5,2.6-1.6,3.6-.4.5-.9.8-1.4,1.1l13.4,13.4,19.4-19.4-19.4-19.4-10.5,10.5Z"/>
        <path class="cls-2" d="M104.9,149.4l2.7,2.7c.2-1.8.4-3.8.4-5.8l-3.1,3.1Z"/>
        <path class="cls-2" d="M108.1,119.3c0-2.1-.1-4.1-.3-5.9l-3.2-3.2-19.4,19.4,19.4,19.4,3.5-3.5c0-.4,0-.8,0-1.3v-25Z"/>
        <path class="cls-2" d="M75.8,178.6c5.9,0,11.1-.9,15.4-2.6l-6.4-6.4-9.1,9.1h.1Z"/>
        <polygon class="cls-2" points="143.8 70.2 124.3 50.8 112.3 62.8 112.3 77.6 124.3 89.6 143.8 70.2"/>
        <polygon class="cls-2" points="74.3 60.5 84.4 50.4 74.3 40.3 74.3 60.5"/>
        <polygon class="cls-2" points="44.1 88.6 45.1 89.6 58.1 76.7 44.1 76.7 44.1 88.6"/>
        <path class="cls-2" d="M85.1,169.2l6.6,6.6c8.9-3.8,14.2-11.5,15.8-23.1l-2.9-2.9-19.4,19.4Z"/>
        <path class="cls-2" d="M183.7,30.2l16.2-16.2c-5.4-5.9-13.5-8.9-24.5-8.9h-5.5l-5.6,5.6,19.4,19.4Z"/>
        <polygon class="cls-2" points="112.3 117.9 112.3 141.3 124 129.6 112.3 117.9"/>
        <polygon class="cls-2" points="207.7 46.6 203.9 50.4 207.7 54.2 207.7 46.6"/>
        <path class="cls-2" d="M114.4,159.6c1.6,4.9,4,8.8,7.4,11.9l2.2-2.2-9.6-9.6Z"/>
        <path class="cls-2" d="M184.1,30.6l19.4,19.4,4.1-4.1v-6.4c0-11-2.5-19.3-7.4-25l-16.1,16.1Z"/>
        <path class="cls-2" d="M12.9,137.3v7c0,5.8.7,10.8,2.1,15.2l10-10-12.1-12.1Z"/>
        <path class="cls-2" d="M25,30.6l-7.9-7.9c-1.8,4.7-2.6,10.3-2.6,16.8v1.6l10.5-10.5Z"/>
        <polygon class="cls-2" points="66.2 151 63.7 151 45.5 169.2 54.9 178.6 75 178.6 84.4 169.2 66.2 151"/>
        <path class="cls-2" d="M95.8,89.9c5.2-3.8,8.5-9.9,9.9-18.2l-1.2-1.2-19.4,19.4,19.4,19.4,2.2-2.2c-1.8-7.6-5.4-13.4-10.9-17.3Z"/>
        <path class="cls-2" d="M104.2,109.8l-19.4-19.4-14.4,14.4h.5c1.4,0,2.5.5,3.4,1.6,1,1,1.6,2.3,1.6,3.6v10.4l8.9,8.9,19.4-19.4Z"/>
        <polygon class="cls-2" points="44.1 91.4 44.1 104.8 59.6 104.8 45.1 90.4 44.1 91.4"/>
        <polygon class="cls-2" points="75.8 121 75.8 138.2 84.4 129.6 75.8 121"/>
        <path class="cls-2" d="M124,10.8h-.1c-2.4,1.6-4.5,3.7-6.2,6.3l6.3-6.3Z"/>
        <path class="cls-2" d="M104.9,70.2l.9.9c.1-.7.2-1.4.3-2.2l-1.2,1.2Z"/>
        <path class="cls-2" d="M60.3,104.8h9.4l14.8-14.8-13.6-13.6c-.5.2-1,.3-1.5.3h-10.5l-13.3,13.3,14.8,14.8Z"/>
        <polygon class="cls-2" points="112.3 78.3 112.3 101.7 124 90 112.3 78.3"/>
        <path class="cls-2" d="M106.9,107.8l-2,2,2.8,2.8c-.2-1.7-.4-3.3-.8-4.8Z"/>
        <path class="cls-2" d="M124,50.4l-11.7-11.7c0,.3,0,.5,0,.8v22.6l11.7-11.7Z"/>
        <path class="cls-2" d="M54.2,178.6l-9.1-9.1-8.4,8.4c2.6.4,5.4.7,8.4.7h9.1Z"/>
        <polygon class="cls-2" points="14.5 41.8 14.5 55.4 39.8 55.4 44.8 50.4 25.3 31 14.5 41.8"/>
        <polygon class="cls-2" points="143.8 109.8 124.3 90.4 112.3 102.4 112.3 117.2 124.3 129.2 143.8 109.8"/>
        <path class="cls-2" d="M144.1,149.7l-19.4,19.4,8,8c3.5,1,7.4,1.4,11.8,1.4h9.7l9.4-9.4-19.4-19.4Z"/>
        <polygon class="cls-2" points="207.7 85.5 207.7 54.9 203.5 50.8 184.1 70.2 203.5 89.6 207.7 85.5"/>
        <polygon class="cls-2" points="163.9 169.5 154.9 178.6 173 178.6 163.9 169.5"/>
        <polygon class="cls-2" points="207.7 86.2 203.9 90 207.7 93.8 207.7 86.2"/>
        <path class="cls-2" d="M25.7,30.6l19.4,19.4,1.8-1.8v-9.5c0-1.4.4-2.6,1.3-3.6,1-1,2.3-1.6,3.6-1.6h9.8l2.9-2.9-19.4-19.4-19.4,19.4Z"/>
        <path class="cls-2" d="M64.9,30.2l19.4-19.4-5.4-5.4c-1.5-.1-3.1-.2-4.7-.2h-23.1l-5.6,5.6,19.4,19.4Z"/>
        <path class="cls-2" d="M25.3,149.7l-10.2,10.2c3.3,9.9,10.3,15.8,21,17.9l8.6-8.6-19.4-19.4Z"/>
        <path class="cls-2" d="M172.3,138.3v10.1c0,1.4-.5,2.6-1.6,3.6-.9,1-2,1.6-3.4,1.6h-14.8c-1.4,0-2.6-.5-3.6-1.6-.9-1-1.3-2.3-1.3-3.6v-2.2l-3.1,3.1,19.4,19.4,19.4-19.4-11.1-11.1Z"/>
        <path class="cls-2" d="M17.3,22.2l8.1,8.1,19.4-19.4-5.2-5.2c-11.2,1.6-18.6,7.1-22.4,16.5Z"/>
        <path class="cls-2" d="M201.6,167.6l-17.9-17.9-19.4,19.4,9.4,9.4h1.7c12.2,0,20.9-3.7,26.2-11Z"/>
        <polygon class="cls-2" points="203.9 129.6 207.7 133.4 207.7 125.8 203.9 129.6"/>
        <path class="cls-2" d="M207.7,134.1l-4.1-4.1-19.4,19.4,17.8,17.8c3.9-5.6,5.8-13.2,5.8-22.9v-10.2Z"/>
        <path class="cls-2" d="M45.1,10.4l5.3-5.3h-3.7c-2.3,0-4.4.1-6.4.4l4.9,4.9Z"/>
        <polygon class="cls-2" points="203.2 129.6 183.7 110.2 172.3 121.6 172.3 137.6 183.7 149 203.2 129.6"/>
        <polygon class="cls-2" points="207.7 125.1 207.7 94.5 203.5 90.4 184.1 109.8 203.5 129.2 207.7 125.1"/>
        <polygon class="cls-2" points="203.2 90 183.7 70.6 172.3 82 172.3 98 183.7 109.4 203.2 90"/>
        <path class="cls-2" d="M104.5,30.2l1.1-1.1c-2.1-11.1-7.8-18.4-17.1-21.8l-3.4,3.4,19.4,19.4Z"/>
        <polygon class="cls-2" points="203.2 50.4 183.7 31 172.3 42.4 172.3 58.4 183.7 69.8 203.2 50.4"/>
        <polygon class="cls-2" points="163.9 10.4 169.2 5.2 158.7 5.2 163.9 10.4"/>
        <path class="cls-2" d="M84.7,10.4l3.2-3.2c-2.5-.8-5.2-1.4-8.2-1.7l5,5Z"/>
        <polygon class="cls-2" points="147.6 106.7 144.5 109.8 147.6 112.9 147.6 106.7"/>
        <polygon class="cls-2" points="147.6 106 147.6 74 144.1 70.6 124.7 90 144.1 109.4 147.6 106"/>
        <polygon class="cls-2" points="172.3 59.1 172.3 81.3 183.4 70.2 172.3 59.1"/>
        <path class="cls-2" d="M68.2,33.5h1.1c1.4,0,2.5.5,3.4,1.6,1,1,1.6,2.3,1.6,3.6v.8l10.5,10.5,19.4-19.4-19.4-19.4-19.4,19.4,2.9,2.9Z"/>
        <path class="cls-2" d="M124.3,169.5l-2.2,2.2c2.6,2.3,5.8,4,9.5,5.1l-7.3-7.3Z"/>
        <polygon class="cls-2" points="172.3 98.7 172.3 120.9 183.4 109.8 172.3 98.7"/>
        <path class="cls-2" d="M124.3,130l-12.1,12.1v2.2c0,5.4.6,10.2,1.8,14.3l10.3,10.3,19.4-19.4-19.4-19.4Z"/>
        <path class="cls-2" d="M62.9,151h-12.6c-1.4,0-2.6-.5-3.6-1.6-.9-1-1.3-2.3-1.3-3.6v-15.3h-.8l-18.9,18.9,19.4,19.4,17.8-17.8Z"/>
        <polygon class="cls-2" points="147.6 145.6 147.6 113.6 144.1 110.2 124.7 129.6 144.1 149 147.6 145.6"/>
        <polygon class="cls-2" points="62.4 33.5 67.5 33.5 64.9 31 62.4 33.5"/>
        <polygon class="cls-2" points="47 51.9 47 48.9 45.5 50.4 47 51.9"/>
        <polygon class="cls-2" points="43.9 130.5 12.9 130.5 12.9 136.6 25.3 149 43.9 130.5"/>
        <polygon class="cls-2" points="40.5 55.4 47 55.4 47 52.6 45.1 50.8 40.5 55.4"/>
      </g>
    </g>
  </g>
</svg>