<?xml version="1.0" encoding="UTF-8"?>
<svg id="Layer_2" xmlns="http://www.w3.org/2000/svg" viewBox="0 0 184.25 184.25">
  <defs>
    <style>
      .cls-1 {
        fill: none;
      }

      .cls-2 {
        fill: #8e8e93;
      }
    </style>
  </defs>
  <g id="Layer_1-2" data-name="Layer_1">
    <path class="cls-2" d="M88.1,13.88C43.4,13.88,7.16,50.11,7.16,94.82s36.24,80.94,80.94,80.94,80.94-36.24,80.94-80.94S132.8,13.88,88.1,13.88ZM45.46,60.01c0-1.7,1.37-3.07,3.07-3.07h8.07c1.7,0,3.07,1.37,3.07,3.07s-1.37,3.07-3.07,3.07h-8.07c-1.7,0-3.07-1.37-3.07-3.07ZM72.76,75.62c1.16.8,1.38,2.27.47,3.3-.53.6-1.31.91-2.11.91-.57,0-1.15-.16-1.63-.49-1.22-.83-2.02-1.68-2.56-2.48-.18.02-.35.05-.54.05h-13.27c-1.92,0-3.48-1.38-3.48-3.07s1.56-3.07,3.48-3.07h13.27c.19,0,.38.02.57.05,1-1.5,2.41-2.42,2.65-2.56,1.21-.74,2.87-.47,3.71.6.83,1.06.54,2.52-.66,3.26-.43.27-1.36,1.09-1.37,1.75,0,.47.53,1.11,1.47,1.76ZM73.54,63.08h-8.07c-1.7,0-3.07-1.37-3.07-3.07s1.38-3.07,3.07-3.07h8.07c1.7,0,3.07,1.37,3.07,3.07s-1.37,3.07-3.07,3.07Z"/>
    <rect class="cls-1" width="184.25" height="184.25"/>
  </g>
</svg>