<?xml version="1.0" encoding="UTF-8"?>
<svg xmlns="http://www.w3.org/2000/svg" version="1.1" viewBox="0 0 211 180">
  <defs>
    <style>
      .cls-1 {
        fill: none;
      }

      .cls-2 {
        fill: #c59f7b;
      }
    </style>
  </defs>
  <!-- Generator: Adobe Illustrator 28.7.1, SVG Export Plug-In . SVG Version: 1.2.0 Build 142)  -->
  <g>
    <g id="Layer_1">
      <rect class="cls-1" width="211" height="180"/>
      <path class="cls-2" d="M198.9,8.6h5l-19.6,32.4h-5l19.6-32.4ZM181.6,25.1h-1.2c-4.1,0-6.2-2.2-6.2-6.6v-3.8c0-4.4,2.1-6.6,6.2-6.6h1.2c4.1,0,6.2,2.2,6.2,6.6v3.8c0,4.4-2.1,6.6-6.2,6.6ZM179.3,21c0,.3,0,.5.2.7.2.2.4.3.7.3h1.6c.3,0,.5-.1.6-.3.2-.2.3-.4.3-.7v-8.8c0-.3-.1-.5-.3-.7-.2-.2-.4-.3-.6-.3h-1.6c-.3,0-.5.1-.7.3-.2.2-.2.4-.2.7v8.8ZM202.6,24.5c4.1,0,6.2,2.2,6.2,6.6v3.8c0,4.4-2.1,6.6-6.2,6.6h-1.2c-4.1,0-6.2-2.2-6.2-6.6v-3.8c0-4.4,2.1-6.6,6.2-6.6h1.2ZM203.8,37.4v-8.8c0-.3-.1-.5-.3-.7-.2-.2-.4-.3-.7-.3h-1.5c-.3,0-.5.1-.7.3-.2.2-.2.4-.2.7v8.8c0,.3,0,.5.2.7.2.2.4.3.7.3h1.5c.3,0,.5-.1.7-.3.2-.2.3-.4.3-.7Z"/>
      <g>
        <polygon class="cls-2" points="138.6 50.4 119.1 31 116.8 33.3 116.8 67.5 119.1 69.8 138.6 50.4"/>
        <path class="cls-2" d="M106.9,58.3l-7.6-7.6-19.4,19.4,19.4,19.4,7.5-7.5c0-1.1,0-2.2,0-3.4v-20.4Z"/>
        <polygon class="cls-2" points="116.8 32.6 118.8 30.6 116.8 28.6 116.8 32.6"/>
        <polygon class="cls-2" points="116.8 8 116.8 27.9 119.1 30.2 138.6 10.8 135.8 8 116.8 8"/>
        <polygon class="cls-2" points="66.2 176 59.7 169.5 53.3 176 66.2 176"/>
        <polygon class="cls-2" points="15.4 125.2 15.4 134 19.8 129.6 15.4 125.2"/>
        <polygon class="cls-2" points="48.7 140.3 48.7 118.9 39.9 110.2 20.5 129.6 39.9 149 48.7 140.3"/>
        <polygon class="cls-2" points="79.2 149.4 75.9 146.1 48.7 146.1 48.7 141 40.3 149.4 59.7 168.8 79.2 149.4"/>
        <path class="cls-2" d="M39.6,109.8l-17.9-17.9c-4.2,5.6-6.3,13.5-6.3,23.6v9.1l4.8,4.8,19.4-19.4Z"/>
        <path class="cls-2" d="M99.3,50l7.6-7.6v-3c0-12.2-3-21.1-9.1-26.8l-17.9,17.9,19.4,19.4Z"/>
        <path class="cls-2" d="M99.7,90l4.8,4.8c1.2-3.5,2-7.5,2.3-11.9l-7.1,7.1Z"/>
        <path class="cls-2" d="M73.2,37.3c.1.4.2.9.2,1.4v25l6.2,6.2,19.4-19.4-19.4-19.4-6.4,6.4Z"/>
        <polygon class="cls-2" points="116.8 68.2 116.8 72.2 118.8 70.2 116.8 68.2"/>
        <polygon class="cls-2" points="79.5 149.7 60.1 169.2 66.9 176 92.2 176 99 169.2 79.5 149.7"/>
        <polygon class="cls-2" points="152.1 63.2 152.1 37.6 139.3 50.4 152.1 63.2"/>
        <polygon class="cls-2" points="152.1 23.6 152.1 8 142.1 8 139.3 10.8 152.1 23.6"/>
        <polygon class="cls-2" points="119.5 30.6 138.9 50 152.1 36.8 152.1 24.4 138.9 11.2 119.5 30.6"/>
        <polygon class="cls-2" points="39.9 149.7 20.5 169.2 27.3 176 52.6 176 59.4 169.2 39.9 149.7"/>
        <polygon class="cls-2" points="20.1 169.5 15.4 174.3 15.4 176 26.6 176 20.1 169.5"/>
        <path class="cls-2" d="M99,90l-19.4-19.4-6.3,6.3c-.2,1-.7,1.9-1.5,2.7-.7.9-1.7,1.4-2.8,1.5l-9,9,19.4,19.4,19.4-19.4Z"/>
        <path class="cls-2" d="M99.3,90.4l-19.4,19.4,2.7,2.7c11-1.8,18.2-7.5,21.8-17.1l-5-5Z"/>
        <path class="cls-2" d="M73.4,75.9s0,0,0,.1l5.8-5.8-5.8-5.8v11.5Z"/>
        <path class="cls-2" d="M50,114.6c1-1,2.3-1.6,3.6-1.6h21.1c.4,0,.8,0,1.3,0l3.3-3.3-19.4-19.4-19.4,19.4,8.4,8.4c0-1.3.4-2.5,1.3-3.5Z"/>
        <path class="cls-2" d="M59.4,90l-8.9-8.9h-2.9c-11.8,0-20.4,3.5-25.7,10.4l18,18,19.4-19.4Z"/>
        <polygon class="cls-2" points="59.7 89.6 68.3 81.1 51.2 81.1 59.7 89.6"/>
        <path class="cls-2" d="M79.5,110.2l-2.9,2.9c1.9,0,3.6-.2,5.3-.5l-2.4-2.4Z"/>
        <polygon class="cls-2" points="99.7 50.4 106.9 57.6 106.9 43.2 99.7 50.4"/>
        <polygon class="cls-2" points="83.2 146.1 79.9 149.4 99.3 168.8 104.8 163.4 104.8 146.1 83.2 146.1"/>
        <polygon class="cls-2" points="152.1 116.8 139.3 129.6 152.1 142.4 152.1 116.8"/>
        <path class="cls-2" d="M22.5,12.8l17.4,17.4,19.4-19.4-5.6-5.6h-8c-10.2,0-17.9,2.6-23.3,7.7Z"/>
        <polygon class="cls-2" points="138.6 129.6 119.1 110.2 116.8 112.5 116.8 146.7 119.1 149 138.6 129.6"/>
        <path class="cls-2" d="M13.6,43.5l6.6,6.6,19.4-19.4L22.2,13.2c-5.7,5.7-8.6,14.5-8.6,26.3v4Z"/>
        <polygon class="cls-2" points="116.8 147.4 116.8 151.4 118.8 149.4 116.8 147.4"/>
        <polygon class="cls-2" points="152.1 116 152.1 103.6 138.9 90.4 119.5 109.8 138.9 129.2 152.1 116"/>
        <polygon class="cls-2" points="152.1 143.1 138.9 130 119.5 149.4 138.9 168.8 152.1 155.6 152.1 143.1"/>
        <polygon class="cls-2" points="138.9 169.5 132.2 176.3 145.7 176.3 138.9 169.5"/>
        <polygon class="cls-2" points="152.1 156.3 139.3 169.2 146.4 176.3 152.1 176.3 152.1 156.3"/>
        <polygon class="cls-2" points="15.4 164.8 15.4 173.6 19.8 169.2 15.4 164.8"/>
        <polygon class="cls-2" points="18.2 52 19.8 50.4 13.6 44.2 13.6 52 18.2 52"/>
        <polygon class="cls-2" points="76.6 146.1 79.5 149 82.5 146.1 76.6 146.1"/>
        <polygon class="cls-2" points="119.1 149.7 116.8 152.1 116.8 176.3 131.5 176.3 138.6 169.2 119.1 149.7"/>
        <polygon class="cls-2" points="152.1 76.4 152.1 64 138.9 50.8 119.5 70.2 138.9 89.6 152.1 76.4"/>
        <polygon class="cls-2" points="152.1 77.2 139.3 90 152.1 102.8 152.1 77.2"/>
        <path class="cls-2" d="M79.5,30.2l17.9-17.9c-5.3-4.8-12.9-7.2-22.7-7.2h-9l-5.6,5.6,19.4,19.4Z"/>
        <polygon class="cls-2" points="138.9 10.4 141.4 8 136.5 8 138.9 10.4"/>
        <polygon class="cls-2" points="116.8 107.8 116.8 111.8 118.8 109.8 116.8 107.8"/>
        <polygon class="cls-2" points="138.6 90 119.1 70.6 116.8 72.9 116.8 107.1 119.1 109.4 138.6 90"/>
        <polygon class="cls-2" points="59.7 10.4 65 5.2 54.5 5.2 59.7 10.4"/>
        <polygon class="cls-2" points="18.9 52 21.4 52 20.1 50.8 18.9 52"/>
        <polygon class="cls-2" points="39.6 149.4 20.1 130 15.4 134.7 15.4 164.1 20.1 168.8 39.6 149.4"/>
        <polygon class="cls-2" points="104.8 175 99.3 169.5 92.9 176 104.8 176 104.8 175"/>
        <path class="cls-2" d="M48.2,38.5c0-1.3.5-2.4,1.3-3.4,1-1,2.3-1.6,3.6-1.6h15.3c1.4,0,2.5.5,3.4,1.6.5.5.9,1.1,1.2,1.7l6.2-6.2-19.4-19.4-19.4,19.4,7.9,7.9Z"/>
        <polygon class="cls-2" points="20.5 50.4 22.1 52 48.2 52 48.2 39.2 39.9 31 20.5 50.4"/>
        <polygon class="cls-2" points="99.7 169.2 104.8 174.3 104.8 164.1 99.7 169.2"/>
      </g>
    </g>
  </g>
</svg>