<?xml version="1.0" encoding="UTF-8"?>
<svg xmlns="http://www.w3.org/2000/svg" version="1.1" viewBox="0 0 263 180">
  <defs>
    <style>
      .cls-1 {
        fill: none;
      }

      .cls-2 {
        fill: #c59f7b;
      }
    </style>
  </defs>
  <!-- Generator: Adobe Illustrator 28.7.1, SVG Export Plug-In . SVG Version: 1.2.0 Build 142)  -->
  <g>
    <g id="Layer_1">
      <rect class="cls-1" x=".5" width="262" height="180"/>
      <path class="cls-2" d="M250.4,8.6h5l-19.6,32.4h-5l19.6-32.4ZM233.1,25.1h-1.2c-4.1,0-6.2-2.2-6.2-6.6v-3.8c0-4.4,2.1-6.6,6.2-6.6h1.2c4.1,0,6.2,2.2,6.2,6.6v3.8c0,4.4-2.1,6.6-6.2,6.6ZM230.8,21c0,.3,0,.5.2.7.2.2.4.3.7.3h1.6c.3,0,.5-.1.6-.3.2-.2.3-.4.3-.7v-8.8c0-.3-.1-.5-.3-.7-.2-.2-.4-.3-.6-.3h-1.6c-.3,0-.5.1-.7.3-.2.2-.2.4-.2.7v8.8ZM254.1,24.5c4.1,0,6.2,2.2,6.2,6.6v3.8c0,4.4-2.1,6.6-6.2,6.6h-1.2c-4.1,0-6.2-2.2-6.2-6.6v-3.8c0-4.4,2.1-6.6,6.2-6.6h1.2ZM255.3,37.4v-8.8c0-.3-.1-.5-.3-.7-.2-.2-.4-.3-.7-.3h-1.5c-.3,0-.5.1-.7.3-.2.2-.2.4-.2.7v8.8c0,.3,0,.5.2.7.2.2.4.3.7.3h1.5c.3,0,.5-.1.7-.3.2-.2.3-.4.3-.7Z"/>
      <g>
        <path class="cls-2" d="M145.5,30.6l3.7,3.7c.8-.5,1.7-.8,2.7-.8h15.3c1.4,0,2.5.5,3.4,1.6,1,1,1.6,2.3,1.6,3.6v4.1l12.2-12.2-19.4-19.4-19.4,19.4Z"/>
        <polygon class="cls-2" points="204.2 50.4 184.7 31 172.2 43.5 172.2 57.3 184.7 69.8 204.2 50.4"/>
        <path class="cls-2" d="M144.6,5.2c-6.4,0-11.9,1-16.4,3.1l-2.6,2.6,19.4,19.4,19.4-19.4-5.6-5.6h-14.3Z"/>
        <path class="cls-2" d="M184.4,70.2l-12.2-12.2v17.9c0,1.4-.5,2.6-1.6,3.6-.9,1-2,1.6-3.4,1.6h-10.8l8.5,8.5,19.4-19.4Z"/>
        <path class="cls-2" d="M123.5,88.5c-2.7,2.5-4.8,5.6-6.3,9.4l7.9-7.9-1.5-1.5Z"/>
        <path class="cls-2" d="M115.9,20.6c-2.1,4.5-3.2,10-3.5,16.5l12.9,12.9,19.4-19.4-19.4-19.4-9.5,9.5Z"/>
        <path class="cls-2" d="M131.4,83.6c-2.9,1.1-5.4,2.6-7.5,4.5l1.5,1.5,6-6Z"/>
        <polygon class="cls-2" points="124.1 52 126.6 52 125.3 50.8 124.1 52"/>
        <path class="cls-2" d="M125.3,10.4l1.5-1.5c-.7.4-1.3.7-1.9,1.1l.4.4Z"/>
        <path class="cls-2" d="M105.9,149.4l1.4,1.4c.1-1,.2-2,.2-3.1l-1.7,1.7Z"/>
        <polygon class="cls-2" points="45.8 90 43.7 87.9 43.7 92.1 45.8 90"/>
        <path class="cls-2" d="M116.6,19.2l8.4-8.4-.5-.5c-3.3,2.2-6,5.2-7.9,8.9Z"/>
        <path class="cls-2" d="M91.7,175.6l-6-6-9,9c5.8-.1,10.8-1.1,15-3Z"/>
        <path class="cls-2" d="M105.5,69.8h0c.3-2.5.5-5.2.5-8v-22.4c0-3-.2-5.9-.6-8.5l-19.4,19.4,19.4,19.4Z"/>
        <path class="cls-2" d="M73.9,62.6v8.8c0,1.4-.5,2.6-1.6,3.6-.2.2-.4.4-.5.5l14,14,19.4-19.4-19.4-19.4-11.9,11.9Z"/>
        <polygon class="cls-2" points="43.7 87.2 46.1 89.6 59.1 76.7 43.7 76.7 43.7 87.2"/>
        <path class="cls-2" d="M105.2,149.4l-19.4-19.4-10.3,10.3v5.6c0,1.4-.5,2.6-1.6,3.6-.9,1-2,1.6-3.4,1.6h-2.5l17.8,17.8,19.4-19.4Z"/>
        <path class="cls-2" d="M12.5,135.9v8.4c0,6.3.8,11.7,2.4,16.2l11.1-11.1-13.5-13.5Z"/>
        <path class="cls-2" d="M185.1,30.6l19.4,19.4,1.2-1.2v-9.4c0-10-2-17.8-6.1-23.4l-14.5,14.5Z"/>
        <path class="cls-2" d="M184.7,30.2l14.5-14.5c-5.3-7-13.9-10.5-25.8-10.5h-2.6l-5.6,5.6,19.4,19.4Z"/>
        <path class="cls-2" d="M164.9,90.4l-19.4,19.4,4.1,4.1c.8-.6,1.8-.9,2.8-.9h21.1c3,0,5.7-.2,8.3-.7l2.6-2.6-19.4-19.4Z"/>
        <polygon class="cls-2" points="114.2 158.4 114.2 176 118.2 176 125 169.2 114.2 158.4"/>
        <path class="cls-2" d="M67.2,151h-2.6l-18.2,18.2,9.4,9.4h19.5c.2,0,.4,0,.6,0l9.4-9.4-18.2-18.2Z"/>
        <path class="cls-2" d="M26,30.6l-8.9-8.9c-2,4.9-3,10.8-3,17.8v3l11.9-11.9Z"/>
        <path class="cls-2" d="M204.5,90.4l-19.4,19.4,1.5,1.5c9.7-3.1,15.7-10,18-20.9h0Z"/>
        <path class="cls-2" d="M112.4,37.8c0,.6,0,1.1,0,1.7v12.5h11l1.6-1.6-12.6-12.6Z"/>
        <polygon class="cls-2" points="75.4 119.6 75.4 139.6 85.4 129.6 75.4 119.6"/>
        <polygon class="cls-2" points="43.7 92.8 43.7 104.8 60.6 104.8 46.1 90.4 43.7 92.8"/>
        <path class="cls-2" d="M105.2,109.8l-19.4-19.4-14.5,14.5c1,.2,1.9.6,2.6,1.5,1,1,1.6,2.3,1.6,3.6v9l10.3,10.3,19.4-19.4Z"/>
        <path class="cls-2" d="M61.3,104.8h9.2s0,0,.1,0l14.8-14.8-14-14c-.7.5-1.5.7-2.4.7h-9.1l-13.3,13.3,14.8,14.8Z"/>
        <path class="cls-2" d="M95.4,89.9c5.5-4,8.8-10.5,10.1-19.4l-19.4,19.4,19.4,19.4,1.1-1.1c-1.7-8.2-5.4-14.3-11.2-18.4Z"/>
        <path class="cls-2" d="M106.7,108.9l-.8.8,1.2,1.2c0-.7-.2-1.4-.3-2Z"/>
        <polygon class="cls-2" points="85.4 50.4 73.9 38.9 73.9 61.9 85.4 50.4"/>
        <path class="cls-2" d="M86.1,169.2l6.1,6.1c8.6-4.1,13.6-12.1,15-23.9l-1.7-1.7-19.4,19.4Z"/>
        <path class="cls-2" d="M125.7,50.4l1.6,1.6h19.7v-13.3c0-1.4.4-2.6,1.3-3.6.2-.2.4-.3.5-.5l-3.7-3.7-19.4,19.4Z"/>
        <path class="cls-2" d="M26.3,149.7l-11.2,11.2c3.6,9.6,10.9,15.3,21.9,17l8.8-8.8-19.4-19.4Z"/>
        <path class="cls-2" d="M26.7,30.6l19.4,19.4.4-.4v-10.9c0-1.4.4-2.6,1.3-3.6,1-1,2.3-1.6,3.6-1.6h11.2l2.9-2.9-19.4-19.4-19.4,19.4Z"/>
        <polygon class="cls-2" points="14.1 43.2 14.1 55.4 40.8 55.4 45.8 50.4 26.3 31 14.1 43.2"/>
        <polygon class="cls-2" points="145.1 149.7 125.7 169.2 132.5 176 157.8 176 164.6 169.2 145.1 149.7"/>
        <polygon class="cls-2" points="125.3 130 114.2 141.1 114.2 157.7 125.3 168.8 144.8 149.4 125.3 130"/>
        <path class="cls-2" d="M148.1,146.1h-.6v-27.8c0-1.4.4-2.6,1.3-3.6.1-.1.3-.3.5-.4l-4.1-4.1-19.4,19.4,19.4,19.4,2.9-2.9Z"/>
        <path class="cls-2" d="M65.9,30.2l19.4-19.4-5.3-5.3c-2-.2-4.1-.4-6.3-.4h-21.7l-5.6,5.6,19.4,19.4Z"/>
        <path class="cls-2" d="M184.7,110.2l-2.1,2.1c1.2-.2,2.3-.5,3.4-.8l-1.3-1.3Z"/>
        <path class="cls-2" d="M55.2,178.6l-9.1-9.1-8.6,8.6c2.2.3,4.6.5,7.2.5h10.5Z"/>
        <polygon class="cls-2" points="203.6 168.6 184.7 149.7 165.3 169.2 172.1 176 197.4 176 203.6 169.7 203.6 168.6"/>
        <path class="cls-2" d="M17.3,21.2l9,9,19.4-19.4-5.3-5.3c-11.4,1.3-19.2,6.5-23.2,15.7Z"/>
        <polygon class="cls-2" points="203.6 170.5 198.1 176 203.6 176 203.6 170.5"/>
        <polygon class="cls-2" points="164.9 169.5 158.5 176 171.4 176 164.9 169.5"/>
        <polygon class="cls-2" points="188.4 146.1 185.1 149.4 203.6 167.9 203.6 146.1 188.4 146.1"/>
        <polygon class="cls-2" points="181.1 146.1 148.8 146.1 145.5 149.4 164.9 168.8 184.4 149.4 181.1 146.1"/>
        <polygon class="cls-2" points="187.7 146.1 181.8 146.1 184.7 149 187.7 146.1"/>
        <path class="cls-2" d="M46.1,10.4l5.3-5.3h-5.1c-1.8,0-3.5,0-5.2.2l5,5Z"/>
        <polygon class="cls-2" points="41.5 55.4 46.6 55.4 46.6 51.2 46.1 50.8 41.5 55.4"/>
        <path class="cls-2" d="M204.8,89.4c.6-3.2.9-6.8.9-10.6v-26.8l-1.2-1.2-19.4,19.4,19.4,19.4.2-.2Z"/>
        <path class="cls-2" d="M105.4,30.1c-1.8-11.2-7.3-18.7-16.3-22.3l-3,3,19.3,19.3Z"/>
        <polygon class="cls-2" points="164.9 10.4 170.2 5.2 159.7 5.2 164.9 10.4"/>
        <rect class="cls-2" x="171" y="76.2" width="27.5" height="27.5" transform="translate(-9.5 157) rotate(-45)"/>
        <polygon class="cls-2" points="125.3 169.5 118.9 176 131.8 176 125.3 169.5"/>
        <path class="cls-2" d="M164.6,90l-8.9-8.9h-9.3c-5.3,0-9.9.7-13.9,2.1l-6.8,6.8,19.4,19.4,19.4-19.4Z"/>
        <polygon class="cls-2" points="114.2 118.8 114.2 140.4 125 129.6 114.2 118.8"/>
        <path class="cls-2" d="M144.8,109.8l-19.4-19.4-8.7,8.7c-1.7,4.6-2.5,10.1-2.5,16.4v2.7l11.1,11.1,19.4-19.4Z"/>
        <polygon class="cls-2" points="204.9 50.4 205.7 51.2 205.7 49.6 204.9 50.4"/>
        <polygon class="cls-2" points="44.9 130.5 12.5 130.5 12.5 135.2 26.3 149 44.9 130.5"/>
        <path class="cls-2" d="M107.7,119.3c0-2.7-.2-5.2-.4-7.5l-1.7-1.7-19.4,19.4,19.4,19.4,2.1-2.1c0-.9,0-1.8,0-2.7v-25Z"/>
        <path class="cls-2" d="M63.9,151h-14c-1.4,0-2.6-.5-3.6-1.6-.9-1-1.3-2.3-1.3-3.6v-14.7l-18.3,18.3,19.4,19.4,17.8-17.8Z"/>
        <polygon class="cls-2" points="63.4 33.5 68.5 33.5 65.9 31 63.4 33.5"/>
        <path class="cls-2" d="M69.3,33.6c1.2,0,2.3.6,3,1.5.9.9,1.4,1.9,1.5,3l11.9,11.9,19.4-19.4-19.4-19.4-19.4,19.4,3,3Z"/>
        <polygon class="cls-2" points="46.6 50.5 46.6 50.3 46.5 50.4 46.6 50.5"/>
        <path class="cls-2" d="M85.7,10.4l2.9-2.9c-2.3-.9-4.9-1.5-7.7-1.9l4.8,4.8Z"/>
      </g>
    </g>
  </g>
</svg>