<?xml version="1.0" encoding="UTF-8"?>
<svg xmlns="http://www.w3.org/2000/svg" version="1.1" viewBox="0 0 253 180">
  <defs>
    <style>
      .cls-1 {
        fill: none;
      }

      .cls-2 {
        fill: #c59f7b;
      }
    </style>
  </defs>
  <!-- Generator: Adobe Illustrator 28.7.1, SVG Export Plug-In . SVG Version: 1.2.0 Build 142)  -->
  <g>
    <g id="Layer_1">
      <rect class="cls-1" width="253" height="180"/>
      <path class="cls-2" d="M240.9,8.6h5l-19.6,32.4h-5l19.6-32.4ZM223.6,25.1h-1.2c-4.1,0-6.2-2.2-6.2-6.6v-3.8c0-4.4,2.1-6.6,6.2-6.6h1.2c4.1,0,6.2,2.2,6.2,6.6v3.8c0,4.4-2.1,6.6-6.2,6.6ZM221.3,21c0,.3,0,.5.2.7.2.2.4.3.7.3h1.6c.3,0,.5-.1.6-.3.2-.2.3-.4.3-.7v-8.8c0-.3-.1-.5-.3-.7-.2-.2-.4-.3-.6-.3h-1.6c-.3,0-.5.1-.7.3-.2.2-.2.4-.2.7v8.8ZM244.6,24.5c4.1,0,6.2,2.2,6.2,6.6v3.8c0,4.4-2.1,6.6-6.2,6.6h-1.2c-4.1,0-6.2-2.2-6.2-6.6v-3.8c0-4.4,2.1-6.6,6.2-6.6h1.2ZM245.8,37.4v-8.8c0-.3-.1-.5-.3-.7-.2-.2-.4-.3-.7-.3h-1.5c-.3,0-.5.1-.7.3-.2.2-.2.4-.2.7v8.8c0,.3,0,.5.2.7.2.2.4.3.7.3h1.5c.3,0,.5-.1.7-.3.2-.2.3-.4.3-.7Z"/>
      <g>
        <path class="cls-2" d="M137.6,145.1v-13.3h-14.7l15,15c-.2-.6-.3-1.1-.3-1.8Z"/>
        <polygon class="cls-2" points="81.4 91 80.7 90.4 61.3 109.8 74.7 123.2 81.4 91"/>
        <polygon class="cls-2" points="101.2 29.6 120 10.8 117 7.8 101.2 7.8 101.2 29.6"/>
        <path class="cls-2" d="M103.6,152.9c1.4,9.7,5.4,16.6,11.9,20.8l4.5-4.5-16.3-16.3Z"/>
        <polygon class="cls-2" points="88.3 57.6 92.1 39.4 81.1 50.4 88.3 57.6"/>
        <polygon class="cls-2" points="61.3 70.2 80.7 89.6 81.9 88.5 88.2 58.2 80.7 50.8 61.3 70.2"/>
        <path class="cls-2" d="M103.1,131.8v12.5c0,.7,0,1.5,0,2.2l14.7-14.7h-14.7Z"/>
        <path class="cls-2" d="M140.3,70.7h-.3l-19.3,19.3,12.7,12.7s0,0,.1,0h13.4l12.7-12.7-19.3-19.3Z"/>
        <polygon class="cls-2" points="140.5 30.6 145.5 35.6 174.4 35.6 179.4 30.6 159.9 11.2 140.5 30.6"/>
        <polygon class="cls-2" points="157.3 7.8 159.9 10.4 162.6 7.8 157.3 7.8"/>
        <polygon class="cls-2" points="175.1 35.6 184.4 35.6 179.7 31 175.1 35.6"/>
        <path class="cls-2" d="M177.1,72.5c-3.8-1.2-8.1-1.8-13-1.8h-23.2l18.9,18.9,17.2-17.2Z"/>
        <polygon class="cls-2" points="180.1 30.6 185.1 35.6 189.6 35.6 189.6 21.1 180.1 30.6"/>
        <path class="cls-2" d="M101.2,31.7v36.7c0,.3,0,.5,0,.8l18.7-18.7-18.7-18.7Z"/>
        <polygon class="cls-2" points="117.7 7.8 120.3 10.4 123 7.8 117.7 7.8"/>
        <polygon class="cls-2" points="40.8 129.6 40 128.8 39.6 130.8 40.8 129.6"/>
        <polygon class="cls-2" points="80.4 90 60.9 70.6 49 82.5 46.5 95 60.9 109.4 80.4 90"/>
        <polygon class="cls-2" points="120.7 10.8 140.1 30.2 159.6 10.8 156.6 7.8 123.7 7.8 120.7 10.8"/>
        <path class="cls-2" d="M196.4,126.1v-21.1c0-3.9-.3-7.4-.9-10.6l-15.4,15.4,16.3,16.3Z"/>
        <polygon class="cls-2" points="52.9 62.5 49.1 81.7 60.6 70.2 52.9 62.5"/>
        <polygon class="cls-2" points="60.6 109.8 46.4 95.6 40.1 128.2 41.1 129.2 60.6 109.8"/>
        <polygon class="cls-2" points="135.5 35.6 144.8 35.6 140.1 31 135.5 35.6"/>
        <polygon class="cls-2" points="101.2 30.3 101.2 30.9 120.3 50 134.5 35.9 134.5 35.6 134.8 35.6 139.8 30.6 120.3 11.2 101.2 30.3"/>
        <path class="cls-2" d="M101.3,71.3c.5,12.1,4.4,20.8,11.5,25.8l7.2-7.2-18.7-18.7Z"/>
        <path class="cls-2" d="M135.8,69.1c-.9-1-1.3-2.3-1.3-3.6v-.6l-14.2-14.2-19.1,19.1c0,.2,0,.5,0,.7l19.1,19.1,19-19c-1.3,0-2.5-.5-3.5-1.5Z"/>
        <path class="cls-2" d="M113.2,97.5c4.9,3.4,11.4,5.1,19.4,5.2l-12.3-12.3-7.1,7.1Z"/>
        <polygon class="cls-2" points="81.5 90.4 81.8 89.3 81.1 90 81.5 90.4"/>
        <polygon class="cls-2" points="120.7 50.4 134.5 64.2 134.5 36.6 120.7 50.4"/>
        <path class="cls-2" d="M162.9,132.9v12.2c0,1.4-.5,2.6-1.6,3.6-.9,1-2,1.6-3.4,1.6h-15.3c-.5,0-1,0-1.5-.2l18.8,18.8,19.4-19.4-16.5-16.5Z"/>
        <path class="cls-2" d="M140.1,149.7l-19.4,19.4,9.1,9.1c1.7.2,3.6.3,5.5.3h14.9l9.4-9.4-19.4-19.4Z"/>
        <path class="cls-2" d="M168.8,178.4l-8.9-8.9-9.1,9.1h13.3c1.6,0,3.1,0,4.6-.2Z"/>
        <polygon class="cls-2" points="67.8 156.6 60.9 149.7 41.5 169.2 48.3 176 63.8 176 67.8 156.6"/>
        <polygon class="cls-2" points="41.1 169.5 34.7 176 47.6 176 41.1 169.5"/>
        <polygon class="cls-2" points="33.5 161.9 30.8 176 34 176 40.8 169.2 33.5 161.9"/>
        <polygon class="cls-2" points="41.1 10.4 43.8 7.8 38.5 7.8 41.1 10.4"/>
        <polygon class="cls-2" points="196.4 132.4 196.4 126.8 179.7 110.2 162.9 127 162.9 132.2 179.7 149 196.4 132.4"/>
        <path class="cls-2" d="M196.4,133.1l-16.3,16.3,13.1,13.1c2.1-4.9,3.2-11,3.2-18.2v-11.2Z"/>
        <polygon class="cls-2" points="16 35.6 21 30.6 12.8 22.5 12.8 35.6 16 35.6"/>
        <path class="cls-2" d="M193,163l-13.2-13.2-19.4,19.4,9.1,9.1c11.6-1.2,19.4-6.3,23.5-15.4Z"/>
        <polygon class="cls-2" points="16.7 35.6 26 35.6 21.3 31 16.7 35.6"/>
        <polygon class="cls-2" points="12.8 21.7 21.3 30.2 40.8 10.8 37.8 7.8 12.8 7.8 12.8 21.7"/>
        <polygon class="cls-2" points="71.4 139.3 61.3 149.4 67.9 156 71.4 139.3"/>
        <polygon class="cls-2" points="95.1 24.8 98.6 7.8 84.1 7.8 81.1 10.8 95.1 24.8"/>
        <polygon class="cls-2" points="21.7 30.6 26.7 35.6 55.6 35.6 60.6 30.6 41.1 11.2 21.7 30.6"/>
        <polygon class="cls-2" points="71.6 138.4 74.6 123.8 60.9 110.2 41.5 129.6 60.9 149 71.6 138.4"/>
        <polygon class="cls-2" points="60.6 149.4 41.1 130 39.4 131.7 33.6 161.3 41.1 168.8 60.6 149.4"/>
        <polygon class="cls-2" points="80.7 10.4 83.4 7.8 78.1 7.8 80.7 10.4"/>
        <polygon class="cls-2" points="80.7 50 92.3 38.5 95 25.4 80.7 11.2 61.3 30.6 80.7 50"/>
        <polygon class="cls-2" points="56.3 35.6 58.1 35.6 53 61.9 60.9 69.8 80.4 50.4 60.9 31 56.3 35.6"/>
        <polygon class="cls-2" points="179.7 30.2 189.6 20.3 189.6 7.8 163.3 7.8 160.3 10.8 179.7 30.2"/>
        <path class="cls-2" d="M120.3,169.5l-4.4,4.4c3.6,2.2,8,3.7,13.1,4.3l-8.7-8.7Z"/>
        <path class="cls-2" d="M195.4,93.8c-2.2-11-8.2-18-17.7-21.2l-17.4,17.4,19.4,19.4,15.6-15.6Z"/>
        <polygon class="cls-2" points="60.9 30.2 80.4 10.8 77.4 7.8 44.5 7.8 41.5 10.8 60.9 30.2"/>
        <path class="cls-2" d="M179.4,109.8l-19.4-19.4-12.3,12.3h10.3c1.4,0,2.5.5,3.4,1.6,1,1,1.6,2.3,1.6,3.6v18.4l16.5-16.5Z"/>
        <path class="cls-2" d="M138.9,148.7c-.1-.2-.2-.3-.4-.5l-16.4-16.4h-3.7l-15.4,15.4c0,1.7.2,3.3.4,4.9l16.8,16.8,19.4-19.4c-.3-.2-.6-.4-.8-.7Z"/>
      </g>
    </g>
  </g>
</svg>