<?xml version="1.0" encoding="UTF-8"?>
<svg xmlns="http://www.w3.org/2000/svg" version="1.1" viewBox="0 0 261 180">
  <defs>
    <style>
      .cls-1 {
        fill: none;
      }

      .cls-2 {
        fill: #c59f7b;
      }
    </style>
  </defs>
  <!-- Generator: Adobe Illustrator 28.7.1, SVG Export Plug-In . SVG Version: 1.2.0 Build 142)  -->
  <g>
    <g id="Layer_1">
      <rect class="cls-1" x=".5" width="260" height="180"/>
      <path class="cls-2" d="M248.4,8.6h5l-19.6,32.4h-5l19.6-32.4ZM231.1,25.1h-1.2c-4.1,0-6.2-2.2-6.2-6.6v-3.8c0-4.4,2.1-6.6,6.2-6.6h1.2c4.1,0,6.2,2.2,6.2,6.6v3.8c0,4.4-2.1,6.6-6.2,6.6ZM228.8,21c0,.3,0,.5.2.7.2.2.4.3.7.3h1.6c.3,0,.5-.1.6-.3.2-.2.3-.4.3-.7v-8.8c0-.3-.1-.5-.3-.7-.2-.2-.4-.3-.6-.3h-1.6c-.3,0-.5.1-.7.3-.2.2-.2.4-.2.7v8.8ZM252.1,24.5c4.1,0,6.2,2.2,6.2,6.6v3.8c0,4.4-2.1,6.6-6.2,6.6h-1.2c-4.1,0-6.2-2.2-6.2-6.6v-3.8c0-4.4,2.1-6.6,6.2-6.6h1.2ZM253.3,37.4v-8.8c0-.3-.1-.5-.3-.7-.2-.2-.4-.3-.7-.3h-1.5c-.3,0-.5.1-.7.3-.2.2-.2.4-.2.7v8.8c0,.3,0,.5.2.7.2.2.4.3.7.3h1.5c.3,0,.5-.1.7-.3.2-.2.3-.4.3-.7Z"/>
      <g>
        <path class="cls-2" d="M28.6,106.9c4.4,1.9,9.6,2.8,15.8,2.8h13c2.4,0,4.6-.1,6.7-.4l-18.9-18.9-16.6,16.6Z"/>
        <polygon class="cls-2" points="112.3 117.9 112.3 141.3 124 129.6 112.3 117.9"/>
        <polygon class="cls-2" points="48 131.8 47.7 131.8 48 132.1 48 131.8"/>
        <path class="cls-2" d="M104.2,109.8l-19.4-19.4-18.6,18.6c3.2-.6,6.1-1.4,8.7-2.7v13l10,10,19.4-19.4Z"/>
        <polygon class="cls-2" points="74.8 120 74.8 139.2 84.4 129.6 74.8 120"/>
        <path class="cls-2" d="M74.8,60.7v11.8c0,1.4-.5,2.6-1.6,3.6-.3.4-.7.7-1.1.9l12.6,12.6,19.4-19.4-19.4-19.4-10,10Z"/>
        <path class="cls-2" d="M64.7,109.2c.2,0,.4,0,.5,0l19.1-19.1-12.7-12.7c-.6.3-1.2.4-1.9.4h-12.1l-12.3,12.3,19.2,19.2Z"/>
        <path class="cls-2" d="M85.1,50.4l19.4,19.4,2.7-2.7v-27.6c0-2.1,0-4.2-.3-6.1l-2.4-2.4-19.4,19.4Z"/>
        <path class="cls-2" d="M74.8,42.4v17.7l9.6-9.6-10-10c.3.6.4,1.3.4,2Z"/>
        <polygon class="cls-2" points="147.6 106 147.6 74 144.1 70.6 124.7 90 144.1 109.4 147.6 106"/>
        <polygon class="cls-2" points="158.7 5.2 163.9 10.4 169.2 5.2 158.7 5.2"/>
        <path class="cls-2" d="M144.5,30.6l3.3,3.3c.2-.9.6-1.7,1.2-2.4,1-1,2.3-1.6,3.6-1.6h14.8c1.4,0,2.5.5,3.4,1.6,1,1,1.6,2.3,1.6,3.6v6.6l11.1-11.1-19.4-19.4-19.4,19.4Z"/>
        <polygon class="cls-2" points="172.3 59.1 172.3 81.3 183.4 70.2 172.3 59.1"/>
        <path class="cls-2" d="M126.4,9.1l-1.7,1.7,19.4,19.4,19.4-19.4-5.6-5.6h-13.5c-7.3,0-13.3,1.3-18.1,3.9Z"/>
        <polygon class="cls-2" points="147.6 106.7 144.5 109.8 147.6 112.9 147.6 106.7"/>
        <path class="cls-2" d="M106.9,32.6c-.1-1.2-.3-2.4-.5-3.5l-1.5,1.5,2,2Z"/>
        <path class="cls-2" d="M184.1,30.6l19.4,19.4,4.1-4.1v-6.4c0-11-2.5-19.3-7.4-25l-16.1,16.1Z"/>
        <polygon class="cls-2" points="143.8 109.8 124.3 90.4 112.3 102.4 112.3 117.2 124.3 129.2 143.8 109.8"/>
        <path class="cls-2" d="M104.5,30.2l1.7-1.7c-2.2-11-8.1-18.1-17.6-21.3l-3.6,3.6,19.4,19.4Z"/>
        <path class="cls-2" d="M104.9,149.4l2,2c.2-1.4.3-2.8.3-4.3l-2.3,2.3Z"/>
        <path class="cls-2" d="M107.3,112.9l-2.7-2.7-19.4,19.4,19.4,19.4,2.7-2.7c0-.7,0-1.4,0-2.1v-31.4Z"/>
        <path class="cls-2" d="M124.3,50l19.4-19.4-19.4-19.4-7.7,7.7c-2.7,5-4.2,11.4-4.4,19.1l12.1,12.1Z"/>
        <path class="cls-2" d="M124,10.8h-.1c-2.4,1.6-4.5,3.7-6.2,6.3l6.3-6.3Z"/>
        <path class="cls-2" d="M85.1,169.2l6.3,6.3c8.8-4,13.9-11.8,15.4-23.5l-2.3-2.3-19.4,19.4Z"/>
        <polygon class="cls-2" points="207.7 46.6 203.9 50.4 207.7 54.2 207.7 46.6"/>
        <path class="cls-2" d="M114.4,159.6c1.6,4.9,4,8.8,7.4,11.9l2.2-2.2-9.6-9.6Z"/>
        <polygon class="cls-2" points="172.3 42.4 172.3 58.4 183.7 69.8 203.2 50.4 183.7 31 172.3 42.4"/>
        <polygon class="cls-2" points="104.9 70.2 107.3 72.6 107.3 67.8 104.9 70.2"/>
        <polygon class="cls-2" points="112.3 78.3 112.3 101.7 124 90 112.3 78.3"/>
        <polygon class="cls-2" points="107.3 107.4 104.9 109.8 107.3 112.2 107.3 107.4"/>
        <path class="cls-2" d="M124,50.4l-11.7-11.7c0,.3,0,.5,0,.8v22.6l11.7-11.7Z"/>
        <path class="cls-2" d="M124.7,10.1c-.1,0-.2.2-.4.3h0c0,0,.3-.3.3-.3Z"/>
        <polygon class="cls-2" points="143.8 70.2 124.3 50.8 112.3 62.8 112.3 77.6 124.3 89.6 143.8 70.2"/>
        <polygon class="cls-2" points="104.5 70.6 85.1 90 104.5 109.4 107.3 106.7 107.3 73.3 104.5 70.6"/>
        <polygon class="cls-2" points="147.6 73.3 147.6 67.1 144.5 70.2 147.6 73.3"/>
        <path class="cls-2" d="M124.7,50.4l19.4,19.4,3.5-3.5v-31.3c0-.2,0-.4,0-.6l-3.5-3.5-19.4,19.4Z"/>
        <polygon class="cls-2" points="42.6 131.8 14.7 131.8 14.7 138.4 25.3 149 42.6 131.8"/>
        <path class="cls-2" d="M144.1,149.7l-19.4,19.4,8,8c3.5,1,7.4,1.4,11.8,1.4h9.7l9.4-9.4-19.4-19.4Z"/>
        <path class="cls-2" d="M54.2,178.6l-9.1-9.1-8.1,8.1c3,.6,6.3,1,9.9,1h7.2Z"/>
        <path class="cls-2" d="M172.3,138.3v10.1c0,1.4-.5,2.6-1.6,3.6-.9,1-2,1.6-3.4,1.6h-14.8c-1.4,0-2.6-.5-3.6-1.6-.9-1-1.3-2.3-1.3-3.6v-2.2l-3.1,3.1,19.4,19.4,19.4-19.4-11.1-11.1Z"/>
        <polygon class="cls-2" points="163.9 169.5 154.9 178.6 173 178.6 163.9 169.5"/>
        <polygon class="cls-2" points="12.1 44.2 12.1 56.6 25.3 69.8 44.4 50.8 44.4 50 25.3 31 12.1 44.2"/>
        <path class="cls-2" d="M12.5,82.7l12.5-12.5-12.9-12.9v18.1c0,2.6.1,5,.4,7.3Z"/>
        <path class="cls-2" d="M36.5,177.5l8.3-8.3-19.4-19.4-8.8,8.8c3,10.2,9.6,16.5,20,18.9Z"/>
        <path class="cls-2" d="M14.7,139.1v5.2c0,5.2.6,9.7,1.7,13.7l8.6-8.6-10.3-10.3Z"/>
        <polygon class="cls-2" points="84.4 169.2 65.5 150.3 64.4 150.3 45.5 169.2 54.9 178.6 75 178.6 84.4 169.2"/>
        <path class="cls-2" d="M207.7,134.1l-4.1-4.1-19.4,19.4,17.8,17.8c3.9-5.6,5.8-13.2,5.8-22.9v-10.2Z"/>
        <path class="cls-2" d="M201.6,167.6l-17.9-17.9-19.4,19.4,9.4,9.4h1.7c12.2,0,20.9-3.7,26.2-11Z"/>
        <polygon class="cls-2" points="203.9 129.6 207.7 133.4 207.7 125.8 203.9 129.6"/>
        <polygon class="cls-2" points="203.2 129.6 183.7 110.2 172.3 121.6 172.3 137.6 183.7 149 203.2 129.6"/>
        <path class="cls-2" d="M12.1,43.5l12.9-12.9-9.6-9.6c-2.2,5-3.3,11.1-3.3,18.5v4Z"/>
        <path class="cls-2" d="M15.7,20.6l9.7,9.7,19.4-19.4-5.4-5.4c-11.6,1.1-19.6,6.1-23.7,15.1Z"/>
        <polygon class="cls-2" points="207.7 125.1 207.7 94.5 203.5 90.4 184.1 109.8 203.5 129.2 207.7 125.1"/>
        <path class="cls-2" d="M40,5.4l5.1,5.1,5.3-5.3h-6.1c-1.5,0-2.9,0-4.3.2Z"/>
        <path class="cls-2" d="M104.2,149.4l-19.4-19.4-10,10v5.1c0,1.4-.5,2.6-1.6,3.6-.9,1-2,1.6-3.4,1.6h-3.7l18.6,18.6,19.4-19.4Z"/>
        <path class="cls-2" d="M84.7,10.4l3.4-3.4c-2.6-.8-5.4-1.4-8.5-1.6l5.1,5.1Z"/>
        <path class="cls-2" d="M63.7,150.3h-10.8c-1.4,0-2.6-.5-3.6-1.6-.9-1-1.3-2.3-1.3-3.6v-12.3l-1-1h-3.7l-17.6,17.6,19.4,19.4,18.6-18.6Z"/>
        <path class="cls-2" d="M12.6,83.3c1.5,11.7,6.7,19.5,15.5,23.4l16.7-16.7-19.4-19.4-12.7,12.7Z"/>
        <path class="cls-2" d="M90.9,175.7l-6.2-6.2-9,9c5.9,0,11-1,15.2-2.8Z"/>
        <path class="cls-2" d="M58.7,37.2h11.1c.6,0,1.1.1,1.6.3l-6.5-6.5-6.2,6.2Z"/>
        <path class="cls-2" d="M25.7,70.2l19.4,19.4,11.9-11.9h-7.8c-1.4,0-2.6-.5-3.6-1.6-.9-1-1.3-2.3-1.3-3.6v-21l-18.7,18.7Z"/>
        <rect class="cls-2" x="71" y="16.9" width="27.5" height="27.5" transform="translate(3.2 68.9) rotate(-45)"/>
        <path class="cls-2" d="M124.3,169.5l-2.2,2.2c2.6,2.3,5.8,4,9.5,5.1l-7.3-7.3Z"/>
        <path class="cls-2" d="M25.7,30.6l18.7,18.7v-6.9c0-1.4.4-2.6,1.3-3.6,1-1,2.3-1.6,3.6-1.6h8.7l6.6-6.6-19.4-19.4-19.4,19.4Z"/>
        <path class="cls-2" d="M183.7,30.2l16.2-16.2c-5.4-5.9-13.5-8.9-24.5-8.9h-5.5l-5.6,5.6,19.4,19.4Z"/>
        <polygon class="cls-2" points="207.7 86.2 203.9 90 207.7 93.8 207.7 86.2"/>
        <polygon class="cls-2" points="207.7 85.5 207.7 54.9 203.5 50.8 184.1 70.2 203.5 89.6 207.7 85.5"/>
        <path class="cls-2" d="M64.9,30.2l19.4-19.4-5.5-5.5c-1.2,0-2.5-.1-3.9-.1h-23.9l-5.6,5.6,19.4,19.4Z"/>
        <polygon class="cls-2" points="203.2 90 183.7 70.6 172.3 82 172.3 98 183.7 109.4 203.2 90"/>
        <polygon class="cls-2" points="147.6 145.6 147.6 113.6 144.1 110.2 124.7 129.6 144.1 149 147.6 145.6"/>
        <polygon class="cls-2" points="172.3 98.7 172.3 120.9 183.4 109.8 172.3 98.7"/>
        <path class="cls-2" d="M124.3,130l-12.1,12.1v2.2c0,5.4.6,10.2,1.8,14.3l10.3,10.3,19.4-19.4-19.4-19.4Z"/>
      </g>
    </g>
  </g>
</svg>