<?xml version="1.0" encoding="UTF-8"?>
<svg xmlns="http://www.w3.org/2000/svg" version="1.1" viewBox="0 0 213 180">
  <defs>
    <style>
      .cls-1 {
        fill: none;
      }

      .cls-2 {
        fill: #c59f7b;
      }
    </style>
  </defs>
  <!-- Generator: Adobe Illustrator 28.7.1, SVG Export Plug-In . SVG Version: 1.2.0 Build 142)  -->
  <g>
    <g id="Layer_1">
      <rect class="cls-1" x=".5" width="212" height="180"/>
      <path class="cls-2" d="M200.4,8.6h5l-19.6,32.4h-5l19.6-32.4ZM183.1,25.1h-1.2c-4.1,0-6.2-2.2-6.2-6.6v-3.8c0-4.4,2.1-6.6,6.2-6.6h1.2c4.1,0,6.2,2.2,6.2,6.6v3.8c0,4.4-2.1,6.6-6.2,6.6ZM180.8,21c0,.3,0,.5.2.7.2.2.4.3.7.3h1.6c.3,0,.5-.1.6-.3.2-.2.3-.4.3-.7v-8.8c0-.3-.1-.5-.3-.7-.2-.2-.4-.3-.6-.3h-1.6c-.3,0-.5.1-.7.3-.2.2-.2.4-.2.7v8.8ZM204.1,24.5c4.1,0,6.2,2.2,6.2,6.6v3.8c0,4.4-2.1,6.6-6.2,6.6h-1.2c-4.1,0-6.2-2.2-6.2-6.6v-3.8c0-4.4,2.1-6.6,6.2-6.6h1.2ZM205.3,37.4v-8.8c0-.3-.1-.5-.3-.7-.2-.2-.4-.3-.7-.3h-1.5c-.3,0-.5.1-.7.3-.2.2-.2.4-.2.7v8.8c0,.3,0,.5.2.7.2.2.4.3.7.3h1.5c.3,0,.5-.1.7-.3.2-.2.3-.4.3-.7Z"/>
      <g>
        <polygon class="cls-2" points="61.2 49.6 80.2 30.6 61.2 11.6 61.2 49.6"/>
        <polygon class="cls-2" points="93.5 43.2 93.5 18 80.9 30.6 93.5 43.2"/>
        <path class="cls-2" d="M123.8,74.2c0,1.2-.6,2.3-1.5,3.2-.9,1-2,1.6-3.4,1.6h-7.3l-11,11,19.4,19.4,19.4-19.4-15.8-15.8Z"/>
        <polygon class="cls-2" points="123.9 7.8 123.9 26.5 139.6 10.8 136.6 7.8 123.9 7.8"/>
        <polygon class="cls-2" points="123.9 34.7 123.9 66.1 139.6 50.4 123.9 34.7"/>
        <polygon class="cls-2" points="52.2 137.8 52.2 121.4 40.9 110.2 21.5 129.6 40.9 149 52.2 137.8"/>
        <path class="cls-2" d="M82.3,108.4c3.3.8,7.1,1.3,11.2,1.3h26.2l-19.3-19.3-18.1,18.1Z"/>
        <polygon class="cls-2" points="52.2 81.1 52.2 59.3 41.3 70.2 52.2 81.1"/>
        <polygon class="cls-2" points="52.2 138.5 41.3 149.4 52.2 160.3 52.2 138.5"/>
        <polygon class="cls-2" points="21.5 90 40.9 109.4 52.2 98.2 52.2 81.8 40.9 70.6 21.5 90"/>
        <path class="cls-2" d="M111,79h-12.6c-1.4,0-2.6-.5-3.6-1.6-.9-1-1.3-2.3-1.3-3.6v-16.2l-12.6,12.6,19.4,19.4,10.6-10.6Z"/>
        <polygon class="cls-2" points="61.2 50.3 61.2 50.5 80.5 69.8 93.5 56.9 93.5 43.9 80.5 31 61.2 50.3"/>
        <polygon class="cls-2" points="40.6 109.8 21.1 90.4 16.8 94.7 16.8 124.9 21.1 129.2 40.6 109.8"/>
        <polygon class="cls-2" points="16.8 125.6 16.8 133.6 20.8 129.6 16.8 125.6"/>
        <polygon class="cls-2" points="16.8 86 16.8 94 20.8 90 16.8 86"/>
        <polygon class="cls-2" points="21.1 169.5 16.8 173.9 16.8 176.3 27.9 176.3 21.1 169.5"/>
        <polygon class="cls-2" points="156.4 26.9 156.4 7.8 143.3 7.8 140.3 10.8 156.4 26.9"/>
        <path class="cls-2" d="M80.5,70.6l-17.9,17.9c.4,1.7.9,3.2,1.5,4.7l14,14c1.1.4,2.3.8,3.5,1.2l18.3-18.3-19.4-19.4Z"/>
        <polygon class="cls-2" points="52.2 120.7 52.2 98.9 41.3 109.8 52.2 120.7"/>
        <path class="cls-2" d="M61.2,51.2v24.2c0,4.6.4,8.8,1.3,12.5l17.6-17.6-19-19Z"/>
        <polygon class="cls-2" points="156.4 66.5 156.4 34.3 140.3 50.4 156.4 66.5"/>
        <path class="cls-2" d="M77,106.6l-12.2-12.2c2.6,5.6,6.7,9.7,12.2,12.2Z"/>
        <polygon class="cls-2" points="123.9 27.2 123.9 34 139.9 50 156.4 33.6 156.4 27.6 139.9 11.2 123.9 27.2"/>
        <polygon class="cls-2" points="156.4 146.4 139.9 130 123.9 146 123.9 152.8 139.9 168.8 156.4 152.4 156.4 146.4"/>
        <polygon class="cls-2" points="156.4 112.8 156.4 106.8 139.9 90.4 120.6 109.7 123.9 109.7 123.9 113.2 139.9 129.2 156.4 112.8"/>
        <polygon class="cls-2" points="156.4 73.2 156.4 67.2 139.9 50.8 123.9 66.8 123.9 73.6 139.9 89.6 156.4 73.2"/>
        <polygon class="cls-2" points="40.9 30.2 52.2 19 52.2 8 24.3 8 21.5 10.8 40.9 30.2"/>
        <polygon class="cls-2" points="156.4 113.5 140.3 129.6 156.4 145.7 156.4 113.5"/>
        <polygon class="cls-2" points="16.8 165.2 16.8 173.2 20.8 169.2 16.8 165.2"/>
        <polygon class="cls-2" points="20.8 50.4 16.8 46.4 16.8 54.4 20.8 50.4"/>
        <polygon class="cls-2" points="16.8 14.8 20.8 10.8 18 8 16.8 8 16.8 14.8"/>
        <polygon class="cls-2" points="156.4 153.1 140.3 169.2 147.1 176 156.4 176 156.4 153.1"/>
        <polygon class="cls-2" points="139.9 169.5 133.5 176 146.4 176 139.9 169.5"/>
        <polygon class="cls-2" points="21.1 10.4 23.6 8 18.7 8 21.1 10.4"/>
        <polygon class="cls-2" points="123.9 153.5 123.9 176 132.8 176 139.6 169.2 123.9 153.5"/>
        <polygon class="cls-2" points="16.8 15.5 16.8 45.7 21.1 50 40.6 30.6 21.1 11.2 16.8 15.5"/>
        <polygon class="cls-2" points="52.2 41.5 52.2 19.7 41.3 30.6 52.2 41.5"/>
        <polygon class="cls-2" points="61.2 10.9 80.5 30.2 93.5 17.3 93.5 7.8 64.1 7.8 61.2 10.7 61.2 10.9"/>
        <polygon class="cls-2" points="61.2 10 63.4 7.8 61.2 7.8 61.2 10"/>
        <polygon class="cls-2" points="156.4 73.9 140.3 90 156.4 106.1 156.4 73.9"/>
        <polygon class="cls-2" points="123.9 113.9 123.9 145.3 139.6 129.6 123.9 113.9"/>
        <polygon class="cls-2" points="139.9 10.4 142.6 7.8 137.3 7.8 139.9 10.4"/>
        <polygon class="cls-2" points="21.5 50.4 40.9 69.8 52.2 58.6 52.2 42.2 40.9 31 21.5 50.4"/>
        <polygon class="cls-2" points="52.2 176.3 52.2 161 40.9 149.7 21.5 169.2 28.6 176.3 52.2 176.3"/>
        <polygon class="cls-2" points="40.6 149.4 21.1 130 16.8 134.3 16.8 164.5 21.1 168.8 40.6 149.4"/>
        <polygon class="cls-2" points="16.8 55.1 16.8 85.3 21.1 89.6 40.6 70.2 21.1 50.8 16.8 55.1"/>
      </g>
    </g>
  </g>
</svg>