<?xml version="1.0" encoding="UTF-8"?>
<svg xmlns="http://www.w3.org/2000/svg" version="1.1" viewBox="0 0 263 180">
  <defs>
    <style>
      .cls-1 {
        fill: none;
      }

      .cls-2 {
        fill: #c59f7b;
      }
    </style>
  </defs>
  <!-- Generator: Adobe Illustrator 28.7.1, SVG Export Plug-In . SVG Version: 1.2.0 Build 142)  -->
  <g>
    <g id="Layer_1">
      <rect class="cls-1" x=".5" width="262" height="180"/>
      <path class="cls-2" d="M250.4,8.6h5l-19.6,32.4h-5l19.6-32.4ZM233.1,25.1h-1.2c-4.1,0-6.2-2.2-6.2-6.6v-3.8c0-4.4,2.1-6.6,6.2-6.6h1.2c4.1,0,6.2,2.2,6.2,6.6v3.8c0,4.4-2.1,6.6-6.2,6.6ZM230.8,21c0,.3,0,.5.2.7.2.2.4.3.7.3h1.6c.3,0,.5-.1.6-.3.2-.2.3-.4.3-.7v-8.8c0-.3-.1-.5-.3-.7-.2-.2-.4-.3-.6-.3h-1.6c-.3,0-.5.1-.7.3-.2.2-.2.4-.2.7v8.8ZM254.1,24.5c4.1,0,6.2,2.2,6.2,6.6v3.8c0,4.4-2.1,6.6-6.2,6.6h-1.2c-4.1,0-6.2-2.2-6.2-6.6v-3.8c0-4.4,2.1-6.6,6.2-6.6h1.2ZM255.3,37.4v-8.8c0-.3-.1-.5-.3-.7-.2-.2-.4-.3-.7-.3h-1.5c-.3,0-.5.1-.7.3-.2.2-.2.4-.2.7v8.8c0,.3,0,.5.2.7.2.2.4.3.7.3h1.5c.3,0,.5-.1.7-.3.2-.2.3-.4.3-.7Z"/>
      <g>
        <path class="cls-2" d="M26.7,109.8l19.4,19.4,1.5-1.5v-16.5c0-1.4.4-2.6,1.3-3.6,1-1,2.3-1.6,3.6-1.6h9.3l-15.7-15.7-19.4,19.4Z"/>
        <polygon class="cls-2" points="84.5 52 87 52 85.7 50.8 84.5 52"/>
        <path class="cls-2" d="M86.1,50.4l1.6,1.6h20v-12.5c0-2.4-.1-4.7-.4-6.8l-1.8-1.8-19.4,19.4Z"/>
        <path class="cls-2" d="M62.6,106.1h6.8l16.1-16.1-15.9-15.9h-4.5c-.9,0-1.8,0-2.7,0l-15.9,15.9,16.1,16.1Z"/>
        <path class="cls-2" d="M107.2,31.9c0-.8-.2-1.5-.3-2.3l-1,1,1.3,1.3Z"/>
        <path class="cls-2" d="M146.9,5.2c-8.8,0-15.8,1.9-21,5.8l19.3,19.3,19.4-19.4-5.6-5.6h-12.1Z"/>
        <polygon class="cls-2" points="47.6 128.5 46.5 129.6 47.6 130.7 47.6 128.5"/>
        <path class="cls-2" d="M184.4,30.6l-19.4-19.4-19.4,19.4,4.5,4.5h0c0-1.4.4-2.6,1.3-3.7,1-1,2.3-1.6,3.6-1.6h14.8c1.4,0,2.5.5,3.4,1.6,1,1,1.6,2.3,1.6,3.6v5.2l9.7-9.7Z"/>
        <path class="cls-2" d="M125.3,50l19.4-19.4-19.3-19.3c-.5.4-1,.8-1.5,1.2l-1.5,1.5c-5.2,5.7-7.8,14.1-7.8,25.3l10.7,10.7Z"/>
        <polygon class="cls-2" points="150 104.6 150 75.4 145.1 70.6 125.7 90 145.1 109.4 150 104.6"/>
        <polygon class="cls-2" points="114.7 119.3 114.7 139.9 125 129.6 114.7 119.3"/>
        <polygon class="cls-2" points="144.8 109.8 125.3 90.4 114.7 101 114.7 118.5 125.3 129.2 144.8 109.8"/>
        <polygon class="cls-2" points="68.4 146.6 63.5 146.6 65.9 149 68.4 146.6"/>
        <path class="cls-2" d="M110.3,114.9l-4.7-4.7-19.4,19.4,19.4,19.4,4.7-4.7s0,0,0,0v-29.4Z"/>
        <polygon class="cls-2" points="150 65.7 145.5 70.2 150 74.7 150 65.7"/>
        <path class="cls-2" d="M105.2,149.4l-19.4-19.4-7.7,7.7v3.7c0,1.4-.5,2.6-1.6,3.6-.9,1-2,1.6-3.4,1.6h-4l-2.8,2.8,19.4,19.4,19.4-19.4Z"/>
        <path class="cls-2" d="M105.9,149.4l3.7,3.7c.4-2.5.6-5.2.6-8.1l-4.3,4.3Z"/>
        <path class="cls-2" d="M78,178.6c5.5,0,10.4-.8,14.5-2.3l-6.8-6.8-9.1,9.1h1.3Z"/>
        <path class="cls-2" d="M185.1,30.6l19.4,19.4,5.5-5.5v-5c0-11.5-2.7-20.1-8.1-25.8l-16.9,16.9Z"/>
        <polygon class="cls-2" points="210.1 45.2 204.9 50.4 210.1 55.6 210.1 45.2"/>
        <path class="cls-2" d="M184.7,30.2l16.9-16.9c-5.4-5.5-13.3-8.2-23.8-8.2h-6.9l-5.6,5.6,19.4,19.4Z"/>
        <path class="cls-2" d="M117.6,161.8c1.4,3.6,3.4,6.6,5.9,9l1.6-1.6-7.4-7.4Z"/>
        <polygon class="cls-2" points="150 65 150 35.8 145.1 31 125.7 50.4 145.1 69.8 150 65"/>
        <path class="cls-2" d="M26,30.6l-8.2-8.2c-1.8,4.7-2.7,10.4-2.7,17.1v2l10.9-10.9Z"/>
        <polygon class="cls-2" points="74.4 39.4 74.4 52 83.8 52 85.4 50.4 74.4 39.4"/>
        <polygon class="cls-2" points="65.9 149.7 46.5 169.2 55.9 178.6 76 178.6 85.4 169.2 65.9 149.7"/>
        <path class="cls-2" d="M15.1,138.5v5.8c0,5.4.6,10.1,1.8,14.2l9.1-9.1-10.9-10.9Z"/>
        <path class="cls-2" d="M86.1,169.2l6.9,6.9c9.1-3.6,14.7-11,16.5-22.4l-4-4-19.4,19.4Z"/>
        <path class="cls-2" d="M110.3,114.2v-5.8c0-1,0-1.9,0-2.9l-4.3,4.3,4.4,4.4Z"/>
        <polygon class="cls-2" points="114.7 79.7 114.7 100.3 125 90 114.7 79.7"/>
        <polygon class="cls-2" points="125 50.4 114.7 40.1 114.7 60.7 125 50.4"/>
        <polygon class="cls-2" points="144.8 70.2 125.3 50.8 114.7 61.4 114.7 79 125.3 89.6 144.8 70.2"/>
        <path class="cls-2" d="M96.9,78.5c-4.9-2.9-11.2-4.4-18.9-4.4h-7.8l15.6,15.6,11.2-11.2Z"/>
        <polygon class="cls-2" points="85.4 129.6 78 122.2 78 137 85.4 129.6"/>
        <path class="cls-2" d="M97.4,78.7l-11.3,11.3,19.4,19.4,4.6-4.6c-.7-12.5-4.9-21.2-12.8-26.1Z"/>
        <path class="cls-2" d="M105.2,109.8l-19.4-19.4-15.7,15.7h3c1.4,0,2.5.5,3.4,1.6,1,1,1.6,2.3,1.6,3.6v10.3l7.7,7.7,19.4-19.4Z"/>
        <polygon class="cls-2" points="150 105.3 145.5 109.8 150 114.3 150 105.3"/>
        <polygon class="cls-2" points="164.9 169.5 155.9 178.6 174 178.6 164.9 169.5"/>
        <polygon class="cls-2" points="26 70.2 15.1 59.3 15.1 81.1 26 70.2"/>
        <path class="cls-2" d="M26.3,149.7l-9.3,9.3c3.1,10.1,9.9,16.3,20.3,18.6l8.4-8.4-19.4-19.4Z"/>
        <path class="cls-2" d="M145.1,149.7l-19.4,19.4,7.3,7.3c4,1.4,8.6,2.1,13.9,2.1h8.3l9.4-9.4-19.4-19.4Z"/>
        <path class="cls-2" d="M55.2,178.6l-9.1-9.1-8.2,8.2c2.9.6,6,.9,9.4.9h7.9Z"/>
        <polygon class="cls-2" points="210.1 84.8 204.9 90 210.1 95.2 210.1 84.8"/>
        <path class="cls-2" d="M65.9,30.2l19.4-19.4-5.4-5.4c-1.5-.1-3-.2-4.5-.2h-23.3l-5.6,5.6,19.4,19.4Z"/>
        <path class="cls-2" d="M26.7,30.6l19.4,19.4,1.5-1.5v-9.9c0-1.4.4-2.6,1.3-3.6,1-1,2.3-1.6,3.6-1.6h10.1l2.9-2.9-19.4-19.4-19.4,19.4Z"/>
        <polygon class="cls-2" points="15.1 42.2 15.1 58.6 26.3 69.8 45.8 50.4 26.3 31 15.1 42.2"/>
        <polygon class="cls-2" points="210.1 123.7 210.1 95.9 204.5 90.4 185.1 109.8 204.5 129.2 210.1 123.7"/>
        <path class="cls-2" d="M174.7,139.7v8.7c0,1.4-.5,2.6-1.6,3.6-.9,1-2,1.6-3.4,1.6h-14.8c-1.4,0-2.6-.5-3.6-1.6-.9-1-1.3-2.3-1.3-3.6v-3.6l-4.5,4.5,19.4,19.4,19.4-19.4-9.7-9.7Z"/>
        <polygon class="cls-2" points="174.7 60.5 174.7 79.9 184.4 70.2 174.7 60.5"/>
        <path class="cls-2" d="M203.4,168.4l-18.6-18.6-19.4,19.4,9.4,9.4h3.1c11.7,0,20.2-3.4,25.6-10.2Z"/>
        <polygon class="cls-2" points="204.9 129.6 210.1 134.8 210.1 124.4 204.9 129.6"/>
        <path class="cls-2" d="M210.1,135.5l-5.5-5.5-19.4,19.4,18.6,18.6c4.2-5.6,6.4-13.6,6.4-23.7v-8.8Z"/>
        <polygon class="cls-2" points="204.2 129.6 184.7 110.2 174.7 120.2 174.7 139 184.7 149 204.2 129.6"/>
        <path class="cls-2" d="M46.1,10.4l5.3-5.3h-4.1c-2.1,0-4.2.1-6.1.3l4.9,4.9Z"/>
        <polygon class="cls-2" points="210.1 84.1 210.1 56.3 204.5 50.8 185.1 70.2 204.5 89.6 210.1 84.1"/>
        <path class="cls-2" d="M18,21.9l8.3,8.3,19.4-19.4-5.2-5.2c-11.2,1.5-18.8,6.9-22.6,16.3Z"/>
        <path class="cls-2" d="M26.7,70.2l19.4,19.4,15.5-15.5c-5.4.3-10.1,1.4-14,3.3v-25.3l-1.5-1.5-19.4,19.4Z"/>
        <polygon class="cls-2" points="63.4 33.5 68.5 33.5 65.9 31 63.4 33.5"/>
        <path class="cls-2" d="M69.2,33.5h.2c1.4,0,2.5.5,3.4,1.6,1,1,1.5,2.2,1.6,3.6l11.4,11.4,19.4-19.4-19.4-19.4-19.4,19.4,2.9,2.9Z"/>
        <polygon class="cls-2" points="47.6 51.5 47.6 49.3 46.5 50.4 47.6 51.5"/>
        <path class="cls-2" d="M85.7,10.4l3.3-3.3c-2.5-.8-5.3-1.4-8.3-1.7l5,5Z"/>
        <polygon class="cls-2" points="204.2 50.4 184.7 31 174.7 41 174.7 59.8 184.7 69.8 204.2 50.4"/>
        <polygon class="cls-2" points="204.2 90 184.7 70.6 174.7 80.6 174.7 99.4 184.7 109.4 204.2 90"/>
        <path class="cls-2" d="M105.5,30.2l1.2-1.2c-2.1-11.1-7.8-18.4-17.2-21.7l-3.5,3.5,19.4,19.4Z"/>
        <polygon class="cls-2" points="164.9 10.4 170.2 5.2 159.7 5.2 164.9 10.4"/>
        <path class="cls-2" d="M125.3,169.5l-1.5,1.5c2.3,2.1,5,3.8,8.1,5l-6.6-6.6Z"/>
        <polygon class="cls-2" points="150 144.2 150 115 145.1 110.2 125.7 129.6 145.1 149 150 144.2"/>
        <path class="cls-2" d="M125.3,130l-10.7,10.7v3.6c0,6.3.8,11.8,2.5,16.3l8.2,8.2,19.4-19.4-19.4-19.4Z"/>
        <polygon class="cls-2" points="174.7 100.1 174.7 119.5 184.4 109.8 174.7 100.1"/>
        <polygon class="cls-2" points="45.8 129.6 26.3 110.2 15.1 121.4 15.1 137.8 26.3 149 45.8 129.6"/>
        <polygon class="cls-2" points="15.1 98.9 15.1 120.7 26 109.8 15.1 98.9"/>
        <polygon class="cls-2" points="15.1 81.8 15.1 98.2 26.3 109.4 45.8 90 26.3 70.6 15.1 81.8"/>
        <path class="cls-2" d="M65.6,149.4l-2.8-2.8h-10.3c-1.4,0-2.6-.5-3.6-1.6-.9-1-1.3-2.3-1.3-3.6v-10l-1.5-1.5-19.4,19.4,19.4,19.4,19.4-19.4Z"/>
      </g>
    </g>
  </g>
</svg>