<?xml version="1.0" encoding="UTF-8"?>
<svg id="Layer_2" xmlns="http://www.w3.org/2000/svg" viewBox="0 0 255.12 255.12">
  <defs>
    <style>
      .cls-1 {
        fill: none;
      }

      .cls-2 {
        fill: #fff;
      }
    </style>
  </defs>
  <g id="Layer_1-2" data-name="Layer_1">
    <rect class="cls-1" width="255.12" height="255.12"/>
    <path class="cls-2" d="M241.06,103.38c-8.43-22.93-25.9-41.88-33.38-49.29-12.16-22.82-39.53-47.04-80.23-47.05h-.11c-41.15,0-68.58,24.6-80.63,47.79-7.33,7.36-24.4,26.14-32.64,48.55-7.82,21.27-1.91,45.98,14.05,58.76,10.11,8.1,22.53,10.81,36.88,8.05.28-.05.53-.08.77-.09,1.21-.03,3.51-.12,5.84-.39l-13.04,58.04c-6.11,5.56-8.72,10.24-7.78,13.92.35,1.39,1.53,3.83,5.42,4.64l.23.05,33.19,1.54,11.55.14c.76.04,5.05.14,8.57-3.1,2.75-2.53,4.22-6.35,4.26-11.06l5.49-46.24c4.77.46,9.33.52,13.9.21l5.45,45.9c.05,4.86,1.48,8.63,4.27,11.19,3.05,2.81,6.65,3.11,8.06,3.11.18,0,.32,0,.43,0l11.58-.15,33.21-1.56.49-.06c2.7-.58,4.6-2.27,5.2-4.62.94-3.69-1.69-8.38-7.82-13.95l-14.11-57.85c.23-.18.46-.37.69-.55,3.05.58,6.83.74,8.5.78.24,0,.5.04.77.09,14.37,2.75,26.77.04,36.88-8.05,15.96-12.78,21.87-37.49,14.05-58.76Z"/>
  </g>
</svg>