<?xml version="1.0" encoding="UTF-8"?>
<svg xmlns="http://www.w3.org/2000/svg" version="1.1" viewBox="0 0 265 180">
  <defs>
    <style>
      .cls-1 {
        fill: none;
      }

      .cls-2 {
        fill: #c59f7b;
      }
    </style>
  </defs>
  <!-- Generator: Adobe Illustrator 28.7.1, SVG Export Plug-In . SVG Version: 1.2.0 Build 142)  -->
  <g>
    <g id="Layer_1">
      <rect class="cls-1" x=".5" width="264" height="180"/>
      <path class="cls-2" d="M252.4,8.6h5l-19.6,32.4h-5l19.6-32.4ZM235.1,25.1h-1.2c-4.1,0-6.2-2.2-6.2-6.6v-3.8c0-4.4,2.1-6.6,6.2-6.6h1.2c4.1,0,6.2,2.2,6.2,6.6v3.8c0,4.4-2.1,6.6-6.2,6.6ZM232.8,21c0,.3,0,.5.2.7.2.2.4.3.7.3h1.6c.3,0,.5-.1.6-.3.2-.2.3-.4.3-.7v-8.8c0-.3-.1-.5-.3-.7-.2-.2-.4-.3-.6-.3h-1.6c-.3,0-.5.1-.7.3-.2.2-.2.4-.2.7v8.8ZM256.1,24.5c4.1,0,6.2,2.2,6.2,6.6v3.8c0,4.4-2.1,6.6-6.2,6.6h-1.2c-4.1,0-6.2-2.2-6.2-6.6v-3.8c0-4.4,2.1-6.6,6.2-6.6h1.2ZM257.3,37.4v-8.8c0-.3,0-.5-.3-.7-.2-.2-.4-.3-.6-.3h-1.6c-.3,0-.5.1-.7.3-.2.2-.2.4-.2.7v8.8c0,.3,0,.5.2.7.2.2.4.3.7.3h1.6c.3,0,.5-.1.6-.3.2-.2.3-.4.3-.7Z"/>
      <g>
        <path class="cls-2" d="M27.7,109.8l19.4,19.4h0v-18.8c0-1.4.4-2.6,1.3-3.6,1-1,2.3-1.6,3.6-1.6h10l-14.9-14.9-19.4,19.4Z"/>
        <path class="cls-2" d="M62.8,105.3h8.3l15.3-15.3-13.8-13.8c-.5.2-.9.3-1.5.3h-10l-13.6,13.6,15.3,15.3Z"/>
        <polygon class="cls-2" points="77.6 120.8 77.6 138.4 86.4 129.6 77.6 120.8"/>
        <path class="cls-2" d="M126,50.4l-12-12c0,.4,0,.7,0,1.1v22.9l12-12Z"/>
        <path class="cls-2" d="M76,61.5v9.8c0,1.4-.5,2.6-1.6,3.6-.4.5-.9.9-1.4,1.1l13.7,13.7,19.4-19.4-19.4-19.4-10.7,10.7Z"/>
        <path class="cls-2" d="M106.2,109.8l-19.4-19.4-14.9,14.9h.8c1.4,0,2.5.5,3.4,1.6,1,1,1.6,2.3,1.6,3.6v9.6l9.1,9.1,19.4-19.4Z"/>
        <path class="cls-2" d="M107.8,31.5c0-.5-.2-1-.2-1.5l-.6.6.9.9Z"/>
        <path class="cls-2" d="M126.3,50.8l-12.4,12.4v12.2c0,.6,0,1.3,0,1.9l12.4,12.4,19.4-19.4-19.4-19.4Z"/>
        <polygon class="cls-2" points="63.6 34.3 70.3 34.3 66.9 31 63.6 34.3"/>
        <path class="cls-2" d="M106.5,30.2l.9-.9c-2-11.2-7.7-18.5-17-21.9l-3.4,3.4,19.4,19.4Z"/>
        <path class="cls-2" d="M86.7,10.4l3.2-3.2c-2.5-.9-5.2-1.5-8.2-1.8l5,5Z"/>
        <polygon class="cls-2" points="116.6 131.8 116.6 139 123.8 131.8 116.6 131.8"/>
        <path class="cls-2" d="M71,34.3h.1c1.4,0,2.5.5,3.4,1.6,1,1,1.5,2.2,1.5,3.5l10.7,10.7,19.4-19.4-19.4-19.4-19.4,19.4,3.7,3.7Z"/>
        <path class="cls-2" d="M128.7,8.8l-2,2,19.4,19.4,19.4-19.4-5.6-5.6h-13.8c-7,0-12.8,1.2-17.5,3.6Z"/>
        <path class="cls-2" d="M185.4,70.2l-8.8-8.8v11.1c0,1.4-.5,2.6-1.6,3.6-.9,1-2,1.6-3.4,1.6h-17.7l11.9,11.9,19.4-19.4Z"/>
        <path class="cls-2" d="M146.5,30.6l6.6,6.6h18.6c1.4,0,2.5.5,3.4,1.6.4.4.7.8.9,1.3l9.4-9.4-19.4-19.4-19.4,19.4Z"/>
        <polygon class="cls-2" points="160.7 5.2 165.9 10.4 171.2 5.2 160.7 5.2"/>
        <path class="cls-2" d="M87.1,50.4l19.4,19.4,1.4-1.4c.2-2.1.3-4.3.3-6.6v-22.4c0-2.6-.1-5-.4-7.2l-1.3-1.3-19.4,19.4Z"/>
        <polygon class="cls-2" points="86.4 50.4 76 40.1 76 60.8 86.4 50.4"/>
        <path class="cls-2" d="M87.1,169.2l6.5,6.5c8.9-3.9,14.1-11.6,15.7-23.2l-2.8-2.8-19.4,19.4Z"/>
        <path class="cls-2" d="M106.9,149.4l2.5,2.5c.2-1.7.4-3.5.4-5.4l-2.9,2.9Z"/>
        <path class="cls-2" d="M109.8,119.3c0-2.2-.1-4.2-.3-6.2l-3-3-19.4,19.4,19.4,19.4,3.3-3.3c0-.5,0-1,0-1.5v-25Z"/>
        <path class="cls-2" d="M120.2,163.4c1.3,2.7,2.8,5,4.7,6.9l1.1-1.1-5.8-5.8Z"/>
        <path class="cls-2" d="M176.2,40.5c.2.6.4,1.2.4,1.9v18.4l9.1,9.1,19.4-19.4-19.4-19.4-9.5,9.5Z"/>
        <path class="cls-2" d="M186.1,30.6l19.4,19.4,3.6-3.6v-7c0-10.8-2.4-19-7.2-24.7l-15.8,15.8Z"/>
        <polygon class="cls-2" points="209.1 47.2 205.9 50.4 209.1 53.6 209.1 47.2"/>
        <path class="cls-2" d="M87.1,90l19.4,19.4,2.1-2.1c-1.8-7.7-5.4-13.5-11-17.4,5.3-3.8,8.6-10,9.9-18.4l-1-1-19.4,19.4Z"/>
        <path class="cls-2" d="M106.9,70.2l.8.8c0-.6.2-1.1.2-1.7l-1,1Z"/>
        <path class="cls-2" d="M114,78c.3,7.8,1.9,14.1,4.9,19l7-7-12-12Z"/>
        <path class="cls-2" d="M126,10.8l-.2-.2c-2.8,1.9-5,4.4-6.8,7.3l7.1-7.1Z"/>
        <path class="cls-2" d="M119.2,97.5c5.1,8,13.9,12.1,26.5,12.2l-19.3-19.3-7.1,7.1Z"/>
        <path class="cls-2" d="M108.7,108l-1.8,1.8,2.6,2.6c-.2-1.5-.4-3-.7-4.4Z"/>
        <path class="cls-2" d="M126.3,50l19.4-19.4-19.4-19.4-8.3,8.3c-2.5,4.8-3.8,10.9-4,18.2l12.4,12.4Z"/>
        <path class="cls-2" d="M126.7,50.4l19.4,19.4h0v-27.5c0-1.4.4-2.6,1.3-3.6,1-1,2.3-1.6,3.6-1.6h1.2l-6.2-6.2-19.4,19.4Z"/>
        <path class="cls-2" d="M127.1,9.7c-.3.2-.7.4-1,.6l.2.2.8-.8Z"/>
        <path class="cls-2" d="M153.3,77.7h-2.2c-1.4,0-2.6-.5-3.6-1.6-.9-1-1.3-2.3-1.3-3.6v-1.9h0c0,0-19.4,19.4-19.4,19.4l19.4,19.4,19.4-19.4-12.3-12.3Z"/>
        <polygon class="cls-2" points="48.7 51.6 48.7 49.2 47.5 50.4 48.7 51.6"/>
        <path class="cls-2" d="M56.2,178.6l-9.1-9.1-8.4,8.4c2.5.4,5.3.6,8.2.6h9.3Z"/>
        <polygon class="cls-2" points="86.4 169.2 67.5 150.3 66.4 150.3 47.5 169.2 56.9 178.6 77 178.6 86.4 169.2"/>
        <polygon class="cls-2" points="165.9 169.5 156.9 178.6 175 178.6 165.9 169.5"/>
        <path class="cls-2" d="M14.7,137.1v7.2c0,5.9.7,11,2.1,15.3l10.2-10.2-12.3-12.3Z"/>
        <path class="cls-2" d="M18.7,78.5l8.3-8.3-10.8-10.8v2.4c0,6.5.8,12,2.5,16.6Z"/>
        <path class="cls-2" d="M176.6,140.6v4.4c0,1.4-.5,2.6-1.6,3.6-.9,1-2,1.6-3.4,1.6h-16.9c-1.4,0-2.6-.5-3.6-1.6-.7-.8-1.1-1.7-1.2-2.7l-3.4,3.4,19.4,19.4,19.4-19.4-8.8-8.8Z"/>
        <path class="cls-2" d="M38.1,177.8l8.7-8.7-19.4-19.4-10.4,10.4c3.4,9.8,10.4,15.8,21.2,17.7Z"/>
        <polygon class="cls-2" points="16.2 42.1 16.2 58.7 27.3 69.8 46.8 50.4 27.3 31 16.2 42.1"/>
        <path class="cls-2" d="M203.3,167.3l-17.5-17.5-19.4,19.4,9.4,9.4h1.2c12.3,0,21.1-3.8,26.4-11.3Z"/>
        <path class="cls-2" d="M209.1,133.5l-3.6-3.6-19.4,19.4,17.5,17.5c3.7-5.6,5.6-13.1,5.6-22.6v-10.8Z"/>
        <polygon class="cls-2" points="205.9 129.6 209.1 132.8 209.1 126.4 205.9 129.6"/>
        <path class="cls-2" d="M16.2,41.4l10.8-10.8-8.1-8.1c-1.8,4.7-2.7,10.3-2.7,17v1.9Z"/>
        <path class="cls-2" d="M19.1,22l8.2,8.2,19.4-19.4-5.2-5.2c-11.2,1.5-18.7,7-22.5,16.4Z"/>
        <polygon class="cls-2" points="205.2 129.6 185.7 110.2 176.6 119.3 176.6 139.9 185.7 149 205.2 129.6"/>
        <polygon class="cls-2" points="209.1 125.7 209.1 93.9 205.5 90.4 186.1 109.8 205.5 129.2 209.1 125.7"/>
        <path class="cls-2" d="M47.1,10.4l5.3-5.3h-3.9c-2.2,0-4.3.1-6.2.4l4.9,4.9Z"/>
        <path class="cls-2" d="M146.1,149.7l-19.4,19.4,6.8,6.8c4.3,1.7,9.4,2.6,15.3,2.6h7.4l9.4-9.4-19.4-19.4Z"/>
        <path class="cls-2" d="M65.7,150.3h-13.6c-1.4,0-2.6-.5-3.6-1.6-.9-1-1.3-2.3-1.3-3.6v-15.1h0s-19.4,19.4-19.4,19.4l19.4,19.4,18.6-18.6Z"/>
        <path class="cls-2" d="M27.7,30.6l19.4,19.4,1.6-1.6v-9c0-1.4.4-2.6,1.3-3.6,1-1,2.3-1.6,3.6-1.6h9.2l3.7-3.7-19.4-19.4-19.4,19.4Z"/>
        <path class="cls-2" d="M106.2,149.4l-19.4-19.4-9.1,9.1v6c0,1.4-.5,2.6-1.6,3.6-.9,1-2,1.6-3.4,1.6h-4.5l18.6,18.6,19.4-19.4Z"/>
        <path class="cls-2" d="M93.1,175.9l-6.4-6.4-9,9c6,0,11.1-.9,15.4-2.7Z"/>
        <path class="cls-2" d="M18.9,79c1.8,4.7,4.4,8.3,8,10.9-3.7,2.6-6.6,6.1-8.6,10.4l9.1,9.1,19.4-19.4-19.4-19.4-8.4,8.4Z"/>
        <path class="cls-2" d="M27.7,70.2l19.4,19.4,13.2-13.2h-6.7c-1.4,0-2.6-.5-3.6-1.6-.9-1-1.3-2.3-1.3-3.6v-18.9l-1.6-1.6-19.4,19.4Z"/>
        <path class="cls-2" d="M27,109.8l-8.9-8.9c-2.2,5-3.4,11.2-3.4,18.5v2.8l12.3-12.3Z"/>
        <path class="cls-2" d="M126.3,169.5l-1.1,1.1c2,2,4.3,3.6,7,4.8l-5.9-5.9Z"/>
        <polygon class="cls-2" points="46.8 129.6 27.3 110.2 14.7 122.8 14.7 136.4 27.3 149 46.8 129.6"/>
        <polygon class="cls-2" points="209.1 86.8 205.9 90 209.1 93.2 209.1 86.8"/>
        <path class="cls-2" d="M185.7,30.2l15.9-15.9c-5.4-6.1-13.6-9.2-24.7-9.2h-5l-5.6,5.6,19.4,19.4Z"/>
        <path class="cls-2" d="M128.2,131.8h-3.7l-7.9,7.9v4.5c0,7,1,12.9,3,17.8l6.8,6.8,19.4-19.4-17.6-17.6Z"/>
        <path class="cls-2" d="M66.9,30.2l19.4-19.4-5.4-5.4c-1.6-.1-3.2-.2-5-.2h-22.9l-5.6,5.6,19.4,19.4Z"/>
        <polygon class="cls-2" points="209.1 86.1 209.1 54.3 205.5 50.8 186.1 70.2 205.5 89.6 209.1 86.1"/>
        <path class="cls-2" d="M149.9,145.3c0,0,0-.2,0-.3v-13.3h-20.9l17.2,17.2,3.7-3.7Z"/>
        <rect class="cls-2" x="172" y="76.2" width="27.5" height="27.5" transform="translate(-9.2 157.7) rotate(-45)"/>
        <path class="cls-2" d="M185.4,109.8l-19.4-19.4-19.3,19.3h12.6c6.9,0,12.7-1.1,17.4-3.4v12.2l8.8-8.8Z"/>
      </g>
    </g>
  </g>
</svg>