<?xml version="1.0" encoding="UTF-8"?>
<svg id="Layer_2" xmlns="http://www.w3.org/2000/svg" viewBox="0 0 311.81 311.81">
  <defs>
    <style>
      .cls-1 {
        fill: none;
      }

      .cls-2 {
        fill: #231f20;
      }

      .cls-3 {
        fill: #fff;
      }

      .cls-4 {
        fill: #c22038;
      }
    </style>
  </defs>
  <g id="Layer_1-2" data-name="Layer_1">
    <path class="cls-3" d="M220.91,206.67c16.36-16.77,25.36-38.85,25.36-62.19,0-8.67-1.32-17.3-3.93-25.65,23.23-40.48,21.48-80.69,21.46-81.08l-.02-.24c-.71-4.99-2.52-8.24-5.38-9.67-1.52-.76-2.96-.83-4.07-.68-.03-.07-.05-.13-.08-.2-2.08-4.68-5.03-6.11-7.15-6.49-2.56-.45-4.77.42-6.3,1.37-1.72-3.4-5.25-5.51-8.95-5.11-7.89.86-13.21,11.09-14.01,12.72-8.16,12.84-14.52,29.8-17.23,37.62-13.37-7.67-28.32-11.71-43.5-11.72-43.29,0-71.24,27.33-82.28,51.14-.43.33-.79.74-1.06,1.21-.4.68-39.41,68.31-20.74,124.41,1.08,3.23,2.88,6,5.23,8.01,3.12,2.68,6.89,4.08,11.22,4.15h.28c2.36,0,4.81-.52,7.09-1.51,1.26-.55,4.44-1.73,7.19-1.1,1.42.57,6.24,2.17,10.89-.1l-7.46,33.24c-6.11,5.56-8.72,10.24-7.78,13.92.35,1.39,1.53,3.83,5.42,4.64l.23.05,33.19,1.54,11.55.14c.87.05,5.07.13,8.57-3.1,2.75-2.53,4.22-6.35,4.26-11.06l5.18-43.7c4.94.43,9.55.43,14.48,0l5.17,43.56c.05,4.87,1.48,8.63,4.27,11.19,3.05,2.81,6.65,3.11,8.06,3.11.17,0,.32,0,.45-.01l11.55-.15,33.21-1.56.49-.06c2.7-.58,4.6-2.27,5.2-4.61.94-3.69-1.69-8.38-7.82-13.95l-13.8-56.6c4.25-3.5,8.13-7.36,11.56-11.52Z"/>
    <g>
      <circle class="cls-4" cx="155.31" cy="152.54" r="82.04"/>
      <path d="M238.05,119.03c-.21,0-.43-.05-.62-.17-.59-.34-.78-1.1-.44-1.69,23.1-39.49,21.39-78.62,21.37-79.01-.57-3.96-1.75-5.12-2.4-5.44-.68-.34-1.31-.03-1.31-.03-.2.11-.44.16-.66.15-3.19-.17-4.5-2.46-4.79-3.79-.87-1.92-1.9-2.99-3.05-3.2-1.77-.33-3.53,1.45-3.55,1.46-.1.11-.23.2-.36.26-1.61.76-2.98.88-4.06.35-.65-.31-1.5-1.02-1.88-2.59-.4-1.7-1.84-3.38-3.87-3.18-4.34.47-8.56,7.34-9.82,9.95-10.75,16.86-18.24,40.92-18.32,41.16-.2.65-.9,1.01-1.54.81-.65-.2-1.02-.89-.81-1.54.07-.24,7.67-24.62,18.52-41.63.14-.31,5.13-10.48,11.71-11.2,2.95-.31,5.77,1.85,6.53,5.06.08.35.25.79.55.94.34.16.98.06,1.77-.29.65-.6,2.9-2.47,5.57-2,2.03.36,3.69,1.96,4.93,4.75.04.1.07.2.09.3.05.27.41,1.66,2.25,1.88.61-.23,1.85-.52,3.21.16,1.92.96,3.18,3.45,3.75,7.41.03.51,1.79,40.35-21.7,80.5-.23.39-.64.61-1.06.61Z"/>
      <path d="M69.87,149.6c-.33,0-.66-.13-.9-.39-.47-.5-.44-1.28.06-1.74l4.15-3.89c.45-.42,1.13-.45,1.61-.06l4.51,3.61c.53.42.62,1.2.19,1.73-.43.54-1.21.62-1.73.19l-3.68-2.95-3.37,3.16c-.24.22-.54.33-.84.33Z"/>
      <path d="M70.28,164.01c-.25,0-.49-.07-.71-.23-.56-.39-.69-1.16-.3-1.72l3.28-4.65c.35-.5,1.02-.67,1.57-.39l5.15,2.63c.61.31.85,1.05.54,1.66-.31.61-1.05.85-1.66.54l-4.2-2.14-2.67,3.78c-.24.34-.62.52-1.01.52Z"/>
      <path d="M73.07,176.74c-.17,0-.33-.03-.5-.1-.62-.27-.91-1-.63-1.63l2.29-5.21c.25-.56.87-.86,1.46-.69l5.57,1.55c.66.18,1.04.86.86,1.52-.18.65-.85,1.04-1.52.86l-4.54-1.26-1.86,4.23c-.2.46-.65.74-1.13.74Z"/>
      <path d="M77.66,188.71c-.12,0-.23-.02-.35-.05-.65-.2-1.02-.88-.83-1.53l1.62-5.46c.18-.59.73-.96,1.36-.87l5.72.85c.67.1,1.14.73,1.04,1.4s-.72,1.14-1.4,1.04l-4.66-.69-1.32,4.43c-.16.54-.65.88-1.18.88Z"/>
      <path d="M130.55,292.13c-.21,0-.34,0-.37-.01l-11.53-.14-32.95-1.53c-2.22-.46-2.9-1.58-3.12-2.45-.93-3.64,5.21-9.49,7.59-11.59l14.25-63.46c.15-.66.8-1.08,1.47-.93.66.15,1.08.81.93,1.47l-14.34,63.85c-.06.26-.2.49-.4.66-3.77,3.26-7.53,7.81-7.13,9.38.07.28.43.49,1.05.63l32.7,1.5,11.57.14c.11,0,2.68.16,4.66-1.68,1.64-1.52,2.47-3.99,2.48-7.35l6.13-51.72c.08-.68.69-1.18,1.37-1.08.68.08,1.16.69,1.08,1.37l-6.12,51.58c0,3.95-1.11,7.03-3.29,9.04-2.3,2.11-5.07,2.32-6.05,2.32Z"/>
      <path d="M180.05,292.13c-.93,0-3.71-.2-6.02-2.32-2.18-2.01-3.29-5.09-3.3-9.18l-6.12-51.55c-.08-.67.4-1.29,1.08-1.37.65-.1,1.29.4,1.37,1.08l6.13,51.69c.02,3.49.85,5.97,2.49,7.49,1.98,1.84,4.56,1.7,4.59,1.69l11.69-.15,32.86-1.53c.43-.11.78-.32.85-.6.4-1.57-3.36-6.12-7.12-9.38-.19-.17-.33-.39-.39-.64l-15.1-61.95c-.16-.66.24-1.33.91-1.49.65-.16,1.33.25,1.49.91l15.01,61.57c2.37,2.09,8.53,7.94,7.6,11.59-.22.87-.91,1.99-2.93,2.42l-33.11,1.56-11.66.15s-.12,0-.31,0Z"/>
      <path class="cls-2" d="M69.74,241.28c-.08,0-.15,0-.23,0-3.61-.06-6.74-1.22-9.31-3.43-1.94-1.66-3.44-3.98-4.34-6.69-18.17-54.59,20.1-121.28,20.49-121.94.34-.59,1.1-.78,1.69-.45.59.34.79,1.1.44,1.69-.38.66-38.09,66.4-20.27,119.92.76,2.29,2.01,4.23,3.61,5.6,2.12,1.83,4.73,2.78,7.75,2.83,1.69.05,3.44-.34,5.1-1.06,2.25-.98,6.69-2.44,11.13-1.26.22.08,3.82,1.62,6.78.14,1.84-.92,3.12-2.86,3.81-5.77.28-1.18.35-2.52.22-3.96-.8-8.67-2.98-37.92,2.36-50.44.27-.63.99-.92,1.62-.65.63.27.92.99.65,1.62-5.25,12.29-2.73,43.18-2.17,49.24.16,1.71.07,3.31-.27,4.75-.86,3.66-2.58,6.16-5.12,7.42-4.01,1.99-8.49.05-8.68-.04-3.55-.93-7.38.35-9.33,1.2-1.9.83-3.94,1.26-5.89,1.26Z"/>
      <path class="cls-2" d="M157.14,230.61c-16.78,0-42.9-6.39-61.29-24.41-.49-.48-.5-1.26-.02-1.74.48-.48,1.26-.49,1.74-.02,17.86,17.5,43.25,23.7,59.56,23.7,46.13,0,83.66-37.53,83.66-83.67s-38.31-83.65-83.66-83.66h-.04c-45.99,0-76.88,33.14-82.61,64.33-.13.67-.78,1.12-1.43.99-.67-.12-1.11-.77-.99-1.43,5.91-32.17,37.72-66.35,85.04-66.35h.04c46.69.02,86.13,39.46,86.13,86.13s-38.64,86.13-86.13,86.13Z"/>
      <g>
        <path class="cls-3" d="M168.42,147.22c.53-1.21-.36-2.56-1.68-2.56h-10.35s-.15,0-.15,0h-10.35c-1.32,0-2.2,1.35-1.68,2.56,1.25,2.86,4.39,7.1,12.03,7.16h0s.05,0,.08,0c.03,0,.05,0,.08,0h0c7.64-.07,10.78-4.3,12.03-7.16Z"/>
        <rect class="cls-3" x="143.74" y="130.4" width="14.21" height="6.14" rx="3.07" ry="3.07" transform="translate(17.37 284.31) rotate(-90)"/>
        <rect class="cls-3" x="154.69" y="130.4" width="14.21" height="6.14" rx="3.07" ry="3.07" transform="translate(28.32 295.26) rotate(-90)"/>
      </g>
    </g>
    <rect class="cls-1" width="311.81" height="311.81"/>
  </g>
</svg>