<?xml version="1.0" encoding="UTF-8"?>
<svg xmlns="http://www.w3.org/2000/svg" version="1.1" viewBox="0 0 255 180">
  <defs>
    <style>
      .cls-1 {
        fill: none;
      }

      .cls-2 {
        fill: #c59f7b;
      }
    </style>
  </defs>
  <!-- Generator: Adobe Illustrator 28.7.1, SVG Export Plug-In . SVG Version: 1.2.0 Build 142)  -->
  <g>
    <g id="Layer_1">
      <rect class="cls-1" x=".5" width="254" height="180"/>
      <path class="cls-2" d="M242.4,8.6h5l-19.6,32.4h-5l19.6-32.4ZM225.1,25.1h-1.2c-4.1,0-6.2-2.2-6.2-6.6v-3.8c0-4.4,2.1-6.6,6.2-6.6h1.2c4.1,0,6.2,2.2,6.2,6.6v3.8c0,4.4-2.1,6.6-6.2,6.6ZM222.8,21c0,.3,0,.5.2.7.2.2.4.3.7.3h1.6c.3,0,.5-.1.6-.3.2-.2.3-.4.3-.7v-8.8c0-.3-.1-.5-.3-.7-.2-.2-.4-.3-.6-.3h-1.6c-.3,0-.5.1-.7.3-.2.2-.2.4-.2.7v8.8ZM246.1,24.5c4.1,0,6.2,2.2,6.2,6.6v3.8c0,4.4-2.1,6.6-6.2,6.6h-1.2c-4.1,0-6.2-2.2-6.2-6.6v-3.8c0-4.4,2.1-6.6,6.2-6.6h1.2ZM247.3,37.4v-8.8c0-.3-.1-.5-.3-.7-.2-.2-.4-.3-.7-.3h-1.5c-.3,0-.5.1-.7.3-.2.2-.2.4-.2.7v8.8c0,.3,0,.5.2.7.2.2.4.3.7.3h1.5c.3,0,.5-.1.7-.3.2-.2.3-.4.3-.7Z"/>
      <g>
        <path class="cls-2" d="M27.2,105.3c4.9,2.9,11.2,4.4,18.9,4.4h15.4l-19.3-19.3-15,15Z"/>
        <polygon class="cls-2" points="61.9 109.4 81.4 90 70.4 79 53.5 79 42.5 90 61.9 109.4"/>
        <polygon class="cls-2" points="76.5 55.3 81.4 50.4 76.5 45.5 76.5 55.3"/>
        <polygon class="cls-2" points="101.2 149.4 81.7 130 76.5 135.2 76.5 163.6 81.7 168.8 101.2 149.4"/>
        <polygon class="cls-2" points="82.1 50.4 101.5 69.8 109 62.4 109 38.4 101.5 31 82.1 50.4"/>
        <path class="cls-2" d="M76.5,56v17.8c0,1.4-.5,2.6-1.6,3.6-.9,1-2,1.6-3.4,1.6h-.5l10.6,10.6,19.4-19.4-19.4-19.4-5.2,5.2Z"/>
        <polygon class="cls-2" points="109 37.7 109 23.5 101.9 30.6 109 37.7"/>
        <polygon class="cls-2" points="186.3 76.2 180.7 70.6 161.3 90 179.7 108.4 186.3 76.2"/>
        <polygon class="cls-2" points="109 157.2 101.5 149.7 82.1 169.2 88.9 176 109 176 109 157.2"/>
        <polygon class="cls-2" points="180.4 70.2 160.9 50.8 156 55.6 151.3 80 160.9 89.6 180.4 70.2"/>
        <polygon class="cls-2" points="181.1 70.2 186.5 75.6 189.3 62 181.1 70.2"/>
        <polygon class="cls-2" points="101.9 149.4 109 156.5 109 142.3 101.9 149.4"/>
        <polygon class="cls-2" points="151.2 80.6 146.7 103.9 160.6 90 151.2 80.6"/>
        <polygon class="cls-2" points="157.6 47.5 156.2 54.8 160.6 50.4 157.6 47.5"/>
        <polygon class="cls-2" points="101.2 109.8 81.7 90.4 62.4 109.7 76.5 109.7 76.5 124 81.7 129.2 101.2 109.8"/>
        <polygon class="cls-2" points="109 77.3 109 63.1 101.9 70.2 109 77.3"/>
        <polygon class="cls-2" points="76.5 124.7 76.5 134.5 81.4 129.6 76.5 124.7"/>
        <polygon class="cls-2" points="81.7 169.5 76.5 174.8 76.5 176 88.2 176 81.7 169.5"/>
        <polygon class="cls-2" points="82.1 90 101.5 109.4 109 102 109 78 101.5 70.6 82.1 90"/>
        <polygon class="cls-2" points="121 10.8 118 7.8 114.7 7.8 114.7 17.1 121 10.8"/>
        <polygon class="cls-2" points="157.6 7.8 124.7 7.8 121.7 10.8 141.1 30.2 160.6 10.8 157.6 7.8"/>
        <polygon class="cls-2" points="109 141.6 109 117.6 101.5 110.2 82.1 129.6 101.5 149 109 141.6"/>
        <polygon class="cls-2" points="121.3 10.4 124 7.8 118.7 7.8 121.3 10.4"/>
        <polygon class="cls-2" points="135.8 35.6 140.8 30.6 121.3 11.2 114.7 17.8 114.7 35.6 135.8 35.6"/>
        <polygon class="cls-2" points="161.3 50.4 180.7 69.8 189.5 61.1 193.1 43.4 180.7 31 161.3 50.4"/>
        <polygon class="cls-2" points="136.5 35.6 145.8 35.6 141.1 31 136.5 35.6"/>
        <polygon class="cls-2" points="101.9 109.8 109 116.9 109 102.7 101.9 109.8"/>
        <polygon class="cls-2" points="200.1 10 200.5 7.8 197.9 7.8 200.1 10"/>
        <polygon class="cls-2" points="13.9 39.4 13.9 61.4 22.3 69.8 41.8 50.4 22.3 31 13.9 39.4"/>
        <polygon class="cls-2" points="22.7 30.6 42.1 50 46.1 46.1 46.1 15.1 42.1 11.2 22.7 30.6"/>
        <polygon class="cls-2" points="141.1 149.7 136.9 154 132.6 176 153.8 176 160.6 169.2 141.1 149.7"/>
        <path class="cls-2" d="M13.9,78.3l8.1-8.1-8.1-8.1v13.3c0,1,0,1.9,0,2.9Z"/>
        <polygon class="cls-2" points="46.1 14.4 46.1 7.8 45.5 7.8 42.5 10.8 46.1 14.4"/>
        <polygon class="cls-2" points="76.5 15.7 81.4 10.8 78.4 7.8 76.5 7.8 76.5 15.7"/>
        <polygon class="cls-2" points="172.8 141.8 160.9 130 141.5 149.4 160.9 168.8 168.8 161 172.8 141.8"/>
        <polygon class="cls-2" points="166 174.6 160.9 169.5 154.5 176 165.7 176 166 174.6"/>
        <polygon class="cls-2" points="181.1 30.6 193.3 42.8 199.6 12.1 181.1 30.6"/>
        <polygon class="cls-2" points="161.3 169.2 166.1 174 168.6 161.9 161.3 169.2"/>
        <polygon class="cls-2" points="13.9 21.8 22.3 30.2 41.8 10.8 38.8 7.8 13.9 7.8 13.9 21.8"/>
        <polygon class="cls-2" points="42.1 10.4 44.8 7.8 39.5 7.8 42.1 10.4"/>
        <polygon class="cls-2" points="161.3 10.8 180.7 30.2 199.8 11.2 199.9 10.5 197.2 7.8 164.3 7.8 161.3 10.8"/>
        <polygon class="cls-2" points="22 30.6 13.9 22.5 13.9 38.7 22 30.6"/>
        <polygon class="cls-2" points="101.5 30.2 109 22.8 109 7.8 85.1 7.8 82.1 10.8 101.5 30.2"/>
        <polygon class="cls-2" points="46.1 54 46.1 46.8 42.5 50.4 46.1 54"/>
        <polygon class="cls-2" points="76.5 44.8 81.7 50 101.2 30.6 81.7 11.2 76.5 16.4 76.5 44.8"/>
        <polygon class="cls-2" points="81.7 10.4 84.4 7.8 79.1 7.8 81.7 10.4"/>
        <polygon class="cls-2" points="141.5 30.6 146.5 35.6 159.9 35.6 157.8 46.9 160.9 50 180.4 30.6 160.9 11.2 141.5 30.6"/>
        <polygon class="cls-2" points="158.3 7.8 160.9 10.4 163.6 7.8 158.3 7.8"/>
        <polygon class="cls-2" points="76.5 164.3 76.5 174.1 81.4 169.2 76.5 164.3"/>
        <polygon class="cls-2" points="160.6 129.6 144.7 113.8 138.4 146.3 141.1 149 160.6 129.6"/>
        <polygon class="cls-2" points="179.1 111.1 179.6 109 160.9 90.4 146.5 104.8 144.9 113.2 160.9 129.2 179.1 111.1"/>
        <polygon class="cls-2" points="138.3 146.9 137.1 153.1 140.8 149.4 138.3 146.9"/>
        <path class="cls-2" d="M22.7,70.2l19.4,19.4,10.6-10.6h-1.7c-1.4,0-2.6-.5-3.6-1.6-.9-1-1.3-2.3-1.3-3.6v-19.1l-4-4-19.4,19.4Z"/>
        <path class="cls-2" d="M14,78.9c.7,12.5,4.9,21.2,12.8,26.1l15-15-19.4-19.4-8.4,8.4Z"/>
        <polygon class="cls-2" points="178.9 112 161.3 129.6 172.9 141.2 178.9 112"/>
      </g>
    </g>
  </g>
</svg>