<?xml version="1.0" encoding="UTF-8"?>
<svg xmlns="http://www.w3.org/2000/svg" version="1.1" viewBox="0 0 213 180">
  <defs>
    <style>
      .cls-1 {
        fill: none;
      }

      .cls-2 {
        fill: #c59f7b;
      }
    </style>
  </defs>
  <!-- Generator: Adobe Illustrator 28.7.1, SVG Export Plug-In . SVG Version: 1.2.0 Build 142)  -->
  <g>
    <g id="Layer_1">
      <rect class="cls-1" x=".5" width="212" height="180"/>
      <path class="cls-2" d="M200.4,8.6h5l-19.6,32.4h-5l19.6-32.4ZM183.1,25.1h-1.2c-4.1,0-6.2-2.2-6.2-6.6v-3.8c0-4.4,2.1-6.6,6.2-6.6h1.2c4.1,0,6.2,2.2,6.2,6.6v3.8c0,4.4-2.1,6.6-6.2,6.6ZM180.8,21c0,.3,0,.5.2.7.2.2.4.3.7.3h1.6c.3,0,.5-.1.6-.3.2-.2.3-.4.3-.7v-8.8c0-.3-.1-.5-.3-.7-.2-.2-.4-.3-.6-.3h-1.6c-.3,0-.5.1-.7.3-.2.2-.2.4-.2.7v8.8ZM204.1,24.5c4.1,0,6.2,2.2,6.2,6.6v3.8c0,4.4-2.1,6.6-6.2,6.6h-1.2c-4.1,0-6.2-2.2-6.2-6.6v-3.8c0-4.4,2.1-6.6,6.2-6.6h1.2ZM205.3,37.4v-8.8c0-.3-.1-.5-.3-.7-.2-.2-.4-.3-.7-.3h-1.5c-.3,0-.5.1-.7.3-.2.2-.2.4-.2.7v8.8c0,.3,0,.5.2.7.2.2.4.3.7.3h1.5c.3,0,.5-.1.7-.3.2-.2.3-.4.3-.7Z"/>
      <g>
        <polygon class="cls-2" points="139.9 50.8 138.7 52 141.2 52 139.9 50.8"/>
        <polygon class="cls-2" points="52.3 120.8 52.3 98.8 41.3 109.8 52.3 120.8"/>
        <path class="cls-2" d="M120.5,30.6l19.4,19.4,15.1-15.1c-.3-3.9-.9-7.4-1.9-10.6l-13.2-13.2-19.4,19.4Z"/>
        <polygon class="cls-2" points="62.6 92.3 62.6 127.3 80.2 109.8 62.6 92.3"/>
        <path class="cls-2" d="M112.6,74.1c-6.9,0-12.7,1.1-17.4,3.4v-21.5l-14.2,14.2,19.4,19.4,15.6-15.6h-3.3Z"/>
        <path class="cls-2" d="M141.9,52h13.3v-12.5c0-1.3,0-2.6-.1-3.9l-14.8,14.8,1.6,1.6Z"/>
        <path class="cls-2" d="M123,5.2h-16.6l-5.6,5.6,19.4,19.4,19.4-19.4-3.9-3.9c-3.7-1.1-7.9-1.7-12.7-1.7Z"/>
        <polygon class="cls-2" points="21.5 90 40.9 109.4 52.3 98.1 52.3 81.9 40.9 70.6 21.5 90"/>
        <path class="cls-2" d="M62.6,48.1l17.5-17.5-12.6-12.6c-3.3,5.4-4.9,12.6-4.9,21.5v8.6Z"/>
        <polygon class="cls-2" points="52.3 81.2 52.3 59.2 41.3 70.2 52.3 81.2"/>
        <polygon class="cls-2" points="100.3 10.4 105.6 5.2 95.1 5.2 100.3 10.4"/>
        <path class="cls-2" d="M67.8,17.5l12.7,12.7,19.4-19.4-5.6-5.6c-12.6.1-21.5,4.2-26.6,12.3Z"/>
        <path class="cls-2" d="M80.9,30.6l14.2,14.2v-6.1c0-1.4.4-2.6,1.3-3.6,1-1,2.3-1.6,3.6-1.6h16.8l2.9-2.9-19.4-19.4-19.4,19.4Z"/>
        <polygon class="cls-2" points="16.9 86.1 16.9 93.9 20.8 90 16.9 86.1"/>
        <polygon class="cls-2" points="40.6 109.8 21.1 90.4 16.9 94.6 16.9 125 21.1 129.2 40.6 109.8"/>
        <polygon class="cls-2" points="16.9 125.7 16.9 133.5 20.8 129.6 16.9 125.7"/>
        <path class="cls-2" d="M152.8,23.3c-2.2-6.2-5.9-10.8-11.1-13.9l-1.4,1.4,12.5,12.5Z"/>
        <polygon class="cls-2" points="80.2 70.2 62.6 52.7 62.6 87.7 80.2 70.2"/>
        <path class="cls-2" d="M140.3,129.6l17.4,17.4c0-.9,0-1.8,0-2.8v-32.2l-17.5,17.5Z"/>
        <polygon class="cls-2" points="21.1 169.5 16.9 173.8 16.9 176.3 27.9 176.3 21.1 169.5"/>
        <path class="cls-2" d="M80.9,109.8l14.2,14.2v-12.8c0-1.4.4-2.6,1.3-3.6,1-1,2.3-1.6,3.6-1.6h16l-15.7-15.7-19.4,19.4Z"/>
        <polygon class="cls-2" points="62.6 48.9 62.6 51.9 80.5 69.8 95.1 55.2 95.1 45.6 80.5 31 62.6 48.9"/>
        <polygon class="cls-2" points="52.3 137.7 52.3 121.5 40.9 110.2 21.5 129.6 40.9 149 52.3 137.7"/>
        <path class="cls-2" d="M120.1,31l-2.6,2.6c1.1.1,2.1.6,2.8,1.5,1,1,1.6,2.3,1.6,3.6v13.3h16.1l1.6-1.6-19.4-19.4Z"/>
        <path class="cls-2" d="M62.6,131.9v12.4c0,7.6,1.2,14,3.6,19.1l14-14-17.5-17.5Z"/>
        <polygon class="cls-2" points="100 90 80.5 70.6 62.6 88.5 62.6 91.5 80.5 109.4 100 90"/>
        <polygon class="cls-2" points="16.9 165.3 16.9 173.1 20.8 169.2 16.9 165.3"/>
        <polygon class="cls-2" points="40.9 30.2 52.3 18.9 52.3 8 24.3 8 21.5 10.8 40.9 30.2"/>
        <polygon class="cls-2" points="20.8 50.4 16.9 46.5 16.9 54.3 20.8 50.4"/>
        <path class="cls-2" d="M117,146.6h-16.9c-1.4,0-2.6-.5-3.6-1.6-.9-1-1.3-2.3-1.3-3.6v-6.3l-14.2,14.2,19.4,19.4,19.4-19.4-2.8-2.8Z"/>
        <path class="cls-2" d="M139.6,129.6l-14-14v25.8c0,1.4-.5,2.6-1.6,3.6-.9,1-2,1.6-3.4,1.6h-2.9l2.4,2.4,19.4-19.4Z"/>
        <path class="cls-2" d="M157.8,111.4v-3c0,0,0-.1,0-.2l-17.9-17.9-16.6,16.6c.2.2.5.4.7.7,1,1,1.6,2.3,1.6,3.6v3.6l14.4,14.4,17.9-17.9Z"/>
        <polygon class="cls-2" points="52.3 138.4 41.3 149.4 52.3 160.4 52.3 138.4"/>
        <polygon class="cls-2" points="16.9 14.7 20.8 10.8 18 8 16.9 8 16.9 14.7"/>
        <path class="cls-2" d="M157.3,152.2l-17,17,4.7,4.7c6.9-4.3,11-11.5,12.3-21.7Z"/>
        <path class="cls-2" d="M120.1,149.7l-19.4,19.4,9.4,9.4h15.5c1.7,0,3.3,0,4.8-.2l9.2-9.2-19.4-19.4Z"/>
        <polygon class="cls-2" points="21.1 10.4 23.6 8 18.7 8 21.1 10.4"/>
        <path class="cls-2" d="M157.7,147.7l-17.8-17.8-19.4,19.4,19.4,19.4,17.5-17.5c.1-1.2.2-2.4.3-3.6Z"/>
        <path class="cls-2" d="M139.9,169.5l-8.8,8.8c5.2-.6,9.7-1.9,13.4-4.1l-4.6-4.6Z"/>
        <polygon class="cls-2" points="16.9 15.4 16.9 45.8 21.1 50 40.6 30.6 21.1 11.2 16.9 15.4"/>
        <path class="cls-2" d="M123.7,74.1h-7.1l-15.9,15.9,16.1,16.1h3.9c.9,0,1.6.2,2.3.6l16.7-16.7-15.9-15.9Z"/>
        <path class="cls-2" d="M148.3,81.3c-5.3-4.8-12.9-7.2-22.7-7.2h-1.2l15.6,15.6,8.4-8.4Z"/>
        <path class="cls-2" d="M139.9,10.4l1.3-1.3c-1.4-.8-2.9-1.4-4.5-2l3.2,3.2Z"/>
        <path class="cls-2" d="M148.7,81.6l-8.4,8.4,17.5,17.5c-.1-11.7-3.2-20.3-9.1-25.9Z"/>
        <polygon class="cls-2" points="95.1 124.8 80.5 110.2 62.6 128 62.6 131.1 80.5 149 95.1 134.4 95.1 124.8"/>
        <path class="cls-2" d="M80.5,149.7l-14.1,14.1c4.4,8.8,12.5,13.7,24.3,14.6l9.2-9.2-19.4-19.4Z"/>
        <polygon class="cls-2" points="40.6 149.4 21.1 130 16.9 134.2 16.9 164.6 21.1 168.8 40.6 149.4"/>
        <path class="cls-2" d="M100.3,169.5l-8.9,8.9c1.1,0,2.3.1,3.5.1h14.5l-9.1-9.1Z"/>
        <polygon class="cls-2" points="52.3 176.3 52.3 161.1 40.9 149.7 21.5 169.2 28.6 176.3 52.3 176.3"/>
        <polygon class="cls-2" points="16.9 55 16.9 85.4 21.1 89.6 40.6 70.2 21.1 50.8 16.9 55"/>
        <polygon class="cls-2" points="21.5 50.4 40.9 69.8 52.3 58.5 52.3 42.3 40.9 31 21.5 50.4"/>
        <polygon class="cls-2" points="52.3 41.6 52.3 19.6 41.3 30.6 52.3 41.6"/>
      </g>
    </g>
  </g>
</svg>