<?xml version="1.0" encoding="UTF-8"?>
<svg id="Layer_2" xmlns="http://www.w3.org/2000/svg" viewBox="0 0 255.12 255.12">
  <defs>
    <style>
      .cls-1 {
        fill: none;
      }

      .cls-2 {
        fill: #8e8e93;
      }

      .cls-3 {
        fill: #fff;
      }
    </style>
  </defs>
  <g id="Layer_1-2" data-name="Layer_1">
    <g>
      <circle class="cls-2" cx="140.84" cy="117.64" r="82.04"/>
      <path d="M220.89,105.28c-.2,0-.41-.05-.6-.16-.6-.33-.82-1.09-.49-1.7,21.17-38.4,20.02-76.1,19.96-77.6-.51-3.5-1.59-5.76-3.12-6.52-.57-.29-1.05-.21-1.65-.12-.38.06-.76.12-1.18.08-2.65-.32-3.19-2.07-3.3-2.61-.02-.1-.08-.3-.11-.38-1.06-2.39-2.44-3.77-4.07-4.06-2.36-.42-3.54.32-3.85.56-.28.21-.55.37-.76.49-.24.13-.5.31-.74.49-.81.56-1.57,1.09-2.42.68-.61-.29-1.02-.9-1.23-1.79-.63-2.65-2.89-4.44-5.27-4.18-5.08.55-9.68,8.06-10.89,10.65-.02.05-.05.1-.08.15-4.56,7.15-8.77,15.66-12.88,26.01-.25.64-.98.95-1.62.7-.64-.25-.96-.98-.7-1.62,4.15-10.47,8.42-19.1,13.06-26.37.52-1.06,5.7-11.22,12.84-11.99,3.49-.39,6.8,2.01,7.86,5.65.29-.2.6-.41.87-.56.15-.08.29-.17.43-.27.66-.51,2.54-1.62,5.81-1.04,2.5.44,4.49,2.31,5.93,5.54.1.22.24.74.27.93.05.26.46.48,1.11.56.07,0,.32-.03.52-.06.74-.12,1.87-.3,3.15.35,2.34,1.17,3.85,4.02,4.48,8.46.03.48,1.75,39.2-20.25,79.1-.23.41-.66.65-1.1.65Z"/>
      <path d="M55.52,237.26c-2.09-.95-2.52-2.22-2.55-3.13-.11-3.82,7.3-8.24,10.12-9.78l22.08-43.84c.31-.62,1.12-.83,1.68-.56.62.31.87,1.06.56,1.68l-22.26,44.2c-.12.23-.3.42-.53.54-4.46,2.38-9.2,6.04-9.15,7.69,0,.29.31.58.91.86l32.03,8.81,11.42,2.73c.1.03,2.62.76,4.99-.62,1.96-1.14,3.34-3.4,4.1-6.72l15.03-43.22c.23-.65.95-.99,1.6-.76.71.19.99.95.76,1.6l-14.99,43.08c-.88,3.9-2.67,6.71-5.28,8.21-3.33,1.92-6.73.89-6.87.85l-11.38-2.72-32.27-8.89Z"/>
      <path d="M225.71,237.26c2.09-.95,2.52-2.22,2.55-3.13.11-3.82-7.3-8.24-10.12-9.78l-24.21-47.95c-.31-.62-1.12-.83-1.68-.56-.62.31-.87,1.06-.56,1.68l24.39,48.3c.12.23.3.42.53.54,4.46,2.38,9.2,6.04,9.15,7.69,0,.29-.31.58-.91.86l-32.03,8.81-11.42,2.73c-.1.03-2.62.76-4.99-.62-1.96-1.14-3.34-3.4-4.1-6.72l-15.03-43.22c-.23-.65-.95-.99-1.6-.76-.71.19-.99.95-.76,1.6l14.99,43.08c.88,3.9,2.67,6.71,5.28,8.21,3.33,1.92,6.73.89,6.87.85l11.38-2.72,32.27-8.89Z"/>
      <path d="M95.49,56.38c-.67,0-1.23-.53-1.25-1.21l-.16-4.69-4.75-.51c-.69-.07-1.18-.69-1.11-1.38.07-.69.69-1.17,1.38-1.11l5.83.63c.62.07,1.09.58,1.12,1.2l.2,5.77c.02.69-.52,1.27-1.21,1.29-.01,0-.03,0-.04,0Z"/>
      <path d="M86.61,63.43c-.67,0-1.23-.53-1.25-1.21l-.16-4.69-4.75-.51c-.69-.07-1.18-.69-1.11-1.38s.72-1.18,1.38-1.11l5.83.63c.62.07,1.09.58,1.12,1.2l.2,5.77c.02.69-.52,1.27-1.21,1.29-.01,0-.03,0-.04,0Z"/>
      <path d="M143.53,27.31c-27.51-2.29-52.73,7.62-70.25,27.37l1.39,2.21c17.01-19.51,41.7-29.33,68.65-27.09,45.66,3.8,79.71,44.03,75.91,89.69-3.8,45.66-44.03,79.71-89.69,75.91-26.1-2.17-48.87-16.61-62.56-37.42l1.06-3.31,4.63.79c.66.11,1.33-.34,1.44-1.02.11-.68-.34-1.33-1.02-1.44l-5.7-.97c-.63-.1-1.21.26-1.4.85l-.76,2.35c-1.17-1.93-2.26-3.91-3.27-5.94.02-.04.05-.07.06-.11l1.82-4.42,4.55,1.16c.67.18,1.35-.24,1.52-.9.17-.67-.23-1.35-.9-1.52l-5.6-1.42c-.6-.16-1.23.16-1.46.74l-1.42,3.45c-3.93-8.78-6.39-18.33-7.02-28.33-.04-.69-.66-1.22-1.33-1.17-.69.04-1.22.64-1.17,1.33,2.65,42,36.32,76.31,78.31,79.81,47.03,3.91,88.48-31.16,92.39-78.2,3.91-47.03-31.17-88.48-78.2-92.39Z"/>
      <g>
        <path class="cls-3" d="M159.42,111.67c.53-1.21-.36-2.56-1.68-2.56h-20.85c-1.32,0-2.2,1.35-1.68,2.56,1.25,2.86,4.39,7.1,12.03,7.16h0s.05,0,.08,0c.03,0,.05,0,.08,0h0c7.64-.07,10.78-4.3,12.03-7.16Z"/>
        <rect class="cls-3" x="134.74" y="94.84" width="14.21" height="6.14" rx="3.07" ry="3.07" transform="translate(43.93 239.75) rotate(-90)"/>
        <rect class="cls-3" x="145.69" y="94.84" width="14.21" height="6.14" rx="3.07" ry="3.07" transform="translate(54.88 250.7) rotate(-90)"/>
      </g>
      <path d="M62.9,127.6c-.28,0-.56-.09-.79-.28C24.28,96.3,12.93,44.04,12.87,43.56c0-.03,0-.07,0-.1-.2-4.49.75-7.56,2.83-9.15,1.15-.87,2.28-.91,3.04-.93.2,0,.45-.01.54-.04.6-.19.97-.49.97-.79,0-.15.04-.68.09-.91.81-3.45,2.42-5.65,4.79-6.55,3.11-1.18,5.16-.44,5.9-.06.15.08.31.13.47.18.3.1.64.24.96.39.37-3.77,3.17-6.75,6.67-7.02,7.17-.58,14.13,8.44,14.85,9.39,7.27,7.73,14,17.57,18.38,24.47.01.02.06.11.23.39.05.06.1.13.14.2l5.08,8.77c.04.07.09.15.14.24.07.11.11.18.12.2h-.01c.25.55.4,1.25-.43,1.73-.74.43-1.15.27-1.69-.5l-.03.02s-.14-.24-.35-.61c-.14-.24-.3-.5-.47-.81l-1.87-3.22c-1.41-2.43-2.87-4.94-2.96-5.1-4.32-6.81-10.97-16.53-18.12-24.13-.04-.04-.08-.09-.11-.13-.06-.09-6.71-8.91-12.67-8.43-2.39.18-4.28,2.37-4.4,5.09-.04.92-.33,1.59-.88,1.99-.75.56-1.6.18-2.5-.22-.28-.12-.57-.26-.82-.34-.21-.07-.52-.17-.83-.33-.35-.18-1.65-.68-3.88.17-1.55.59-2.64,2.2-3.25,4.78,0,.05-.02.25-.03.34,0,.55-.2,2.38-2.73,3.18-.42.13-.82.14-1.2.15-.58.02-1.09.03-1.6.42-1.36,1.04-2,3.45-1.85,6.97.3,1.38,12.06,52.37,48.34,82.12.53.44.61,1.23.17,1.76-.25.3-.61.46-.97.46Z"/>
    </g>
    <rect class="cls-1" width="255.12" height="255.12"/>
  </g>
</svg>