<?xml version="1.0" encoding="UTF-8"?>
<svg xmlns="http://www.w3.org/2000/svg" version="1.1" viewBox="0 0 265 180">
  <defs>
    <style>
      .cls-1 {
        fill: none;
      }

      .cls-2 {
        fill: #c59f7b;
      }
    </style>
  </defs>
  <!-- Generator: Adobe Illustrator 28.7.1, SVG Export Plug-In . SVG Version: 1.2.0 Build 142)  -->
  <g>
    <g id="Layer_1">
      <rect class="cls-1" x=".5" width="264" height="180"/>
      <path class="cls-2" d="M252.4,8.6h5l-19.6,32.4h-5l19.6-32.4ZM235.1,25.1h-1.2c-4.1,0-6.2-2.2-6.2-6.6v-3.8c0-4.4,2.1-6.6,6.2-6.6h1.2c4.1,0,6.2,2.2,6.2,6.6v3.8c0,4.4-2.1,6.6-6.2,6.6ZM232.8,21c0,.3,0,.5.2.7.2.2.4.3.7.3h1.6c.3,0,.5-.1.6-.3.2-.2.3-.4.3-.7v-8.8c0-.3-.1-.5-.3-.7-.2-.2-.4-.3-.6-.3h-1.6c-.3,0-.5.1-.7.3-.2.2-.2.4-.2.7v8.8ZM256.1,24.5c4.1,0,6.2,2.2,6.2,6.6v3.8c0,4.4-2.1,6.6-6.2,6.6h-1.2c-4.1,0-6.2-2.2-6.2-6.6v-3.8c0-4.4,2.1-6.6,6.2-6.6h1.2ZM257.3,37.4v-8.8c0-.3,0-.5-.3-.7-.2-.2-.4-.3-.6-.3h-1.6c-.3,0-.5.1-.7.3-.2.2-.2.4-.2.7v8.8c0,.3,0,.5.2.7.2.2.4.3.7.3h1.6c.3,0,.5-.1.6-.3.2-.2.3-.4.3-.7Z"/>
      <g>
        <path class="cls-2" d="M185.4,30.6l-19.4-19.4-19.4,19.4,4,4c.5-.2,1-.3,1.5-.3h17.4c1.4,0,2.5.5,3.4,1.6,1,1,1.6,2.3,1.6,3.6v2.1l11-11Z"/>
        <path class="cls-2" d="M106,69.3c.3-2.3.4-4.8.4-7.5v-22.4c0-2.8-.2-5.5-.5-8l-18.9,18.9,18.9,18.9Z"/>
        <path class="cls-2" d="M74.2,63.3v8.2c0,1.4-.5,2.6-1.6,3.6,0,0-.2.1-.2.2l14.3,14.3,19.1-19.1c0-.2,0-.4,0-.5l-19.2-19.2-12.5,12.5Z"/>
        <path class="cls-2" d="M120.7,16.1l5.3-5.3h0c-2,1.5-3.8,3.2-5.3,5.3Z"/>
        <path class="cls-2" d="M147.1,68.9v-29.4c0-1.4.4-2.6,1.3-3.6.5-.5,1-.8,1.6-1.1l-3.8-3.8-19.4,19.4,19.4,19.4.9-.9Z"/>
        <path class="cls-2" d="M126,50.4l-11.4-11.4c0,.2,0,.3,0,.5v22.3l11.4-11.4Z"/>
        <path class="cls-2" d="M117.6,98.3l8.4-8.4-6.7-6.7c1.6,2.7,3.6,4.9,5.9,6.7-3.1,2.2-5.7,5-7.6,8.4Z"/>
        <path class="cls-2" d="M145.8,70.2l-19.4-19.4-11.8,11.8c0,7.8,1.4,14.2,3.9,19.2l7.9,7.9,19.4-19.4Z"/>
        <path class="cls-2" d="M106.2,149.4l-19.4-19.4-11,11v4.9c0,1.4-.5,2.6-1.6,3.6-.9,1-2,1.6-3.4,1.6h-1.9l17.8,17.8,19.4-19.4Z"/>
        <path class="cls-2" d="M108,119.3c0-2.9-.2-5.7-.6-8.3l-.9-.9-19.4,19.4,19.4,19.4,1.4-1.4c0-1.1,0-2.2,0-3.4v-25Z"/>
        <path class="cls-2" d="M106.9,149.4l.9.9c0-.6.1-1.2.1-1.9l-1,1Z"/>
        <path class="cls-2" d="M113.1,116.7c0,.9,0,1.8,0,2.7v23.3l13-13-12.9-12.9Z"/>
        <path class="cls-2" d="M74.2,38.7v23.9l12.2-12.2-12.2-12.2c0,.2,0,.4,0,.5Z"/>
        <polygon class="cls-2" points="44.1 86.6 47.1 89.6 60.1 76.7 44.1 76.7 44.1 86.6"/>
        <path class="cls-2" d="M92.6,175.4l-5.8-5.8-9,9c5.8-.2,10.7-1.3,14.8-3.2Z"/>
        <path class="cls-2" d="M145.5,110c0-.2,0-.3,0-.5l-19.2-19.2-9.5,9.5c-2.2,4.4-3.4,9.8-3.7,16.1l13.2,13.2,19.2-19.2Z"/>
        <polygon class="cls-2" points="46.8 90 44.1 87.3 44.1 92.7 46.8 90"/>
        <path class="cls-2" d="M114.6,157.8c1.6,6.1,4.5,10.8,8.6,14.2l2.8-2.8-11.4-11.4Z"/>
        <path class="cls-2" d="M186.1,30.6l19.4,19.4,1.1-1.1v-9.5c0-9.9-2-17.7-6.1-23.3l-14.4,14.4Z"/>
        <path class="cls-2" d="M185.7,30.2l14.5-14.5c-5.3-7.1-13.9-10.6-25.9-10.6h-2.4l-5.6,5.6,19.4,19.4Z"/>
        <path class="cls-2" d="M87.1,169.2l5.9,5.9c8.5-4.2,13.4-12.3,14.7-24.2l-1.1-1.1-19.4,19.4Z"/>
        <path class="cls-2" d="M12.9,135.3v9c0,6.5.9,12,2.6,16.7l11.6-11.6-14.1-14.1Z"/>
        <path class="cls-2" d="M27,30.6l-9.4-9.4c-2.1,4.9-3.2,11-3.2,18.3v3.7l12.6-12.6Z"/>
        <path class="cls-2" d="M68.2,151h-2.6l-18.2,18.2,9.4,9.4h18.9c.4,0,.8,0,1.2,0l9.4-9.4-18.2-18.2Z"/>
        <path class="cls-2" d="M146.1,30.2l19.4-19.4-5.6-5.6h-13.2c-7.6,0-13.9,1.4-18.8,4.3l-1.3,1.3,19.4,19.4Z"/>
        <path class="cls-2" d="M106.2,109.8l-19.4-19.4-14.6,14.6c.8.2,1.5.7,2.1,1.4,1,1,1.6,2.3,1.6,3.6v8.3l11,11,19.4-19.4Z"/>
        <polygon class="cls-2" points="75.8 119 75.8 140.2 86.4 129.6 75.8 119"/>
        <polygon class="cls-2" points="146.5 70.2 147.1 70.8 147.1 69.6 146.5 70.2"/>
        <path class="cls-2" d="M145.8,30.6l-19.4-19.4-7,7c-3.1,5.2-4.7,11.9-4.8,20.2l11.8,11.8,19.4-19.4Z"/>
        <polygon class="cls-2" points="44.1 93.4 44.1 104.8 61.6 104.8 47.1 90.4 44.1 93.4"/>
        <path class="cls-2" d="M95.8,89.9c5.3-3.9,8.6-10.1,10-18.6l-18.7,18.7,19.4,19.4.6-.6c-1.6-8.5-5.4-14.8-11.3-18.9Z"/>
        <path class="cls-2" d="M107.2,109.5l-.3.3.4.4c0-.3,0-.5-.1-.8Z"/>
        <path class="cls-2" d="M62.3,104.8h8.6c.3,0,.5,0,.7,0l14.8-14.8-14.3-14.3c-.8.7-1.7,1-2.8,1h-8.5l-13.3,13.3,14.8,14.8Z"/>
        <path class="cls-2" d="M185.4,109.8l-19.4-19.4-14.9,14.9h20c1.4,0,2.5.5,3.4,1.6,1,1,1.6,2.3,1.6,3.6v8.8l9.5-9.5Z"/>
        <path class="cls-2" d="M146.1,149.7l-19.4,19.4,8.4,8.4c3.1.7,6.5,1,10.2,1h10.9l9.4-9.4-19.4-19.4Z"/>
        <path class="cls-2" d="M56.2,178.6l-9.1-9.1-8.6,8.6c2.1.3,4.3.4,6.6.4h11.1Z"/>
        <polygon class="cls-2" points="165.9 169.5 156.9 178.6 175 178.6 165.9 169.5"/>
        <path class="cls-2" d="M175.9,139.9v5.1c0,1.4-.5,2.6-1.6,3.6-.9,1-2,1.6-3.4,1.6h-20.5c-1.3,0-2.4-.5-3.4-1.4l-.5.5,19.4,19.4,19.4-19.4-9.5-9.5Z"/>
        <path class="cls-2" d="M27.3,149.7l-11.7,11.7c3.7,9.5,11.1,15.1,22.2,16.7l8.9-8.9-19.4-19.4Z"/>
        <path class="cls-2" d="M66.9,30.2l19.4-19.4-5.2-5.2c-2.2-.3-4.5-.5-7-.5h-21.1l-5.6,5.6,19.4,19.4Z"/>
        <path class="cls-2" d="M200.8,94.4c-1.4-1.7-3-3.2-4.8-4.5,1.7-1.3,3.3-2.8,4.6-4.6l-14.8-14.8-19.4,19.4,19.4,19.4,15-15Z"/>
        <polygon class="cls-2" points="14.4 43.9 14.4 55.4 41.8 55.4 46.8 50.4 27.3 31 14.4 43.9"/>
        <path class="cls-2" d="M27.7,30.6l19.2,19.2v-11.1c0-1.4.4-2.6,1.3-3.6,1-1,2.3-1.6,3.6-1.6h11.8l2.9-2.9-19.4-19.4-19.4,19.4Z"/>
        <path class="cls-2" d="M208.2,132.6l-2.6-2.6-19.4,19.4,16.9,16.9c3.5-5.5,5.2-12.8,5.2-22v-11.7Z"/>
        <polygon class="cls-2" points="205.9 129.6 208.2 131.9 208.2 127.3 205.9 129.6"/>
        <path class="cls-2" d="M202.7,166.7l-17-17-19.4,19.4,9.4,9.4h.2c12.6,0,21.6-4,26.8-11.9Z"/>
        <path class="cls-2" d="M17.9,20.8l9.5,9.5,19.4-19.4-5.4-5.4c-11.6,1.1-19.4,6.3-23.6,15.3Z"/>
        <path class="cls-2" d="M208.2,126.6v-7.3c0-10.5-2.4-18.7-7.1-24.5l-15,15,19.4,19.4,2.6-2.6Z"/>
        <polygon class="cls-2" points="205.2 129.6 185.7 110.2 175.9 120 175.9 139.2 185.7 149 205.2 129.6"/>
        <path class="cls-2" d="M42.1,5.4l5.1,5.1,5.3-5.3h-5.8c-1.6,0-3.1,0-4.6.2Z"/>
        <path class="cls-2" d="M70.3,33.6c.9.2,1.7.7,2.3,1.4.7.7,1.1,1.4,1.3,2.2l12.7,12.7,19.1-19.1c0-.3,0-.5-.1-.7l-19-19-19.4,19.4,3,3Z"/>
        <polygon class="cls-2" points="205.9 50.4 206.6 51.1 206.6 49.7 205.9 50.4"/>
        <path class="cls-2" d="M146.7,148.5c-.8-1-1.2-2.1-1.2-3.5v-34.3l-18.8,18.8,19.4,19.4.5-.5Z"/>
        <path class="cls-2" d="M86.7,10.4l2.7-2.7c-2.2-.9-4.7-1.6-7.4-2l4.7,4.7Z"/>
        <path class="cls-2" d="M105.6,29.3c-1.9-10.6-7.1-17.8-15.7-21.4l-2.8,2.8,18.5,18.5Z"/>
        <path class="cls-2" d="M185.4,70.2l-11-11v12c0,1.4-.5,2.6-1.6,3.6-.9,1-2,1.6-3.4,1.6h-16.7l13.2,13.2,19.4-19.4Z"/>
        <polygon class="cls-2" points="205.2 50.4 185.7 31 174.4 42.3 174.4 58.5 185.7 69.8 205.2 50.4"/>
        <path class="cls-2" d="M206.6,61.9v-10l-1.1-1.1-19.4,19.4,14.7,14.7c3.8-5.4,5.8-13.1,5.8-23.1Z"/>
        <polygon class="cls-2" points="165.9 10.4 171.2 5.2 160.7 5.2 165.9 10.4"/>
        <path class="cls-2" d="M126.3,169.5l-2.8,2.8c2.9,2.3,6.4,4,10.6,5l-7.8-7.8Z"/>
        <path class="cls-2" d="M126.3,130l-13.3,13.3v1c0,4.7.5,8.9,1.4,12.6l12,12,19.4-19.4-19.4-19.4Z"/>
        <path class="cls-2" d="M64.9,151h-14.6c-1.4,0-2.6-.5-3.6-1.6-.9-1-1.3-2.3-1.3-3.6v-14.1l-17.7,17.7,19.4,19.4,17.8-17.8Z"/>
        <polygon class="cls-2" points="46.9 55.4 46.9 51 42.5 55.4 46.9 55.4"/>
        <path class="cls-2" d="M64.4,33.5h4.9c0,0,.2,0,.3,0l-2.6-2.6-2.6,2.6Z"/>
        <polygon class="cls-2" points="45.4 131 45.4 130.5 12.9 130.5 12.9 134.6 27.3 149 45.4 131"/>
        <path class="cls-2" d="M152,76.4h0c-1.4,0-2.6-.5-3.6-1.6-.8-1-1.2-2.1-1.3-3.4l-.9-.9-19.4,19.4,19,19c.2-.8.6-1.5,1.1-2.2,1-1,2.2-1.5,3.5-1.5l15.3-15.3-13.6-13.6Z"/>
      </g>
    </g>
  </g>
</svg>