<?xml version="1.0" encoding="UTF-8"?>
<svg xmlns="http://www.w3.org/2000/svg" version="1.1" viewBox="0 0 261 180">
  <defs>
    <style>
      .cls-1 {
        fill: none;
      }

      .cls-2 {
        fill: #c59f7b;
      }
    </style>
  </defs>
  <!-- Generator: Adobe Illustrator 28.7.1, SVG Export Plug-In . SVG Version: 1.2.0 Build 142)  -->
  <g>
    <g id="Layer_1">
      <rect class="cls-1" x=".5" width="260" height="180"/>
      <path class="cls-2" d="M248.4,8.6h5l-19.6,32.4h-5l19.6-32.4ZM231.1,25.1h-1.2c-4.1,0-6.2-2.2-6.2-6.6v-3.8c0-4.4,2.1-6.6,6.2-6.6h1.2c4.1,0,6.2,2.2,6.2,6.6v3.8c0,4.4-2.1,6.6-6.2,6.6ZM228.8,21c0,.3,0,.5.2.7.2.2.4.3.7.3h1.6c.3,0,.5-.1.6-.3.2-.2.3-.4.3-.7v-8.8c0-.3-.1-.5-.3-.7-.2-.2-.4-.3-.6-.3h-1.6c-.3,0-.5.1-.7.3-.2.2-.2.4-.2.7v8.8ZM252.1,24.5c4.1,0,6.2,2.2,6.2,6.6v3.8c0,4.4-2.1,6.6-6.2,6.6h-1.2c-4.1,0-6.2-2.2-6.2-6.6v-3.8c0-4.4,2.1-6.6,6.2-6.6h1.2ZM253.3,37.4v-8.8c0-.3-.1-.5-.3-.7-.2-.2-.4-.3-.7-.3h-1.5c-.3,0-.5.1-.7.3-.2.2-.2.4-.2.7v8.8c0,.3,0,.5.2.7.2.2.4.3.7.3h1.5c.3,0,.5-.1.7-.3.2-.2.3-.4.3-.7Z"/>
      <g>
        <path class="cls-2" d="M40.9,136.3l-4.5-4.5H14.5v12.5c0,1.6,0,3.1.2,4.6l6.9,6.9,19.4-19.4Z"/>
        <path class="cls-2" d="M104.6,160.4l-4-4-19.4,19.4,2,2c10.8-1.9,18-7.7,21.4-17.5Z"/>
        <path class="cls-2" d="M60.7,156.1l-5.8-5.8h-2.2c-1.4,0-2.6-.5-3.6-1.6-.9-1-1.3-2.3-1.3-3.6v-1.9l-6.5-6.5-19.4,19.4,19.4,19.4,19.4-19.4Z"/>
        <path class="cls-2" d="M21.1,156.1l-6.4-6.4c.3,4,1.1,7.6,2.2,10.7l4.3-4.3Z"/>
        <polygon class="cls-2" points="74.5 63.1 80.5 57.1 74.5 51.1 74.5 63.1"/>
        <path class="cls-2" d="M74.5,63.8v8.7c0,1.4-.5,2.6-1.6,3.6-.9,1-2,1.6-3.4,1.6h-7.3l18.6,18.6,19.4-19.4-19.4-19.4-6.4,6.4Z"/>
        <path class="cls-2" d="M30.6,107.7c3.9,1.3,8.4,2,13.5,2h9.8l-12.6-12.6-10.7,10.7Z"/>
        <path class="cls-2" d="M54.6,109.7h2.5c4.4,0,8.3-.4,11.8-1.3l11.7-11.7-19-19h-.9l-19,19,13,13Z"/>
        <path class="cls-2" d="M114.3,130.5h-3.4v13.8c0,.4,0,.8,0,1.2l9.1-9.1-5.8-5.8Z"/>
        <polygon class="cls-2" points="160.1 97.1 152.4 104.8 167.8 104.8 160.1 97.1"/>
        <path class="cls-2" d="M120.5,17.9l-5.6,5.6c-1.6,4.5-2.4,9.9-2.4,16.1v9.3l6.6,6.6h2.8l18.1-18.1-19.4-19.4Z"/>
        <polygon class="cls-2" points="142.2 104.8 151.7 104.8 159.7 96.7 142.2 79.1 142.2 104.8"/>
        <path class="cls-2" d="M115.3,22.3l4.8-4.8-1.4-1.4c-1.3,1.8-2.5,3.9-3.4,6.3Z"/>
        <path class="cls-2" d="M101,156.1l3.8,3.8c.9-2.8,1.6-6,1.9-9.5l-5.7,5.7Z"/>
        <polygon class="cls-2" points="125.9 130.5 115 130.5 120.5 135.9 125.9 130.5"/>
        <path class="cls-2" d="M107,123.2l-6.3-6.3-19.4,19.4,19.4,19.4,6.1-6.1c.1-1.7.2-3.5.2-5.3v-21.1Z"/>
        <polygon class="cls-2" points="112.5 55.4 118.4 55.4 112.5 49.5 112.5 55.4"/>
        <polygon class="cls-2" points="107 82.9 107 70.9 101 76.9 107 82.9"/>
        <path class="cls-2" d="M160.4,96.7l8.1,8.1h.5c1.4,0,2.5.5,3.4,1.6,1,1,1.6,2.3,1.6,3.6v.2l6,6,19.4-19.4-19.4-19.4-19.4,19.4Z"/>
        <path class="cls-2" d="M61.1,156.5l-19.4,19.4,2.6,2.6c.8,0,1.6,0,2.4,0h28.1c1.1,0,2.1,0,3.1,0l2.6-2.6-19.4-19.4Z"/>
        <path class="cls-2" d="M80.9,136.7l-6.4,6.4v2.1c0,1.4-.5,2.6-1.6,3.6-.9,1-2,1.6-3.4,1.6h-2.3l-5.8,5.8,19.4,19.4,19.4-19.4-19.4-19.4Z"/>
        <polygon class="cls-2" points="81.2 57.1 100.7 76.5 107 70.2 107 44 100.7 37.7 81.2 57.1"/>
        <path class="cls-2" d="M107,43.3v-3.8c0-2.7-.2-5.3-.5-7.7l-5.5,5.5,6,6Z"/>
        <path class="cls-2" d="M204.6,62.3l-4.9-4.9-19.4,19.4,19.4,19.4.3-.3c-1.7-2.4-3.7-4.4-6.1-6.1,7-5.1,10.6-14.3,10.7-27.6Z"/>
        <path class="cls-2" d="M140.3,36.9l19.4-19.4-12.3-12.3h-2.6c-5.1,0-9.7.7-13.6,2l-10.3,10.3,19.4,19.4Z"/>
        <path class="cls-2" d="M200.3,96.4l-.3.3,1.2,1.2c-.3-.5-.6-1-.9-1.5Z"/>
        <polygon class="cls-2" points="107 110.5 101 116.5 107 122.5 107 110.5"/>
        <polygon class="cls-2" points="74.5 130.3 74.5 142.3 80.5 136.3 74.5 130.3"/>
        <path class="cls-2" d="M80.9,97.1l-11,11c1.7-.5,3.2-1.1,4.7-1.7v23.3l6.4,6.4,19.4-19.4-19.4-19.4Z"/>
        <polygon class="cls-2" points="107 109.8 107 83.6 100.7 77.3 81.2 96.7 100.7 116.1 107 109.8"/>
        <path class="cls-2" d="M119,15.7l1.5,1.5,9.6-9.6c-4.6,1.7-8.3,4.4-11.1,8.1Z"/>
        <polygon class="cls-2" points="47.7 131.8 46.1 131.8 41.6 136.3 47.7 142.4 47.7 131.8"/>
        <path class="cls-2" d="M82.6,178l-1.8-1.8-2.2,2.2c1.4,0,2.7-.3,4-.5Z"/>
        <polygon class="cls-2" points="66.6 150.3 55.6 150.3 61.1 155.7 66.6 150.3"/>
        <polygon class="cls-2" points="41.3 135.9 45.4 131.8 37.1 131.8 41.3 135.9"/>
        <polygon class="cls-2" points="148.1 5.2 160.1 17.2 172 5.2 148.1 5.2"/>
        <polygon class="cls-2" points="204.6 61.6 204.6 52.6 200 57.1 204.6 61.6"/>
        <path class="cls-2" d="M199.7,56.7l4.9-4.9v-12.4c0-9-1.7-16.1-4.9-21.6l-19.4,19.4,19.4,19.4Z"/>
        <path class="cls-2" d="M206.1,129.5v-10.2c0-8-1.3-14.6-4-19.8l-2.4-2.4-19.4,19.4,19.4,19.4,6.5-6.5Z"/>
        <polygon class="cls-2" points="172.3 45.2 172.3 69 179.9 76.5 199.3 57.1 179.9 37.7 172.3 45.2"/>
        <polygon class="cls-2" points="160.1 176.3 157.7 178.6 162.4 178.6 160.1 176.3"/>
        <path class="cls-2" d="M140.6,37.3l4.4,4.4v-3c0-1.4.4-2.6,1.3-3.6,1-1,2.3-1.6,3.6-1.6h17.4c1.4,0,2.5.5,3.4,1.6,1,1,1.6,2.3,1.6,3.6v5.8l7.2-7.2-19.4-19.4-19.4,19.4Z"/>
        <path class="cls-2" d="M172.6,149.2c0,.1-.2.2-.3.3-.9,1-2,1.6-3.4,1.6h-20.5c-.8,0-1.5-.2-2.2-.5l-5.6,5.6,19.4,19.4,19.4-19.4-6.9-6.9Z"/>
        <path class="cls-2" d="M199.3,136.3l-19.4-19.4-6,6v23c0,1.1-.3,2.1-1,2.9l7,7,19.4-19.4Z"/>
        <path class="cls-2" d="M193.9,11.4l3.9,3.9c-1.1-1.4-2.4-2.7-3.9-3.9Z"/>
        <path class="cls-2" d="M41.3,17.2l12-12h-9.1c-4.9,0-9.2.6-13,1.8l10.2,10.2Z"/>
        <path class="cls-2" d="M160.4,17.5l19.4,19.4,19.4-19.4-7.7-7.7c-4.9-3-11.2-4.5-18.9-4.6l-12.3,12.3Z"/>
        <path class="cls-2" d="M100.7,36.9l5.8-5.8c-1.6-11.6-6.9-19.3-15.8-23.1l-9.5,9.5,19.4,19.4Z"/>
        <path class="cls-2" d="M206.1,144.3v-1.2l-6.5-6.5-19.4,19.4,15.8,15.8c6.7-5.6,10.1-14.9,10.1-27.6Z"/>
        <polygon class="cls-2" points="200 136.3 206.1 142.4 206.1 130.2 200 136.3"/>
        <path class="cls-2" d="M195.7,172.2l-15.8-15.8-19.4,19.4,2.7,2.7h10.8c9.3,0,16.5-2.1,21.8-6.4Z"/>
        <path class="cls-2" d="M12.9,28.4l8.6,8.6,19.4-19.4-10.4-10.4c-9.5,3.2-15.4,10.3-17.7,21.2Z"/>
        <path class="cls-2" d="M11.9,46.6l9.3-9.3-8.3-8.3c-.6,3.2-.9,6.7-.9,10.5v7.1Z"/>
        <path class="cls-2" d="M140.3,156.5l-17.1,17.1c5.1,3.4,11.7,5.1,20,5.1h13.8l2.7-2.7-19.4-19.4Z"/>
        <path class="cls-2" d="M21.5,156.5l-4.5,4.5c3.6,9.6,10.8,15.3,21.8,17.1l2.1-2.1-19.4-19.4Z"/>
        <path class="cls-2" d="M12.8,86c2.1,11.1,7.9,18.3,17.3,21.6l10.9-10.9-19.4-19.4-8.7,8.7Z"/>
        <path class="cls-2" d="M120.5,136.7l-9.5,9.5c.3,12.9,4.3,21.9,11.8,27.1l17.1-17.1-19.4-19.4Z"/>
        <path class="cls-2" d="M41.3,176.3l-1.8,1.8c1.3.2,2.7.3,4.1.4l-2.3-2.3Z"/>
        <path class="cls-2" d="M21.8,76.9l19.4,19.4,18.6-18.6h-10.9c-1.4,0-2.6-.5-3.6-1.6-.9-1-1.3-2.3-1.3-3.6v-12.2l-2.8-2.8-19.4,19.4Z"/>
        <path class="cls-2" d="M68.9,5.2l12,12,9.3-9.3c-4.3-1.8-9.4-2.6-15.4-2.6h-5.9Z"/>
        <path class="cls-2" d="M69.6,37.2c1.4,0,2.5.5,3.4,1.6,1,1,1.6,2.3,1.6,3.6v8l6.4,6.4,19.4-19.4-19.4-19.4-19.3,19.3h8Z"/>
        <polygon class="cls-2" points="44.1 59.6 44.1 54.6 41.6 57.1 44.1 59.6"/>
        <path class="cls-2" d="M12.7,85.4l8.5-8.5-9.3-9.3v7.7c0,3.6.3,6.9.8,10Z"/>
        <path class="cls-2" d="M21.8,37.3l19.4,19.4,2.8-2.8v-11.6c0-1.4.4-2.6,1.3-3.6,1-1,2.3-1.6,3.6-1.6h11.5l-19.3-19.3-19.4,19.4Z"/>
        <polygon class="cls-2" points="11.9 47.3 11.9 66.9 21.5 76.5 40.9 57.1 21.5 37.7 11.9 47.3"/>
        <path class="cls-2" d="M145.8,150.3c-.3-.2-.7-.5-1-.8-.9-1-1.3-2.3-1.3-3.6v-15.3h-16.8l-5.8,5.8,19.4,19.4,5.5-5.5Z"/>
        <polygon class="cls-2" points="61.1 36.9 80.5 17.5 68.2 5.2 54 5.2 41.6 17.5 61.1 36.9"/>
        <polygon class="cls-2" points="122.6 55.4 145 55.4 145 42.4 140.3 37.7 122.6 55.4"/>
        <polygon class="cls-2" points="173.9 110.9 173.9 122.1 179.5 116.5 173.9 110.9"/>
        <path class="cls-2" d="M172.3,71.5c0,1.4-.5,2.6-1.6,3.6-.9,1-2,1.6-3.4,1.6h-25.2v1.8l17.9,17.9,19.4-19.4-7.2-7.2v1.8Z"/>
      </g>
    </g>
  </g>
</svg>