<?xml version="1.0" encoding="UTF-8"?>
<svg id="Layer_2" xmlns="http://www.w3.org/2000/svg" viewBox="0 0 255.12 255.12">
  <defs>
    <style>
      .cls-1 {
        fill: none;
      }

      .cls-2 {
        fill: #8e8e93;
      }

      .cls-3 {
        fill: #fff;
      }
    </style>
  </defs>
  <g id="Layer_1-2" data-name="Layer_1">
    <g>
      <circle class="cls-2" cx="127.56" cy="132.3" r="82.04"/>
      <path d="M127.56,40.78c-48.49,0-87.94,37.95-87.94,84.6s39.45,84.6,87.94,84.6,87.94-37.95,87.94-84.6-39.45-84.6-87.94-84.6ZM212.06,137.55l-1.67-2.37c-.35-.5-1.01-.67-1.57-.39l-5.15,2.63c-.61.31-.85,1.05-.54,1.66.31.61,1.05.85,1.66.54l4.2-2.14,2.45,3.48c-.55,2.75-1.24,5.46-2.08,8.11l-.66-1.5c-.25-.56-.87-.87-1.46-.69l-5.57,1.55c-.66.18-1.04.86-.86,1.52.18.66.85,1.04,1.52.86l4.54-1.26,1.31,2.99c-.92,2.52-1.97,4.99-3.13,7.39l-.08-.32c-.15-.6-.69-1.01-1.32-.93l-5.75.57c-.68.07-1.17.67-1.11,1.35.07.68.65,1.17,1.35,1.1l4.69-.47.5,2.03c-14.27,26.26-42.87,44.25-75.78,44.25s-61.49-17.98-75.76-44.25l.5-2.03,4.69.47c.7.07,1.28-.43,1.35-1.1.07-.68-.43-1.28-1.11-1.35l-5.75-.57c-.63-.08-1.17.34-1.32.93l-.08.31c-1.16-2.4-2.22-4.85-3.14-7.37l1.32-3,4.54,1.26c.67.19,1.34-.2,1.52-.86.18-.65-.2-1.33-.86-1.52l-5.57-1.55c-.59-.18-1.21.13-1.46.69l-.66,1.51c-.83-2.64-1.54-5.34-2.09-8.09l2.47-3.51,4.2,2.14c.6.31,1.35.07,1.66-.54.31-.61.07-1.35-.54-1.66l-5.15-2.63c-.55-.28-1.22-.11-1.57.39l-1.69,2.4c-.52-3.35-.81-6.77-.9-10.23.27-.02.54-.12.75-.32l3.37-3.16,3.68,2.95c.53.42,1.3.34,1.73-.19.42-.53.34-1.31-.19-1.73l-4.51-3.61c-.48-.38-1.17-.35-1.61.06l-3.25,3.04c.57-44.81,38.65-81.1,85.42-81.1s84.84,36.28,85.42,81.07l-3.22-3.02c-.45-.42-1.13-.45-1.61-.06l-4.51,3.61c-.53.43-.62,1.2-.19,1.73.43.53,1.21.62,1.73.19l3.68-2.95,3.37,3.16c.21.19.47.29.73.31-.08,3.46-.37,6.87-.89,10.21Z"/>
      <g>
        <path class="cls-3" d="M127.56,122.06c-2.51,0-4.54,2.92-4.54,6.53,0,.58.07,1.13.17,1.66-.19,1.29-.42,3.99.56,5.28,0,0,.56.82.8,1.67,0,0,.27,1.47,1.77.73,0,0,1.59-1.13.62-2.67,0,0-.06-.11-.13-.26.25.06.5.11.75.11,2.51,0,4.54-2.92,4.54-6.53s-2.03-6.53-4.54-6.53Z"/>
        <path class="cls-3" d="M141.59,117.73l-1,.2c-2.68.54-5.44.54-8.12,0l-1-.2c-1.19-.24-2.05-1.28-2.05-2.5v-.95c0-1.61,1.47-2.81,3.05-2.5h0c2.68.54,5.44.54,8.12,0h0c1.58-.32,3.05.89,3.05,2.5v.95c0,1.21-.86,2.26-2.05,2.5Z"/>
        <path class="cls-3" d="M123.64,117.73l-1,.2c-2.68.54-5.44.54-8.12,0l-1-.2c-1.19-.24-2.05-1.28-2.05-2.5v-.95c0-1.61,1.47-2.81,3.05-2.5h0c2.68.54,5.44.54,8.12,0h0c1.58-.32,3.05.89,3.05,2.5v.95c0,1.21-.86,2.26-2.05,2.5Z"/>
      </g>
    </g>
    <rect class="cls-1" width="255.12" height="255.12"/>
  </g>
</svg>