<?xml version="1.0" encoding="UTF-8"?>
<svg xmlns="http://www.w3.org/2000/svg" version="1.1" viewBox="0 0 251 180">
  <defs>
    <style>
      .cls-1 {
        fill: none;
      }

      .cls-2 {
        fill: #c59f7b;
      }
    </style>
  </defs>
  <!-- Generator: Adobe Illustrator 28.7.1, SVG Export Plug-In . SVG Version: 1.2.0 Build 142)  -->
  <g>
    <g id="Layer_1">
      <path class="cls-2" d="M238.9,8.6h5l-19.6,32.4h-5l19.6-32.4ZM221.6,25.1h-1.2c-4.1,0-6.2-2.2-6.2-6.6v-3.8c0-4.4,2.1-6.6,6.2-6.6h1.2c4.1,0,6.2,2.2,6.2,6.6v3.8c0,4.4-2.1,6.6-6.2,6.6ZM219.3,21c0,.3,0,.5.2.7.2.2.4.3.7.3h1.6c.3,0,.5-.1.6-.3.2-.2.3-.4.3-.7v-8.8c0-.3-.1-.5-.3-.7-.2-.2-.4-.3-.6-.3h-1.6c-.3,0-.5.1-.7.3-.2.2-.2.4-.2.7v8.8ZM242.6,24.5c4.1,0,6.2,2.2,6.2,6.6v3.8c0,4.4-2.1,6.6-6.2,6.6h-1.2c-4.1,0-6.2-2.2-6.2-6.6v-3.8c0-4.4,2.1-6.6,6.2-6.6h1.2ZM243.8,37.4v-8.8c0-.3-.1-.5-.3-.7-.2-.2-.4-.3-.7-.3h-1.5c-.3,0-.5.1-.7.3-.2.2-.2.4-.2.7v8.8c0,.3,0,.5.2.7.2.2.4.3.7.3h1.5c.3,0,.5-.1.7-.3.2-.2.3-.4.3-.7Z"/>
      <g>
        <path class="cls-2" d="M35.4,5.8c-10.9,1.8-18.1,7.6-21.6,17.3l16.2,16.2,19.4-19.4-14-14Z"/>
        <path class="cls-2" d="M29.9,158.8l-9.5,9.5c5.3,6.9,13.9,10.4,25.7,10.4h2.9l.4-.4-19.4-19.4Z"/>
        <polygon class="cls-2" points="11.3 58.6 11.3 60.2 29.9 78.9 43.5 65.3 43.5 53.6 29.9 40 11.3 58.6"/>
        <path class="cls-2" d="M74,72.5c0,1-.3,1.9-.8,2.8l15.9-15.9-15-15v28.1Z"/>
        <path class="cls-2" d="M61,150.3h-8.9c-1.4,0-2.6-.5-3.6-1.6-.9-1-1.3-2.3-1.3-3.6v-3.5l-16.9,16.9,19.4,19.4,19.4-19.4-8.1-8.1Z"/>
        <path class="cls-2" d="M89,99l-19.4-19.4-19.4,19.4,10.5,10.5c5.2-.4,9.6-1.4,13.3-3.2v7.7l15-15Z"/>
        <path class="cls-2" d="M71.6,37.9c.3.2.6.5.8.8,1,1,1.6,2.3,1.6,3.6v1.3l15.4,15.4,17.1-17.1v-2.4c0-.8,0-1.5,0-2.2l-17.1-17.1-17.8,17.8Z"/>
        <path class="cls-2" d="M43.5,5.2c-2.7,0-5.2.2-7.5.5l13.7,13.7,14.3-14.3h-20.5Z"/>
        <polygon class="cls-2" points="89.7 59.4 106.5 76.2 106.5 42.6 89.7 59.4"/>
        <polygon class="cls-2" points="49.8 178.6 49.7 178.6 49.7 178.6 49.8 178.6"/>
        <path class="cls-2" d="M30.3,39.6l13.2,13.2v-10.5c0-1.4.4-2.6,1.3-3.6,1-1,2.3-1.6,3.6-1.6h18.2l-17-17-19.4,19.4Z"/>
        <polygon class="cls-2" points="106.5 121.1 106.5 116.5 89.3 99.4 74 114.7 74 122.9 89.3 138.3 106.5 121.1"/>
        <path class="cls-2" d="M89,138.6l-15-15v21.5c0,1.4-.5,2.6-1.6,3.6-.9,1-2,1.6-3.4,1.6h-7.3l7.8,7.8,19.4-19.4Z"/>
        <path class="cls-2" d="M11.3,75.4c0,7.4,1.1,13.7,3.4,18.7l14.9-14.9-18.3-18.3v14.5Z"/>
        <path class="cls-2" d="M30.3,79.2l19.4,19.4,19.4-19.4-1.5-1.5h-19.2c-1.4,0-2.6-.5-3.6-1.6-.9-1-1.3-2.3-1.3-3.6v-6.6l-13.2,13.2Z"/>
        <path class="cls-2" d="M71.3,77.1c-.7.4-1.4.6-2.3.6h-.6l1.1,1.1,1.8-1.8Z"/>
        <polygon class="cls-2" points="106.5 82.2 89.7 99 106.5 115.8 106.5 82.2"/>
        <path class="cls-2" d="M13.9,142.7v1.6c0,10.1,2.1,17.9,6.3,23.6l9.4-9.4-15.7-15.7Z"/>
        <polygon class="cls-2" points="13.9 131.8 13.9 134.5 16.6 131.8 13.9 131.8"/>
        <path class="cls-2" d="M106.4,36.5c-.5-10.8-3.6-18.9-9.3-24.1l-7.4,7.4,16.7,16.7Z"/>
        <polygon class="cls-2" points="69.9 79.2 89.3 98.7 106.5 81.5 106.5 76.9 89.3 59.8 69.9 79.2"/>
        <path class="cls-2" d="M87.5,176.7l-18-18-19.4,19.4.4.4h23.7c5,0,9.4-.6,13.3-1.9Z"/>
        <polygon class="cls-2" points="47.2 135.7 47.2 131.8 43.3 131.8 47.2 135.7"/>
        <path class="cls-2" d="M29.6,39.6l-16-16c-1.5,4.5-2.3,9.8-2.3,15.9v18.4l18.3-18.3Z"/>
        <path class="cls-2" d="M14.9,94.6c4.3,9,12.2,13.9,24,14.9l10.5-10.5-19.4-19.4-15,15Z"/>
        <path class="cls-2" d="M39.5,109.6c1.3,0,2.6.1,4,.1h13c1.2,0,2.3,0,3.4-.1l-10.2-10.2-10.2,10.2Z"/>
        <polygon class="cls-2" points="47.2 140.8 47.2 136.4 42.6 131.8 17.3 131.8 13.9 135.2 13.9 142 29.9 158.1 47.2 140.8"/>
        <polygon class="cls-2" points="168.5 139 149.1 158.4 162.9 172.2 169.6 140 168.5 139"/>
        <polygon class="cls-2" points="117.3 7.8 128.9 19.5 140.6 7.8 117.3 7.8"/>
        <polygon class="cls-2" points="168.9 138.6 169.7 139.4 170.1 137.4 168.9 138.6"/>
        <polygon class="cls-2" points="168.9 59.4 183.3 73.8 190 41.6 188.3 40 168.9 59.4"/>
        <polygon class="cls-2" points="149.1 79.2 168.5 98.7 180.7 86.5 183.2 74.4 168.5 59.8 149.1 79.2"/>
        <polygon class="cls-2" points="113.5 35.6 144.4 35.6 128.9 20.2 113.5 35.6"/>
        <polygon class="cls-2" points="148.1 78.3 148.7 78.9 168.2 59.4 154.5 45.7 148.1 78.3"/>
        <polygon class="cls-2" points="196.9 8.2 197 7.8 196.5 7.8 196.9 8.2"/>
        <polygon class="cls-2" points="129.3 19.8 145.1 35.6 152.4 35.6 168.2 19.8 156.1 7.8 141.3 7.8 129.3 19.8"/>
        <polygon class="cls-2" points="188.7 39.6 190.1 41 190.8 37.5 188.7 39.6"/>
        <polygon class="cls-2" points="168.9 19.8 188.3 39.3 191 36.6 196.8 8.8 195.7 7.8 180.9 7.8 168.9 19.8"/>
        <polygon class="cls-2" points="156.9 7.8 168.5 19.5 180.2 7.8 156.9 7.8"/>
        <polygon class="cls-2" points="153.1 35.6 156.4 35.6 154.6 45.1 168.5 59.1 188 39.6 168.5 20.2 153.1 35.6"/>
        <polygon class="cls-2" points="170.3 136.5 176.4 107.2 168.5 99.4 149.1 118.8 168.5 138.3 170.3 136.5"/>
        <path class="cls-2" d="M89.3,19.5l7.3-7.3c-5.2-4.5-12.4-6.8-21.6-6.9l14.3,14.3Z"/>
        <path class="cls-2" d="M64.7,5.2l-14.6,14.6,17.3,17.3h1.6c.8,0,1.5.2,2.1.5l17.9-17.9-14.6-14.6s0,0-.1,0h-9.5Z"/>
        <polygon class="cls-2" points="141.6 112 138.3 128.9 148.4 118.8 141.6 112"/>
        <polygon class="cls-2" points="168.9 99 176.5 106.6 180.5 87.4 168.9 99"/>
        <path class="cls-2" d="M106.5,121.8l-16.8,16.8,15.9,15.9c.6-3.1.9-6.5.9-10.2v-22.4Z"/>
        <polygon class="cls-2" points="168.2 99 148.7 79.6 147.7 80.6 141.7 111.4 148.7 118.5 168.2 99"/>
        <path class="cls-2" d="M100.6,167.3l-5.9,5.9c2.3-1.6,4.3-3.6,5.9-5.9Z"/>
        <polygon class="cls-2" points="148.7 119.2 138.1 129.8 135.2 144.6 148.7 158.1 168.2 138.6 148.7 119.2"/>
        <polygon class="cls-2" points="147.8 79.8 148.4 79.2 148 78.8 147.8 79.8"/>
        <path class="cls-2" d="M105.5,155.1l-16.2-16.2-19.4,19.4,18.1,18.1c1.7-.6,3.3-1.3,4.7-2.1l9.1-9.1c1.7-2.9,2.9-6.4,3.7-10.3Z"/>
        <polygon class="cls-2" points="162.8 172.8 148.7 158.8 131.5 176 162.1 176 162.8 172.8"/>
        <polygon class="cls-2" points="135.1 145.1 129.1 176 130.8 176 148.4 158.4 135.1 145.1"/>
        <polygon class="cls-2" points="116.5 7.8 111.2 7.8 111.2 35.6 112.8 35.6 128.6 19.8 116.5 7.8"/>
      </g>
      <rect class="cls-1" width="251" height="180"/>
    </g>
  </g>
</svg>