<?xml version="1.0" encoding="UTF-8"?>
<svg id="Layer_2" xmlns="http://www.w3.org/2000/svg" viewBox="0 0 311.81 311.81">
  <defs>
    <style>
      .cls-1 {
        fill: none;
      }

      .cls-2 {
        fill: #f27422;
      }

      .cls-3 {
        fill: #231f20;
      }

      .cls-4 {
        fill: #fff;
      }
    </style>
  </defs>
  <g id="Layer_1-2" data-name="Layer_1">
    <path class="cls-4" d="M266.24,53.63c-.97-1.4-2.19-2.15-3.25-2.55,0-.07.02-.15.02-.22.43-5.11-1.48-7.78-3.16-9.12-2.02-1.62-4.38-1.92-6.19-1.82.12-3.81-1.96-7.36-5.4-8.78-7.27-3.01-16.82,3.33-18.38,4.43-15.19,8.4-36.95,29.37-44.35,36.71-14.5-9.47-31.25-14.47-48.61-14.47-42.65,0-79.43,30.37-87.5,72.23-1.94,7.22-2.92,14.66-2.92,22.11,0,25.46,11.13,49.11,30.64,65.34l-20.34,27.79c-7.79,2.79-12.02,6.12-12.56,9.89-.21,1.42-.06,4.13,3.23,6.37l.2.13,30.07,14.13,10.62,4.56c.58.28,2.53,1.12,5.12,1.12,1.37,0,2.71-.24,3.98-.7,3.5-1.28,6.32-4.25,8.17-8.58l19.75-35.23c2.1.15,4.17.23,6.17.23,6.31,0,12.68-.72,18.92-2.14,5.72-.87,11.38-2.31,16.86-4.3l27.29,39.42c2.33,4.28,5.36,6.93,9.02,7.89.95.25,1.93.37,2.91.37,2.84,0,5.15-1.07,6.05-1.62l10.15-5.54,28.61-16.93.41-.29c2.11-1.78,3-4.15,2.43-6.51-.9-3.71-5.42-6.62-13.44-8.67l-26.75-30.11c13.12-2.51,22.34-5.1,25.08-5.91,1.02-.3,1.96-.74,2.8-1.31,9.7-6.53,7.5-13.15,6.1-15.69-.2-.37-.13-1.12.4-1.78,3.84-4.69,3.17-10.48-1.79-15.47-.46-.46-.51-1.25-.14-1.96,2.72-5.22,3.11-9.63,1.16-13.12-2.48-4.42-7.61-5.4-10.47-5.6-.95-.05-1.85.02-2.76.21-2.5.55-5.3,1.05-8.38,1.51.03-.92.05-1.83.05-2.72,0-10.19-1.73-20.2-5.14-29.78,34.39-27.03,45.23-52.1,45.34-52.36l.04-.11c1.77-4.72,1.75-8.44-.07-11.06Z"/>
    <g>
      <circle class="cls-2" cx="131.54" cy="152.15" r="82.04"/>
      <path d="M215.9,116.95c-.37,0-.74-.17-.98-.49-.41-.54-.31-1.31.23-1.73,34.94-26.68,45.95-51.76,46.06-52.01,1.43-3.8.95-5.38.53-5.98-.43-.62-1.13-.66-1.14-.66-.23,0-.45-.06-.65-.18-2.72-1.68-2.76-4.31-2.38-5.62.15-2.1-.23-3.53-1.14-4.26-1.4-1.13-3.8-.43-3.83-.42-.14.04-.29.06-.44.05-1.78-.11-3.04-.66-3.74-1.64-.42-.59-.83-1.61-.4-3.17.46-1.68-.03-3.88-1.86-4.64-4.03-1.68-11.03,2.33-13.39,4.01-17.51,9.62-45.53,38.1-45.81,38.38-.48.48-1.25.5-1.75.02-.48-.48-.49-1.26-.02-1.74,1.16-1.18,28.56-29.02,46.27-38.74.27-.2,9.52-6.73,15.64-4.2,2.75,1.14,4.17,4.4,3.3,7.57-.09.34-.17.81.03,1.09.22.31.83.52,1.69.6.86-.21,3.75-.76,5.84.92,1.61,1.29,2.3,3.49,2.05,6.53,0,.11-.03.21-.07.31-.09.26-.44,1.65,1.07,2.73.65.09,1.88.43,2.74,1.68,1.22,1.77,1.13,4.56-.27,8.3-.13.31-11.41,25.99-46.85,53.05-.22.17-.49.25-.75.25Z"/>
      <path d="M93.48,278.48c-2.18,0-3.77-.8-3.86-.84l-10.6-4.55-29.85-14.03c-1.87-1.28-2.08-2.58-1.95-3.46.54-3.73,8.47-6.78,11.46-7.8l25.25-34.49c.4-.55,1.17-.67,1.72-.27.55.4.67,1.17.27,1.72l-25.48,34.8c-.15.21-.36.36-.61.44-4.73,1.57-9.94,4.33-10.17,5.94-.04.28.21.62.74.98l29.63,13.91,10.64,4.56c.09.05,2.41,1.17,4.95.23,2.09-.78,3.81-2.74,5.1-5.84l22.15-39.54c.33-.6,1.09-.81,1.68-.47.59.33.81,1.08.47,1.68l-22.09,39.42c-1.51,3.64-3.72,6.07-6.5,7.09-1.04.38-2.05.52-2.95.52Z"/>
      <path d="M206.55,275.44c-.68,0-1.4-.08-2.15-.28-2.86-.75-5.29-2.96-7.22-6.56l-29.28-42.29c-.39-.56-.25-1.33.31-1.72.56-.39,1.33-.25,1.71.31l29.35,42.41c1.65,3.08,3.55,4.87,5.71,5.45,2.61.7,4.82-.64,4.84-.66l10.26-5.61,28.32-16.74c.33-.29.54-.65.47-.93-.38-1.58-5.84-3.84-10.69-4.95-.25-.06-.47-.19-.65-.38l-32.6-36.69c-.45-.51-.4-1.29.1-1.74.5-.46,1.29-.41,1.74.1l32.34,36.4c3.08.74,11.26,3.02,12.15,6.68.21.87.13,2.18-1.45,3.51l-28.52,16.88-10.23,5.59s-1.92,1.2-4.52,1.2Z"/>
      <path d="M150.58,79.06c-.48,0-.94-.28-1.14-.75l-2.25-5.32c-.24-.56-.02-1.22.5-1.53l4.88-2.94c.58-.35,1.34-.16,1.69.42.35.58.16,1.34-.42,1.69l-3.96,2.39,1.83,4.34c.26.63-.03,1.35-.66,1.61-.16.07-.32.1-.48.1Z"/>
      <path d="M161.52,82.53c-.55,0-1.04-.36-1.19-.91l-1.49-5.58c-.16-.59.14-1.21.71-1.45l5.23-2.24c.62-.27,1.35.02,1.62.65s-.02,1.35-.65,1.62l-4.25,1.82,1.22,4.55c.18.66-.22,1.33-.87,1.51-.11.03-.21.04-.32.04Z"/>
      <path d="M171.8,87.59c-.63,0-1.17-.48-1.23-1.13l-.5-5.76c-.05-.61.35-1.17.95-1.31l5.54-1.29c.67-.16,1.33.26,1.48.92.15.66-.26,1.33-.92,1.48l-4.5,1.05.41,4.69c.06.68-.44,1.27-1.12,1.33-.04,0-.07,0-.11,0Z"/>
      <path d="M181.42,93.83c-.65,0-1.19-.5-1.23-1.16l-.36-5.77c-.04-.61.38-1.16.98-1.28l5.57-1.15c.66-.13,1.32.29,1.46.96.14.67-.29,1.32-.96,1.46l-4.53.94.29,4.7c.04.68-.47,1.26-1.15,1.31-.03,0-.05,0-.08,0Z"/>
      <path class="cls-3" d="M158.92,211.3c-21.4,0-44.1-2.9-64.04-11.63-.62-.27-.91-1-.64-1.62.27-.62,1-.91,1.62-.64,55.52,24.29,133.03,2.74,141.68.2.48-.14.91-.34,1.29-.59,4.38-2.95,5.85-5.82,4.37-8.53-1.31-2.39-.92-5.56.97-7.87.75-.91,3.01-3.68-1.44-8.16-2.14-2.16-2.58-5.51-1.11-8.34,1.82-3.48,2.23-6.14,1.23-7.92-1.26-2.26-4.65-2.72-6.04-2.81-.41-.03-.82,0-1.25.1-41.15,9.03-139.76,2.57-142.44,1.67-.65-.22-.99-.91-.78-1.56.21-.62.86-.96,1.47-.81,3.55.62,100.29,7.27,141.22-1.71.66-.14,1.3-.19,1.95-.15,2.23.15,6.24.88,8.03,4.07,1.43,2.55,1.03,6.01-1.2,10.27-.98,1.88-.71,4.07.67,5.46,3.88,3.9,4.45,7.97,1.6,11.46-1.26,1.54-1.55,3.6-.71,5.12,1.24,2.26,2.22,6.79-5.15,11.76-.59.4-1.25.7-1.97.91-5.65,1.66-40.31,11.32-79.32,11.32Z"/>
      <path class="cls-3" d="M136.93,233.08c-47.5,0-86.13-38.64-86.13-86.13s38.64-86.13,86.13-86.13,86.13,38.64,86.13,86.13c0,2.45-.12,4.97-.36,7.69-.06.68-.72,1.17-1.34,1.12-.68-.06-1.18-.66-1.12-1.34.24-2.65.35-5.1.35-7.48,0-46.13-37.53-83.67-83.67-83.67s-83.67,37.53-83.67,83.67,37.53,83.67,83.67,83.67c22.13,0,43-8.57,58.76-24.12.48-.48,1.26-.47,1.74.01.48.48.47,1.27,0,1.74-16.23,16.01-37.71,24.83-60.49,24.83Z"/>
      <g>
        <path class="cls-4" d="M180.33,135.7c.27-1.29-.87-2.43-2.16-2.17l-10.14,2.09-.15.03-10.14,2.09c-1.29.27-1.89,1.77-1.13,2.84,1.8,2.55,5.73,6.07,13.22,4.58h0s.05,0,.07-.01c.03,0,.05,0,.07-.01h0c7.47-1.61,9.69-6.39,10.34-9.44Z"/>
        <rect class="cls-4" x="153.23" y="122.71" width="14.21" height="6.14" rx="3.07" ry="3.07" transform="translate(69.5 308.19) rotate(-101.64)"/>
        <rect class="cls-4" x="163.96" y="120.5" width="14.21" height="6.14" rx="3.07" ry="3.07" transform="translate(84.55 316.04) rotate(-101.64)"/>
      </g>
    </g>
    <rect class="cls-1" width="311.81" height="311.81"/>
  </g>
</svg>