<?xml version="1.0" encoding="UTF-8"?>
<svg xmlns="http://www.w3.org/2000/svg" version="1.1" viewBox="0 0 261 180">
  <defs>
    <style>
      .cls-1 {
        fill: none;
      }

      .cls-2 {
        fill: #c59f7b;
      }
    </style>
  </defs>
  <!-- Generator: Adobe Illustrator 28.7.1, SVG Export Plug-In . SVG Version: 1.2.0 Build 142)  -->
  <g>
    <g id="Layer_1">
      <rect class="cls-1" width="261" height="180"/>
      <g>
        <path class="cls-2" d="M83.5,163.5l10.5,10.5c7.9-4.8,12.2-13.5,12.9-26l-3.9-3.9-19.4,19.4Z"/>
        <path class="cls-2" d="M113.7,154.8c.9,5,2.6,9.1,5,12.5l3.8-3.8-8.8-8.8Z"/>
        <polygon class="cls-2" points="112.8 131.8 112.8 133.6 114.5 131.8 112.8 131.8"/>
        <polygon class="cls-2" points="103 104.5 83.5 123.9 103 143.4 107 139.3 107 108.5 103 104.5"/>
        <polygon class="cls-2" points="103.3 104.1 107 107.8 107 100.4 103.3 104.1"/>
        <path class="cls-2" d="M83.2,124.3l-8.7,8.7v12.1c0,1.4-.5,2.6-1.6,3.6-.7.9-1.6,1.4-2.7,1.5l13,13,19.4-19.4-19.4-19.4Z"/>
        <path class="cls-2" d="M23.4,104.2h0s-5.7-5.7-5.7-5.7c1.6,2.2,3.5,4.2,5.7,5.7Z"/>
        <path class="cls-2" d="M83.2,84.7l-19.4,19.4,4.4,4.4c2.3-.5,4.4-1.3,6.4-2.2v8.6l8.7,8.7,19.4-19.4-19.4-19.4Z"/>
        <path class="cls-2" d="M74.5,53.7v18.8c0,.8-.2,1.5-.5,2.2l9.2,9.2,19.4-19.4-19.4-19.4-8.7,8.7Z"/>
        <polygon class="cls-2" points="44.1 44.9 44.1 44.6 43.9 44.7 44.1 44.9"/>
        <path class="cls-2" d="M51.5,37.2h18.1c1.4,0,2.5.5,3.4,1.6,1,1,1.6,2.3,1.6,3.6v10.7l8.3-8.3-19.4-19.4-11.9,11.9Z"/>
        <path class="cls-2" d="M24.1,64.5l19.4,19.4,6.2-6.2h-.8c-1.4,0-2.6-.5-3.6-1.6-.9-1-1.3-2.3-1.3-3.6v-26.9l-.5-.5-19.4,19.4Z"/>
        <path class="cls-2" d="M11.9,76.8c.2,8,1.7,14.6,4.6,19.7l7.3,7.3,19.4-19.4-19.4-19.4-11.9,11.9Z"/>
        <path class="cls-2" d="M113.5,93.9c4.1,9.1,11.9,14.3,23.4,15.5l5.3-5.3-19.4-19.4-9.3,9.3Z"/>
        <path class="cls-2" d="M147.8,109.7l-5.2-5.2-5,5c1.6.1,3.2.2,4.8.2h5.4Z"/>
        <path class="cls-2" d="M93.6,174.3l-10.4-10.4-14.7,14.7h6.3c7.6,0,13.9-1.4,18.8-4.3Z"/>
        <path class="cls-2" d="M110.2,75.4c0,7.1,1,13.1,3.1,18.1l9.1-9.1-12.3-12.3v3.3Z"/>
        <path class="cls-2" d="M63.4,103.8l19.4-19.4-9.1-9.1c-.2.3-.5.7-.8,1-.9,1-2,1.6-3.4,1.6h-19l-6.6,6.6,19.4,19.4Z"/>
        <polygon class="cls-2" points="69.6 150.3 69.6 150.3 57.2 150.3 43.9 163.5 59 178.6 67.7 178.6 82.8 163.5 69.6 150.3"/>
        <path class="cls-2" d="M83.2,44.4l19.4-19.4-19-19c-.3,0-.5,0-.8-.1l-19.1,19.1,19.4,19.4Z"/>
        <polygon class="cls-2" points="83.5 84.3 103 103.8 107 99.7 107 68.9 103 64.9 83.5 84.3"/>
        <path class="cls-2" d="M57.1,109.7c.1,0,.2,0,.4,0l5.6-5.6-19.4-19.4-19.4,19.4,1.4,1.4c4.9,2.8,11,4.2,18.5,4.2h13Z"/>
        <path class="cls-2" d="M103.3,143.7l3.6,3.6c0-1,0-2,0-3v-4.2l-3.7,3.7Z"/>
        <path class="cls-2" d="M104.5,23c-3.3-9.2-10-14.8-20-16.9l18.4,18.4,1.5-1.5Z"/>
        <polygon class="cls-2" points="205.3 87.3 205.3 81.3 202.3 84.3 205.3 87.3"/>
        <polygon class="cls-2" points="182.5 104.1 202 123.6 205.3 120.2 205.3 88 202 84.7 182.5 104.1"/>
        <polygon class="cls-2" points="103.3 64.5 107 68.2 107 60.8 103.3 64.5"/>
        <path class="cls-2" d="M14.5,134.7v9.5c0,2.8.2,5.5.5,7.9l8.5-8.5-9-9Z"/>
        <path class="cls-2" d="M30.9,175.8l12.3-12.3-19.4-19.4-8.8,8.8c1.7,11.5,7,19.2,15.9,23Z"/>
        <path class="cls-2" d="M58.3,178.6l-14.7-14.7-12.1,12.1c4.3,1.7,9.4,2.6,15.3,2.6h11.6Z"/>
        <polygon class="cls-2" points="74.5 115.6 74.5 132.2 82.8 123.9 74.5 115.6"/>
        <polygon class="cls-2" points="14.5 134 23.8 143.4 35.3 131.8 14.5 131.8 14.5 134"/>
        <path class="cls-2" d="M56.5,150.3h-3.8c-1.4,0-2.6-.5-3.6-1.6-.9-1-1.3-2.3-1.3-3.6v-13.3h-11.7l-11.9,11.9,19.4,19.4,12.9-12.9Z"/>
        <path class="cls-2" d="M58.2,109.7c3.4,0,6.5-.4,9.4-1l-4.2-4.2-5.2,5.2Z"/>
        <path class="cls-2" d="M122.8,163.9l-3.9,3.9c4,5.5,10,8.9,18,10.2l-14.1-14.1Z"/>
        <path class="cls-2" d="M11.9,76.1l11.6-11.6-11.6-11.6v22.4c0,.2,0,.5,0,.7Z"/>
        <path class="cls-2" d="M172.3,74.8c-.3.5-.6,1-1,1.4-.5.5-1,.9-1.6,1.2l-7,7,19.4,19.4,19.4-19.4-19.4-19.4-9.9,9.9Z"/>
        <path class="cls-2" d="M23.4,24.9l-6.8-6.8c-2.8,4.8-4.4,10.9-4.7,18.3l11.5-11.5Z"/>
        <path class="cls-2" d="M182.2,144.1l-19.4,19.4,14.9,14.9c4.6-.4,8.6-1.4,12.1-3l11.9-11.9-19.4-19.4Z"/>
        <path class="cls-2" d="M110.6,32.2l12.2,12.2,19.4-19.4-16.5-16.5c-8.7,4.1-13.7,12-15.1,23.8Z"/>
        <path class="cls-2" d="M201,164.9l-9.8,9.8c4.2-2.3,7.5-5.6,9.8-9.8Z"/>
        <path class="cls-2" d="M172.8,72.5c0,.4,0,.8-.1,1.1l9.1-9.1-9-9v17Z"/>
        <path class="cls-2" d="M123.1,44.7l19.3,19.3v-21.6c0-1.4.4-2.6,1.3-3.6,1-1,2.3-1.6,3.6-1.6h7.1l-11.9-11.9-19.4,19.4Z"/>
        <path class="cls-2" d="M162.4,5.5l-19.4,19.4,12.2,12.2h12.7c.5,0,1,0,1.4.2l12.5-12.5-19.4-19.4Z"/>
        <path class="cls-2" d="M16.9,17.7l6.9,6.9L43.2,5.2c-12.5.2-21.2,4.4-26.2,12.5Z"/>
        <path class="cls-2" d="M169.9,37.6c.5.3,1,.6,1.4,1.1,1,1,1.6,2.3,1.6,3.6v12.5l9.3,9.3,19.4-19.4-19.4-19.4-12.3,12.3Z"/>
        <path class="cls-2" d="M126.2,8.2l16.4,16.4,19.4-19.4h-19.5c-6.3,0-11.7,1-16.2,3Z"/>
        <path class="cls-2" d="M173.1,5.2h-10.3l19.4,19.4,12.9-12.9c-5.3-4.3-12.6-6.5-22-6.5Z"/>
        <path class="cls-2" d="M202,44.4l3.4-3.4v-1.5c0-12.7-3.3-21.8-9.9-27.5l-12.9,12.9,19.4,19.4Z"/>
        <polygon class="cls-2" points="202.3 123.9 205.3 126.9 205.3 120.9 202.3 123.9"/>
        <polygon class="cls-2" points="182.5 64.5 202 84 205.3 80.6 205.3 48.4 202 45.1 182.5 64.5"/>
        <path class="cls-2" d="M205.3,127.6l-3.4-3.4-19.4,19.4,19.3,19.3c2.3-5,3.5-11.3,3.5-18.8v-16.7Z"/>
        <path class="cls-2" d="M130.3,131.8h-15.1l-2.5,2.5v10c0,3.5.3,6.7.7,9.6l9.3,9.3,19.4-19.4-11.9-11.9Z"/>
        <polygon class="cls-2" points="205.3 47.7 205.3 41.7 202.3 44.7 205.3 47.7"/>
        <polygon class="cls-2" points="110.2 57.7 110.2 71.4 122.8 84 142.2 64.5 122.8 45.1 110.2 57.7"/>
        <path class="cls-2" d="M167.9,77.7h-11.8l6.2,6.2,6.3-6.3c-.3,0-.5,0-.8,0Z"/>
        <path class="cls-2" d="M83.5,44.7l19.4,19.4,4-4v-20.6c0-4.1-.4-7.9-1.1-11.3l-3-3-19.4,19.4Z"/>
        <path class="cls-2" d="M110.2,39.5v17.5l12.3-12.3-11.9-11.9c-.2,2.1-.3,4.3-.3,6.7Z"/>
        <path class="cls-2" d="M123.1,84.3l19.4,19.4,19.4-19.4-6.6-6.6h-8.1c-1.4,0-2.6-.5-3.6-1.6-.9-1-1.3-2.3-1.3-3.6v-7.5l-19.3,19.3Z"/>
        <polygon class="cls-2" points="146.1 139.9 146.1 131.8 131 131.8 142.6 143.4 146.1 139.9"/>
        <path class="cls-2" d="M181.8,104.1l-19.4-19.4-19.4,19.4,5.6,5.6h6.9c6.9,0,12.7-1.1,17.4-3.4v6.8l9-9Z"/>
        <path class="cls-2" d="M146.1,145.1v-4.5l-3.1,3.1,3.6,3.6c-.3-.7-.5-1.4-.5-2.2Z"/>
        <path class="cls-2" d="M11.9,37.2c0,.8,0,1.5,0,2.3v12.7l11.9,11.9,19.4-19.4-19.4-19.4-11.9,11.9Z"/>
        <path class="cls-2" d="M142.6,144.1l-19.4,19.4,14.6,14.6c2.3.3,4.7.5,7.3.5h1.9l15.1-15.1-19.4-19.4Z"/>
        <path class="cls-2" d="M177,178.5l-14.6-14.6-14.7,14.7h25.5c1.3,0,2.6,0,3.9-.1Z"/>
        <path class="cls-2" d="M172.8,134.7v10.3c0,1.4-.5,2.6-1.6,3.6-.9,1-2,1.6-3.4,1.6h-16.9c-.7,0-1.3-.1-1.9-.4l13.3,13.3,19.4-19.4-9-9Z"/>
        <path class="cls-2" d="M103.3,24.9l2.4,2.4c-.3-1.3-.7-2.6-1.1-3.8l-1.4,1.4Z"/>
        <path class="cls-2" d="M82.2,5.7c-2.3-.3-4.8-.5-7.5-.5h-30.7s0,0,0,0l19.4,19.4,18.9-18.9Z"/>
        <path class="cls-2" d="M43.6,44.4l.5-.5v-1.5c0-1.4.4-2.6,1.3-3.6,1-1,2.3-1.6,3.6-1.6h1.8l12.2-12.2L43.6,5.5l-19.4,19.4,19.4,19.4Z"/>
        <polygon class="cls-2" points="201.6 123.9 182.2 104.5 172.8 113.8 172.8 134 182.2 143.4 201.6 123.9"/>
      </g>
      <path class="cls-2" d="M248.4,8.6h5l-19.6,32.4h-5l19.6-32.4ZM231.1,25.1h-1.2c-4.1,0-6.2-2.2-6.2-6.6v-3.8c0-4.4,2.1-6.6,6.2-6.6h1.2c4.1,0,6.2,2.2,6.2,6.6v3.8c0,4.4-2.1,6.6-6.2,6.6ZM228.8,21c0,.3,0,.5.2.7.2.2.4.3.7.3h1.6c.3,0,.5-.1.6-.3.2-.2.3-.4.3-.7v-8.8c0-.3-.1-.5-.3-.7-.2-.2-.4-.3-.6-.3h-1.6c-.3,0-.5.1-.7.3-.2.2-.2.4-.2.7v8.8ZM252.1,24.5c4.1,0,6.2,2.2,6.2,6.6v3.8c0,4.4-2.1,6.6-6.2,6.6h-1.2c-4.1,0-6.2-2.2-6.2-6.6v-3.8c0-4.4,2.1-6.6,6.2-6.6h1.2ZM253.3,37.4v-8.8c0-.3-.1-.5-.3-.7-.2-.2-.4-.3-.7-.3h-1.5c-.3,0-.5.1-.7.3-.2.2-.2.4-.2.7v8.8c0,.3,0,.5.2.7.2.2.4.3.7.3h1.5c.3,0,.5-.1.7-.3.2-.2.3-.4.3-.7Z"/>
    </g>
  </g>
</svg>