<?xml version="1.0" encoding="UTF-8"?>
<svg id="Layer_2" xmlns="http://www.w3.org/2000/svg" viewBox="0 0 311.81 311.81">
  <defs>
    <style>
      .cls-1 {
        fill: none;
      }

      .cls-2 {
        fill: #2d2c2c;
      }

      .cls-3 {
        fill: #fff;
      }

      .cls-4 {
        fill: #13254b;
      }
    </style>
  </defs>
  <g id="Layer_1-2" data-name="Layer_1">
    <path class="cls-3" d="M282.85,183.4c-2.03.35-3.98,1.02-5.79,1.97l-4.28,2.25c-2.26,1.19-4.88,1.57-7.38,1.05l-34.96-7.13c7.04-12.98,10.74-27.54,10.74-42.38,0-49.15-39.99-89.13-89.14-89.13s-89.13,39.99-89.13,89.13c0,6.32.69,12.68,2.05,18.92-3.01,2.4-12.76,8.58-39.68,16.06l-.26.08c-.94.36-9.25,3.68-10.99,10.92-1.02,4.26.42,8.58,4.29,12.84.68.75.97,1.8.78,2.88-1.78,10.53,1.94,17.9,10.2,20.21.71.2,1.2.88,1.22,1.71.11,3.57,1.61,6.62,4.23,8.59,2.43,1.84,5.83,2.76,10.04,2.73l7.19,12.14,6.23,9.74c.44.75,2.74,4.31,7.29,5.45.93.23,1.9.35,2.88.35,2.82,0,5.75-.96,8.7-2.86l62.96-31.44c11.65,1.58,23.25.85,34.44-2.06l76.05,17.46c1.42.33,2.89.49,4.36.49,6.06,0,11.87-2.87,15.55-7.66l1.99-2.58c7.97-10.31,19.99-25.86,24.9-40.02.9-1.81,1.3-4.62-.4-7.01-2.89-4.08-9.41-3.5-14.08-2.7Z"/>
    <g>
      <circle class="cls-4" cx="154.91" cy="142.02" r="82.04"/>
      <path d="M106.76,83.56c-.62,0-1.16-.47-1.22-1.11l-.48-4.69-4.62-.18c-.68-.03-1.21-.6-1.18-1.28.03-.68.58-1.23,1.28-1.18l5.69.23c.61.02,1.11.49,1.18,1.11l.59,5.75c.07.68-.42,1.28-1.1,1.35-.04,0-.08,0-.13,0Z"/>
      <path d="M98.4,92.31c-.52,0-1.01-.34-1.17-.86l-1.42-4.49-4.56.75c-.65.11-1.31-.34-1.42-1.01-.11-.67.34-1.31,1.02-1.42l5.62-.93c.62-.11,1.19.26,1.37.85l1.74,5.51c.2.65-.15,1.34-.8,1.55-.12.04-.25.06-.37.06Z"/>
      <path d="M90.25,102.23c-.43,0-.85-.23-1.08-.63l-2.28-4.12-4.32,1.65c-.63.24-1.35-.07-1.59-.71-.24-.64.07-1.35.71-1.59l5.32-2.03c.57-.21,1.22.02,1.52.55l2.8,5.05c.33.6.12,1.35-.48,1.68-.19.1-.39.15-.6.15Z"/>
      <path d="M83.97,113.84c-.38,0-.75-.17-.99-.51l-2.78-3.8-4.08,2.17c-.59.32-1.35.09-1.67-.51-.32-.6-.09-1.35.51-1.67l5.02-2.67c.53-.29,1.21-.14,1.57.36l3.41,4.67c.4.55.28,1.32-.27,1.72-.22.16-.47.24-.73.24Z"/>
      <path d="M68.39,258.78c-.74,0-1.45-.09-2.15-.26-3.68-.92-5.38-3.97-5.46-4.1l-6.21-9.71-8.36-14.11c-.35-.59-.15-1.34.43-1.69.59-.34,1.34-.15,1.69.43l8.33,14.07,6.23,9.75c.05.09,1.34,2.33,3.97,2.97,2.17.53,4.69-.13,7.5-1.96l64.39-32.17c.61-.31,1.35-.06,1.65.55.3.61.06,1.35-.55,1.65l-64.27,32.1c-2.49,1.63-4.93,2.47-7.2,2.47Z"/>
      <path class="cls-3" d="M130.8,215.38c-6.99,0-11.32-1.86-12.91-5.56-.85-1.97-2.85-3.51-5.5-4.23-4.75-1.29-6.82-5.17-5.82-10.93.39-2.22-.47-4.61-2.25-6.23-2.81-2.57-3.95-5.15-3.37-7.69,1.24-5.45,10.21-8.19,10.59-8.3,49.19-13.66,90.88-62.47,91.3-62.96l1.88,1.59c-.42.5-42.59,49.87-92.49,63.74-2.19.66-8.11,3.12-8.87,6.48-.37,1.61.52,3.4,2.62,5.32,2.4,2.19,3.55,5.43,3.02,8.48-.78,4.46.58,7.19,4.04,8.13,3.38.91,5.97,2.97,7.11,5.63,1.01,2.34,5.08,5.84,21.12,3,.49-.08,47.18-8.12,76.46-52.02l2.05,1.37c-29.88,44.83-77.62,53.01-78.1,53.09-4.15.74-7.78,1.1-10.88,1.1Z"/>
      <path class="cls-2" d="M44.6,231.11c-3.46,0-6.16-.71-8.03-2.12-1.9-1.44-2.95-3.61-3.04-6.29-.07-2.14-1.44-3.95-3.41-4.5-6.71-1.88-9.57-7.85-8.06-16.83.34-2-.22-3.97-1.52-5.4-3.17-3.48-4.37-6.89-3.6-10.12,1.4-5.83,8.81-8.69,9.13-8.81,36.73-10.2,42.42-18.15,42.48-18.23l2.08,1.31c-.22.35-5.72,8.69-43.8,19.26h0s-6.41,2.5-7.5,7.05c-.57,2.39.45,5.04,3.03,7.88,1.82,2,2.59,4.72,2.13,7.47-.91,5.35-.55,12.13,6.29,14.04,3.02.85,5.11,3.58,5.21,6.8.06,1.93.75,3.41,2.06,4.4,1.94,1.47,6.38,2.69,16.47.16.48-.05,27.7-2.36,43.86-23.9l1.97,1.48c-16.85,22.46-45.16,24.83-45.44,24.85-3.96,1-7.41,1.5-10.32,1.5Z"/>
      <path class="cls-2" d="M254.89,240.37c-1.22,0-2.46-.13-3.68-.42l-77.02-17.68.55-2.4,77.02,17.68c5.36,1.23,10.99-.8,14.35-5.18l2-2.59c7.79-10.08,19.56-25.31,24.22-38.86.09-.2.55-1.11.14-1.67-.3-.41-1.79-1.65-8.68-.46-1.45.25-2.86.73-4.18,1.42l-4.27,2.25c-3.37,1.78-7.29,2.33-11.02,1.57l-40.73-8.31.49-2.41,40.73,8.31c3.18.65,6.51.18,9.38-1.34l4.28-2.25c1.55-.82,3.2-1.38,4.91-1.67,6.05-1.03,9.68-.55,11.12,1.48,1.04,1.47.54,3.26.08,4.09-4.7,13.74-16.62,29.16-24.51,39.37l-1.99,2.58c-3.18,4.14-8.09,6.49-13.18,6.49Z"/>
      <path class="cls-2" d="M152.04,225.3c-47.5,0-86.13-38.64-86.13-86.14s38.64-86.14,86.13-86.14,86.14,38.64,86.14,86.14-38.64,86.14-86.14,86.14ZM152.04,55.49c-46.14,0-83.67,37.53-83.67,83.67s37.53,83.67,83.67,83.67,83.67-37.53,83.67-83.67-37.54-83.67-83.67-83.67Z"/>
      <g>
        <path class="cls-3" d="M132.51,138.99c.75-1.08.15-2.58-1.15-2.83l-10.16-2.01-.15-.03-10.16-2.01c-1.29-.26-2.42.9-2.14,2.18.67,3.05,2.93,7.81,10.41,9.35h0s.05.01.07.02c.03,0,.05.01.07.02h0c7.51,1.42,11.41-2.13,13.19-4.69Z"/>
        <rect class="cls-3" x="110.83" y="119.01" width="14.21" height="6.14" rx="3.07" ry="3.07" transform="translate(-24.71 214.08) rotate(-78.81)"/>
        <rect class="cls-3" x="121.58" y="121.13" width="14.21" height="6.14" rx="3.07" ry="3.07" transform="translate(-18.14 226.33) rotate(-78.81)"/>
      </g>
    </g>
    <rect class="cls-1" width="311.81" height="311.81"/>
  </g>
</svg>