<?xml version="1.0" encoding="UTF-8"?>
<svg xmlns="http://www.w3.org/2000/svg" version="1.1" viewBox="0 0 209 180">
  <defs>
    <style>
      .cls-1 {
        fill: none;
      }

      .cls-2 {
        fill: #c59f7b;
      }
    </style>
  </defs>
  <!-- Generator: Adobe Illustrator 28.7.1, SVG Export Plug-In . SVG Version: 1.2.0 Build 142)  -->
  <g>
    <g id="Layer_1">
      <rect class="cls-1" width="209" height="180"/>
      <path class="cls-2" d="M196.9,8.6h5l-19.6,32.4h-5l19.6-32.4ZM179.6,25.1h-1.2c-4.1,0-6.2-2.2-6.2-6.6v-3.8c0-4.4,2.1-6.6,6.2-6.6h1.2c4.1,0,6.2,2.2,6.2,6.6v3.8c0,4.4-2.1,6.6-6.2,6.6ZM177.3,21c0,.3,0,.5.2.7.2.2.4.3.7.3h1.6c.3,0,.5-.1.6-.3.2-.2.3-.4.3-.7v-8.8c0-.3-.1-.5-.3-.7-.2-.2-.4-.3-.6-.3h-1.6c-.3,0-.5.1-.7.3-.2.2-.2.4-.2.7v8.8ZM200.6,24.5c4.1,0,6.2,2.2,6.2,6.6v3.8c0,4.4-2.1,6.6-6.2,6.6h-1.2c-4.1,0-6.2-2.2-6.2-6.6v-3.8c0-4.4,2.1-6.6,6.2-6.6h1.2ZM201.8,37.4v-8.8c0-.3-.1-.5-.3-.7-.2-.2-.4-.3-.7-.3h-1.5c-.3,0-.5.1-.7.3-.2.2-.2.4-.2.7v8.8c0,.3,0,.5.2.7.2.2.4.3.7.3h1.5c.3,0,.5-.1.7-.3.2-.2.3-.4.3-.7Z"/>
      <g>
        <polygon class="cls-2" points="69.4 5.2 46.1 5.2 38.3 13 57.7 32.4 77.2 13 69.4 5.2"/>
        <path class="cls-2" d="M83.9,6.3c-3.1-.7-6.6-1.1-10.4-1.1h-3.5l7.5,7.5,6.4-6.4Z"/>
        <path class="cls-2" d="M18.1,33.1l-4.4,4.4c0,.7,0,1.3,0,2v15.9h21.1l2.8-2.8-19.4-19.4Z"/>
        <polygon class="cls-2" points="57.7 33.1 57.3 33.5 58.1 33.5 57.7 33.1"/>
        <path class="cls-2" d="M12.2,146c0,3.7.5,7,1.1,10l4.5-4.5-5.6-5.6Z"/>
        <polygon class="cls-2" points="114.6 10.9 114.6 15.1 116.8 13 114.6 10.9"/>
        <polygon class="cls-2" points="37.9 52.9 35.5 55.4 40.3 55.4 37.9 52.9"/>
        <path class="cls-2" d="M32.4,7.1l5.5,5.5,7.4-7.4c-4.9,0-9.2.7-12.9,1.9Z"/>
        <polygon class="cls-2" points="73.5 48.9 73.5 56.2 77.2 52.6 73.5 48.9"/>
        <path class="cls-2" d="M37.6,131.8l-1.3-1.3H12.2v13.8c0,.3,0,.7,0,1l6,6,19.4-19.4Z"/>
        <path class="cls-2" d="M97,32.8l-19.4-19.4-19.4,19.4.7.7h9.8c1.4,0,2.5.5,3.4,1.6,1,1,1.6,2.3,1.6,3.6v9.5l4,4,19.4-19.4Z"/>
        <polygon class="cls-2" points="43.4 76.7 43.4 86.4 53.1 76.7 43.4 76.7"/>
        <polygon class="cls-2" points="121.7 8 114.6 8 114.6 10.2 117.1 12.6 121.7 8"/>
        <polygon class="cls-2" points="43.4 104.8 50.1 104.8 43.4 98 43.4 104.8"/>
        <polygon class="cls-2" points="38.9 130.5 37 130.5 37.9 131.4 38.9 130.5"/>
        <path class="cls-2" d="M37.6,13l-5.7-5.7c-9.4,3.3-15.2,10.5-17.3,21.6l3.5,3.5,19.4-19.4Z"/>
        <path class="cls-2" d="M105.8,41.6l-8.4-8.4-19.4,19.4,19.4,19.4,8.4-8.4c0-.6,0-1.2,0-1.8v-20.3Z"/>
        <path class="cls-2" d="M107.3,121.6v-2.3c0-5.7-.7-10.6-2-14.9l-7.6,7.6,9.6,9.6Z"/>
        <path class="cls-2" d="M105.7,64.3l-8,8,5.7,5.7c1.4-3.9,2.1-8.5,2.3-13.8Z"/>
        <path class="cls-2" d="M97.7,151.6l7.6,7.6c1.3-4.3,2-9.3,2-15v-2.3l-9.6,9.6Z"/>
        <polygon class="cls-2" points="117.1 171.7 114.6 174.2 114.6 176.3 121.6 176.3 117.1 171.7"/>
        <path class="cls-2" d="M95.1,89.9c3.6-2.7,6.4-6.4,8.1-11.3l-5.9-5.9-19.4,19.4,19.4,19.4,7.8-7.8c-2-6-5.3-10.6-10-13.9Z"/>
        <path class="cls-2" d="M46,149.5c-.9-1-1.3-2.3-1.3-3.6v-7l-6.7-6.7-19.4,19.4,19.4,19.4,19.4-19.4-.5-.5h-7.2c-1.4,0-2.6-.5-3.6-1.6Z"/>
        <polygon class="cls-2" points="38.3 52.6 41 55.4 46.2 55.4 46.2 44.6 38.3 52.6"/>
        <path class="cls-2" d="M14.5,29.5c-.4,2.3-.6,4.7-.7,7.2l4-4-3.2-3.2Z"/>
        <path class="cls-2" d="M37.9,13.3l-19.4,19.4,19.4,19.4,8.3-8.3v-5.2c0-1.4.4-2.6,1.3-3.6,1-1,2.3-1.6,3.6-1.6h5.5l.7-.7-19.4-19.4Z"/>
        <polygon class="cls-2" points="44.7 138.2 44.7 130.5 39.6 130.5 38.3 131.8 44.7 138.2"/>
        <path class="cls-2" d="M105.8,40.9v-1.4c0-5-.5-9.4-1.5-13.3l-6.6,6.6,8.1,8.1Z"/>
        <path class="cls-2" d="M84.5,6.4l-6.6,6.6,19.4,19.4,6.8-6.8c-2.9-10.3-9.4-16.8-19.6-19.3Z"/>
        <polygon class="cls-2" points="114.6 129.7 114.6 133.9 116.8 131.8 114.6 129.7"/>
        <polygon class="cls-2" points="150 98.5 150 85.8 136.9 72.7 117.5 92.2 136.9 111.6 150 98.5"/>
        <polygon class="cls-2" points="136.6 112 117.1 92.5 114.6 95 114.6 128.9 117.1 131.4 136.6 112"/>
        <polygon class="cls-2" points="97.3 112.3 77.9 131.8 97.3 151.2 107.3 141.2 107.3 122.3 97.3 112.3"/>
        <path class="cls-2" d="M105.1,159.8l-7.8-7.8-19.4,19.4,6.4,6.4c10.7-2.1,17.6-8.1,20.9-18Z"/>
        <polygon class="cls-2" points="150 59.7 137.3 72.4 150 85.1 150 59.7"/>
        <polygon class="cls-2" points="150 59 150 46.2 136.9 33.1 117.5 52.6 136.9 72 150 59"/>
        <path class="cls-2" d="M77.5,171.7l-6.9,6.9h4.4c3.1,0,5.9-.2,8.6-.7l-6.1-6.1Z"/>
        <polygon class="cls-2" points="150 165 136.9 151.9 117.5 171.4 122.4 176.3 150 176.3 150 165"/>
        <polygon class="cls-2" points="150 138.1 150 125.4 136.9 112.3 117.5 131.8 136.9 151.2 150 138.1"/>
        <polygon class="cls-2" points="137.3 151.6 150 164.3 150 138.9 137.3 151.6"/>
        <polygon class="cls-2" points="117.1 132.1 114.6 134.6 114.6 168.5 117.1 171 136.6 151.6 117.1 132.1"/>
        <polygon class="cls-2" points="150 99.3 137.3 112 150 124.7 150 99.3"/>
        <polygon class="cls-2" points="114.6 169.3 114.6 173.5 116.8 171.4 114.6 169.3"/>
        <polygon class="cls-2" points="57.7 151.9 38.3 171.4 45.5 178.6 69.9 178.6 77.2 171.4 57.7 151.9"/>
        <path class="cls-2" d="M97,72.4l-19.4-19.4-4,4v14.5c0,1.4-.5,2.6-1.6,3.6-.9,1-2,1.6-3.4,1.6h-6.2l15.2,15.2,19.4-19.4Z"/>
        <polygon class="cls-2" points="61.7 76.7 53.8 76.7 43.4 87.1 43.4 97.3 50.9 104.8 64.6 104.8 77.2 92.2 61.7 76.7"/>
        <polygon class="cls-2" points="114.6 50.5 114.6 54.7 116.8 52.6 114.6 50.5"/>
        <polygon class="cls-2" points="75.1 129.7 75.1 133.9 77.2 131.8 75.1 129.7"/>
        <path class="cls-2" d="M44.8,178.6l-6.9-6.9-5.4,5.4c3.5,1,7.5,1.5,11.9,1.5h.4Z"/>
        <polygon class="cls-2" points="136.6 32.8 117.1 13.3 114.6 15.8 114.6 49.8 117.1 52.2 136.6 32.8"/>
        <polygon class="cls-2" points="57.7 151.2 57.9 151 57.5 151 57.7 151.2"/>
        <polygon class="cls-2" points="136.6 72.4 117.1 52.9 114.6 55.4 114.6 89.4 117.1 91.8 136.6 72.4"/>
        <path class="cls-2" d="M77.5,92.5l-12.2,12.2h4.8c1.4,0,2.5.5,3.4,1.6,1,1,1.6,2.3,1.6,3.6v19l2.4,2.4,19.4-19.4-19.4-19.4Z"/>
        <path class="cls-2" d="M97,151.6l-19.4-19.4-2.4,2.4v11.3c0,1.4-.5,2.6-1.6,3.6-.9,1-2,1.6-3.4,1.6h-11.5l-.5.5,19.4,19.4,19.4-19.4Z"/>
        <polygon class="cls-2" points="114.6 90.1 114.6 94.3 116.8 92.2 114.6 90.1"/>
        <polygon class="cls-2" points="150 20.1 137.3 32.8 150 45.5 150 20.1"/>
        <polygon class="cls-2" points="150 19.4 150 8 122.4 8 117.5 13 136.9 32.4 150 19.4"/>
        <path class="cls-2" d="M18.1,151.9l-4.7,4.7c2.5,10.7,8.7,17.5,18.5,20.4l5.6-5.6-19.4-19.4Z"/>
      </g>
    </g>
  </g>
</svg>