<?xml version="1.0" encoding="UTF-8"?>
<svg xmlns="http://www.w3.org/2000/svg" version="1.1" viewBox="0 0 209 180">
  <defs>
    <style>
      .cls-1 {
        fill: none;
      }

      .cls-2 {
        fill: #c59f7b;
      }
    </style>
  </defs>
  <!-- Generator: Adobe Illustrator 28.7.1, SVG Export Plug-In . SVG Version: 1.2.0 Build 142)  -->
  <g>
    <g id="Layer_1">
      <rect class="cls-1" width="209" height="180"/>
      <path class="cls-2" d="M196.9,8.6h5l-19.6,32.4h-5l19.6-32.4ZM179.6,25.1h-1.2c-4.1,0-6.2-2.2-6.2-6.6v-3.8c0-4.4,2.1-6.6,6.2-6.6h1.2c4.1,0,6.2,2.2,6.2,6.6v3.8c0,4.4-2.1,6.6-6.2,6.6ZM177.3,21c0,.3,0,.5.2.7.2.2.4.3.7.3h1.6c.3,0,.5-.1.6-.3.2-.2.3-.4.3-.7v-8.8c0-.3-.1-.5-.3-.7-.2-.2-.4-.3-.6-.3h-1.6c-.3,0-.5.1-.7.3-.2.2-.2.4-.2.7v8.8ZM200.6,24.5c4.1,0,6.2,2.2,6.2,6.6v3.8c0,4.4-2.1,6.6-6.2,6.6h-1.2c-4.1,0-6.2-2.2-6.2-6.6v-3.8c0-4.4,2.1-6.6,6.2-6.6h1.2ZM201.8,37.4v-8.8c0-.3-.1-.5-.3-.7-.2-.2-.4-.3-.7-.3h-1.5c-.3,0-.5.1-.7.3-.2.2-.2.4-.2.7v8.8c0,.3,0,.5.2.7.2.2.4.3.7.3h1.5c.3,0,.5-.1.7-.3.2-.2.3-.4.3-.7Z"/>
      <g>
        <path class="cls-2" d="M98.3,11.2l-19.4,19.4,12,12v-.2c0-1.4.4-2.6,1.3-3.6,1-1,2.3-1.6,3.6-1.6h15.4l6.6-6.6-19.4-19.4Z"/>
        <path class="cls-2" d="M116.2,108.2l-17.9-17.9-18.2,18.2c3.2.8,6.8,1.2,10.7,1.2h13c4.6,0,8.7-.5,12.3-1.5Z"/>
        <path class="cls-2" d="M75.4,107l-13.6-13.6c2.7,6.5,7.3,11,13.6,13.6Z"/>
        <path class="cls-2" d="M61.3,92.2l15.3,15.3c1,.4,2,.7,3,.9l18.4-18.4-19.4-19.4-18.3,18.3c.3,1.2.7,2.3,1.1,3.3Z"/>
        <polygon class="cls-2" points="59.1 50.4 78.5 69.8 90.9 57.5 90.9 43.3 78.5 31 59.1 50.4"/>
        <path class="cls-2" d="M95.8,77.7c-1.4,0-2.6-.5-3.6-1.6-.9-1-1.3-2.3-1.3-3.6v-14.3l-12,12,19.4,19.4,11.9-11.9h-14.4Z"/>
        <polygon class="cls-2" points="51.7 122.2 51.7 97.4 39.3 109.8 51.7 122.2"/>
        <path class="cls-2" d="M58.7,50h0c0,0,19.4-19.4,19.4-19.4l-13.8-13.8c-3.8,5.6-5.7,13.1-5.7,22.7v10.5Z"/>
        <path class="cls-2" d="M60.1,88.3l18.1-18.1-19.4-19.4h0v24.6c0,4.8.5,9.1,1.4,12.9Z"/>
        <polygon class="cls-2" points="98.3 10.4 103.6 5.2 93.1 5.2 98.3 10.4"/>
        <path class="cls-2" d="M121.6,5.2h-17.3l-5.6,5.6,19.4,19.4,19.4-19.4-4.2-4.2c-3.5-1-7.4-1.4-11.8-1.4Z"/>
        <path class="cls-2" d="M137.6,50.4l-19.4-19.4-6.2,6.2h4.4c1.4,0,2.5.5,3.4,1.6,1,1,1.6,2.3,1.6,3.6v24.3l16.3-16.3Z"/>
        <path class="cls-2" d="M121.2,73.6c-.2.9-.7,1.8-1.4,2.6-.9,1-2,1.6-3.4,1.6h-5.4l-12.3,12.3,18,18c1.6-.5,3.1-1,4.5-1.7l16.4-16.4-16.4-16.4Z"/>
        <path class="cls-2" d="M151.7,24.2c-2.2-6.9-6.1-11.9-11.8-15l-1.6,1.6,13.4,13.4Z"/>
        <polygon class="cls-2" points="16.3 87.5 16.3 92.5 18.8 90 16.3 87.5"/>
        <polygon class="cls-2" points="51.7 82.6 51.7 57.8 39.3 70.2 51.7 82.6"/>
        <polygon class="cls-2" points="51.7 162.5 38.9 149.7 19.5 169.2 26.6 176.3 51.3 176.3 51.7 175.9 51.7 162.5"/>
        <polygon class="cls-2" points="19.1 169.5 16.3 172.4 16.3 176.3 25.9 176.3 19.1 169.5"/>
        <path class="cls-2" d="M61.3,132.5v11.8c0,7.4,1.1,13.6,3.4,18.6l13.5-13.5-16.9-16.9Z"/>
        <path class="cls-2" d="M138.3,129.6l15.5,15.5c0-.3,0-.5,0-.8v-30.2l-15.5,15.5Z"/>
        <path class="cls-2" d="M153.8,65.9v-26.4c0-1.5,0-3-.2-4.5l-15.4,15.4,15.5,15.5Z"/>
        <path class="cls-2" d="M118.5,30.6l19.4,19.4,15.7-15.7c-.3-3.3-.8-6.4-1.6-9.1l-14.1-14.1-19.4,19.4Z"/>
        <polygon class="cls-2" points="38.6 109.8 19.1 90.4 16.3 93.2 16.3 126.4 19.1 129.2 38.6 109.8"/>
        <polygon class="cls-2" points="16.3 127.1 16.3 132.1 18.8 129.6 16.3 127.1"/>
        <path class="cls-2" d="M153,154.5l-14.7,14.7,3.9,3.9c5.6-4,9.2-10.2,10.8-18.6Z"/>
        <path class="cls-2" d="M64.6,16.3l13.9,13.9,19.4-19.4-5.6-5.6h-1.5c-12.2,0-21,3.7-26.3,11.2Z"/>
        <polygon class="cls-2" points="38.9 30.2 51.7 17.5 51.7 8 22.3 8 19.5 10.8 38.9 30.2"/>
        <polygon class="cls-2" points="16.3 14 16.3 47.2 19.1 50 38.6 30.6 19.1 11.2 16.3 14"/>
        <polygon class="cls-2" points="18.8 50.4 16.3 47.9 16.3 52.9 18.8 50.4"/>
        <polygon class="cls-2" points="153.8 113.4 153.8 106.2 137.9 90.4 121.3 107 121.3 112.6 137.9 129.2 153.8 113.4"/>
        <polygon class="cls-2" points="19.5 90 38.9 109.4 51.7 96.7 51.7 83.3 38.9 70.6 19.5 90"/>
        <polygon class="cls-2" points="16.3 166.7 16.3 171.7 18.8 169.2 16.3 166.7"/>
        <polygon class="cls-2" points="19.1 10.4 21.6 8 16.7 8 19.1 10.4"/>
        <path class="cls-2" d="M116.4,150.3h-16.9c-1.4,0-2.6-.5-3.6-1.6-.9-1-1.3-2.3-1.3-3.6v-11.3l-15.6,15.6,19.4,19.4,18.6-18.6c-.2,0-.4,0-.6,0Z"/>
        <path class="cls-2" d="M118.3,149.9c-.1,0-.2,0-.4.1l-19.2,19.2,9.4,9.4h13.5c2.5,0,4.9-.2,7.1-.5l8.9-8.9-19.3-19.3Z"/>
        <polygon class="cls-2" points="18.8 10.8 16.3 8.3 16.3 13.3 18.8 10.8"/>
        <path class="cls-2" d="M153.8,145.8l-15.9-15.9-17,17c-.3.6-.7,1.2-1.2,1.8-.3.4-.7.7-1.1.9l19.2,19.2,15.2-15.2c.4-2.4.6-5.1.7-7.9Z"/>
        <path class="cls-2" d="M137.9,169.5l-8.5,8.5c4.8-.8,8.9-2.3,12.3-4.6l-3.8-3.8Z"/>
        <path class="cls-2" d="M121.3,113.3v31.7c0,.3,0,.6,0,.9l16.4-16.4-16.3-16.3Z"/>
        <polygon class="cls-2" points="94.5 131.8 61.3 131.8 78.5 149 94.5 133 94.5 131.8"/>
        <path class="cls-2" d="M78.5,149.7l-13.7,13.7c4.2,9,12.2,14,23.9,15l9.2-9.2-19.4-19.4Z"/>
        <path class="cls-2" d="M153.8,73.8v-7.1l-15.9-15.9-16.6,16.6v5.1c0,.2,0,.3,0,.5l16.7,16.7,15.9-15.9Z"/>
        <path class="cls-2" d="M98.3,169.5l-8.9,8.9c1.3,0,2.7.1,4.1.1h13.9l-9.1-9.1Z"/>
        <polygon class="cls-2" points="51.7 137 39.3 149.4 51.7 161.8 51.7 137"/>
        <polygon class="cls-2" points="153.8 74.5 138.3 90 153.8 105.5 153.8 74.5"/>
        <polygon class="cls-2" points="51.7 136.3 51.7 122.9 38.9 110.2 19.5 129.6 38.9 149 51.7 136.3"/>
        <polygon class="cls-2" points="16.3 53.6 16.3 86.8 19.1 89.6 38.6 70.2 19.1 50.8 16.3 53.6"/>
        <polygon class="cls-2" points="38.6 149.4 19.1 130 16.3 132.8 16.3 166 19.1 168.8 38.6 149.4"/>
        <polygon class="cls-2" points="51.7 43 51.7 18.2 39.3 30.6 51.7 43"/>
        <polygon class="cls-2" points="19.5 50.4 38.9 69.8 51.7 57.1 51.7 43.7 38.9 31 19.5 50.4"/>
        <path class="cls-2" d="M137.9,10.4l1.5-1.5c-1.6-.8-3.2-1.5-5-2.1l3.5,3.5Z"/>
      </g>
    </g>
  </g>
</svg>