<?xml version="1.0" encoding="UTF-8"?>
<svg id="Layer_2" xmlns="http://www.w3.org/2000/svg" viewBox="0 0 311.81 311.81">
  <defs>
    <style>
      .cls-1 {
        fill: none;
      }

      .cls-2 {
        fill: #cd202e;
      }

      .cls-3 {
        fill: #fff;
      }
    </style>
  </defs>
  <g id="Layer_1-2" data-name="Layer_1">
    <path class="cls-3" d="M300.07,219.35h0c-1.44-3.54-6.35-5.74-14.58-6.56l-36.58-30.43c5.97-11.82,9.12-25.02,9.12-38.35,0-10.48-1.9-20.72-5.64-30.47,19.79-38.32,18.22-74.72,18.19-75.08l-.02-.24c-.71-4.99-2.52-8.24-5.38-9.67-1.52-.76-2.95-.83-4.07-.67-.03-.07-.05-.14-.08-.2-2.08-4.68-5.04-6.11-7.15-6.48-2.56-.46-4.77.42-6.3,1.37-1.73-3.42-5.26-5.53-8.95-5.11-7.89.85-13.21,11.09-14.01,12.72-7.71,12.14-13.75,27.72-16.77,36.28-5.06-2.27-10.34-4.05-15.76-5.29-8.91-2.97-18.17-4.47-27.54-4.47-29.17,0-54.81,13.17-70.9,36.25-21.32-18.35-36.13-29.88-44.06-34.27-1.8-1.26-12.44-8.27-19.81-3.85-2.81,1.69-4.33,4.84-4.13,8.24-1.88-.27-4.13-.14-6.11,1.23-2.44,1.69-3.54,4.56-3.27,8.55-.23.03-.45.07-.66.13-1.41.41-2.7,1.54-3.45,3.03-1.38,2.76-1.07,6.55.99,11.95l.1.27.15.24c.28.45,27.94,44.75,64.92,69.41,4.75,29.77,24.88,55.12,52.95,66.81l-3.89,50.99c-5.15,6.49-6.98,11.54-5.45,15.04.57,1.31,2.13,3.54,6.1,3.71h.24s32.99-3.85,32.99-3.85l11.42-1.73c.9-.1,5.05-.74,7.95-4.45,2.3-2.94,3.13-6.95,2.41-11.6l-1.93-43.01c3.68-.71,7.36-1.68,10.97-2.88,7.75-1.78,15.17-4.62,22.1-8.47l30.38,32.22c2.94,3.88,6.33,6.05,10.1,6.46,4.26.45,7.57-1.63,8.68-2.58l9.19-6.99,25.75-21.03.36-.34c1.82-2.08,2.34-4.55,1.43-6.8Z"/>
    <g>
      <circle class="cls-2" cx="172.98" cy="144.02" r="82.04"/>
      <path d="M103.29,167.17c-.13,0-.27-.02-.4-.07C56.03,150.79,16.33,87.52,15.93,86.88c-1.72-4.52-2.06-7.65-1.11-9.54.45-.89,1.12-1.35,1.6-1.49.08-.02.17-.04.26-.04,1.17-.08,1.95-.41,2.34-.96.54-.76.25-1.84.25-1.85-.28-3.14.39-5.16,1.96-6.24,2.26-1.56,5.43-.47,6.49-.02.59-.07,1.01-.25,1.19-.5.22-.32.22-.94-.01-1.75-.81-2.89.15-5.74,2.41-7.09,6.09-3.65,16.24,3.52,16.67,3.83,17.55,9.63,67.81,55.23,69.94,57.17.51.46.54,1.24.08,1.74s-1.24.54-1.74.08c-.52-.47-52.18-47.35-69.59-56.91-2.68-1.9-10.19-6.13-14.09-3.8-1.48.89-1.71,2.86-1.3,4.31.45,1.59.33,2.89-.35,3.85-.66.94-1.79,1.46-3.33,1.56-.21.01-.42-.03-.6-.12-.74-.35-3.15-1.16-4.36-.32-.96.66-1.05,2.34-.95,3.67.13.53.43,2.28-.62,3.79-.8,1.15-2.14,1.83-3.98,2-.3.32-.91,2.31,1.05,7.55.28.41,39.54,62.95,85.57,78.97.64.22.98.93.76,1.57-.18.51-.65.83-1.17.83Z"/>
      <path d="M244.81,119.76c-.21,0-.43-.05-.62-.17-.59-.34-.78-1.1-.44-1.69,23.1-39.49,21.4-78.62,21.38-79.01-.57-3.92-1.73-5.09-2.37-5.43-.69-.36-1.34-.05-1.36-.03-.19.1-.44.14-.64.14-3.19-.17-4.5-2.46-4.79-3.79-.87-1.91-1.9-2.99-3.05-3.19-1.8-.34-3.54,1.45-3.56,1.47-.1.1-.23.19-.36.26-1.61.76-2.98.88-4.06.35-.65-.31-1.5-1.02-1.88-2.59-.4-1.7-1.86-3.37-3.86-3.18-4.34.47-8.56,7.34-9.82,9.95-10.75,16.86-18.24,40.92-18.32,41.16-.2.65-.9,1.01-1.54.81-.65-.2-1.02-.89-.81-1.54.07-.24,7.67-24.62,18.52-41.63.14-.31,5.12-10.48,11.71-11.2,2.96-.34,5.77,1.85,6.53,5.06.08.35.25.79.55.94.34.16.98.06,1.77-.28.65-.6,2.9-2.47,5.56-2,2.03.36,3.69,1.96,4.93,4.75.04.1.07.2.09.3.05.27.41,1.66,2.25,1.88.61-.23,1.86-.52,3.21.16,1.92.96,3.18,3.45,3.75,7.41.03.51,1.79,40.35-21.7,80.5-.23.39-.64.61-1.06.61Z"/>
      <path d="M164.53,228.35c-41.53,0-77.39-30.94-83.43-71.97-.1-.67.37-1.3,1.04-1.4.65-.1,1.3.37,1.4,1.04,5.86,39.83,40.67,69.86,80.98,69.86,45.15,0,81.87-36.73,81.87-81.87s-36.73-81.87-81.87-81.87c-28.77,0-53.8,13.59-68.65,37.27-.36.58-1.12.75-1.7.39-.58-.36-.75-1.12-.39-1.7,15.31-24.42,41.09-38.43,70.74-38.43,46.5,0,84.34,37.83,84.34,84.34s-37.83,84.34-84.34,84.34Z"/>
      <path d="M128.15,291.41c-2.27-.1-3.12-1.09-3.48-1.91-1.51-3.45,3.62-10.23,5.62-12.67l4.16-54.56c.05-.68.72-1.18,1.32-1.14.68.05,1.19.64,1.14,1.32l-4.19,54.95c-.02.26-.12.5-.28.69-3.19,3.83-6.16,8.92-5.51,10.41.12.26.5.41,1.14.45l32.51-3.82,11.44-1.73c.1-.01,2.67-.28,4.33-2.42,1.37-1.77,1.79-4.34,1.26-7.65l-2.12-46.89c-.03-.68.5-1.26,1.17-1.29.72-.09,1.25.5,1.29,1.18l2.1,46.75c.64,3.89.04,7.12-1.78,9.45-2.34,2.99-5.81,3.31-5.96,3.32l-11.4,1.73-32.76,3.83Z"/>
      <path d="M255.86,254.16c-.29,0-.59-.01-.89-.05-2.94-.31-5.67-2.13-8.12-5.41l-33.97-36.04c-.47-.49-.44-1.27.05-1.74.5-.47,1.28-.45,1.74.05l34.06,36.15c2.1,2.81,4.26,4.3,6.49,4.54,2.7.28,4.63-1.36,4.65-1.37l9.31-7.09,25.49-20.79c.28-.34.44-.72.33-.99-.61-1.5-6.34-2.92-11.31-3.29-.26-.02-.5-.12-.69-.28l-42.99-35.76c-.52-.44-.59-1.21-.16-1.74.44-.52,1.22-.59,1.74-.16l42.69,35.51c3.15.27,11.58,1.3,13.01,4.79.34.83.46,2.14-.91,3.69l-25.67,20.96-9.28,7.06s-2.28,1.96-5.57,1.96Z"/>
      <path d="M120.06,89.67c-.66,0-1.21-.52-1.23-1.19l-.16-4.62-4.69-.5c-.68-.07-1.17-.68-1.09-1.36.07-.68.68-1.15,1.36-1.09l5.75.62c.61.07,1.08.57,1.1,1.18l.2,5.69c.02.68-.51,1.25-1.19,1.27-.01,0-.03,0-.04,0Z"/>
      <path d="M111.26,99.59c-.66,0-1.21-.52-1.23-1.19l-.16-4.62-4.69-.5c-.68-.07-1.17-.68-1.09-1.36s.71-1.16,1.36-1.09l5.75.62c.61.07,1.08.57,1.1,1.18l.2,5.69c.02.68-.51,1.25-1.19,1.27-.01,0-.03,0-.04,0Z"/>
      <path d="M98.64,190.08c-.16,0-.32-.03-.47-.09-.63-.26-.93-.98-.67-1.61l2.2-5.34c.23-.57.85-.88,1.44-.72l5.52,1.4c.66.17,1.06.84.89,1.5-.17.66-.83,1.07-1.5.89l-4.48-1.14-1.8,4.36c-.2.48-.65.76-1.14.76Z"/>
      <path d="M105.41,199.81c-.13,0-.25-.02-.38-.06-.65-.21-1-.9-.79-1.55l1.77-5.5c.19-.58.76-.94,1.38-.84l5.61.96c.67.11,1.12.75,1.01,1.42-.12.67-.77,1.11-1.42,1.01l-4.56-.78-1.44,4.49c-.17.52-.65.85-1.17.85Z"/>
      <g>
        <path class="cls-3" d="M193.44,139.68c.3-1.28-.82-2.45-2.11-2.21l-10.18,1.89-.15.03-10.18,1.89c-1.3.24-1.92,1.73-1.18,2.82,1.75,2.58,5.61,6.18,13.13,4.84h0s.05,0,.07,0c.03,0,.05,0,.07,0h0c7.5-1.46,9.82-6.2,10.52-9.24Z"/>
        <rect class="cls-3" x="166.55" y="126.29" width="14.21" height="6.14" rx="3.07" ry="3.07" transform="translate(78.1 323.68) rotate(-100.5)"/>
        <rect class="cls-3" x="177.32" y="124.3" width="14.21" height="6.14" rx="3.07" ry="3.07" transform="translate(92.79 331.91) rotate(-100.5)"/>
      </g>
    </g>
    <rect class="cls-1" width="311.81" height="311.81"/>
  </g>
</svg>