<?xml version="1.0" encoding="UTF-8"?>
<svg xmlns="http://www.w3.org/2000/svg" version="1.1" viewBox="0 0 165 180">
  <defs>
    <style>
      .cls-1 {
        fill: none;
      }

      .cls-2 {
        fill: #c59f7b;
      }
    </style>
  </defs>
  <!-- Generator: Adobe Illustrator 28.7.1, SVG Export Plug-In . SVG Version: 1.2.0 Build 142)  -->
  <g>
    <g id="Layer_1">
      <rect class="cls-1" width="165" height="180"/>
      <path class="cls-2" d="M152.9,8.6h5l-19.6,32.4h-5l19.6-32.4ZM135.6,25.1h-1.2c-4.1,0-6.2-2.2-6.2-6.6v-3.8c0-4.4,2.1-6.6,6.2-6.6h1.2c4.1,0,6.2,2.2,6.2,6.6v3.8c0,4.4-2.1,6.6-6.2,6.6ZM133.3,21c0,.3,0,.5.2.7.2.2.4.3.7.3h1.6c.3,0,.5-.1.6-.3.2-.2.3-.4.3-.7v-8.8c0-.3-.1-.5-.3-.7-.2-.2-.4-.3-.6-.3h-1.6c-.3,0-.5.1-.7.3-.2.2-.2.4-.2.7v8.8ZM156.6,24.5c4.1,0,6.2,2.2,6.2,6.6v3.8c0,4.4-2.1,6.6-6.2,6.6h-1.2c-4.1,0-6.2-2.2-6.2-6.6v-3.8c0-4.4,2.1-6.6,6.2-6.6h1.2ZM157.8,37.4v-8.8c0-.3-.1-.5-.3-.7-.2-.2-.4-.3-.7-.3h-1.5c-.3,0-.5.1-.7.3-.2.2-.2.4-.2.7v8.8c0,.3,0,.5.2.7.2.2.4.3.7.3h1.5c.3,0,.5-.1.7-.3.2-.2.3-.4.3-.7Z"/>
      <g>
        <path class="cls-2" d="M20.1,70.8l-6.5,6.5c.3,12.8,4.3,21.9,11.8,27.1l14.1-14.1-19.4-19.4Z"/>
        <polygon class="cls-2" points="13.6 37.7 13.6 63.6 20.1 70.1 39.5 50.7 20.1 31.2 13.6 37.7"/>
        <path class="cls-2" d="M13.6,76.6l6.1-6.1-6.1-6.1v11.1c0,.4,0,.8,0,1.2Z"/>
        <path class="cls-2" d="M25.8,104.6c5.1,3.4,11.7,5.1,20,5.1h13.1l-19.1-19.1-14,14Z"/>
        <polygon class="cls-2" points="45.8 45.1 40.2 50.7 45.8 56.3 45.8 45.1"/>
        <polygon class="cls-2" points="76.2 47.8 76.2 53.5 79.1 50.7 76.2 47.8"/>
        <path class="cls-2" d="M47.1,77.5c-.9-1-1.3-2.3-1.3-3.6v-16.8l-6-6-19.4,19.4,19.4,19.4,10.9-10.9c-1.4,0-2.6-.5-3.6-1.6Z"/>
        <polygon class="cls-2" points="98.9 30.9 79.5 11.4 76.2 14.6 76.2 47.1 79.5 50.3 98.9 30.9"/>
        <polygon class="cls-2" points="20.4 30.9 39.9 50.3 45.8 44.3 45.8 17.4 39.9 11.4 20.4 30.9"/>
        <polygon class="cls-2" points="99.3 30.5 108.7 21 108.7 7.8 83.1 7.8 79.8 11.1 99.3 30.5"/>
        <polygon class="cls-2" points="79.5 169.8 76.2 173 76.2 176 85.6 176 79.5 169.8"/>
        <polygon class="cls-2" points="108.7 40 108.7 21.7 99.6 30.9 108.7 40"/>
        <polygon class="cls-2" points="45.8 16.7 45.8 7.8 43.5 7.8 40.2 11.1 45.8 16.7"/>
        <polygon class="cls-2" points="82.4 7.8 76.5 7.8 79.5 10.7 82.4 7.8"/>
        <polygon class="cls-2" points="79.1 11.1 76.2 8.2 76.2 13.9 79.1 11.1"/>
        <polygon class="cls-2" points="19.7 30.9 13.6 24.7 13.6 37 19.7 30.9"/>
        <polygon class="cls-2" points="98.9 110.1 79.5 90.6 60.4 109.7 76.2 109.7 76.2 126.3 79.5 129.5 98.9 110.1"/>
        <polygon class="cls-2" points="108.7 100.2 108.7 80.3 99.3 70.8 79.8 90.3 99.3 109.7 108.7 100.2"/>
        <polygon class="cls-2" points="76.2 166.6 76.2 172.3 79.1 169.5 76.2 166.6"/>
        <polygon class="cls-2" points="108.7 100.9 99.6 110.1 108.7 119.2 108.7 100.9"/>
        <polygon class="cls-2" points="108.7 159.5 99.3 150 79.8 169.5 86.4 176 108.7 176 108.7 159.5"/>
        <polygon class="cls-2" points="39.9 10.7 42.8 7.8 36.9 7.8 39.9 10.7"/>
        <polygon class="cls-2" points="108.7 139.8 108.7 119.9 99.3 110.4 79.8 129.9 99.3 149.3 108.7 139.8"/>
        <polygon class="cls-2" points="79.5 130.2 76.2 133.4 76.2 165.9 79.5 169.1 98.9 149.7 79.5 130.2"/>
        <polygon class="cls-2" points="99.6 149.7 108.7 158.8 108.7 140.5 99.6 149.7"/>
        <polygon class="cls-2" points="76.2 127 76.2 132.7 79.1 129.9 76.2 127"/>
        <polygon class="cls-2" points="67.9 79 51.5 79 40.2 90.3 59.7 109.7 59.7 109.7 79.1 90.3 67.9 79"/>
        <polygon class="cls-2" points="13.6 24 20.1 30.5 39.5 11.1 36.2 7.8 13.6 7.8 13.6 24"/>
        <polygon class="cls-2" points="108.7 61.3 99.6 70.5 108.7 79.6 108.7 61.3"/>
        <polygon class="cls-2" points="108.7 60.6 108.7 40.7 99.3 31.2 79.8 50.7 99.3 70.1 108.7 60.6"/>
        <path class="cls-2" d="M98.9,70.5l-19.4-19.4-3.2,3.2v19.6c0,1.4-.5,2.6-1.6,3.6-.9,1-2,1.6-3.4,1.6h-2.7l10.9,10.9,19.4-19.4Z"/>
      </g>
    </g>
  </g>
</svg>