<?xml version="1.0" encoding="UTF-8"?>
<svg id="Layer_2" xmlns="http://www.w3.org/2000/svg" viewBox="0 0 184.25 184.25">
  <defs>
    <style>
      .cls-1 {
        fill: none;
      }

      .cls-2 {
        fill: #231f20;
      }
    </style>
  </defs>
  <g id="Layer_1-2" data-name="Layer_1">
    <rect class="cls-1" width="184.25" height="184.25"/>
    <g>
      <path class="cls-2" d="M148,46.49c.54,0,1.02-.38,1.11-.93l.56-3.1,3.75.38c.58.04,1.18-.39,1.24-1.02.06-.62-.39-1.18-1.02-1.24l-4.79-.48c-.59-.04-1.12.34-1.23.93l-.75,4.13c-.11.62.3,1.21.92,1.32.07.01.14.02.2.02Z"/>
      <path class="cls-2" d="M153.93,54.06c.54,0,1.02-.38,1.11-.93l.56-3.1,3.75.38c.6.04,1.18-.39,1.24-1.02.06-.62-.39-1.18-1.02-1.24l-4.79-.48c-.59-.04-1.12.34-1.23.93l-.75,4.13c-.11.62.3,1.21.92,1.32.07.01.14.02.2.02Z"/>
      <path class="cls-2" d="M157.83,62.15c.45,0,.88-.27,1.05-.71l1.16-2.92,3.6,1.12c.61.18,1.24-.15,1.42-.75.19-.6-.15-1.23-.75-1.42l-4.6-1.43c-.58-.17-1.17.11-1.39.66l-1.55,3.9c-.23.58.05,1.24.63,1.47.14.06.28.08.42.08Z"/>
      <path class="cls-2" d="M161.77,70.55c.35-.06.68-.28.84-.63l1.37-2.83,3.51,1.37c.58.23,1.24-.06,1.47-.65.23-.58-.06-1.24-.65-1.47l-4.49-1.75c-.54-.22-1.18.03-1.43.57l-1.82,3.78c-.27.56-.04,1.24.53,1.51.22.1.45.13.67.1Z"/>
      <path class="cls-2" d="M7.56,92.13c0-46.74,38.03-84.77,84.77-84.77,46.74,0,84.77,38.03,84.77,84.77,0,46.74-38.03,84.77-84.77,84.77S7.56,138.87,7.56,92.13ZM9.83,92.13c0,45.49,37.01,82.5,82.5,82.5,45.49,0,82.5-37.01,82.5-82.5,0-45.49-37.01-82.5-82.5-82.5-45.49,0-82.5,37.01-82.5,82.5Z"/>
    </g>
  </g>
</svg>