<?xml version="1.0" encoding="UTF-8"?>
<svg id="Layer_2" xmlns="http://www.w3.org/2000/svg" viewBox="0 0 175.89 173.56">
  <defs>
    <style>
      .cls-1 {
        fill: #8e8e93;
      }

      .cls-2 {
        fill: #fff;
      }
    </style>
  </defs>
  <g id="Layer_1-2" data-name="Layer_1">
    <circle class="cls-1" cx="87.94" cy="91.52" r="82.04"/>
    <path d="M87.94,0C39.45,0,0,37.95,0,84.6s39.45,84.6,87.94,84.6,87.94-37.95,87.94-84.6S136.44,0,87.94,0ZM172.44,96.77l-1.67-2.37c-.35-.5-1.01-.67-1.57-.39l-5.15,2.63c-.61.31-.85,1.05-.54,1.66.31.61,1.05.85,1.66.54l4.2-2.14,2.45,3.48c-.55,2.75-1.24,5.46-2.08,8.11l-.66-1.5c-.25-.56-.87-.87-1.46-.69l-5.57,1.55c-.66.18-1.04.86-.86,1.52.18.66.85,1.04,1.52.86l4.54-1.26,1.31,2.99c-.92,2.52-1.97,4.99-3.13,7.39l-.08-.32c-.15-.6-.69-1.01-1.32-.93l-5.75.57c-.68.07-1.17.67-1.11,1.35.07.68.65,1.17,1.35,1.1l4.69-.47.5,2.03c-14.27,26.26-42.87,44.25-75.78,44.25s-61.49-17.98-75.76-44.25l.5-2.03,4.69.47c.7.07,1.28-.43,1.35-1.1.07-.68-.43-1.28-1.11-1.35l-5.75-.57c-.63-.08-1.17.34-1.32.93l-.08.31c-1.16-2.4-2.22-4.85-3.14-7.37l1.32-3,4.54,1.26c.67.19,1.34-.2,1.52-.86.18-.65-.2-1.33-.86-1.52l-5.57-1.55c-.59-.18-1.21.13-1.46.69l-.66,1.51c-.83-2.64-1.54-5.34-2.09-8.09l2.47-3.51,4.2,2.14c.6.31,1.35.07,1.66-.54.31-.61.07-1.35-.54-1.66l-5.15-2.63c-.55-.28-1.22-.11-1.57.39l-1.69,2.4c-.52-3.35-.81-6.77-.9-10.23.27-.02.54-.12.75-.32l3.37-3.16,3.68,2.95c.53.42,1.3.34,1.73-.19.42-.53.34-1.31-.19-1.73l-4.51-3.61c-.48-.38-1.17-.35-1.61.06l-3.25,3.04C3.09,38.79,41.18,2.5,87.94,2.5s84.84,36.28,85.42,81.07l-3.22-3.02c-.45-.42-1.13-.45-1.61-.06l-4.51,3.61c-.53.43-.62,1.2-.19,1.73.43.53,1.21.62,1.73.19l3.68-2.95,3.37,3.16c.21.19.47.29.73.31-.08,3.46-.37,6.87-.89,10.21Z"/>
    <g>
      <path class="cls-2" d="M100.06,91.3c.51-1.22-.4-2.55-1.72-2.53l-10.35.16h-.15s-10.35.16-10.35.16c-1.32.02-2.18,1.38-1.64,2.58,1.29,2.84,4.5,7.03,12.14,6.97h0s.05,0,.08,0c.03,0,.05,0,.08,0h0c7.64-.18,10.71-4.47,11.92-7.35Z"/>
      <rect class="cls-2" x="75.17" y="74.75" width="14.21" height="6.14" rx="3.07" ry="3.07" transform="translate(5.72 161.27) rotate(-90.88)"/>
      <rect class="cls-2" x="86.12" y="74.58" width="14.21" height="6.14" rx="3.07" ry="3.07" transform="translate(17 172.05) rotate(-90.88)"/>
    </g>
  </g>
</svg>