<?xml version="1.0" encoding="UTF-8"?>
<svg xmlns="http://www.w3.org/2000/svg" version="1.1" viewBox="0 0 165 180">
  <defs>
    <style>
      .cls-1 {
        fill: none;
      }

      .cls-2 {
        fill: #c59f7b;
      }
    </style>
  </defs>
  <!-- Generator: Adobe Illustrator 28.7.1, SVG Export Plug-In . SVG Version: 1.2.0 Build 142)  -->
  <g>
    <g id="Layer_1">
      <rect class="cls-1" width="165" height="180"/>
      <path class="cls-2" d="M152.9,8.6h5l-19.6,32.4h-5l19.6-32.4ZM135.6,25.1h-1.2c-4.1,0-6.2-2.2-6.2-6.6v-3.8c0-4.4,2.1-6.6,6.2-6.6h1.2c4.1,0,6.2,2.2,6.2,6.6v3.8c0,4.4-2.1,6.6-6.2,6.6ZM133.3,21c0,.3,0,.5.2.7.2.2.4.3.7.3h1.6c.3,0,.5-.1.6-.3.2-.2.3-.4.3-.7v-8.8c0-.3-.1-.5-.3-.7-.2-.2-.4-.3-.6-.3h-1.6c-.3,0-.5.1-.7.3-.2.2-.2.4-.2.7v8.8ZM156.6,24.5c4.1,0,6.2,2.2,6.2,6.6v3.8c0,4.4-2.1,6.6-6.2,6.6h-1.2c-4.1,0-6.2-2.2-6.2-6.6v-3.8c0-4.4,2.1-6.6,6.2-6.6h1.2ZM157.8,37.4v-8.8c0-.3-.1-.5-.3-.7-.2-.2-.4-.3-.7-.3h-1.5c-.3,0-.5.1-.7.3-.2.2-.2.4-.2.7v8.8c0,.3,0,.5.2.7.2.2.4.3.7.3h1.5c.3,0,.5-.1.7-.3.2-.2.3-.4.3-.7Z"/>
      <g>
        <path class="cls-2" d="M105.3,100.2c-2-4.3-4.9-7.7-8.6-10.3,3.5-2.6,6.2-6.2,7.9-10.8l-8.6-8.6-19.4,19.4,19.4,19.4,9.2-9.2Z"/>
        <path class="cls-2" d="M107.4,41.5v-2c0-6.7-.9-12.4-2.8-17.1l-8.2,8.2,10.9,10.9Z"/>
        <polygon class="cls-2" points="46.3 120.4 37.1 129.6 46.3 138.8 46.3 120.4"/>
        <path class="cls-2" d="M95.8,109.8l-19.4-19.4-14.9,14.9h10.4c1.4,0,2.5.5,3.4,1.6,1,1,1.6,2.3,1.6,3.6v18.3l19-19Z"/>
        <path class="cls-2" d="M17.3,70.2l19.4,19.4,13.8-13.8c-.5-.3-.9-.6-1.3-1-.9-1-1.3-2.3-1.3-3.6v-9.3l-11.2-11.2-19.4,19.4Z"/>
        <polygon class="cls-2" points="53.2 34.3 59.9 34.3 56.5 31 53.2 34.3"/>
        <polygon class="cls-2" points="47.9 61.2 47.9 39.6 37.1 50.4 47.9 61.2"/>
        <path class="cls-2" d="M60.6,34.3h9.7c1.4,0,2.5.5,3.4,1.6,1,1,1.6,2.3,1.6,3.6v9.4l1.1,1.1,19.4-19.4-19.4-19.4-19.4,19.4,3.7,3.7Z"/>
        <path class="cls-2" d="M71.1,5.2l5.3,5.3,4.9-4.9c-1.9-.2-3.9-.3-6.1-.3h-4.1Z"/>
        <polygon class="cls-2" points="96.1 69.8 107.4 58.5 107.4 42.3 96.1 31 76.7 50.4 96.1 69.8"/>
        <path class="cls-2" d="M81.9,5.6l-5.2,5.2,19.4,19.4,8.3-8.3c-3.8-9.4-11.4-14.8-22.6-16.3Z"/>
        <path class="cls-2" d="M17.3,109.8l19.4,19.4,9.6-9.6v-9.2c0-1.4.4-2.6,1.3-3.6,1-1,2.3-1.6,3.6-1.6h.4l-14.9-14.9-19.4,19.4Z"/>
        <path class="cls-2" d="M96.5,149.4l10.3,10.3c1.4-4.4,2.2-9.5,2.2-15.5v-7.4l-12.5,12.5Z"/>
        <polygon class="cls-2" points="57.1 150.3 56 150.3 37.1 169.2 46.5 178.6 66.6 178.6 76 169.2 57.1 150.3"/>
        <path class="cls-2" d="M52.4,105.3h8.3l15.3-15.3-13.6-13.6h-9.6c-.6,0-1.2-.1-1.8-.3l-13.9,13.9,15.3,15.3Z"/>
        <polygon class="cls-2" points="75.2 51.2 76 50.4 75.2 49.6 75.2 51.2"/>
        <path class="cls-2" d="M96.5,70.2l8.4,8.4c1.7-4.6,2.5-10.2,2.5-16.8v-2.6l-10.9,10.9Z"/>
        <path class="cls-2" d="M75.2,51.9v19.3c0,1.4-.5,2.6-1.6,3.6-.9,1-2,1.6-3.4,1.6h-7.1l13.2,13.2,19.4-19.4-19.4-19.4-1.1,1.1Z"/>
        <polygon class="cls-2" points="109 136.2 109 123 96.1 110.2 76.8 129.5 76.8 129.7 96.1 149 109 136.2"/>
        <path class="cls-2" d="M13.9,146.7c0,1.7.2,3.4.4,5l2.3-2.3-2.7-2.7Z"/>
        <path class="cls-2" d="M15.8,32.1c-.3,2.3-.4,4.8-.4,7.4v22.4c0,2.4.1,4.6.3,6.8l1.2,1.2,19.4-19.4-19.4-19.4-1.1,1.1Z"/>
        <path class="cls-2" d="M16.9,149.7l-2.6,2.6c1.6,11.6,6.8,19.4,15.6,23.3l6.4-6.4-19.4-19.4Z"/>
        <path class="cls-2" d="M36.7,50l11.2-11.2c.1-1.1.5-2.1,1.2-3,.9-.9,2-1.4,3.3-1.5l3.7-3.7-19.4-19.4-19.4,19.4,19.4,19.4Z"/>
        <path class="cls-2" d="M16.1,71.4c1.4,8.5,4.7,14.7,10,18.5-5.6,3.9-9.3,9.8-11,17.6l1.9,1.9,19.4-19.4-19.4-19.4-.8.8Z"/>
        <path class="cls-2" d="M16.2,29.5l.7.7,19.4-19.4-3.3-3.3c-9.3,3.5-14.9,10.8-16.9,22Z"/>
        <path class="cls-2" d="M16.6,30.6l-.5-.5c0,.4-.1.8-.2,1.1l.7-.7Z"/>
        <path class="cls-2" d="M36.7,10.4l4.9-4.9c-2.9.3-5.6.9-8.1,1.8l3.1,3.1Z"/>
        <path class="cls-2" d="M106.7,160.3l-10.5-10.5-19.4,19.4,8.7,8.7c10.8-1.9,17.9-7.8,21.3-17.6Z"/>
        <path class="cls-2" d="M84.8,178l-8.4-8.4-9.1,9.1h9.5c2.9,0,5.5-.2,8-.6Z"/>
        <path class="cls-2" d="M16,70.8l.6-.6-.8-.8c0,.5.1.9.2,1.3Z"/>
        <path class="cls-2" d="M36.4,129.6l-19.4-19.4-2.8,2.8c-.2,2-.3,4.2-.3,6.4v25c0,.6,0,1.1,0,1.7l3.1,3.1,19.4-19.4Z"/>
        <path class="cls-2" d="M14.9,108.1c-.3,1.3-.5,2.6-.7,4l2.3-2.3-1.7-1.7Z"/>
        <path class="cls-2" d="M55.3,150.3h-4c-1.4,0-2.6-.5-3.6-1.6-.9-1-1.3-2.3-1.3-3.6v-5.5l-9.6-9.6-19.4,19.4,19.4,19.4,18.6-18.6Z"/>
        <path class="cls-2" d="M95.8,149.4l-19-19v14.7c0,1.4-.5,2.6-1.6,3.6-.9,1-2,1.6-3.4,1.6h-14.1l18.6,18.6,19.4-19.4Z"/>
        <path class="cls-2" d="M105.6,100.7l-9.1,9.1,12.5,12.5v-3c0-7.3-1.2-13.5-3.4-18.6Z"/>
        <path class="cls-2" d="M45.8,178.6l-9-9-6.3,6.3c4.3,1.8,9.4,2.7,15.4,2.7Z"/>
        <path class="cls-2" d="M56.5,30.2l19.4-19.4-5.6-5.6h-22.7c-1.8,0-3.5,0-5.2.2l-5.4,5.4,19.4,19.4Z"/>
      </g>
    </g>
  </g>
</svg>