<?xml version="1.0" encoding="UTF-8"?>
<svg xmlns="http://www.w3.org/2000/svg" version="1.1" viewBox="0 0 263 180">
  <defs>
    <style>
      .cls-1 {
        fill: none;
      }

      .cls-2 {
        fill: #c59f7b;
      }
    </style>
  </defs>
  <!-- Generator: Adobe Illustrator 28.7.1, SVG Export Plug-In . SVG Version: 1.2.0 Build 142)  -->
  <g>
    <g id="Layer_1">
      <rect class="cls-1" x=".5" width="262" height="180"/>
      <path class="cls-2" d="M250.4,8.6h5l-19.6,32.4h-5l19.6-32.4ZM233.1,25.1h-1.2c-4.1,0-6.2-2.2-6.2-6.6v-3.8c0-4.4,2.1-6.6,6.2-6.6h1.2c4.1,0,6.2,2.2,6.2,6.6v3.8c0,4.4-2.1,6.6-6.2,6.6ZM230.8,21c0,.3,0,.5.2.7.2.2.4.3.7.3h1.6c.3,0,.5-.1.6-.3.2-.2.3-.4.3-.7v-8.8c0-.3-.1-.5-.3-.7-.2-.2-.4-.3-.6-.3h-1.6c-.3,0-.5.1-.7.3-.2.2-.2.4-.2.7v8.8ZM254.1,24.5c4.1,0,6.2,2.2,6.2,6.6v3.8c0,4.4-2.1,6.6-6.2,6.6h-1.2c-4.1,0-6.2-2.2-6.2-6.6v-3.8c0-4.4,2.1-6.6,6.2-6.6h1.2ZM255.3,37.4v-8.8c0-.3-.1-.5-.3-.7-.2-.2-.4-.3-.7-.3h-1.5c-.3,0-.5.1-.7.3-.2.2-.2.4-.2.7v8.8c0,.3,0,.5.2.7.2.2.4.3.7.3h1.5c.3,0,.5-.1.7-.3.2-.2.3-.4.3-.7Z"/>
      <g>
        <polygon class="cls-2" points="74.5 118.7 74.5 140.5 85.4 129.6 74.5 118.7"/>
        <path class="cls-2" d="M105.2,109.8l-19.4-19.4-18.3,18.3c2.6-.6,5-1.3,7.1-2.4v11.7l11.2,11.2,19.4-19.4Z"/>
        <polygon class="cls-2" points="112.5 131.8 112.5 142.1 122.8 131.8 112.5 131.8"/>
        <path class="cls-2" d="M183,71.6c-2.9-.6-6-.9-9.4-.9h-24.7c-1.1,0-2.1-.3-2.9-1l-.5.5,19.4,19.4,18.1-18.1Z"/>
        <path class="cls-2" d="M145.1,70.6l-19.4,19.4,12.5,12.5c1.5.1,3.1.2,4.8.2h9l12.7-12.7-19.4-19.4Z"/>
        <path class="cls-2" d="M29.2,107.3c4.2,1.6,9.1,2.4,14.9,2.4h13c2.8,0,5.4-.2,7.8-.6l-18.8-18.8-16.9,16.9Z"/>
        <path class="cls-2" d="M86.1,50.4l19.4,19.4,1.5-1.5v-28.9c0-2.7-.2-5.2-.4-7.5l-1-1-19.4,19.4Z"/>
        <path class="cls-2" d="M65.5,109c.3,0,.7-.1,1-.2l18.9-18.9-13.2-13.2c-.7.6-1.6.9-2.7.9h-10.8l-12.3,12.3,19,19Z"/>
        <path class="cls-2" d="M74.5,62v10.5c0,1.4-.5,2.6-1.6,3.6-.1.1-.2.2-.3.3l13.1,13.1,19.4-19.4-19.4-19.4-11.2,11.2Z"/>
        <polygon class="cls-2" points="125.7 10.8 145.1 30.2 164.6 10.8 161.6 7.8 128.7 7.8 125.7 10.8"/>
        <polygon class="cls-2" points="162.3 7.8 164.9 10.4 167.6 7.8 162.3 7.8"/>
        <path class="cls-2" d="M105.5,30.2l.7-.7c-2-11.2-7.6-18.6-16.8-22.1l-3.3,3.3,19.4,19.4Z"/>
        <polygon class="cls-2" points="145.5 30.6 150.5 35.6 179.4 35.6 184.4 30.6 164.9 11.2 145.5 30.6"/>
        <polygon class="cls-2" points="185.1 30.6 190.1 35.6 199.1 35.6 199.1 16.6 185.1 30.6"/>
        <path class="cls-2" d="M187.8,72.9l15.5,15.5c-2.8-7.7-8-12.8-15.5-15.5Z"/>
        <polygon class="cls-2" points="180.1 35.6 189.4 35.6 184.7 31 180.1 35.6"/>
        <path class="cls-2" d="M114.3,158.5c1.6,5.6,4.3,10,8.1,13.3l2.6-2.6-10.7-10.7Z"/>
        <path class="cls-2" d="M149.8,35.6l-4.6-4.6-19.4,19.4,19.4,19.4.4-.4c-.1,0-.2-.2-.3-.3-.9-1-1.3-2.3-1.3-3.6v-29.9h5.8Z"/>
        <polygon class="cls-2" points="125 10.8 122 7.8 110.7 7.8 110.7 25.1 125 10.8"/>
        <polygon class="cls-2" points="125.3 50 144.8 30.6 125.3 11.2 110.7 25.8 110.7 35.4 125.3 50"/>
        <polygon class="cls-2" points="128 7.8 122.7 7.8 125.3 10.4 128 7.8"/>
        <path class="cls-2" d="M107,111.6l-1.5-1.5-19.4,19.4,19.4,19.4,1.4-1.4c0-1.1,0-2.2,0-3.4v-32.7Z"/>
        <path class="cls-2" d="M85.7,10.4l3.1-3.1c-2.4-.9-5.1-1.5-8.1-1.8l4.9,4.9Z"/>
        <path class="cls-2" d="M86.1,169.2l5.9,5.9c8.5-4.2,13.4-12.3,14.6-24.2l-1.1-1.1-19.4,19.4Z"/>
        <polygon class="cls-2" points="86.1 90 105.5 109.4 107 108 107 72 105.5 70.6 86.1 90"/>
        <path class="cls-2" d="M120.2,95.5c4.3,3.8,10,6.1,17.2,6.9l-12-12-5.1,5.1Z"/>
        <path class="cls-2" d="M125.3,50.8l-14.7,14.7v2.9c0,2.5.1,4.8.4,7l14.3,14.3,19.4-19.4-19.4-19.4Z"/>
        <polygon class="cls-2" points="110.7 64.7 125 50.4 110.7 36.1 110.7 64.7"/>
        <polygon class="cls-2" points="105.9 70.2 107 71.3 107 69.1 105.9 70.2"/>
        <polygon class="cls-2" points="107 108.7 105.9 109.8 107 110.9 107 108.7"/>
        <path class="cls-2" d="M106.5,31.2c0-.3,0-.6-.1-1l-.4.4.6.6Z"/>
        <path class="cls-2" d="M111.2,76.2c1.1,8.3,4,14.6,8.7,19l5.2-5.2-13.8-13.8Z"/>
        <path class="cls-2" d="M105.9,149.4l.8.8c0-.6.1-1.2.1-1.8l-1,1Z"/>
        <path class="cls-2" d="M12.4,83.8l13.6-13.6-14.2-14.2v19.3c0,3,.2,5.8.6,8.4Z"/>
        <path class="cls-2" d="M174,178.6l-9-9-9.1,9.1h17.7c.1,0,.3,0,.4,0Z"/>
        <path class="cls-2" d="M76,178.6l9.4-9.4-18.9-18.9h-1l-18.9,18.9,9.4,9.4h18.9c.4,0,.8,0,1.2,0Z"/>
        <path class="cls-2" d="M172.3,137.3v7.7c0,1.4-.5,2.6-1.6,3.6-.9,1-2,1.6-3.4,1.6h-15.3c-1.4,0-2.6-.5-3.6-1.6-.4-.4-.6-.9-.8-1.4l-2.1,2.1,19.4,19.4,19.4-19.4-12.1-12.1Z"/>
        <path class="cls-2" d="M14.4,137.8v6.4c0,5.6.6,10.5,1.9,14.7l9.6-9.6-11.6-11.6Z"/>
        <path class="cls-2" d="M55.2,178.6l-9.1-9.1-8.3,8.3c2.7.5,5.6.8,8.8.8h8.5Z"/>
        <polygon class="cls-2" points="204.2 129.6 184.7 110.2 172.3 122.6 172.3 136.6 184.7 149 204.2 129.6"/>
        <path class="cls-2" d="M37.3,177.7l8.5-8.5-19.4-19.4-9.8,9.8c3.2,10,10.1,16,20.7,18.2Z"/>
        <path class="cls-2" d="M145.1,149.7l-19.4,19.4,8.2,8.2c3.2.8,6.8,1.2,10.8,1.2h10.4l9.4-9.4-19.4-19.4Z"/>
        <path class="cls-2" d="M200.9,165.9l-16.1-16.1-19.4,19.4,9.4,9.4c12.5-.2,21.2-4.5,26.2-12.7Z"/>
        <rect class="cls-2" x="72" y="16.9" width="27.5" height="27.5" transform="translate(3.5 69.6) rotate(-45)"/>
        <polygon class="cls-2" points="204.9 129.6 205.8 130.5 205.8 128.6 204.9 129.6"/>
        <path class="cls-2" d="M205.8,127.9v-22.9c0-5.4-.6-10.1-1.8-14.2l-19,19,19.4,19.4,1.3-1.3Z"/>
        <path class="cls-2" d="M11.8,44.8l14.2-14.2-10.4-10.4c-2.5,5.1-3.7,11.6-3.7,19.3v5.3Z"/>
        <path class="cls-2" d="M41,5.3l5.2,5.2,5.3-5.3h-7.3c-1.1,0-2.1,0-3.1,0Z"/>
        <path class="cls-2" d="M15.8,19.7l10.6,10.6,19.4-19.4-5.5-5.5c-11.9.8-20.1,5.6-24.5,14.4Z"/>
        <path class="cls-2" d="M205.8,131.3l-1.3-1.3-19.4,19.4,16.1,16.1c3.1-5.4,4.7-12.5,4.7-21.2v-13Z"/>
        <path class="cls-2" d="M105.2,149.4l-19.4-19.4-11.2,11.2v3.9c0,1.4-.5,2.6-1.6,3.6-.9,1-2,1.6-3.4,1.6h-2.4l18.6,18.6,19.4-19.4Z"/>
        <path class="cls-2" d="M64.7,150.3h-12.1c-1.4,0-2.6-.5-3.6-1.6-.9-1-1.3-2.3-1.3-3.6v-13.3h-3.4l-17.6,17.6,19.4,19.4,18.6-18.6Z"/>
        <path class="cls-2" d="M91.5,175.3l-5.8-5.8-9,9c5.8-.2,10.7-1.3,14.8-3.2Z"/>
        <polygon class="cls-2" points="43.6 131.8 14.4 131.8 14.4 137.1 26.3 149 43.6 131.8"/>
        <path class="cls-2" d="M12.5,84.4c1.8,11.4,7.2,19,16.2,22.7l17.1-17.1-19.4-19.4-13.8,13.8Z"/>
        <path class="cls-2" d="M59.7,37.2h9.8c1.4,0,2.5.5,3.4,1.6,1,1,1.6,2.3,1.6,3.6v18.9l10.9-10.9-19.4-19.4-6.2,6.2Z"/>
        <path class="cls-2" d="M26.7,70.2l19.4,19.4,11.9-11.9h-9c-1.4,0-2.6-.5-3.6-1.6-.9-1-1.3-2.3-1.3-3.6v-19.7l-17.4,17.4Z"/>
        <path class="cls-2" d="M125.3,169.5l-2.6,2.6c2.8,2.3,6.2,4,10.2,5.1l-7.6-7.6Z"/>
        <path class="cls-2" d="M184.4,109.8l-19.4-19.4-12.3,12.3h14.8c1.4,0,2.5.5,3.4,1.6,1,1,1.6,2.3,1.6,3.6v14l12.1-12.1Z"/>
        <path class="cls-2" d="M65.9,30.2l19.4-19.4-5.4-5.4c-1.7-.2-3.4-.3-5.3-.3h-22.6l-5.6,5.6,19.4,19.4Z"/>
        <polygon class="cls-2" points="184.7 30.2 199.1 15.9 199.1 7.8 168.3 7.8 165.3 10.8 184.7 30.2"/>
        <path class="cls-2" d="M26.7,30.6l17.4,17.4v-5.6c0-1.4.4-2.6,1.3-3.6,1-1,2.3-1.6,3.6-1.6h10l6.6-6.6-19.4-19.4-19.4,19.4Z"/>
        <polygon class="cls-2" points="11.8 45.5 11.8 55.3 26.3 69.8 44.1 52.1 44.1 48.7 26.3 31 11.8 45.5"/>
        <path class="cls-2" d="M147.4,146.8c-.2-.6-.3-1.1-.3-1.8v-13.3h-19.2l17.2,17.2,2.2-2.2Z"/>
        <path class="cls-2" d="M127.2,131.8h-3.7l-11,11v1.5c0,4.9.5,9.4,1.5,13.2l11.3,11.3,19.4-19.4-17.6-17.6Z"/>
        <path class="cls-2" d="M203.9,90.3c0-.3-.2-.6-.3-.8l-16.9-16.9c-1-.3-2-.6-3.1-.8l-18.3,18.3,19.4,19.4,19.2-19.2Z"/>
      </g>
    </g>
  </g>
</svg>