<?xml version="1.0" encoding="UTF-8"?>
<svg id="Layer_2" xmlns="http://www.w3.org/2000/svg" viewBox="0 0 255.12 255.12">
  <defs>
    <style>
      .cls-1 {
        fill: none;
      }

      .cls-2 {
        fill: #8e8e93;
      }
    </style>
  </defs>
  <g id="Layer_1-2" data-name="Layer_1">
    <path class="cls-2" d="M126.05,20.99c-45.31,0-82.04,36.73-82.04,82.04s36.73,82.04,82.04,82.04,82.04-36.73,82.04-82.04S171.36,20.99,126.05,20.99ZM114.32,75.63l-1.12-7.99c-.24-1.68.93-3.23,2.61-3.47,1.68-.24,3.23.93,3.47,2.61l1.12,7.99c.24,1.68-.93,3.23-2.61,3.47-1.68.24-3.23-.93-3.47-2.61ZM125.56,96.89c-3.2.3-6.12-3.06-6.54-7.49-.41-4.44,1.84-8.28,5.04-8.57s6.12,3.06,6.54,7.49-1.84,8.28-5.04,8.57ZM128.93,76.67h0c-1.68.24-3.23-.93-3.47-2.61l-1.12-7.99c-.24-1.68.93-3.23,2.61-3.47s3.23.93,3.47,2.61l1.12,7.99c.24,1.68-.93,3.23-2.61,3.47Z"/>
    <rect class="cls-1" width="255.12" height="255.12"/>
  </g>
</svg>