<?xml version="1.0" encoding="UTF-8"?>
<svg xmlns="http://www.w3.org/2000/svg" version="1.1" viewBox="0 0 263 180">
  <defs>
    <style>
      .cls-1 {
        fill: none;
      }

      .cls-2 {
        fill: #c59f7b;
      }
    </style>
  </defs>
  <!-- Generator: Adobe Illustrator 28.7.1, SVG Export Plug-In . SVG Version: 1.2.0 Build 142)  -->
  <g>
    <g id="Layer_1">
      <rect class="cls-1" x=".5" width="262" height="180"/>
      <path class="cls-2" d="M250.4,8.6h5l-19.6,32.4h-5l19.6-32.4ZM233.1,25.1h-1.2c-4.1,0-6.2-2.2-6.2-6.6v-3.8c0-4.4,2.1-6.6,6.2-6.6h1.2c4.1,0,6.2,2.2,6.2,6.6v3.8c0,4.4-2.1,6.6-6.2,6.6ZM230.8,21c0,.3,0,.5.2.7.2.2.4.3.7.3h1.6c.3,0,.5-.1.6-.3.2-.2.3-.4.3-.7v-8.8c0-.3-.1-.5-.3-.7-.2-.2-.4-.3-.6-.3h-1.6c-.3,0-.5.1-.7.3-.2.2-.2.4-.2.7v8.8ZM254.1,24.5c4.1,0,6.2,2.2,6.2,6.6v3.8c0,4.4-2.1,6.6-6.2,6.6h-1.2c-4.1,0-6.2-2.2-6.2-6.6v-3.8c0-4.4,2.1-6.6,6.2-6.6h1.2ZM255.3,37.4v-8.8c0-.3-.1-.5-.3-.7-.2-.2-.4-.3-.7-.3h-1.5c-.3,0-.5.1-.7.3-.2.2-.2.4-.2.7v8.8c0,.3,0,.5.2.7.2.2.4.3.7.3h1.5c.3,0,.5-.1.7-.3.2-.2.3-.4.3-.7Z"/>
      <g>
        <path class="cls-2" d="M125.3,50l19.4-19.4-19.4-19.4-9.6,9.6c-2.1,4.5-3.2,9.9-3.4,16.4l13,13Z"/>
        <path class="cls-2" d="M86.1,50.4l19.4,19.4,1.9-1.9v-28.5c0-2.5-.1-4.9-.4-7.1l-1.5-1.5-19.4,19.4Z"/>
        <path class="cls-2" d="M106.9,31.6c0-.6-.2-1.2-.3-1.8l-.7.7,1,1Z"/>
        <path class="cls-2" d="M73.9,62.6v13.3c0,.6-.1,1.1-.3,1.6l12.2,12.2,19.4-19.4-19.4-19.4-11.9,11.9Z"/>
        <path class="cls-2" d="M46.1,89.6l8.5-8.5h-6.6c-3.5,0-6.7.3-9.6.9l7.6,7.6Z"/>
        <path class="cls-2" d="M164.9,11.2l-19.4,19.4,6.6,6.6h18c1.4,0,2.5.5,3.4,1.6.5.5.9,1.1,1.2,1.7l9.8-9.8-19.4-19.4Z"/>
        <path class="cls-2" d="M125.3,10.4l1.6-1.6c-.7.4-1.4.7-2,1.2l.4.4Z"/>
        <path class="cls-2" d="M144.6,5.2c-6.4,0-11.8,1-16.3,3l-2.6,2.6,19.4,19.4,19.4-19.4-5.6-5.6h-14.4Z"/>
        <polygon class="cls-2" points="49.2 126.9 46.5 129.6 49.2 132.3 49.2 126.9"/>
        <path class="cls-2" d="M49.2,126.2v-8c0-1.4.4-2.6,1.3-3.6,1-1,2.3-1.6,3.6-1.6h8.2l3.3-3.3-19.4-19.4-19.4,19.4,19.4,19.4,3-3Z"/>
        <polygon class="cls-2" points="105.3 150 86.1 169.2 92.9 176 105.3 176 105.3 150"/>
        <path class="cls-2" d="M118,162.2c1.4,3.3,3.2,6.1,5.6,8.4l1.4-1.4-7-7Z"/>
        <polygon class="cls-2" points="114.9 131.8 114.9 139.7 122.8 131.8 114.9 131.8"/>
        <polygon class="cls-2" points="92.2 176 85.7 169.5 79.3 176 92.2 176"/>
        <polygon class="cls-2" points="105.2 149.4 101.9 146.1 69.6 146.1 66.3 149.4 85.7 168.8 105.2 149.4"/>
        <path class="cls-2" d="M125,50.4l-12.6-12.6c0,.6,0,1.2,0,1.7v23.6l12.7-12.7Z"/>
        <polygon class="cls-2" points="68.9 146.1 63 146.1 65.9 149 68.9 146.1"/>
        <polygon class="cls-2" points="207.5 47.8 204.9 50.4 207.5 53 207.5 47.8"/>
        <path class="cls-2" d="M144.6,70.4v-.5l-19.2-19.2-13,13v11.6c0,.4,0,.8,0,1.3l13,13,19.2-19.2Z"/>
        <path class="cls-2" d="M17.6,101.4c-1.1,4.1-1.7,8.7-1.7,14v4.5l10.1-10.1-8.4-8.4Z"/>
        <path class="cls-2" d="M45.8,90l-7.9-7.9c-10.4,2.3-17.1,8.6-20.2,18.7l8.6,8.6,19.4-19.4Z"/>
        <path class="cls-2" d="M185.1,30.6l19.4,19.4,2.9-2.9v-7.6c0-10.6-2.3-18.7-6.9-24.4l-15.5,15.5Z"/>
        <path class="cls-2" d="M26,30.6l-8.9-8.9c-2,4.9-3,10.8-3,17.8v3l11.9-11.9Z"/>
        <polygon class="cls-2" points="85.4 50.4 73.9 38.9 73.9 61.9 85.4 50.4"/>
        <path class="cls-2" d="M184.7,30.2l15.5-15.5c-5.4-6.4-13.7-9.5-25-9.5h-4.3l-5.6,5.6,19.4,19.4Z"/>
        <polygon class="cls-2" points="65.9 149.7 46.5 169.2 53.3 176 78.6 176 85.4 169.2 65.9 149.7"/>
        <path class="cls-2" d="M117.8,97.9c5.2,7.9,14.1,11.8,26.7,11.8h.1l-19.3-19.3-7.5,7.5Z"/>
        <polygon class="cls-2" points="105.9 70.2 107.4 71.7 107.4 68.7 105.9 70.2"/>
        <path class="cls-2" d="M66.3,109.8l3.3,3.3h5.6c10.9,0,19.1-3,24.4-8.9l-13.9-13.9-19.4,19.4Z"/>
        <path class="cls-2" d="M125,10.8l-.5-.5c-3.4,2.3-6,5.3-8,9l8.5-8.5Z"/>
        <path class="cls-2" d="M112.4,77.4c.2,8.3,2,15,5.2,20.1l7.4-7.4-12.6-12.6Z"/>
        <polygon class="cls-2" points="68.9 113.1 65.9 110.2 63 113.1 68.9 113.1"/>
        <polygon class="cls-2" points="105.3 148.8 105.3 146.1 102.6 146.1 105.3 148.8"/>
        <path class="cls-2" d="M86.1,90l13.8,13.8c5-5.7,7.5-14.1,7.5-25.1v-6.4l-1.9-1.9-19.4,19.4Z"/>
        <path class="cls-2" d="M65.9,109.4l19.4-19.4-12-12c-.3.6-.6,1.1-1.1,1.5-.9,1-2,1.6-3.4,1.6h-13.5l-8.9,8.9,19.4,19.4Z"/>
        <path class="cls-2" d="M125.7,50.4l18.9,18.9v-26.9c0-1.4.4-2.6,1.3-3.6,1-1,2.3-1.6,3.6-1.6h1.8l-6.2-6.2-19.4,19.4Z"/>
        <polygon class="cls-2" points="14.1 43.2 14.1 52 44.2 52 45.8 50.4 26.3 31 14.1 43.2"/>
        <polygon class="cls-2" points="46.1 169.5 39.7 176 52.6 176 46.1 169.5"/>
        <polygon class="cls-2" points="26.3 149.7 15.9 160.2 15.9 176 39 176 45.8 169.2 26.3 149.7"/>
        <path class="cls-2" d="M145.1,149.7l-19.4,19.4,7.2,7.2c4.1,1.5,8.8,2.2,14.3,2.2h8l9.4-9.4-19.4-19.4Z"/>
        <polygon class="cls-2" points="164.9 169.5 155.9 178.6 174 178.6 164.9 169.5"/>
        <polygon class="cls-2" points="207.5 87.4 204.9 90 207.5 92.6 207.5 87.4"/>
        <path class="cls-2" d="M26.7,30.6l19.4,19.4,2.5-2.5v-8.8c0-1.4.4-2.6,1.3-3.6,1-1,2.3-1.6,3.6-1.6h9.1l2.9-2.9-19.4-19.4-19.4,19.4Z"/>
        <polygon class="cls-2" points="207.5 86.7 207.5 53.7 204.5 50.8 185.1 70.2 204.5 89.6 207.5 86.7"/>
        <path class="cls-2" d="M65.9,30.2l19.4-19.4-5.4-5.4c-1.5-.1-3.2-.2-4.8-.2h-23l-5.6,5.6,19.4,19.4Z"/>
        <path class="cls-2" d="M207.5,132.9l-2.9-2.9-19.4,19.4,17.1,17.1c3.5-5.5,5.3-12.9,5.3-22.2v-11.4Z"/>
        <path class="cls-2" d="M201.9,166.9l-17.1-17.1-19.4,19.4,9.4,9.4h.5c12.5,0,21.4-3.9,26.6-11.7Z"/>
        <path class="cls-2" d="M17.3,21.2l9,9,19.4-19.4-5.3-5.3c-11.4,1.3-19.2,6.5-23.2,15.7Z"/>
        <polygon class="cls-2" points="204.9 129.6 207.5 132.2 207.5 127 204.9 129.6"/>
        <path class="cls-2" d="M175,140v5.1c0,1.4-.5,2.6-1.6,3.6-.9,1-2,1.6-3.4,1.6h-16.9c-1.4,0-2.6-.5-3.6-1.6-.6-.7-.9-1.4-1.1-2.2l-2.9,2.9,19.4,19.4,19.4-19.4-9.4-9.4Z"/>
        <path class="cls-2" d="M46.1,10.4l5.3-5.3h-5.1c-1.8,0-3.5,0-5.2.2l5,5Z"/>
        <polygon class="cls-2" points="204.2 129.6 184.7 110.2 175 119.9 175 139.3 184.7 149 204.2 129.6"/>
        <polygon class="cls-2" points="207.5 126.3 207.5 93.3 204.5 90.4 185.1 109.8 204.5 129.2 207.5 126.3"/>
        <polygon class="cls-2" points="65.6 149.4 62.3 146.1 49.2 146.1 49.2 133 46.1 130 26.7 149.4 46.1 168.8 65.6 149.4"/>
        <path class="cls-2" d="M105.5,30.2l1-1c-2-11.2-7.7-18.4-17.1-21.8l-3.4,3.4,19.4,19.4Z"/>
        <polygon class="cls-2" points="48.1 52 48.6 52 48.6 48.3 46.5 50.4 48.1 52"/>
        <path class="cls-2" d="M69.3,33.6c1.2,0,2.3.6,3,1.5.9.9,1.4,1.9,1.5,3l11.9,11.9,19.4-19.4-19.4-19.4-19.4,19.4,3,3Z"/>
        <polygon class="cls-2" points="63.4 33.5 68.5 33.5 65.9 31 63.4 33.5"/>
        <path class="cls-2" d="M85.7,10.4l3.2-3.2c-2.5-.9-5.2-1.4-8.2-1.8l5,5Z"/>
        <path class="cls-2" d="M184.4,70.2l-9.4-9.4v11.7c0,1.4-.5,2.6-1.6,3.6-.9,1-2,1.6-3.4,1.6h-17l11.9,11.9,19.4-19.4Z"/>
        <path class="cls-2" d="M204.2,50.4l-19.4-19.4-10,10c.1.5.2.9.2,1.4v17.7l9.8,9.8,19.4-19.4Z"/>
        <polygon class="cls-2" points="164.9 10.4 170.2 5.2 159.7 5.2 164.9 10.4"/>
        <polygon class="cls-2" points="45.8 129.6 26.3 110.2 15.9 120.6 15.9 138.6 26.3 149 45.8 129.6"/>
        <path class="cls-2" d="M125.3,169.5l-1.4,1.4c2.2,2.1,4.8,3.8,7.8,5l-6.4-6.4Z"/>
        <polygon class="cls-2" points="44.9 52 47.4 52 46.1 50.8 44.9 52"/>
        <path class="cls-2" d="M127.2,131.8h-3.7l-8.6,8.6v3.9c0,6.5.9,12.1,2.6,16.8l7.8,7.8,19.4-19.4-17.6-17.6Z"/>
        <path class="cls-2" d="M184.4,109.8l-19.4-19.4-19.3,19.3h12c6.9,0,12.7-1.1,17.4-3.4v12.9l9.4-9.4Z"/>
        <path class="cls-2" d="M148.3,145.9c0-.3,0-.6,0-.9v-13.3h-20.3l17.2,17.2,3.1-3.1Z"/>
        <rect class="cls-2" x="171" y="76.2" width="27.5" height="27.5" transform="translate(-9.5 157) rotate(-45)"/>
        <path class="cls-2" d="M152.3,77.7h-2.8c-1.4,0-2.6-.5-3.6-1.6-.9-1-1.3-2.3-1.3-3.6v-1.4l-18.9,18.9,19.4,19.4,19.4-19.4-12.3-12.3Z"/>
        <polygon class="cls-2" points="26 149.4 15.9 139.3 15.9 159.5 26 149.4"/>
      </g>
    </g>
  </g>
</svg>