<?xml version="1.0" encoding="UTF-8"?>
<svg xmlns="http://www.w3.org/2000/svg" version="1.1" viewBox="0 0 267 180">
  <defs>
    <style>
      .cls-1 {
        fill: none;
      }

      .cls-2 {
        fill: #c59f7b;
      }
    </style>
  </defs>
  <!-- Generator: Adobe Illustrator 28.7.1, SVG Export Plug-In . SVG Version: 1.2.0 Build 142)  -->
  <g>
    <g id="Layer_1">
      <rect class="cls-1" x=".5" width="266" height="180"/>
      <path class="cls-2" d="M254.4,8.6h5l-19.6,32.4h-5l19.6-32.4ZM237.1,25.1h-1.2c-4.1,0-6.2-2.2-6.2-6.6v-3.8c0-4.4,2.1-6.6,6.2-6.6h1.2c4.1,0,6.2,2.2,6.2,6.6v3.8c0,4.4-2.1,6.6-6.2,6.6ZM234.8,21c0,.3,0,.5.2.7.2.2.4.3.7.3h1.6c.3,0,.5-.1.6-.3.2-.2.3-.4.3-.7v-8.8c0-.3-.1-.5-.3-.7-.2-.2-.4-.3-.6-.3h-1.6c-.3,0-.5.1-.7.3-.2.2-.2.4-.2.7v8.8ZM258.1,24.5c4.1,0,6.2,2.2,6.2,6.6v3.8c0,4.4-2.1,6.6-6.2,6.6h-1.2c-4.1,0-6.2-2.2-6.2-6.6v-3.8c0-4.4,2.1-6.6,6.2-6.6h1.2ZM259.3,37.4v-8.8c0-.3,0-.5-.3-.7-.2-.2-.4-.3-.6-.3h-1.6c-.3,0-.5.1-.7.3-.2.2-.3.4-.3.7v8.8c0,.3,0,.5.3.7.2.2.4.3.7.3h1.6c.3,0,.5-.1.6-.3.2-.2.3-.4.3-.7Z"/>
      <g>
        <path class="cls-2" d="M89.7,52h18.3v-12.5c0-3-.2-5.8-.6-8.4l-19.3,19.3,1.6,1.6Z"/>
        <path class="cls-2" d="M64.6,106.1h6.8l16.1-16.1-15.9-15.9h-6.1c-.3,0-.6,0-1,0l-15.9,15.9,16.1,16.1Z"/>
        <polygon class="cls-2" points="86.5 52 89 52 87.7 50.8 86.5 52"/>
        <path class="cls-2" d="M149.1,67.9v-29.2c0-1.4.4-2.6,1.3-3.6.2-.2.3-.3.5-.4l-3.7-3.7-19.4,19.4,19.4,19.4,1.9-1.9Z"/>
        <polygon class="cls-2" points="149.1 68.6 147.5 70.2 149.1 71.8 149.1 68.6"/>
        <path class="cls-2" d="M28.7,109.8l19.2,19.2v-17.8c0-1.4.4-2.6,1.3-3.6,1-1,2.3-1.6,3.6-1.6h11l-15.7-15.7-19.4,19.4Z"/>
        <path class="cls-2" d="M147.5,30.6l3.8,3.8c.8-.6,1.7-.8,2.8-.8h16.9c1.4,0,2.5.5,3.4,1.6,1,1,1.6,2.3,1.6,3.6v2.4l10.5-10.5-19.4-19.4-19.4,19.4Z"/>
        <path class="cls-2" d="M148.8,5.2c-8.8,0-15.8,1.9-21,5.7l19.3,19.3,19.4-19.4-5.6-5.6h-12.2Z"/>
        <polygon class="cls-2" points="186.7 31 175.8 41.9 175.8 52 204.6 52 206.2 50.4 186.7 31"/>
        <path class="cls-2" d="M110.6,113.2l-3.1-3.1-19.4,19.4,19.4,19.4,3-3c0-.6,0-1.1,0-1.7v-31.1Z"/>
        <polygon class="cls-2" points="70.4 146.6 65.5 146.6 67.9 149 70.4 146.6"/>
        <polygon class="cls-2" points="146.8 109.8 127.3 90.4 116.6 101.1 116.6 118.5 127.3 129.2 146.8 109.8"/>
        <path class="cls-2" d="M166.6,90l-14-14c-1.3.4-2.4.9-3.6,1.4v-5l-1.9-1.9-19.4,19.4,19.4,19.4,19.4-19.4Z"/>
        <polygon class="cls-2" points="116.6 119.2 116.6 140 127 129.6 116.6 119.2"/>
        <path class="cls-2" d="M107.2,149.4l-19.4-19.4-9.4,9.4v2.1c0,1.4-.5,2.6-1.6,3.6-.9,1-2,1.6-3.4,1.6h-2.4l-2.8,2.8,19.4,19.4,19.4-19.4Z"/>
        <path class="cls-2" d="M107.9,149.4l2.3,2.3c.2-1.6.3-3.2.4-4.9l-2.7,2.7Z"/>
        <path class="cls-2" d="M94,175.8l-6.3-6.3-9,9c5.9,0,11.1-.9,15.3-2.7Z"/>
        <path class="cls-2" d="M88.1,169.2l6.4,6.4c8.8-3.9,14-11.7,15.6-23.3l-2.6-2.6-19.4,19.4Z"/>
        <path class="cls-2" d="M187.1,30.6l19.4,19.4,2.6-2.6v-8c0-10.5-2.3-18.5-6.7-24.2l-15.3,15.3Z"/>
        <path class="cls-2" d="M119.4,161.6c1.4,3.6,3.4,6.7,6,9.2l1.6-1.6-7.6-7.6Z"/>
        <path class="cls-2" d="M186.7,30.2l15.3-15.3c-5.4-6.5-13.7-9.7-25.2-9.7h-4l-5.6,5.6,19.4,19.4Z"/>
        <path class="cls-2" d="M182.4,74.2c-1,0-1.9,0-2.9,0h-13c-5,0-9.5.6-13.3,1.8l13.8,13.8,15.5-15.5Z"/>
        <path class="cls-2" d="M74.6,37.6c0,.4.1.7.1,1.1v13.3h11.1l1.6-1.6-12.8-12.8Z"/>
        <path class="cls-2" d="M15.4,136.8v7.4c0,5.9.7,11.1,2.2,15.5l10.4-10.4-12.5-12.5Z"/>
        <path class="cls-2" d="M28,30.6l-9.3-9.3c-2.1,4.9-3.2,11-3.2,18.2v3.6l12.5-12.5Z"/>
        <polygon class="cls-2" points="67.9 149.7 48.5 169.2 57.9 178.6 78 178.6 87.4 169.2 67.9 149.7"/>
        <path class="cls-2" d="M98.3,79.1c-5.1-3.3-11.7-5-19.9-5h-6.2l15.6,15.6,10.5-10.5Z"/>
        <path class="cls-2" d="M110.6,112.5v-4.1c0-.4,0-.9,0-1.3l-2.7,2.7,2.7,2.7Z"/>
        <polygon class="cls-2" points="127 50.4 116.6 40 116.6 60.8 127 50.4"/>
        <path class="cls-2" d="M116.6,39.3l10.8,10.8,19.4-19.4-19.4-19.4c-.3.2-.5.4-.8.6l-2.9,2.9c-4.7,5.7-7.1,13.8-7.2,24.5Z"/>
        <polygon class="cls-2" points="116.6 79.6 116.6 100.4 127 90 116.6 79.6"/>
        <polygon class="cls-2" points="146.8 70.2 127.3 50.8 116.6 61.5 116.6 78.9 127.3 89.6 146.8 70.2"/>
        <path class="cls-2" d="M98.7,79.4l-10.6,10.6,19.4,19.4,3-3c-.4-12.8-4.3-21.8-11.9-27Z"/>
        <path class="cls-2" d="M107.2,109.8l-19.4-19.4-15.7,15.7h1.4c1.4,0,2.5.5,3.4,1.6,1,1,1.6,2.3,1.6,3.6v8.6l9.4,9.4,19.4-19.4Z"/>
        <polygon class="cls-2" points="87.4 129.6 78.4 120.6 78.4 138.6 87.4 129.6"/>
        <path class="cls-2" d="M87.7,10.4l2.8-2.8c-2.3-.9-4.9-1.5-7.6-1.9l4.8,4.8Z"/>
        <path class="cls-2" d="M57.2,178.6l-9.1-9.1-8.4,8.4c2.5.4,5.1.6,8,.6h9.5Z"/>
        <polygon class="cls-2" points="166.9 169.5 157.9 178.6 176 178.6 166.9 169.5"/>
        <path class="cls-2" d="M147.1,149.7l-19.4,19.4,7.4,7.4c3.9,1.3,8.5,2,13.7,2h8.4l9.4-9.4-19.4-19.4Z"/>
        <polygon class="cls-2" points="28 70.2 15.4 57.7 15.4 82.7 28 70.2"/>
        <path class="cls-2" d="M28.3,149.7l-10.5,10.5c3.4,9.8,10.5,15.7,21.3,17.6l8.7-8.7-19.4-19.4Z"/>
        <path class="cls-2" d="M67.9,30.2l19.4-19.4-5.2-5.2c-2-.3-4.1-.4-6.4-.4h-21.6l-5.6,5.6,19.4,19.4Z"/>
        <path class="cls-2" d="M207.9,88.9l-1.1,1.1,2.5,2.5c-.4-1.3-.9-2.4-1.5-3.6Z"/>
        <polygon class="cls-2" points="15.4 43.9 15.4 56.9 28.3 69.8 47.8 50.4 28.3 31 15.4 43.9"/>
        <path class="cls-2" d="M28.7,30.6l19.2,19.2v-11.1c0-1.4.4-2.6,1.3-3.6,1-1,2.3-1.6,3.6-1.6h11.8l2.9-2.9-19.4-19.4-19.4,19.4Z"/>
        <path class="cls-2" d="M205.2,168.2l-18.5-18.5-19.4,19.4,9.4,9.4h2.8c11.8,0,20.4-3.5,25.7-10.4Z"/>
        <path class="cls-2" d="M179.4,142.4c-.2,1-.7,1.9-1.5,2.7-.9,1-2,1.6-3.4,1.6h-20.5c-1,0-2-.3-2.8-.9l-3.7,3.7,19.4,19.4,19.4-19.4-7-7Z"/>
        <path class="cls-2" d="M18.9,20.8l9.5,9.5,19.4-19.4-5.4-5.4c-11.6,1.1-19.4,6.3-23.5,15.3Z"/>
        <polygon class="cls-2" points="206.9 129.6 211.7 134.4 211.7 124.8 206.9 129.6"/>
        <path class="cls-2" d="M211.7,135.1l-5.2-5.2-19.4,19.4,18.4,18.4c4.1-5.6,6.2-13.5,6.2-23.5v-9.1Z"/>
        <path class="cls-2" d="M206.2,129.6l-19.4-19.4-7.3,7.3v24c0,.1,0,.2,0,.3l7.3,7.3,19.4-19.4Z"/>
        <path class="cls-2" d="M43.1,5.4l5.1,5.1,5.3-5.3h-5.7c-1.6,0-3.1,0-4.6.2Z"/>
        <path class="cls-2" d="M211.7,124.1v-15.7c0-5.6-.7-10.6-2-14.8l-3.2-3.2-19.4,19.4,19.4,19.4,5.2-5.2Z"/>
        <path class="cls-2" d="M127.3,130l-10.8,10.8v3.5c0,6.3.8,11.6,2.4,16.2l8.4,8.4,19.4-19.4-19.4-19.4Z"/>
        <path class="cls-2" d="M65.4,33.5h4.4c.3,0,.5,0,.8,0l-2.6-2.6-2.6,2.6Z"/>
        <path class="cls-2" d="M28.7,70.2l19.4,19.4,15.5-15.5c-6.2.2-11.4,1.3-15.7,3.3v-26.5l-19.2,19.2Z"/>
        <path class="cls-2" d="M71.6,33.9c.6.3,1.1.7,1.6,1.2.4.4.8.9,1,1.4l13.6,13.6,19.4-19.4-19.4-19.4-19.4,19.4,3.3,3.3Z"/>
        <polygon class="cls-2" points="15.4 83.5 15.4 96.5 28.3 109.4 47.8 90 28.3 70.6 15.4 83.5"/>
        <polygon class="cls-2" points="15.4 97.3 15.4 122.3 28 109.8 15.4 97.3"/>
        <path class="cls-2" d="M107.3,30c-1.9-11.2-7.2-18.6-16.2-22.2l-3,3,19.2,19.2Z"/>
        <polygon class="cls-2" points="206.9 50.4 208.5 52 209.1 52 209.1 48.2 206.9 50.4"/>
        <polygon class="cls-2" points="166.9 10.4 172.2 5.2 161.7 5.2 166.9 10.4"/>
        <path class="cls-2" d="M150.8,145.4c-.1-.1-.3-.2-.4-.3-.9-1-1.3-2.3-1.3-3.6v-29.4l-1.9-1.9-19.4,19.4,19.4,19.4,3.6-3.6Z"/>
        <path class="cls-2" d="M186.4,109.8l-19.4-19.4-19.4,19.4,1.6,1.6h0c0-1.5.4-2.7,1.3-3.7,1-1,2.3-1.6,3.6-1.6h20.5c1.4,0,2.5.5,3.4,1.6,1,1,1.6,2.3,1.6,3.6v5.4l6.9-6.9Z"/>
        <path class="cls-2" d="M206.2,90l-14.3-14.3c-2.7-.8-5.6-1.3-8.8-1.5l-15.8,15.8,19.4,19.4,19.4-19.4Z"/>
        <path class="cls-2" d="M207.7,88.5c-3.1-6.1-8.1-10.3-14.8-12.5l13.6,13.6,1.2-1.2Z"/>
        <polygon class="cls-2" points="206.5 50.8 205.3 52 207.8 52 206.5 50.8"/>
        <path class="cls-2" d="M67.6,149.4l-2.8-2.8h-11.9c-1.4,0-2.6-.5-3.6-1.6-.9-1-1.3-2.3-1.3-3.6v-11.3l-19.2,19.2,19.4,19.4,19.4-19.4Z"/>
        <path class="cls-2" d="M127.3,169.5l-1.6,1.6c2.3,2.1,5,3.8,8.2,5l-6.6-6.6Z"/>
        <polygon class="cls-2" points="47.8 129.6 28.3 110.2 15.4 123.1 15.4 136.1 28.3 149 47.8 129.6"/>
      </g>
    </g>
  </g>
</svg>