<?xml version="1.0" encoding="UTF-8"?>
<svg id="Layer_2" xmlns="http://www.w3.org/2000/svg" viewBox="0 0 255.12 255.12">
  <defs>
    <style>
      .cls-1 {
        fill: none;
      }
    </style>
  </defs>
  <g id="Layer_1-2" data-name="Layer_1">
    <rect class="cls-1" width="255.12" height="255.12"/>
    <g>
      <path d="M42.16,100.09c-.33,0-.66-.13-.9-.39-.46-.5-.44-1.28.06-1.74l4.15-3.89c.45-.42,1.13-.45,1.61-.06l4.51,3.61c.53.43.62,1.2.19,1.73-.43.53-1.21.62-1.73.19l-3.68-2.95-3.37,3.16c-.24.22-.54.33-.84.33Z"/>
      <path d="M42.56,114.5c-.25,0-.49-.07-.71-.23-.56-.39-.69-1.16-.3-1.72l3.28-4.65c.35-.5,1.01-.67,1.57-.39l5.15,2.63c.61.31.85,1.05.54,1.66-.31.61-1.05.85-1.66.54l-4.2-2.14-2.67,3.78c-.24.34-.62.52-1.01.52Z"/>
      <path d="M45.36,127.23c-.17,0-.33-.03-.5-.1-.62-.27-.91-1-.63-1.63l2.29-5.21c.25-.56.87-.87,1.46-.69l5.57,1.55c.66.18,1.04.86.86,1.52-.18.66-.85,1.04-1.52.86l-4.54-1.26-1.86,4.23c-.2.46-.65.74-1.13.74Z"/>
      <path d="M49.95,139.2c-.12,0-.23-.02-.35-.05-.65-.2-1.02-.88-.83-1.53l1.62-5.46c.18-.59.74-.97,1.36-.87l5.72.84c.67.1,1.14.73,1.04,1.4-.1.67-.7,1.14-1.4,1.04l-4.66-.69-1.32,4.43c-.16.53-.65.88-1.18.88Z"/>
      <path d="M212.6,100.09c-.3,0-.6-.11-.84-.33l-3.37-3.16-3.68,2.95c-.52.42-1.3.34-1.73-.19-.42-.53-.34-1.31.19-1.73l4.51-3.61c.48-.38,1.17-.35,1.61.06l4.15,3.89c.5.47.52,1.25.06,1.74-.24.26-.57.39-.9.39Z"/>
      <path d="M212.2,114.5c-.39,0-.77-.18-1.01-.52l-2.67-3.78-4.2,2.14c-.6.31-1.35.07-1.66-.54-.31-.61-.07-1.35.54-1.66l5.15-2.63c.55-.28,1.22-.11,1.57.39l3.28,4.65c.39.56.26,1.33-.3,1.72-.22.15-.46.23-.71.23Z"/>
      <path d="M209.4,127.23c-.47,0-.92-.27-1.13-.74l-1.86-4.23-4.54,1.26c-.67.18-1.34-.2-1.52-.86-.18-.65.2-1.33.86-1.52l5.57-1.55c.59-.16,1.21.13,1.46.69l2.29,5.21c.27.62,0,1.35-.63,1.63-.16.07-.33.1-.5.1Z"/>
      <path d="M204.81,139.2c-.53,0-1.02-.35-1.18-.88l-1.32-4.43-4.66.69c-.69.1-1.3-.37-1.4-1.04-.1-.67.37-1.3,1.04-1.4l5.72-.84c.64-.1,1.19.28,1.36.87l1.62,5.46c.19.65-.18,1.34-.83,1.53-.12.03-.24.05-.35.05Z"/>
      <path d="M239.41,103.98c-10.38-28.25-35.43-51.02-35.68-51.25-.11-.1-.23-.16-.36-.21-13.64-23.22-40.42-42.48-75.95-42.48-.02,0-.03,0-.04,0-.01,0-.02,0-.04,0-35.75,0-62.63,19.51-76.2,42.93-2.57,2.38-25.59,24.23-35.44,51.02-7.57,20.58-1.89,44.47,13.5,56.79,7.24,5.79,15.72,8.71,25.31,8.71,3.26,0,6.64-.34,10.15-1.01.36-.07.72-.11,1.05-.12,4.78-.12,7.69-.54,9.5-1.03l-13.93,62.03c-2.38,2.1-8.52,7.94-7.59,11.59.22.87.91,1.99,3.12,2.45l32.95,1.53,11.53.14s.16.01.37.01c.99,0,3.76-.2,6.06-2.32,2.18-2.01,3.29-5.09,3.29-9.04l6.12-51.58c.02-.21-.02-.4-.09-.58,3.69.48,7.19.73,10.33.73,0,0,0,0,0,0,2.59,0,5.4-.16,8.37-.48,0,.07-.03.14-.02.21l6.12,51.55c.01,4.08,1.12,7.17,3.3,9.18,2.31,2.13,5.1,2.32,6.02,2.32.19,0,.3,0,.31,0l11.66-.15,33.11-1.56c2.02-.44,2.7-1.56,2.93-2.42.93-3.65-5.23-9.5-7.6-11.59l-15.01-61.57c-.02-.07-.06-.13-.09-.2.5-.32.99-.67,1.48-1,1.32.74,4.3,1.6,11.44,1.78.34,0,.69.05,1.05.12,3.51.67,6.89,1.01,10.15,1.01,9.59,0,18.08-2.91,25.32-8.71,15.39-12.32,21.07-36.21,13.5-56.79ZM114.68,181.86l-6.13,51.72c0,3.35-.85,5.83-2.48,7.35-1.98,1.84-4.55,1.68-4.66,1.68l-11.57-.14-32.7-1.5c-.63-.14-.98-.35-1.05-.63-.4-1.57,3.36-6.12,7.13-9.38.2-.17.34-.4.4-.66l14.16-63.06c12.04,7.9,25.53,12.24,37.17,14.04-.13.17-.23.36-.26.59ZM189.27,230.31c.06.25.2.47.39.64,3.77,3.26,7.53,7.81,7.12,9.38-.07.28-.43.49-.85.6l-32.86,1.53-11.69.15s-2.6.16-4.59-1.69c-1.63-1.52-2.47-3.99-2.49-7.49l-6.13-51.69c0-.08-.05-.15-.07-.22,11.18-1.52,24.26-5.41,36.2-12.61l14.97,61.4ZM224.35,158.82c-9.1,7.28-20.34,9.7-33.43,7.2-.5-.09-.99-.15-1.46-.16-6.06-.15-9.92-.94-10.47-1.59-1.19-1.87-1.42-3.46-.73-5.18.49-1.21,3.14-2.92,4.87-3.75l.17-.08,2.36-2.21c.85-.79,1.53-1.73,2.02-2.78.61-1.3,1.65-2.38,2.93-3.05l3.59-1.86,6.64-3.18c.62-.3.89-1.04.59-1.67s-1.05-.89-1.67-.59l-6.67,3.2-3.63,1.88c-1.76.91-3.2,2.41-4.04,4.2-.36.76-.85,1.44-1.47,2.01l-2.08,1.95c-1,.49-4.98,2.58-5.94,4.99-.87,2.17-.73,4.32.41,6.53-16.36,11-35.68,15.14-48.97,15.14h0c-13.23,0-32.41-4.09-48.72-14.96,1.24-2.28,1.41-4.48.52-6.71-.96-2.4-4.94-4.5-5.94-4.99l-2.08-1.94c-.62-.58-1.11-1.25-1.47-2.01-.85-1.8-2.28-3.29-4.04-4.2l-3.66-1.9-6.64-3.18c-.62-.3-1.37-.04-1.67.59-.3.62-.04,1.37.59,1.67l6.6,3.17,3.63,1.88c1.28.66,2.32,1.74,2.93,3.04.49,1.05,1.17,1.98,2.02,2.78l2.36,2.21.17.08c1.73.83,4.39,2.53,4.87,3.75.69,1.71.46,3.31-.72,5.17-.55.67-4.41,1.45-10.48,1.6-.47.01-.96.07-1.46.16-13.09,2.51-24.33.09-33.43-7.2-14.58-11.67-19.93-34.37-12.72-53.98,7.16-19.47,21.46-36.31,29.39-44.66-2.4,5.34-4.14,10.8-5.14,16.2-.12.67.32,1.31.99,1.44.08.01.15.02.23.02.58,0,1.1-.42,1.21-1.01,1.37-7.45,4.19-15.01,8.29-22.21.01,0,.03-.03.04-.03.21-.19.32-.43.37-.68,13.21-22.61,39.28-41.41,73.91-41.41h.08c45.98,0,76.88,33.14,82.61,64.33.11.59.63,1.01,1.21,1.01.07,0,.15,0,.23-.02.67-.13,1.11-.77.99-1.44-1.04-5.65-2.89-11.35-5.47-16.93,7.76,8.07,22.71,25.33,30.08,45.38,7.21,19.61,1.86,42.31-12.72,53.98Z"/>
    </g>
  </g>
</svg>