<?xml version="1.0" encoding="UTF-8"?>
<svg id="Layer_2" xmlns="http://www.w3.org/2000/svg" viewBox="0 0 311.81 311.81">
  <defs>
    <style>
      .cls-1 {
        fill: none;
      }

      .cls-2 {
        fill: #231f20;
      }

      .cls-3 {
        fill: #8e8e93;
      }

      .cls-4 {
        fill: #fff;
      }
    </style>
  </defs>
  <g id="Layer_1-2" data-name="Layer_1">
    <path class="cls-4" d="M239.3,87.74c-.28-.47-.64-.88-1.07-1.21-11.04-23.79-38.96-51.11-82.21-51.14l-.43-.02-.08.02c-43.09.15-70.91,27.39-81.93,51.14-.43.33-.79.74-1.07,1.21-.4.68-39.41,68.31-20.74,124.41,1.07,3.22,2.88,6,5.24,8.01,3.12,2.68,6.89,4.08,11.21,4.15h.28c2.36,0,4.82-.52,7.09-1.51,1.26-.55,4.43-1.73,7.19-1.1,1.31.53,6.25,2.21,10.96-.13.44-.22.87-.47,1.27-.74l-7.92,35.28c-6.11,5.56-8.72,10.24-7.78,13.92.35,1.39,1.53,3.84,5.42,4.65l.23.05,33.18,1.54,11.55.14c.86.05,5.07.13,8.58-3.1,2.75-2.53,4.22-6.35,4.26-11.06l5.48-46.22c4.77.45,9.29.49,13.91.17l5.45,45.92c.05,4.86,1.48,8.63,4.27,11.2,3.05,2.81,6.65,3.11,8.06,3.11.17,0,.32,0,.45-.01l11.56-.15,33.21-1.56.49-.06c2.71-.58,4.6-2.27,5.2-4.61.94-3.69-1.69-8.39-7.82-13.95l-9.51-38.99c1.2,1.99,2.79,3.49,4.78,4.48,4.66,2.31,9.5.7,10.77.2,2.93-.7,6.12.48,7.38,1.04,2.28.99,4.73,1.51,7.09,1.51h.28c4.33-.08,8.1-1.48,11.22-4.16,2.35-2.03,4.16-4.8,5.23-8.01,18.63-55.99-20.35-123.73-20.74-124.41ZM100.61,195.98l-.43,1.94c-.05-.78-.09-1.59-.13-2.43.19.17.38.33.57.49ZM211.02,206.45c-.03.35-.06.7-.07,1.04l-2.29-9.4c1.06-.84,2.1-1.71,3.12-2.6-.25,5.07-.59,9.09-.76,10.96Z"/>
    <g>
      <circle class="cls-3" cx="155.91" cy="131.38" r="82.04"/>
      <path d="M130.19,273.43c-.21,0-.34,0-.37-.01l-11.53-.14-32.95-1.53c-2.22-.46-2.9-1.58-3.12-2.45-.93-3.64,5.21-9.49,7.59-11.59l14.25-63.45c.15-.66.8-1.07,1.47-.93.66.15,1.08.81.93,1.47l-14.34,63.85c-.06.26-.2.49-.4.66-3.77,3.26-7.53,7.81-7.13,9.38.07.28.43.49,1.05.63l32.7,1.5,11.57.14c.11,0,2.68.16,4.66-1.68,1.63-1.52,2.47-3.99,2.48-7.35l6.13-51.72c.08-.68.72-1.18,1.37-1.08.68.08,1.16.69,1.08,1.37l-6.12,51.58c0,3.94-1.11,7.03-3.29,9.04-2.3,2.11-5.07,2.32-6.05,2.32Z"/>
      <path d="M179.7,273.43c-.93,0-3.71-.2-6.02-2.32-2.18-2.01-3.29-5.09-3.3-9.18l-6.12-51.55c-.08-.67.4-1.29,1.08-1.37.68-.1,1.29.4,1.37,1.08l6.13,51.69c.02,3.49.85,5.97,2.49,7.49,1.98,1.84,4.56,1.7,4.59,1.69l11.69-.15,32.86-1.53c.43-.11.78-.32.85-.6.4-1.57-3.36-6.12-7.12-9.38-.19-.17-.33-.39-.39-.64l-15.1-61.95c-.16-.66.24-1.33.91-1.49.66-.16,1.33.25,1.49.91l15.01,61.57c2.37,2.09,8.53,7.94,7.6,11.59-.22.87-.91,1.99-2.93,2.42l-33.11,1.56-11.66.15s-.12,0-.31,0Z"/>
      <path d="M70.68,128.44c-.33,0-.66-.13-.9-.39-.46-.5-.44-1.28.06-1.74l4.15-3.89c.45-.42,1.13-.45,1.61-.06l4.51,3.61c.53.43.62,1.2.19,1.73-.43.53-1.21.62-1.73.19l-3.68-2.95-3.37,3.16c-.24.22-.54.33-.84.33Z"/>
      <path d="M71.09,142.85c-.25,0-.49-.07-.71-.23-.56-.39-.69-1.16-.3-1.72l3.28-4.65c.35-.5,1.01-.67,1.57-.39l5.15,2.63c.61.31.85,1.05.54,1.66-.31.61-1.05.85-1.66.54l-4.2-2.14-2.67,3.78c-.24.34-.62.52-1.01.52Z"/>
      <path d="M73.88,155.57c-.17,0-.33-.03-.5-.1-.62-.27-.91-1-.63-1.63l2.29-5.21c.25-.56.87-.87,1.46-.69l5.57,1.55c.66.18,1.04.86.86,1.52-.18.66-.85,1.04-1.52.86l-4.54-1.26-1.86,4.23c-.2.46-.65.74-1.13.74Z"/>
      <path d="M78.47,167.54c-.12,0-.23-.02-.35-.05-.65-.2-1.02-.88-.83-1.53l1.62-5.46c.18-.59.74-.97,1.36-.87l5.72.84c.67.1,1.14.73,1.04,1.4-.1.67-.7,1.14-1.4,1.04l-4.66-.69-1.32,4.43c-.16.53-.65.88-1.18.88Z"/>
      <path d="M241.13,128.44c-.3,0-.6-.11-.84-.33l-3.37-3.16-3.68,2.95c-.52.42-1.3.34-1.73-.19-.42-.53-.34-1.31.19-1.73l4.51-3.61c.48-.38,1.17-.35,1.61.06l4.15,3.89c.5.47.52,1.25.06,1.74-.24.26-.57.39-.9.39Z"/>
      <path d="M240.72,142.85c-.39,0-.77-.18-1.01-.52l-2.67-3.78-4.2,2.14c-.6.31-1.35.07-1.66-.54-.31-.61-.07-1.35.54-1.66l5.15-2.63c.55-.28,1.22-.11,1.57.39l3.28,4.65c.39.56.26,1.33-.3,1.72-.22.15-.46.23-.71.23Z"/>
      <path d="M237.93,155.57c-.47,0-.92-.27-1.13-.74l-1.86-4.23-4.54,1.26c-.67.18-1.34-.2-1.52-.86-.18-.65.2-1.33.86-1.52l5.57-1.55c.59-.16,1.21.13,1.46.69l2.29,5.21c.27.62,0,1.35-.63,1.63-.16.07-.33.1-.5.1Z"/>
      <path d="M233.34,167.54c-.53,0-1.02-.35-1.18-.88l-1.32-4.43-4.66.69c-.69.1-1.3-.37-1.4-1.04-.1-.67.37-1.3,1.04-1.4l5.72-.84c.64-.1,1.19.28,1.36.87l1.62,5.46c.19.65-.18,1.34-.83,1.53-.12.03-.24.05-.35.05Z"/>
      <path class="cls-2" d="M68.51,221.31c-.08,0-.15,0-.23,0-3.61-.06-6.74-1.22-9.31-3.43-1.94-1.67-3.44-3.98-4.35-6.69-18.17-54.6,20.1-121.28,20.49-121.95.34-.59,1.1-.79,1.69-.44.59.34.79,1.1.44,1.69-.38.66-38.09,66.4-20.27,119.92.76,2.29,2.01,4.22,3.61,5.6,2.12,1.83,4.73,2.78,7.74,2.83,1.68.07,3.44-.34,5.1-1.06,2.24-.98,6.67-2.44,11.13-1.26.22.08,3.81,1.62,6.78.14,1.84-.92,3.12-2.86,3.81-5.77.28-1.18.35-2.52.22-3.96-.79-8.67-2.97-37.94,2.36-50.44.27-.62.99-.92,1.62-.65.63.27.92.99.65,1.62-5.24,12.27-2.73,43.17-2.17,49.24.16,1.71.07,3.31-.27,4.75-.86,3.66-2.58,6.16-5.12,7.42-4.01,1.99-8.49.05-8.68-.04-3.55-.92-7.38.35-9.33,1.2-1.91.83-3.94,1.27-5.9,1.27Z"/>
      <path class="cls-2" d="M155.91,210.64c-16.78,0-42.9-6.39-61.29-24.41-.49-.48-.5-1.26-.02-1.74.48-.49,1.26-.49,1.74-.02,17.86,17.5,43.25,23.7,59.56,23.7.68,0,1.23.55,1.23,1.23s-.55,1.23-1.23,1.23Z"/>
      <path class="cls-2" d="M72.04,106.19c-.07,0-.15,0-.23-.02-.67-.13-1.11-.77-.99-1.44,5.91-32.17,37.72-66.35,85.04-66.35.73.03,1.27.54,1.27,1.23s-.55,1.23-1.23,1.23h-.04c-45.98,0-76.88,33.14-82.61,64.33-.11.59-.63,1.01-1.21,1.01Z"/>
      <path class="cls-2" d="M243.31,221.31c-1.95,0-3.99-.44-5.9-1.26-1.95-.85-5.79-2.13-9.52-1.14,0,.02-4.49,1.96-8.49-.03-2.54-1.26-4.26-3.76-5.12-7.42-.34-1.44-.43-3.04-.27-4.75.56-6.07,3.06-36.97-2.17-49.24-.27-.63.02-1.35.65-1.62.63-.27,1.35.03,1.62.65,5.33,12.5,3.16,41.77,2.36,50.44-.13,1.44-.06,2.77.22,3.96.69,2.92,1.97,4.86,3.82,5.78,2.99,1.48,6.54-.07,6.58-.08,4.64-1.24,9.07.22,11.32,1.2,1.66.72,3.41,1.12,5.1,1.06,3.02-.05,5.62-1,7.74-2.83,1.6-1.38,2.85-3.32,3.61-5.6,17.81-53.53-19.89-119.27-20.27-119.92-.34-.59-.14-1.34.44-1.69.59-.35,1.34-.15,1.69.44.39.67,38.65,67.35,20.49,121.95-.9,2.71-2.41,5.02-4.35,6.69-2.57,2.21-5.7,3.37-9.31,3.43-.08,0-.15,0-.23,0Z"/>
      <path class="cls-2" d="M155.91,210.64c-.68,0-1.23-.55-1.23-1.23s.55-1.23,1.23-1.23c16.31,0,41.7-6.21,59.56-23.7.49-.47,1.27-.47,1.74.02s.47,1.27-.02,1.74c-18.39,18.02-44.51,24.41-61.29,24.41Z"/>
      <path class="cls-2" d="M239.77,106.19c-.58,0-1.1-.42-1.21-1.01-5.73-31.19-36.63-64.33-82.61-64.33h-.04c-.68,0-1.23-.55-1.23-1.23s.59-1.26,1.27-1.23c47.32,0,79.13,34.18,85.04,66.35.12.67-.32,1.31-.99,1.44-.08.01-.15.02-.23.02Z"/>
      <g>
        <path class="cls-4" d="M166.78,121.15c.53-1.21-.36-2.56-1.68-2.56h-10.35s-.15,0-.15,0h-10.35c-1.32,0-2.2,1.35-1.68,2.56,1.25,2.86,4.39,7.1,12.03,7.16h0s.05,0,.08,0c.03,0,.05,0,.08,0h0c7.64-.07,10.78-4.3,12.03-7.16Z"/>
        <rect class="cls-4" x="142.09" y="104.32" width="14.21" height="6.14" rx="3.07" ry="3.07" transform="translate(41.8 256.59) rotate(-90)"/>
        <rect class="cls-4" x="153.04" y="104.32" width="14.21" height="6.14" rx="3.07" ry="3.07" transform="translate(52.75 267.54) rotate(-90)"/>
      </g>
    </g>
    <rect class="cls-1" width="311.81" height="311.81"/>
  </g>
</svg>