<?xml version="1.0" encoding="UTF-8"?>
<svg xmlns="http://www.w3.org/2000/svg" version="1.1" viewBox="0 0 261 180">
  <defs>
    <style>
      .cls-1 {
        fill: none;
      }

      .cls-2 {
        fill: #c59f7b;
      }
    </style>
  </defs>
  <!-- Generator: Adobe Illustrator 28.7.1, SVG Export Plug-In . SVG Version: 1.2.0 Build 142)  -->
  <g>
    <g id="Layer_1">
      <rect class="cls-1" x=".5" width="260" height="180"/>
      <path class="cls-2" d="M248.4,8.6h5l-19.6,32.4h-5l19.6-32.4ZM231.1,25.1h-1.2c-4.1,0-6.2-2.2-6.2-6.6v-3.8c0-4.4,2.1-6.6,6.2-6.6h1.2c4.1,0,6.2,2.2,6.2,6.6v3.8c0,4.4-2.1,6.6-6.2,6.6ZM228.8,21c0,.3,0,.5.2.7.2.2.4.3.7.3h1.6c.3,0,.5-.1.6-.3.2-.2.3-.4.3-.7v-8.8c0-.3-.1-.5-.3-.7-.2-.2-.4-.3-.6-.3h-1.6c-.3,0-.5.1-.7.3-.2.2-.2.4-.2.7v8.8ZM252.1,24.5c4.1,0,6.2,2.2,6.2,6.6v3.8c0,4.4-2.1,6.6-6.2,6.6h-1.2c-4.1,0-6.2-2.2-6.2-6.6v-3.8c0-4.4,2.1-6.6,6.2-6.6h1.2ZM253.3,37.4v-8.8c0-.3-.1-.5-.3-.7-.2-.2-.4-.3-.7-.3h-1.5c-.3,0-.5.1-.7.3-.2.2-.2.4-.2.7v8.8c0,.3,0,.5.2.7.2.2.4.3.7.3h1.5c.3,0,.5-.1.7-.3.2-.2.3-.4.3-.7Z"/>
      <g>
        <path class="cls-2" d="M85.1,50.4l19.4,19.4,1.4-1.4c.2-2.1.3-4.3.3-6.6v-22.4c0-2.6-.1-5-.4-7.3l-1.3-1.3-19.4,19.4Z"/>
        <path class="cls-2" d="M105.7,31.4c0-.5-.1-1-.2-1.4l-.6.6.8.8Z"/>
        <path class="cls-2" d="M74,61.5v10c0,1.4-.5,2.6-1.6,3.6-.4.4-.8.7-1.2,1l13.5,13.5,19.4-19.4-19.4-19.4-10.7,10.7Z"/>
        <path class="cls-2" d="M124.3,50l19.4-19.4-19.4-19.4-7.1,7.1c-3,5.1-4.6,11.8-4.7,20l11.8,11.8Z"/>
        <path class="cls-2" d="M183.4,30.6l-19.4-19.4-19.4,19.4,3.4,3.4c.6-.3,1.3-.5,2.1-.5h17.4c1.4,0,2.5.5,3.4,1.6,1,1,1.6,2.3,1.6,3.6v2.9l11.1-11.1Z"/>
        <polygon class="cls-2" points="150.3 76.7 142.2 76.7 142.2 104.8 148.8 104.8 163.6 90 150.3 76.7"/>
        <path class="cls-2" d="M106.7,108l-1.8,1.8,2.5,2.5c-.2-1.5-.4-2.9-.7-4.3Z"/>
        <polygon class="cls-2" points="44.8 90 43.8 89 43.8 91 44.8 90"/>
        <polygon class="cls-2" points="74 60.8 84.4 50.4 74 40 74 60.8"/>
        <path class="cls-2" d="M107.8,119.3c0-2.2-.1-4.2-.3-6.2l-2.9-2.9-19.4,19.4,19.4,19.4,3.2-3.2c0-.5,0-1,0-1.5v-25Z"/>
        <path class="cls-2" d="M104.9,149.4l2.5,2.5c.2-1.7.4-3.5.4-5.3l-2.9,2.9Z"/>
        <polygon class="cls-2" points="111 130.5 111 142.6 123.1 130.5 111 130.5"/>
        <path class="cls-2" d="M91.1,175.9l-6.4-6.4-9,9c6,0,11.1-.9,15.4-2.7Z"/>
        <polygon class="cls-2" points="43.8 88.3 45.1 89.6 58.1 76.7 43.8 76.7 43.8 88.3"/>
        <path class="cls-2" d="M104.2,149.4l-19.4-19.4-9.2,9.2v6.7c0,1.4-.5,2.6-1.6,3.6-.9,1-2,1.6-3.4,1.6h-3.7l17.8,17.8,19.4-19.4Z"/>
        <path class="cls-2" d="M124.7,50.4l5,5h15.4v-16.6c0-1.4.4-2.6,1.3-3.6.3-.3.7-.6,1.1-.8l-3.3-3.3-19.4,19.4Z"/>
        <path class="cls-2" d="M105.6,70.9c0-.5.2-1.1.2-1.7l-.9.9.7.7Z"/>
        <path class="cls-2" d="M124,10.8h0c-2.1,1.5-3.9,3.3-5.4,5.4l5.4-5.4Z"/>
        <path class="cls-2" d="M184.1,30.6l19.4,19.4,1-1v-9.5c0-9.9-2-17.7-6.1-23.3l-14.4,14.4Z"/>
        <path class="cls-2" d="M112.5,157.7c1.6,6.1,4.5,10.9,8.6,14.3l2.8-2.8-11.5-11.5Z"/>
        <path class="cls-2" d="M85.1,169.2l6.5,6.5c8.9-3.9,14.1-11.6,15.7-23.2l-2.7-2.7-19.4,19.4Z"/>
        <path class="cls-2" d="M183.7,30.2l14.5-14.5c-5.3-7.1-13.9-10.6-25.9-10.6h-2.4l-5.6,5.6,19.4,19.4Z"/>
        <path class="cls-2" d="M12.6,137v7.2c0,5.9.7,11,2.1,15.3l10.2-10.2-12.4-12.4Z"/>
        <path class="cls-2" d="M25,30.6l-8.1-8.1c-1.8,4.7-2.7,10.4-2.7,17v1.9l10.8-10.8Z"/>
        <polygon class="cls-2" points="124.3 50.8 119.7 55.4 128.9 55.4 124.3 50.8"/>
        <polygon class="cls-2" points="66.2 151 63.7 151 45.5 169.2 54.9 178.6 75 178.6 84.4 169.2 66.2 151"/>
        <path class="cls-2" d="M104.2,109.8l-19.4-19.4-14.4,14.4h.3c1.4,0,2.5.5,3.4,1.6,1,1,1.6,2.3,1.6,3.6v10.1l9.2,9.2,19.4-19.4Z"/>
        <path class="cls-2" d="M106.6,107.4c-1.8-7.7-5.4-13.6-11-17.5,5.3-3.9,8.6-10,9.9-18.4l-1-1-19.4,19.4,19.4,19.4,2-2Z"/>
        <path class="cls-2" d="M144.1,30.2l19.4-19.4-5.6-5.6h-13.2c-7.6,0-13.8,1.4-18.7,4.3l-1.4,1.4,19.4,19.4Z"/>
        <path class="cls-2" d="M112.5,38.9c0,.2,0,.4,0,.6v15.9h6.5l5-5-11.5-11.5Z"/>
        <path class="cls-2" d="M60.3,104.8h9.4l14.8-14.8-13.6-13.6c-.5.2-1.1.3-1.7.3h-10.2l-13.3,13.3,14.8,14.8Z"/>
        <polygon class="cls-2" points="43.8 91.7 43.8 104.8 59.6 104.8 45.1 90.4 43.8 91.7"/>
        <polygon class="cls-2" points="75.6 120.8 75.6 138.4 84.4 129.6 75.6 120.8"/>
        <polygon class="cls-2" points="62.4 33.5 67.5 33.5 64.9 31 62.4 33.5"/>
        <path class="cls-2" d="M173.9,139.9v6c0,1.4-.5,2.6-1.6,3.6-.9,1-2,1.6-3.4,1.6h-20.5c-1.4,0-2.6-.5-3.6-1.6,0,0,0-.1-.1-.2h-.1c0,.1,19.4,19.6,19.4,19.6l19.4-19.4-9.5-9.5Z"/>
        <path class="cls-2" d="M54.2,178.6l-9.1-9.1-8.4,8.4c2.5.4,5.2.6,8.1.6h9.3Z"/>
        <path class="cls-2" d="M25.3,149.7l-10.4,10.4c3.4,9.8,10.4,15.7,21.2,17.7l8.7-8.7-19.4-19.4Z"/>
        <polygon class="cls-2" points="163.9 169.5 154.9 178.6 173 178.6 163.9 169.5"/>
        <path class="cls-2" d="M144.1,149.7l-19.4,19.4,8.4,8.4c3.1.7,6.4,1,10.1,1h11l9.4-9.4-19.4-19.4Z"/>
        <path class="cls-2" d="M64.9,30.2l19.4-19.4-5.4-5.4c-1.6-.2-3.3-.2-5-.2h-22.9l-5.6,5.6,19.4,19.4Z"/>
        <polygon class="cls-2" points="14.2 42.1 14.2 55.4 39.8 55.4 44.8 50.4 25.3 31 14.2 42.1"/>
        <path class="cls-2" d="M25.7,30.6l19.4,19.4,1.6-1.6v-9.8c0-1.4.4-2.6,1.3-3.6,1-1,2.3-1.6,3.6-1.6h10l2.9-2.9-19.4-19.4-19.4,19.4Z"/>
        <path class="cls-2" d="M45.1,10.4l5.3-5.3h-4c-2.2,0-4.2.1-6.2.4l4.9,4.9Z"/>
        <path class="cls-2" d="M206.1,132.5l-2.6-2.6-19.4,19.4,16.9,16.9c3.4-5.5,5.2-12.8,5.2-22v-11.7Z"/>
        <path class="cls-2" d="M200.7,166.7l-16.9-16.9-19.4,19.4,9.4,9.4h.2c12.7,0,21.6-4,26.8-11.9Z"/>
        <polygon class="cls-2" points="203.9 129.6 206.1 131.8 206.1 127.4 203.9 129.6"/>
        <path class="cls-2" d="M198.8,94.4c-1.4-1.7-3-3.2-4.9-4.5,1.8-1.3,3.3-2.8,4.6-4.6l-14.8-14.8-19.4,19.4,19.4,19.4,15-15Z"/>
        <path class="cls-2" d="M183.4,70.2l-11.1-11.1v12.3c0,1.4-.5,2.6-1.6,3.6-.9,1-2,1.6-3.4,1.6h-16.4l13,13,19.4-19.4Z"/>
        <path class="cls-2" d="M17.1,22l8.2,8.2,19.4-19.4-5.2-5.2c-11.2,1.5-18.7,7-22.5,16.4Z"/>
        <polygon class="cls-2" points="203.2 129.6 183.7 110.2 173.9 120 173.9 139.2 183.7 149 203.2 129.6"/>
        <path class="cls-2" d="M206.1,126.7v-7.3c0-10.5-2.3-18.7-7-24.5l-15,15,19.4,19.4,2.6-2.6Z"/>
        <polygon class="cls-2" points="163.9 10.4 169.2 5.2 158.7 5.2 163.9 10.4"/>
        <path class="cls-2" d="M104.5,30.2l.9-.9c-2-11.2-7.7-18.5-17-21.9l-3.3,3.3,19.4,19.4Z"/>
        <path class="cls-2" d="M84.7,10.4l3.2-3.2c-2.5-.9-5.2-1.5-8.1-1.8l5,5Z"/>
        <polygon class="cls-2" points="203.9 50.4 204.6 51.1 204.6 49.7 203.9 50.4"/>
        <path class="cls-2" d="M68.2,33.5h.8c1.4,0,2.5.5,3.4,1.6,1,1,1.6,2.3,1.6,3.6v.6l10.7,10.7,19.4-19.4-19.4-19.4-19.4,19.4,2.9,2.9Z"/>
        <polygon class="cls-2" points="203.2 50.4 183.7 31 172.3 42.4 172.3 58.4 183.7 69.8 203.2 50.4"/>
        <path class="cls-2" d="M204.6,61.9v-10.1l-1-1-19.4,19.4,14.7,14.7c3.8-5.4,5.8-13.1,5.8-23Z"/>
        <polygon class="cls-2" points="40.5 55.4 46.7 55.4 46.7 52.3 45.1 50.8 40.5 55.4"/>
        <path class="cls-2" d="M124.9,130.5h-1.1l-12.8,12.8v.9c0,4.6.5,8.8,1.3,12.5l12,12,19.4-19.4-18.9-18.9Z"/>
        <path class="cls-2" d="M124.3,169.5l-2.8,2.8c2.9,2.3,6.5,4,10.6,5l-7.8-7.8Z"/>
        <path class="cls-2" d="M144.3,148.9c-.6-.9-.9-1.9-.9-3v-15.3h-17.9l18.5,18.5.2-.2Z"/>
        <path class="cls-2" d="M183.4,109.8l-19.4-19.4-14.4,14.4h19.4c1.4,0,2.5.5,3.4,1.6,1,1,1.6,2.3,1.6,3.6v9.3l9.5-9.5Z"/>
        <polygon class="cls-2" points="46.7 51.6 46.7 49.2 45.5 50.4 46.7 51.6"/>
        <polygon class="cls-2" points="43.9 130.5 12.6 130.5 12.6 136.3 25.3 149 43.9 130.5"/>
        <path class="cls-2" d="M62.9,151h-12.9c-1.4,0-2.6-.5-3.6-1.6-.9-1-1.3-2.3-1.3-3.6v-15.3h-.5l-18.9,18.9,19.4,19.4,17.8-17.8Z"/>
      </g>
    </g>
  </g>
</svg>