<?xml version="1.0" encoding="UTF-8"?>
<svg xmlns="http://www.w3.org/2000/svg" version="1.1" viewBox="0 0 263 180">
  <defs>
    <style>
      .cls-1 {
        fill: none;
      }

      .cls-2 {
        fill: #c59f7b;
      }
    </style>
  </defs>
  <!-- Generator: Adobe Illustrator 28.7.1, SVG Export Plug-In . SVG Version: 1.2.0 Build 142)  -->
  <g>
    <g id="Layer_1">
      <rect class="cls-1" x=".5" width="262" height="180"/>
      <path class="cls-2" d="M250.4,8.6h5l-19.6,32.4h-5l19.6-32.4ZM233.1,25.1h-1.2c-4.1,0-6.2-2.2-6.2-6.6v-3.8c0-4.4,2.1-6.6,6.2-6.6h1.2c4.1,0,6.2,2.2,6.2,6.6v3.8c0,4.4-2.1,6.6-6.2,6.6ZM230.8,21c0,.3,0,.5.2.7.2.2.4.3.7.3h1.6c.3,0,.5-.1.6-.3.2-.2.3-.4.3-.7v-8.8c0-.3-.1-.5-.3-.7-.2-.2-.4-.3-.6-.3h-1.6c-.3,0-.5.1-.7.3-.2.2-.2.4-.2.7v8.8ZM254.1,24.5c4.1,0,6.2,2.2,6.2,6.6v3.8c0,4.4-2.1,6.6-6.2,6.6h-1.2c-4.1,0-6.2-2.2-6.2-6.6v-3.8c0-4.4,2.1-6.6,6.2-6.6h1.2ZM255.3,37.4v-8.8c0-.3-.1-.5-.3-.7-.2-.2-.4-.3-.7-.3h-1.5c-.3,0-.5.1-.7.3-.2.2-.2.4-.2.7v8.8c0,.3,0,.5.2.7.2.2.4.3.7.3h1.5c.3,0,.5-.1.7-.3.2-.2.3-.4.3-.7Z"/>
      <g>
        <polygon class="cls-2" points="125.3 10.4 128 7.8 122.7 7.8 125.3 10.4"/>
        <polygon class="cls-2" points="128.7 7.8 125.7 10.8 145.1 30.2 164.6 10.8 161.6 7.8 128.7 7.8"/>
        <polygon class="cls-2" points="110.7 25.1 125 10.8 122 7.8 110.7 7.8 110.7 25.1"/>
        <polygon class="cls-2" points="145.5 30.6 150.5 35.6 179.4 35.6 184.4 30.6 164.9 11.2 145.5 30.6"/>
        <path class="cls-2" d="M145.6,69.4c-.1,0-.2-.2-.3-.3-.9-1-1.3-2.3-1.3-3.6v-29.9h5.8l-4.6-4.6-19.4,19.4,19.4,19.4.4-.4Z"/>
        <polygon class="cls-2" points="180.1 35.6 189.4 35.6 184.7 31 180.1 35.6"/>
        <path class="cls-2" d="M125.3,50.8l-14.7,14.7v2.9c0,2.5.1,4.8.4,7l14.3,14.3,19.4-19.4-19.4-19.4Z"/>
        <path class="cls-2" d="M105.5,69.8l.2-.2c.3-2.4.5-5,.5-7.8v-22.4c0-3-.2-5.8-.6-8.4h-.1c0-.1-19.4,19.3-19.4,19.3l19.4,19.4Z"/>
        <polygon class="cls-2" points="112.5 131.8 112.5 142.1 122.8 131.8 112.5 131.8"/>
        <path class="cls-2" d="M91.8,175.6l-6-6-9,9c5.9-.1,10.9-1.1,15.1-3Z"/>
        <path class="cls-2" d="M105.9,149.4l1.5,1.5c.1-1.1.2-2.2.3-3.3l-1.8,1.8Z"/>
        <path class="cls-2" d="M105.2,149.4l-19.4-19.4-10.2,10.2v5.7c0,1.4-.5,2.6-1.6,3.6-.9,1-2,1.6-3.4,1.6h-2.7l17.8,17.8,19.4-19.4Z"/>
        <path class="cls-2" d="M120.2,95.5c4.3,3.8,10,6.1,17.2,6.9l-12-12-5.1,5.1Z"/>
        <polygon class="cls-2" points="45.8 90 43.8 88 43.8 92 45.8 90"/>
        <path class="cls-2" d="M107.8,119.3c0-2.6-.1-5-.4-7.4l-1.8-1.8-19.4,19.4,19.4,19.4,2.2-2.2c0-.8,0-1.7,0-2.6v-25Z"/>
        <polygon class="cls-2" points="43.8 87.3 46.1 89.6 59.1 76.7 43.8 76.7 43.8 87.3"/>
        <path class="cls-2" d="M74,62.5v9c0,1.4-.5,2.6-1.6,3.6-.2.2-.4.4-.6.6l13.9,13.9,19.4-19.4-19.4-19.4-11.8,11.8Z"/>
        <polygon class="cls-2" points="165.3 10.8 184.7 30.2 199.1 15.9 199.1 7.8 168.3 7.8 165.3 10.8"/>
        <path class="cls-2" d="M114.3,158.5c1.6,5.6,4.3,10,8.1,13.3l2.6-2.6-10.7-10.7Z"/>
        <path class="cls-2" d="M86.1,169.2l6.2,6.2c8.7-4.1,13.7-12,15.1-23.8l-1.8-1.8-19.4,19.4Z"/>
        <polygon class="cls-2" points="85.4 50.4 74 39 74 61.8 85.4 50.4"/>
        <path class="cls-2" d="M67.2,151h-2.6l-18.2,18.2,9.4,9.4h19.6c.2,0,.3,0,.5,0l9.4-9.4-18.2-18.2Z"/>
        <path class="cls-2" d="M26,30.6l-8.8-8.8c-2,4.8-3,10.7-3,17.7v2.9l11.8-11.8Z"/>
        <path class="cls-2" d="M106.9,108.8l-1,1,1.3,1.3c-.1-.8-.2-1.5-.4-2.3Z"/>
        <path class="cls-2" d="M12.6,136v8.3c0,6.2.8,11.6,2.4,16.1l11-11-13.4-13.4Z"/>
        <path class="cls-2" d="M61.3,104.8h9.3s0,0,0,0l14.8-14.8-14-14c-.7.4-1.5.7-2.4.7h-9.2l-13.3,13.3,14.8,14.8Z"/>
        <polygon class="cls-2" points="125 50.4 110.7 36.1 110.7 64.7 125 50.4"/>
        <polygon class="cls-2" points="144.8 30.6 125.3 11.2 110.7 25.8 110.7 35.4 125.3 50 144.8 30.6"/>
        <path class="cls-2" d="M111.2,76.2c1.1,8.3,4,14.6,8.7,19l5.2-5.2-13.8-13.8Z"/>
        <path class="cls-2" d="M106.7,108.3c-1.7-8.1-5.4-14.3-11.2-18.3,5.4-4,8.8-10.4,10.1-19.3h0c0,0-19.4,19.4-19.4,19.4l19.4,19.4,1.2-1.2Z"/>
        <polygon class="cls-2" points="43.8 92.7 43.8 104.8 60.6 104.8 46.1 90.4 43.8 92.7"/>
        <polygon class="cls-2" points="75.5 119.7 75.5 139.4 85.4 129.6 75.5 119.7"/>
        <path class="cls-2" d="M105.2,109.8l-19.4-19.4-14.5,14.5c1.1.1,2,.6,2.7,1.5,1,1,1.6,2.3,1.6,3.6v9.1l10.2,10.2,19.4-19.4Z"/>
        <path class="cls-2" d="M172.3,137.3v7.7c0,1.4-.5,2.6-1.6,3.6-.9,1-2,1.6-3.4,1.6h-15.3c-1.4,0-2.6-.5-3.6-1.6-.4-.4-.6-.9-.8-1.4l-2.1,2.1,19.4,19.4,19.4-19.4-12.1-12.1Z"/>
        <path class="cls-2" d="M26.3,149.7l-11.2,11.2c3.6,9.6,10.8,15.3,21.8,17.1l8.8-8.8-19.4-19.4Z"/>
        <polygon class="cls-2" points="14.2 43.1 14.2 55.4 40.8 55.4 45.8 50.4 26.3 31 14.2 43.1"/>
        <path class="cls-2" d="M55.2,178.6l-9.1-9.1-8.6,8.6c2.3.3,4.7.5,7.3.5h10.3Z"/>
        <path class="cls-2" d="M145.1,149.7l-19.4,19.4,8.2,8.2c3.2.8,6.8,1.2,10.8,1.2h10.4l9.4-9.4-19.4-19.4Z"/>
        <path class="cls-2" d="M203.9,90.3c0-.3-.2-.6-.3-.8l-16.9-16.9c-1-.3-2-.6-3.1-.8l-18.3,18.3,19.4,19.4,19.2-19.2Z"/>
        <path class="cls-2" d="M174,178.6l-9-9-9.1,9.1h17.7c.1,0,.3,0,.4,0Z"/>
        <path class="cls-2" d="M184.4,109.8l-19.4-19.4-12.3,12.3h14.8c1.4,0,2.5.5,3.4,1.6,1,1,1.6,2.3,1.6,3.6v14l12.1-12.1Z"/>
        <path class="cls-2" d="M65.9,30.2l19.4-19.4-5.3-5.3c-1.9-.2-4-.4-6.1-.4h-21.9l-5.6,5.6,19.4,19.4Z"/>
        <path class="cls-2" d="M26.7,30.6l19.4,19.4.5-.5v-10.8c0-1.4.4-2.6,1.3-3.6,1-1,2.3-1.6,3.6-1.6h11l2.9-2.9-19.4-19.4-19.4,19.4Z"/>
        <path class="cls-2" d="M205.8,131.3l-1.3-1.3-19.4,19.4,16.1,16.1c3.1-5.4,4.7-12.5,4.7-21.2v-13Z"/>
        <polygon class="cls-2" points="204.9 129.6 205.8 130.5 205.8 128.6 204.9 129.6"/>
        <path class="cls-2" d="M200.9,165.9l-16.1-16.1-19.4,19.4,9.4,9.4c12.5-.2,21.2-4.5,26.2-12.7Z"/>
        <polygon class="cls-2" points="204.2 129.6 184.7 110.2 172.3 122.6 172.3 136.6 184.7 149 204.2 129.6"/>
        <path class="cls-2" d="M17.4,21.3l9,9,19.4-19.4-5.3-5.3c-11.4,1.3-19.1,6.6-23.1,15.8Z"/>
        <path class="cls-2" d="M205.8,127.9v-22.9c0-5.4-.6-10.1-1.8-14.2l-19,19,19.4,19.4,1.3-1.3Z"/>
        <path class="cls-2" d="M46.1,10.4l5.3-5.3h-5c-1.8,0-3.6,0-5.3.3l5,5Z"/>
        <polygon class="cls-2" points="41.5 55.4 46.7 55.4 46.7 51.3 46.1 50.8 41.5 55.4"/>
        <path class="cls-2" d="M147.4,146.8c-.2-.6-.3-1.1-.3-1.8v-13.3h-19.2l17.2,17.2,2.2-2.2Z"/>
        <polygon class="cls-2" points="164.9 10.4 167.6 7.8 162.3 7.8 164.9 10.4"/>
        <path class="cls-2" d="M85.7,10.4l2.9-2.9c-2.3-.9-4.9-1.5-7.7-1.9l4.8,4.8Z"/>
        <path class="cls-2" d="M105.5,30.2c-1.8-11.4-7.3-18.9-16.4-22.5l-3.1,3.1,19.4,19.4Z"/>
        <path class="cls-2" d="M183,71.6c-2.9-.6-6-.9-9.4-.9h-24.7c-1.1,0-2.1-.3-2.9-1l-.5.5,19.4,19.4,18.1-18.1Z"/>
        <path class="cls-2" d="M187.8,72.9l15.5,15.5c-2.8-7.7-8-12.8-15.5-15.5Z"/>
        <polygon class="cls-2" points="185.1 30.6 190.1 35.6 199.1 35.6 199.1 16.6 185.1 30.6"/>
        <path class="cls-2" d="M69.2,33.5c1.3,0,2.4.6,3.2,1.5.9.9,1.4,2,1.5,3.2l11.8,11.8,19.4-19.4-19.4-19.4-19.4,19.4,2.9,2.9Z"/>
        <path class="cls-2" d="M125.3,169.5l-2.6,2.6c2.8,2.3,6.2,4,10.2,5.1l-7.6-7.6Z"/>
        <polygon class="cls-2" points="63.4 33.5 68.5 33.5 65.9 31 63.4 33.5"/>
        <path class="cls-2" d="M63.9,151h-13.9c-1.4,0-2.6-.5-3.6-1.6-.9-1-1.3-2.3-1.3-3.6v-14.9l-18.4,18.4,19.4,19.4,17.8-17.8Z"/>
        <path class="cls-2" d="M127.2,131.8h-3.7l-11,11v1.5c0,4.9.5,9.4,1.5,13.2l11.3,11.3,19.4-19.4-17.6-17.6Z"/>
        <polygon class="cls-2" points="46.7 50.6 46.7 50.2 46.5 50.4 46.7 50.6"/>
        <path class="cls-2" d="M145.1,70.6l-19.4,19.4,12.5,12.5c1.5.1,3.1.2,4.8.2h9l12.7-12.7-19.4-19.4Z"/>
        <polygon class="cls-2" points="44.9 130.5 12.6 130.5 12.6 135.3 26.3 149 44.9 130.5"/>
      </g>
    </g>
  </g>
</svg>