<?xml version="1.0" encoding="UTF-8"?>
<svg xmlns="http://www.w3.org/2000/svg" version="1.1" viewBox="0 0 251 180">
  <defs>
    <style>
      .cls-1 {
        fill: none;
      }

      .cls-2 {
        fill: #c59f7b;
      }
    </style>
  </defs>
  <!-- Generator: Adobe Illustrator 28.7.1, SVG Export Plug-In . SVG Version: 1.2.0 Build 142)  -->
  <g>
    <g id="Layer_1">
      <rect class="cls-1" width="251" height="180"/>
      <path class="cls-2" d="M238.9,8.6h5l-19.6,32.4h-5l19.6-32.4ZM221.6,25.1h-1.2c-4.1,0-6.2-2.2-6.2-6.6v-3.8c0-4.4,2.1-6.6,6.2-6.6h1.2c4.1,0,6.2,2.2,6.2,6.6v3.8c0,4.4-2.1,6.6-6.2,6.6ZM219.3,21c0,.3,0,.5.2.7.2.2.4.3.7.3h1.6c.3,0,.5-.1.6-.3.2-.2.3-.4.3-.7v-8.8c0-.3-.1-.5-.3-.7-.2-.2-.4-.3-.6-.3h-1.6c-.3,0-.5.1-.7.3-.2.2-.2.4-.2.7v8.8ZM242.6,24.5c4.1,0,6.2,2.2,6.2,6.6v3.8c0,4.4-2.1,6.6-6.2,6.6h-1.2c-4.1,0-6.2-2.2-6.2-6.6v-3.8c0-4.4,2.1-6.6,6.2-6.6h1.2ZM243.8,37.4v-8.8c0-.3-.1-.5-.3-.7-.2-.2-.4-.3-.7-.3h-1.5c-.3,0-.5.1-.7.3-.2.2-.2.4-.2.7v8.8c0,.3,0,.5.2.7.2.2.4.3.7.3h1.5c.3,0,.5-.1.7-.3.2-.2.3-.4.3-.7Z"/>
      <g>
        <path class="cls-2" d="M80.1,50.4l19.4,19.4,6.1-6.1c0-.6,0-1.2,0-1.9v-22.4c0-.8,0-1.6,0-2.5l-6.1-6.1-19.4,19.4Z"/>
        <path class="cls-2" d="M73.4,57.1v14.4c0,1.4-.5,2.6-1.6,3.6-.9,1-2,1.6-3.4,1.6h-1.7l13,13,19.4-19.4-19.4-19.4-6.3,6.3Z"/>
        <polygon class="cls-2" points="73.4 56.3 79.4 50.4 73.4 44.5 73.4 56.3"/>
        <polygon class="cls-2" points="119.3 10.4 122 7.8 116.7 7.8 119.3 10.4"/>
        <polygon class="cls-2" points="133.8 35.6 138.8 30.6 119.3 11.2 111.2 19.3 111.2 35.6 133.8 35.6"/>
        <polygon class="cls-2" points="178.4 70.2 158.9 50.8 152.2 57.5 148 78.7 158.9 89.6 178.4 70.2"/>
        <polygon class="cls-2" points="155.6 7.8 122.7 7.8 119.7 10.8 139.1 30.2 158.6 10.8 155.6 7.8"/>
        <path class="cls-2" d="M106,156.2l-6.5-6.5-19.4,19.4,7.7,7.7c9.7-3,15.8-9.9,18.2-20.6Z"/>
        <path class="cls-2" d="M99.9,149.4l6.3,6.3c.7-3.4,1.1-7.2,1.1-11.4v-2.2l-7.3,7.3Z"/>
        <polygon class="cls-2" points="147.9 79.3 142.8 105.8 158.6 90 147.9 79.3"/>
        <polygon class="cls-2" points="44.6 130.5 41.4 130.5 44.6 133.7 44.6 130.5"/>
        <polygon class="cls-2" points="43.3 86.5 53.1 76.7 43.3 76.7 43.3 86.5"/>
        <path class="cls-2" d="M75,178.6c4.6,0,8.6-.5,12.2-1.6l-7.5-7.5-9.1,9.1h4.3Z"/>
        <path class="cls-2" d="M99.2,149.4l-19.4-19.4-4.7,4.7v11.1c0,1.4-.5,2.6-1.6,3.6-.9,1-2,1.6-3.4,1.6h-8.1l17.8,17.8,19.4-19.4Z"/>
        <path class="cls-2" d="M105.6,36.3c-.2-3.6-.6-7-1.4-10l-4.3,4.3,5.7,5.7Z"/>
        <polygon class="cls-2" points="119 10.8 116 7.8 111.2 7.8 111.2 18.6 119 10.8"/>
        <polygon class="cls-2" points="43.3 92.8 55.3 104.8 64.6 104.8 79.4 90 66.1 76.7 53.8 76.7 43.3 87.2 43.3 92.8"/>
        <path class="cls-2" d="M12.1,141.5v2.8c0,4.4.4,8.3,1.2,11.8l6.7-6.7-7.9-7.9Z"/>
        <path class="cls-2" d="M20.3,30.2l19.4-19.4-4.5-4.5c-10.3,2.4-16.9,8.8-19.9,19l4.9,4.9Z"/>
        <polygon class="cls-2" points="61.2 151 58.7 151 40.5 169.2 49.9 178.6 70 178.6 79.4 169.2 61.2 151"/>
        <polygon class="cls-2" points="54.6 104.8 43.3 93.5 43.3 104.8 54.6 104.8"/>
        <path class="cls-2" d="M59.9,30.2l19.4-19.4-5.6-5.6c-.1,0-.2,0-.3,0h-27.3l-5.6,5.6,19.4,19.4Z"/>
        <path class="cls-2" d="M99.2,109.8l-19.4-19.4-14.4,14.4h4.7c1.4,0,2.5.5,3.4,1.6,1,1,1.6,2.3,1.6,3.6v14.5l4.7,4.7,19.4-19.4Z"/>
        <path class="cls-2" d="M107.2,141.3v-22c0-.5,0-1,0-1.5l-7.7-7.7-19.4,19.4,19.4,19.4,7.7-7.7Z"/>
        <path class="cls-2" d="M99.9,109.8l7.3,7.3c-.2-4.7-.8-8.9-2-12.6l-5.3,5.3Z"/>
        <polygon class="cls-2" points="134.5 35.6 143.8 35.6 139.1 31 134.5 35.6"/>
        <path class="cls-2" d="M80.1,90l19.4,19.4,5.5-5.5c-2-6-5.3-10.7-10-14,4.5-3.3,7.5-8.2,9.2-14.7l-4.7-4.7-19.4,19.4Z"/>
        <polygon class="cls-2" points="154.4 46.2 152.3 56.7 158.6 50.4 154.4 46.2"/>
        <path class="cls-2" d="M104.3,74.6c.7-3,1.2-6.4,1.3-10.2l-5.7,5.7,4.4,4.4Z"/>
        <polygon class="cls-2" points="75 125.2 75 134 79.4 129.6 75 125.2"/>
        <path class="cls-2" d="M63.2,33.5h5.3c1.4,0,2.5.5,3.4,1.6,1,1,1.6,2.3,1.6,3.6v5l6.3,6.3,19.4-19.4-19.4-19.4-19.4,19.4,2.9,2.9Z"/>
        <path class="cls-2" d="M13.7,37.6c0,.6,0,1.2,0,1.9v15.9h21.2l5-5-19.4-19.4-6.7,6.7Z"/>
        <path class="cls-2" d="M20.3,149.7l-7,7c2.5,10.7,8.7,17.4,18.6,20.3l7.8-7.8-19.4-19.4Z"/>
        <polygon class="cls-2" points="175.2 113 176.3 107.7 158.9 90.4 142.6 106.7 141.6 111.9 158.9 129.2 175.2 113"/>
        <path class="cls-2" d="M49.2,178.6l-9.1-9.1-7.6,7.6c3.5,1,7.4,1.4,11.8,1.4h4.9Z"/>
        <polygon class="cls-2" points="175 113.9 159.3 129.6 169.6 139.9 175 113.9"/>
        <polygon class="cls-2" points="159.3 10.8 178.7 30.2 195.9 13.1 196.7 9.3 195.2 7.8 162.3 7.8 159.3 10.8"/>
        <polygon class="cls-2" points="196.8 8.7 197 7.8 195.9 7.8 196.8 8.7"/>
        <path class="cls-2" d="M20.7,30.6l19.4,19.4,6-6v-5.3c0-1.4.4-2.6,1.3-3.6,1-1,2.3-1.6,3.6-1.6h5.6l2.9-2.9-19.4-19.4-19.4,19.4Z"/>
        <path class="cls-2" d="M40.1,10.4l5.3-5.3c-3.5,0-6.6.4-9.5,1l4.3,4.3Z"/>
        <path class="cls-2" d="M20,30.6l-4.7-4.7c-.9,3.3-1.4,7-1.6,11l6.3-6.3Z"/>
        <polygon class="cls-2" points="159.3 169.2 162.8 172.7 164.7 163.8 159.3 169.2"/>
        <polygon class="cls-2" points="162.7 173.3 158.9 169.5 152.5 176 162.1 176 162.7 173.3"/>
        <polygon class="cls-2" points="139.1 149.7 133 155.9 129.1 176 151.8 176 158.6 169.2 139.1 149.7"/>
        <polygon class="cls-2" points="169.5 140.5 158.9 130 139.5 149.4 158.9 168.8 164.8 162.9 169.5 140.5"/>
        <polygon class="cls-2" points="57.4 33.5 62.5 33.5 59.9 31 57.4 33.5"/>
        <polygon class="cls-2" points="139.5 30.6 144.5 35.6 156.4 35.6 154.5 45.6 158.9 50 178.4 30.6 158.9 11.2 139.5 30.6"/>
        <polygon class="cls-2" points="156.3 7.8 158.9 10.4 161.6 7.8 156.3 7.8"/>
        <path class="cls-2" d="M99.5,30.2l4.5-4.5c-2.8-10.4-9.4-16.8-19.5-19.3l-4.4,4.4,19.4,19.4Z"/>
        <polygon class="cls-2" points="159.3 50.4 178.7 69.8 185.5 63.1 189.9 42.1 178.7 31 159.3 50.4"/>
        <polygon class="cls-2" points="158.6 129.6 141.5 112.5 135.1 145 139.1 149 158.6 129.6"/>
        <path class="cls-2" d="M79.7,10.4l4.2-4.2c-2.9-.7-6-1-9.4-1.1l5.3,5.3Z"/>
        <polygon class="cls-2" points="179.1 30.6 190 41.5 195.7 14 179.1 30.6"/>
        <polygon class="cls-2" points="179.1 70.2 183.2 74.3 185.4 63.9 179.1 70.2"/>
        <polygon class="cls-2" points="38.9 130.5 12.1 130.5 12.1 140.8 20.3 149 38.9 130.5"/>
        <path class="cls-2" d="M57.9,151h-8.4c-1.4,0-2.6-.5-3.6-1.6-.9-1-1.3-2.3-1.3-3.6v-11.5l-3.9-3.9h-1.1l-18.9,18.9,19.4,19.4,17.8-17.8Z"/>
        <polygon class="cls-2" points="135 145.6 133.2 155 138.8 149.4 135 145.6"/>
        <polygon class="cls-2" points="35.5 55.4 44.8 55.4 40.1 50.8 35.5 55.4"/>
        <polygon class="cls-2" points="45.5 55.4 46.1 55.4 46.1 44.8 40.5 50.4 45.5 55.4"/>
        <polygon class="cls-2" points="183.1 74.9 178.7 70.6 159.3 90 176.4 107.1 183.1 74.9"/>
      </g>
    </g>
  </g>
</svg>