<?xml version="1.0" encoding="UTF-8"?>
<svg xmlns="http://www.w3.org/2000/svg" version="1.1" viewBox="0 0 255 180">
  <defs>
    <style>
      .cls-1 {
        fill: none;
      }

      .cls-2 {
        fill: #c59f7b;
      }
    </style>
  </defs>
  <!-- Generator: Adobe Illustrator 28.7.1, SVG Export Plug-In . SVG Version: 1.2.0 Build 142)  -->
  <g>
    <g id="Layer_1">
      <rect class="cls-1" x=".5" width="254" height="180"/>
      <path class="cls-2" d="M242.4,8.6h5l-19.6,32.4h-5l19.6-32.4ZM225.1,25.1h-1.2c-4.1,0-6.2-2.2-6.2-6.6v-3.8c0-4.4,2.1-6.6,6.2-6.6h1.2c4.1,0,6.2,2.2,6.2,6.6v3.8c0,4.4-2.1,6.6-6.2,6.6ZM222.8,21c0,.3,0,.5.2.7.2.2.4.3.7.3h1.6c.3,0,.5-.1.6-.3.2-.2.3-.4.3-.7v-8.8c0-.3-.1-.5-.3-.7-.2-.2-.4-.3-.6-.3h-1.6c-.3,0-.5.1-.7.3-.2.2-.2.4-.2.7v8.8ZM246.1,24.5c4.1,0,6.2,2.2,6.2,6.6v3.8c0,4.4-2.1,6.6-6.2,6.6h-1.2c-4.1,0-6.2-2.2-6.2-6.6v-3.8c0-4.4,2.1-6.6,6.2-6.6h1.2ZM247.3,37.4v-8.8c0-.3-.1-.5-.3-.7-.2-.2-.4-.3-.7-.3h-1.5c-.3,0-.5.1-.7.3-.2.2-.2.4-.2.7v8.8c0,.3,0,.5.2.7.2.2.4.3.7.3h1.5c.3,0,.5-.1.7-.3.2-.2.3-.4.3-.7Z"/>
      <g>
        <polygon class="cls-2" points="88.9 57.2 92.5 40 82.1 50.4 88.9 57.2"/>
        <polygon class="cls-2" points="62.3 70.2 81.7 89.6 82.3 89.1 88.8 57.8 81.7 50.8 62.3 70.2"/>
        <polygon class="cls-2" points="103.3 28.5 121 10.8 118 7.8 103.3 7.8 103.3 28.5"/>
        <path class="cls-2" d="M103.3,72.3v3.1c0,10.9,2.5,19.2,7.4,25l10.3-10.3-17.7-17.7Z"/>
        <polygon class="cls-2" points="121.3 10.4 124 7.8 118.7 7.8 121.3 10.4"/>
        <path class="cls-2" d="M135.7,75.3c-.1-.5-.2-.9-.2-1.4v-8.9l-14.2-14.2-18.1,18.1v2.8l18.1,18.1,14.4-14.4Z"/>
        <polygon class="cls-2" points="82 90.6 81.7 90.4 62.3 109.8 75.3 122.8 82 90.6"/>
        <path class="cls-2" d="M180.4,70.2l-14.4-14.4v18.1c0,1.4-.5,2.6-1.6,3.6-.9,1-2,1.6-3.4,1.6h-10.7l10.6,10.6,19.4-19.4Z"/>
        <polygon class="cls-2" points="166 45 180.4 30.6 166 16.2 166 45"/>
        <polygon class="cls-2" points="121 50.4 103.3 32.7 103.3 68.1 121 50.4"/>
        <path class="cls-2" d="M111,100.7c5.4,6,13.5,9,24.5,9h5.2l-19.3-19.3-10.4,10.4Z"/>
        <path class="cls-2" d="M149.6,79h-9.1c-1.4,0-2.6-.5-3.6-1.6-.4-.5-.7-1.1-1-1.6l-14.2,14.2,19.4,19.4,19.4-19.4-11-11Z"/>
        <polygon class="cls-2" points="135.5 24.6 135.5 7.8 124.7 7.8 121.7 10.8 135.5 24.6"/>
        <polygon class="cls-2" points="61.6 109.8 47 95.2 40.7 127.8 42.1 129.2 61.6 109.8"/>
        <polygon class="cls-2" points="166 45.7 166 55.1 180.7 69.8 198.5 52.1 198.5 48.7 180.7 31 166 45.7"/>
        <polygon class="cls-2" points="53.4 62 49.5 82.3 61.6 70.2 53.4 62"/>
        <polygon class="cls-2" points="181.1 30.6 198.5 48 198.5 13.2 181.1 30.6"/>
        <polygon class="cls-2" points="166 174.6 166 176 167.4 176 166 174.6"/>
        <polygon class="cls-2" points="198.5 87.6 198.5 52.8 181.1 70.2 198.5 87.6"/>
        <polygon class="cls-2" points="103.3 29.2 103.3 32 121.3 50 135.5 35.9 135.5 25.3 121.3 11.2 103.3 29.2"/>
        <polygon class="cls-2" points="135.5 64.2 135.5 36.6 121.7 50.4 135.5 64.2"/>
        <polygon class="cls-2" points="41.8 129.6 40.5 128.3 39.9 131.4 41.8 129.6"/>
        <polygon class="cls-2" points="82.1 90 82.1 90 82.1 90 82.1 90"/>
        <polygon class="cls-2" points="81.4 90 61.9 70.6 49.3 83.2 47.1 94.6 61.9 109.4 81.4 90"/>
        <polygon class="cls-2" points="95.7 24.4 99.1 7.8 85.1 7.8 82.1 10.8 95.7 24.4"/>
        <polygon class="cls-2" points="13.3 21.2 22.3 30.2 41.8 10.8 38.8 7.8 13.3 7.8 13.3 21.2"/>
        <polygon class="cls-2" points="68.4 156.2 61.9 149.7 42.5 169.2 49.3 176 64.3 176 68.4 156.2"/>
        <polygon class="cls-2" points="166 135 166 163.8 180.4 149.4 166 135"/>
        <polygon class="cls-2" points="198.5 131.3 198.5 127.9 180.7 110.2 166 124.9 166 134.3 180.7 149 198.5 131.3"/>
        <polygon class="cls-2" points="42.1 169.5 35.7 176 48.6 176 42.1 169.5"/>
        <polygon class="cls-2" points="34.1 161.5 31.3 176 35 176 41.8 169.2 34.1 161.5"/>
        <polygon class="cls-2" points="17.7 35.6 27 35.6 22.3 31 17.7 35.6"/>
        <polygon class="cls-2" points="17 35.6 22 30.6 13.3 21.9 13.3 35.6 17 35.6"/>
        <polygon class="cls-2" points="42.1 10.4 44.8 7.8 39.5 7.8 42.1 10.4"/>
        <polygon class="cls-2" points="81.7 10.4 84.4 7.8 79.1 7.8 81.7 10.4"/>
        <polygon class="cls-2" points="181.1 149.4 198.5 166.8 198.5 132 181.1 149.4"/>
        <polygon class="cls-2" points="22.7 30.6 27.7 35.6 56.6 35.6 61.6 30.6 42.1 11.2 22.7 30.6"/>
        <polygon class="cls-2" points="198.5 167.5 180.7 149.7 166 164.5 166 173.9 168.1 176 193.4 176 198.5 170.9 198.5 167.5"/>
        <polygon class="cls-2" points="194.1 176 198.5 176 198.5 171.6 194.1 176"/>
        <polygon class="cls-2" points="72 139 75.2 123.4 61.9 110.2 42.5 129.6 61.9 149 72 139"/>
        <polygon class="cls-2" points="61.6 149.4 42.1 130 39.8 132.3 34.2 160.9 42.1 168.8 61.6 149.4"/>
        <polygon class="cls-2" points="71.8 139.9 62.3 149.4 68.5 155.6 71.8 139.9"/>
        <polygon class="cls-2" points="57.3 35.6 58.6 35.6 53.6 61.5 61.9 69.8 81.4 50.4 61.9 31 57.3 35.6"/>
        <polygon class="cls-2" points="81.7 50 92.6 39.2 95.6 25 81.7 11.2 62.3 30.6 81.7 50"/>
        <polygon class="cls-2" points="198.5 91.7 198.5 88.3 180.7 70.6 161.3 90 180.7 109.4 198.5 91.7"/>
        <polygon class="cls-2" points="166 15.5 180.7 30.2 198.5 12.5 198.5 9.1 197.2 7.8 166 7.8 166 15.5"/>
        <polygon class="cls-2" points="198.5 8.4 198.5 7.8 197.9 7.8 198.5 8.4"/>
        <polygon class="cls-2" points="180.4 109.8 160.9 90.4 141.6 109.7 166 109.7 166 124.2 180.4 109.8"/>
        <polygon class="cls-2" points="198.5 92.4 181.1 109.8 198.5 127.2 198.5 92.4"/>
        <polygon class="cls-2" points="61.9 30.2 81.4 10.8 78.4 7.8 45.5 7.8 42.5 10.8 61.9 30.2"/>
      </g>
    </g>
  </g>
</svg>