<?xml version="1.0" encoding="UTF-8"?>
<svg xmlns="http://www.w3.org/2000/svg" version="1.1" viewBox="0 0 255 180">
  <defs>
    <style>
      .cls-1 {
        fill: none;
      }

      .cls-2 {
        fill: #c59f7b;
      }
    </style>
  </defs>
  <!-- Generator: Adobe Illustrator 28.7.1, SVG Export Plug-In . SVG Version: 1.2.0 Build 142)  -->
  <g>
    <g id="Layer_1">
      <rect class="cls-1" x=".5" width="254" height="180"/>
      <path class="cls-2" d="M242.4,8.6h5l-19.6,32.4h-5l19.6-32.4ZM225.1,25.1h-1.2c-4.1,0-6.2-2.2-6.2-6.6v-3.8c0-4.4,2.1-6.6,6.2-6.6h1.2c4.1,0,6.2,2.2,6.2,6.6v3.8c0,4.4-2.1,6.6-6.2,6.6ZM222.8,21c0,.3,0,.5.2.7.2.2.4.3.7.3h1.6c.3,0,.5-.1.6-.3.2-.2.3-.4.3-.7v-8.8c0-.3-.1-.5-.3-.7-.2-.2-.4-.3-.6-.3h-1.6c-.3,0-.5.1-.7.3-.2.2-.2.4-.2.7v8.8ZM246.1,24.5c4.1,0,6.2,2.2,6.2,6.6v3.8c0,4.4-2.1,6.6-6.2,6.6h-1.2c-4.1,0-6.2-2.2-6.2-6.6v-3.8c0-4.4,2.1-6.6,6.2-6.6h1.2ZM247.3,37.4v-8.8c0-.3-.1-.5-.3-.7-.2-.2-.4-.3-.7-.3h-1.5c-.3,0-.5.1-.7.3-.2.2-.2.4-.2.7v8.8c0,.3,0,.5.2.7.2.2.4.3.7.3h1.5c.3,0,.5-.1.7-.3.2-.2.3-.4.3-.7Z"/>
      <g>
        <polygon class="cls-2" points="74.3 57.5 81.4 50.4 74.3 43.3 74.3 57.5"/>
        <path class="cls-2" d="M42.1,89.6l8.5-8.5h-2.1c-4.9,0-9.3.6-13.1,1.8l6.7,6.7Z"/>
        <path class="cls-2" d="M49.6,121.8v-3.5c0-1.4.4-2.6,1.3-3.6,1-1,2.3-1.6,3.6-1.6h3.8l3.3-3.3-19.4-19.4-19.4,19.4,19.4,19.4,7.5-7.5Z"/>
        <path class="cls-2" d="M74.3,58.2v17.7c0,1.4-.5,2.6-1.6,3.6-.2.2-.4.4-.6.5l9.6,9.6,19.4-19.4-19.4-19.4-7.4,7.4Z"/>
        <polygon class="cls-2" points="135.8 35.6 140.8 30.6 121.3 11.2 114.3 18.2 114.3 35.6 135.8 35.6"/>
        <path class="cls-2" d="M82.1,50.4l19.4,19.4,6.3-6.3v-24.1c0-.8,0-1.5,0-2.3l-6.3-6.3-19.4,19.4Z"/>
        <path class="cls-2" d="M107.8,36.5c-.2-3.8-.6-7.2-1.5-10.3l-4.4,4.4,5.9,5.9Z"/>
        <polygon class="cls-2" points="150.9 80.3 146.2 104.4 160.6 90 150.9 80.3"/>
        <polygon class="cls-2" points="49.6 122.5 42.5 129.6 49.6 136.7 49.6 122.5"/>
        <polygon class="cls-2" points="180.4 70.2 160.9 50.8 155.6 56.1 151 79.7 160.9 89.6 180.4 70.2"/>
        <polygon class="cls-2" points="105.8 154 101.5 149.7 82.1 169.2 88.9 176 105.8 176 105.8 154"/>
        <polygon class="cls-2" points="121.3 10.4 124 7.8 118.7 7.8 121.3 10.4"/>
        <polygon class="cls-2" points="88.2 176 81.7 169.5 75.3 176 88.2 176"/>
        <polygon class="cls-2" points="64.9 146.1 59 146.1 61.9 149 64.9 146.1"/>
        <polygon class="cls-2" points="101.2 149.4 97.9 146.1 65.6 146.1 62.3 149.4 81.7 168.8 101.2 149.4"/>
        <polygon class="cls-2" points="186 75.8 180.7 70.6 161.3 90 179.4 108.1 186 75.8"/>
        <path class="cls-2" d="M41.8,90l-6.9-6.9c-9.5,3.2-15.4,10.3-17.6,21.3l5,5,19.4-19.4Z"/>
        <path class="cls-2" d="M17.2,105c-.6,3.2-.9,6.6-.9,10.4h0c0,0,5.7-5.6,5.7-5.6l-4.8-4.8Z"/>
        <polygon class="cls-2" points="121 10.8 118 7.8 114.3 7.8 114.3 17.5 121 10.8"/>
        <polygon class="cls-2" points="105.8 153.3 105.8 146.1 105.2 146.1 101.9 149.4 105.8 153.3"/>
        <path class="cls-2" d="M61.9,109.4l19.4-19.4-9.6-9.6c-.7.5-1.5.7-2.4.7h-18l-8.9,8.9,19.4,19.4Z"/>
        <path class="cls-2" d="M22.3,30.2l19.4-19.4-4.7-4.7c-10.5,2.2-17.4,8.3-20.6,18.3l5.8,5.8Z"/>
        <polygon class="cls-2" points="61.9 149.7 42.5 169.2 49.3 176 74.6 176 81.4 169.2 61.9 149.7"/>
        <path class="cls-2" d="M62.3,109.8l3.3,3.3h10c9.5,0,16.9-2.2,22.2-6.7l-16-16-19.4,19.4Z"/>
        <polygon class="cls-2" points="136.5 35.6 145.8 35.6 141.1 31 136.5 35.6"/>
        <polygon class="cls-2" points="157.3 47.1 155.7 55.2 160.6 50.4 157.3 47.1"/>
        <polygon class="cls-2" points="104.5 146.1 98.6 146.1 101.5 149 104.5 146.1"/>
        <polygon class="cls-2" points="64.9 113.1 61.9 110.2 59 113.1 64.9 113.1"/>
        <path class="cls-2" d="M82.1,90l16.1,16.1c6.5-5.7,9.7-14.8,9.7-27.3v-1.9l-6.3-6.3-19.4,19.4Z"/>
        <polygon class="cls-2" points="107.8 76.1 107.8 64.3 101.9 70.2 107.8 76.1"/>
        <polygon class="cls-2" points="157.6 7.8 124.7 7.8 121.7 10.8 141.1 30.2 160.6 10.8 157.6 7.8"/>
        <polygon class="cls-2" points="165.6 174.3 160.9 169.5 154.5 176 165.3 176 165.6 174.3"/>
        <path class="cls-2" d="M61.9,30.2l19.4-19.4-5.6-5.6c0,0-.1,0-.2,0h-27.5l-5.6,5.6,19.4,19.4Z"/>
        <polygon class="cls-2" points="161.3 10.8 180.7 30.2 199.3 11.7 199.6 10.2 197.2 7.8 164.3 7.8 161.3 10.8"/>
        <path class="cls-2" d="M22.7,30.6l19.4,19.4,6.9-6.9v-4.4c0-1.4.4-2.6,1.3-3.6,1-1,2.3-1.6,3.6-1.6h4.7l2.9-2.9-19.4-19.4-19.4,19.4Z"/>
        <polygon class="cls-2" points="199.7 9.6 200.1 7.8 197.9 7.8 199.7 9.6"/>
        <path class="cls-2" d="M14.5,38.8c0,.2,0,.5,0,.7v12.5h25.7l1.6-1.6-19.4-19.4-7.8,7.8Z"/>
        <polygon class="cls-2" points="178.6 111.6 179.2 108.6 160.9 90.4 146 105.3 144.5 112.8 160.9 129.2 178.6 111.6"/>
        <polygon class="cls-2" points="178.4 112.4 161.3 129.6 172.6 140.9 178.4 112.4"/>
        <path class="cls-2" d="M22,30.6l-5.6-5.6c-1.1,3.8-1.8,8.2-1.9,13.1l7.5-7.5Z"/>
        <polygon class="cls-2" points="160.6 129.6 144.4 113.4 138.1 146 141.1 149 160.6 129.6"/>
        <polygon class="cls-2" points="161.3 169.2 165.8 173.7 168.1 162.4 161.3 169.2"/>
        <path class="cls-2" d="M42.1,10.4l5.3-5.3h-.7c-3.3,0-6.3.3-9.1.8l4.5,4.5Z"/>
        <polygon class="cls-2" points="42.1 169.5 35.7 176 48.6 176 42.1 169.5"/>
        <polygon class="cls-2" points="22.3 149.7 16.3 155.8 16.3 176 35 176 41.8 169.2 22.3 149.7"/>
        <polygon class="cls-2" points="172.4 141.5 160.9 130 141.5 149.4 160.9 168.8 168.3 161.5 172.4 141.5"/>
        <polygon class="cls-2" points="141.1 149.7 136.5 154.4 132.3 176 153.8 176 160.6 169.2 141.1 149.7"/>
        <polygon class="cls-2" points="141.5 30.6 146.5 35.6 159.6 35.6 157.4 46.5 160.9 50 180.4 30.6 160.9 11.2 141.5 30.6"/>
        <polygon class="cls-2" points="158.3 7.8 160.9 10.4 163.6 7.8 158.3 7.8"/>
        <path class="cls-2" d="M65.2,33.5h4.1c1.4,0,2.5.5,3.4,1.6,1,1,1.6,2.3,1.6,3.6v3.9l7.4,7.4,19.4-19.4-19.4-19.4-19.4,19.4,2.9,2.9Z"/>
        <path class="cls-2" d="M81.7,10.4l4.2-4.2c-2.9-.7-6-1-9.5-1.1l5.3,5.3Z"/>
        <polygon class="cls-2" points="138 146.6 136.6 153.6 140.8 149.4 138 146.6"/>
        <polygon class="cls-2" points="161.3 50.4 180.7 69.8 189 61.6 192.8 43 180.7 31 161.3 50.4"/>
        <polygon class="cls-2" points="181.1 70.2 186.2 75.3 188.8 62.5 181.1 70.2"/>
        <polygon class="cls-2" points="181.1 30.6 192.9 42.5 199.1 12.6 181.1 30.6"/>
        <path class="cls-2" d="M101.5,30.2l4.6-4.6c-2.9-10.3-9.4-16.8-19.6-19.3l-4.4,4.4,19.4,19.4Z"/>
        <polygon class="cls-2" points="22 149.4 16.3 143.7 16.3 155.1 22 149.4"/>
        <polygon class="cls-2" points="41.8 129.6 22.3 110.2 16.3 116.2 16.3 143 22.3 149 41.8 129.6"/>
        <polygon class="cls-2" points="61.6 149.4 58.3 146.1 49.6 146.1 49.6 137.4 42.1 130 22.7 149.4 42.1 168.8 61.6 149.4"/>
        <polygon class="cls-2" points="40.9 52 43.4 52 42.1 50.8 40.9 52"/>
        <polygon class="cls-2" points="44.1 52 49.1 52 49.1 43.8 42.5 50.4 44.1 52"/>
        <polygon class="cls-2" points="59.4 33.5 64.5 33.5 61.9 31 59.4 33.5"/>
      </g>
    </g>
  </g>
</svg>