<?xml version="1.0" encoding="UTF-8"?>
<svg xmlns="http://www.w3.org/2000/svg" version="1.1" viewBox="0 0 263 180">
  <defs>
    <style>
      .cls-1 {
        fill: none;
      }

      .cls-2 {
        fill: #c59f7b;
      }
    </style>
  </defs>
  <!-- Generator: Adobe Illustrator 28.7.1, SVG Export Plug-In . SVG Version: 1.2.0 Build 142)  -->
  <g>
    <g id="Layer_1">
      <rect class="cls-1" x=".5" width="262" height="180"/>
      <path class="cls-2" d="M250.4,8.6h5l-19.6,32.4h-5l19.6-32.4ZM233.1,25.1h-1.2c-4.1,0-6.2-2.2-6.2-6.6v-3.8c0-4.4,2.1-6.6,6.2-6.6h1.2c4.1,0,6.2,2.2,6.2,6.6v3.8c0,4.4-2.1,6.6-6.2,6.6ZM230.8,21c0,.3,0,.5.2.7.2.2.4.3.7.3h1.6c.3,0,.5-.1.6-.3.2-.2.3-.4.3-.7v-8.8c0-.3-.1-.5-.3-.7-.2-.2-.4-.3-.6-.3h-1.6c-.3,0-.5.1-.7.3-.2.2-.2.4-.2.7v8.8ZM254.1,24.5c4.1,0,6.2,2.2,6.2,6.6v3.8c0,4.4-2.1,6.6-6.2,6.6h-1.2c-4.1,0-6.2-2.2-6.2-6.6v-3.8c0-4.4,2.1-6.6,6.2-6.6h1.2ZM255.3,37.4v-8.8c0-.3-.1-.5-.3-.7-.2-.2-.4-.3-.7-.3h-1.5c-.3,0-.5.1-.7.3-.2.2-.2.4-.2.7v8.8c0,.3,0,.5.2.7.2.2.4.3.7.3h1.5c.3,0,.5-.1.7-.3.2-.2.3-.4.3-.7Z"/>
      <g>
        <path class="cls-2" d="M59.2,102.7h9.9c1.1,0,2,.3,2.7.9l13.6-13.6-19.3-19.3h-.3l-19.3,19.3,12.7,12.7Z"/>
        <path class="cls-2" d="M34.8,101.7c3,.6,6.3,1,9.8,1h13.9l-12.3-12.3-11.4,11.4Z"/>
        <polygon class="cls-2" points="48.8 131.8 48.7 131.8 48.8 131.9 48.8 131.8"/>
        <path class="cls-2" d="M144.4,70.6v-.7l-19.1-19.1-13.1,13.1v11.5c0,.4,0,.8,0,1.1l13.1,13.1,19.1-19.1Z"/>
        <path class="cls-2" d="M116.2,19.6l8.8-8.8-.6-.6c-3.5,2.3-6.2,5.4-8.2,9.3Z"/>
        <path class="cls-2" d="M204.2,50.4l-19.4-19.4-10.1,10.1c.1.4.2.9.2,1.3v17.6l9.9,9.9,19.4-19.4Z"/>
        <path class="cls-2" d="M105.2,149.4l-19.4-19.4-11.8,11.8v3.3c0,1.4-.5,2.6-1.6,3.6-.9,1-2,1.6-3.4,1.6h-1.9l18.6,18.6,19.4-19.4Z"/>
        <path class="cls-2" d="M125.3,10.4l1.7-1.7c-.8.4-1.5.8-2.2,1.2l.5.5Z"/>
        <path class="cls-2" d="M164.9,11.2l-19.4,19.4,6.6,6.6h17.9c1.4,0,2.5.5,3.4,1.6.5.5.9,1.1,1.2,1.8l9.9-9.9-19.4-19.4Z"/>
        <path class="cls-2" d="M91.7,175.5l-6-6-9,9c5.8-.1,10.8-1.2,15-3.1Z"/>
        <path class="cls-2" d="M184.4,70.2l-9.5-9.5v11.9c0,1.4-.5,2.6-1.6,3.6-.9,1-2,1.6-3.4,1.6h-16.9l11.9,11.9,19.4-19.4Z"/>
        <path class="cls-2" d="M117.8,97.9c5.2,7.8,14.1,11.8,26.7,11.8h.3l-19.3-19.3-7.6,7.6Z"/>
        <path class="cls-2" d="M152.3,77.7h-2.9c-1.4,0-2.6-.5-3.6-1.6-.9-1-1.3-2.3-1.3-3.6v-1.3l-18.7,18.7,19.4,19.4,19.4-19.4-12.3-12.3Z"/>
        <path class="cls-2" d="M105.9,149.4l1.3,1.3c0-.9.2-1.9.2-2.8l-1.5,1.5Z"/>
        <polygon class="cls-2" points="114.8 131.8 114.8 139.8 122.8 131.8 114.8 131.8"/>
        <path class="cls-2" d="M107.5,112.1l-2-2-19.4,19.4,19.4,19.4,1.9-1.9c0-.9,0-1.9,0-2.8v-32.1Z"/>
        <path class="cls-2" d="M144.4,5.2c-6.3,0-11.6,1-16,2.9l-2.7,2.7,19.4,19.4,19.4-19.4-5.6-5.6h-14.5Z"/>
        <path class="cls-2" d="M86.1,169.2l6.1,6.1c8.6-4.1,13.6-12.1,14.9-24l-1.6-1.6-19.4,19.4Z"/>
        <path class="cls-2" d="M185.1,30.6l19.4,19.4,2.8-2.8v-7.7c0-10.5-2.3-18.6-6.8-24.3l-15.4,15.4Z"/>
        <path class="cls-2" d="M117.8,162c1.4,3.4,3.3,6.3,5.7,8.7l1.5-1.5-7.2-7.2Z"/>
        <path class="cls-2" d="M112.2,77.2c.2,8.4,2,15.2,5.2,20.3l7.5-7.5-12.8-12.8Z"/>
        <path class="cls-2" d="M184.7,30.2l15.5-15.5c-5.4-6.4-13.7-9.6-25.1-9.6h-4.2l-5.6,5.6,19.4,19.4Z"/>
        <path class="cls-2" d="M98.1,78l-12,12,19.4,19.4,2-2v-2.4c0-12.4-3.1-21.4-9.4-27Z"/>
        <path class="cls-2" d="M14.2,137.6v6.7c0,5.7.7,10.7,2,14.9l9.8-9.8-11.8-11.8Z"/>
        <path class="cls-2" d="M66.5,150.3h-1l-18.9,18.9,9.4,9.4h19.4c.2,0,.5,0,.7,0l9.4-9.4-18.9-18.9Z"/>
        <path class="cls-2" d="M125,50.4l-12.8-12.8c0,.6,0,1.2,0,1.9v23.7l12.8-12.8Z"/>
        <path class="cls-2" d="M115.6,20.9c-2,4.4-3.1,9.7-3.3,16l13.1,13.1,19.4-19.4-19.4-19.4-9.8,9.8Z"/>
        <path class="cls-2" d="M97.7,77.6c-5.3-4.6-12.8-6.9-22.5-6.9h-8.5l18.9,18.9,12-12Z"/>
        <polygon class="cls-2" points="107.5 108.2 105.9 109.8 107.5 111.4 107.5 108.2"/>
        <polygon class="cls-2" points="74 118.2 74 141 85.4 129.6 74 118.2"/>
        <path class="cls-2" d="M125.7,50.4l18.7,18.7v-26.8c0-1.4.4-2.6,1.3-3.6,1-1,2.3-1.6,3.6-1.6h2l-6.2-6.2-19.4,19.4Z"/>
        <path class="cls-2" d="M105.2,109.8l-19.4-19.4-13.6,13.6c0,0,.2.2.3.3,1,1,1.6,2.3,1.6,3.6v9.6l11.8,11.8,19.4-19.4Z"/>
        <polygon class="cls-2" points="207.4 47.9 204.9 50.4 207.4 52.9 207.4 47.9"/>
        <path class="cls-2" d="M145.1,149.7l-19.4,19.4,7.3,7.3c4,1.4,8.7,2.1,14.1,2.1h8.1l9.4-9.4-19.4-19.4Z"/>
        <polygon class="cls-2" points="204.2 129.6 184.7 110.2 174.9 120 174.9 139.2 184.7 149 204.2 129.6"/>
        <polygon class="cls-2" points="164.9 169.5 155.9 178.6 174 178.6 164.9 169.5"/>
        <path class="cls-2" d="M174.9,139.9v5.2c0,1.4-.5,2.6-1.6,3.6-.9,1-2,1.6-3.4,1.6h-16.9c-1.4,0-2.6-.5-3.6-1.6-.5-.6-.9-1.3-1.1-2.1l-2.8,2.8,19.4,19.4,19.4-19.4-9.5-9.5Z"/>
        <path class="cls-2" d="M55.2,178.6l-9.1-9.1-8.3,8.3c2.6.5,5.5.7,8.6.7h8.8Z"/>
        <polygon class="cls-2" points="12.4 44.9 12.4 55.9 26.3 69.8 45.6 50.5 45.6 50.3 26.3 31 12.4 44.9"/>
        <path class="cls-2" d="M14,82.2l12-12-13.6-13.6v11.8c0,5.2.6,9.8,1.7,13.8Z"/>
        <path class="cls-2" d="M26.3,149.7l-10,10c3.3,9.9,10.2,16,20.9,18l8.6-8.6-19.4-19.4Z"/>
        <polygon class="cls-2" points="26 30.6 12.4 17 12.4 44.2 26 30.6"/>
        <polygon class="cls-2" points="207.4 126.4 207.4 93.2 204.5 90.4 185.1 109.8 204.5 129.2 207.4 126.4"/>
        <polygon class="cls-2" points="204.9 129.6 207.4 132.1 207.4 127.1 204.9 129.6"/>
        <path class="cls-2" d="M201.8,166.8l-17.1-17.1-19.4,19.4,9.4,9.4h.4c12.6,0,21.5-3.9,26.7-11.8Z"/>
        <path class="cls-2" d="M207.4,132.8l-2.8-2.8-19.4,19.4,17,17c3.5-5.5,5.3-12.9,5.3-22.1v-11.5Z"/>
        <polygon class="cls-2" points="46.1 10.4 48.8 7.8 43.5 7.8 46.1 10.4"/>
        <polygon class="cls-2" points="26.7 30.6 45.6 49.5 45.6 35.6 60.6 35.6 65.6 30.6 46.1 11.2 26.7 30.6"/>
        <polygon class="cls-2" points="12.4 16.3 26.3 30.2 45.8 10.8 42.8 7.8 12.4 7.8 12.4 16.3"/>
        <path class="cls-2" d="M184.4,109.8l-19.4-19.4-19.3,19.3h11.8c6.9,0,12.7-1.1,17.4-3.4v13l9.5-9.5Z"/>
        <polygon class="cls-2" points="61.3 35.6 70.6 35.6 65.9 31 61.3 35.6"/>
        <path class="cls-2" d="M26.7,70.2l19.4,19.4,18.9-18.9h-14.5c-1.4,0-2.6-.5-3.6-1.6-.9-1-1.3-2.3-1.3-3.6v-14.2l-18.9,18.9Z"/>
        <polygon class="cls-2" points="65.9 30.2 85.4 10.8 82.4 7.8 49.5 7.8 46.5 10.8 65.9 30.2"/>
        <polygon class="cls-2" points="43.6 131.8 14.2 131.8 14.2 136.9 26.3 149 43.6 131.8"/>
        <path class="cls-2" d="M14.2,82.7c3,10.2,9.7,16.5,20,18.9l11.6-11.6-19.4-19.4-12.2,12.2Z"/>
        <polygon class="cls-2" points="100.8 25.5 100.8 7.8 89.1 7.8 86.1 10.8 100.8 25.5"/>
        <polygon class="cls-2" points="71.3 35.6 100.2 35.6 100.8 35 100.8 26.2 85.7 11.2 66.3 30.6 71.3 35.6"/>
        <polygon class="cls-2" points="85.7 10.4 88.4 7.8 83.1 7.8 85.7 10.4"/>
        <path class="cls-2" d="M64.7,150.3h-11c-1.4,0-2.6-.5-3.6-1.6-.9-1-1.3-2.3-1.3-3.6v-12.5l-.8-.8h-3.7l-17.6,17.6,19.4,19.4,18.6-18.6Z"/>
        <polygon class="cls-2" points="207.4 86.8 207.4 53.6 204.5 50.8 185.1 70.2 204.5 89.6 207.4 86.8"/>
        <rect class="cls-2" x="171" y="76.2" width="27.5" height="27.5" transform="translate(-9.5 157) rotate(-45)"/>
        <polygon class="cls-2" points="207.4 87.5 204.9 90 207.4 92.5 207.4 87.5"/>
        <polygon class="cls-2" points="164.9 10.4 170.2 5.2 159.7 5.2 164.9 10.4"/>
        <path class="cls-2" d="M127.2,131.8h-3.7l-8.7,8.7v3.8c0,6.4.8,11.9,2.5,16.6l8,8,19.4-19.4-17.6-17.6Z"/>
        <path class="cls-2" d="M125.3,169.5l-1.5,1.5c2.2,2.1,4.9,3.8,8,5l-6.5-6.5Z"/>
        <path class="cls-2" d="M148.2,146c0-.3,0-.6,0-1v-13.3h-20.2l17.2,17.2,3-3Z"/>
      </g>
    </g>
  </g>
</svg>