<?xml version="1.0" encoding="UTF-8"?>
<svg id="Layer_2" xmlns="http://www.w3.org/2000/svg" viewBox="0 0 255.12 255.12">
  <defs>
    <style>
      .cls-1 {
        fill: none;
      }

      .cls-2 {
        fill: #8e8e93;
      }
    </style>
  </defs>
  <g id="Layer_1-2" data-name="Layer_1">
    <rect class="cls-1" width="255.12" height="255.12"/>
    <path class="cls-2" d="M127.6,20.99c-45.31,0-82.04,36.73-82.04,82.04s36.73,82.04,82.04,82.04,82.04-36.73,82.04-82.04S172.91,20.99,127.6,20.99ZM113.06,84.18h0c.91-1.43,2.81-1.86,4.24-.95l6.81,4.32c1.43.91,1.86,2.81.95,4.24s-2.8,1.86-4.24.95l-6.81-4.32c-1.43-.91-1.86-2.81-.95-4.24ZM132.58,105.39h-10.04c-2.97,0-5.26-2.87-4.26-5.98.73-2.26,3.32-3.23,5.55-2.44,1.27.45,2.55.59,3.73.55,1.18.03,2.46-.1,3.73-.55,2.24-.8,4.83.17,5.55,2.44,1,3.11-1.3,5.98-4.26,5.98ZM141.11,88.42l-6.81,4.32c-1.43.91-3.33.48-4.24-.95s-.48-3.33.95-4.24l6.81-4.32c1.43-.91,3.33-.48,4.24.95h0c.91,1.43.48,3.33-.95,4.24Z"/>
  </g>
</svg>