<svg width="23" height="79" viewBox="0 0 23 79" fill="none" xmlns="http://www.w3.org/2000/svg">
<path d="M4.22949 34.082C3.47754 34.082 2.7793 33.9209 2.13477 33.5986C1.52604 33.2764 1.04264 32.8109 0.68457 32.2021C0.326497 31.5576 0.147461 30.752 0.147461 29.7852V4.86328C0.147461 3.93229 0.326497 3.14453 0.68457 2.5C1.04264 1.85547 1.52604 1.37207 2.13477 1.0498C2.7793 0.727539 3.47754 0.566406 4.22949 0.566406C5.01725 0.566406 5.69759 0.727539 6.27051 1.0498C6.87923 1.37207 7.36263 1.85547 7.7207 2.5C8.07878 3.14453 8.25781 3.93229 8.25781 4.86328V29.7852C8.25781 30.752 8.07878 31.5576 7.7207 32.2021C7.36263 32.8109 6.87923 33.2764 6.27051 33.5986C5.69759 33.9209 5.01725 34.082 4.22949 34.082ZM4.17578 31.2354C4.49805 31.2354 4.7487 31.1637 4.92773 31.0205C5.10677 30.8415 5.19629 30.5908 5.19629 30.2686V4.43359C5.19629 4.11133 5.10677 3.86068 4.92773 3.68164C4.7487 3.5026 4.49805 3.41309 4.17578 3.41309C3.88932 3.41309 3.63867 3.5026 3.42383 3.68164C3.24479 3.86068 3.15527 4.11133 3.15527 4.43359V30.2686C3.15527 30.5908 3.24479 30.8415 3.42383 31.0205C3.63867 31.1637 3.88932 31.2354 4.17578 31.2354ZM7.02246 78.2861H4.01465L15.4551 0.78125H18.4629L7.02246 78.2861ZM18.3555 78.501C17.5677 78.501 16.8695 78.3398 16.2607 78.0176C15.652 77.6595 15.1507 77.1761 14.7568 76.5674C14.3988 75.9229 14.2197 75.1351 14.2197 74.2041V49.2822C14.2197 48.3154 14.3988 47.5277 14.7568 46.9189C15.1507 46.2744 15.652 45.791 16.2607 45.4688C16.8695 45.1465 17.5677 44.9854 18.3555 44.9854C19.1074 44.9854 19.7878 45.1465 20.3965 45.4688C21.041 45.791 21.5244 46.2744 21.8467 46.9189C22.2048 47.5277 22.3838 48.3154 22.3838 49.2822V74.2041C22.3838 75.1351 22.2048 75.9229 21.8467 76.5674C21.5244 77.1761 21.041 77.6595 20.3965 78.0176C19.7878 78.3398 19.1074 78.501 18.3555 78.501ZM18.3018 75.6543C18.624 75.6543 18.8747 75.5648 19.0537 75.3857C19.2327 75.2067 19.3223 74.9561 19.3223 74.6338V48.7988C19.3223 48.4766 19.2327 48.2438 19.0537 48.1006C18.8747 47.9215 18.624 47.832 18.3018 47.832C17.9795 47.832 17.7288 47.9215 17.5498 48.1006C17.3708 48.2438 17.2812 48.4766 17.2812 48.7988V74.6338C17.2812 74.9561 17.3708 75.2067 17.5498 75.3857C17.7288 75.5648 17.9795 75.6543 18.3018 75.6543Z" fill="white"/>
</svg>
