<?xml version="1.0" encoding="UTF-8"?>
<svg xmlns="http://www.w3.org/2000/svg" version="1.1" viewBox="0 0 165 180">
  <defs>
    <style>
      .cls-1 {
        fill: none;
      }

      .cls-2 {
        fill: #c59f7b;
      }
    </style>
  </defs>
  <!-- Generator: Adobe Illustrator 28.7.1, SVG Export Plug-In . SVG Version: 1.2.0 Build 142)  -->
  <g>
    <g id="Layer_1">
      <rect class="cls-1" width="165" height="180"/>
      <path class="cls-2" d="M152.9,8.6h5l-19.6,32.4h-5l19.6-32.4ZM135.6,25.1h-1.2c-4.1,0-6.2-2.2-6.2-6.6v-3.8c0-4.4,2.1-6.6,6.2-6.6h1.2c4.1,0,6.2,2.2,6.2,6.6v3.8c0,4.4-2.1,6.6-6.2,6.6ZM133.3,21c0,.3,0,.5.2.7.2.2.4.3.7.3h1.6c.3,0,.5-.1.6-.3.2-.2.3-.4.3-.7v-8.8c0-.3-.1-.5-.3-.7-.2-.2-.4-.3-.6-.3h-1.6c-.3,0-.5.1-.7.3-.2.2-.2.4-.2.7v8.8ZM156.6,24.5c4.1,0,6.2,2.2,6.2,6.6v3.8c0,4.4-2.1,6.6-6.2,6.6h-1.2c-4.1,0-6.2-2.2-6.2-6.6v-3.8c0-4.4,2.1-6.6,6.2-6.6h1.2ZM157.8,37.4v-8.8c0-.3-.1-.5-.3-.7-.2-.2-.4-.3-.7-.3h-1.5c-.3,0-.5.1-.7.3-.2.2-.2.4-.2.7v8.8c0,.3,0,.5.2.7.2.2.4.3.7.3h1.5c.3,0,.5-.1.7-.3.2-.2.3-.4.3-.7Z"/>
      <g>
        <path class="cls-2" d="M95.8,109.8l-19.4-19.4-15.7,15.7h12.3c1.4,0,2.5.5,3.4,1.6,1,1,1.6,2.3,1.6,3.6v16.4l17.9-17.9Z"/>
        <path class="cls-2" d="M109,96.6c-2.4-10.8-8.4-17.7-18.1-20.7l-14.2,14.2,19.4,19.4,12.9-12.9Z"/>
        <path class="cls-2" d="M107.6,41.7v-2.2c0-6.7-.9-12.4-2.8-17.2l-8.3,8.3,11.1,11.1Z"/>
        <polygon class="cls-2" points="59 146.6 54.1 146.6 56.5 149 59 146.6"/>
        <polygon class="cls-2" points="47.5 119.2 37.1 129.6 47.5 140 47.5 119.2"/>
        <polygon class="cls-2" points="54 33.5 59.1 33.5 56.5 31 54 33.5"/>
        <polygon class="cls-2" points="47.5 60.8 47.5 40 37.1 50.4 47.5 60.8"/>
        <path class="cls-2" d="M71.1,5.2l5.3,5.3,4.9-4.9c-1.9-.2-3.9-.3-6-.3h-4.2Z"/>
        <path class="cls-2" d="M59.8,33.5h9.5c1.4,0,2.5.5,3.4,1.6,1,1,1.6,2.3,1.6,3.6v9.3l2.1,2.1,19.4-19.4-19.4-19.4-19.4,19.4,2.9,2.9Z"/>
        <polygon class="cls-2" points="78.3 52 107.6 52 107.6 42.4 96.1 31 76.7 50.4 78.3 52"/>
        <path class="cls-2" d="M56.5,149.7l-19.4,19.4,9.4,9.4c.3,0,.5,0,.8,0h19.3l9.4-9.4-19.4-19.4Z"/>
        <path class="cls-2" d="M81.9,5.6l-5.2,5.2,19.4,19.4,8.4-8.4c-3.8-9.4-11.4-14.8-22.7-16.2Z"/>
        <path class="cls-2" d="M17.3,70.2l19.4,19.4,13.2-13.2c-.8.3-1.7.6-2.4,1v-15.9l-10.8-10.8-19.4,19.4Z"/>
        <path class="cls-2" d="M96.5,149.4l11.2,11.2c1.6-4.6,2.5-10,2.5-16.3v-8.6l-13.7,13.7Z"/>
        <path class="cls-2" d="M17.3,109.8l19.4,19.4,10.8-10.8v-7.2c0-1.4.4-2.6,1.3-3.6,1-1,2.3-1.6,3.6-1.6h0l-15.7-15.7-19.4,19.4Z"/>
        <path class="cls-2" d="M53.2,106.1h6.8l16.1-16.1-15.7-15.7c-3.4.3-6.5.9-9.2,1.8l-14,14,16.1,16.1Z"/>
        <polygon class="cls-2" points="75.1 52 77.6 52 76.3 50.8 75.1 52"/>
        <path class="cls-2" d="M90.3,75.7c-3.6-1.1-7.8-1.6-12.4-1.6h-13c-1.4,0-2.7,0-4,.1l15.4,15.4,14-14Z"/>
        <polygon class="cls-2" points="74.3 48.7 74.3 52 74.4 52 76 50.4 74.3 48.7"/>
        <path class="cls-2" d="M15.4,32.5c-.2,2.2-.4,4.5-.4,7v28.4l1.9,1.9,19.4-19.4-19.4-19.4-1.6,1.6Z"/>
        <path class="cls-2" d="M15.1,147.9c0,.9.1,1.9.2,2.8l1.3-1.3-1.5-1.5Z"/>
        <path class="cls-2" d="M16.9,149.7l-1.6,1.6c1.4,11.8,6.3,19.8,14.9,24l6.1-6.1-19.4-19.4Z"/>
        <path class="cls-2" d="M36.7,50l10.8-10.8v-.6c0-1.4.4-2.6,1.3-3.6,1-1,2.3-1.6,3.6-1.6h.8l2.9-2.9-19.4-19.4-19.4,19.4,19.4,19.4Z"/>
        <path class="cls-2" d="M107.5,161.1l-11.4-11.4-19.4,19.4,8.9,8.9c11-1.7,18.3-7.3,22-16.9Z"/>
        <path class="cls-2" d="M84.9,178.1l-8.6-8.6-9.1,9.1h10.6c2.5,0,4.8-.2,7-.5Z"/>
        <path class="cls-2" d="M15.9,29.2l1.1,1.1,19.4-19.4-3.4-3.4c-9.4,3.4-15,10.6-17.1,21.8Z"/>
        <path class="cls-2" d="M16.6,30.6l-.8-.8c-.1.6-.2,1.3-.3,1.9l1.1-1.1Z"/>
        <path class="cls-2" d="M36.7,10.4l5-5c-3,.3-5.7.9-8.2,1.7l3.2,3.2Z"/>
        <path class="cls-2" d="M95.8,149.4l-17.9-17.9v9.9c0,1.4-.5,2.6-1.6,3.6-.9,1-2,1.6-3.4,1.6h-13.3l-2.8,2.8,19.4,19.4,19.4-19.4Z"/>
        <polygon class="cls-2" points="15 71.8 16.6 70.2 15 68.6 15 71.8"/>
        <path class="cls-2" d="M36.4,129.6l-19.4-19.4-1.9,1.9v32.2c0,1,0,1.9,0,2.9l1.9,1.9,19.4-19.4Z"/>
        <polygon class="cls-2" points="15 108.2 15 111.4 16.6 109.8 15 108.2"/>
        <path class="cls-2" d="M56.2,149.4l-2.8-2.8h-1c-1.4,0-2.6-.5-3.6-1.6-.9-1-1.3-2.3-1.3-3.6v-.7l-10.8-10.8-19.4,19.4,19.4,19.4,19.4-19.4Z"/>
        <path class="cls-2" d="M45.8,178.6l-9-9-5.9,5.9c4.2,1.9,9.2,2.9,15,3.1Z"/>
        <polygon class="cls-2" points="110.2 135 110.2 124.2 96.1 110.2 77.9 128.4 77.9 130.8 96.1 149 110.2 135"/>
        <path class="cls-2" d="M109.1,97.2l-12.6,12.6,13.7,13.7v-15.1c0-4.1-.4-7.8-1-11.2Z"/>
        <polygon class="cls-2" points="15 72.5 15 107.5 16.9 109.4 36.4 90 16.9 70.6 15 72.5"/>
        <path class="cls-2" d="M56.5,30.2l19.4-19.4-5.6-5.6h-23.1c-1.6,0-3.2,0-4.7.2l-5.4,5.4,19.4,19.4Z"/>
      </g>
    </g>
  </g>
</svg>