<?xml version="1.0" encoding="UTF-8"?>
<svg xmlns="http://www.w3.org/2000/svg" version="1.1" viewBox="0 0 209 180">
  <defs>
    <style>
      .cls-1 {
        fill: none;
      }

      .cls-2 {
        fill: #c59f7b;
      }
    </style>
  </defs>
  <!-- Generator: Adobe Illustrator 28.7.1, SVG Export Plug-In . SVG Version: 1.2.0 Build 142)  -->
  <g>
    <g id="Layer_1">
      <rect class="cls-1" width="209" height="180"/>
      <path class="cls-2" d="M196.9,8.6h5l-19.6,32.4h-5l19.6-32.4ZM179.6,25.1h-1.2c-4.1,0-6.2-2.2-6.2-6.6v-3.8c0-4.4,2.1-6.6,6.2-6.6h1.2c4.1,0,6.2,2.2,6.2,6.6v3.8c0,4.4-2.1,6.6-6.2,6.6ZM177.3,21c0,.3,0,.5.2.7.2.2.4.3.7.3h1.6c.3,0,.5-.1.6-.3.2-.2.3-.4.3-.7v-8.8c0-.3-.1-.5-.3-.7-.2-.2-.4-.3-.6-.3h-1.6c-.3,0-.5.1-.7.3-.2.2-.2.4-.2.7v8.8ZM200.6,24.5c4.1,0,6.2,2.2,6.2,6.6v3.8c0,4.4-2.1,6.6-6.2,6.6h-1.2c-4.1,0-6.2-2.2-6.2-6.6v-3.8c0-4.4,2.1-6.6,6.2-6.6h1.2ZM201.8,37.4v-8.8c0-.3-.1-.5-.3-.7-.2-.2-.4-.3-.7-.3h-1.5c-.3,0-.5.1-.7.3-.2.2-.2.4-.2.7v8.8c0,.3,0,.5.2.7.2.2.4.3.7.3h1.5c.3,0,.5-.1.7-.3.2-.2.3-.4.3-.7Z"/>
      <g>
        <rect class="cls-2" x="25.2" y="76.2" width="27.5" height="27.5" transform="translate(-52.2 53.9) rotate(-45)"/>
        <path class="cls-2" d="M39.3,70.2l5,5c-.4-.8-.6-1.7-.6-2.6v-6.6l-4.3,4.3Z"/>
        <path class="cls-2" d="M15,94.5c4.2,8.8,11.9,13.8,23.2,14.9l-19.1-19.1-4.2,4.2Z"/>
        <path class="cls-2" d="M14.8,94l4-4-7-7c.5,4.1,1.5,7.8,2.9,11Z"/>
        <path class="cls-2" d="M71.6,37.9c.3.2.6.5.9.8,1,1,1.6,2.3,1.6,3.6v23l4.5,4.5,19.4-19.4-19.4-19.4-7,7Z"/>
        <path class="cls-2" d="M98.3,50l8.2-8.2v-2.4c0-12.4-3.2-21.4-9.4-27.1l-18.2,18.2,19.4,19.4Z"/>
        <polygon class="cls-2" points="114.6 33.8 117.8 30.6 114.6 27.5 114.6 33.8"/>
        <polygon class="cls-2" points="114.6 106.6 114.6 112.9 117.8 109.8 114.6 106.6"/>
        <polygon class="cls-2" points="137.6 90 118.1 70.6 114.6 74.1 114.6 105.9 118.1 109.4 137.6 90"/>
        <polygon class="cls-2" points="16.6 131.8 14 131.8 14 134.4 16.6 131.8"/>
        <polygon class="cls-2" points="78.5 110.2 74 114.7 74 144.5 78.5 149 98 129.6 78.5 110.2"/>
        <polygon class="cls-2" points="47.3 140.7 47.3 131.8 21.7 131.8 38.9 149 47.3 140.7"/>
        <path class="cls-2" d="M78.2,149.4l-4.2-4.2c0,1.3-.5,2.5-1.5,3.5-.9,1-2,1.6-3.4,1.6h-16.9c-1.4,0-2.6-.5-3.6-1.6-.9-1-1.3-2.3-1.3-3.6v-3.6l-8,8,19.4,19.4,19.4-19.4Z"/>
        <rect class="cls-2" x="64.8" y="76.2" width="27.5" height="27.5" transform="translate(-40.6 81.9) rotate(-45)"/>
        <polygon class="cls-2" points="106.5 121.8 98.7 129.6 106.5 137.4 106.5 121.8"/>
        <path class="cls-2" d="M78.5,149.7l-19.4,19.4,9.4,9.4h5.8c7.4,0,13.5-1.3,18.3-4l5.4-5.4-19.4-19.4Z"/>
        <polygon class="cls-2" points="106.5 82.2 98.7 90 106.5 97.8 106.5 82.2"/>
        <polygon class="cls-2" points="98.3 50.8 78.9 70.2 98.3 89.6 106.5 81.5 106.5 58.9 98.3 50.8"/>
        <polygon class="cls-2" points="98.3 90.4 78.9 109.8 98.3 129.2 106.5 121 106.5 98.5 98.3 90.4"/>
        <path class="cls-2" d="M38.9,149.7l-18.4,18.4c5.3,6.9,13.9,10.4,25.7,10.4h2.8l9.4-9.4-19.4-19.4Z"/>
        <polygon class="cls-2" points="150 77.6 150 62.8 137.9 50.8 118.5 70.2 137.9 89.6 150 77.6"/>
        <polygon class="cls-2" points="137.6 50.4 118.1 31 114.6 34.5 114.6 66.3 118.1 69.8 137.6 50.4"/>
        <polygon class="cls-2" points="98.7 50.4 106.5 58.2 106.5 42.6 98.7 50.4"/>
        <polygon class="cls-2" points="114.6 67 114.6 73.4 117.8 70.2 114.6 67"/>
        <path class="cls-2" d="M46.2,77.1l12.5,12.5,12.4-12.4c-.6.3-1.3.5-2.1.5h-20.5c-.9,0-1.6-.2-2.3-.6Z"/>
        <path class="cls-2" d="M78.2,70.2l-4.2-4.2v6.5c0,.9-.3,1.8-.7,2.6l4.9-4.9Z"/>
        <path class="cls-2" d="M78.2,109.8l-19.4-19.4-19.2,19.2c1.3,0,2.7.1,4.1.1h13c6.9,0,12.7-1.1,17.4-3.4v7.6l4.2-4.2Z"/>
        <polygon class="cls-2" points="150 62.1 150 38.7 138.3 50.4 150 62.1"/>
        <polygon class="cls-2" points="150 117.9 138.3 129.6 150 141.3 150 117.9"/>
        <polygon class="cls-2" points="150 22.5 150 8 141.1 8 138.3 10.8 150 22.5"/>
        <path class="cls-2" d="M21,12.3l18,18,19.4-19.4-5.6-5.6h-9.2c-9.8,0-17.3,2.4-22.6,7.1Z"/>
        <polygon class="cls-2" points="150 117.2 150 102.4 137.9 90.4 118.5 109.8 137.9 129.2 150 117.2"/>
        <polygon class="cls-2" points="114.6 146.2 114.6 152.5 117.8 149.4 114.6 146.2"/>
        <polygon class="cls-2" points="137.6 129.6 118.1 110.2 114.6 113.7 114.6 145.5 118.1 149 137.6 129.6"/>
        <polygon class="cls-2" points="18.8 50.4 11.4 43 11.4 57.8 18.8 50.4"/>
        <polygon class="cls-2" points="150 142 137.9 130 118.5 149.4 137.9 168.8 150 156.8 150 142"/>
        <path class="cls-2" d="M11.4,39.5v2.8l7.8,7.8,19.4-19.4L20.6,12.6c-6.1,5.7-9.2,14.7-9.2,26.9Z"/>
        <polygon class="cls-2" points="150 157.5 138.3 169.2 145.4 176.3 150 176.3 150 157.5"/>
        <polygon class="cls-2" points="137.9 169.5 131.2 176.3 144.7 176.3 137.9 169.5"/>
        <polygon class="cls-2" points="118.1 149.7 114.6 153.3 114.6 176.3 130.5 176.3 137.6 169.2 118.1 149.7"/>
        <path class="cls-2" d="M106.5,138.1l-8.2-8.2-19.4,19.4,19.4,19.4,3.7-3.7c3-5.4,4.5-12.3,4.5-20.9v-6.1Z"/>
        <path class="cls-2" d="M98.7,169.2l.3.3c.7-.8,1.3-1.6,1.9-2.4l-2.1,2.1Z"/>
        <polygon class="cls-2" points="114.6 26.7 118.1 30.2 137.6 10.8 134.8 8 114.6 8 114.6 26.7"/>
        <path class="cls-2" d="M78.5,30.2l18.2-18.2c-5.3-4.6-12.8-6.9-22.4-6.9h-9.6l-5.6,5.6,19.4,19.4Z"/>
        <polygon class="cls-2" points="58.7 10.4 64 5.2 53.5 5.2 58.7 10.4"/>
        <polygon class="cls-2" points="118.5 30.6 137.9 50 150 38 150 23.2 137.9 11.2 118.5 30.6"/>
        <polygon class="cls-2" points="135.5 8 137.9 10.4 140.4 8 135.5 8"/>
        <path class="cls-2" d="M46.4,37.7c.7-.3,1.4-.5,2.2-.5h20.5c.8,0,1.4.2,2,.5l7-7-19.4-19.4-19.4,19.4,7.1,7.1Z"/>
        <polygon class="cls-2" points="150 78.3 138.3 90 150 101.7 150 78.3"/>
        <path class="cls-2" d="M19.5,50.4l19.4,19.4,4.7-4.7v-22.8c0-1.4.4-2.6,1.3-3.6.3-.3.7-.6,1-.8l-7-7-19.4,19.4Z"/>
        <polygon class="cls-2" points="58.7 169.5 49.7 178.6 67.8 178.6 58.7 169.5"/>
        <path class="cls-2" d="M98.3,169.5l-3.8,3.8c1.5-1,2.9-2.2,4.1-3.6l-.3-.3Z"/>
        <path class="cls-2" d="M21,131.8h-3.7l-3.3,3.3v9.2c0,10,2.1,17.9,6.2,23.5l18.4-18.4-17.6-17.6Z"/>
        <path class="cls-2" d="M11.4,58.5v16.9c0,2.4.1,4.7.4,6.9l7.4,7.4,19.4-19.4-19.4-19.4-7.8,7.8Z"/>
      </g>
    </g>
  </g>
</svg>