<?xml version="1.0" encoding="UTF-8"?>
<svg xmlns="http://www.w3.org/2000/svg" version="1.1" viewBox="0 0 213 180">
  <defs>
    <style>
      .cls-1 {
        fill: none;
      }

      .cls-2 {
        fill: #c59f7b;
      }
    </style>
  </defs>
  <!-- Generator: Adobe Illustrator 28.7.1, SVG Export Plug-In . SVG Version: 1.2.0 Build 142)  -->
  <g>
    <g id="Layer_1">
      <rect class="cls-1" x=".5" width="212" height="180"/>
      <path class="cls-2" d="M200.4,8.6h5l-19.6,32.4h-5l19.6-32.4ZM183.1,25.1h-1.2c-4.1,0-6.2-2.2-6.2-6.6v-3.8c0-4.4,2.1-6.6,6.2-6.6h1.2c4.1,0,6.2,2.2,6.2,6.6v3.8c0,4.4-2.1,6.6-6.2,6.6ZM180.8,21c0,.3,0,.5.2.7.2.2.4.3.7.3h1.6c.3,0,.5-.1.6-.3.2-.2.3-.4.3-.7v-8.8c0-.3-.1-.5-.3-.7-.2-.2-.4-.3-.6-.3h-1.6c-.3,0-.5.1-.7.3-.2.2-.2.4-.2.7v8.8ZM204.1,24.5c4.1,0,6.2,2.2,6.2,6.6v3.8c0,4.4-2.1,6.6-6.2,6.6h-1.2c-4.1,0-6.2-2.2-6.2-6.6v-3.8c0-4.4,2.1-6.6,6.2-6.6h1.2ZM205.3,37.4v-8.8c0-.3-.1-.5-.3-.7-.2-.2-.4-.3-.7-.3h-1.5c-.3,0-.5.1-.7.3-.2.2-.2.4-.2.7v8.8c0,.3,0,.5.2.7.2.2.4.3.7.3h1.5c.3,0,.5-.1.7-.3.2-.2.3-.4.3-.7Z"/>
      <g>
        <polygon class="cls-2" points="99.1 52 101.6 52 100.3 50.8 99.1 52"/>
        <polygon class="cls-2" points="118 32.4 119.8 30.6 118 28.8 118 32.4"/>
        <polygon class="cls-2" points="118 68.4 118 72 119.8 70.2 118 68.4"/>
        <polygon class="cls-2" points="69.8 178.6 60.7 169.5 51.7 178.6 69.8 178.6"/>
        <path class="cls-2" d="M100,90l-15.6-15.6c-1.9-.2-4-.4-6.1-.4h-1.3l-15.9,15.9,19.4,19.4,19.4-19.4Z"/>
        <polygon class="cls-2" points="118 8 118 28.1 120.1 30.2 139.6 10.8 136.8 8 118 8"/>
        <polygon class="cls-2" points="139.6 50.4 120.1 31 118 33.1 118 67.7 120.1 69.8 139.6 50.4"/>
        <path class="cls-2" d="M47.9,142.1c0-.2,0-.4,0-.7v-24.4l-6.9-6.9-19.4,19.4,19.4,19.4,7-7Z"/>
        <path class="cls-2" d="M80.2,149.4l-3.9-3.9c-.8.7-1.8,1.1-2.9,1.1h-20.5c-1.4,0-2.6-.5-3.6-1.6-.6-.7-1-1.5-1.2-2.4l-6.7,6.7,19.4,19.4,19.4-19.4Z"/>
        <path class="cls-2" d="M100.3,50l7.6-7.6v-3c0-12.2-3-21.1-9.1-26.8l-17.9,17.9,19.4,19.4Z"/>
        <rect class="cls-2" x="27.2" y="76.2" width="27.5" height="27.5" transform="translate(-51.6 55.3) rotate(-45)"/>
        <polygon class="cls-2" points="47.9 76.8 47.9 63.6 41.3 70.2 47.9 76.8"/>
        <path class="cls-2" d="M74.4,37.1c.2.5.3,1,.3,1.6v13.3h23.8l1.6-1.6-19.4-19.4-6.2,6.2Z"/>
        <path class="cls-2" d="M60.7,89.6l15.6-15.6h-11c-6.7,0-12.3,1.1-16.9,3.2l12.4,12.4Z"/>
        <path class="cls-2" d="M80.5,149.7l-19.4,19.4,9.4,9.4h7.8c5.6,0,10.5-.8,14.7-2.4l7-7-19.4-19.4Z"/>
        <polygon class="cls-2" points="15.4 124.2 15.4 135 20.8 129.6 15.4 124.2"/>
        <polygon class="cls-2" points="15.4 84.6 15.4 95.4 20.8 90 15.4 84.6"/>
        <polygon class="cls-2" points="110.5 119.8 100.7 129.6 110.5 139.4 110.5 119.8"/>
        <path class="cls-2" d="M110,100l-9.6-9.6-19.4,19.4,19.4,19.4,10.2-10.2v-10.7c0-3-.2-5.8-.6-8.4Z"/>
        <polygon class="cls-2" points="153.4 23.9 153.4 8 143.1 8 140.3 10.8 153.4 23.9"/>
        <path class="cls-2" d="M104.9,85.8l-4.2,4.2,9.1,9.1c-.8-5.3-2.5-9.7-4.9-13.4Z"/>
        <polygon class="cls-2" points="100.7 50.4 102.3 52 107.9 52 107.9 43.2 100.7 50.4"/>
        <path class="cls-2" d="M85.2,74.5l15.1,15.1,4.3-4.3c-4.2-6-10.7-9.6-19.4-10.8Z"/>
        <polygon class="cls-2" points="153.4 63.5 153.4 37.3 140.3 50.4 153.4 63.5"/>
        <polygon class="cls-2" points="40.6 109.8 21.1 90.4 15.4 96.1 15.4 123.5 21.1 129.2 40.6 109.8"/>
        <polygon class="cls-2" points="120.5 30.6 139.9 50 153.4 36.6 153.4 24.6 139.9 11.2 120.5 30.6"/>
        <path class="cls-2" d="M80.2,109.8l-19.4-19.4-19.4,19.4,6.6,6.6v-5.1c0-1.4.4-2.6,1.3-3.6,1-1,2.3-1.6,3.6-1.6h20.5c1.4,0,2.5.5,3.4,1.6,1,1,1.6,2.3,1.6,3.6v.4l1.9-1.9Z"/>
        <polygon class="cls-2" points="139.6 129.6 120.1 110.2 118 112.3 118 146.9 120.1 149 139.6 129.6"/>
        <path class="cls-2" d="M80.5,110.2l-2.3,2.3v29c0,1.4-.5,2.6-1.6,3.6,0,0,0,0,0,0l3.9,3.9,19.4-19.4-19.4-19.4Z"/>
        <polygon class="cls-2" points="153.4 116.5 140.3 129.6 153.4 142.7 153.4 116.5"/>
        <path class="cls-2" d="M23.9,13.2l17,17,19.4-19.4-5.6-5.6h-7.2c-10.4,0-18.3,2.7-23.7,8.1Z"/>
        <path class="cls-2" d="M110.5,140.1l-10.2-10.2-19.4,19.4,19.4,19.4,7.4-7.4c1.8-4.7,2.8-10.5,2.8-17.2v-4.2Z"/>
        <polygon class="cls-2" points="118 147.6 118 151.2 119.8 149.4 118 147.6"/>
        <polygon class="cls-2" points="120.1 149.7 118 151.9 118 176.3 132.5 176.3 139.6 169.2 120.1 149.7"/>
        <polygon class="cls-2" points="139.9 169.5 133.2 176.3 146.7 176.3 139.9 169.5"/>
        <polygon class="cls-2" points="153.4 143.4 139.9 130 120.5 149.4 139.9 168.8 153.4 155.4 153.4 143.4"/>
        <polygon class="cls-2" points="153.4 156.1 140.3 169.2 147.4 176.3 153.4 176.3 153.4 156.1"/>
        <polygon class="cls-2" points="20.8 50.4 15.4 45 15.4 55.8 20.8 50.4"/>
        <path class="cls-2" d="M100.7,169.2l1.3,1.3c2.2-2.2,3.9-4.8,5.3-7.9l-6.6,6.6Z"/>
        <path class="cls-2" d="M15.4,44.3l5.8,5.8,19.4-19.4L23.6,13.6c-5.5,5.7-8.2,14.4-8.2,25.9v4.8Z"/>
        <polygon class="cls-2" points="153.4 115.8 153.4 103.8 139.9 90.4 120.5 109.8 139.9 129.2 153.4 115.8"/>
        <path class="cls-2" d="M101.6,170.8l-1.3-1.3-6.2,6.2c2.9-1.2,5.4-2.9,7.5-4.9Z"/>
        <polygon class="cls-2" points="153.4 76.2 153.4 64.2 139.9 50.8 120.5 70.2 139.9 89.6 153.4 76.2"/>
        <polygon class="cls-2" points="139.9 10.4 142.4 8 137.5 8 139.9 10.4"/>
        <polygon class="cls-2" points="118 108 118 111.6 119.8 109.8 118 108"/>
        <path class="cls-2" d="M80.5,30.2l17.9-17.9c-5.3-4.8-12.9-7.2-22.7-7.2h-9l-5.6,5.6,19.4,19.4Z"/>
        <polygon class="cls-2" points="139.6 90 120.1 70.6 118 72.7 118 107.3 120.1 109.4 139.6 90"/>
        <polygon class="cls-2" points="153.4 76.9 140.3 90 153.4 103.1 153.4 76.9"/>
        <polygon class="cls-2" points="15.4 56.5 15.4 83.9 21.1 89.6 40.6 70.2 21.1 50.8 15.4 56.5"/>
        <path class="cls-2" d="M21.1,130l-5.8,5.8v8.5c0,10.3,2.2,18.2,6.5,23.9l18.7-18.7-19.4-19.4Z"/>
        <path class="cls-2" d="M40.9,149.7l-18.8,18.8c5.3,6.7,13.8,10.1,25.4,10.1h3.4l9.4-9.4-19.4-19.4Z"/>
        <path class="cls-2" d="M21.5,50.4l19.4,19.4,6.9-6.9v-24.2c0-.3,0-.5,0-.8l-7-7-19.4,19.4Z"/>
        <path class="cls-2" d="M48,37.3c.2-.8.6-1.6,1.1-2.3,1-1,2.3-1.6,3.6-1.6h16.9c1.4,0,2.5.5,3.4,1.6.5.5.8,1,1.1,1.5l6-6-19.4-19.4-19.4,19.4,6.7,6.7Z"/>
        <polygon class="cls-2" points="60.7 10.4 66 5.2 55.5 5.2 60.7 10.4"/>
      </g>
    </g>
  </g>
</svg>