<?xml version="1.0" encoding="UTF-8"?>
<svg xmlns="http://www.w3.org/2000/svg" version="1.1" viewBox="0 0 265 180">
  <defs>
    <style>
      .cls-1 {
        fill: none;
      }

      .cls-2 {
        fill: #c59f7b;
      }
    </style>
  </defs>
  <!-- Generator: Adobe Illustrator 28.7.1, SVG Export Plug-In . SVG Version: 1.2.0 Build 142)  -->
  <g>
    <g id="Layer_1">
      <rect class="cls-1" width="265" height="180"/>
      <path class="cls-2" d="M252.9,8.6h5l-19.6,32.4h-5l19.6-32.4ZM235.6,25.1h-1.2c-4.1,0-6.2-2.2-6.2-6.6v-3.8c0-4.4,2.1-6.6,6.2-6.6h1.2c4.1,0,6.2,2.2,6.2,6.6v3.8c0,4.4-2.1,6.6-6.2,6.6ZM233.3,21c0,.3,0,.5.2.7.2.2.4.3.7.3h1.6c.3,0,.5-.1.6-.3.2-.2.3-.4.3-.7v-8.8c0-.3-.1-.5-.3-.7-.2-.2-.4-.3-.6-.3h-1.6c-.3,0-.5.1-.7.3-.2.2-.2.4-.2.7v8.8ZM256.6,24.5c4.1,0,6.2,2.2,6.2,6.6v3.8c0,4.4-2.1,6.6-6.2,6.6h-1.2c-4.1,0-6.2-2.2-6.2-6.6v-3.8c0-4.4,2.1-6.6,6.2-6.6h1.2ZM257.8,37.4v-8.8c0-.3,0-.5-.3-.7-.2-.2-.4-.3-.6-.3h-1.6c-.3,0-.5.1-.7.3-.2.2-.2.4-.2.7v8.8c0,.3,0,.5.2.7.2.2.4.3.7.3h1.6c.3,0,.5-.1.6-.3.2-.2.3-.4.3-.7Z"/>
      <g>
        <polygon class="cls-2" points="106.9 70.2 107.3 70.6 107.3 69.8 106.9 70.2"/>
        <polygon class="cls-2" points="205.2 50.4 185.7 31 174.3 42.4 174.3 58.4 185.7 69.8 205.2 50.4"/>
        <path class="cls-2" d="M146.5,30.6l4.2,4.2c1-.8,2.1-1.3,3.3-1.3h15.3c1.4,0,2.5.5,3.4,1.6,1,1,1.6,2.3,1.6,3.6v2.9l11.1-11.1-19.4-19.4-19.4,19.4Z"/>
        <polygon class="cls-2" points="69.9 113.1 66.9 110.2 64 113.1 69.9 113.1"/>
        <path class="cls-2" d="M67.3,109.8l3.3,3.3h4.4c11.3,0,19.6-3.2,25-9.5l-13.2-13.2-19.4,19.4Z"/>
        <path class="cls-2" d="M131.5,84.5c-2.3,1.1-4.3,2.5-6.1,4.2l1,1,5.1-5.1Z"/>
        <path class="cls-2" d="M114.5,52h9.9l1.6-1.6-11.5-11.5c0,.2,0,.4,0,.6v12.5Z"/>
        <path class="cls-2" d="M125,89c-1.9,1.9-3.6,4.2-4.8,6.7l5.8-5.8-1-1Z"/>
        <polygon class="cls-2" points="93.2 176 86.7 169.5 80.3 176 93.2 176"/>
        <polygon class="cls-2" points="49 128.1 47.5 129.6 49 131.1 49 128.1"/>
        <polygon class="cls-2" points="69.9 146.1 64 146.1 66.9 149 69.9 146.1"/>
        <polygon class="cls-2" points="105.2 150.4 105.2 148.4 102.9 146.1 70.6 146.1 67.3 149.4 86.7 168.8 105.2 150.4"/>
        <path class="cls-2" d="M87.1,50.4l19.4,19.4.7-.7v-29.6c0-3-.2-5.8-.6-8.4l-.2-.2-19.4,19.4Z"/>
        <path class="cls-2" d="M49,127.4v-9.1c0-1.4.4-2.6,1.3-3.6,1-1,2.3-1.6,3.6-1.6h9.4l3.3-3.3-19.4-19.4-19.4,19.4,19.4,19.4,1.9-1.9Z"/>
        <path class="cls-2" d="M73.7,63.8v12.1c0,.2,0,.4,0,.7l13.1,13.1,19.4-19.4-19.4-19.4-13,13Z"/>
        <path class="cls-2" d="M39.3,81.8l7.8,7.8,8.5-8.5h-7.7c-3.1,0-6,.2-8.6.7Z"/>
        <path class="cls-2" d="M73.7,38.7v24.4l12.7-12.7-12.8-12.8c0,.4.1.7.1,1.1Z"/>
        <path class="cls-2" d="M185.4,70.2l-11.1-11.1v16.8c0,1.4-.5,2.6-1.6,3.6-.9,1-2,1.6-3.4,1.6h-12l8.5,8.5,19.4-19.4Z"/>
        <path class="cls-2" d="M186.1,30.6l19.4,19.4,2.3-2.3v-8.2c0-10.4-2.2-18.4-6.6-24l-15.1,15.1Z"/>
        <polygon class="cls-2" points="66.9 149.7 47.5 169.2 54.3 176 79.6 176 86.4 169.2 66.9 149.7"/>
        <path class="cls-2" d="M185.7,30.2l15.2-15.2c-5.3-6.6-13.8-9.9-25.3-9.9h-3.7l-5.6,5.6,19.4,19.4Z"/>
        <path class="cls-2" d="M165.9,90.4l-19.4,19.4,4.7,4.7c1-.9,2.1-1.4,3.4-1.4h21.1c2.5,0,4.8-.2,6.9-.5l2.8-2.8-19.4-19.4Z"/>
        <path class="cls-2" d="M205.5,90.4l-19.4,19.4,1.7,1.7c9.9-2.8,16.1-9.6,18.7-20.2l-1-1Z"/>
        <path class="cls-2" d="M27,30.6l-9.7-9.7c-2.2,5-3.4,11.2-3.4,18.6v4.2l13.1-13.1Z"/>
        <path class="cls-2" d="M17.7,100.5c-1.3,4.3-2,9.2-2,14.9v5.6l11.3-11.3-9.3-9.3Z"/>
        <path class="cls-2" d="M150.8,114.8l-4.7-4.7-19.4,19.4,19.4,19.4,3.5-3.5v-27.3c0-1.3.4-2.5,1.2-3.5Z"/>
        <polygon class="cls-2" points="127.6 52 126.3 50.8 125.1 52 127.6 52"/>
        <path class="cls-2" d="M126.7,50.4l1.6,1.6h20.8v-13.3c0-1.4.4-2.5,1.2-3.6l-4.2-4.2-19.4,19.4Z"/>
        <path class="cls-2" d="M119.3,18.2c-3,5.1-4.6,11.8-4.7,20l11.8,11.8,19.4-19.4-19.4-19.4-7.1,7.1Z"/>
        <path class="cls-2" d="M46.8,90l-8.1-8.1c-10.6,2.1-17.6,8.1-20.8,18.1l9.5,9.5,19.4-19.4Z"/>
        <path class="cls-2" d="M66.9,109.4l19.4-19.4-12.8-12.8c-.2.9-.7,1.7-1.4,2.4-.9,1-2,1.6-3.4,1.6h-12.4l-8.9,8.9,19.4,19.4Z"/>
        <path class="cls-2" d="M87.1,90l13.2,13.2c4.6-5.7,6.9-13.8,6.9-24.5v-7.5l-.7-.7-19.4,19.4Z"/>
        <path class="cls-2" d="M126,10.8h0c-2.1,1.5-3.9,3.3-5.4,5.4l5.4-5.4Z"/>
        <path class="cls-2" d="M146.1,30.2l19.4-19.4-5.6-5.6h-13.2c-7.6,0-13.8,1.4-18.7,4.3l-1.4,1.4,19.4,19.4Z"/>
        <polygon class="cls-2" points="105.2 147.7 105.2 146.1 103.6 146.1 105.2 147.7"/>
        <path class="cls-2" d="M27.7,30.6l19.4,19.4,1.3-1.3v-10c0-1.4.4-2.6,1.3-3.6,1-1,2.3-1.6,3.6-1.6h10.2l2.9-2.9-19.4-19.4-19.4,19.4Z"/>
        <polygon class="cls-2" points="27.3 149.7 15.7 161.4 15.7 176 40 176 46.8 169.2 27.3 149.7"/>
        <path class="cls-2" d="M66.9,30.2l19.4-19.4-5.3-5.3c-1.9-.2-4-.3-6.1-.3h-21.9l-5.6,5.6,19.4,19.4Z"/>
        <polygon class="cls-2" points="13.9 44.4 13.9 52 45.2 52 46.8 50.4 27.3 31 13.9 44.4"/>
        <polygon class="cls-2" points="47.1 169.5 40.7 176 53.6 176 47.1 169.5"/>
        <path class="cls-2" d="M185.7,110.2l-2.4,2.4c1.4-.2,2.6-.5,3.9-.8l-1.5-1.5Z"/>
        <path class="cls-2" d="M205.9,90l.8.8c.1-.6.3-1.2.4-1.9l-1.1,1.1Z"/>
        <polygon class="cls-2" points="126.3 130 116.3 140 116.3 158.8 126.3 168.8 145.8 149.4 126.3 130"/>
        <polygon class="cls-2" points="146.1 149.7 126.7 169.2 133.5 176 158.8 176 165.6 169.2 146.1 149.7"/>
        <polygon class="cls-2" points="188.7 146.1 182.8 146.1 185.7 149 188.7 146.1"/>
        <path class="cls-2" d="M17.5,20.4l9.8,9.8,19.4-19.4-5.4-5.4c-11.7,1-19.6,6-23.9,15Z"/>
        <polygon class="cls-2" points="205.8 168.6 205.8 146.1 189.4 146.1 186.1 149.4 205.5 168.8 205.8 168.6"/>
        <polygon class="cls-2" points="185.7 149.7 166.3 169.2 173.1 176 198.4 176 205.2 169.2 185.7 149.7"/>
        <polygon class="cls-2" points="205.8 169.8 205.5 169.5 199.1 176 205.8 176 205.8 169.8"/>
        <polygon class="cls-2" points="105.2 151.1 87.1 169.2 93.9 176 105.2 176 105.2 151.1"/>
        <polygon class="cls-2" points="165.9 169.5 159.5 176 172.4 176 165.9 169.5"/>
        <path class="cls-2" d="M42,5.3l5.1,5.1,5.3-5.3h-6.3c-1.4,0-2.8,0-4.1.2Z"/>
        <polygon class="cls-2" points="126.3 169.5 119.9 176 132.8 176 126.3 169.5"/>
        <polygon class="cls-2" points="182.1 146.1 149.8 146.1 146.5 149.4 165.9 168.8 185.4 149.4 182.1 146.1"/>
        <path class="cls-2" d="M207.2,88c.5-2.8.7-5.9.7-9.3v-25.7l-2.3-2.3-19.4,19.4,19.4,19.4,1.6-1.6Z"/>
        <path class="cls-2" d="M165.6,90l-8.9-8.9h-8.1c-6.1,0-11.4.9-15.8,2.8l-6.1,6.1,19.4,19.4,19.4-19.4Z"/>
        <rect class="cls-2" x="172" y="76.2" width="27.5" height="27.5" transform="translate(-9.2 157.7) rotate(-45)"/>
        <polygon class="cls-2" points="165.9 10.4 171.2 5.2 160.7 5.2 165.9 10.4"/>
        <polygon class="cls-2" points="205.9 50.4 207.9 52.4 207.9 48.4 205.9 50.4"/>
        <path class="cls-2" d="M145.8,109.8l-19.4-19.4-6.8,6.8c-2.2,5-3.2,11.1-3.2,18.3v3.8l10,10,19.4-19.4Z"/>
        <polygon class="cls-2" points="116.3 159.5 116.3 176 119.2 176 126 169.2 116.3 159.5"/>
        <polygon class="cls-2" points="116.3 119.9 116.3 139.2 126 129.6 116.3 119.9"/>
        <path class="cls-2" d="M106.5,30.2h0c-1.8-11.4-7.3-18.9-16.4-22.5l-3.1,3.1,19.4,19.4Z"/>
        <polygon class="cls-2" points="46.8 129.6 27.3 110.2 15.7 121.8 15.7 137.4 27.3 149 46.8 129.6"/>
        <polygon class="cls-2" points="45.9 52 48.4 52 47.1 50.8 45.9 52"/>
        <polygon class="cls-2" points="27 149.4 15.7 138.1 15.7 160.7 27 149.4"/>
        <polygon class="cls-2" points="48.5 51.4 48.5 49.4 47.5 50.4 48.5 51.4"/>
        <polygon class="cls-2" points="66.6 149.4 63.3 146.1 49 146.1 49 131.8 47.1 130 27.7 149.4 47.1 168.8 66.6 149.4"/>
        <path class="cls-2" d="M64.4,33.5h4.4c.3,0,.6,0,.8,0l-2.6-2.6-2.6,2.6Z"/>
        <path class="cls-2" d="M86.7,10.4l2.9-2.9c-2.3-.9-4.9-1.5-7.7-1.9l4.8,4.8Z"/>
        <path class="cls-2" d="M70.6,33.9c.6.3,1.1.7,1.6,1.2.4.4.7.9,1,1.4l13.6,13.6,19.4-19.4-19.4-19.4-19.4,19.4,3.3,3.3Z"/>
      </g>
    </g>
  </g>
</svg>