<?xml version="1.0" encoding="UTF-8"?>
<svg xmlns="http://www.w3.org/2000/svg" version="1.1" viewBox="0 0 265 180">
  <defs>
    <style>
      .cls-1 {
        fill: none;
      }

      .cls-2 {
        fill: #c59f7b;
      }
    </style>
  </defs>
  <!-- Generator: Adobe Illustrator 28.7.1, SVG Export Plug-In . SVG Version: 1.2.0 Build 142)  -->
  <g>
    <g id="Layer_1">
      <rect class="cls-1" x=".5" width="264" height="180"/>
      <path class="cls-2" d="M252.4,8.6h5l-19.6,32.4h-5l19.6-32.4ZM235.1,25.1h-1.2c-4.1,0-6.2-2.2-6.2-6.6v-3.8c0-4.4,2.1-6.6,6.2-6.6h1.2c4.1,0,6.2,2.2,6.2,6.6v3.8c0,4.4-2.1,6.6-6.2,6.6ZM232.8,21c0,.3,0,.5.2.7.2.2.4.3.7.3h1.6c.3,0,.5-.1.6-.3.2-.2.3-.4.3-.7v-8.8c0-.3-.1-.5-.3-.7-.2-.2-.4-.3-.6-.3h-1.6c-.3,0-.5.1-.7.3-.2.2-.2.4-.2.7v8.8ZM256.1,24.5c4.1,0,6.2,2.2,6.2,6.6v3.8c0,4.4-2.1,6.6-6.2,6.6h-1.2c-4.1,0-6.2-2.2-6.2-6.6v-3.8c0-4.4,2.1-6.6,6.2-6.6h1.2ZM257.3,37.4v-8.8c0-.3,0-.5-.3-.7-.2-.2-.4-.3-.6-.3h-1.6c-.3,0-.5.1-.7.3-.2.2-.2.4-.2.7v8.8c0,.3,0,.5.2.7.2.2.4.3.7.3h1.6c.3,0,.5-.1.6-.3.2-.2.3-.4.3-.7Z"/>
      <g>
        <polygon class="cls-2" points="126.3 10.4 129 7.8 123.7 7.8 126.3 10.4"/>
        <path class="cls-2" d="M60.2,102.7h8.8c1.3,0,2.4.5,3.2,1.4l14.1-14.1-19.3-19.3h-.3l-19.3,19.3,12.7,12.7Z"/>
        <polygon class="cls-2" points="112.7 24.1 126 10.8 123 7.8 112.7 7.8 112.7 24.1"/>
        <polygon class="cls-2" points="146.5 30.6 151.5 35.6 180.4 35.6 185.4 30.6 165.9 11.2 146.5 30.6"/>
        <polygon class="cls-2" points="181.1 35.6 190.4 35.6 185.7 31 181.1 35.6"/>
        <polygon class="cls-2" points="129.7 7.8 126.7 10.8 146.1 30.2 165.6 10.8 162.6 7.8 129.7 7.8"/>
        <path class="cls-2" d="M35.6,101.9c2.8.5,5.7.8,9,.8h14.9l-12.3-12.3-11.5,11.5Z"/>
        <polygon class="cls-2" points="114.5 131.8 114.5 141.1 123.8 131.8 114.5 131.8"/>
        <path class="cls-2" d="M147.1,68.9c-.7-1-1.1-2.1-1.1-3.4v-29.9h4.8l-4.6-4.6-19.4,19.4,19.4,19.4,1-1Z"/>
        <path class="cls-2" d="M146.1,70.6l-19.4,19.4,12.4,12.4c1.9.2,3.8.3,5.9.3h8l12.7-12.7-19.4-19.4Z"/>
        <path class="cls-2" d="M184.2,71.4c-2.6-.5-5.5-.7-8.6-.7h-24.7c-1.3,0-2.5-.5-3.5-1.4l-.9.9,19.4,19.4,18.2-18.2Z"/>
        <path class="cls-2" d="M107.5,111.1l-1-1-19.4,19.4,19.4,19.4.8-.8c0-1.3.1-2.6.1-3.9v-33.2Z"/>
        <path class="cls-2" d="M92.4,175.2l-5.6-5.6-9,9c5.7-.2,10.6-1.4,14.6-3.4Z"/>
        <path class="cls-2" d="M106.9,149.4l.4.4c0-.3,0-.5,0-.8l-.4.4Z"/>
        <path class="cls-2" d="M106.2,149.4l-19.4-19.4-12.8,12.8v2.3c0,1.4-.5,2.6-1.6,3.6-.9,1-2,1.6-3.4,1.6h-.9l18.6,18.6,19.4-19.4Z"/>
        <path class="cls-2" d="M98.3,78.1c-5.3-4.9-13-7.4-23-7.4h-7.5l18.9,18.9,11.5-11.5Z"/>
        <path class="cls-2" d="M116.8,160c1.6,4.6,3.9,8.4,7.1,11.3l2.1-2.1-9.2-9.2Z"/>
        <path class="cls-2" d="M87.1,169.2l5.8,5.8c8.4-4.3,13.2-12.5,14.4-24.5l-.7-.7-19.4,19.4Z"/>
        <polygon class="cls-2" points="74 117.2 74 142 86.4 129.6 74 117.2"/>
        <path class="cls-2" d="M106.2,109.8l-19.4-19.4-14.1,14.1c.9,1,1.4,2.1,1.4,3.4v8.6l12.8,12.8,19.4-19.4Z"/>
        <polygon class="cls-2" points="166.3 10.8 185.7 30.2 201.1 14.9 201.1 7.8 169.3 7.8 166.3 10.8"/>
        <path class="cls-2" d="M67.5,150.3h-1l-18.9,18.9,9.4,9.4h18.4c.6,0,1.2,0,1.7,0l9.4-9.4-18.9-18.9Z"/>
        <path class="cls-2" d="M126.3,50.8l-13.6,13.6v4c0,2.9.2,5.6.5,8.2l13.1,13.1,19.4-19.4-19.4-19.4Z"/>
        <path class="cls-2" d="M14.2,136.6v7.7c0,6,.8,11.3,2.2,15.7l10.6-10.6-12.8-12.8Z"/>
        <path class="cls-2" d="M107.5,108.5v-3.5c0-12-3-20.8-8.9-26.6l-11.5,11.5,19.4,19.4,1-1Z"/>
        <polygon class="cls-2" points="145.8 30.6 126.3 11.2 112.7 24.8 112.7 36.4 126.3 50 145.8 30.6"/>
        <path class="cls-2" d="M121.7,95c4.1,3.9,9.6,6.3,16.6,7.2l-11.9-11.9-4.7,4.7Z"/>
        <polygon class="cls-2" points="107.5 109.2 106.9 109.8 107.5 110.4 107.5 109.2"/>
        <polygon class="cls-2" points="186.1 30.6 191.1 35.6 201.1 35.6 201.1 15.6 186.1 30.6"/>
        <polygon class="cls-2" points="126 50.4 112.7 37.1 112.7 63.7 126 50.4"/>
        <path class="cls-2" d="M113.4,77.4c1.1,7.4,3.8,13.2,8,17.3l4.7-4.7-12.6-12.6Z"/>
        <path class="cls-2" d="M205.2,90l-17.9-17.9c-.8-.2-1.6-.4-2.5-.6l-18.5,18.5,19.4,19.4,19.4-19.4Z"/>
        <polygon class="cls-2" points="12.3 46 12.3 54.8 27.3 69.8 45.6 51.6 45.6 49.2 27.3 31 12.3 46"/>
        <polygon class="cls-2" points="165.9 169.5 156.9 178.6 175 178.6 165.9 169.5"/>
        <path class="cls-2" d="M174.3,138.3v6.7c0,1.4-.5,2.6-1.6,3.6-.9,1-2,1.6-3.4,1.6h-15.3c-1.4,0-2.6-.5-3.6-1.6-.5-.6-.9-1.4-1.1-2.1l-2.8,2.8,19.4,19.4,19.4-19.4-11.1-11.1Z"/>
        <path class="cls-2" d="M14.2,83l12.8-12.8-14.6-14.6v12.8c0,5.5.6,10.4,1.9,14.6Z"/>
        <polygon class="cls-2" points="205.2 129.6 185.7 110.2 174.3 121.6 174.3 137.6 185.7 149 205.2 129.6"/>
        <path class="cls-2" d="M27.3,149.7l-10.8,10.8c3.5,9.7,10.6,15.6,21.5,17.4l8.7-8.7-19.4-19.4Z"/>
        <path class="cls-2" d="M56.2,178.6l-9.1-9.1-8.5,8.5c2.4.4,5,.6,7.7.6h9.8Z"/>
        <path class="cls-2" d="M146.1,149.7l-19.4,19.4,7.9,7.9c3.6,1,7.7,1.5,12.2,1.5h9.4l9.4-9.4-19.4-19.4Z"/>
        <path class="cls-2" d="M207.9,126.9v-21.9c0-5.3-.6-10-1.8-14.1l-.6-.6-19.4,19.4,19.4,19.4,2.3-2.3Z"/>
        <path class="cls-2" d="M207.9,132.3l-2.3-2.3-19.4,19.4,16.7,16.7c3.4-5.5,5.1-12.7,5.1-21.8v-12Z"/>
        <polygon class="cls-2" points="205.9 129.6 207.9 131.6 207.9 127.6 205.9 129.6"/>
        <path class="cls-2" d="M202.5,166.5l-16.8-16.8-19.4,19.4,9.4,9.4c12.7,0,21.6-4,26.8-12.1Z"/>
        <polygon class="cls-2" points="47.1 10.4 49.8 7.8 44.5 7.8 47.1 10.4"/>
        <polygon class="cls-2" points="12.3 15.2 27.3 30.2 46.8 10.8 43.8 7.8 12.3 7.8 12.3 15.2"/>
        <polygon class="cls-2" points="27 30.6 12.3 16 12.3 45.2 27 30.6"/>
        <polygon class="cls-2" points="100.7 24.5 100.7 7.8 90.1 7.8 87.1 10.8 100.7 24.5"/>
        <polygon class="cls-2" points="62.3 35.6 71.6 35.6 66.9 31 62.3 35.6"/>
        <path class="cls-2" d="M27.7,70.2l19.4,19.4,18.9-18.9h-15.5c-1.4,0-2.6-.5-3.6-1.6-.9-1-1.3-2.3-1.3-3.6v-13.2l-17.9,17.9Z"/>
        <polygon class="cls-2" points="44.6 131.8 14.2 131.8 14.2 135.9 27.3 149 44.6 131.8"/>
        <path class="cls-2" d="M14.4,83.5c3.2,10,10.1,16.1,20.6,18.3l11.8-11.8-19.4-19.4-12.9,12.9Z"/>
        <polygon class="cls-2" points="165.9 10.4 168.6 7.8 163.3 7.8 165.9 10.4"/>
        <polygon class="cls-2" points="86.7 10.4 89.4 7.8 84.1 7.8 86.7 10.4"/>
        <polygon class="cls-2" points="27.7 30.6 45.6 48.5 45.6 35.6 61.6 35.6 66.6 30.6 47.1 11.2 27.7 30.6"/>
        <polygon class="cls-2" points="72.3 35.6 100.7 35.6 100.7 25.2 86.7 11.2 67.3 30.6 72.3 35.6"/>
        <path class="cls-2" d="M185.4,109.8l-19.4-19.4-12.3,12.3h15.8c1.4,0,2.5.5,3.4,1.6,1,1,1.6,2.3,1.6,3.6v13l11.1-11.1Z"/>
        <path class="cls-2" d="M205.7,89.5c-2.9-8.8-8.7-14.5-17.4-17.1l17.3,17.3h.1Z"/>
        <path class="cls-2" d="M65.7,150.3h-12c-1.4,0-2.6-.5-3.6-1.6-.9-1-1.3-2.3-1.3-3.6v-13.3h-3.5l-17.6,17.6,19.4,19.4,18.6-18.6Z"/>
        <polygon class="cls-2" points="66.9 30.2 86.4 10.8 83.4 7.8 50.5 7.8 47.5 10.8 66.9 30.2"/>
        <path class="cls-2" d="M149.2,146c0-.3,0-.6,0-.9v-13.3h-20.2l17.2,17.2,3-3Z"/>
        <path class="cls-2" d="M126.3,169.5l-2.1,2.1c2.6,2.3,5.7,4,9.3,5.1l-7.2-7.2Z"/>
        <path class="cls-2" d="M128.2,131.8h-3.7l-10,10v2.5c0,5.6.6,10.4,1.9,14.6l9.9,9.9,19.4-19.4-17.6-17.6Z"/>
      </g>
    </g>
  </g>
</svg>