<?xml version="1.0" encoding="UTF-8"?>
<svg xmlns="http://www.w3.org/2000/svg" version="1.1" viewBox="0 0 263 180">
  <defs>
    <style>
      .cls-1 {
        fill: none;
      }

      .cls-2 {
        fill: #c59f7b;
      }
    </style>
  </defs>
  <!-- Generator: Adobe Illustrator 28.7.1, SVG Export Plug-In . SVG Version: 1.2.0 Build 142)  -->
  <g>
    <g id="Layer_1">
      <rect class="cls-1" x=".5" width="262" height="180"/>
      <path class="cls-2" d="M250.4,8.6h5l-19.6,32.4h-5l19.6-32.4ZM233.1,25.1h-1.2c-4.1,0-6.2-2.2-6.2-6.6v-3.8c0-4.4,2.1-6.6,6.2-6.6h1.2c4.1,0,6.2,2.2,6.2,6.6v3.8c0,4.4-2.1,6.6-6.2,6.6ZM230.8,21c0,.3,0,.5.2.7.2.2.4.3.7.3h1.6c.3,0,.5-.1.6-.3.2-.2.3-.4.3-.7v-8.8c0-.3-.1-.5-.3-.7-.2-.2-.4-.3-.6-.3h-1.6c-.3,0-.5.1-.7.3-.2.2-.2.4-.2.7v8.8ZM254.1,24.5c4.1,0,6.2,2.2,6.2,6.6v3.8c0,4.4-2.1,6.6-6.2,6.6h-1.2c-4.1,0-6.2-2.2-6.2-6.6v-3.8c0-4.4,2.1-6.6,6.2-6.6h1.2ZM255.3,37.4v-8.8c0-.3-.1-.5-.3-.7-.2-.2-.4-.3-.7-.3h-1.5c-.3,0-.5.1-.7.3-.2.2-.2.4-.2.7v8.8c0,.3,0,.5.2.7.2.2.4.3.7.3h1.5c.3,0,.5-.1.7-.3.2-.2.3-.4.3-.7Z"/>
      <g>
        <path class="cls-2" d="M59.2,102.7h10.1c1,0,1.9.3,2.6.8l13.5-13.5-19.3-19.3h-.3l-19.3,19.3,12.7,12.7Z"/>
        <path class="cls-2" d="M34.8,101.7c3,.7,6.4,1,10,1h13.6l-12.3-12.3-11.3,11.3Z"/>
        <polygon class="cls-2" points="149.6 65.4 149.6 35.4 145.1 31 125.7 50.4 145.1 69.8 149.6 65.4"/>
        <polygon class="cls-2" points="204.2 50.4 184.7 31 174.3 41.4 174.3 59.4 184.7 69.8 204.2 50.4"/>
        <path class="cls-2" d="M105.2,149.4l-19.4-19.4-11.5,11.5v3.6c0,1.4-.5,2.6-1.6,3.6-.9,1-2,1.6-3.4,1.6h-2.1l18.6,18.6,19.4-19.4Z"/>
        <polygon class="cls-2" points="149.6 66.1 145.5 70.2 149.6 74.3 149.6 66.1"/>
        <path class="cls-2" d="M146.5,5.2c-8.7,0-15.6,1.9-20.8,5.6h0s19.4,19.4,19.4,19.4l19.4-19.4-5.6-5.6h-12.5Z"/>
        <path class="cls-2" d="M184.4,30.6l-19.4-19.4-19.4,19.4,4.2,4.2c0-1.3.5-2.4,1.3-3.3,1-1,2.3-1.6,3.6-1.6h14.8c1.4,0,2.5.5,3.4,1.6,1,1,1.6,2.3,1.6,3.6v5.6l10.1-10.1Z"/>
        <polygon class="cls-2" points="149.6 105.7 145.5 109.8 149.6 113.9 149.6 105.7"/>
        <polygon class="cls-2" points="149.6 105 149.6 75 145.1 70.6 125.7 90 145.1 109.4 149.6 105"/>
        <path class="cls-2" d="M91.8,175.6l-6-6-9,9c5.9-.1,10.9-1.1,15.1-3Z"/>
        <polygon class="cls-2" points="144.8 109.8 125.3 90.4 114.3 101.4 114.3 118.2 125.3 129.2 144.8 109.8"/>
        <polygon class="cls-2" points="174.3 60.1 174.3 80.3 184.4 70.2 174.3 60.1"/>
        <polygon class="cls-2" points="114.3 118.9 114.3 140.3 125 129.6 114.3 118.9"/>
        <path class="cls-2" d="M105.9,149.4l1.5,1.5c.1-1.1.2-2.2.3-3.3l-1.8,1.8Z"/>
        <path class="cls-2" d="M107.8,112.4l-2.2-2.2-19.4,19.4,19.4,19.4,2.2-2.2c0-.8,0-1.7,0-2.6v-31.9Z"/>
        <polygon class="cls-2" points="101 35.6 101 35.5 100.9 35.6 101 35.6"/>
        <path class="cls-2" d="M98.2,77.9l-12.1,12.1,19.4,19.4,2.2-2.2v-2.2c0-12.4-3.2-21.5-9.5-27.2Z"/>
        <path class="cls-2" d="M116.9,161.1c1.5,3.9,3.6,7.2,6.3,9.8l1.7-1.7-8.1-8.1Z"/>
        <polygon class="cls-2" points="209.7 45.6 204.9 50.4 209.7 55.2 209.7 45.6"/>
        <path class="cls-2" d="M86.1,169.2l6.2,6.2c8.7-4.1,13.7-12,15.1-23.8l-1.8-1.8-19.4,19.4Z"/>
        <polygon class="cls-2" points="144.8 70.2 125.3 50.8 114.3 61.8 114.3 78.6 125.3 89.6 144.8 70.2"/>
        <path class="cls-2" d="M66.5,150.3h-1l-18.9,18.9,9.4,9.4h19.6c.2,0,.3,0,.5,0l9.4-9.4-18.9-18.9Z"/>
        <path class="cls-2" d="M14.4,137.8v6.4c0,5.6.6,10.5,1.9,14.7l9.6-9.6-11.6-11.6Z"/>
        <path class="cls-2" d="M184.7,30.2l16.7-16.7c-5.4-5.6-13.4-8.4-24-8.4h-6.5l-5.6,5.6,19.4,19.4Z"/>
        <path class="cls-2" d="M185.1,30.6l19.4,19.4,5.1-5.1v-5.4c0-11.3-2.6-19.9-7.9-25.6l-16.7,16.7Z"/>
        <path class="cls-2" d="M97.9,77.5c-5.3-4.5-12.7-6.8-22.3-6.8h-8.7l18.9,18.9,12.1-12.1Z"/>
        <polygon class="cls-2" points="114.3 79.3 114.3 100.7 125 90 114.3 79.3"/>
        <polygon class="cls-2" points="125 50.4 114.3 39.7 114.3 61.1 125 50.4"/>
        <path class="cls-2" d="M114.3,39l11.1,11.1,19.4-19.4-19.4-19.4-4.9,4.9c-4,5.5-6,13.2-6.1,22.9Z"/>
        <polygon class="cls-2" points="107.8 107.9 105.9 109.8 107.8 111.7 107.8 107.9"/>
        <polygon class="cls-2" points="74.2 118.4 74.2 140.8 85.4 129.6 74.2 118.4"/>
        <path class="cls-2" d="M105.2,109.8l-19.4-19.4-13.5,13.5c.1.1.3.3.4.4,1,1,1.6,2.3,1.6,3.6v9.9l11.5,11.5,19.4-19.4Z"/>
        <polygon class="cls-2" points="49 131.8 48.7 131.8 49 132.1 49 131.8"/>
        <polygon class="cls-2" points="164.9 169.5 155.9 178.6 174 178.6 164.9 169.5"/>
        <polygon class="cls-2" points="164.9 10.4 170.2 5.2 159.7 5.2 164.9 10.4"/>
        <path class="cls-2" d="M174.3,139.3v9.1c0,1.4-.5,2.6-1.6,3.6-.9,1-2,1.6-3.4,1.6h-14.8c-1.4,0-2.6-.5-3.6-1.6-.9-1-1.3-2.3-1.3-3.6v-3.2l-4.1,4.1,19.4,19.4,19.4-19.4-10.1-10.1Z"/>
        <path class="cls-2" d="M55.2,178.6l-9.1-9.1-8.3,8.3c2.7.5,5.6.8,8.8.8h8.5Z"/>
        <path class="cls-2" d="M26.3,149.7l-9.8,9.8c3.2,10,10.1,16,20.7,18.2l8.5-8.5-19.4-19.4Z"/>
        <polygon class="cls-2" points="26.7 30.6 45.9 49.8 45.9 35.6 60.6 35.6 65.6 30.6 46.1 11.2 26.7 30.6"/>
        <polygon class="cls-2" points="12.6 44.7 12.6 56.1 26.3 69.8 45.8 50.4 26.3 31 12.6 44.7"/>
        <path class="cls-2" d="M14.2,82l11.8-11.8-13.4-13.4v11.5c0,5.1.5,9.6,1.6,13.6Z"/>
        <polygon class="cls-2" points="204.2 129.6 184.7 110.2 174.3 120.6 174.3 138.6 184.7 149 204.2 129.6"/>
        <polygon class="cls-2" points="209.7 124.1 209.7 95.5 204.5 90.4 185.1 109.8 204.5 129.2 209.7 124.1"/>
        <polygon class="cls-2" points="204.9 129.6 209.7 134.4 209.7 124.8 204.9 129.6"/>
        <path class="cls-2" d="M203.2,168.2l-18.4-18.4-19.4,19.4,9.4,9.4h2.7c11.8,0,20.4-3.5,25.7-10.4Z"/>
        <path class="cls-2" d="M209.7,135.1l-5.2-5.2-19.4,19.4,18.4,18.4c4.1-5.6,6.2-13.5,6.2-23.5v-9.2Z"/>
        <polygon class="cls-2" points="26 30.6 12.6 17.2 12.6 44 26 30.6"/>
        <polygon class="cls-2" points="46.1 10.4 48.8 7.8 43.5 7.8 46.1 10.4"/>
        <polygon class="cls-2" points="12.6 16.5 26.3 30.2 45.8 10.8 42.8 7.8 12.6 7.8 12.6 16.5"/>
        <path class="cls-2" d="M145.1,149.7l-19.4,19.4,7.5,7.5c3.8,1.2,8.3,1.9,13.3,1.9h8.7l9.4-9.4-19.4-19.4Z"/>
        <path class="cls-2" d="M14.4,82.5c2.9,10.3,9.6,16.6,19.9,19l11.6-11.6-19.4-19.4-12,12Z"/>
        <polygon class="cls-2" points="61.3 35.6 70.6 35.6 65.9 31 61.3 35.6"/>
        <path class="cls-2" d="M26.7,70.2l19.4,19.4,18.9-18.9h-14.3c-1.4,0-2.6-.5-3.6-1.6-.9-1-1.3-2.3-1.3-3.6v-14.5l-19.2,19.2Z"/>
        <path class="cls-2" d="M64.7,150.3h-10.8c-1.4,0-2.6-.5-3.6-1.6-.9-1-1.3-2.3-1.3-3.6v-12.2l-1-1h-3.7l-17.6,17.6,19.4,19.4,18.6-18.6Z"/>
        <polygon class="cls-2" points="43.6 131.8 14.4 131.8 14.4 137.1 26.3 149 43.6 131.8"/>
        <polygon class="cls-2" points="101 25.7 101 7.8 89.1 7.8 86.1 10.8 101 25.7"/>
        <polygon class="cls-2" points="71.3 35.6 100.2 35.6 101 34.8 101 26.4 85.7 11.2 66.3 30.6 71.3 35.6"/>
        <polygon class="cls-2" points="85.7 10.4 88.4 7.8 83.1 7.8 85.7 10.4"/>
        <polygon class="cls-2" points="65.9 30.2 85.4 10.8 82.4 7.8 49.5 7.8 46.5 10.8 65.9 30.2"/>
        <polygon class="cls-2" points="204.2 90 184.7 70.6 174.3 81 174.3 99 184.7 109.4 204.2 90"/>
        <polygon class="cls-2" points="209.7 84.5 209.7 55.9 204.5 50.8 185.1 70.2 204.5 89.6 209.7 84.5"/>
        <polygon class="cls-2" points="209.7 85.2 204.9 90 209.7 94.8 209.7 85.2"/>
        <polygon class="cls-2" points="149.6 144.6 149.6 114.6 145.1 110.2 125.7 129.6 145.1 149 149.6 144.6"/>
        <polygon class="cls-2" points="174.3 99.7 174.3 119.9 184.4 109.8 174.3 99.7"/>
        <path class="cls-2" d="M125.3,130l-11.1,11.1v3.3c0,6.1.8,11.3,2.3,15.8l8.8,8.8,19.4-19.4-19.4-19.4Z"/>
        <path class="cls-2" d="M125.3,169.5l-1.7,1.7c2.4,2.2,5.2,3.9,8.5,5.1l-6.8-6.8Z"/>
      </g>
    </g>
  </g>
</svg>