<?xml version="1.0" encoding="UTF-8"?>
<svg xmlns="http://www.w3.org/2000/svg" version="1.1" viewBox="0 0 201 180">
  <defs>
    <style>
      .cls-1 {
        fill: none;
      }

      .cls-2 {
        fill: #c59f7b;
      }
    </style>
  </defs>
  <!-- Generator: Adobe Illustrator 28.7.1, SVG Export Plug-In . SVG Version: 1.2.0 Build 142)  -->
  <g>
    <g id="Layer_1">
      <rect class="cls-1" x=".5" width="200" height="180"/>
      <path class="cls-2" d="M188.4,8.6h5l-19.6,32.4h-5l19.6-32.4ZM171.1,25.1h-1.2c-4.1,0-6.2-2.2-6.2-6.6v-3.8c0-4.4,2.1-6.6,6.2-6.6h1.2c4.1,0,6.2,2.2,6.2,6.6v3.8c0,4.4-2.1,6.6-6.2,6.6ZM168.8,21c0,.3,0,.5.2.7.2.2.4.3.7.3h1.6c.3,0,.5-.1.6-.3.2-.2.3-.4.3-.7v-8.8c0-.3-.1-.5-.3-.7-.2-.2-.4-.3-.6-.3h-1.6c-.3,0-.5.1-.7.3-.2.2-.2.4-.2.7v8.8ZM192.1,24.5c4.1,0,6.2,2.2,6.2,6.6v3.8c0,4.4-2.1,6.6-6.2,6.6h-1.2c-4.1,0-6.2-2.2-6.2-6.6v-3.8c0-4.4,2.1-6.6,6.2-6.6h1.2ZM193.3,37.4v-8.8c0-.3-.1-.5-.3-.7-.2-.2-.4-.3-.7-.3h-1.5c-.3,0-.5.1-.7.3-.2.2-.2.4-.2.7v8.8c0,.3,0,.5.2.7.2.2.4.3.7.3h1.5c.3,0,.5-.1.7-.3.2-.2.3-.4.3-.7Z"/>
      <g>
        <polygon class="cls-2" points="141.6 82.7 134.3 90 141.6 97.3 141.6 82.7"/>
        <polygon class="cls-2" points="55.9 49.6 55.6 50.9 74.5 69.8 89.4 55 91 47.4 74.5 31 55.9 49.6"/>
        <polygon class="cls-2" points="68.7 154.9 70.6 145.8 54.7 130 36.8 147.9 36.3 150.4 54.7 168.8 68.7 154.9"/>
        <polygon class="cls-2" points="133.6 50.4 114.1 31 106.2 38.9 106.2 61.9 114.1 69.8 133.6 50.4"/>
        <polygon class="cls-2" points="106.2 62.6 106.2 77.8 113.8 70.2 106.2 62.6"/>
        <polygon class="cls-2" points="74.9 109.8 77.5 112.4 78.9 105.8 74.9 109.8"/>
        <polygon class="cls-2" points="64.3 176 68.5 155.8 55.1 169.2 61.9 176 64.3 176"/>
        <polygon class="cls-2" points="141.6 57.7 141.6 43.1 134.3 50.4 141.6 57.7"/>
        <polygon class="cls-2" points="133.6 90 114.1 70.6 106.2 78.5 106.2 101.5 114.1 109.4 133.6 90"/>
        <polygon class="cls-2" points="106.2 102.2 106.2 117.4 113.8 109.8 106.2 102.2"/>
        <polygon class="cls-2" points="106.2 38.2 113.8 30.6 106.2 23 106.2 38.2"/>
        <polygon class="cls-2" points="91.1 46.8 97.8 14.6 94.3 11.2 74.9 30.6 91.1 46.8"/>
        <polygon class="cls-2" points="74.9 70.2 84.3 79.6 89.2 55.9 74.9 70.2"/>
        <polygon class="cls-2" points="55.1 90 74.5 109.4 79.1 104.9 84.2 80.2 74.5 70.6 55.1 90"/>
        <polygon class="cls-2" points="97.9 14 99.2 7.8 97.7 7.8 94.7 10.8 97.9 14"/>
        <polygon class="cls-2" points="94.3 10.4 97 7.8 91.7 7.8 94.3 10.4"/>
        <polygon class="cls-2" points="74.2 109.8 54.7 90.4 46.3 98.8 42.7 117.2 54.7 129.2 74.2 109.8"/>
        <polygon class="cls-2" points="42.6 117.8 37 147 54.4 129.6 42.6 117.8"/>
        <polygon class="cls-2" points="77.4 113 74.5 110.2 55.1 129.6 70.7 145.2 77.4 113"/>
        <polygon class="cls-2" points="54.4 90 49.1 84.7 46.5 97.9 54.4 90"/>
        <polygon class="cls-2" points="49.2 84.1 54.7 89.6 74.2 70.2 55.5 51.5 49.2 84.1"/>
        <polygon class="cls-2" points="141.6 82 141.6 58.4 133.9 50.8 114.5 70.2 133.9 89.6 141.6 82"/>
        <polygon class="cls-2" points="114.1 149.7 106.2 157.7 106.2 176.3 126.5 176.3 133.6 169.2 114.1 149.7"/>
        <polygon class="cls-2" points="13.4 12.9 13.4 35.6 29.6 35.6 34.6 30.6 15.1 11.2 13.4 12.9"/>
        <polygon class="cls-2" points="34.9 30.2 54.4 10.8 51.4 7.8 18.5 7.8 15.5 10.8 34.9 30.2"/>
        <polygon class="cls-2" points="141.6 18.1 141.6 8 137.1 8 134.3 10.8 141.6 18.1"/>
        <polygon class="cls-2" points="141.6 122.3 134.3 129.6 141.6 136.9 141.6 122.3"/>
        <polygon class="cls-2" points="133.9 169.5 127.2 176.3 140.7 176.3 133.9 169.5"/>
        <polygon class="cls-2" points="141.6 121.6 141.6 98 133.9 90.4 114.5 109.8 133.9 129.2 141.6 121.6"/>
        <polygon class="cls-2" points="14.8 10.8 13.4 9.4 13.4 12.2 14.8 10.8"/>
        <polygon class="cls-2" points="141.6 161.9 134.3 169.2 141.4 176.3 141.6 176.3 141.6 161.9"/>
        <polygon class="cls-2" points="141.6 137.6 133.9 130 114.5 149.4 133.9 168.8 141.6 161.2 141.6 137.6"/>
        <polygon class="cls-2" points="13.4 8.7 15.1 10.4 17.8 7.8 13.4 7.8 13.4 8.7"/>
        <polygon class="cls-2" points="54.7 169.5 48.3 176 61.2 176 54.7 169.5"/>
        <polygon class="cls-2" points="54.7 10.4 57.4 7.8 52.1 7.8 54.7 10.4"/>
        <polygon class="cls-2" points="74.5 30.2 94 10.8 91 7.8 58.1 7.8 55.1 10.8 74.5 30.2"/>
        <polygon class="cls-2" points="106.2 22.3 114.1 30.2 133.6 10.8 130.8 8 106.2 8 106.2 22.3"/>
        <polygon class="cls-2" points="40.3 35.6 58.6 35.6 56.1 48.7 74.2 30.6 54.7 11.2 35.3 30.6 40.3 35.6"/>
        <polygon class="cls-2" points="131.5 8 133.9 10.4 136.4 8 131.5 8"/>
        <polygon class="cls-2" points="30.3 35.6 39.6 35.6 34.9 31 30.3 35.6"/>
        <polygon class="cls-2" points="114.5 30.6 133.9 50 141.6 42.4 141.6 18.8 133.9 11.2 114.5 30.6"/>
        <polygon class="cls-2" points="133.6 129.6 114.1 110.2 106.2 118.1 106.2 141.1 114.1 149 133.6 129.6"/>
        <polygon class="cls-2" points="106.2 141.8 106.2 157 113.8 149.4 106.2 141.8"/>
        <polygon class="cls-2" points="54.4 169.2 36.2 151 31.3 176 47.6 176 54.4 169.2"/>
      </g>
    </g>
  </g>
</svg>