<?xml version="1.0" encoding="UTF-8"?>
<svg xmlns="http://www.w3.org/2000/svg" version="1.1" viewBox="0 0 259 180">
  <defs>
    <style>
      .cls-1 {
        fill: none;
      }

      .cls-2 {
        fill: #c59f7b;
      }
    </style>
  </defs>
  <!-- Generator: Adobe Illustrator 28.7.1, SVG Export Plug-In . SVG Version: 1.2.0 Build 142)  -->
  <g>
    <g id="Layer_1">
      <rect class="cls-1" x=".5" width="258" height="180"/>
      <path class="cls-2" d="M246.4,8.6h5l-19.6,32.4h-5l19.6-32.4ZM229.1,25.1h-1.2c-4.1,0-6.2-2.2-6.2-6.6v-3.8c0-4.4,2.1-6.6,6.2-6.6h1.2c4.1,0,6.2,2.2,6.2,6.6v3.8c0,4.4-2.1,6.6-6.2,6.6ZM226.8,21c0,.3,0,.5.2.7.2.2.4.3.7.3h1.6c.3,0,.5-.1.6-.3.2-.2.3-.4.3-.7v-8.8c0-.3-.1-.5-.3-.7-.2-.2-.4-.3-.6-.3h-1.6c-.3,0-.5.1-.7.3-.2.2-.2.4-.2.7v8.8ZM250.1,24.5c4.1,0,6.2,2.2,6.2,6.6v3.8c0,4.4-2.1,6.6-6.2,6.6h-1.2c-4.1,0-6.2-2.2-6.2-6.6v-3.8c0-4.4,2.1-6.6,6.2-6.6h1.2ZM251.3,37.4v-8.8c0-.3-.1-.5-.3-.7-.2-.2-.4-.3-.7-.3h-1.5c-.3,0-.5.1-.7.3-.2.2-.2.4-.2.7v8.8c0,.3,0,.5.2.7.2.2.4.3.7.3h1.5c.3,0,.5-.1.7-.3.2-.2.3-.4.3-.7Z"/>
      <g>
        <polygon class="cls-2" points="48.6 92.9 41.7 86 16.5 86 15.3 87.3 15.3 98.5 29.1 112.3 48.6 92.9"/>
        <polygon class="cls-2" points="55.4 86 42.4 86 48.9 92.5 55.4 86"/>
        <polygon class="cls-2" points="88.2 92.9 81.3 86 56.1 86 49.3 92.9 68.7 112.3 88.2 92.9"/>
        <polygon class="cls-2" points="103.9 108.7 88.5 93.2 69.1 112.7 70.2 113.9 103.9 113.9 103.9 108.7"/>
        <polygon class="cls-2" points="69.5 113.9 68.7 113 67.9 113.9 69.5 113.9"/>
        <polygon class="cls-2" points="103.9 107.9 103.9 86 95.7 86 88.9 92.9 103.9 107.9"/>
        <polygon class="cls-2" points="187.9 112.7 189 113.9 201.2 113.9 201.2 99.3 187.9 112.7"/>
        <polygon class="cls-2" points="48.9 93.2 29.5 112.7 30.6 113.9 67.2 113.9 68.4 112.7 48.9 93.2"/>
        <polygon class="cls-2" points="120.9 86 112.6 86 112.6 108.1 127.8 92.9 120.9 86"/>
        <polygon class="cls-2" points="95 86 82 86 88.5 92.5 95 86"/>
        <polygon class="cls-2" points="15.3 86 15.3 86.6 15.8 86 15.3 86"/>
        <polygon class="cls-2" points="201.2 98.6 201.2 87.2 200.1 86 174.9 86 168.1 92.9 187.5 112.3 201.2 98.6"/>
        <polygon class="cls-2" points="167.7 93.2 148.3 112.7 149.4 113.9 186 113.9 187.2 112.7 167.7 93.2"/>
        <polygon class="cls-2" points="200.8 86 201.2 86.5 201.2 86 200.8 86"/>
        <polygon class="cls-2" points="174.2 86 161.2 86 167.7 92.5 174.2 86"/>
        <polygon class="cls-2" points="134.6 86 121.6 86 128.1 92.5 134.6 86"/>
        <polygon class="cls-2" points="187.5 113 186.7 113.9 188.3 113.9 187.5 113"/>
        <polygon class="cls-2" points="29.1 113 28.3 113.9 29.9 113.9 29.1 113"/>
        <polygon class="cls-2" points="15.3 99.2 15.3 113.9 27.6 113.9 28.8 112.7 15.3 99.2"/>
        <polygon class="cls-2" points="147.9 113 147.1 113.9 148.7 113.9 147.9 113"/>
        <polygon class="cls-2" points="128.1 93.2 112.6 108.8 112.6 113.9 146.4 113.9 147.6 112.7 128.1 93.2"/>
        <polygon class="cls-2" points="160.5 86 135.3 86 128.5 92.9 147.9 112.3 167.4 92.9 160.5 86"/>
      </g>
    </g>
  </g>
</svg>