<?xml version="1.0" encoding="UTF-8"?>
<svg id="Layer_2" xmlns="http://www.w3.org/2000/svg" viewBox="0 0 255.12 255.12">
  <defs>
    <style>
      .cls-1 {
        fill: none;
      }

      .cls-2 {
        fill: #231f20;
      }

      .cls-3 {
        fill: #8e8e93;
      }

      .cls-4 {
        fill: #fff;
      }
    </style>
  </defs>
  <g id="Layer_1-2" data-name="Layer_1">
    <g>
      <circle class="cls-3" cx="126.05" cy="103.03" r="82.04"/>
      <path d="M70.3,194.57l-8.02,35.72c-.06.26-.2.49-.4.66-3.77,3.26-7.53,7.81-7.13,9.38.07.28.43.49,1.05.63l32.7,1.5,11.57.14c.11,0,2.68.16,4.66-1.68,1.63-1.52,2.47-3.99,2.48-7.35l6.13-51.72c.08-.68.72-1.18,1.37-1.08.68.08,1.16.69,1.08,1.37l-6.12,51.58c0,3.94-1.11,7.03-3.29,9.04-2.3,2.11-5.07,2.32-6.05,2.32-.21,0-.34,0-.37-.01l-11.53-.14-32.95-1.53c-2.22-.46-2.9-1.58-3.12-2.45-.93-3.64,5.21-9.49,7.59-11.59l7.73-34.41"/>
      <path d="M179.8,186.51l10.45,42.84c2.37,2.09,8.53,7.94,7.6,11.59-.22.87-.91,1.99-2.93,2.42l-33.11,1.56-11.66.15s-.12,0-.31,0c-.93,0-3.71-.2-6.02-2.32-2.18-2.01-3.29-5.09-3.3-9.18l-6.12-51.55c-.08-.67.4-1.29,1.08-1.37.68-.1,1.29.4,1.37,1.08l6.13,51.69c.02,3.49.85,5.97,2.49,7.49,1.98,1.84,4.56,1.7,4.59,1.69l11.69-.15,32.86-1.53c.43-.11.78-.32.85-.6.4-1.57-3.36-6.12-7.12-9.38-.19-.17-.33-.39-.39-.64l-10.72-43.98"/>
      <path d="M40.83,100.09c-.33,0-.66-.13-.9-.39-.46-.5-.44-1.28.06-1.74l4.15-3.89c.45-.42,1.13-.45,1.61-.06l4.51,3.61c.53.43.62,1.2.19,1.73-.43.53-1.21.62-1.73.19l-3.68-2.95-3.37,3.16c-.24.22-.54.33-.84.33Z"/>
      <path d="M41.23,114.5c-.25,0-.49-.07-.71-.23-.56-.39-.69-1.16-.3-1.72l3.28-4.65c.35-.5,1.01-.67,1.57-.39l5.15,2.63c.61.31.85,1.05.54,1.66-.31.61-1.05.85-1.66.54l-4.2-2.14-2.67,3.78c-.24.34-.62.52-1.01.52Z"/>
      <path d="M44.03,127.23c-.17,0-.33-.03-.5-.1-.62-.27-.91-1-.63-1.63l2.29-5.21c.25-.56.87-.87,1.46-.69l5.57,1.55c.66.18,1.04.86.86,1.52-.18.66-.85,1.04-1.52.86l-4.54-1.26-1.86,4.23c-.2.46-.65.74-1.13.74Z"/>
      <path d="M48.61,139.19c-.12,0-.23-.02-.35-.05-.65-.2-1.02-.88-.83-1.53l1.62-5.46c.18-.59.74-.97,1.36-.87l5.72.84c.67.1,1.14.73,1.04,1.4-.1.67-.7,1.14-1.4,1.04l-4.66-.69-1.32,4.43c-.16.53-.65.88-1.18.88Z"/>
      <path d="M211.27,100.09c-.3,0-.6-.11-.84-.33l-3.37-3.16-3.68,2.95c-.52.42-1.3.34-1.73-.19-.42-.53-.34-1.31.19-1.73l4.51-3.61c.48-.38,1.17-.35,1.61.06l4.15,3.89c.5.47.52,1.25.06,1.74-.24.26-.57.39-.9.39Z"/>
      <path d="M210.86,114.5c-.39,0-.77-.18-1.01-.52l-2.67-3.78-4.2,2.14c-.6.31-1.35.07-1.66-.54-.31-.61-.07-1.35.54-1.66l5.15-2.63c.55-.28,1.22-.11,1.57.39l3.28,4.65c.39.56.26,1.33-.3,1.72-.22.15-.46.23-.71.23Z"/>
      <path d="M208.07,127.23c-.47,0-.92-.27-1.13-.74l-1.86-4.23-4.54,1.26c-.67.18-1.34-.2-1.52-.86-.18-.65.2-1.33.86-1.52l5.57-1.55c.59-.16,1.21.13,1.46.69l2.29,5.21c.27.62,0,1.35-.63,1.63-.16.07-.33.1-.5.1Z"/>
      <path d="M203.48,139.19c-.53,0-1.02-.35-1.18-.88l-1.32-4.43-4.66.69c-.69.1-1.3-.37-1.4-1.04-.1-.67.37-1.3,1.04-1.4l5.72-.84c.64-.1,1.19.28,1.36.87l1.62,5.46c.19.65-.18,1.34-.83,1.53-.12.03-.24.05-.35.05Z"/>
      <path class="cls-2" d="M69.89,195.67c-.07.02-.15.04-.22.06-3.48.96-6.81.74-9.9-.65-2.33-1.05-4.43-2.84-6.06-5.18-32.9-47.21-12.94-112.72-12.76-113.47.16-.66.83-1.07,1.49-.9.66.16,1.07.83.9,1.49-.18.74-19.87,65.19,12.39,111.47,1.38,1.98,3.12,3.48,5.05,4.35,2.55,1.15,5.32,1.32,8.23.52,1.63-.41,3.2-1.3,4.59-2.46,1.88-1.57,5.71-4.23,10.32-4.36.23.01,4.11.48,6.55-1.79,1.5-1.41,2.18-3.63,2.01-6.61-.07-1.21-.38-2.51-.91-3.86-3.22-8.09-13.6-35.54-12.03-49.04.08-.67.69-1.16,1.37-1.08.68.08,1.16.69,1.08,1.37-1.54,13.26,9.62,42.18,11.88,47.84.63,1.59,1,3.15,1.08,4.63.21,3.76-.73,6.64-2.81,8.57-3.28,3.05-8.13,2.45-8.34,2.42-3.67.12-6.98,2.43-8.61,3.8-1.59,1.34-3.42,2.33-5.3,2.89Z"/>
      <path class="cls-2" d="M92.08,172.72c12.22,5.06,24.59,7.12,33.97,7.12.68,0,1.23.55,1.23,1.23s-.55,1.23-1.23,1.23c-9.43,0-21.81-2.02-34.11-6.99"/>
      <path class="cls-2" d="M42.19,77.84c-.07,0-.15,0-.23-.02-.67-.13-1.11-.77-.99-1.44C46.88,44.22,78.69,10.04,126.01,10.04c.73.03,1.27.54,1.27,1.23s-.55,1.23-1.23,1.23h-.04c-45.98,0-76.88,33.14-82.61,64.33-.11.59-.63,1.01-1.21,1.01Z"/>
      <path class="cls-2" d="M192.97,193.04c-1.92-.35-3.85-1.14-5.57-2.3-1.77-1.19-5.31-3.13-9.16-2.83,0,.02-4.77,1.12-8.35-1.55-2.27-1.7-3.52-4.46-3.71-8.22-.08-1.48.12-3.07.58-4.72,1.64-5.87,9.65-35.82,6.7-48.83-.15-.66.27-1.32.93-1.47.67-.15,1.32.27,1.47.93,3,13.25-4.39,41.65-6.72,50.04-.39,1.39-.56,2.72-.5,3.93.15,2.99,1.07,5.13,2.72,6.37,2.67,1.99,6.45,1.11,6.49,1.1,4.79-.39,8.89,1.84,10.92,3.21,1.51,1.01,3.15,1.72,4.83,1.95,2.98.49,5.71.02,8.13-1.4,1.82-1.07,3.4-2.75,4.56-4.86,27.13-49.46-.86-119.18-2.02-122.09-.25-.63.1-1.35.74-1.58.64-.24,1.35.1,1.58.74.26.73,29.53,73.67,1.87,124.12-1.37,2.5-3.27,4.5-5.47,5.8-2.93,1.72-6.21,2.29-9.77,1.7-.08-.01-.15-.02-.23-.04Z"/>
      <path class="cls-2" d="M170.08,170.61c-15.29,8.43-32.04,11.69-44.03,11.69-.68,0-1.23-.55-1.23-1.23s.55-1.23,1.23-1.23c12.2,0,29.48-3.47,44.88-12.54"/>
      <path class="cls-2" d="M204.14,62.05c-11.31-26.05-39.33-49.55-78.05-49.55h-.04c-.68,0-1.23-.55-1.23-1.23s.59-1.26,1.27-1.23c39.84,0,68.68,24.22,80.33,51.08"/>
      <rect class="cls-4" x="109.7" y="68.14" width="14.21" height="6.14" rx="3.07" ry="3.07" transform="translate(62.57 196.79) rotate(-98.01)"/>
      <rect class="cls-4" x="120.83" y="66.57" width="14.21" height="6.14" rx="3.07" ry="3.07" transform="translate(76.81 206.03) rotate(-98.01)"/>
      <ellipse class="cls-4" cx="124.82" cy="88.86" rx="5.81" ry="8.07" transform="translate(-7.71 11.97) rotate(-5.33)"/>
    </g>
    <rect class="cls-1" width="255.12" height="255.12"/>
  </g>
</svg>