<?xml version="1.0" encoding="UTF-8"?>
<svg xmlns="http://www.w3.org/2000/svg" version="1.1" viewBox="0 0 263 180">
  <defs>
    <style>
      .cls-1 {
        fill: none;
      }

      .cls-2 {
        fill: #c59f7b;
      }
    </style>
  </defs>
  <!-- Generator: Adobe Illustrator 28.7.1, SVG Export Plug-In . SVG Version: 1.2.0 Build 142)  -->
  <g>
    <g id="Layer_1">
      <rect class="cls-1" width="263" height="180"/>
      <path class="cls-2" d="M250.9,8.6h5l-19.6,32.4h-5l19.6-32.4ZM233.6,25.1h-1.2c-4.1,0-6.2-2.2-6.2-6.6v-3.8c0-4.4,2.1-6.6,6.2-6.6h1.2c4.1,0,6.2,2.2,6.2,6.6v3.8c0,4.4-2.1,6.6-6.2,6.6ZM231.3,21c0,.3,0,.5.2.7.2.2.4.3.7.3h1.6c.3,0,.5-.1.6-.3.2-.2.3-.4.3-.7v-8.8c0-.3-.1-.5-.3-.7-.2-.2-.4-.3-.6-.3h-1.6c-.3,0-.5.1-.7.3-.2.2-.2.4-.2.7v8.8ZM254.6,24.5c4.1,0,6.2,2.2,6.2,6.6v3.8c0,4.4-2.1,6.6-6.2,6.6h-1.2c-4.1,0-6.2-2.2-6.2-6.6v-3.8c0-4.4,2.1-6.6,6.2-6.6h1.2ZM255.8,37.4v-8.8c0-.3-.1-.5-.3-.7-.2-.2-.4-.3-.7-.3h-1.5c-.3,0-.5.1-.7.3-.2.2-.2.4-.2.7v8.8c0,.3,0,.5.2.7.2.2.4.3.7.3h1.5c.3,0,.5-.1.7-.3.2-.2.3-.4.3-.7Z"/>
      <g>
        <polygon class="cls-2" points="76.9 121.1 76.9 138.1 85.4 129.6 76.9 121.1"/>
        <polygon class="cls-2" points="115 119.6 115 139.6 125 129.6 115 119.6"/>
        <path class="cls-2" d="M26.7,109.8l19.4,19.4.3-.3v-18.5c0-1.4.4-2.6,1.3-3.6,1-1,2.3-1.6,3.6-1.6h9.7l-14.9-14.9-19.4,19.4Z"/>
        <path class="cls-2" d="M105.2,109.8l-19.4-19.4-14.9,14.9h1.1c1.4,0,2.5.5,3.4,1.6,1,1,1.6,2.3,1.6,3.6v9.9l8.9,8.9,19.4-19.4Z"/>
        <path class="cls-2" d="M75.3,61.2v10c0,1.4-.5,2.6-1.6,3.6-.5.5-1,.9-1.6,1.2l13.6,13.6,19.4-19.4-19.4-19.4-10.4,10.4Z"/>
        <polygon class="cls-2" points="144.8 109.8 125.3 90.4 115 100.7 115 118.9 125.3 129.2 144.8 109.8"/>
        <path class="cls-2" d="M61.8,105.3h8.3l15.3-15.3-13.8-13.8c-.4.1-.8.2-1.3.2h-10.3l-13.6,13.6,15.3,15.3Z"/>
        <polygon class="cls-2" points="75.3 60.5 85.4 50.4 75.3 40.3 75.3 60.5"/>
        <polygon class="cls-2" points="62.6 34.3 69.3 34.3 65.9 31 62.6 34.3"/>
        <polygon class="cls-2" points="159.7 5.2 164.9 10.4 170.2 5.2 159.7 5.2"/>
        <path class="cls-2" d="M105.5,30.2l1.1-1.1c-2.1-11.1-7.8-18.4-17.1-21.8l-3.4,3.4,19.4,19.4Z"/>
        <path class="cls-2" d="M85.7,10.4l3.3-3.3c-2.5-.8-5.2-1.4-8.2-1.7l5,5Z"/>
        <polygon class="cls-2" points="150.4 104.2 150.4 75.8 145.1 70.6 125.7 90 145.1 109.4 150.4 104.2"/>
        <path class="cls-2" d="M70,34.3h.4c1.4,0,2.5.5,3.4,1.6,1,1,1.6,2.3,1.6,3.6h0c0,0,10.4,10.5,10.4,10.5l19.4-19.4-19.4-19.4-19.4,19.4,3.7,3.7Z"/>
        <path class="cls-2" d="M145.5,30.6l4.9,4.9v-.4c0-1.4.4-2.6,1.3-3.6,1-1,2.3-1.6,3.6-1.6h14.8c1.4,0,2.5.5,3.4,1.6,1,1,1.6,2.3,1.6,3.6v4.8l9.3-9.3-19.4-19.4-19.4,19.4Z"/>
        <polygon class="cls-2" points="150.4 104.9 145.5 109.8 150.4 114.7 150.4 104.9"/>
        <polygon class="cls-2" points="175.1 60.9 175.1 79.5 184.4 70.2 175.1 60.9"/>
        <path class="cls-2" d="M126,11.1l19.1,19.1,19.4-19.4-5.6-5.6h-11.7c-8.9,0-16,2-21.2,6Z"/>
        <path class="cls-2" d="M118.2,162.4c1.4,3.2,3.2,5.9,5.4,8.2l1.4-1.4-6.8-6.8Z"/>
        <path class="cls-2" d="M105.9,149.4l2.7,2.7c.2-1.9.4-3.8.5-5.9l-3.2,3.2Z"/>
        <path class="cls-2" d="M86.1,169.2l6.6,6.6c8.9-3.8,14.2-11.5,15.8-23l-3-3-19.4,19.4Z"/>
        <path class="cls-2" d="M109.1,119.3c0-2.1-.1-4-.3-5.9l-3.3-3.3-19.4,19.4,19.4,19.4,3.5-3.5c0-.4,0-.8,0-1.2v-25Z"/>
        <polygon class="cls-2" points="210.5 44.8 204.9 50.4 210.5 56 210.5 44.8"/>
        <path class="cls-2" d="M185.1,30.6l19.4,19.4,5.9-5.9v-4.6c0-11.6-2.8-20.2-8.3-26l-17.1,17.1Z"/>
        <polygon class="cls-2" points="175.1 40.6 175.1 60.2 184.7 69.8 204.2 50.4 184.7 31 175.1 40.6"/>
        <polygon class="cls-2" points="150.4 75.1 150.4 65.3 145.5 70.2 150.4 75.1"/>
        <path class="cls-2" d="M105.9,70.2l1,1c.1-.7.2-1.5.3-2.2l-1.3,1.3Z"/>
        <polygon class="cls-2" points="115 60.4 125 50.4 115 40.4 115 60.4"/>
        <polygon class="cls-2" points="144.8 70.2 125.3 50.8 115 61.1 115 79.3 125.3 89.6 144.8 70.2"/>
        <polygon class="cls-2" points="115 80 115 100 125 90 115 80"/>
        <path class="cls-2" d="M115,39.5v.2l10.3,10.3,19.4-19.4-19.2-19.2c-7.1,5.6-10.6,14.9-10.6,28.1Z"/>
        <path class="cls-2" d="M96.9,89.9c5.2-3.8,8.5-9.9,9.9-18.2l-1.2-1.2-19.4,19.4,19.4,19.4,2.3-2.3c-1.8-7.6-5.4-13.4-10.9-17.2Z"/>
        <polygon class="cls-2" points="125.7 50.4 145.1 69.8 150.4 64.6 150.4 36.2 145.1 31 125.7 50.4"/>
        <path class="cls-2" d="M107.1,31.8c0-.7-.2-1.4-.3-2l-.9.9,1.2,1.2Z"/>
        <path class="cls-2" d="M107.9,107.7l-2.1,2.1,2.8,2.8c-.2-1.7-.4-3.3-.8-4.9Z"/>
        <path class="cls-2" d="M86.1,50.4l19.4,19.4,1.7-1.7c.2-2,.3-4.1.3-6.3v-22.4c0-2.4-.1-4.7-.4-6.9l-1.6-1.6-19.4,19.4Z"/>
        <path class="cls-2" d="M145.1,149.7l-19.4,19.4,7.1,7.1c4.1,1.5,8.9,2.3,14.4,2.3h7.9l9.4-9.4-19.4-19.4Z"/>
        <path class="cls-2" d="M55.2,178.6l-9.1-9.1-8.4,8.4c2.6.4,5.4.7,8.4.7h9Z"/>
        <polygon class="cls-2" points="85.4 169.2 66.5 150.3 65.4 150.3 46.5 169.2 55.9 178.6 76 178.6 85.4 169.2"/>
        <polygon class="cls-2" points="164.9 169.5 155.9 178.6 174 178.6 164.9 169.5"/>
        <path class="cls-2" d="M17.9,78.3l8.1-8.1-10.5-10.5v2.2c0,6.4.8,11.9,2.4,16.4Z"/>
        <path class="cls-2" d="M175.1,140.1v8.3c0,1.4-.5,2.6-1.6,3.6-.9,1-2,1.6-3.4,1.6h-14.8c-1.4,0-2.6-.5-3.6-1.6-.9-1-1.3-2.3-1.3-3.6v-3.9l-4.9,4.9,19.4,19.4,19.4-19.4-9.3-9.3Z"/>
        <path class="cls-2" d="M13.9,137.3v6.9c0,5.8.7,10.8,2.1,15.1l10-10-12.1-12.1Z"/>
        <path class="cls-2" d="M37.2,177.8l8.6-8.6-19.4-19.4-10.2,10.2c3.3,9.9,10.3,15.9,21,17.9Z"/>
        <polygon class="cls-2" points="204.2 129.6 184.7 110.2 175.1 119.8 175.1 139.4 184.7 149 204.2 129.6"/>
        <path class="cls-2" d="M203.6,168.6l-18.9-18.9-19.4,19.4,9.4,9.4h3.5c11.6,0,20.1-3.3,25.4-10Z"/>
        <polygon class="cls-2" points="15.5 41.8 15.5 59 26.3 69.8 45.8 50.4 26.3 31 15.5 41.8"/>
        <path class="cls-2" d="M15.5,41.1l10.5-10.5-7.9-7.9c-1.7,4.7-2.6,10.3-2.6,16.8v1.6Z"/>
        <polygon class="cls-2" points="204.9 129.6 210.5 135.2 210.5 124 204.9 129.6"/>
        <path class="cls-2" d="M210.5,135.9l-5.9-5.9-19.4,19.4,18.8,18.8c4.4-5.7,6.5-13.6,6.5-23.9v-8.4Z"/>
        <polygon class="cls-2" points="210.5 123.3 210.5 96.3 204.5 90.4 185.1 109.8 204.5 129.2 210.5 123.3"/>
        <path class="cls-2" d="M46.1,10.4l5.3-5.3h-3.7c-2.3,0-4.4.1-6.5.4l4.9,4.9Z"/>
        <path class="cls-2" d="M18.3,22.2l8,8,19.4-19.4-5.1-5.1c-11.2,1.6-18.6,7.1-22.3,16.6Z"/>
        <path class="cls-2" d="M26,109.8l-8.8-8.8c-2.2,5-3.3,11.1-3.3,18.3v2.5l12.1-12.1Z"/>
        <path class="cls-2" d="M105.2,149.4l-19.4-19.4-8.9,8.9v6.2c0,1.4-.5,2.6-1.6,3.6-.9,1-2,1.6-3.4,1.6h-4.8l18.6,18.6,19.4-19.4Z"/>
        <polygon class="cls-2" points="45.8 129.6 26.3 110.2 13.9 122.6 13.9 136.6 26.3 149 45.8 129.6"/>
        <path class="cls-2" d="M64.7,150.3h-13.4c-1.4,0-2.6-.5-3.6-1.6-.9-1-1.3-2.3-1.3-3.6v-14.8l-.3-.3-19.4,19.4,19.4,19.4,18.6-18.6Z"/>
        <path class="cls-2" d="M76.9,178.6c5.9,0,11-.9,15.3-2.6l-6.4-6.4-9.1,9.1h.2Z"/>
        <path class="cls-2" d="M26.7,30.6l19.4,19.4,1.8-1.8v-8.7c0-1.4.4-2.6,1.3-3.6,1-1,2.3-1.6,3.6-1.6h9l3.7-3.7-19.4-19.4-19.4,19.4Z"/>
        <polygon class="cls-2" points="48 51.9 48 48.9 46.5 50.4 48 51.9"/>
        <path class="cls-2" d="M125.3,169.5l-1.4,1.4c2.2,2.1,4.7,3.7,7.7,5l-6.3-6.3Z"/>
        <path class="cls-2" d="M18.1,78.8c1.8,4.8,4.5,8.5,8.1,11.1-3.8,2.7-6.7,6.2-8.7,10.6l8.9,8.9,19.4-19.4-19.4-19.4-8.3,8.3Z"/>
        <path class="cls-2" d="M26.7,70.2l19.4,19.4,13.2-13.2h-6.4c-1.4,0-2.6-.5-3.6-1.6-.9-1-1.3-2.3-1.3-3.6v-18.6l-1.8-1.8-19.4,19.4Z"/>
        <path class="cls-2" d="M184.7,30.2l17.1-17.1c-5.4-5.3-13.2-8-23.6-8h-7.3l-5.6,5.6,19.4,19.4Z"/>
        <path class="cls-2" d="M125.3,130l-10.3,10.3v4c0,6.6.9,12.2,2.7,16.9l7.6,7.6,19.4-19.4-19.4-19.4Z"/>
        <polygon class="cls-2" points="210.5 84.4 204.9 90 210.5 95.6 210.5 84.4"/>
        <path class="cls-2" d="M65.9,30.2l19.4-19.4-5.4-5.4c-1.5-.1-3.1-.2-4.7-.2h-23.2l-5.6,5.6,19.4,19.4Z"/>
        <polygon class="cls-2" points="210.5 83.7 210.5 56.7 204.5 50.8 185.1 70.2 204.5 89.6 210.5 83.7"/>
        <polygon class="cls-2" points="204.2 90 184.7 70.6 175.1 80.2 175.1 99.8 184.7 109.4 204.2 90"/>
        <polygon class="cls-2" points="150.4 143.8 150.4 115.4 145.1 110.2 125.7 129.6 145.1 149 150.4 143.8"/>
        <polygon class="cls-2" points="175.1 100.5 175.1 119.1 184.4 109.8 175.1 100.5"/>
      </g>
    </g>
  </g>
</svg>