<?xml version="1.0" encoding="UTF-8"?>
<svg xmlns="http://www.w3.org/2000/svg" version="1.1" viewBox="0 0 263 180">
  <defs>
    <style>
      .cls-1 {
        fill: none;
      }

      .cls-2 {
        fill: #c59f7b;
      }
    </style>
  </defs>
  <!-- Generator: Adobe Illustrator 28.7.1, SVG Export Plug-In . SVG Version: 1.2.0 Build 142)  -->
  <g>
    <g id="Layer_1">
      <rect class="cls-1" width="263" height="180"/>
      <path class="cls-2" d="M250.9,8.6h5l-19.6,32.4h-5l19.6-32.4ZM233.6,25.1h-1.2c-4.1,0-6.2-2.2-6.2-6.6v-3.8c0-4.4,2.1-6.6,6.2-6.6h1.2c4.1,0,6.2,2.2,6.2,6.6v3.8c0,4.4-2.1,6.6-6.2,6.6ZM231.3,21c0,.3,0,.5.2.7.2.2.4.3.7.3h1.6c.3,0,.5-.1.6-.3.2-.2.3-.4.3-.7v-8.8c0-.3-.1-.5-.3-.7-.2-.2-.4-.3-.6-.3h-1.6c-.3,0-.5.1-.7.3-.2.2-.2.4-.2.7v8.8ZM254.6,24.5c4.1,0,6.2,2.2,6.2,6.6v3.8c0,4.4-2.1,6.6-6.2,6.6h-1.2c-4.1,0-6.2-2.2-6.2-6.6v-3.8c0-4.4,2.1-6.6,6.2-6.6h1.2ZM255.8,37.4v-8.8c0-.3-.1-.5-.3-.7-.2-.2-.4-.3-.7-.3h-1.5c-.3,0-.5.1-.7.3-.2.2-.2.4-.2.7v8.8c0,.3,0,.5.2.7.2.2.4.3.7.3h1.5c.3,0,.5-.1.7-.3.2-.2.3-.4.3-.7Z"/>
      <g>
        <path class="cls-2" d="M105.9,149.4l.4.4c0-.3,0-.5,0-.8l-.4.4Z"/>
        <path class="cls-2" d="M91.8,174.9c8.4-4.3,13.2-12.5,14.4-24.5l-.7-.7-19.4,19.4,5.7,5.7Z"/>
        <path class="cls-2" d="M117.5,98.2c5.2,7.7,14.1,11.5,26.5,11.5h.7l-19.3-19.3-7.9,7.9Z"/>
        <path class="cls-2" d="M105.2,109.8l-19.4-19.4-18.2,18.2c2.3-.5,4.5-1.3,6.4-2.2v11.2l11.7,11.7,19.4-19.4Z"/>
        <path class="cls-2" d="M106.4,148.2c0-1.3.1-2.6.1-3.9v-33.2l-1-1-19.4,19.4,19.4,19.4.8-.8Z"/>
        <polygon class="cls-2" points="74 118.2 74 141 85.4 129.6 74 118.2"/>
        <path class="cls-2" d="M153.6,79h-4.7c-1.4,0-2.6-.5-3.6-1.6-.9-1-1.3-2.3-1.3-3.6v-2.1l-18.3,18.3,19.4,19.4,19.4-19.4-11-11Z"/>
        <path class="cls-2" d="M59.7,37.2h9.3c1.4,0,2.5.5,3.4,1.6,1,1,1.6,2.3,1.6,3.6v19.4l11.4-11.4-19.4-19.4-6.2,6.2Z"/>
        <rect class="cls-2" x="72" y="16.9" width="27.5" height="27.5" transform="translate(3.5 69.6) rotate(-45)"/>
        <path class="cls-2" d="M26.7,70.2l19.4,19.4,11.9-11.9h-9.6c-1.4,0-2.6-.5-3.6-1.6-.9-1-1.3-2.3-1.3-3.6v-19.2l-16.9,16.9Z"/>
        <path class="cls-2" d="M85.7,10.4l3-3c-2.4-.9-5-1.5-7.8-1.9l4.9,4.9Z"/>
        <polygon class="cls-2" points="204.2 50.4 184.7 31 174.4 41.3 174.4 59.5 184.7 69.8 204.2 50.4"/>
        <path class="cls-2" d="M105.5,30.2l.2-.2c-1.9-11.3-7.4-18.8-16.5-22.4l-3.1,3.1,19.4,19.4Z"/>
        <path class="cls-2" d="M184.4,70.2l-10-10v13.6c0,1.4-.5,2.6-1.6,3.6-.9,1-2,1.6-3.4,1.6h-15.1l10.6,10.6,19.4-19.4Z"/>
        <polygon class="cls-2" points="174.4 40.6 184.4 30.6 174.4 20.6 174.4 40.6"/>
        <path class="cls-2" d="M65.5,109c.4,0,.8-.1,1.2-.2l18.7-18.7-13.4-13.4c-.8.7-1.8,1.1-2.9,1.1h-10.3l-12.3,12.3,19,19Z"/>
        <polygon class="cls-2" points="105.5 70.6 86.1 90 105.5 109.4 106.5 108.5 106.5 71.5 105.5 70.6"/>
        <polygon class="cls-2" points="106.5 109.2 105.9 109.8 106.5 110.4 106.5 109.2"/>
        <polygon class="cls-2" points="105.9 70.2 106.5 70.8 106.5 69.6 105.9 70.2"/>
        <polygon class="cls-2" points="125 10.8 122 7.8 111.7 7.8 111.7 24.1 125 10.8"/>
        <polygon class="cls-2" points="144 29.1 144 7.8 128.7 7.8 125.7 10.8 144 29.1"/>
        <polygon class="cls-2" points="204.5 10.4 206.9 8.1 206.9 7.8 201.9 7.8 204.5 10.4"/>
        <path class="cls-2" d="M111.8,76.8c.2,8.8,2,15.8,5.4,21l7.8-7.8-13.2-13.2Z"/>
        <path class="cls-2" d="M74,62.5v10c0,1.4-.5,2.6-1.6,3.6,0,0,0,0,0,0l13.4,13.4,19.4-19.4-19.4-19.4-11.7,11.7Z"/>
        <polygon class="cls-2" points="125.3 10.4 128 7.8 122.7 7.8 125.3 10.4"/>
        <path class="cls-2" d="M86.1,50.4l19.4,19.4,1-1v-29.4c0-2.9-.2-5.6-.5-8.1l-.4-.4-19.4,19.4Z"/>
        <path class="cls-2" d="M12.1,84.8c1.9,11.3,7.4,18.8,16.5,22.4l17.2-17.2-19.4-19.4-14.3,14.3Z"/>
        <polygon class="cls-2" points="111.7 24.8 111.7 36.4 125.3 50 144 31.4 144 29.8 125.3 11.2 111.7 24.8"/>
        <polygon class="cls-2" points="144 68.7 144 32.1 125.7 50.4 144 68.7"/>
        <polygon class="cls-2" points="125 50.4 111.7 37.1 111.7 63.7 125 50.4"/>
        <path class="cls-2" d="M144,71v-1.6l-18.6-18.6-13.6,13.6v11c0,.2,0,.4,0,.7l13.6,13.6,18.6-18.6Z"/>
        <path class="cls-2" d="M29.1,107.4c4.1,1.5,8.9,2.3,14.5,2.3h13c3,0,5.7-.2,8.3-.6l-18.7-18.7-17.1,17.1Z"/>
        <polygon class="cls-2" points="206.9 126.9 206.9 92.7 204.5 90.4 185.1 109.8 204.5 129.2 206.9 126.9"/>
        <path class="cls-2" d="M40.9,5.2l5.2,5.2,5.3-5.3h-7.8c-.9,0-1.8,0-2.6,0Z"/>
        <polygon class="cls-2" points="204.2 129.6 184.7 110.2 174.4 120.5 174.4 138.7 184.7 149 204.2 129.6"/>
        <polygon class="cls-2" points="206.9 12.8 206.9 8.8 204.9 10.8 206.9 12.8"/>
        <path class="cls-2" d="M55.2,178.6l-9.1-9.1-8.4,8.4c2.6.4,5.4.7,8.4.7h9Z"/>
        <polygon class="cls-2" points="174.4 139.4 174.4 159.4 184.4 149.4 174.4 139.4"/>
        <path class="cls-2" d="M76,178.6l9.4-9.4-18.9-18.9h-1l-18.9,18.9,9.4,9.4h18.4c.6,0,1.2,0,1.8,0Z"/>
        <path class="cls-2" d="M37.2,177.8l8.6-8.6-19.4-19.4-10.2,10.2c3.3,9.9,10.3,15.9,21,17.9Z"/>
        <polygon class="cls-2" points="204.9 129.6 206.9 131.6 206.9 127.6 204.9 129.6"/>
        <polygon class="cls-2" points="206.9 171.9 204.5 169.5 198.1 176 206.9 176 206.9 171.9"/>
        <polygon class="cls-2" points="204.9 169.2 206.9 171.2 206.9 167.2 204.9 169.2"/>
        <path class="cls-2" d="M15.5,19.4l10.9,10.9,19.4-19.4-5.5-5.5c-12,.7-20.3,5.4-24.8,14.1Z"/>
        <path class="cls-2" d="M11.3,45.3l14.7-14.7-10.8-10.8c-2.6,5.2-3.9,11.7-3.9,19.7v5.8Z"/>
        <polygon class="cls-2" points="184.7 149.7 174.4 160.1 174.4 176 197.4 176 204.2 169.2 184.7 149.7"/>
        <polygon class="cls-2" points="206.9 166.5 206.9 132.3 204.5 129.9 185.1 149.4 204.5 168.8 206.9 166.5"/>
        <rect class="cls-2" x="171" y="76.2" width="27.5" height="27.5" transform="translate(-9.5 157) rotate(-45)"/>
        <polygon class="cls-2" points="43.6 131.8 13.9 131.8 13.9 136.6 26.3 149 43.6 131.8"/>
        <polygon class="cls-2" points="204.9 50.4 206.9 52.4 206.9 48.4 204.9 50.4"/>
        <polygon class="cls-2" points="184.4 109.8 164.9 90.4 145.6 109.7 174.4 109.7 174.4 119.8 184.4 109.8"/>
        <polygon class="cls-2" points="206.9 87.3 206.9 53.1 204.5 50.8 185.1 70.2 204.5 89.6 206.9 87.3"/>
        <path class="cls-2" d="M64.7,150.3h-12.6c-1.4,0-2.6-.5-3.6-1.6-.9-1-1.3-2.3-1.3-3.6v-13.3h-2.9l-17.6,17.6,19.4,19.4,18.6-18.6Z"/>
        <path class="cls-2" d="M105.2,149.4l-19.4-19.4-11.7,11.7v3.4c0,1.4-.5,2.6-1.6,3.6-.9,1-2,1.6-3.4,1.6h-1.9l18.6,18.6,19.4-19.4Z"/>
        <path class="cls-2" d="M13.9,137.3v6.9c0,5.8.7,10.8,2.1,15.1l10-10-12.1-12.1Z"/>
        <path class="cls-2" d="M91.4,175.2l-5.6-5.6-9,9c5.7-.2,10.6-1.4,14.6-3.4Z"/>
        <path class="cls-2" d="M26.7,30.6l16.9,16.9v-5.1c0-1.4.4-2.6,1.3-3.6,1-1,2.3-1.6,3.6-1.6h10.5l6.6-6.6-19.4-19.4-19.4,19.4Z"/>
        <polygon class="cls-2" points="11.3 46 11.3 54.8 26.3 69.8 43.6 52.6 43.6 48.2 26.3 31 11.3 46"/>
        <polygon class="cls-2" points="206.9 88 204.9 90 206.9 92 206.9 88"/>
        <path class="cls-2" d="M12,84.2l14-14-14.7-14.7v19.8c0,3.2.2,6.1.6,8.9Z"/>
        <polygon class="cls-2" points="185.1 30.6 204.5 50 206.9 47.7 206.9 13.5 204.5 11.2 185.1 30.6"/>
        <path class="cls-2" d="M65.9,30.2l19.4-19.4-5.3-5.3c-1.8-.2-3.8-.3-5.8-.3h-22.1l-5.6,5.6,19.4,19.4Z"/>
        <polygon class="cls-2" points="174.4 7.8 174.4 19.9 184.7 30.2 204.2 10.8 201.2 7.8 174.4 7.8"/>
      </g>
    </g>
  </g>
</svg>