<?xml version="1.0" encoding="UTF-8"?>
<svg id="Layer_2" xmlns="http://www.w3.org/2000/svg" viewBox="0 0 255.12 255.12">
  <defs>
    <style>
      .cls-1 {
        fill: none;
      }

      .cls-2 {
        fill: #fff;
      }
    </style>
  </defs>
  <g id="Layer_1-2" data-name="Layer_1">
    <path class="cls-2" d="M210.23,62.74l.1-.04-.88-2.04c-.04-.09-.07-.17-.1-.25-.07-.18-.15-.35-.23-.49-10.56-24.32-38.54-52.71-82.7-52.87l-.74-.02-.08.02c-48.64.17-81.38,35.37-87.6,68.59l-.04.16c-2.01,7.03-18.74,69.96,13.23,115.84,1.94,2.79,4.47,4.93,7.29,6.2,1.65.74,3.36,1.21,5.11,1.4l-6.41,28.54c-6.11,5.56-8.73,10.24-7.78,13.93.35,1.39,1.53,3.83,5.42,4.64l.23.05,33.19,1.55,11.55.14c.12,0,.28.01.49.01,1.42,0,5.04-.3,8.09-3.11,2.75-2.53,4.22-6.35,4.26-11.06l5.48-46.22c4.78.45,9.29.49,13.91.17l5.45,45.92c.05,4.86,1.48,8.63,4.27,11.19,3.05,2.81,6.65,3.11,8.06,3.11.17,0,.31,0,.45-.01l11.56-.15,33.21-1.56.49-.06c2.7-.58,4.6-2.26,5.2-4.61.94-3.69-1.69-8.38-7.82-13.95l-8.62-35.35c.61.33,1.1.63,1.41.84,2.06,1.38,4.38,2.34,6.71,2.76l.27.05c4.27.71,8.23,0,11.78-2.08,2.68-1.57,4.96-3.97,6.59-6.95,25.25-46.05,4.52-109.69-.81-124.28Z"/>
    <rect class="cls-1" width="255.12" height="255.12"/>
  </g>
</svg>