<?xml version="1.0" encoding="UTF-8"?>
<svg xmlns="http://www.w3.org/2000/svg" version="1.1" viewBox="0 0 211 180">
  <defs>
    <style>
      .cls-1 {
        fill: none;
      }

      .cls-2 {
        fill: #c59f7b;
      }
    </style>
  </defs>
  <!-- Generator: Adobe Illustrator 28.7.1, SVG Export Plug-In . SVG Version: 1.2.0 Build 142)  -->
  <g>
    <g id="Layer_1">
      <rect class="cls-1" width="211" height="180"/>
      <path class="cls-2" d="M198.9,8.6h5l-19.6,32.4h-5l19.6-32.4ZM181.6,25.1h-1.2c-4.1,0-6.2-2.2-6.2-6.6v-3.8c0-4.4,2.1-6.6,6.2-6.6h1.2c4.1,0,6.2,2.2,6.2,6.6v3.8c0,4.4-2.1,6.6-6.2,6.6ZM179.3,21c0,.3,0,.5.2.7.2.2.4.3.7.3h1.6c.3,0,.5-.1.6-.3.2-.2.3-.4.3-.7v-8.8c0-.3-.1-.5-.3-.7-.2-.2-.4-.3-.6-.3h-1.6c-.3,0-.5.1-.7.3-.2.2-.2.4-.2.7v8.8ZM202.6,24.5c4.1,0,6.2,2.2,6.2,6.6v3.8c0,4.4-2.1,6.6-6.2,6.6h-1.2c-4.1,0-6.2-2.2-6.2-6.6v-3.8c0-4.4,2.1-6.6,6.2-6.6h1.2ZM203.8,37.4v-8.8c0-.3-.1-.5-.3-.7-.2-.2-.4-.3-.7-.3h-1.5c-.3,0-.5.1-.7.3-.2.2-.2.4-.2.7v8.8c0,.3,0,.5.2.7.2.2.4.3.7.3h1.5c.3,0,.5-.1.7-.3.2-.2.3-.4.3-.7Z"/>
      <g>
        <path class="cls-2" d="M99,90l-8.7-8.7c-11.7,1-19.7,6-24,14.9l13.2,13.2,19.4-19.4Z"/>
        <path class="cls-2" d="M138.6,90l-17.9-17.9v3.8c0,1.4-.5,2.6-1.6,3.6-.9,1-2,1.6-3.4,1.6h-7.1l-8.9,8.9,19.4,19.4,19.4-19.4Z"/>
        <path class="cls-2" d="M154.2,65.3v-25.8c0-1.3,0-2.6-.1-3.9l-14.8,14.8,14.9,14.9Z"/>
        <path class="cls-2" d="M66.1,96.7c-2.3,5-3.4,11.3-3.4,18.7v10.9l16.5-16.5-13.1-13.1Z"/>
        <polygon class="cls-2" points="61 52 60.9 51.9 60.9 52 61 52"/>
        <polygon class="cls-2" points="51.5 121 51.5 98.6 40.3 109.8 51.5 121"/>
        <polygon class="cls-2" points="51.5 137.5 51.5 121.7 39.9 110.2 20.5 129.6 39.9 149 51.5 137.5"/>
        <polygon class="cls-2" points="51.5 81.4 51.5 59 40.3 70.2 51.5 81.4"/>
        <polygon class="cls-2" points="20.5 90 39.9 109.4 51.5 97.9 51.5 82.1 39.9 70.6 20.5 90"/>
        <path class="cls-2" d="M60.9,48.9l18.3-18.3-13.1-13.1c-3.5,5.5-5.2,12.8-5.2,22v9.4Z"/>
        <polygon class="cls-2" points="99.3 10.4 104.6 5.2 94.1 5.2 99.3 10.4"/>
        <path class="cls-2" d="M122,5.2h-16.6l-5.6,5.6,19.4,19.4,19.4-19.4-3.9-3.9c-3.7-1.1-7.9-1.7-12.7-1.7Z"/>
        <path class="cls-2" d="M119.5,30.6l19.4,19.4,15.1-15.1c-.3-3.9-.9-7.4-1.9-10.6l-13.2-13.2-19.4,19.4Z"/>
        <polygon class="cls-2" points="60.9 49.6 60.9 51.2 61.7 52 95.4 52 95.4 46.9 79.5 31 60.9 49.6"/>
        <polygon class="cls-2" points="79.5 149.7 62.7 166.6 62.7 171.8 66.9 176 92.2 176 99 169.2 79.5 149.7"/>
        <polygon class="cls-2" points="16.2 126 16.2 133.2 19.8 129.6 16.2 126"/>
        <polygon class="cls-2" points="39.6 109.8 20.1 90.4 16.2 94.3 16.2 125.3 20.1 129.2 39.6 109.8"/>
        <path class="cls-2" d="M151.8,23.3c-2.2-6.2-5.9-10.8-11.1-13.8l-1.4,1.4,12.5,12.5Z"/>
        <polygon class="cls-2" points="20.1 169.5 16.2 173.5 16.2 176.3 26.9 176.3 20.1 169.5"/>
        <polygon class="cls-2" points="16.2 86.4 16.2 93.6 19.8 90 16.2 86.4"/>
        <path class="cls-2" d="M66.3,17l13.2,13.2,19.4-19.4-5.6-5.6h-.3c-12.6,0-21.6,4-26.8,11.9Z"/>
        <path class="cls-2" d="M79.9,30.6l15.5,15.5v-7.4c0-1.4.4-2.6,1.3-3.6,1-1,2.3-1.6,3.6-1.6h15.3s0,0,.1,0l2.9-2.9-19.4-19.4-19.4,19.4Z"/>
        <path class="cls-2" d="M138.6,50.4l-19.4-19.4-2.6,2.6c1,.2,1.9.6,2.6,1.5,1,1,1.6,2.3,1.6,3.6v29.6l17.9-17.9Z"/>
        <path class="cls-2" d="M99.3,90.4l-19.4,19.4,16.1,16.1v-7.6c0-1.4.4-2.6,1.3-3.6,1-1,2.3-1.6,3.6-1.6h14.6l3.3-3.3-19.4-19.4Z"/>
        <path class="cls-2" d="M107.9,81.1h-13c-1.4,0-2.7,0-4,.1l8.4,8.4,8.5-8.5Z"/>
        <polygon class="cls-2" points="154.2 74.4 154.2 66 138.9 50.8 120.7 69 120.7 71.4 138.9 89.6 154.2 74.4"/>
        <polygon class="cls-2" points="16.2 15.1 16.2 46.1 20.1 50 39.6 30.6 20.1 11.2 16.2 15.1"/>
        <polygon class="cls-2" points="19.8 50.4 16.2 46.8 16.2 54 19.8 50.4"/>
        <polygon class="cls-2" points="51.5 138.2 40.3 149.4 51.5 160.6 51.5 138.2"/>
        <polygon class="cls-2" points="115.5 146.1 96 146.1 96 133.3 79.9 149.4 99.3 168.8 118.8 149.4 115.5 146.1"/>
        <polygon class="cls-2" points="16.2 165.6 16.2 172.8 19.8 169.2 16.2 165.6"/>
        <polygon class="cls-2" points="99.3 169.5 92.9 176 105.8 176 99.3 169.5"/>
        <polygon class="cls-2" points="122.1 146.1 116.2 146.1 119.1 149 122.1 146.1"/>
        <polygon class="cls-2" points="16.2 14.4 19.8 10.8 17 8 16.2 8 16.2 14.4"/>
        <polygon class="cls-2" points="152.1 156.4 139.3 169.2 146.1 176 152.1 176 152.1 156.4"/>
        <polygon class="cls-2" points="20.1 10.4 22.6 8 17.7 8 20.1 10.4"/>
        <polygon class="cls-2" points="119.1 149.7 99.7 169.2 106.5 176 131.8 176 138.6 169.2 119.1 149.7"/>
        <polygon class="cls-2" points="152.1 146.1 122.8 146.1 119.5 149.4 138.9 168.8 152.1 155.7 152.1 146.1"/>
        <polygon class="cls-2" points="138.9 169.5 132.5 176 145.4 176 138.9 169.5"/>
        <polygon class="cls-2" points="39.9 30.2 51.5 18.7 51.5 8 23.3 8 20.5 10.8 39.9 30.2"/>
        <polygon class="cls-2" points="96 126.6 79.5 110.2 62.7 127 62.7 132.2 79.5 149 96 132.6 96 126.6"/>
        <polygon class="cls-2" points="51.5 176.3 51.5 161.3 39.9 149.7 20.5 169.2 27.6 176.3 51.5 176.3"/>
        <path class="cls-2" d="M149.1,100.5l-10.2-10.2-19.4,19.4,3.3,3.3c12.5-.2,21.3-4.3,26.4-12.5Z"/>
        <path class="cls-2" d="M154.2,75.1l-14.9,14.9,10.1,10.1c3.2-5.4,4.8-12.5,4.8-21.3v-3.7Z"/>
        <polygon class="cls-2" points="62.7 132.9 62.7 165.9 79.2 149.4 62.7 132.9"/>
        <polygon class="cls-2" points="62.7 172.5 62.7 176 66.2 176 62.7 172.5"/>
        <path class="cls-2" d="M122.1,113.1l-2.9-2.9-2.9,2.9h5.7s0,0,.1,0Z"/>
        <polygon class="cls-2" points="39.6 149.4 20.1 130 16.2 133.9 16.2 164.9 20.1 168.8 39.6 149.4"/>
        <polygon class="cls-2" points="16.2 54.7 16.2 85.7 20.1 89.6 39.6 70.2 20.1 50.8 16.2 54.7"/>
        <polygon class="cls-2" points="20.5 50.4 39.9 69.8 51.5 58.3 51.5 42.5 39.9 31 20.5 50.4"/>
        <polygon class="cls-2" points="51.5 41.8 51.5 19.4 40.3 30.6 51.5 41.8"/>
        <path class="cls-2" d="M138.9,10.4l1.3-1.3c-1.4-.8-2.9-1.4-4.5-2l3.2,3.2Z"/>
      </g>
    </g>
  </g>
</svg>