<?xml version="1.0" encoding="UTF-8"?>
<svg xmlns="http://www.w3.org/2000/svg" version="1.1" viewBox="0 0 262 180">
  <defs>
    <style>
      .cls-1 {
        fill: none;
      }

      .cls-2 {
        fill: #c59f7b;
      }
    </style>
  </defs>
  <!-- Generator: Adobe Illustrator 28.7.1, SVG Export Plug-In . SVG Version: 1.2.0 Build 142)  -->
  <g>
    <g id="Layer_1">
      <rect class="cls-1" width="262" height="180"/>
      <path class="cls-2" d="M249.9,8.6h5l-19.6,32.4h-5l19.6-32.4ZM232.6,25.1h-1.2c-4.1,0-6.2-2.2-6.2-6.6v-3.8c0-4.4,2.1-6.6,6.2-6.6h1.2c4.1,0,6.2,2.2,6.2,6.6v3.8c0,4.4-2.1,6.6-6.2,6.6ZM230.3,21c0,.3,0,.5.2.7.2.2.4.3.7.3h1.6c.3,0,.5-.1.6-.3.2-.2.3-.4.3-.7v-8.8c0-.3-.1-.5-.3-.7-.2-.2-.4-.3-.6-.3h-1.6c-.3,0-.5.1-.7.3-.2.2-.2.4-.2.7v8.8ZM253.6,24.5c4.1,0,6.2,2.2,6.2,6.6v3.8c0,4.4-2.1,6.6-6.2,6.6h-1.2c-4.1,0-6.2-2.2-6.2-6.6v-3.8c0-4.4,2.1-6.6,6.2-6.6h1.2ZM254.8,37.4v-8.8c0-.3-.1-.5-.3-.7-.2-.2-.4-.3-.7-.3h-1.5c-.3,0-.5.1-.7.3-.2.2-.2.4-.2.7v8.8c0,.3,0,.5.2.7.2.2.4.3.7.3h1.5c.3,0,.5-.1.7-.3.2-.2.3-.4.3-.7Z"/>
      <g>
        <path class="cls-2" d="M65.4,108.9c.4,0,.8-.2,1.2-.2l18.7-18.7-13.5-13.5c-.8.8-1.8,1.2-3,1.2h-10.2l-12.3,12.3,18.9,18.9Z"/>
        <path class="cls-2" d="M29.1,107.4c4.1,1.5,8.9,2.3,14.4,2.3h13c3,0,5.8-.2,8.4-.7l-18.7-18.7-17.1,17.1Z"/>
        <path class="cls-2" d="M73.9,62.6v9.9c0,1.4-.5,2.6-1.6,3.6,0,0,0,0,0,0l13.5,13.5,19.4-19.4-19.4-19.4-11.9,11.9Z"/>
        <path class="cls-2" d="M115,21.5c-1.8,4.2-2.8,9.3-3,15.1l13.4,13.4,19.4-19.4-19.4-19.4-10.4,10.4Z"/>
        <path class="cls-2" d="M125.7,50.4l1.6,1.6h19.2v-13.3c0-1.4.4-2.6,1.3-3.6.3-.3.5-.5.8-.7l-3.4-3.4-19.4,19.4Z"/>
        <polygon class="cls-2" points="73.9 118.1 73.9 141.1 85.4 129.6 73.9 118.1"/>
        <path class="cls-2" d="M86.1,50.4l19.4,19.4.8-.8v-29.5c0-2.9-.2-5.7-.5-8.2l-.3-.3-19.4,19.4Z"/>
        <path class="cls-2" d="M111.9,52h11.5l1.6-1.6-13.1-13.1c0,.7,0,1.4,0,2.2v12.5Z"/>
        <path class="cls-2" d="M124.7,9.8l.6.6,2-2c-.9.4-1.8.9-2.6,1.4Z"/>
        <polygon class="cls-2" points="171.7 44 171.7 56.8 184.7 69.8 204.2 50.4 184.7 31 171.7 44"/>
        <path class="cls-2" d="M205.2,51.4l-.7-.7-19.4,19.4,19.2,19.2c.6-3.2.9-6.8.9-10.6v-27.3Z"/>
        <path class="cls-2" d="M105.2,109.8l-19.4-19.4-18.1,18.1c2.3-.5,4.4-1.3,6.3-2.2v11.1l11.9,11.9,19.4-19.4Z"/>
        <path class="cls-2" d="M145.5,30.6l3.5,3.5c.7-.4,1.5-.6,2.4-.6h15.3c1.4,0,2.5.5,3.4,1.6,1,1,1.6,2.3,1.6,3.6v4.6l12.7-12.7-19.4-19.4-19.4,19.4Z"/>
        <polygon class="cls-2" points="204.9 50.4 205.2 50.7 205.2 50.1 204.9 50.4"/>
        <polygon class="cls-2" points="113.7 118.3 113.7 140.9 125 129.6 113.7 118.3"/>
        <path class="cls-2" d="M144.8,109.8l-19.4-19.4-9.4,9.4c-1.5,4.4-2.2,9.6-2.2,15.7v2.2l11.6,11.6,19.4-19.4Z"/>
        <path class="cls-2" d="M164.6,90l-8.9-8.9h-9.8c-5,0-9.4.6-13.2,1.8l-7.1,7.1,19.4,19.4,19.4-19.4Z"/>
        <polygon class="cls-2" points="113.7 157.9 113.7 176 118.2 176 125 169.2 113.7 157.9"/>
        <path class="cls-2" d="M106.4,111l-.8-.8-19.4,19.4,19.4,19.4.7-.7c0-1.3.1-2.7.1-4.1v-33.3Z"/>
        <path class="cls-2" d="M86.1,169.2l5.7,5.7c8.4-4.4,13.1-12.5,14.3-24.6l-.6-.6-19.4,19.4Z"/>
        <path class="cls-2" d="M105.9,149.4l.3.3c0-.2,0-.4,0-.6l-.3.3Z"/>
        <path class="cls-2" d="M164.9,90.4l-19.4,19.4,4,4c.8-.4,1.6-.7,2.5-.7h21.1c3.2,0,6.2-.3,8.9-.8l2.5-2.5-19.4-19.4Z"/>
        <path class="cls-2" d="M166.7,81.1h-10.3l8.5,8.5,19.4-19.4-12.7-12.7v18.4c0,1.4-.5,2.6-1.6,3.6-.9,1-2,1.6-3.4,1.6Z"/>
        <path class="cls-2" d="M185.1,109.8l1.3,1.3c9.3-3.1,15.1-9.8,17.5-20.2l-18.9,18.9Z"/>
        <path class="cls-2" d="M165.3,90l19.4,19.4,19.4-19.4s0,0,0,0l-19.4-19.4-19.4,19.4Z"/>
        <path class="cls-2" d="M185.1,30.6l19.4,19.4.7-.7v-9.9c0-9.8-2-17.5-5.9-23.1l-14.2,14.2Z"/>
        <polygon class="cls-2" points="159.7 5.2 164.9 10.4 170.2 5.2 159.7 5.2"/>
        <path class="cls-2" d="M123.2,88.2c-3,2.7-5.3,6.2-6.9,10.4l8.7-8.7-1.7-1.7Z"/>
        <path class="cls-2" d="M131.7,83.3c-3.1,1.1-5.8,2.7-8.1,4.6l1.7,1.7,6.3-6.3Z"/>
        <path class="cls-2" d="M125,10.8l-.7-.7c-3.8,2.5-6.7,5.8-8.7,10.1l9.4-9.4Z"/>
        <polygon class="cls-2" points="124.1 52 126.6 52 125.3 50.8 124.1 52"/>
        <polygon class="cls-2" points="105.9 70.2 106.4 70.7 106.4 69.7 105.9 70.2"/>
        <polygon class="cls-2" points="105.5 70.6 86.1 90 105.5 109.4 106.4 108.6 106.4 71.4 105.5 70.6"/>
        <polygon class="cls-2" points="106.4 109.3 105.9 109.8 106.4 110.3 106.4 109.3"/>
        <polygon class="cls-2" points="181.1 146.1 148.8 146.1 145.5 149.4 164.9 168.8 184.4 149.4 181.1 146.1"/>
        <path class="cls-2" d="M26.7,30.6l16.8,16.8v-5c0-1.4.4-2.6,1.3-3.6,1-1,2.3-1.6,3.6-1.6h10.6l6.6-6.6-19.4-19.4-19.4,19.4Z"/>
        <polygon class="cls-2" points="164.9 169.5 158.5 176 171.4 176 164.9 169.5"/>
        <polygon class="cls-2" points="145.1 149.7 125.7 169.2 132.5 176 157.8 176 164.6 169.2 145.1 149.7"/>
        <path class="cls-2" d="M37.2,177.8l8.6-8.6-19.4-19.4-10.3,10.3c3.3,9.9,10.4,15.8,21.1,17.8Z"/>
        <path class="cls-2" d="M76,178.6l9.4-9.4-18.9-18.9h-1l-18.9,18.9,9.4,9.4h18.2c.6,0,1.3,0,1.9,0Z"/>
        <path class="cls-2" d="M13.8,137.2v7.1c0,5.8.7,10.9,2.1,15.2l10.1-10.1-12.2-12.2Z"/>
        <polygon class="cls-2" points="11.2 46.1 11.2 54.7 26.3 69.8 43.5 52.7 43.5 48.1 26.3 31 11.2 46.1"/>
        <path class="cls-2" d="M11.9,84.3l14.1-14.1-14.8-14.8v20c0,3.2.2,6.2.6,9Z"/>
        <path class="cls-2" d="M55.2,178.6l-9.1-9.1-8.4,8.4c2.6.4,5.3.7,8.3.7h9.1Z"/>
        <polygon class="cls-2" points="188.4 146.1 185.1 149.4 203.1 167.4 203.1 146.1 188.4 146.1"/>
        <polygon class="cls-2" points="203.1 168.1 184.7 149.7 165.3 169.2 172.1 176 197.4 176 203.1 170.2 203.1 168.1"/>
        <polygon class="cls-2" points="198.1 176 203.1 176 203.1 171 198.1 176"/>
        <path class="cls-2" d="M40.9,5.2l5.2,5.2,5.3-5.3h-8c-.9,0-1.7,0-2.5,0Z"/>
        <polygon class="cls-2" points="187.7 146.1 181.8 146.1 184.7 149 187.7 146.1"/>
        <path class="cls-2" d="M11.2,45.4l14.8-14.8-10.9-10.9c-2.6,5.2-3.9,11.8-3.9,19.8v5.9Z"/>
        <path class="cls-2" d="M15.4,19.3l11,11,19.4-19.4-5.5-5.5c-12,.7-20.3,5.4-24.9,14Z"/>
        <path class="cls-2" d="M184.7,30.2l14.3-14.3c-5.3-7.2-14-10.8-26-10.8h-2.1l-5.6,5.6,19.4,19.4Z"/>
        <path class="cls-2" d="M12,84.9c1.9,11.3,7.4,18.7,16.6,22.3l17.2-17.2-19.4-19.4-14.4,14.4Z"/>
        <path class="cls-2" d="M26.7,70.2l19.4,19.4,11.9-11.9h-9.7c-1.4,0-2.6-.5-3.6-1.6-.9-1-1.3-2.3-1.3-3.6v-19.1l-16.8,16.8Z"/>
        <path class="cls-2" d="M64.7,150.3h-12.7c-1.4,0-2.6-.5-3.6-1.6-.9-1-1.3-2.3-1.3-3.6v-13.3h-2.8l-17.6,17.6,19.4,19.4,18.6-18.6Z"/>
        <polygon class="cls-2" points="43.6 131.8 13.8 131.8 13.8 136.5 26.3 149 43.6 131.8"/>
        <path class="cls-2" d="M59.7,37.2h9.2c1.4,0,2.5.5,3.4,1.6,1,1,1.6,2.3,1.6,3.6v19.6l11.5-11.5-19.4-19.4-6.2,6.2Z"/>
        <path class="cls-2" d="M65.9,30.2l19.4-19.4-5.3-5.3c-1.9-.2-3.9-.3-6-.3h-22l-5.6,5.6,19.4,19.4Z"/>
        <rect class="cls-2" x="72" y="16.9" width="27.5" height="27.5" transform="translate(3.5 69.6) rotate(-45)"/>
        <path class="cls-2" d="M85.7,10.4l2.9-2.9c-2.4-.9-5-1.5-7.8-1.9l4.8,4.8Z"/>
        <path class="cls-2" d="M105.5,30.2h.1c-1.8-11.5-7.3-19-16.5-22.6l-3.1,3.1,19.4,19.4Z"/>
        <path class="cls-2" d="M148.1,146.1h-1.1v-27.8c0-1.4.4-2.6,1.3-3.6.2-.2.5-.4.7-.6l-3.9-3.9-19.4,19.4,19.4,19.4,2.9-2.9Z"/>
        <path class="cls-2" d="M184.7,110.2l-2,2c1.1-.2,2.1-.5,3.1-.8l-1.2-1.2Z"/>
        <path class="cls-2" d="M128.7,7.8l-3,3,19.4,19.4,19.4-19.4-5.6-5.6h-14.8c-6,0-11.1.9-15.5,2.7Z"/>
        <path class="cls-2" d="M91.3,175.1l-5.6-5.6-9,9c5.7-.3,10.5-1.4,14.6-3.4Z"/>
        <polygon class="cls-2" points="125.3 130 113.7 141.6 113.7 157.2 125.3 168.8 144.8 149.4 125.3 130"/>
        <path class="cls-2" d="M105.2,149.4l-19.4-19.4-11.9,11.9v3.2c0,1.4-.5,2.6-1.6,3.6-.9,1-2,1.6-3.4,1.6h-1.8l18.6,18.6,19.4-19.4Z"/>
        <polygon class="cls-2" points="125.3 169.5 118.9 176 131.8 176 125.3 169.5"/>
      </g>
    </g>
  </g>
</svg>