<?xml version="1.0" encoding="UTF-8"?>
<svg xmlns="http://www.w3.org/2000/svg" version="1.1" viewBox="0 0 243 180">
  <defs>
    <style>
      .cls-1 {
        fill: none;
      }

      .cls-2 {
        fill: #c59f7b;
      }
    </style>
  </defs>
  <!-- Generator: Adobe Illustrator 28.7.1, SVG Export Plug-In . SVG Version: 1.2.0 Build 142)  -->
  <g>
    <g id="Layer_1">
      <rect class="cls-1" x=".5" width="242" height="180"/>
      <path class="cls-2" d="M230.4,8.6h5l-19.6,32.4h-5l19.6-32.4ZM213.1,25.1h-1.2c-4.1,0-6.2-2.2-6.2-6.6v-3.8c0-4.4,2.1-6.6,6.2-6.6h1.2c4.1,0,6.2,2.2,6.2,6.6v3.8c0,4.4-2.1,6.6-6.2,6.6ZM210.8,21c0,.3,0,.5.2.7.2.2.4.3.7.3h1.6c.3,0,.5-.1.6-.3.2-.2.3-.4.3-.7v-8.8c0-.3-.1-.5-.3-.7-.2-.2-.4-.3-.6-.3h-1.6c-.3,0-.5.1-.7.3-.2.2-.2.4-.2.7v8.8ZM234.1,24.5c4.1,0,6.2,2.2,6.2,6.6v3.8c0,4.4-2.1,6.6-6.2,6.6h-1.2c-4.1,0-6.2-2.2-6.2-6.6v-3.8c0-4.4,2.1-6.6,6.2-6.6h1.2ZM235.3,37.4v-8.8c0-.3-.1-.5-.3-.7-.2-.2-.4-.3-.7-.3h-1.5c-.3,0-.5.1-.7.3-.2.2-.2.4-.2.7v8.8c0,.3,0,.5.2.7.2.2.4.3.7.3h1.5c.3,0,.5-.1.7-.3.2-.2.3-.4.3-.7Z"/>
      <g>
        <polygon class="cls-2" points="156.8 142 137.4 122.6 129.5 130.4 125.8 149.9 137.4 161.5 156.8 142"/>
        <polygon class="cls-2" points="157.2 22.9 172.3 7.8 142.1 7.8 157.2 22.9"/>
        <polygon class="cls-2" points="79.3 103.4 79.8 101 78.3 102.5 79.3 103.4"/>
        <polygon class="cls-2" points="148 35.6 145.1 50.4 157.2 62.5 176.6 43.1 157.2 23.6 145.2 35.6 148 35.6"/>
        <polygon class="cls-2" points="132.1 117.3 129.7 129.6 137 122.3 132.1 117.3"/>
        <polygon class="cls-2" points="157.5 142 160.2 144.7 161.6 138 157.5 142"/>
        <polygon class="cls-2" points="129.6 35.6 117.6 23.6 105.6 35.6 129.6 35.6"/>
        <polygon class="cls-2" points="187.4 13.5 188.5 7.8 181.7 7.8 187.4 13.5"/>
        <polygon class="cls-2" points="102.7 8.1 117.6 22.9 132.7 7.8 102.7 7.8 102.7 8.1"/>
        <polygon class="cls-2" points="130.3 35.6 144.5 35.6 156.8 23.3 141.3 7.8 133.4 7.8 117.9 23.3 130.3 35.6"/>
        <polygon class="cls-2" points="153.7 176 160.1 145.3 157.2 142.4 137.7 161.8 151.9 176 153.7 176"/>
        <polygon class="cls-2" points="125.6 150.5 120.7 176 122.9 176 137 161.8 125.6 150.5"/>
        <polygon class="cls-2" points="173.8 79.1 180.4 46.9 177 43.4 157.5 62.9 173.8 79.1"/>
        <polygon class="cls-2" points="180.6 46.3 182.3 38.1 177.3 43.1 180.6 46.3"/>
        <polygon class="cls-2" points="77.6 102.5 58.2 83 47.2 94 44.4 108.2 58.2 121.9 77.6 102.5"/>
        <polygon class="cls-2" points="50.8 75.6 47.4 93.1 57.8 82.7 50.8 75.6"/>
        <polygon class="cls-2" points="139.1 81.3 138.7 83.6 157.2 102.1 172.1 87.2 173.6 79.7 157.2 63.2 139.1 81.3"/>
        <polygon class="cls-2" points="161.8 137.1 166.9 112.5 157.2 102.8 137.7 122.3 157.2 141.7 161.8 137.1"/>
        <polygon class="cls-2" points="156.8 102.5 138.5 84.2 132.2 116.7 137.4 121.9 156.8 102.5"/>
        <polygon class="cls-2" points="139.3 80.4 156.8 62.9 145 51 139.3 80.4"/>
        <polygon class="cls-2" points="171.9 88.1 157.5 102.5 167 111.9 171.9 88.1"/>
        <polygon class="cls-2" points="177 42.7 182.4 37.2 187.2 14.1 180.9 7.8 173 7.8 157.5 23.3 177 42.7"/>
        <polygon class="cls-2" points="38.4 22.9 53.5 7.8 23.3 7.8 38.4 22.9"/>
        <polygon class="cls-2" points="51.1 35.6 58.5 35.6 57.3 41.9 58.2 42.7 77.6 23.3 62.2 7.8 54.2 7.8 38.7 23.3 51.1 35.6"/>
        <polygon class="cls-2" points="50.4 35.6 38.4 23.6 26.4 35.6 50.4 35.6"/>
        <polygon class="cls-2" points="64.3 176 65.6 169.6 58.2 162.2 44.4 176 64.3 176"/>
        <polygon class="cls-2" points="58.5 161.8 65.7 169 69.5 150.9 58.5 161.8"/>
        <polygon class="cls-2" points="37.9 141.9 37.8 142.3 38 142 37.9 141.9"/>
        <polygon class="cls-2" points="13.3 8.4 13.9 7.8 13.3 7.8 13.3 8.4"/>
        <polygon class="cls-2" points="31.4 175 31.2 176 32.4 176 31.4 175"/>
        <polygon class="cls-2" points="13.3 35.6 25.7 35.6 38 23.3 22.6 7.8 14.6 7.8 13.3 9.1 13.3 35.6"/>
        <polygon class="cls-2" points="69.6 150 72.4 136.8 58.2 122.6 38.7 142 58.2 161.5 69.6 150"/>
        <polygon class="cls-2" points="43.7 176 57.8 161.8 38.4 142.4 37.6 143.2 31.5 174.5 33.1 176 43.7 176"/>
        <polygon class="cls-2" points="86.1 70.6 90.1 51 78.3 62.9 86.1 70.6"/>
        <polygon class="cls-2" points="79.2 104 78 102.8 58.5 122.3 72.5 136.2 79.2 104"/>
        <polygon class="cls-2" points="137.4 162.2 123.6 176 151.2 176 137.4 162.2"/>
        <polygon class="cls-2" points="57.8 122.3 44.3 108.7 38 141.3 38.4 141.7 57.8 122.3"/>
        <polygon class="cls-2" points="104.9 35.6 117.2 23.3 102.7 8.8 102.7 35.6 104.9 35.6"/>
        <polygon class="cls-2" points="92.9 37.8 99.1 7.8 93.8 7.8 78.3 23.3 92.9 37.8"/>
        <polygon class="cls-2" points="58.5 82.7 78 102.1 80 100.1 86 71.2 78 63.2 58.5 82.7"/>
        <polygon class="cls-2" points="56.9 44 57.8 43.1 57.2 42.4 56.9 44"/>
        <polygon class="cls-2" points="56.7 44.8 50.9 75 58.2 82.3 77.6 62.9 58.2 43.4 56.7 44.8"/>
        <polygon class="cls-2" points="78 62.5 90.3 50.1 92.8 38.4 78 23.6 58.5 43.1 78 62.5"/>
        <polygon class="cls-2" points="78 22.9 93.1 7.8 62.9 7.8 78 22.9"/>
      </g>
    </g>
  </g>
</svg>