<?xml version="1.0" encoding="UTF-8"?>
<svg xmlns="http://www.w3.org/2000/svg" version="1.1" viewBox="0 0 267 180">
  <defs>
    <style>
      .cls-1 {
        fill: none;
      }

      .cls-2 {
        fill: #c59f7b;
      }
    </style>
  </defs>
  <!-- Generator: Adobe Illustrator 28.7.1, SVG Export Plug-In . SVG Version: 1.2.0 Build 142)  -->
  <g>
    <g id="Layer_1">
      <rect class="cls-1" x=".5" width="266" height="180"/>
      <path class="cls-2" d="M254.4,8.6h5l-19.6,32.4h-5l19.6-32.4ZM237.1,25.1h-1.2c-4.1,0-6.2-2.2-6.2-6.6v-3.8c0-4.4,2.1-6.6,6.2-6.6h1.2c4.1,0,6.2,2.2,6.2,6.6v3.8c0,4.4-2.1,6.6-6.2,6.6ZM234.8,21c0,.3,0,.5.2.7.2.2.4.3.7.3h1.6c.3,0,.5-.1.6-.3.2-.2.3-.4.3-.7v-8.8c0-.3-.1-.5-.3-.7-.2-.2-.4-.3-.6-.3h-1.6c-.3,0-.5.1-.7.3-.2.2-.2.4-.2.7v8.8ZM258.1,24.5c4.1,0,6.2,2.2,6.2,6.6v3.8c0,4.4-2.1,6.6-6.2,6.6h-1.2c-4.1,0-6.2-2.2-6.2-6.6v-3.8c0-4.4,2.1-6.6,6.2-6.6h1.2ZM259.3,37.4v-8.8c0-.3,0-.5-.3-.7-.2-.2-.4-.3-.6-.3h-1.6c-.3,0-.5.1-.7.3-.2.2-.3.4-.3.7v8.8c0,.3,0,.5.3.7.2.2.4.3.7.3h1.6c.3,0,.5-.1.6-.3.2-.2.3-.4.3-.7Z"/>
      <g>
        <path class="cls-2" d="M166.6,90l-13.9-13.9c-1.1.4-2.2.8-3.3,1.3v-4.6l-2.3-2.3-19.4,19.4,19.4,19.4,19.4-19.4Z"/>
        <path class="cls-2" d="M182.4,74.1c-.8,0-1.7,0-2.6,0h-13c-5.2,0-9.7.6-13.6,1.9l13.7,13.7,15.5-15.5Z"/>
        <polygon class="cls-2" points="146.8 109.8 127.3 90.4 116.9 100.8 116.9 118.8 127.3 129.2 146.8 109.8"/>
        <path class="cls-2" d="M28.7,109.8l18.1,18.1v-17.4c0-1.4.4-2.6,1.3-3.6,1-1,2.3-1.6,3.6-1.6h11.3l-14.9-14.9-19.4,19.4Z"/>
        <polygon class="cls-2" points="206.9 50.4 208.5 52 209.5 52 209.5 47.8 206.9 50.4"/>
        <polygon class="cls-2" points="116.9 119.5 116.9 139.6 127 129.6 116.9 119.5"/>
        <polygon class="cls-2" points="77.2 119.4 77.2 139.8 87.4 129.6 77.2 119.4"/>
        <path class="cls-2" d="M107.2,109.8l-19.4-19.4-15,15c1.2.1,2.1.6,2.9,1.5,1,1,1.6,2.3,1.6,3.6v8.2l10.5,10.5,19.4-19.4Z"/>
        <path class="cls-2" d="M63.8,105.3h8.3l15.3-15.3-14.3-14.3c-.7.5-1.5.7-2.4.7h-8.6l-13.6,13.6,15.3,15.3Z"/>
        <path class="cls-2" d="M87.7,10.4l2.8-2.8c-2.3-.9-4.8-1.5-7.6-1.9l4.8,4.8Z"/>
        <path class="cls-2" d="M107.1,29.8c-1.9-11-7.2-18.4-16.1-22l-3,3,19,19Z"/>
        <path class="cls-2" d="M72.3,34.6c.7.3,1.3.7,1.8,1.3.5.5.9,1.1,1.2,1.7l12.5,12.5,19.4-19.4-19.4-19.4-19.4,19.4,4,4Z"/>
        <path class="cls-2" d="M128,11.1l19.2,19.2,19.4-19.4-5.6-5.6h-11.8c-8.9,0-16,2-21.2,5.9Z"/>
        <polygon class="cls-2" points="205.3 52 207.8 52 206.5 50.8 205.3 52"/>
        <path class="cls-2" d="M147.5,30.6l3.9,3.9c.9-.7,1.9-1,3-1h16.9c1.4,0,2.5.5,3.4,1.6,1,1,1.6,2.3,1.6,3.6v2l10.2-10.2-19.4-19.4-19.4,19.4Z"/>
        <polygon class="cls-2" points="161.7 5.2 166.9 10.4 172.2 5.2 161.7 5.2"/>
        <path class="cls-2" d="M127.7,50.4l19.4,19.4,2.3-2.3v-28.8c0-1.4.4-2.6,1.3-3.6,0,0,.2-.2.3-.2l-3.9-3.9-19.4,19.4Z"/>
        <path class="cls-2" d="M109.4,119.3c0-2.7-.2-5.3-.5-7.8l-1.4-1.4-19.4,19.4,19.4,19.4,1.8-1.8c0-1,0-1.9,0-2.9v-25Z"/>
        <path class="cls-2" d="M107.9,149.4l1.2,1.2c0-.9.2-1.8.2-2.7l-1.4,1.4Z"/>
        <path class="cls-2" d="M97.2,89.9c5.4-4,8.8-10.3,10-19.1l-19.2,19.2,19.4,19.4.9-.9c-1.7-8.3-5.4-14.5-11.2-18.6Z"/>
        <polygon class="cls-2" points="149.4 68.3 147.5 70.2 149.4 72.1 149.4 68.3"/>
        <path class="cls-2" d="M64.6,34.3h6.1c.2,0,.4,0,.6,0l-3.4-3.4-3.3,3.3Z"/>
        <path class="cls-2" d="M187.1,30.6l19.4,19.4,3-3v-7.6c0-10.6-2.3-18.7-6.9-24.4l-15.5,15.5Z"/>
        <path class="cls-2" d="M120,162.2c1.4,3.3,3.2,6.1,5.5,8.4l1.4-1.4-7-7Z"/>
        <path class="cls-2" d="M88.1,169.2l6.1,6.1c8.6-4.1,13.6-12.1,14.9-24l-1.5-1.5-19.4,19.4Z"/>
        <polygon class="cls-2" points="116.9 60.4 127 50.4 116.9 40.4 116.9 60.4"/>
        <path class="cls-2" d="M107.4,69.7c.3-2.4.5-5.1.5-7.9v-22.4c0-3-.2-5.8-.5-8.3l-19.2,19.2,19.3,19.3Z"/>
        <path class="cls-2" d="M75.6,62.9v8.4c0,1.4-.5,2.6-1.6,3.6-.2.2-.4.4-.6.6l14.2,14.2,19.4-19.4-19.4-19.4-12.1,12.1Z"/>
        <path class="cls-2" d="M116.9,39.5h0c0,.1,10.4,10.5,10.4,10.5l19.4-19.4-19.2-19.2c-7.1,5.6-10.6,15-10.6,28.1Z"/>
        <path class="cls-2" d="M108.6,109.1l-.7.7.9.9c0-.5-.2-1.1-.3-1.6Z"/>
        <polygon class="cls-2" points="116.9 79.9 116.9 100 127 90 116.9 79.9"/>
        <polygon class="cls-2" points="146.8 70.2 127.3 50.8 116.9 61.2 116.9 79.2 127.3 89.6 146.8 70.2"/>
        <path class="cls-2" d="M75.6,39.5v22.6l11.7-11.7-11.8-11.8c0,.3,0,.6,0,.9Z"/>
        <polygon class="cls-2" points="176.2 41.5 176.2 52 204.6 52 206.2 50.4 186.7 31 176.2 41.5"/>
        <path class="cls-2" d="M57.2,178.6l-9.1-9.1-8.6,8.6c2.2.3,4.5.5,7,.5h10.7Z"/>
        <path class="cls-2" d="M48.1,50.8l-19.4,19.4,19.4,19.4,13.2-13.2h-8.1c-1.4,0-2.6-.5-3.6-1.6-.9-1-1.3-2.3-1.3-3.6v-20.3l-.2-.2Z"/>
        <path class="cls-2" d="M179.7,142.7c-.2.9-.7,1.7-1.4,2.4-.9,1-2,1.6-3.4,1.6h-20.5c-1.1,0-2.1-.4-3-1.1l-3.8,3.8,19.4,19.4,19.4-19.4-6.7-6.7Z"/>
        <polygon class="cls-2" points="166.9 169.5 157.9 178.6 176 178.6 166.9 169.5"/>
        <path class="cls-2" d="M78,178.6l9.4-9.4-18.9-18.9h-1l-18.9,18.9,9.4,9.4h19.3c.3,0,.5,0,.8,0Z"/>
        <path class="cls-2" d="M18.7,79.5l9.3-9.3-12.1-12.1v3.8c0,7,1,12.9,2.9,17.6Z"/>
        <polygon class="cls-2" points="15.8 43.5 15.8 57.3 28.3 69.8 47.8 50.4 28.3 31 15.8 43.5"/>
        <path class="cls-2" d="M38.9,178.1l8.9-8.9-19.4-19.4-11.4,11.4c3.6,9.6,10.9,15.2,22,16.9Z"/>
        <path class="cls-2" d="M14.3,135.7v8.6c0,6.3.8,11.8,2.5,16.4l11.2-11.2-13.7-13.7Z"/>
        <path class="cls-2" d="M212.1,135.5l-5.6-5.6-19.4,19.4,18.6,18.6c4.3-5.7,6.4-13.6,6.4-23.7v-8.8Z"/>
        <path class="cls-2" d="M205.4,168.4l-18.7-18.7-19.4,19.4,9.4,9.4h3.2c11.7,0,20.2-3.4,25.5-10.2Z"/>
        <polygon class="cls-2" points="206.9 129.6 212.1 134.8 212.1 124.4 206.9 129.6"/>
        <path class="cls-2" d="M206.2,129.6l-19.4-19.4-6.9,6.9v24.4c0,.2,0,.5,0,.7l6.9,6.9,19.4-19.4Z"/>
        <path class="cls-2" d="M15.8,42.7l12.1-12.1-9.1-9.1c-2.1,4.9-3.1,10.9-3.1,18v3.2Z"/>
        <path class="cls-2" d="M19.2,21.1l9.2,9.2,19.4-19.4-5.3-5.3c-11.5,1.2-19.3,6.4-23.3,15.6Z"/>
        <path class="cls-2" d="M212.1,123.7v-15.3c0-5.4-.6-10.2-1.8-14.3l-3.8-3.8-19.4,19.4,19.4,19.4,5.6-5.6Z"/>
        <path class="cls-2" d="M43.1,5.4l5,5,5.3-5.3h-5.3c-1.7,0-3.4,0-5,.2Z"/>
        <path class="cls-2" d="M147.1,149.7l-19.4,19.4,7.2,7.2c4.1,1.5,8.8,2.2,14.3,2.2h8l9.4-9.4-19.4-19.4Z"/>
        <path class="cls-2" d="M93.7,175.5l-5.9-5.9-9,9c5.8-.2,10.8-1.2,15-3.1Z"/>
        <path class="cls-2" d="M107.2,149.4l-19.4-19.4-10.5,10.5v4.6c0,1.4-.5,2.6-1.6,3.6-.9,1-2,1.6-3.4,1.6h-3.1l18.6,18.6,19.4-19.4Z"/>
        <path class="cls-2" d="M28.7,30.6l19.4,19.4.2-.2v-10.3c0-1.4.4-2.6,1.3-3.6,1-1,2.3-1.6,3.6-1.6h10.6l3.7-3.7-19.4-19.4-19.4,19.4Z"/>
        <path class="cls-2" d="M127.3,169.5l-1.4,1.4c2.2,2.1,4.8,3.7,7.8,5l-6.4-6.4Z"/>
        <path class="cls-2" d="M28,109.8l-9.9-9.9c-2.5,5.2-3.8,11.7-3.8,19.4v4.2l13.7-13.7Z"/>
        <polygon class="cls-2" points="46.8 130.6 46.8 128.6 28.3 110.2 14.3 124.2 14.3 135 28.3 149 46.8 130.6"/>
        <path class="cls-2" d="M18.9,80c1.8,4.2,4.3,7.5,7.6,10-3.5,2.4-6.2,5.6-8.2,9.5l10,10,19.4-19.4-19.4-19.4-9.4,9.4Z"/>
        <path class="cls-2" d="M127.3,130l-10.4,10.4v3.9c0,6.5.9,12.1,2.6,16.8l7.8,7.8,19.4-19.4-19.4-19.4Z"/>
        <path class="cls-2" d="M66.7,150.3h-15c-1.4,0-2.6-.5-3.6-1.6-.9-1-1.3-2.3-1.3-3.6v-13.7l-18.1,18.1,19.4,19.4,18.6-18.6Z"/>
        <path class="cls-2" d="M208.2,88.7l-1.3,1.3,3.1,3.1c-.5-1.6-1.1-3-1.8-4.4Z"/>
        <path class="cls-2" d="M186.7,30.2l15.5-15.5c-5.4-6.4-13.7-9.5-25-9.5h-4.3l-5.6,5.6,19.4,19.4Z"/>
        <path class="cls-2" d="M67.9,30.2l19.4-19.4-5.2-5.2c-2.1-.3-4.2-.4-6.5-.4h-21.5l-5.6,5.6,19.4,19.4Z"/>
        <path class="cls-2" d="M186.4,109.8l-19.4-19.4-19.4,19.4,1.9,1.9v-.5c0-1.4.4-2.6,1.3-3.6,1-1,2.3-1.6,3.6-1.6h20.5c1.4,0,2.5.5,3.4,1.6,1,1,1.6,2.3,1.6,3.6v5.1l6.5-6.5Z"/>
        <path class="cls-2" d="M208,88.2c-3.2-6.1-8.3-10.3-15.2-12.4l13.8,13.8,1.4-1.4Z"/>
        <path class="cls-2" d="M150.9,145.2c0,0-.1-.1-.2-.2-.9-1-1.3-2.3-1.3-3.6v-29l-2.3-2.3-19.4,19.4,19.4,19.4,3.8-3.8Z"/>
        <path class="cls-2" d="M206.2,90l-14.5-14.5c-2.6-.7-5.5-1.2-8.6-1.4l-15.8,15.8,19.4,19.4,19.4-19.4Z"/>
      </g>
    </g>
  </g>
</svg>