<?xml version="1.0" encoding="UTF-8"?>
<svg xmlns="http://www.w3.org/2000/svg" version="1.1" viewBox="0 0 255 180">
  <defs>
    <style>
      .cls-1 {
        fill: none;
      }

      .cls-2 {
        fill: #c59f7b;
      }
    </style>
  </defs>
  <!-- Generator: Adobe Illustrator 28.7.1, SVG Export Plug-In . SVG Version: 1.2.0 Build 142)  -->
  <g>
    <g id="Layer_1">
      <rect class="cls-1" x=".5" width="254" height="180"/>
      <path class="cls-2" d="M242.4,8.6h5l-19.6,32.4h-5l19.6-32.4ZM225.1,25.1h-1.2c-4.1,0-6.2-2.2-6.2-6.6v-3.8c0-4.4,2.1-6.6,6.2-6.6h1.2c4.1,0,6.2,2.2,6.2,6.6v3.8c0,4.4-2.1,6.6-6.2,6.6ZM222.8,21c0,.3,0,.5.2.7.2.2.4.3.7.3h1.6c.3,0,.5-.1.6-.3.2-.2.3-.4.3-.7v-8.8c0-.3-.1-.5-.3-.7-.2-.2-.4-.3-.6-.3h-1.6c-.3,0-.5.1-.7.3-.2.2-.2.4-.2.7v8.8ZM246.1,24.5c4.1,0,6.2,2.2,6.2,6.6v3.8c0,4.4-2.1,6.6-6.2,6.6h-1.2c-4.1,0-6.2-2.2-6.2-6.6v-3.8c0-4.4,2.1-6.6,6.2-6.6h1.2ZM247.3,37.4v-8.8c0-.3-.1-.5-.3-.7-.2-.2-.4-.3-.7-.3h-1.5c-.3,0-.5.1-.7.3-.2.2-.2.4-.2.7v8.8c0,.3,0,.5.2.7.2.2.4.3.7.3h1.5c.3,0,.5-.1.7-.3.2-.2.3-.4.3-.7Z"/>
      <g>
        <path class="cls-2" d="M22.7,109.8l19.4,19.4,5.6-5.6v-12.3c0-1.4.4-2.6,1.3-3.6,1-1,2.3-1.6,3.6-1.6h5.1l-15.7-15.7-19.4,19.4Z"/>
        <path class="cls-2" d="M58.6,106.1h6.8l16.1-16.1-15.9-15.9h-.3c-2.6,0-5,.2-7.3.5l-15.5,15.5,16.1,16.1Z"/>
        <polygon class="cls-2" points="64.4 146.6 59.5 146.6 61.9 149 64.4 146.6"/>
        <polygon class="cls-2" points="181.1 70.2 186.4 75.5 189.1 62.2 181.1 70.2"/>
        <polygon class="cls-2" points="80.5 52 83 52 81.7 50.8 80.5 52"/>
        <path class="cls-2" d="M107.8,36.5c-.2-3.8-.6-7.2-1.5-10.3l-4.4,4.4,5.9,5.9Z"/>
        <path class="cls-2" d="M82.1,50.4l1.6,1.6h24.2v-12.5c0-.8,0-1.5,0-2.3l-6.3-6.3-19.4,19.4Z"/>
        <path class="cls-2" d="M101.9,149.4l7.2,7.2c.9-3.7,1.3-7.8,1.3-12.4v-3.4l-8.5,8.5Z"/>
        <polygon class="cls-2" points="180.4 70.2 160.9 50.8 155.9 55.8 151.2 79.9 160.9 89.6 180.4 70.2"/>
        <polygon class="cls-2" points="186.2 76.1 180.7 70.6 161.3 90 179.6 108.3 186.2 76.1"/>
        <polygon class="cls-2" points="151.1 80.5 146.5 104.1 160.6 90 151.1 80.5"/>
        <path class="cls-2" d="M78.2,178.6c4.2,0,7.9-.4,11.3-1.3l-7.8-7.8-9.1,9.1h5.5Z"/>
        <path class="cls-2" d="M101.2,149.4l-19.4-19.4-3.5,3.5v7.9c0,1.4-.5,2.6-1.6,3.6-.9,1-2,1.6-3.4,1.6h-8.2l-2.8,2.8,19.4,19.4,19.4-19.4Z"/>
        <path class="cls-2" d="M109,157.2l-7.5-7.5-19.4,19.4,8,8c10-2.7,16.3-9.4,19-19.9Z"/>
        <polygon class="cls-2" points="135.8 35.6 140.8 30.6 121.3 11.2 114.6 17.9 114.6 35.6 135.8 35.6"/>
        <polygon class="cls-2" points="47.8 124.3 42.5 129.6 47.8 134.9 47.8 124.3"/>
        <path class="cls-2" d="M15.3,142.7v1.6c0,4,.3,7.6,1,10.8l5.7-5.7-6.7-6.7Z"/>
        <polygon class="cls-2" points="74.6 43.6 74.6 52 79.8 52 81.4 50.4 74.6 43.6"/>
        <polygon class="cls-2" points="121 10.8 118 7.8 114.6 7.8 114.6 17.2 121 10.8"/>
        <path class="cls-2" d="M61.9,30.2l19.4-19.4-5.6-5.6c0,0-.1,0-.2,0h-27.5l-5.6,5.6,19.4,19.4Z"/>
        <path class="cls-2" d="M22.3,30.2l19.4-19.4-4.6-4.6c-10.4,2.3-17.1,8.6-20.1,18.8l5.2,5.2Z"/>
        <path class="cls-2" d="M101.2,109.8l-19.4-19.4-15.7,15.7h7.2c1.4,0,2.5.5,3.4,1.6,1,1,1.6,2.3,1.6,3.6v14.4l3.5,3.5,19.4-19.4Z"/>
        <polygon class="cls-2" points="61.9 149.7 42.5 169.2 51.9 178.6 72 178.6 81.4 169.2 61.9 149.7"/>
        <polygon class="cls-2" points="121.3 10.4 124 7.8 118.7 7.8 121.3 10.4"/>
        <polygon class="cls-2" points="136.5 35.6 145.8 35.6 141.1 31 136.5 35.6"/>
        <path class="cls-2" d="M110.1,101.6l-8.2,8.2,8.5,8.5v-9.9c0-2.4-.1-4.7-.4-6.8Z"/>
        <polygon class="cls-2" points="81.4 129.6 78.2 126.4 78.2 132.8 81.4 129.6"/>
        <polygon class="cls-2" points="157.5 47.3 156.1 54.9 160.6 50.4 157.5 47.3"/>
        <path class="cls-2" d="M94.3,77c-4.5-2-9.8-3-16.1-3h-12l15.6,15.6,12.6-12.6Z"/>
        <polygon class="cls-2" points="110.4 140.1 110.4 119.1 101.5 110.2 82.1 129.6 101.5 149 110.4 140.1"/>
        <path class="cls-2" d="M101.5,109.4l8.5-8.5c-1.4-11.8-6.5-19.7-15.2-23.7l-12.7,12.7,19.4,19.4Z"/>
        <polygon class="cls-2" points="157.6 7.8 124.7 7.8 121.7 10.8 141.1 30.2 160.6 10.8 157.6 7.8"/>
        <path class="cls-2" d="M22.7,30.6l19.4,19.4,5.6-5.6v-5.7c0-1.4.4-2.6,1.3-3.6,1-1,2.3-1.6,3.6-1.6h5.9l2.9-2.9-19.4-19.4-19.4,19.4Z"/>
        <path class="cls-2" d="M15.3,38c0,.5,0,1,0,1.5v23.3l7.1,7.1,19.4-19.4-19.4-19.4-7,7Z"/>
        <path class="cls-2" d="M22.3,149.7l-6,6c2.3,10.9,8.3,17.9,17.9,21l7.5-7.5-19.4-19.4Z"/>
        <polygon class="cls-2" points="22 70.2 15.3 63.5 15.3 76.9 22 70.2"/>
        <polygon class="cls-2" points="161.3 10.8 180.7 30.2 199.6 11.3 199.8 10.4 197.2 7.8 164.3 7.8 161.3 10.8"/>
        <polygon class="cls-2" points="178.8 112.1 161.3 129.6 172.8 141.1 178.8 112.1"/>
        <polygon class="cls-2" points="199.9 9.9 200.4 7.8 197.9 7.8 199.9 9.9"/>
        <path class="cls-2" d="M51.2,178.6l-9.1-9.1-7.4,7.4c3.7,1.1,8,1.7,12.7,1.7h3.7Z"/>
        <path class="cls-2" d="M22,30.6l-5-5c-1,3.5-1.5,7.3-1.7,11.7l6.7-6.7Z"/>
        <polygon class="cls-2" points="161.3 169.2 166 173.9 168.4 162.1 161.3 169.2"/>
        <path class="cls-2" d="M42.1,10.4l5.3-5.3c-3.5,0-6.7.3-9.6.9l4.3,4.3Z"/>
        <polygon class="cls-2" points="141.1 149.7 136.8 154.1 132.5 176 153.8 176 160.6 169.2 141.1 149.7"/>
        <polygon class="cls-2" points="161.3 50.4 180.7 69.8 189.3 61.3 193 43.2 180.7 31 161.3 50.4"/>
        <polygon class="cls-2" points="165.9 174.5 160.9 169.5 154.5 176 165.5 176 165.9 174.5"/>
        <polygon class="cls-2" points="172.7 141.7 160.9 130 141.5 149.4 160.9 168.8 168.6 161.2 172.7 141.7"/>
        <polygon class="cls-2" points="179 111.2 179.4 108.9 160.9 90.4 146.3 105 144.8 113.1 160.9 129.2 179 111.2"/>
        <path class="cls-2" d="M101.5,30.2l4.6-4.6c-2.9-10.3-9.4-16.8-19.6-19.3l-4.4,4.4,19.4,19.4Z"/>
        <path class="cls-2" d="M81.7,10.4l4.2-4.2c-2.9-.7-6-1-9.5-1.1l5.3,5.3Z"/>
        <path class="cls-2" d="M65.2,33.5h4.4c1.4,0,2.5.5,3.4,1.6,1,1,1.6,2.3,1.6,3.6v4.1l7.2,7.2,19.4-19.4-19.4-19.4-19.4,19.4,2.9,2.9Z"/>
        <polygon class="cls-2" points="141.5 30.6 146.5 35.6 159.8 35.6 157.7 46.8 160.9 50 180.4 30.6 160.9 11.2 141.5 30.6"/>
        <polygon class="cls-2" points="181.1 30.6 193.2 42.7 199.5 12.2 181.1 30.6"/>
        <polygon class="cls-2" points="59.4 33.5 64.5 33.5 61.9 31 59.4 33.5"/>
        <polygon class="cls-2" points="160.6 129.6 144.6 113.7 138.3 146.2 141.1 149 160.6 129.6"/>
        <polygon class="cls-2" points="158.3 7.8 160.9 10.4 163.6 7.8 158.3 7.8"/>
        <path class="cls-2" d="M61.6,149.4l-2.8-2.8h-6.1c-1.4,0-2.6-.5-3.6-1.6-.9-1-1.3-2.3-1.3-3.6v-5.8l-5.6-5.6-19.4,19.4,19.4,19.4,19.4-19.4Z"/>
        <polygon class="cls-2" points="41.8 129.6 22.3 110.2 15.3 117.2 15.3 142 22.3 149 41.8 129.6"/>
        <polygon class="cls-2" points="138.2 146.8 136.9 153.2 140.8 149.4 138.2 146.8"/>
        <polygon class="cls-2" points="47.8 55.7 47.8 45.1 42.5 50.4 47.8 55.7"/>
        <polygon class="cls-2" points="15.3 103.1 15.3 116.5 22 109.8 15.3 103.1"/>
        <path class="cls-2" d="M22.7,70.2l19.4,19.4,15-15c-3.5.5-6.6,1.5-9.3,2.8v-21.1l-5.6-5.6-19.4,19.4Z"/>
        <polygon class="cls-2" points="15.3 77.6 15.3 102.4 22.3 109.4 41.8 90 22.3 70.6 15.3 77.6"/>
      </g>
    </g>
  </g>
</svg>