<?xml version="1.0" encoding="UTF-8"?>
<svg id="Layer_2" xmlns="http://www.w3.org/2000/svg" viewBox="0 0 255.12 255.12">
  <defs>
    <style>
      .cls-1 {
        fill: none;
      }

      .cls-2 {
        fill: #fff;
      }
    </style>
  </defs>
  <g id="Layer_1-2" data-name="Layer_1">
    <path class="cls-2" d="M220.41,222.18l-21.45-42.48c17.14-16.06,26.93-38.54,26.93-62.06,0-4.07-.3-8.19-.88-12.25,21.95-40.29,20.26-79.69,20.24-80.08l-.02-.21c-.78-5.48-2.84-9.09-6.11-10.72-1.48-.74-2.85-.83-3.86-.76-2.32-4.87-5.58-6.4-7.94-6.82-2.83-.5-4.97-.01-6.39.59-2.16-3.06-5.71-4.82-9.43-4.4-8.36.9-13.92,11.07-15.13,13.5-3.98,6.27-7.7,13.52-11.31,22.06-12.31-8.11-26.5-13.01-41.26-14.24-27.03-2.26-51.63,6.66-69.75,25.16-4.42-6.86-10.83-16.06-17.75-23.45-1.65-2.17-8.97-11.15-17.37-10.45-3.73.28-6.91,2.67-8.46,6.08-1.52-.34-3.71-.41-6.39.61-2.24.85-5.16,2.96-6.53,8.18-1,.12-2.33.46-3.66,1.47-2.91,2.22-4.26,6.14-4,11.71,0,.09.01.18.03.3.05.38,8.84,42.21,38.12,74.13,0,.07,0,.15,0,.22,1.56,24.76,13.62,47.73,33.2,63.42l-20.4,40.49c-7.31,4.14-10.96,8.18-10.85,12.03.04,1.44.65,4.11,4.3,5.77l.22.1,32.5,8.95,11.4,2.73c.43.12,1.62.42,3.19.42,1.68,0,3.81-.33,5.95-1.56,3.28-1.88,5.58-5.33,6.67-9.98l13.56-38.99c8.58,1.33,17.1,1.36,25.72.06l13.54,38.93c1.09,4.65,3.39,8.1,6.67,9.98,4.14,2.38,8.26,1.4,9.14,1.15l11.3-2.7,32.37-8.92.45-.16c3.65-1.66,4.26-4.33,4.3-5.77.11-3.85-3.54-7.9-10.85-12.04Z"/>
    <rect class="cls-1" width="255.12" height="255.12"/>
  </g>
</svg>