<?xml version="1.0" encoding="UTF-8"?>
<svg xmlns="http://www.w3.org/2000/svg" version="1.1" viewBox="0 0 263 180">
  <defs>
    <style>
      .cls-1 {
        fill: none;
      }

      .cls-2 {
        fill: #c59f7b;
      }
    </style>
  </defs>
  <!-- Generator: Adobe Illustrator 28.7.1, SVG Export Plug-In . SVG Version: 1.2.0 Build 142)  -->
  <g>
    <g id="Layer_1">
      <rect class="cls-1" width="263" height="180"/>
      <path class="cls-2" d="M250.9,8.6h5l-19.6,32.4h-5l19.6-32.4ZM233.6,25.1h-1.2c-4.1,0-6.2-2.2-6.2-6.6v-3.8c0-4.4,2.1-6.6,6.2-6.6h1.2c4.1,0,6.2,2.2,6.2,6.6v3.8c0,4.4-2.1,6.6-6.2,6.6ZM231.3,21c0,.3,0,.5.2.7.2.2.4.3.7.3h1.6c.3,0,.5-.1.6-.3.2-.2.3-.4.3-.7v-8.8c0-.3-.1-.5-.3-.7-.2-.2-.4-.3-.6-.3h-1.6c-.3,0-.5.1-.7.3-.2.2-.2.4-.2.7v8.8ZM254.6,24.5c4.1,0,6.2,2.2,6.2,6.6v3.8c0,4.4-2.1,6.6-6.2,6.6h-1.2c-4.1,0-6.2-2.2-6.2-6.6v-3.8c0-4.4,2.1-6.6,6.2-6.6h1.2ZM255.8,37.4v-8.8c0-.3-.1-.5-.3-.7-.2-.2-.4-.3-.7-.3h-1.5c-.3,0-.5.1-.7.3-.2.2-.2.4-.2.7v8.8c0,.3,0,.5.2.7.2.2.4.3.7.3h1.5c.3,0,.5-.1.7-.3.2-.2.3-.4.3-.7Z"/>
      <g>
        <polygon class="cls-2" points="84.7 168.5 92.2 176 108.8 176 108.8 153.7 104.2 149 84.7 168.5"/>
        <polygon class="cls-2" points="104.5 148.7 108.8 153 108.8 144.4 104.5 148.7"/>
        <path class="cls-2" d="M28.4,106.1c4.7,2.4,10.6,3.6,17.6,3.6h17.7l.6-.6-19.4-19.4-16.4,16.4Z"/>
        <path class="cls-2" d="M118.3,163.2c1.1,2.4,2.5,4.6,4.2,6.4l1.1-1.1-5.3-5.3Z"/>
        <path class="cls-2" d="M64.6,108.7l19.4-19.4-10.7-10.7c-.6.3-1.2.4-1.9.4h-16l-10.3,10.3,19.4,19.4Z"/>
        <path class="cls-2" d="M76.3,58.1v15.7c0,1.4-.5,2.6-1.6,3.6-.3.4-.6.6-1,.9l10.6,10.6,19.4-19.4-19.4-19.4-8,8Z"/>
        <polygon class="cls-2" points="76.3 57.4 84 49.7 76.3 42 76.3 57.4"/>
        <polygon class="cls-2" points="124.3 49.7 143.8 69.1 150.1 62.8 150.1 36.6 143.8 30.3 124.3 49.7"/>
        <polygon class="cls-2" points="150.1 103.1 144.1 109.1 150.1 115.1 150.1 103.1"/>
        <polygon class="cls-2" points="104.2 109.4 84.7 128.9 104.2 148.3 108.8 143.7 108.8 114.1 104.2 109.4"/>
        <polygon class="cls-2" points="144.1 69.5 150.1 75.5 150.1 63.5 144.1 69.5"/>
        <polygon class="cls-2" points="114.8 58.5 123.6 49.7 114.8 40.9 114.8 58.5"/>
        <polygon class="cls-2" points="174.8 61.3 174.8 77.7 183 69.5 174.8 61.3"/>
        <polygon class="cls-2" points="114.8 120.1 114.8 137.7 123.6 128.9 114.8 120.1"/>
        <polygon class="cls-2" points="150.1 102.4 150.1 76.2 143.8 69.8 124.3 89.3 143.8 108.7 150.1 102.4"/>
        <polygon class="cls-2" points="143.4 109.1 124 89.6 114.8 98.8 114.8 119.4 124 128.5 143.4 109.1"/>
        <polygon class="cls-2" points="114.8 80.5 114.8 98.1 123.6 89.3 114.8 80.5"/>
        <polygon class="cls-2" points="210.2 82.6 203.5 89.3 210.2 96 210.2 82.6"/>
        <polygon class="cls-2" points="84.7 49.7 104.2 69.1 108.8 64.5 108.8 34.9 104.2 30.3 84.7 49.7"/>
        <polygon class="cls-2" points="104.5 29.9 108.8 34.2 108.8 25.6 104.5 29.9"/>
        <polygon class="cls-2" points="108.8 104.8 104.5 109.1 108.8 113.4 108.8 104.8"/>
        <polygon class="cls-2" points="104.2 69.8 84.7 89.3 104.2 108.7 108.8 104.1 108.8 74.5 104.2 69.8"/>
        <path class="cls-2" d="M183.4,29.5l17.3-17.3c-5.3-4.7-12.9-7.1-22.7-7.1h-9.1l-4.9,4.9,19.4,19.4Z"/>
        <polygon class="cls-2" points="143.4 69.5 124 50.1 114.8 59.2 114.8 79.8 124 88.9 143.4 69.5"/>
        <path class="cls-2" d="M203.2,49.3l7-7v-2.8c0-12.2-3.1-21.2-9.2-26.9l-17.3,17.3,19.4,19.4Z"/>
        <polygon class="cls-2" points="183.7 69.5 203.2 88.9 210.2 81.9 210.2 57.1 203.2 50.1 183.7 69.5"/>
        <polygon class="cls-2" points="84.4 129.2 76.3 137.3 76.3 160.1 84.4 168.1 103.8 148.7 84.4 129.2"/>
        <polygon class="cls-2" points="84.4 89.6 64.9 109.1 65.5 109.7 76.3 109.7 76.3 120.5 84.4 128.5 103.8 109.1 84.4 89.6"/>
        <polygon class="cls-2" points="104.5 69.5 108.8 73.8 108.8 65.2 104.5 69.5"/>
        <polygon class="cls-2" points="76.3 121.2 76.3 136.6 84 128.9 76.3 121.2"/>
        <polygon class="cls-2" points="64.3 109.7 64.8 109.7 64.6 109.4 64.3 109.7"/>
        <polygon class="cls-2" points="84.4 168.8 77.2 176 91.5 176 84.4 168.8"/>
        <polygon class="cls-2" points="76.3 160.8 76.3 176 76.5 176 84 168.5 76.3 160.8"/>
        <path class="cls-2" d="M114.8,39.5v.7l9.2,9.2,19.4-19.4-18.3-18.3c-6.9,5.6-10.4,14.9-10.4,27.9Z"/>
        <polygon class="cls-2" points="210.2 56.4 210.2 43 203.5 49.7 210.2 56.4"/>
        <path class="cls-2" d="M174.8,140.5v7.9c0,1.4-.5,2.6-1.6,3.6-.9,1-2,1.6-3.4,1.6h-14.8c-1.4,0-2.6-.5-3.6-1.6-.9-1-1.3-2.3-1.3-3.6v-5.8l-6,6,19.4,19.4,19.4-19.4-8.2-8.2Z"/>
        <polygon class="cls-2" points="25.3 29.9 44.8 49.3 45.9 48.2 45.9 11.6 44.8 10.5 25.3 29.9"/>
        <polygon class="cls-2" points="163.6 168.8 153.8 178.6 173.3 178.6 163.6 168.8"/>
        <polygon class="cls-2" points="202.8 128.9 183.4 109.4 174.8 118 174.8 139.8 183.4 148.3 202.8 128.9"/>
        <path class="cls-2" d="M143.8,149l-19.4,19.4,7.6,7.6c4.3,1.7,9.3,2.5,15.1,2.5h6.1l10.1-10.1-19.4-19.4Z"/>
        <polygon class="cls-2" points="104.2 29.5 108.8 24.9 108.8 7.8 87 7.8 84.7 10.1 104.2 29.5"/>
        <path class="cls-2" d="M13.9,80.3l10.8-10.8-10.9-10.9v16.8c0,1.7,0,3.3.2,4.9Z"/>
        <polygon class="cls-2" points="210.2 121.5 210.2 96.7 203.2 89.6 183.7 109.1 203.2 128.5 210.2 121.5"/>
        <polygon class="cls-2" points="203.5 128.9 210.2 135.6 210.2 122.2 203.5 128.9"/>
        <path class="cls-2" d="M205,166.3c3.5-5.5,5.2-12.8,5.2-22v-8l-7-7-19.4,19.4,19.4,19.4,1.8-1.8Z"/>
        <path class="cls-2" d="M203.2,168.8l-3.3,3.3c1.2-1,2.3-2.1,3.3-3.3h0Z"/>
        <polygon class="cls-2" points="13.7 18.2 25 29.5 44.4 10.1 42.1 7.8 13.7 7.8 13.7 18.2"/>
        <path class="cls-2" d="M183.4,149l-19.4,19.4,10.1,10.1h3.9c8,0,14.4-1.6,19.5-4.7l5.4-5.4-19.4-19.4Z"/>
        <polygon class="cls-2" points="44.8 9.7 45.9 8.6 45.9 7.8 42.8 7.8 44.8 9.7"/>
        <polygon class="cls-2" points="24.6 29.9 13.7 19 13.7 40.8 24.6 29.9"/>
        <polygon class="cls-2" points="13.7 41.5 13.7 57.8 25 69.1 44.4 49.7 25 30.3 13.7 41.5"/>
        <path class="cls-2" d="M13.9,80.9c1,12.1,5.7,20.5,14,24.9l16.5-16.5-19.4-19.4-11.1,11.1Z"/>
        <path class="cls-2" d="M124,168.8l-1.1,1.1c2.2,2.3,4.8,4.2,7.8,5.5l-6.7-6.7Z"/>
        <path class="cls-2" d="M25.3,69.5l19.4,19.4,9.9-9.9h-3.8c-1.4,0-2.6-.5-3.6-1.6-.9-1-1.3-2.3-1.3-3.6v-22.6l-1.1-1.1-19.4,19.4Z"/>
        <path class="cls-2" d="M124,129.2l-9.2,9.2v5.8c0,6.9,1,12.8,3,17.6l6.2,6.2,19.4-19.4-19.4-19.4Z"/>
        <polygon class="cls-2" points="76.3 41.3 84.4 49.3 103.8 29.9 84.4 10.5 76.3 18.5 76.3 41.3"/>
        <polygon class="cls-2" points="45.9 50.5 45.9 48.9 45.1 49.7 45.9 50.5"/>
        <polygon class="cls-2" points="84.4 9.7 86.3 7.8 82.4 7.8 84.4 9.7"/>
        <polygon class="cls-2" points="150.1 142 150.1 115.8 143.8 109.4 124.3 128.9 143.8 148.3 150.1 142"/>
        <polygon class="cls-2" points="159 5.2 163.6 9.7 168.1 5.2 159 5.2"/>
        <path class="cls-2" d="M125.5,11.3l18.2,18.2,19.4-19.4-4.9-4.9h-11.3c-9.1,0-16.2,2.1-21.5,6.1Z"/>
        <polygon class="cls-2" points="45.9 10.9 45.9 9.3 45.1 10.1 45.9 10.9"/>
        <polygon class="cls-2" points="76.3 17.8 84 10.1 81.7 7.8 76.3 7.8 76.3 17.8"/>
        <path class="cls-2" d="M144.1,29.9l6,6v-.8c0-1.4.4-2.6,1.3-3.6,1-1,2.3-1.6,3.6-1.6h14.8c1.4,0,2.5.5,3.4,1.6,1,1,1.6,2.3,1.6,3.6v3l8.2-8.2-19.4-19.4-19.4,19.4Z"/>
        <polygon class="cls-2" points="202.8 89.3 183.4 69.8 174.8 78.4 174.8 100.2 183.4 108.7 202.8 89.3"/>
        <polygon class="cls-2" points="174.8 38.8 174.8 60.6 183.4 69.1 202.8 49.7 183.4 30.3 174.8 38.8"/>
        <polygon class="cls-2" points="174.8 100.9 174.8 117.3 183 109.1 174.8 100.9"/>
      </g>
    </g>
  </g>
</svg>