<?xml version="1.0" encoding="UTF-8"?>
<svg xmlns="http://www.w3.org/2000/svg" version="1.1" viewBox="0 0 263 180">
  <defs>
    <style>
      .cls-1 {
        fill: none;
      }

      .cls-2 {
        fill: #c59f7b;
      }
    </style>
  </defs>
  <!-- Generator: Adobe Illustrator 28.7.1, SVG Export Plug-In . SVG Version: 1.2.0 Build 142)  -->
  <g>
    <g id="Layer_1">
      <path class="cls-2" d="M250.9,8.6h5l-19.6,32.4h-5l19.6-32.4ZM233.6,25.1h-1.2c-4.1,0-6.2-2.2-6.2-6.6v-3.8c0-4.4,2.1-6.6,6.2-6.6h1.2c4.1,0,6.2,2.2,6.2,6.6v3.8c0,4.4-2.1,6.6-6.2,6.6ZM231.3,21c0,.3,0,.5.2.7.2.2.4.3.7.3h1.6c.3,0,.5-.1.6-.3.2-.2.3-.4.3-.7v-8.8c0-.3-.1-.5-.3-.7-.2-.2-.4-.3-.6-.3h-1.6c-.3,0-.5.1-.7.3-.2.2-.2.4-.2.7v8.8ZM254.6,24.5c4.1,0,6.2,2.2,6.2,6.6v3.8c0,4.4-2.1,6.6-6.2,6.6h-1.2c-4.1,0-6.2-2.2-6.2-6.6v-3.8c0-4.4,2.1-6.6,6.2-6.6h1.2ZM255.8,37.4v-8.8c0-.3-.1-.5-.3-.7-.2-.2-.4-.3-.7-.3h-1.5c-.3,0-.5.1-.7.3-.2.2-.2.4-.2.7v8.8c0,.3,0,.5.2.7.2.2.4.3.7.3h1.5c.3,0,.5-.1.7-.3.2-.2.3-.4.3-.7Z"/>
      <g>
        <polygon class="cls-2" points="144.8 70.2 125.3 50.8 113.2 62.9 113.2 77.5 125.3 89.6 144.8 70.2"/>
        <polygon class="cls-2" points="74.1 118.3 74.1 140.9 85.4 129.6 74.1 118.3"/>
        <polygon class="cls-2" points="113.2 117.8 113.2 141.4 125 129.6 113.2 117.8"/>
        <path class="cls-2" d="M105.2,109.8l-19.4-19.4-18.2,18.2c2.4-.6,4.6-1.3,6.6-2.3v11.3l11.6,11.6,19.4-19.4Z"/>
        <path class="cls-2" d="M29.1,107.4c4.1,1.5,9,2.3,14.6,2.3h13c2.9,0,5.6-.2,8.2-.6l-18.7-18.7-17,17Z"/>
        <path class="cls-2" d="M74.1,62.4v10.1c0,1.4-.5,2.6-1.6,3.6,0,0-.1,0-.2.1l13.3,13.3,19.4-19.4-19.4-19.4-11.6,11.6Z"/>
        <path class="cls-2" d="M125,50.4l-11.8-11.8c0,.3,0,.6,0,.9v22.7l11.8-11.8Z"/>
        <path class="cls-2" d="M86.1,50.4l19.4,19.4,1.1-1.1v-29.3c0-2.8-.2-5.5-.5-8l-.6-.6-19.4,19.4Z"/>
        <path class="cls-2" d="M65.5,109c.4,0,.8-.1,1.1-.2l18.8-18.8-13.3-13.3c-.8.7-1.7,1.1-2.9,1.1h-10.4l-12.3,12.3,19,19Z"/>
        <polygon class="cls-2" points="172.4 43.3 172.4 52 202.6 52 204.2 50.4 184.7 31 172.4 43.3"/>
        <path class="cls-2" d="M145.5,30.6l3.3,3.3c.6-.2,1.2-.4,1.8-.4h16.9c1.4,0,2.5.5,3.4,1.6,1,1,1.6,2.3,1.6,3.6v3.8l11.9-11.9-19.4-19.4-19.4,19.4Z"/>
        <polygon class="cls-2" points="144.8 109.8 125.3 90.4 113.2 102.5 113.2 117.1 125.3 129.2 144.8 109.8"/>
        <path class="cls-2" d="M127.5,9l-1.8,1.8,19.4,19.4,19.4-19.4-5.6-5.6h-13.6c-7.2,0-13.1,1.3-17.9,3.8Z"/>
        <polygon class="cls-2" points="159.7 5.2 164.9 10.4 170.2 5.2 159.7 5.2"/>
        <path class="cls-2" d="M180.3,74.2c-1.4-.1-2.8-.2-4.3-.2h-13c-4.6,0-8.6.5-12.2,1.5l14.1,14.1,15.4-15.4Z"/>
        <path class="cls-2" d="M105.5,30.2l.3-.3c-1.9-11.3-7.4-18.7-16.6-22.3l-3.2,3.2,19.4,19.4Z"/>
        <polygon class="cls-2" points="203.3 52 205.7 52 205.7 51.9 204.5 50.8 203.3 52"/>
        <polygon class="cls-2" points="204.9 50.4 205.7 51.2 205.7 49.6 204.9 50.4"/>
        <path class="cls-2" d="M105.9,149.4l.5.5c0-.3,0-.7,0-1.1l-.6.6Z"/>
        <path class="cls-2" d="M115.2,159.4c1.6,5,4.1,9,7.5,12l2.3-2.3-9.8-9.8Z"/>
        <path class="cls-2" d="M86.1,169.2l5.8,5.8c8.4-4.3,13.2-12.5,14.4-24.5l-.8-.8-19.4,19.4Z"/>
        <path class="cls-2" d="M106.6,111.2l-1.1-1.1-19.4,19.4,19.4,19.4,1-1c0-1.2.1-2.5.1-3.8v-33Z"/>
        <path class="cls-2" d="M106,30.5h0c0,0,.1.2.1.2,0,0,0-.1,0-.2Z"/>
        <path class="cls-2" d="M185.1,30.6l19.4,19.4,1.2-1.2v-9.4c0-10-2-17.8-6.1-23.4l-14.5,14.5Z"/>
        <path class="cls-2" d="M146,109.3l-.5.5.3.3c0-.3.1-.5.2-.8Z"/>
        <path class="cls-2" d="M150.3,75.7c-1.6.5-3.2,1.1-4.6,1.7v-6.4l-.5-.5-19.4,19.4,19.4,19.4,1.8-1.8s0,0,0,0c0,0,0,0,0,0l17.6-17.6-14.3-14.3Z"/>
        <path class="cls-2" d="M125,10.8l-.2-.2c-2.5,1.8-4.7,4-6.4,6.7l6.5-6.5Z"/>
        <polygon class="cls-2" points="145.7 70 145.5 70.2 145.7 70.4 145.7 70"/>
        <polygon class="cls-2" points="105.5 70.6 86.1 90 105.5 109.4 106.6 108.4 106.6 71.6 105.5 70.6"/>
        <polygon class="cls-2" points="106.6 109.1 105.9 109.8 106.6 110.5 106.6 109.1"/>
        <polygon class="cls-2" points="105.9 70.2 106.6 70.9 106.6 69.5 105.9 70.2"/>
        <path class="cls-2" d="M125.7,50.4l19.4,19.4.5-.5v-30.6c0-1.4.4-2.6,1.3-3.6.4-.4.9-.7,1.3-1l-3.2-3.2-19.4,19.4Z"/>
        <polygon class="cls-2" points="113.2 78.2 113.2 101.8 125 90 113.2 78.2"/>
        <path class="cls-2" d="M125.3,50l19.4-19.4-19.4-19.4-7.9,7.9c-2.7,5-4.1,11.2-4.3,18.8l12.2,12.2Z"/>
        <path class="cls-2" d="M125.8,10c-.2.1-.4.3-.6.4h0c0,0,.5-.4.5-.4Z"/>
        <polygon class="cls-2" points="11.5 45.8 11.5 55 26.3 69.8 43.7 52.5 43.7 48.3 26.3 31 11.5 45.8"/>
        <path class="cls-2" d="M55.2,178.6l-9.1-9.1-8.3,8.3c2.6.5,5.5.7,8.5.7h8.9Z"/>
        <path class="cls-2" d="M76,178.6l9.4-9.4-18.9-18.9h-1l-18.9,18.9,9.4,9.4h18.5c.6,0,1.1,0,1.6,0Z"/>
        <path class="cls-2" d="M145.1,149.7l-19.4,19.4,8,8c3.5.9,7.4,1.4,11.7,1.4h9.8l9.4-9.4-19.4-19.4Z"/>
        <polygon class="cls-2" points="164.9 169.5 155.9 178.6 174 178.6 164.9 169.5"/>
        <path class="cls-2" d="M14.1,137.5v6.8c0,5.7.7,10.7,2,15l9.9-9.9-11.9-11.9Z"/>
        <path class="cls-2" d="M85.7,10.4l3-3c-2.4-.9-5-1.5-7.9-1.9l4.9,4.9Z"/>
        <path class="cls-2" d="M12.1,84.1l13.9-13.9-14.5-14.5v19.7c0,3.1.2,6,.6,8.7Z"/>
        <path class="cls-2" d="M176.1,141.1v.3c0,1.4-.5,2.6-1.6,3.6-.9,1-2,1.6-3.4,1.6h-20.5c-.7,0-1.3-.1-1.9-.4l-3.2,3.2,19.4,19.4,19.4-19.4-8.3-8.3Z"/>
        <path class="cls-2" d="M208.3,125.5v-17.1c0-6.6-.9-12.3-2.7-17l-1.1-1.1-19.4,19.4,19.4,19.4,3.8-3.8Z"/>
        <path class="cls-2" d="M11.5,45.1l14.5-14.5-10.7-10.7c-2.6,5.2-3.8,11.7-3.8,19.6v5.6Z"/>
        <polygon class="cls-2" points="204.2 129.6 184.7 110.2 176.1 118.8 176.1 140.4 184.7 149 204.2 129.6"/>
        <path class="cls-2" d="M202.4,167.4l-17.6-17.6-19.4,19.4,9.4,9.4h1.4c12.3,0,21-3.7,26.3-11.2Z"/>
        <polygon class="cls-2" points="204.9 129.6 208.3 133 208.3 126.2 204.9 129.6"/>
        <path class="cls-2" d="M208.3,133.7l-3.8-3.8-19.4,19.4,17.6,17.6c3.8-5.6,5.6-13.1,5.6-22.7v-10.5Z"/>
        <path class="cls-2" d="M26.7,30.6l17,17v-5.2c0-1.4.4-2.6,1.3-3.6,1-1,2.3-1.6,3.6-1.6h10.4l6.6-6.6-19.4-19.4-19.4,19.4Z"/>
        <path class="cls-2" d="M15.5,19.4l10.8,10.8,19.4-19.4-5.5-5.5c-12,.7-20.2,5.5-24.7,14.2Z"/>
        <path class="cls-2" d="M41,5.3l5.2,5.2,5.3-5.3h-7.7c-.9,0-1.9,0-2.8,0Z"/>
        <path class="cls-2" d="M37.2,177.8l8.6-8.6-19.4-19.4-10.1,10.1c3.3,9.9,10.3,15.9,20.9,18Z"/>
        <path class="cls-2" d="M64.7,150.3h-12.4c-1.4,0-2.6-.5-3.6-1.6-.9-1-1.3-2.3-1.3-3.6v-13.3h-3l-17.6,17.6,19.4,19.4,18.6-18.6Z"/>
        <path class="cls-2" d="M12.2,84.7c1.8,11.4,7.3,18.8,16.4,22.4l17.2-17.2-19.4-19.4-14.2,14.2Z"/>
        <path class="cls-2" d="M65.9,30.2l19.4-19.4-5.3-5.3c-1.8-.2-3.7-.3-5.7-.3h-22.3l-5.6,5.6,19.4,19.4Z"/>
        <path class="cls-2" d="M105.2,149.4l-19.4-19.4-11.6,11.6v3.5c0,1.4-.5,2.6-1.6,3.6-.9,1-2,1.6-3.4,1.6h-2l18.6,18.6,19.4-19.4Z"/>
        <path class="cls-2" d="M59.7,37.2h9.4c1.4,0,2.5.5,3.4,1.6,1,1,1.6,2.3,1.6,3.6v19.3l11.3-11.3-19.4-19.4-6.2,6.2Z"/>
        <rect class="cls-2" x="72" y="16.9" width="27.5" height="27.5" transform="translate(3.5 69.6) rotate(-45)"/>
        <path class="cls-2" d="M26.7,70.2l19.4,19.4,11.9-11.9h-9.4c-1.4,0-2.6-.5-3.6-1.6-.9-1-1.3-2.3-1.3-3.6v-19.3l-17,17Z"/>
        <path class="cls-2" d="M91.4,175.2l-5.7-5.7-9,9c5.7-.2,10.6-1.3,14.7-3.3Z"/>
        <polygon class="cls-2" points="43.6 131.8 14.1 131.8 14.1 136.8 26.3 149 43.6 131.8"/>
        <path class="cls-2" d="M204.8,89.4c-2.8-5.9-7.1-10.1-13.1-12.6l12.8,12.8.2-.2Z"/>
        <path class="cls-2" d="M204.2,90l-13.6-13.6c-2.8-1.1-6-1.7-9.6-2.1l-15.7,15.7,19.4,19.4,19.4-19.4Z"/>
        <path class="cls-2" d="M125.3,169.5l-2.2,2.2c2.7,2.3,5.9,4,9.6,5.1l-7.4-7.4Z"/>
        <path class="cls-2" d="M184.7,30.2l14.5-14.5c-5.3-7-13.9-10.5-25.8-10.5h-2.6l-5.6,5.6,19.4,19.4Z"/>
        <path class="cls-2" d="M205,89.9h0c0,0,.3.4.3.4,0-.1-.1-.2-.2-.4Z"/>
        <path class="cls-2" d="M125.3,130l-12.2,12.2v2.2c0,5.3.6,10.1,1.8,14.1l10.4,10.4,19.4-19.4-19.4-19.4Z"/>
        <path class="cls-2" d="M148.2,146c-.4-.2-.9-.5-1.2-.9-.9-1-1.3-2.3-1.3-3.6v-30.2c0-.2,0-.4,0-.5l-.6-.6-19.4,19.4,19.4,19.4,3.1-3.1Z"/>
        <path class="cls-2" d="M184.4,109.8l-19.4-19.4-16,16c.5-.2,1.1-.3,1.7-.3h20.5c1.4,0,2.5.5,3.4,1.6,1,1,1.6,2.3,1.6,3.6v6.8l8.3-8.3Z"/>
      </g>
      <rect class="cls-1" width="263" height="180"/>
    </g>
  </g>
</svg>