<?xml version="1.0" encoding="UTF-8"?>
<svg id="Layer_2" xmlns="http://www.w3.org/2000/svg" viewBox="0 0 255.12 255.12">
  <defs>
    <style>
      .cls-1 {
        fill: none;
      }

      .cls-2 {
        fill: #231f20;
      }

      .cls-3 {
        fill: #8e8e93;
      }

      .cls-4 {
        fill: #fff;
      }
    </style>
  </defs>
  <g id="Layer_1-2" data-name="Layer_1">
    <rect class="cls-1" width="255.12" height="255.12"/>
    <g>
      <circle class="cls-3" cx="127.6" cy="103.03" r="82.04"/>
      <path d="M42.16,100.09c-.33,0-.66-.13-.9-.39-.46-.5-.44-1.28.06-1.74l4.15-3.89c.45-.42,1.13-.45,1.61-.06l4.51,3.61c.53.43.62,1.2.19,1.73-.43.53-1.21.62-1.73.19l-3.68-2.95-3.37,3.16c-.24.22-.54.33-.84.33Z"/>
      <path d="M42.56,114.5c-.25,0-.49-.07-.71-.23-.56-.39-.69-1.16-.3-1.72l3.28-4.65c.35-.5,1.01-.67,1.57-.39l5.15,2.63c.61.31.85,1.05.54,1.66-.31.61-1.05.85-1.66.54l-4.2-2.14-2.67,3.78c-.24.34-.62.52-1.01.52Z"/>
      <path d="M45.36,127.23c-.17,0-.33-.03-.5-.1-.62-.27-.91-1-.63-1.63l2.29-5.21c.25-.56.87-.87,1.46-.69l5.57,1.55c.66.18,1.04.86.86,1.52-.18.66-.85,1.04-1.52.86l-4.54-1.26-1.86,4.23c-.2.46-.65.74-1.13.74Z"/>
      <path d="M49.95,139.2c-.12,0-.23-.02-.35-.05-.65-.2-1.02-.88-.83-1.53l1.62-5.46c.18-.59.74-.97,1.36-.87l5.72.84c.67.1,1.14.73,1.04,1.4-.1.67-.7,1.14-1.4,1.04l-4.66-.69-1.32,4.43c-.16.53-.65.88-1.18.88Z"/>
      <path d="M212.6,100.09c-.3,0-.6-.11-.84-.33l-3.37-3.16-3.68,2.95c-.52.42-1.3.34-1.73-.19-.42-.53-.34-1.31.19-1.73l4.51-3.61c.48-.38,1.17-.35,1.61.06l4.15,3.89c.5.47.52,1.25.06,1.74-.24.26-.57.39-.9.39Z"/>
      <path d="M212.2,114.5c-.39,0-.77-.18-1.01-.52l-2.67-3.78-4.2,2.14c-.6.31-1.35.07-1.66-.54-.31-.61-.07-1.35.54-1.66l5.15-2.63c.55-.28,1.22-.11,1.57.39l3.28,4.65c.39.56.26,1.33-.3,1.72-.22.15-.46.23-.71.23Z"/>
      <path d="M209.4,127.23c-.47,0-.92-.27-1.13-.74l-1.86-4.23-4.54,1.26c-.67.18-1.34-.2-1.52-.86-.18-.65.2-1.33.86-1.52l5.57-1.55c.59-.16,1.21.13,1.46.69l2.29,5.21c.27.62,0,1.35-.63,1.63-.16.07-.33.1-.5.1Z"/>
      <path d="M204.81,139.2c-.53,0-1.02-.35-1.18-.88l-1.32-4.43-4.66.69c-.69.1-1.3-.37-1.4-1.04-.1-.67.37-1.3,1.04-1.4l5.72-.84c.64-.1,1.19.28,1.36.87l1.62,5.46c.19.65-.18,1.34-.83,1.53-.12.03-.24.05-.35.05Z"/>
      <path class="cls-2" d="M78.01,164.45c16.44,11.19,35.97,15.38,49.37,15.38.68,0,1.23.55,1.23,1.23s-.55,1.23-1.23,1.23c-14.14,0-34.91-4.54-52.1-16.75"/>
      <path class="cls-2" d="M43.52,77.84c-.07,0-.15,0-.23-.02-.67-.13-1.11-.77-.99-1.44C48.21,44.22,80.02,10.04,127.34,10.04c.73.03,1.27.54,1.27,1.23s-.55,1.23-1.23,1.23h-.04c-45.98,0-76.88,33.14-82.61,64.33-.11.59-.63,1.01-1.21,1.01Z"/>
      <path class="cls-2" d="M179.54,165.5c-17.2,12.24-38.01,16.79-52.17,16.79-.68,0-1.23-.55-1.23-1.23s.55-1.23,1.23-1.23c13.71,0,33.82-4.38,50.49-16.16"/>
      <path class="cls-2" d="M211.24,77.84c-.58,0-1.1-.42-1.21-1.01-5.73-31.19-36.63-64.33-82.61-64.33h-.04c-.68,0-1.23-.55-1.23-1.23s.59-1.26,1.27-1.23c47.32,0,79.13,34.18,85.04,66.35.12.67-.32,1.31-.99,1.44-.08.01-.15.02-.23.02Z"/>
      <path class="cls-2" d="M200.59,169.48c-3.26,0-6.64-.34-10.15-1.01-.36-.07-.72-.11-1.05-.12-10.93-.27-12.12-2.13-12.51-2.75-1.62-2.55-1.93-4.98-.95-7.45.96-2.4,4.94-4.49,5.94-4.99l2.08-1.95c.62-.58,1.11-1.25,1.47-2.01.84-1.8,2.28-3.29,4.04-4.2l3.63-1.88,6.67-3.2c.62-.3,1.37-.04,1.67.59s.04,1.37-.59,1.67l-6.64,3.18-3.59,1.86c-1.28.66-2.32,1.74-2.93,3.05-.49,1.05-1.17,1.98-2.02,2.78l-2.36,2.21-.17.08c-1.73.83-4.39,2.53-4.87,3.75-.69,1.71-.46,3.31.73,5.18.54.65,4.4,1.44,10.47,1.59.47.01.96.07,1.46.16,13.09,2.51,24.33.09,33.43-7.2,14.58-11.67,19.93-34.37,12.72-53.98-10.17-27.66-34.76-50.03-35.01-50.25-.51-.46-.55-1.25-.09-1.77.46-.51,1.25-.55,1.76-.09.25.23,25.3,23,35.68,51.25,7.57,20.58,1.89,44.47-13.5,56.79-7.24,5.79-15.72,8.71-25.32,8.71Z"/>
      <path class="cls-2" d="M54.52,169.48c-9.59,0-18.08-2.91-25.31-8.71-15.39-12.32-21.07-36.21-13.5-56.79,10.38-28.25,35.43-51.02,35.68-51.25.51-.46,1.3-.42,1.76.09.46.51.42,1.3-.09,1.77-.25.22-24.84,22.6-35.01,50.25-7.21,19.61-1.86,42.31,12.72,53.98,9.09,7.28,20.34,9.7,33.43,7.2.5-.09.99-.15,1.46-.16,6.06-.15,9.92-.94,10.48-1.6,1.18-1.85,1.41-3.45.72-5.17-.49-1.21-3.14-2.92-4.87-3.75l-.17-.08-2.36-2.21c-.85-.79-1.53-1.73-2.02-2.78-.61-1.3-1.65-2.38-2.93-3.04l-3.63-1.88-6.6-3.17c-.62-.3-.89-1.04-.59-1.67.3-.62,1.05-.89,1.67-.59l6.64,3.18,3.66,1.9c1.76.91,3.2,2.4,4.04,4.2.36.76.85,1.44,1.47,2.01l2.08,1.94c1,.49,4.98,2.58,5.94,4.99.99,2.47.68,4.91-.95,7.45-.39.61-1.58,2.47-12.51,2.75-.34,0-.69.05-1.05.12-3.51.67-6.89,1.01-10.15,1.01Z"/>
      <path d="M101.67,245.08c-.21,0-.34,0-.37-.01l-11.53-.14-32.95-1.53c-2.22-.46-2.9-1.58-3.12-2.45-.93-3.64,5.21-9.49,7.59-11.59l14.25-63.45c.15-.66.8-1.07,1.47-.93.66.15,1.08.81.93,1.47l-14.34,63.85c-.06.26-.2.49-.4.66-3.77,3.26-7.53,7.81-7.13,9.38.07.28.43.49,1.05.63l32.7,1.5,11.57.14c.11,0,2.68.16,4.66-1.68,1.63-1.52,2.47-3.99,2.48-7.35l6.13-51.72c.08-.68.72-1.18,1.37-1.08.68.08,1.16.69,1.08,1.37l-6.12,51.58c0,3.94-1.11,7.03-3.29,9.04-2.3,2.11-5.07,2.32-6.05,2.32Z"/>
      <path d="M151.17,245.08c-.93,0-3.71-.2-6.02-2.32-2.18-2.01-3.29-5.09-3.3-9.18l-6.12-51.55c-.08-.67.4-1.29,1.08-1.37.68-.1,1.29.4,1.37,1.08l6.13,51.69c.02,3.49.85,5.97,2.49,7.49,1.98,1.84,4.56,1.7,4.59,1.69l11.69-.15,32.86-1.53c.43-.11.78-.32.85-.6.4-1.57-3.36-6.12-7.12-9.38-.19-.17-.33-.39-.39-.64l-15.1-61.95c-.16-.66.24-1.33.91-1.49.66-.16,1.33.25,1.49.91l15.01,61.57c2.37,2.09,8.53,7.94,7.6,11.59-.22.87-.91,1.99-2.93,2.42l-33.11,1.56-11.66.15s-.12,0-.31,0Z"/>
      <g>
        <rect class="cls-4" x="111.96" y="84.91" width="14.21" height="6.14" rx="3.07" ry="3.07" transform="translate(172.47 226.05) rotate(-147.61)"/>
        <rect class="cls-4" x="128.96" y="84.91" width="14.21" height="6.14" rx="3.07" ry="3.07" transform="translate(-25.96 86.56) rotate(-32.39)"/>
        <path class="cls-4" d="M131.29,96.96c-1.27.45-2.55.59-3.73.55-1.18.03-2.46-.1-3.73-.55-2.24-.8-4.83.17-5.55,2.44-1,3.11,1.3,5.98,4.26,5.98h10.04c2.97,0,5.26-2.87,4.26-5.98-.73-2.26-3.32-3.23-5.55-2.44Z"/>
      </g>
    </g>
  </g>
</svg>