<?xml version="1.0" encoding="UTF-8"?>
<svg id="Layer_2" xmlns="http://www.w3.org/2000/svg" viewBox="0 0 255.12 255.12">
  <defs>
    <style>
      .cls-1 {
        fill: none;
      }
    </style>
  </defs>
  <g id="Layer_1-2" data-name="Layer_1">
    <path d="M192.26,228.96l-15.01-61.57c-.03-.13-.1-.25-.17-.36,22.14-15.61,36.64-41.36,36.64-70.45,0-47.51-38.65-86.17-86.17-86.17S41.39,49.08,41.39,96.59c0,28.27,13.69,53.41,34.79,69.13l-14.2,63.25c-2.38,2.1-8.52,7.94-7.59,11.59.22.87.91,1.99,3.12,2.45l32.95,1.53,11.53.14s.16.01.37.01c.99,0,3.76-.2,6.06-2.32,2.18-2.01,3.29-5.09,3.29-9.04l6.07-51.16c3.21.37,6.48.57,9.79.57,3.02,0,6-.16,8.94-.46l6.05,50.91c.01,4.08,1.12,7.17,3.3,9.18,2.31,2.13,5.1,2.32,6.02,2.32.19,0,.3,0,.31,0l11.66-.15,33.11-1.56c2.02-.44,2.7-1.56,2.92-2.42.93-3.65-5.23-9.5-7.6-11.59ZM109.25,233.19c0,3.35-.84,5.83-2.48,7.35-1.98,1.84-4.56,1.68-4.66,1.68l-11.57-.14-32.7-1.5c-.63-.14-.98-.35-1.05-.63-.4-1.57,3.36-6.12,7.13-9.38.2-.17.34-.4.4-.66l14.07-62.63c10.79,7.53,23.37,12.66,36.96,14.6l-6.08,51.32ZM48.17,122.95l.47-1.08,4.54,1.26c.67.19,1.34-.2,1.52-.86.18-.65-.2-1.33-.86-1.52l-5.57-1.55c-.43-.13-.86,0-1.17.29-.74-2.58-1.35-5.21-1.84-7.89l1.26-1.79,4.2,2.14c.6.31,1.35.07,1.66-.54.31-.61.07-1.35-.54-1.66l-5.15-2.63c-.55-.28-1.22-.11-1.57.39l-.43.61c-.43-3.07-.68-6.2-.76-9.36l2.73-2.56,3.68,2.95c.53.42,1.3.34,1.73-.19.42-.53.34-1.31-.19-1.73l-4.51-3.61c-.48-.38-1.17-.35-1.61.06l-1.85,1.73c.64-45.59,37.9-82.49,83.64-82.49s82.87,36.77,83.63,82.25l-1.6-1.5c-.45-.42-1.13-.45-1.61-.06l-4.51,3.61c-.53.43-.62,1.2-.19,1.73.43.53,1.21.62,1.73.19l3.68-2.95,2.49,2.33c-.07,3.14-.32,6.24-.73,9.29l-.22-.32c-.35-.5-1.02-.67-1.57-.39l-5.15,2.63c-.61.31-.85,1.05-.54,1.66.31.61,1.05.85,1.66.54l4.2-2.14,1.07,1.52c-.49,2.72-1.12,5.39-1.86,8.02-.28-.17-.62-.24-.95-.14l-5.57,1.55c-.66.18-1.04.86-.86,1.52.18.65.85,1.04,1.52.86l4.54-1.26.33.75c-10.97,33.42-42.44,57.64-79.48,57.64s-68.32-24.05-79.39-57.31ZM197.48,239.94c-.07.28-.43.49-.85.6l-32.86,1.53-11.69.15s-2.6.16-4.59-1.69c-1.63-1.52-2.47-3.99-2.49-7.49l-6.06-51.07c13.18-1.75,25.43-6.48,36.04-13.5l14.98,61.44c.06.25.2.47.39.64,3.77,3.26,7.53,7.81,7.12,9.38Z"/>
    <path d="M194.88,134.2c-.37-.53-1.08-.66-1.63-.33h0s-.02,0-.02.01c-.01,0-.03,0-.05.02,0,0-.01.01-.02.02-20.17,12.71-51.58,26.68-84.2,18.39-2.33-.59-4.35-1.7-5.85-3.2-1.98-1.99-3.11-4.51-3.38-7.52-.19-1.68.09-3.45.69-5.16.81-2.31,1.95-6.84.38-11.37-.02-.04-1.82-3.47-.56-6.56.78-1.91,2.63-3.33,5.49-4.23,1.16-.36,2.48-.53,3.93-.5,8.71.17,38.06.22,50.13-6,.6-.31.85-1.05.53-1.66-.31-.6-1.06-.84-1.66-.53-1.47.76-3.25,1.42-5.23,2-1.3-.35-2.73-.53-4.26-.5-6.09.12-37.09.38-48.96-5.73-.6-.31-1.35-.07-1.66.53-.31.61-.07,1.35.53,1.66,10.15,5.23,32.51,6.03,44.55,6.05-13.49,1.95-29.7,1.8-33.93,1.72-1.71-.03-3.3.17-4.72.62-3.59,1.12-5.96,3.02-7.03,5.65-1.69,4.13.57,8.47.59,8.47,1.26,3.65.26,7.57-.45,9.58-.69,1.96-.98,4.02-.83,5.97,0,.08.01.15.02.23.16,1.81.6,3.49,1.29,5.01-14.55-4.04-27.54-10.74-37.69-17.13,0,0-.01-.02-.02-.02-.01,0-.03-.01-.05-.02,0,0-.02-.01-.02-.02h0c-.55-.33-1.26-.19-1.63.34-.39.55-.25,1.31.3,1.7.04.03.08.03.12.05h0c10.87,6.86,25.01,14.08,40.88,18.11.29.35.59.69.92,1.02,1.81,1.81,4.22,3.15,6.98,3.85,33.44,8.5,65.59-5.81,86.11-18.73h0s.08-.04.12-.07c.55-.39.69-1.15.3-1.7Z"/>
    <rect class="cls-1" width="255.12" height="255.12"/>
  </g>
</svg>