<?xml version="1.0" encoding="UTF-8"?>
<svg id="Layer_2" xmlns="http://www.w3.org/2000/svg" viewBox="0 0 255.12 255.12">
  <defs>
    <style>
      .cls-1 {
        fill: none;
      }

      .cls-2 {
        fill: #8e8e93;
      }

      .cls-3 {
        fill: #fff;
      }
    </style>
  </defs>
  <g id="Layer_1-2" data-name="Layer_1">
    <g>
      <g>
        <circle class="cls-2" cx="127.56" cy="103.64" r="82.04"/>
        <path d="M102.36,244.69c-.21,0-.34,0-.37-.01l-11.53-.14-32.95-1.53c-2.22-.46-2.9-1.58-3.12-2.45-.93-3.64,5.21-9.49,7.59-11.59l14.25-63.45c.15-.66.8-1.07,1.47-.93.66.15,1.08.81.93,1.47l-14.34,63.85c-.06.26-.2.49-.4.66-3.77,3.26-7.53,7.81-7.13,9.38.07.28.43.49,1.05.63l32.7,1.5,11.57.14c.11,0,2.68.16,4.66-1.68,1.63-1.52,2.47-3.99,2.48-7.35l6.13-51.72c.08-.68.72-1.18,1.37-1.08.68.08,1.16.69,1.08,1.37l-6.12,51.58c0,3.94-1.11,7.03-3.29,9.04-2.3,2.11-5.07,2.32-6.05,2.32Z"/>
        <path d="M151.87,244.69c-.93,0-3.71-.2-6.02-2.32-2.18-2.01-3.29-5.09-3.3-9.18l-6.12-51.55c-.08-.67.4-1.29,1.08-1.37.68-.1,1.29.4,1.37,1.08l6.13,51.69c.02,3.49.85,5.97,2.49,7.49,1.98,1.84,4.56,1.7,4.59,1.69l11.69-.15,32.86-1.53c.43-.11.78-.32.85-.6.4-1.57-3.36-6.12-7.12-9.38-.19-.17-.33-.39-.39-.64l-15.1-61.95c-.16-.66.24-1.33.91-1.49.66-.16,1.33.25,1.49.91l15.01,61.57c2.37,2.09,8.53,7.94,7.6,11.59-.22.87-.91,1.99-2.93,2.42l-33.11,1.56-11.66.15s-.12,0-.31,0Z"/>
        <path d="M127.56,10.42c-47.51,0-86.17,38.65-86.17,86.17s38.65,86.17,86.17,86.17,86.17-38.65,86.17-86.17S175.07,10.42,127.56,10.42ZM210.45,107.84l-.22-.32c-.35-.5-1.02-.67-1.57-.39l-5.15,2.63c-.61.31-.85,1.05-.54,1.66.31.61,1.05.85,1.66.54l4.2-2.14,1.07,1.52c-.49,2.72-1.12,5.39-1.86,8.02-.28-.17-.62-.24-.95-.14l-5.57,1.55c-.66.18-1.04.86-.86,1.52.18.65.85,1.04,1.52.86l4.54-1.26.33.75c-10.97,33.42-42.44,57.64-79.48,57.64s-68.32-24.05-79.39-57.31l.47-1.08,4.54,1.26c.67.19,1.34-.2,1.52-.86.18-.65-.2-1.33-.86-1.52l-5.57-1.55c-.43-.13-.86,0-1.17.29-.74-2.58-1.35-5.21-1.84-7.89l1.26-1.79,4.2,2.14c.6.31,1.35.07,1.66-.54.31-.61.07-1.35-.54-1.66l-5.15-2.63c-.55-.28-1.22-.11-1.57.39l-.43.61c-.43-3.07-.68-6.2-.76-9.36l2.73-2.56,3.68,2.95c.53.42,1.3.34,1.73-.19.42-.53.34-1.31-.19-1.73l-4.51-3.61c-.48-.38-1.17-.35-1.61.06l-1.85,1.73c.64-45.59,37.9-82.49,83.64-82.49s82.87,36.77,83.63,82.25l-1.6-1.5c-.45-.42-1.13-.45-1.61-.06l-4.51,3.61c-.53.43-.62,1.2-.19,1.73.43.53,1.21.62,1.73.19l3.68-2.95,2.49,2.33c-.07,3.14-.32,6.24-.73,9.29Z"/>
        <path d="M194.88,134.2c-.37-.53-1.08-.66-1.63-.33h0s-.02,0-.02.01c-.01,0-.03,0-.05.02,0,0-.01.01-.02.02-20.17,12.71-51.58,26.68-84.2,18.39-2.33-.59-4.35-1.7-5.85-3.2-1.98-1.99-3.11-4.51-3.38-7.52-.19-1.68.09-3.45.69-5.16.81-2.31,1.95-6.84.38-11.37-.02-.04-1.82-3.47-.56-6.56.78-1.91,2.63-3.33,5.49-4.23,1.16-.36,2.48-.53,3.93-.5,8.71.17,38.06.22,50.13-6,.6-.31.85-1.05.53-1.66-.31-.6-1.06-.84-1.66-.53-11.86,6.11-42.86,5.85-48.96,5.73-1.71-.03-3.3.17-4.72.62-3.59,1.12-5.96,3.02-7.03,5.65-1.69,4.13.57,8.47.59,8.47,1.26,3.65.26,7.57-.45,9.58-.69,1.96-.98,4.02-.83,5.97,0,.08.01.15.02.23.32,3.59,1.7,6.63,4.09,9.04,1.81,1.81,4.22,3.15,6.98,3.85,33.44,8.5,65.59-5.81,86.11-18.73h0s.08-.04.12-.07c.55-.39.69-1.15.3-1.7Z"/>
        <path d="M102.73,150.39c-16.79-3.89-31.76-11.49-43.15-18.66h0s-.08-.04-.12-.07c-.55-.39-.69-1.15-.3-1.7.37-.53,1.08-.66,1.63-.33h0s.02,0,.02.01c.01,0,.03,0,.05.02,0,0,.01.01.02.02,10.6,6.68,24.3,13.7,39.65,17.66"/>
      </g>
      <g>
        <rect class="cls-3" x="128.93" y="83.52" width="14.21" height="6.14" rx="3.07" ry="3.07"/>
        <rect class="cls-3" x="111.98" y="83.52" width="14.21" height="6.14" rx="3.07" ry="3.07"/>
        <path class="cls-3" d="M139.29,102.21c-.94-.65-1.48-1.29-1.47-1.76.01-.67.95-1.48,1.37-1.75,1.19-.74,1.49-2.2.66-3.26-.84-1.07-2.5-1.34-3.71-.6-.24.14-1.65,1.06-2.65,2.56-.19-.03-.37-.05-.57-.05h-13.28c-1.92,0-3.48,1.38-3.48,3.07s1.56,3.07,3.48,3.07h13.28c.18,0,.36-.02.54-.05.54.81,1.34,1.65,2.56,2.48.49.33,1.06.49,1.63.49.8,0,1.58-.31,2.11-.91.9-1.03.69-2.51-.47-3.3Z"/>
      </g>
      <path d="M153.15,110.03c-1.16-.36-2.48-.53-3.93-.5-8.71.17-38.06.22-50.13-6-.6-.31-.85-1.05-.53-1.66.31-.6,1.06-.84,1.66-.53,11.86,6.11,42.86,5.85,48.96,5.73,1.71-.03,3.3.17,4.72.62,1.05.33,1.99.72,2.83,1.18"/>
    </g>
    <rect class="cls-1" width="255.12" height="255.12"/>
  </g>
</svg>