<?xml version="1.0" encoding="UTF-8"?>
<svg xmlns="http://www.w3.org/2000/svg" version="1.1" viewBox="0 0 267 180">
  <defs>
    <style>
      .cls-1 {
        fill: none;
      }

      .cls-2 {
        fill: #c59f7b;
      }
    </style>
  </defs>
  <!-- Generator: Adobe Illustrator 28.7.1, SVG Export Plug-In . SVG Version: 1.2.0 Build 142)  -->
  <g>
    <g id="Layer_1">
      <rect class="cls-1" x=".5" width="266" height="180"/>
      <path class="cls-2" d="M254.4,8.6h5l-19.6,32.4h-5l19.6-32.4ZM237.1,25.1h-1.2c-4.1,0-6.2-2.2-6.2-6.6v-3.8c0-4.4,2.1-6.6,6.2-6.6h1.2c4.1,0,6.2,2.2,6.2,6.6v3.8c0,4.4-2.1,6.6-6.2,6.6ZM234.8,21c0,.3,0,.5.2.7.2.2.4.3.7.3h1.6c.3,0,.5-.1.6-.3.2-.2.3-.4.3-.7v-8.8c0-.3-.1-.5-.3-.7-.2-.2-.4-.3-.6-.3h-1.6c-.3,0-.5.1-.7.3-.2.2-.2.4-.2.7v8.8ZM258.1,24.5c4.1,0,6.2,2.2,6.2,6.6v3.8c0,4.4-2.1,6.6-6.2,6.6h-1.2c-4.1,0-6.2-2.2-6.2-6.6v-3.8c0-4.4,2.1-6.6,6.2-6.6h1.2ZM259.3,37.4v-8.8c0-.3,0-.5-.3-.7-.2-.2-.4-.3-.6-.3h-1.6c-.3,0-.5.1-.7.3-.2.2-.3.4-.3.7v8.8c0,.3,0,.5.3.7.2.2.4.3.7.3h1.6c.3,0,.5-.1.6-.3.2-.2.3-.4.3-.7Z"/>
      <g>
        <path class="cls-2" d="M64.6,34.3h6.5c0,0,.1,0,.2,0l-3.4-3.4-3.3,3.3Z"/>
        <path class="cls-2" d="M147.1,70.6l-19.4,19.4,12.2,12.2c2.1.3,4.4.4,6.8.4h7.2l12.7-12.7-19.4-19.4Z"/>
        <path class="cls-2" d="M63.8,105.3h8.3l15.3-15.3-14.1-14.1c-.6.4-1.3.6-2.2.6h-9l-13.6,13.6,15.3,15.3Z"/>
        <path class="cls-2" d="M185.3,71.3c-2.5-.4-5.1-.6-7.9-.6h-24.7c-1.4,0-2.6-.5-3.6-1.6,0,0-.1-.2-.2-.3l-1.3,1.3,19.4,19.4,18.3-18.3Z"/>
        <polygon class="cls-2" points="187.1 30.6 192.1 35.6 202.9 35.6 202.9 14.8 187.1 30.6"/>
        <path class="cls-2" d="M28.7,109.8l18.5,18.5v-17.8c0-1.4.4-2.6,1.3-3.6,1-1,2.3-1.6,3.6-1.6h11l-14.9-14.9-19.4,19.4Z"/>
        <polygon class="cls-2" points="77.6 119.8 77.6 139.4 87.4 129.6 77.6 119.8"/>
        <path class="cls-2" d="M107.2,109.8l-19.4-19.4-14.9,14.9c1.3,0,2.4.5,3.2,1.5,1,1,1.6,2.3,1.6,3.6v8.6l10.2,10.2,19.4-19.4Z"/>
        <polygon class="cls-2" points="116.3 131.8 116.3 140.3 124.8 131.8 116.3 131.8"/>
        <path class="cls-2" d="M87.7,10.4l2.9-2.9c-2.3-.9-4.9-1.5-7.7-1.9l4.8,4.8Z"/>
        <path class="cls-2" d="M72.1,34.4c.9.2,1.7.7,2.4,1.5.7.7,1.1,1.4,1.3,2.3l11.9,11.9,19.4-19.4-19.4-19.4-19.4,19.4,3.8,3.8Z"/>
        <polygon class="cls-2" points="182.1 35.6 191.4 35.6 186.7 31 182.1 35.6"/>
        <path class="cls-2" d="M107.5,30.2h0c-1.8-11.4-7.3-18.9-16.4-22.5l-3.1,3.1,19.4,19.4Z"/>
        <polygon class="cls-2" points="147.5 30.6 152.5 35.6 181.4 35.6 186.4 30.6 166.9 11.2 147.5 30.6"/>
        <polygon class="cls-2" points="164.3 7.8 166.9 10.4 169.6 7.8 164.3 7.8"/>
        <polygon class="cls-2" points="127.7 10.8 147.1 30.2 166.6 10.8 163.6 7.8 130.7 7.8 127.7 10.8"/>
        <polygon class="cls-2" points="127 10.8 124 7.8 114.5 7.8 114.5 23.3 127 10.8"/>
        <path class="cls-2" d="M151.8,35.6l-4.6-4.6-19.4,19.4,19.4,19.4,1.4-1.4c-.5-.9-.8-1.9-.8-2.9v-29.9h4Z"/>
        <polygon class="cls-2" points="48.7 50.6 48.7 50.2 48.5 50.4 48.7 50.6"/>
        <path class="cls-2" d="M115.3,78.3c1.2,6.7,3.7,12.1,7.5,16l4.3-4.3-11.7-11.7Z"/>
        <path class="cls-2" d="M107.7,70.7h-.1c0-.1-19.4,19.3-19.4,19.3l19.4,19.4,1.2-1.2c-1.7-8.1-5.4-14.2-11.2-18.3,5.4-4,8.8-10.4,10.1-19.3Z"/>
        <path class="cls-2" d="M109.8,119.3c0-2.6-.1-5-.4-7.3l-1.9-1.9-19.4,19.4,19.4,19.4,2.2-2.2c0-.8,0-1.7,0-2.5v-25Z"/>
        <path class="cls-2" d="M118.9,161.1c1.5,3.9,3.6,7.2,6.3,9.8l1.7-1.7-8-8Z"/>
        <path class="cls-2" d="M107.9,149.4l1.6,1.6c.1-1.1.2-2.3.3-3.4l-1.8,1.8Z"/>
        <path class="cls-2" d="M88.1,169.2l6.2,6.2c8.7-4.1,13.7-12,15.1-23.8l-1.9-1.9-19.4,19.4Z"/>
        <path class="cls-2" d="M76,62.5v8.7c0,1.4-.5,2.6-1.6,3.6-.2.3-.5.5-.8.7l14.1,14.1,19.4-19.4-19.4-19.4-11.7,11.7Z"/>
        <polygon class="cls-2" points="124.7 7.8 127.3 10.4 130 7.8 124.7 7.8"/>
        <path class="cls-2" d="M88.1,50.4l19.4,19.4.3-.3c.3-2.4.4-5,.4-7.7v-22.4c0-3-.2-5.8-.6-8.4l-.2-.2-19.4,19.4Z"/>
        <polygon class="cls-2" points="127 50.4 114.5 37.9 114.5 62.9 127 50.4"/>
        <path class="cls-2" d="M76,39.5v22.3l11.4-11.4-11.4-11.4c0,.2,0,.3,0,.5Z"/>
        <path class="cls-2" d="M127.3,50.8l-12.9,12.9v4.7c0,3.3.2,6.3.7,9.1l12.2,12.2,19.4-19.4-19.4-19.4Z"/>
        <polygon class="cls-2" points="114.5 24 114.5 37.2 127.3 50 146.8 30.6 127.3 11.2 114.5 24"/>
        <path class="cls-2" d="M123.1,94.6c4,4,9.3,6.5,16.1,7.5l-11.8-11.8-4.3,4.3Z"/>
        <path class="cls-2" d="M108.9,108.8l-1,1,1.4,1.4c-.1-.8-.2-1.6-.4-2.4Z"/>
        <path class="cls-2" d="M186.4,109.8l-19.4-19.4-12.3,12.3h16.5c1.4,0,2.5.5,3.4,1.6,1,1,1.6,2.3,1.6,3.6v12.2l10.3-10.3Z"/>
        <path class="cls-2" d="M147.1,149.7l-19.4,19.4,7.5,7.5c3.9,1.3,8.3,1.9,13.3,1.9h8.7l9.4-9.4-19.4-19.4Z"/>
        <polygon class="cls-2" points="166.9 169.5 157.9 178.6 176 178.6 166.9 169.5"/>
        <path class="cls-2" d="M19,79.2l9-9-11.8-11.8v3.4c0,6.9.9,12.6,2.7,17.4Z"/>
        <path class="cls-2" d="M176.1,139.1v6c0,1.4-.5,2.6-1.6,3.6-.9,1-2,1.6-3.4,1.6h-15.3c-1.4,0-2.6-.5-3.6-1.6-.7-.8-1.1-1.7-1.2-2.7l-3.4,3.4,19.4,19.4,19.4-19.4-10.3-10.3Z"/>
        <polygon class="cls-2" points="206.2 129.6 186.7 110.2 176.1 120.8 176.1 138.4 186.7 149 206.2 129.6"/>
        <path class="cls-2" d="M14.7,136.1v8.2c0,6.2.8,11.6,2.4,16.1l11-11-13.3-13.3Z"/>
        <path class="cls-2" d="M39,178l8.8-8.8-19.4-19.4-11.1,11.1c3.6,9.7,10.8,15.4,21.8,17.1Z"/>
        <path class="cls-2" d="M57.2,178.6l-9.1-9.1-8.5,8.5c2.3.3,4.7.5,7.3.5h10.3Z"/>
        <path class="cls-2" d="M78,178.6l9.4-9.4-18.9-18.9h-1l-18.9,18.9,9.4,9.4h19.7c.1,0,.3,0,.4,0Z"/>
        <path class="cls-2" d="M209.6,133l-3.1-3.1-19.4,19.4,17.2,17.2c3.6-5.5,5.4-13,5.4-22.3v-11.2Z"/>
        <path class="cls-2" d="M28.7,70.2l19.4,19.4,13.2-13.2h-7.7c-1.4,0-2.6-.5-3.6-1.6-.9-1-1.3-2.3-1.3-3.6v-19.9l-.6-.6-19.4,19.4Z"/>
        <path class="cls-2" d="M204,167l-17.2-17.2-19.4,19.4,9.4,9.4h.7c12.5,0,21.4-3.9,26.6-11.6Z"/>
        <path class="cls-2" d="M19.4,21.3l8.9,8.9,19.4-19.4-5.3-5.3c-11.4,1.3-19.1,6.6-23.1,15.8Z"/>
        <path class="cls-2" d="M48.1,10.4l5.3-5.3h-4.9c-1.9,0-3.6,0-5.3.3l5,5Z"/>
        <path class="cls-2" d="M16.2,42.4l11.8-11.8-8.8-8.8c-2,4.8-3,10.7-3,17.7v2.9Z"/>
        <path class="cls-2" d="M209.6,126.2v-21.1c0-4.9-.5-9.2-1.5-13.1l-1.6-1.6-19.4,19.4,19.4,19.4,3.1-3.1Z"/>
        <polygon class="cls-2" points="206.9 129.6 209.6 132.3 209.6 126.9 206.9 129.6"/>
        <path class="cls-2" d="M129.2,131.8h-3.7l-9.2,9.2v3.3c0,6.1.8,11.3,2.3,15.8l8.8,8.8,19.4-19.4-17.6-17.6Z"/>
        <path class="cls-2" d="M66.7,150.3h-14.6c-1.4,0-2.6-.5-3.6-1.6-.9-1-1.3-2.3-1.3-3.6v-14.1l-18.5,18.5,19.4,19.4,18.6-18.6Z"/>
        <path class="cls-2" d="M107.2,149.4l-19.4-19.4-10.2,10.2v5c0,1.4-.5,2.6-1.6,3.6-.9,1-2,1.6-3.4,1.6h-3.5l18.6,18.6,19.4-19.4Z"/>
        <path class="cls-2" d="M127.3,169.5l-1.7,1.7c2.4,2.2,5.2,3.9,8.5,5.1l-6.8-6.8Z"/>
        <path class="cls-2" d="M93.8,175.6l-6.1-6.1-9,9c5.9-.1,10.9-1.1,15.1-3Z"/>
        <polygon class="cls-2" points="47.2 130.2 47.2 129 28.3 110.2 14.7 123.8 14.7 135.4 28.3 149 47.2 130.2"/>
        <path class="cls-2" d="M19.2,79.7c1.8,4.3,4.3,7.8,7.7,10.2-3.5,2.5-6.3,5.7-8.3,9.7l9.8,9.8,19.4-19.4-19.4-19.4-9.2,9.2Z"/>
        <path class="cls-2" d="M28,109.8l-9.6-9.6c-2.5,5.2-3.7,11.5-3.7,19.2v3.8l13.3-13.3Z"/>
        <path class="cls-2" d="M206.2,90l-18.2-18.2c-.7-.2-1.4-.3-2.1-.4l-18.6,18.6,19.4,19.4,19.4-19.4Z"/>
        <path class="cls-2" d="M67.9,30.2l19.4-19.4-5.3-5.3c-1.9-.2-4-.3-6.1-.3h-21.9l-5.6,5.6,19.4,19.4Z"/>
        <path class="cls-2" d="M28.7,30.6l19.4,19.4.6-.6v-10c0-1.4.4-2.6,1.3-3.6,1-1,2.3-1.6,3.6-1.6h10.2l3.7-3.7-19.4-19.4-19.4,19.4Z"/>
        <polygon class="cls-2" points="186.7 30.2 202.9 14.1 202.9 7.8 170.3 7.8 167.3 10.8 186.7 30.2"/>
        <path class="cls-2" d="M150.9,145.3c0,0,0-.2,0-.2v-13.3h-21l17.2,17.2,3.7-3.7Z"/>
        <polygon class="cls-2" points="16.2 43.1 16.2 57.7 28.3 69.8 47.8 50.4 28.3 31 16.2 43.1"/>
        <path class="cls-2" d="M207.2,88.9c-3.1-8.8-9.2-14.4-18.3-16.9l17.6,17.6.7-.7Z"/>
        <path class="cls-2" d="M207.4,89.5l-.5.5,1,1c-.1-.5-.3-1-.5-1.5Z"/>
      </g>
    </g>
  </g>
</svg>