<?xml version="1.0" encoding="UTF-8"?>
<svg xmlns="http://www.w3.org/2000/svg" version="1.1" viewBox="0 0 267 180">
  <defs>
    <style>
      .cls-1 {
        fill: none;
      }

      .cls-2 {
        fill: #c59f7b;
      }
    </style>
  </defs>
  <!-- Generator: Adobe Illustrator 28.7.1, SVG Export Plug-In . SVG Version: 1.2.0 Build 142)  -->
  <g>
    <g id="Layer_1">
      <rect class="cls-1" x=".5" width="266" height="180"/>
      <path class="cls-2" d="M254.4,8.6h5l-19.6,32.4h-5l19.6-32.4ZM237.1,25.1h-1.2c-4.1,0-6.2-2.2-6.2-6.6v-3.8c0-4.4,2.1-6.6,6.2-6.6h1.2c4.1,0,6.2,2.2,6.2,6.6v3.8c0,4.4-2.1,6.6-6.2,6.6ZM234.8,21c0,.3,0,.5.2.7.2.2.4.3.7.3h1.6c.3,0,.5-.1.6-.3.2-.2.3-.4.3-.7v-8.8c0-.3-.1-.5-.3-.7-.2-.2-.4-.3-.6-.3h-1.6c-.3,0-.5.1-.7.3-.2.2-.2.4-.2.7v8.8ZM258.1,24.5c4.1,0,6.2,2.2,6.2,6.6v3.8c0,4.4-2.1,6.6-6.2,6.6h-1.2c-4.1,0-6.2-2.2-6.2-6.6v-3.8c0-4.4,2.1-6.6,6.2-6.6h1.2ZM259.3,37.4v-8.8c0-.3,0-.5-.3-.7-.2-.2-.4-.3-.6-.3h-1.6c-.3,0-.5.1-.7.3-.2.2-.3.4-.3.7v8.8c0,.3,0,.5.3.7.2.2.4.3.7.3h1.6c.3,0,.5-.1.6-.3.2-.2.3-.4.3-.7Z"/>
      <g>
        <path class="cls-2" d="M184.9,105.7l-7.4,7.4c4.9,0,9.2-.6,13-1.8l-5.6-5.6Z"/>
        <path class="cls-2" d="M108.6,107.8c-.3-1.4-.7-2.7-1.1-4l-1.4,1.4,2.5,2.5Z"/>
        <path class="cls-2" d="M208.5,89.7l-3.8-3.8-19.4,19.4,5.8,5.8c9.5-3.2,15.3-10.4,17.5-21.4Z"/>
        <path class="cls-2" d="M131.9,52h18.8v-13.3c0-1.4.4-2.6,1.3-3.6.3-.3.7-.6,1.1-.8l-7.8-7.8-19.4,19.4,6.1,6.1Z"/>
        <path class="cls-2" d="M184.9,66.1l-8.9,8.9v.9c0,1.4-.5,2.6-1.6,3.6-.9,1-2,1.6-3.4,1.6h-1.2l-4.4,4.4,19.4,19.4,19.4-19.4-19.4-19.4Z"/>
        <path class="cls-2" d="M164.7,85.5l-4.4-4.4h-10.1c-9.5,0-16.8,2.2-22.1,6.7l17.2,17.2,19.4-19.4Z"/>
        <path class="cls-2" d="M209.5,80.4c0-.5,0-1.1,0-1.6v-27.7l-4.8-4.8-19.4,19.4,19.4,19.4,4.8-4.8Z"/>
        <polygon class="cls-2" points="209.5 50.4 209.5 41.4 205 45.9 209.5 50.4"/>
        <path class="cls-2" d="M109.7,140.5v-21.2c0-3.9-.3-7.4-1-10.6l-3.1-3.1-19.4,19.4,19.4,19.4,4-4Z"/>
        <path class="cls-2" d="M109.7,144.3v-3l-3.7,3.7,3.5,3.5c0-1.3.1-2.7.1-4.2Z"/>
        <polygon class="cls-2" points="144.9 144.9 125.5 125.5 118 133 118 156.8 125.5 164.3 144.9 144.9"/>
        <path class="cls-2" d="M205,85.5l3.6,3.6c.5-2.5.7-5.1.8-8l-4.4,4.4Z"/>
        <path class="cls-2" d="M86.2,85.5l19.4,19.4,1.6-1.6c-2-5.7-5.3-10.2-9.8-13.4,5.9-4.3,9.4-11.6,10.4-21.7l-2.2-2.2-19.4,19.4Z"/>
        <path class="cls-2" d="M107.9,67.6c.1-1.3.2-2.6.2-3.9l-2.1,2.1,1.9,1.9Z"/>
        <path class="cls-2" d="M116.2,36.3l9.2,9.2,19.4-19.4-16.1-16.1c-7.8,4.9-12,13.7-12.6,26.3Z"/>
        <polygon class="cls-2" points="125.5 46.3 119.8 52 131.2 52 125.5 46.3"/>
        <path class="cls-2" d="M145.3,25.8l19.4-19.4-1.1-1.1h-15.2c-7.8,0-14.2,1.5-19.2,4.5l16,16Z"/>
        <path class="cls-2" d="M116.2,37c0,.8,0,1.7,0,2.5v12.5h2.9l6.1-6.1-8.9-8.9Z"/>
        <path class="cls-2" d="M144.9,105.3l-17.2-17.2c-6.5,5.7-9.7,14.8-9.7,27.3v1.8l7.5,7.5,19.4-19.4Z"/>
        <path class="cls-2" d="M145.6,26.1l7.9,7.9c.7-.3,1.4-.5,2.1-.5h15.3c1.4,0,2.5.5,3.4,1.6.2.2.4.4.5.6l9.6-9.6-19.4-19.4-19.4,19.4Z"/>
        <path class="cls-2" d="M151.3,118.3c0-1.4.4-2.6,1.3-3.6.3-.3.6-.5.9-.8l-8.2-8.2-19.4,19.4,19.4,19.4,6-6v-20.3Z"/>
        <path class="cls-2" d="M105.3,105.3l-19.4-19.4-19.4,19.4h6.1c1.4,0,2.5.5,3.4,1.6,1,1,1.6,2.3,1.6,3.6v5.8l8.4,8.4,19.4-19.4Z"/>
        <polygon class="cls-2" points="125.5 165.1 118 172.6 118 176 136.4 176 125.5 165.1"/>
        <polygon class="cls-2" points="77.5 117 77.5 133.2 85.5 125.1 77.5 117"/>
        <polygon class="cls-2" points="47 125.5 47 124.7 46.6 125.1 47 125.5"/>
        <polygon class="cls-2" points="145.3 145.3 125.8 164.7 137.1 176 153.4 176 164.7 164.7 145.3 145.3"/>
        <polygon class="cls-2" points="125.1 125.1 118 118 118 132.3 125.1 125.1"/>
        <polygon class="cls-2" points="165.1 85.2 169.1 81.1 161 81.1 165.1 85.2"/>
        <path class="cls-2" d="M204.3,45.9l-19.4-19.4-9.7,9.7c.5.8.7,1.6.7,2.6v17.7l8.9,8.9,19.4-19.4Z"/>
        <path class="cls-2" d="M165.1,85.9l-19.4,19.4,8.3,8.3c.7-.4,1.4-.5,2.2-.5h20.6l7.8-7.8-19.4-19.4Z"/>
        <polygon class="cls-2" points="176 57.1 176 74.3 184.5 65.7 176 57.1"/>
        <polygon class="cls-2" points="125.1 164.7 118 157.5 118 171.9 125.1 164.7"/>
        <path class="cls-2" d="M204.7,45.6l4.8-4.8v-1.2c0-12.8-3.3-22-10-27.6l-14.2,14.2,19.4,19.4Z"/>
        <path class="cls-2" d="M184.9,25.8l14.2-14.2c-5.3-4.3-12.5-6.4-21.8-6.4h-10.7l-1.1,1.1,19.4,19.4Z"/>
        <polygon class="cls-2" points="165.1 6 165.9 5.2 164.3 5.2 165.1 6"/>
        <polygon class="cls-2" points="48.6 47.9 48.6 43.9 46.6 45.9 48.6 47.9"/>
        <path class="cls-2" d="M33.8,176.8l12.1-12.1-19.4-19.4-10.8,10.8c2.4,10.8,8.4,17.7,18.1,20.8Z"/>
        <polygon class="cls-2" points="85.5 164.7 71.1 150.3 61.1 150.3 46.6 164.7 60.5 178.6 71.6 178.6 85.5 164.7"/>
        <path class="cls-2" d="M16.1,61.9c0,4.7.4,8.9,1.3,12.6l8.7-8.7-10-10v6.2Z"/>
        <path class="cls-2" d="M59.8,178.6l-13.5-13.5-11.9,11.9c3.6,1.1,7.8,1.6,12.4,1.6h13.1Z"/>
        <path class="cls-2" d="M26.8,65.7l19.4,19.4,8.7-8.7h-1.5c-1.4,0-2.6-.5-3.6-1.6-.9-1-1.3-2.3-1.3-3.6v-22.6l-2.3-2.3-19.4,19.4Z"/>
        <path class="cls-2" d="M17.5,75c1.6,6.6,4.7,11.6,9.2,14.9-3,2.1-5.4,4.8-7.3,8l7.1,7.1,19.4-19.4-19.4-19.4-9,9Z"/>
        <path class="cls-2" d="M26.1,105.3l-7-7c-2.8,4.9-4.3,11.1-4.6,18.5l11.5-11.5Z"/>
        <path class="cls-2" d="M45.9,125.1l-19.4-19.4-11.9,11.9c0,.6,0,1.2,0,1.7v13.3l11.9,11.9,19.4-19.4Z"/>
        <polygon class="cls-2" points="165.1 165.1 154.1 176 176 176 165.1 165.1"/>
        <path class="cls-2" d="M16.2,36.8c0,.9,0,1.8,0,2.7v15.5l10.4,10.4,19.4-19.4-19.4-19.4-10.3,10.3Z"/>
        <path class="cls-2" d="M20.2,19.4l6.3,6.3L45.9,6.3l-1-1c-12,.7-20.2,5.5-24.7,14.2Z"/>
        <path class="cls-2" d="M26.1,26.1l-6.2-6.2c-2.2,4.4-3.4,9.8-3.7,16.1l9.9-9.9Z"/>
        <path class="cls-2" d="M66.1,25.8l19.4-19.4-.3-.3c-2.9-.6-6-.9-9.4-.9h-27.6c-.2,0-.4,0-.6,0l-1.1,1.1,19.4,19.4Z"/>
        <path class="cls-2" d="M46.3,45.6l2.3-2.3v-3.7c0-1.4.4-2.6,1.3-3.6,1-1,2.3-1.6,3.6-1.6h4l8.2-8.2L46.3,6.7l-19.4,19.4,19.4,19.4Z"/>
        <polygon class="cls-2" points="205 164.7 207.4 167.1 207.4 162.3 205 164.7"/>
        <path class="cls-2" d="M46.3,6l.8-.8c-.5,0-1,0-1.5,0l.7.7Z"/>
        <path class="cls-2" d="M14.5,133.3v11c0,4.1.4,7.8,1,11.2l10.6-10.6-11.6-11.6Z"/>
        <path class="cls-2" d="M105.3,144.9l-19.4-19.4-8.4,8.4v11.2c0,1.4-.5,2.6-1.6,3.6-.9,1-2,1.6-3.4,1.6h-.7l14.1,14.1,19.4-19.4Z"/>
        <path class="cls-2" d="M75.9,56.2v15c0,1.1-.3,2.1-1,3l11,11,19.4-19.4-19.4-19.4-10,10Z"/>
        <path class="cls-2" d="M66.1,105l19.4-19.4-10.9-10.9c0,0-.2.2-.2.3-.9,1-2,1.6-3.4,1.6h-15.2l-9.1,9.1,19.4,19.4Z"/>
        <path class="cls-2" d="M46.3,164.3l14.1-14.1h-8.4c-1.4,0-2.6-.5-3.6-1.6-.9-1-1.3-2.3-1.3-3.6v-18.8l-.8-.8-19.4,19.4,19.4,19.4Z"/>
        <path class="cls-2" d="M26.8,105.3l19.4,19.4.8-.8v-13.5c0-1.4.4-2.6,1.3-3.6,1-1,2.3-1.6,3.6-1.6h13.7l-19.4-19.4-19.4,19.4Z"/>
        <polygon class="cls-2" points="151.3 146.1 151.3 139.3 145.6 144.9 165.1 164.3 183.3 146.1 151.3 146.1"/>
        <path class="cls-2" d="M86.2,45.9l19.4,19.4,2.4-2.4c0-.4,0-.7,0-1.1v-22.4c0-4.3-.4-8.2-1.1-11.7l-1.3-1.3-19.4,19.4Z"/>
        <path class="cls-2" d="M106.8,26.8c0-.4-.2-.8-.3-1.2l-.4.4.7.7Z"/>
        <rect class="cls-2" x="72.1" y="12.4" width="27.5" height="27.5" transform="translate(6.7 68.4) rotate(-45)"/>
        <path class="cls-2" d="M105.7,25.8l.6-.6c-3-10.2-9.7-16.5-20-18.9h0s19.4,19.5,19.4,19.5Z"/>
        <path class="cls-2" d="M58.2,34.3h12.7c1.4,0,2.5.5,3.4,1.6,1,1,1.6,2.3,1.6,3.6v16l9.6-9.6-19.4-19.4-7.8,7.8Z"/>
        <polygon class="cls-2" points="207.4 146.1 186.4 146.1 204.7 164.3 207.4 161.6 207.4 146.1"/>
        <path class="cls-2" d="M109.5,149.1l-3.8-3.8-19.4,19.4,9.7,9.7c8.1-4.6,12.6-13.1,13.5-25.4Z"/>
        <polygon class="cls-2" points="207.4 167.8 204.7 165.1 193.7 176 207.4 176 207.4 167.8"/>
        <path class="cls-2" d="M77.5,178.6c7.2,0,13.3-1.3,18.1-3.9l-9.6-9.6-13.5,13.5h5.1Z"/>
        <polygon class="cls-2" points="185.7 146.1 184 146.1 165.4 164.7 176.7 176 193 176 204.3 164.7 185.7 146.1"/>
      </g>
    </g>
  </g>
</svg>