<?xml version="1.0" encoding="UTF-8"?>
<svg xmlns="http://www.w3.org/2000/svg" version="1.1" viewBox="0 0 211 180">
  <defs>
    <style>
      .cls-1 {
        fill: none;
      }

      .cls-2 {
        fill: #c59f7b;
      }
    </style>
  </defs>
  <!-- Generator: Adobe Illustrator 28.7.1, SVG Export Plug-In . SVG Version: 1.2.0 Build 142)  -->
  <g>
    <g id="Layer_1">
      <rect class="cls-1" width="211" height="180"/>
      <path class="cls-2" d="M198.9,8.6h5l-19.6,32.4h-5l19.6-32.4ZM181.6,25.1h-1.2c-4.1,0-6.2-2.2-6.2-6.6v-3.8c0-4.4,2.1-6.6,6.2-6.6h1.2c4.1,0,6.2,2.2,6.2,6.6v3.8c0,4.4-2.1,6.6-6.2,6.6ZM179.3,21c0,.3,0,.5.2.7.2.2.4.3.7.3h1.6c.3,0,.5-.1.6-.3.2-.2.3-.4.3-.7v-8.8c0-.3-.1-.5-.3-.7-.2-.2-.4-.3-.6-.3h-1.6c-.3,0-.5.1-.7.3-.2.2-.2.4-.2.7v8.8ZM202.6,24.5c4.1,0,6.2,2.2,6.2,6.6v3.8c0,4.4-2.1,6.6-6.2,6.6h-1.2c-4.1,0-6.2-2.2-6.2-6.6v-3.8c0-4.4,2.1-6.6,6.2-6.6h1.2ZM203.8,37.4v-8.8c0-.3-.1-.5-.3-.7-.2-.2-.4-.3-.7-.3h-1.5c-.3,0-.5.1-.7.3-.2.2-.2.4-.2.7v8.8c0,.3,0,.5.2.7.2.2.4.3.7.3h1.5c.3,0,.5-.1.7-.3.2-.2.3-.4.3-.7Z"/>
      <g>
        <polygon class="cls-2" points="84.9 35.6 100.3 35.6 100.3 12.1 99.3 11.2 79.9 30.6 84.9 35.6"/>
        <polygon class="cls-2" points="74.9 35.6 84.2 35.6 79.5 31 74.9 35.6"/>
        <path class="cls-2" d="M40.3,70.2l19.4,19.4,18.8-18.8c-1.2,0-2.5-.1-3.8-.1h-24.7c-1.4,0-2.6-.5-3.6-1.6-.9-1-1.3-2.3-1.3-3.6v-.2l-4.9,4.9Z"/>
        <path class="cls-2" d="M20.5,90l11,11c3.7,1.1,7.9,1.7,12.6,1.7h2.6l12.7-12.7-19.4-19.4-19.4,19.4Z"/>
        <polygon class="cls-2" points="99.3 10.4 100.3 9.5 100.3 7.8 96.7 7.8 99.3 10.4"/>
        <polygon class="cls-2" points="100.3 11.4 100.3 10.2 99.7 10.8 100.3 11.4"/>
        <polygon class="cls-2" points="48.3 140.7 48.3 131.8 22.7 131.8 39.9 149 48.3 140.7"/>
        <polygon class="cls-2" points="116.7 8 116.7 27.8 119.1 30.2 138.6 10.8 135.8 8 116.7 8"/>
        <path class="cls-2" d="M18.3,92.2c3,4,7.1,6.8,12.2,8.5l-10.3-10.3-1.8,1.8Z"/>
        <polygon class="cls-2" points="68.8 178.6 59.7 169.5 50.7 178.6 68.8 178.6"/>
        <path class="cls-2" d="M79.2,149.4l-5.7-5.7v1.4c0,1.4-.5,2.6-1.6,3.6-.9,1-2,1.6-3.4,1.6h-15.3c-1.4,0-2.6-.5-3.6-1.6-.9-1-1.3-2.3-1.3-3.6v-3.6l-8,8,19.4,19.4,19.4-19.4Z"/>
        <polygon class="cls-2" points="79.5 110.2 73.5 116.2 73.5 143 79.5 149 99 129.6 79.5 110.2"/>
        <path class="cls-2" d="M18,91.8l1.8-1.8-5.5-5.5c1,2.7,2.2,5.2,3.7,7.3Z"/>
        <polygon class="cls-2" points="13.7 131.8 13.7 135.7 17.6 131.8 13.7 131.8"/>
        <path class="cls-2" d="M79.5,149.7l-19.4,19.4,9.4,9.4h5.3c8,0,14.5-1.6,19.6-4.8l4.6-4.6-19.4-19.4Z"/>
        <polygon class="cls-2" points="152 63.1 152 37.7 139.3 50.4 152 63.1"/>
        <polygon class="cls-2" points="107 122.3 99.7 129.6 107 136.9 107 122.3"/>
        <polygon class="cls-2" points="152 23.5 152 8 142.1 8 139.3 10.8 152 23.5"/>
        <path class="cls-2" d="M106.6,97.6l-7.3-7.3-19.4,19.4,19.4,19.4,7.7-7.7v-16.5c0-2.6-.1-5.1-.4-7.4Z"/>
        <polygon class="cls-2" points="119.5 30.6 138.9 50 152 37 152 24.2 138.9 11.2 119.5 30.6"/>
        <polygon class="cls-2" points="116.7 32.7 118.8 30.6 116.7 28.5 116.7 32.7"/>
        <polygon class="cls-2" points="116.7 68.1 116.7 72.3 118.8 70.2 116.7 68.1"/>
        <path class="cls-2" d="M80.7,71l18.6,18.6,4-4c-4.1-8.5-11.6-13.4-22.6-14.6Z"/>
        <polygon class="cls-2" points="138.6 50.4 119.1 31 116.7 33.4 116.7 67.4 119.1 69.8 138.6 50.4"/>
        <path class="cls-2" d="M99,90l-19.1-19.1c-.2,0-.5,0-.7,0l-19.1,19.1,19.4,19.4,19.4-19.4Z"/>
        <path class="cls-2" d="M103.5,86.2l-3.8,3.8,6.8,6.8c-.6-4-1.5-7.6-3-10.7Z"/>
        <path class="cls-2" d="M79.2,109.8l-19.4-19.4-12.3,12.3h21.1c1.4,0,2.5.5,3.4,1.6,1,1,1.6,2.3,1.6,3.6v7.6l5.7-5.7Z"/>
        <polygon class="cls-2" points="11.9 19.4 11.9 41.8 20.1 50 39.6 30.6 20.1 11.2 11.9 19.4"/>
        <polygon class="cls-2" points="152 116.9 139.3 129.6 152 142.3 152 116.9"/>
        <polygon class="cls-2" points="152 116.2 152 103.4 138.9 90.4 119.5 109.8 138.9 129.2 152 116.2"/>
        <polygon class="cls-2" points="39.9 30.2 59.4 10.8 56.4 7.8 23.5 7.8 20.5 10.8 39.9 30.2"/>
        <polygon class="cls-2" points="152 156.5 139.3 169.2 146.4 176.3 152 176.3 152 156.5"/>
        <path class="cls-2" d="M107,137.6l-7.7-7.7-19.4,19.4,19.4,19.4,2.4-2.4c3.5-5.5,5.3-12.9,5.3-22.1v-6.6Z"/>
        <polygon class="cls-2" points="116.7 147.3 116.7 151.5 118.8 149.4 116.7 147.3"/>
        <polygon class="cls-2" points="138.6 129.6 119.1 110.2 116.7 112.6 116.7 146.6 119.1 149 138.6 129.6"/>
        <polygon class="cls-2" points="20.1 10.4 22.8 7.8 17.5 7.8 20.1 10.4"/>
        <polygon class="cls-2" points="19.8 50.4 11.9 42.5 11.9 58.3 19.8 50.4"/>
        <polygon class="cls-2" points="11.9 18.7 19.8 10.8 16.8 7.8 11.9 7.8 11.9 18.7"/>
        <polygon class="cls-2" points="152 143 138.9 130 119.5 149.4 138.9 168.8 152 155.8 152 143"/>
        <polygon class="cls-2" points="138.9 169.5 132.2 176.3 145.7 176.3 138.9 169.5"/>
        <polygon class="cls-2" points="116.7 107.7 116.7 111.9 118.8 109.8 116.7 107.7"/>
        <polygon class="cls-2" points="119.1 149.7 116.7 152.2 116.7 176.3 131.5 176.3 138.6 169.2 119.1 149.7"/>
        <polygon class="cls-2" points="59.7 10.4 62.4 7.8 57.1 7.8 59.7 10.4"/>
        <polygon class="cls-2" points="138.9 10.4 141.4 8 136.5 8 138.9 10.4"/>
        <polygon class="cls-2" points="79.5 30.2 99 10.8 96 7.8 63.1 7.8 60.1 10.8 79.5 30.2"/>
        <polygon class="cls-2" points="152 77.3 139.3 90 152 102.7 152 77.3"/>
        <polygon class="cls-2" points="138.6 90 119.1 70.6 116.7 73 116.7 107 119.1 109.4 138.6 90"/>
        <polygon class="cls-2" points="152 76.6 152 63.8 138.9 50.8 119.5 70.2 138.9 89.6 152 76.6"/>
        <path class="cls-2" d="M22,131.8h-3.7l-4.6,4.6v7.9c0,10.5,2.3,18.6,6.8,24.2l19.1-19.1-17.6-17.6Z"/>
        <path class="cls-2" d="M39.9,149.7l-19.2,19.2c5.4,6.5,13.7,9.7,25.2,9.7h4l9.4-9.4-19.4-19.4Z"/>
        <path class="cls-2" d="M99.3,169.5l-2.3,2.3c.8-.7,1.6-1.5,2.4-2.3h0Z"/>
        <path class="cls-2" d="M99.7,169.2h0s0,0,.1-.1h-.1Z"/>
        <path class="cls-2" d="M11.9,59v9.3c0,5.7.7,10.7,2,15l6.2,6.2,19.4-19.4-19.4-19.4-8.3,8.3Z"/>
        <polygon class="cls-2" points="20.5 50.4 39.9 69.8 45.2 64.6 45.2 36.2 39.9 31 20.5 50.4"/>
        <polygon class="cls-2" points="45.3 35.6 74.2 35.6 79.2 30.6 59.7 11.2 40.3 30.6 45.3 35.6"/>
      </g>
    </g>
  </g>
</svg>