<?xml version="1.0" encoding="UTF-8"?>
<svg xmlns="http://www.w3.org/2000/svg" version="1.1" viewBox="0 0 265 180">
  <defs>
    <style>
      .cls-1 {
        fill: none;
      }

      .cls-2 {
        fill: #c59f7b;
      }
    </style>
  </defs>
  <!-- Generator: Adobe Illustrator 28.7.1, SVG Export Plug-In . SVG Version: 1.2.0 Build 142)  -->
  <g>
    <g id="Layer_1">
      <rect class="cls-1" width="265" height="180"/>
      <path class="cls-2" d="M252.9,8.6h5l-19.6,32.4h-5l19.6-32.4ZM235.6,25.1h-1.2c-4.1,0-6.2-2.2-6.2-6.6v-3.8c0-4.4,2.1-6.6,6.2-6.6h1.2c4.1,0,6.2,2.2,6.2,6.6v3.8c0,4.4-2.1,6.6-6.2,6.6ZM233.3,21c0,.3,0,.5.2.7.2.2.4.3.7.3h1.6c.3,0,.5-.1.6-.3.2-.2.3-.4.3-.7v-8.8c0-.3-.1-.5-.3-.7-.2-.2-.4-.3-.6-.3h-1.6c-.3,0-.5.1-.7.3-.2.2-.2.4-.2.7v8.8ZM256.6,24.5c4.1,0,6.2,2.2,6.2,6.6v3.8c0,4.4-2.1,6.6-6.2,6.6h-1.2c-4.1,0-6.2-2.2-6.2-6.6v-3.8c0-4.4,2.1-6.6,6.2-6.6h1.2ZM257.8,37.4v-8.8c0-.3,0-.5-.3-.7-.2-.2-.4-.3-.6-.3h-1.6c-.3,0-.5.1-.7.3-.2.2-.2.4-.2.7v8.8c0,.3,0,.5.2.7.2.2.4.3.7.3h1.6c.3,0,.5-.1.6-.3.2-.2.3-.4.3-.7Z"/>
      <g>
        <path class="cls-2" d="M147,5.2c-7.9,0-14.3,1.6-19.3,4.6l-1,1,19.4,19.4,19.4-19.4-5.6-5.6h-13Z"/>
        <path class="cls-2" d="M125.3,11.5c-1.4,1.1-2.6,2.3-3.7,3.7l3.7-3.7Z"/>
        <path class="cls-2" d="M114.8,52h9.6l1.6-1.6-11.2-11.2c0,.1,0,.2,0,.3v12.5Z"/>
        <path class="cls-2" d="M131.2,84.8c-2.1,1.1-4,2.4-5.7,4l.8.8,4.9-4.9Z"/>
        <path class="cls-2" d="M185.4,70.2l-10.8-10.8v16.5c0,1.4-.5,2.6-1.6,3.6-.9,1-2,1.6-3.4,1.6h-12.2l8.5,8.5,19.4-19.4Z"/>
        <path class="cls-2" d="M146.5,30.6l4.3,4.3c1-.9,2.2-1.4,3.5-1.4h15.3c1.4,0,2.5.5,3.4,1.6,1,1,1.6,2.3,1.6,3.6v2.7l10.8-10.8-19.4-19.4-19.4,19.4Z"/>
        <path class="cls-2" d="M125.2,89.2c-1.7,1.7-3.2,3.8-4.4,6.1l5.3-5.3-.8-.8Z"/>
        <polygon class="cls-2" points="205.2 50.4 185.7 31 174.6 42.1 174.6 58.7 185.7 69.8 205.2 50.4"/>
        <path class="cls-2" d="M87.1,50.4l1.6,1.6h18.6v-12.5c0-3-.2-5.8-.6-8.4l-.2-.2-19.4,19.4Z"/>
        <polygon class="cls-2" points="116.6 120.2 116.6 139 126 129.6 116.6 120.2"/>
        <path class="cls-2" d="M106.2,149.4l-19.4-19.4-9.1,9.1v2.3c0,1.4-.5,2.6-1.6,3.6-.9,1-2,1.6-3.4,1.6h-2.6l-2.8,2.8,19.4,19.4,19.4-19.4Z"/>
        <path class="cls-2" d="M93.1,175.9l-6.4-6.4-9,9c6,0,11.1-.9,15.4-2.7Z"/>
        <path class="cls-2" d="M109.9,113.5l-3.3-3.3-19.4,19.4,19.4,19.4,3.3-3.3c0-.5,0-1,0-1.5v-30.8Z"/>
        <path class="cls-2" d="M63.6,106.1h6.8l16.1-16.1-15.9-15.9h-5.9c-.4,0-.8,0-1.2,0l-15.9,15.9,16.1,16.1Z"/>
        <polygon class="cls-2" points="85.5 52 88 52 86.7 50.8 85.5 52"/>
        <polygon class="cls-2" points="69.4 146.6 64.5 146.6 66.9 149 69.4 146.6"/>
        <path class="cls-2" d="M27.7,109.8l19.4,19.4h0v-18c0-1.4.4-2.6,1.3-3.6,1-1,2.3-1.6,3.6-1.6h10.7l-15.7-15.7-19.4,19.4Z"/>
        <path class="cls-2" d="M106.9,149.4l2.5,2.5c.2-1.7.4-3.5.4-5.4l-2.9,2.9Z"/>
        <path class="cls-2" d="M165.9,90.4l-19.4,19.4,4.8,4.8c1-1,2.2-1.5,3.6-1.5h21.1c2.3,0,4.6-.1,6.6-.4l2.9-2.9-19.4-19.4Z"/>
        <path class="cls-2" d="M87.1,169.2l6.5,6.5c8.9-3.9,14.1-11.6,15.7-23.2l-2.8-2.8-19.4,19.4Z"/>
        <path class="cls-2" d="M186.1,30.6l19.4,19.4,2.6-2.6v-8c0-10.5-2.2-18.5-6.7-24.2l-15.3,15.3Z"/>
        <polygon class="cls-2" points="116.6 159.8 116.6 176 119.2 176 126 169.2 116.6 159.8"/>
        <path class="cls-2" d="M185.7,30.2l15.3-15.3c-5.4-6.5-13.7-9.7-25.2-9.7h-4l-5.6,5.6,19.4,19.4Z"/>
        <path class="cls-2" d="M205.5,90.4l-19.4,19.4,1.8,1.8c9.9-2.8,16.2-9.5,18.8-20.1l-1.2-1.2Z"/>
        <path class="cls-2" d="M14.7,137.1v7.2c0,5.8.7,10.9,2.1,15.3l10.2-10.2-12.3-12.3Z"/>
        <polygon class="cls-2" points="127.6 52 126.3 50.8 125.1 52 127.6 52"/>
        <polygon class="cls-2" points="66.9 149.7 47.5 169.2 56.9 178.6 77 178.6 86.4 169.2 66.9 149.7"/>
        <path class="cls-2" d="M27,30.6l-9.2-9.2c-2.1,4.9-3.1,10.9-3.1,18.1v3.4l12.3-12.3Z"/>
        <polygon class="cls-2" points="86.4 129.6 77.6 120.8 77.6 138.4 86.4 129.6"/>
        <path class="cls-2" d="M126.7,50.4l1.6,1.6h21.1v-13.3c0-1.3.4-2.4,1.1-3.4l-4.4-4.4-19.4,19.4Z"/>
        <path class="cls-2" d="M97.4,79c-5.1-3.3-11.6-4.9-19.8-4.9h-6.4l15.6,15.6,10.7-10.7Z"/>
        <path class="cls-2" d="M119.9,17.6c-3.3,5.3-5,12.2-5.1,20.9l11.6,11.6,19.4-19.4-19.4-19.4-6.4,6.4Z"/>
        <path class="cls-2" d="M109.9,112.8v-4.4c0-.5,0-1,0-1.5l-2.9,2.9,3,3Z"/>
        <path class="cls-2" d="M73.9,37.9c0,.3,0,.5,0,.8v13.3h10.8l1.6-1.6-12.5-12.5Z"/>
        <path class="cls-2" d="M106.2,109.8l-19.4-19.4-15.7,15.7h1.6c1.4,0,2.5.5,3.4,1.6,1,1,1.6,2.3,1.6,3.6v8.9l9.1,9.1,19.4-19.4Z"/>
        <path class="cls-2" d="M97.8,79.3l-10.7,10.7,19.4,19.4,3.3-3.3c-.4-12.8-4.4-21.7-12-26.9Z"/>
        <path class="cls-2" d="M86.7,10.4l2.9-2.9c-2.3-.9-4.9-1.5-7.7-1.9l4.8,4.8Z"/>
        <polygon class="cls-2" points="27 70.2 14.7 57.9 14.7 82.5 27 70.2"/>
        <path class="cls-2" d="M56.2,178.6l-9.1-9.1-8.4,8.4c2.5.4,5.3.6,8.2.6h9.3Z"/>
        <polygon class="cls-2" points="165.9 169.5 159.5 176 172.4 176 165.9 169.5"/>
        <polygon class="cls-2" points="146.1 149.7 126.7 169.2 133.5 176 158.8 176 165.6 169.2 146.1 149.7"/>
        <path class="cls-2" d="M27.3,149.7l-10.4,10.4c3.4,9.8,10.4,15.8,21.2,17.7l8.7-8.7-19.4-19.4Z"/>
        <path class="cls-2" d="M66.9,30.2l19.4-19.4-5.3-5.3c-1.9-.2-4-.3-6.1-.3h-21.9l-5.6,5.6,19.4,19.4Z"/>
        <path class="cls-2" d="M205.9,90l1,1c.2-.8.3-1.6.5-2.4l-1.4,1.4Z"/>
        <polygon class="cls-2" points="14.7 43.6 14.7 57.2 27.3 69.8 46.8 50.4 27.3 31 14.7 43.6"/>
        <path class="cls-2" d="M27.7,30.6l19.4,19.4h0v-11.3c0-1.4.4-2.6,1.3-3.6,1-1,2.3-1.6,3.6-1.6h11.5l2.9-2.9-19.4-19.4-19.4,19.4Z"/>
        <polygon class="cls-2" points="206 168.3 206 146.1 189.4 146.1 186.1 149.4 205.5 168.8 206 168.3"/>
        <polygon class="cls-2" points="185.7 149.7 166.3 169.2 173.1 176 198.4 176 205.2 169.2 185.7 149.7"/>
        <polygon class="cls-2" points="206 170 205.5 169.5 199.1 176 206 176 206 170"/>
        <path class="cls-2" d="M145.8,109.8l-19.4-19.4-6.3,6.3c-2.3,5-3.5,11.3-3.5,18.8v4.1l9.7,9.7,19.4-19.4Z"/>
        <path class="cls-2" d="M18.1,21l9.3,9.3,19.4-19.4-5.3-5.3c-11.5,1.2-19.3,6.4-23.4,15.5Z"/>
        <polygon class="cls-2" points="188.7 146.1 182.8 146.1 185.7 149 188.7 146.1"/>
        <path class="cls-2" d="M42.1,5.4l5,5,5.3-5.3h-5.5c-1.7,0-3.3,0-4.8.2Z"/>
        <polygon class="cls-2" points="182.1 146.1 149.9 146.1 149.9 146 146.5 149.4 165.9 168.8 185.4 149.4 182.1 146.1"/>
        <polygon class="cls-2" points="205.9 169.2 206 169.3 206 169.1 205.9 169.2"/>
        <polygon class="cls-2" points="165.9 10.4 171.2 5.2 160.7 5.2 165.9 10.4"/>
        <path class="cls-2" d="M106.5,30.2h0c-1.8-11.4-7.3-18.9-16.4-22.5l-3.1,3.1,19.4,19.4Z"/>
        <polygon class="cls-2" points="205.9 50.4 208.1 52.6 208.1 48.2 205.9 50.4"/>
        <path class="cls-2" d="M70.5,33.8c.8.2,1.4.7,2,1.3.6.6,1,1.2,1.2,1.9l13.1,13.1,19.4-19.4-19.4-19.4-19.4,19.4,3.2,3.2Z"/>
        <path class="cls-2" d="M165.6,90l-8.9-8.9h-7.9c-6.4,0-11.8,1-16.3,3l-5.9,5.9,19.4,19.4,19.4-19.4Z"/>
        <path class="cls-2" d="M207.5,87.7c.4-2.8.6-5.7.6-9v-25.4l-2.6-2.6-19.4,19.4,19.4,19.4,1.9-1.9Z"/>
        <path class="cls-2" d="M64.4,33.5h4.7c.2,0,.3,0,.5,0l-2.6-2.6-2.6,2.6Z"/>
        <rect class="cls-2" x="172" y="76.2" width="27.5" height="27.5" transform="translate(-9.2 157.7) rotate(-45)"/>
        <polygon class="cls-2" points="14.7 83.2 14.7 96.8 27.3 109.4 46.8 90 27.3 70.6 14.7 83.2"/>
        <polygon class="cls-2" points="126.3 130 116.6 139.7 116.6 159.1 126.3 168.8 145.8 149.4 126.3 130"/>
        <path class="cls-2" d="M66.6,149.4l-2.8-2.8h-11.7c-1.4,0-2.6-.5-3.6-1.6-.9-1-1.3-2.3-1.3-3.6v-11.4h0c0,0-19.4,19.4-19.4,19.4l19.4,19.4,19.4-19.4Z"/>
        <polygon class="cls-2" points="126.3 169.5 119.9 176 132.8 176 126.3 169.5"/>
        <path class="cls-2" d="M47.1,50.8l-19.4,19.4,19.4,19.4,15.5-15.5c-6.1.2-11.2,1.3-15.5,3.3v-26.7h0Z"/>
        <path class="cls-2" d="M149.9,145.3v-27c0-1.3.4-2.4,1.1-3.3l-4.8-4.8-19.4,19.4,19.4,19.4,3.7-3.7Z"/>
        <path class="cls-2" d="M185.7,110.2l-2.4,2.4c1.4-.2,2.7-.5,4-.8l-1.6-1.6Z"/>
        <polygon class="cls-2" points="14.7 97.5 14.7 122.1 27 109.8 14.7 97.5"/>
        <polygon class="cls-2" points="46.8 129.6 27.3 110.2 14.7 122.8 14.7 136.4 27.3 149 46.8 129.6"/>
      </g>
    </g>
  </g>
</svg>