<?xml version="1.0" encoding="UTF-8"?>
<svg xmlns="http://www.w3.org/2000/svg" version="1.1" viewBox="0 0 267 180">
  <defs>
    <style>
      .cls-1 {
        fill: none;
      }

      .cls-2 {
        fill: #c59f7b;
      }
    </style>
  </defs>
  <!-- Generator: Adobe Illustrator 28.7.1, SVG Export Plug-In . SVG Version: 1.2.0 Build 142)  -->
  <g>
    <g id="Layer_1">
      <rect class="cls-1" width="267" height="180"/>
      <path class="cls-2" d="M254.9,8.6h5l-19.6,32.4h-5l19.6-32.4ZM237.6,25.1h-1.2c-4.1,0-6.2-2.2-6.2-6.6v-3.8c0-4.4,2.1-6.6,6.2-6.6h1.2c4.1,0,6.2,2.2,6.2,6.6v3.8c0,4.4-2.1,6.6-6.2,6.6ZM235.3,21c0,.3,0,.5.2.7.2.2.4.3.7.3h1.6c.3,0,.5-.1.6-.3.2-.2.3-.4.3-.7v-8.8c0-.3-.1-.5-.3-.7-.2-.2-.4-.3-.6-.3h-1.6c-.3,0-.5.1-.7.3-.2.2-.2.4-.2.7v8.8ZM258.6,24.5c4.1,0,6.2,2.2,6.2,6.6v3.8c0,4.4-2.1,6.6-6.2,6.6h-1.2c-4.1,0-6.2-2.2-6.2-6.6v-3.8c0-4.4,2.1-6.6,6.2-6.6h1.2ZM259.8,37.4v-8.8c0-.3,0-.5-.3-.7-.2-.2-.4-.3-.6-.3h-1.6c-.3,0-.5.1-.7.3-.2.2-.2.4-.2.7v8.8c0,.3,0,.5.2.7.2.2.4.3.7.3h1.6c.3,0,.5-.1.6-.3.2-.2.3-.4.3-.7Z"/>
      <g>
        <path class="cls-2" d="M76.3,62.2v11.6c0,1.2-.4,2.3-1.2,3.2l12.6,12.6,19.4-19.4-19.4-19.4-11.4,11.4Z"/>
        <polygon class="cls-2" points="88.1 50.4 107.5 69.8 108.8 68.6 108.8 32.2 107.5 31 88.1 50.4"/>
        <polygon class="cls-2" points="76.3 61.5 87.4 50.4 76.3 39.3 76.3 61.5"/>
        <path class="cls-2" d="M149.3,5.2c-9,0-16.1,2-21.3,6l19.1,19.1,19.4-19.4-5.6-5.6h-11.6Z"/>
        <path class="cls-2" d="M186.4,30.6l-19.4-19.4-19.4,19.4,4.4,4.4c.8-.5,1.6-.7,2.6-.7h17.4c1.4,0,2.5.5,3.4,1.6,1,1,1.6,2.3,1.6,3.6v.6l9.5-9.5Z"/>
        <polygon class="cls-2" points="108.8 31.5 108.8 29.7 107.9 30.6 108.8 31.5"/>
        <path class="cls-2" d="M67.9,109.4l19.4-19.4-12.6-12.6s0,0,0,0c-.9,1-2,1.6-3.4,1.6h-11.9l-11,11,19.4,19.4Z"/>
        <path class="cls-2" d="M149.6,71.2v-3.1l-2.1,2.1,2.2,2.2c0-.4-.1-.8-.1-1.2Z"/>
        <polygon class="cls-2" points="107.5 110.2 88.1 129.6 107.5 149 108.8 147.8 108.8 111.4 107.5 110.2"/>
        <path class="cls-2" d="M115.5,118.2c0,.4,0,.8,0,1.2v21.7l11.5-11.5-11.4-11.4Z"/>
        <path class="cls-2" d="M146.8,109.8l-19.4-19.4-5.8,5.8c-3.8,5.4-5.8,12.5-6,21.3l11.8,11.8,19.4-19.4Z"/>
        <polygon class="cls-2" points="107.9 149.4 108.8 150.3 108.8 148.5 107.9 149.4"/>
        <polygon class="cls-2" points="107.2 149.4 87.7 130 76.3 141.4 76.3 157.4 87.7 168.8 107.2 149.4"/>
        <path class="cls-2" d="M31.2,107.3c4.2,1.6,9.1,2.4,14.7,2.4h21.6l-19.3-19.3-17,17Z"/>
        <polygon class="cls-2" points="94.2 176 87.7 169.5 81.3 176 94.2 176"/>
        <path class="cls-2" d="M146.8,30.6l-19.1-19.1c-7,5.6-10.6,14.9-10.6,28v.3l10.3,10.3,19.4-19.4Z"/>
        <polygon class="cls-2" points="88.1 169.2 94.9 176 108.8 176 108.8 151 107.5 149.7 88.1 169.2"/>
        <path class="cls-2" d="M117.8,160c1.6,4.6,3.9,8.4,7.1,11.3l2.1-2.1-9.2-9.2Z"/>
        <polygon class="cls-2" points="107.5 70.6 88.1 90 107.5 109.4 108.8 108.2 108.8 71.8 107.5 70.6"/>
        <path class="cls-2" d="M152.6,76c-.6-.3-1.2-.7-1.8-1.2-.4-.4-.6-.9-.8-1.4l-2.9-2.9-19.4,19.4,19.4,19.4,1.5-1.5c.2-.4.4-.8.7-1.1.5-.5.9-.8,1.5-1l15.8-15.8-13.9-13.9Z"/>
        <path class="cls-2" d="M187.1,30.6l19.4,19.4,2.6-2.6v-8c0-10.5-2.3-18.5-6.7-24.2l-15.3,15.3Z"/>
        <path class="cls-2" d="M147.5,109.8l.5.5c0-.4,0-.9.2-1.3l-.7.7Z"/>
        <path class="cls-2" d="M149.6,67.4v-27.9c0-1.4.4-2.6,1.3-3.6.2-.2.4-.4.6-.5l-4.4-4.4-19.4,19.4,19.4,19.4,2.4-2.4Z"/>
        <polygon class="cls-2" points="108.8 108.9 107.9 109.8 108.8 110.7 108.8 108.9"/>
        <polygon class="cls-2" points="127 50.4 117.1 40.5 117.1 60.3 127 50.4"/>
        <polygon class="cls-2" points="76.3 118.5 76.3 140.7 87.4 129.6 76.3 118.5"/>
        <path class="cls-2" d="M186.4,70.2l-9.5-9.5v10.5c0,1.4-.5,2.6-1.6,3.6-.9,1-2,1.6-3.4,1.6h-17.4c-.3,0-.6,0-.9,0l13.3,13.3,19.4-19.4Z"/>
        <path class="cls-2" d="M127.3,50.8l-10.3,10.3v.8c0,10.5,2.2,18.5,6.5,24l3.7,3.7s0,0,.1.1l19.4-19.4-19.4-19.4Z"/>
        <polygon class="cls-2" points="107.9 70.2 108.8 71.1 108.8 69.3 107.9 70.2"/>
        <polygon class="cls-2" points="107.2 109.8 87.7 90.4 68.4 109.7 76.3 109.7 76.3 117.8 87.7 129.2 107.2 109.8"/>
        <path class="cls-2" d="M186.7,30.2l15.3-15.3c-5.4-6.5-13.7-9.7-25.2-9.7h-4l-5.6,5.6,19.4,19.4Z"/>
        <polygon class="cls-2" points="166.9 169.5 157.9 178.6 176 178.6 166.9 169.5"/>
        <polygon class="cls-2" points="206.2 129.6 186.7 110.2 178.4 118.4 178.4 140.7 186.7 149 206.2 129.6"/>
        <polygon class="cls-2" points="76.3 21.9 87.4 10.8 84.4 7.8 76.3 7.8 76.3 21.9"/>
        <path class="cls-2" d="M147.1,149.7l-19.4,19.4,7.9,7.9c3.6,1,7.7,1.5,12.2,1.5h9.4l9.4-9.4-19.4-19.4Z"/>
        <path class="cls-2" d="M14.2,84l13.8-13.8-14.4-14.4v19.5c0,3.1.2,5.9.6,8.6Z"/>
        <polygon class="cls-2" points="45.9 47.8 45.9 13.4 28.7 30.6 45.9 47.8"/>
        <polygon class="cls-2" points="13.6 45.7 13.6 55.1 28.3 69.8 45.9 52.3 45.9 48.5 28.3 31 13.6 45.7"/>
        <path class="cls-2" d="M178.4,141.5v3.6c0,1.4-.5,2.6-1.6,3.6-.9,1-2,1.6-3.4,1.6h-20.5c-1.4,0-2.6-.5-3.6-1.6-.2-.2-.3-.4-.5-.7l-1.4,1.4,19.4,19.4,19.4-19.4-7.9-7.9Z"/>
        <path class="cls-2" d="M210.7,134.1l-4.1-4.1-19.4,19.4,17.8,17.8c3.9-5.6,5.8-13.2,5.8-22.9v-10.2Z"/>
        <path class="cls-2" d="M204.6,167.6l-17.9-17.9-19.4,19.4,9.4,9.4h1.7c12.2,0,20.9-3.7,26.2-11Z"/>
        <polygon class="cls-2" points="206.9 129.6 210.7 133.4 210.7 125.8 206.9 129.6"/>
        <path class="cls-2" d="M210.7,125.1v-5.8c0-11-2.6-19.5-7.8-25.4l-15.8,15.8,19.4,19.4,4.1-4.1Z"/>
        <polygon class="cls-2" points="45.9 8.2 45.9 7.8 45.5 7.8 45.9 8.2"/>
        <polygon class="cls-2" points="28 30.6 13.6 16.2 13.6 45 28 30.6"/>
        <polygon class="cls-2" points="13.6 15.5 28.3 30.2 45.9 12.7 45.9 8.9 44.8 7.8 13.6 7.8 13.6 15.5"/>
        <path class="cls-2" d="M186.4,109.8l-19.4-19.4-15,15c.3,0,.7-.1,1.1-.1h20.5c1.4,0,2.5.5,3.4,1.6,1,1,1.6,2.3,1.6,3.6v7.3l7.9-7.9Z"/>
        <polygon class="cls-2" points="87.7 10.4 90.4 7.8 85.1 7.8 87.7 10.4"/>
        <polygon class="cls-2" points="107.5 30.2 108.8 29 108.8 7.8 91.1 7.8 88.1 10.8 107.5 30.2"/>
        <polygon class="cls-2" points="76.3 38.6 87.7 50 107.2 30.6 87.7 11.2 76.3 22.6 76.3 38.6"/>
        <polygon class="cls-2" points="206.9 50.4 209.1 52.6 209.1 48.2 206.9 50.4"/>
        <path class="cls-2" d="M202.6,93.6c-1.2-1.4-2.6-2.6-4.1-3.6,1.5-1.1,2.8-2.3,3.9-3.7l-15.6-15.6-19.4,19.4,19.4,19.4,15.9-15.9Z"/>
        <polygon class="cls-2" points="166.9 10.4 172.2 5.2 161.7 5.2 166.9 10.4"/>
        <path class="cls-2" d="M28.7,70.2l19.4,19.4,10.6-10.6h-8c-1.4,0-2.6-.5-3.6-1.6-.9-1-1.3-2.3-1.3-3.6v-20.8l-17.2,17.2Z"/>
        <path class="cls-2" d="M209.1,61.9v-8.5l-2.6-2.6-19.4,19.4,15.6,15.6c4.3-5.5,6.4-13.5,6.4-23.9Z"/>
        <path class="cls-2" d="M127.3,130l-11.8,11.8v2.5c0,5.6.6,10.4,1.9,14.7l9.9,9.9,19.4-19.4-19.4-19.4Z"/>
        <path class="cls-2" d="M148.6,147.6c-.4-.8-.6-1.6-.6-2.5v-34l-.9-.9-19.4,19.4,19.4,19.4,1.5-1.5Z"/>
        <polygon class="cls-2" points="206.2 50.4 186.7 31 176.9 40.8 176.9 60 186.7 69.8 206.2 50.4"/>
        <path class="cls-2" d="M127.3,169.5l-2.1,2.1c2.6,2.2,5.7,4,9.3,5.1l-7.2-7.2Z"/>
        <path class="cls-2" d="M14.3,84.6c1.8,11.4,7.3,18.9,16.3,22.5l17.1-17.1-19.4-19.4-14,14Z"/>
        <polygon class="cls-2" points="76.3 158.1 76.3 176 80.6 176 87.4 169.2 76.3 158.1"/>
      </g>
    </g>
  </g>
</svg>