<?xml version="1.0" encoding="UTF-8"?>
<svg xmlns="http://www.w3.org/2000/svg" version="1.1" viewBox="0 0 213 180">
  <defs>
    <style>
      .cls-1 {
        fill: none;
      }

      .cls-2 {
        fill: #c59f7b;
      }
    </style>
  </defs>
  <!-- Generator: Adobe Illustrator 28.7.1, SVG Export Plug-In . SVG Version: 1.2.0 Build 142)  -->
  <g>
    <g id="Layer_1">
      <rect class="cls-1" width="213" height="180"/>
      <path class="cls-2" d="M200.9,8.6h5l-19.6,32.4h-5l19.6-32.4ZM183.6,25.1h-1.2c-4.1,0-6.2-2.2-6.2-6.6v-3.8c0-4.4,2.1-6.6,6.2-6.6h1.2c4.1,0,6.2,2.2,6.2,6.6v3.8c0,4.4-2.1,6.6-6.2,6.6ZM181.3,21c0,.3,0,.5.2.7.2.2.4.3.7.3h1.6c.3,0,.5-.1.6-.3.2-.2.3-.4.3-.7v-8.8c0-.3-.1-.5-.3-.7-.2-.2-.4-.3-.6-.3h-1.6c-.3,0-.5.1-.7.3-.2.2-.2.4-.2.7v8.8ZM204.6,24.5c4.1,0,6.2,2.2,6.2,6.6v3.8c0,4.4-2.1,6.6-6.2,6.6h-1.2c-4.1,0-6.2-2.2-6.2-6.6v-3.8c0-4.4,2.1-6.6,6.2-6.6h1.2ZM205.8,37.4v-8.8c0-.3-.1-.5-.3-.7-.2-.2-.4-.3-.7-.3h-1.5c-.3,0-.5.1-.7.3-.2.2-.2.4-.2.7v8.8c0,.3,0,.5.2.7.2.2.4.3.7.3h1.5c.3,0,.5-.1.7-.3.2-.2.3-.4.3-.7Z"/>
      <g>
        <polygon class="cls-2" points="61.5 120.9 61.5 127.2 77.8 143.5 94 127.3 94 120.8 77.8 104.6 61.5 120.9"/>
        <path class="cls-2" d="M61.5,127.9v16.3c0,5.2.6,9.8,1.7,13.9l14.3-14.3-15.9-15.9Z"/>
        <polygon class="cls-2" points="118 105.3 117.4 104.6 116.7 105.3 118 105.3"/>
        <path class="cls-2" d="M78.1,104.3l15.9,15.9v-9.7c0-1.4.4-2.6,1.3-3.6,1-1,2.3-1.6,3.6-1.6h17.1l1-1-19.4-19.4-19.4,19.4Z"/>
        <path class="cls-2" d="M83.4,177.5l13.8-13.8-19.4-19.4-14.5,14.5c3,10.2,9.7,16.5,20.1,18.8Z"/>
        <path class="cls-2" d="M155.1,62.4c0-.2,0-.4,0-.6v-22.4c0-4.1-.3-7.8-1-11.1l-16.5,16.5,17.5,17.5Z"/>
        <path class="cls-2" d="M112.1,178.6l-14.6-14.6-13.6,13.6c3,.6,6.2.9,9.8.9h18.4Z"/>
        <path class="cls-2" d="M108.5,34.3h9.4c1.4,0,2.5.5,3.4,1.6,1,1,1.6,2.3,1.6,3.6v19.4l14-14-19.4-19.4-8.9,8.9Z"/>
        <path class="cls-2" d="M155,105.9c-.5-1.7-1-3.4-1.7-4.9l-16.1-16.1-19.4,19.4,1,1h.7c1.4,0,2.5.5,3.4,1.6,1,1,1.6,2.3,1.6,3.6v.5l12.8,12.8,17.9-17.9Z"/>
        <path class="cls-2" d="M117.4,103.9l19.4-19.4-14-14v.7c0,1.4-.5,2.6-1.6,3.6-.9,1-2,1.6-3.4,1.6h-11.9l-8.1,8.1,19.4,19.4Z"/>
        <polygon class="cls-2" points="124.4 111.7 124.4 136.5 136.8 124.1 124.4 111.7"/>
        <path class="cls-2" d="M98.9,150.3c-1.4,0-2.6-.5-3.6-1.6-.9-1-1.3-2.3-1.3-3.6v-17l-15.9,15.9,19.4,19.4,13.1-13.1h-11.7Z"/>
        <polygon class="cls-2" points="51.9 129.8 51.9 118.4 38.2 104.6 18.7 124.1 38.2 143.5 51.9 129.8"/>
        <path class="cls-2" d="M155.2,106.4l-17.6,17.6,19.1,19.1v-23.9c0-4.8-.5-9.1-1.5-12.9Z"/>
        <polygon class="cls-2" points="18.4 164 16.5 165.9 16.5 176.3 30.6 176.3 18.4 164"/>
        <path class="cls-2" d="M137.5,163.7l8.6,8.6c7-5.6,10.5-14.8,10.5-27.7l-19.1,19.1Z"/>
        <polygon class="cls-2" points="51.9 158 38.2 144.2 18.7 163.7 31.3 176.3 45 176.3 51.9 169.4 51.9 158"/>
        <polygon class="cls-2" points="16.5 122.6 16.5 125.6 18 124.1 16.5 122.6"/>
        <path class="cls-2" d="M137.2,44.5l16.8-16.8c-.7-3.1-1.6-5.8-2.9-8.3l-10.7-10.7c-1.4-.7-2.9-1.3-4.5-1.8l-18.1,18.1,19.4,19.4Z"/>
        <path class="cls-2" d="M154.9,67.1l-17.4,17.4,15.2,15.2c-2-4-4.8-7.3-8.3-9.7,6.1-4.5,9.6-12.1,10.5-22.8Z"/>
        <path class="cls-2" d="M77.4,104.3l-9.2-9.2c-4.5,5.8-6.8,13.9-6.8,24.2v.9l15.9-15.9Z"/>
        <polygon class="cls-2" points="37.8 143.9 18.4 124.4 16.5 126.3 16.5 161.5 18.4 163.3 37.8 143.9"/>
        <path class="cls-2" d="M78.1,64.7l19.4,19.4,7.7-7.7h-4.8c-1.4,0-2.6-.5-3.6-1.6-.9-1-1.3-2.3-1.3-3.6v-23.9l-17.4,17.4Z"/>
        <path class="cls-2" d="M122.8,59.6v10.2l14.3,14.3,17.8-17.8c0-1,.1-2.1.1-3.2l-17.9-17.9-14.3,14.3Z"/>
        <polygon class="cls-2" points="51.9 170.1 45.8 176.3 51.9 176.3 51.9 170.1"/>
        <path class="cls-2" d="M77.4,25.1l-8.6-8.6c-3.9,5.6-5.8,13.2-5.8,22.9l14.4-14.4Z"/>
        <polygon class="cls-2" points="18.7 44.9 38.2 64.3 51.9 50.6 51.9 39.2 38.2 25.4 18.7 44.9"/>
        <polygon class="cls-2" points="51.9 38.5 51.9 11.7 38.5 25.1 51.9 38.5"/>
        <path class="cls-2" d="M69.2,16.1l8.6,8.6,19.4-19.4h-.1c0-.1-1.8-.1-1.8-.1-12.1,0-20.8,3.6-26.1,10.9Z"/>
        <polygon class="cls-2" points="18 163.7 16.5 162.2 16.5 165.2 18 163.7"/>
        <path class="cls-2" d="M137.2,164l-14.6,14.6h1.8c9,0,16.1-2,21.3-6l-8.6-8.6Z"/>
        <polygon class="cls-2" points="16.5 86.7 16.5 121.9 18.4 123.7 37.8 104.3 18.4 84.8 16.5 86.7"/>
        <polygon class="cls-2" points="16.5 47.1 16.5 82.3 18.4 84.1 37.8 64.7 18.4 45.2 16.5 47.1"/>
        <polygon class="cls-2" points="16.5 42.7 18.4 44.5 37.8 25.1 20.8 8 16.5 8 16.5 42.7"/>
        <polygon class="cls-2" points="18 44.9 16.5 43.4 16.5 46.4 18 44.9"/>
        <polygon class="cls-2" points="38.2 24.7 51.9 11 51.9 8 21.5 8 38.2 24.7"/>
        <polygon class="cls-2" points="18 84.5 16.5 83 16.5 86 18 84.5"/>
        <path class="cls-2" d="M63,61.9c0,5.8.7,10.9,2,15.2l12.4-12.4-14.4-14.4v11.6Z"/>
        <polygon class="cls-2" points="51.9 130.5 38.5 143.9 51.9 157.2 51.9 130.5"/>
        <polygon class="cls-2" points="18.7 84.5 38.2 103.9 51.9 90.2 51.9 78.8 38.2 65 18.7 84.5"/>
        <polygon class="cls-2" points="51.9 117.7 51.9 90.9 38.5 104.3 51.9 117.7"/>
        <path class="cls-2" d="M156.6,143.9l-19.4-19.4-12.8,12.8v7.9c0,1.4-.5,2.6-1.6,3.6,0,0-.1,0-.2.1l14.5,14.5,19.4-19.4Z"/>
        <path class="cls-2" d="M65.2,77.6c1.8,5.4,4.6,9.5,8.5,12.3-1.9,1.4-3.6,3-5.1,4.8l9.2,9.2,19.4-19.4-19.4-19.4-12.6,12.6Z"/>
        <path class="cls-2" d="M122.3,149.2c-.8.7-1.7,1.1-2.9,1.1h-8.1l-13.4,13.4,14.9,14.9h9.1l14.9-14.9-14.5-14.5Z"/>
        <polygon class="cls-2" points="51.9 78.1 51.9 51.3 38.5 64.7 51.9 78.1"/>
        <polygon class="cls-2" points="63 40.2 63 49.6 77.8 64.3 95.5 46.6 95.5 43.2 77.8 25.4 63 40.2"/>
        <path class="cls-2" d="M141.9,9.6l8.2,8.2c-2.1-3.5-4.8-6.2-8.2-8.2Z"/>
        <path class="cls-2" d="M117.4,24.7l17.9-17.9c-3.7-1.1-7.8-1.6-12.5-1.6h-24.9c0,.1,19.4,19.6,19.4,19.6Z"/>
        <path class="cls-2" d="M95.5,42.5v-3c0-1.4.4-2.6,1.3-3.6,1-1,2.3-1.6,3.6-1.6h7.3l9.2-9.2-19.4-19.4-19.4,19.4,17.4,17.4Z"/>
      </g>
    </g>
  </g>
</svg>