<?xml version="1.0" encoding="UTF-8"?>
<svg xmlns="http://www.w3.org/2000/svg" version="1.1" viewBox="0 0 267 180">
  <defs>
    <style>
      .cls-1 {
        fill: none;
      }

      .cls-2 {
        fill: #c59f7b;
      }
    </style>
  </defs>
  <!-- Generator: Adobe Illustrator 28.7.1, SVG Export Plug-In . SVG Version: 1.2.0 Build 142)  -->
  <g>
    <g id="Layer_1">
      <rect class="cls-1" x=".5" width="266" height="180"/>
      <path class="cls-2" d="M254.4,8.6h5l-19.6,32.4h-5l19.6-32.4ZM237.1,25.1h-1.2c-4.1,0-6.2-2.2-6.2-6.6v-3.8c0-4.4,2.1-6.6,6.2-6.6h1.2c4.1,0,6.2,2.2,6.2,6.6v3.8c0,4.4-2.1,6.6-6.2,6.6ZM234.8,21c0,.3,0,.5.2.7.2.2.4.3.7.3h1.6c.3,0,.5-.1.6-.3.2-.2.3-.4.3-.7v-8.8c0-.3-.1-.5-.3-.7-.2-.2-.4-.3-.6-.3h-1.6c-.3,0-.5.1-.7.3-.2.2-.2.4-.2.7v8.8ZM258.1,24.5c4.1,0,6.2,2.2,6.2,6.6v3.8c0,4.4-2.1,6.6-6.2,6.6h-1.2c-4.1,0-6.2-2.2-6.2-6.6v-3.8c0-4.4,2.1-6.6,6.2-6.6h1.2ZM259.3,37.4v-8.8c0-.3,0-.5-.3-.7-.2-.2-.4-.3-.6-.3h-1.6c-.3,0-.5.1-.7.3-.2.2-.3.4-.3.7v8.8c0,.3,0,.5.3.7.2.2.4.3.7.3h1.6c.3,0,.5-.1.6-.3.2-.2.3-.4.3-.7Z"/>
      <g>
        <path class="cls-2" d="M64.6,106.1h6.8l16.1-16.1-15.9-15.9h-6.2c-.3,0-.6,0-.8,0l-15.9,15.9,16.1,16.1Z"/>
        <path class="cls-2" d="M28.7,109.8l19.1,19.1v-17.7c0-1.4.4-2.6,1.3-3.6,1-1,2.3-1.6,3.6-1.6h11.1l-15.7-15.7-19.4,19.4Z"/>
        <polygon class="cls-2" points="70.4 146.6 65.5 146.6 67.9 149 70.4 146.6"/>
        <path class="cls-2" d="M107.2,149.4l-19.4-19.4-9.5,9.5v2c0,1.4-.5,2.6-1.6,3.6-.9,1-2,1.6-3.4,1.6h-2.2l-2.8,2.8,19.4,19.4,19.4-19.4Z"/>
        <polygon class="cls-2" points="86.5 52 89 52 87.7 50.8 86.5 52"/>
        <polygon class="cls-2" points="127.3 10.4 130 7.8 124.7 7.8 127.3 10.4"/>
        <path class="cls-2" d="M89.7,52h18.2v-12.5c0-3-.2-5.7-.5-8.3l-19.2,19.2,1.6,1.6Z"/>
        <path class="cls-2" d="M94,175.8l-6.3-6.3-9,9c5.9,0,11-1,15.3-2.8Z"/>
        <polygon class="cls-2" points="206.2 50.4 186.7 31 177.8 39.9 177.8 60.9 186.7 69.8 206.2 50.4"/>
        <polygon class="cls-2" points="177.8 39.2 186.4 30.6 177.8 22 177.8 39.2"/>
        <path class="cls-2" d="M186.4,70.2l-8.6-8.6v12.2c0,1.4-.5,2.6-1.6,3.6-.9,1-2,1.6-3.4,1.6h-16.5l10.6,10.6,19.4-19.4Z"/>
        <path class="cls-2" d="M155.6,79h-3.3c-1.4,0-2.6-.5-3.6-1.6-.9-1-1.3-2.3-1.3-3.6v-3l-.2-.2-19.4,19.4,19.4,19.4,19.4-19.4-11-11Z"/>
        <path class="cls-2" d="M110,152.2l-2.4-2.4-19.4,19.4,6.4,6.4c8.8-3.9,14-11.7,15.5-23.4Z"/>
        <path class="cls-2" d="M107.9,149.4l2.2,2.2c.2-1.5.3-3.1.4-4.7l-2.5,2.5Z"/>
        <polygon class="cls-2" points="147.4 69.6 147.4 31.2 147.1 31 127.7 50.4 147.1 69.8 147.4 69.6"/>
        <path class="cls-2" d="M127.3,50.8l-12.2,12.2v12.4c0,.7,0,1.4,0,2.1l12.2,12.2,19.4-19.4-19.4-19.4Z"/>
        <polygon class="cls-2" points="87.4 129.6 78.2 120.4 78.2 138.7 87.4 129.6"/>
        <path class="cls-2" d="M107.2,109.8l-19.4-19.4-15.7,15.7h1.3c1.4,0,2.5.5,3.4,1.6,1,1,1.6,2.3,1.6,3.6v8.5l9.5,9.5,19.4-19.4Z"/>
        <path class="cls-2" d="M74.4,37.4c.1.4.2.8.2,1.3v13.3h11.2l1.6-1.6-13-13Z"/>
        <polygon class="cls-2" points="127.7 10.8 147.1 30.2 147.4 30 147.4 7.8 130.7 7.8 127.7 10.8"/>
        <path class="cls-2" d="M98.2,79.1c-5.1-3.4-11.7-5.1-20-5.1h-6.1l15.6,15.6,10.5-10.5Z"/>
        <path class="cls-2" d="M28,30.6l-9.4-9.4c-2.2,5-3.3,11.1-3.3,18.3v3.8l12.7-12.7Z"/>
        <path class="cls-2" d="M15.3,136.7v7.6c0,6,.7,11.2,2.2,15.6l10.5-10.5-12.7-12.7Z"/>
        <path class="cls-2" d="M107.1,29.8c-1.9-11-7.2-18.4-16.1-22l-3,3,19,19Z"/>
        <polygon class="cls-2" points="67.9 149.7 48.5 169.2 57.9 178.6 78 178.6 87.4 169.2 67.9 149.7"/>
        <path class="cls-2" d="M110.5,146.1c0-.6,0-1.2,0-1.9v-31.2l-2.9-2.9-19.4,19.4,19.4,19.4,2.9-2.9Z"/>
        <path class="cls-2" d="M115.2,78.2c.3,7.6,1.9,13.9,4.9,18.7l6.9-6.9-11.8-11.8Z"/>
        <path class="cls-2" d="M120.3,97.4c5.1,8.1,13.9,12.2,26.4,12.3l-19.3-19.3-7,7Z"/>
        <polygon class="cls-2" points="127 50.4 115.1 38.5 115.1 62.3 127 50.4"/>
        <path class="cls-2" d="M98.7,79.4l-10.6,10.6,19.4,19.4,2.9-2.9c-.3-12.9-4.3-21.9-11.8-27.1Z"/>
        <polygon class="cls-2" points="115.1 23.4 115.1 37.8 127.3 50 146.8 30.6 127.3 11.2 115.1 23.4"/>
        <path class="cls-2" d="M110.5,112.4v-4c0-.4,0-.8,0-1.2l-2.6,2.6,2.6,2.6Z"/>
        <polygon class="cls-2" points="115.1 22.7 127 10.8 124 7.8 115.1 7.8 115.1 22.7"/>
        <polygon class="cls-2" points="177.8 140.8 177.8 158 186.4 149.4 177.8 140.8"/>
        <polygon class="cls-2" points="15.3 44 15.3 56.8 28.3 69.8 47.8 50.4 28.3 31 15.3 44"/>
        <polygon class="cls-2" points="206.2 129.6 186.7 110.2 177.8 119.1 177.8 140.1 186.7 149 206.2 129.6"/>
        <polygon class="cls-2" points="210.3 14.2 210.3 7.8 209.9 7.8 206.9 10.8 210.3 14.2"/>
        <polygon class="cls-2" points="206.5 10.4 209.2 7.8 203.9 7.8 206.5 10.4"/>
        <polygon class="cls-2" points="28 70.2 15.3 57.5 15.3 82.9 28 70.2"/>
        <path class="cls-2" d="M28.3,149.7l-10.6,10.6c3.4,9.8,10.6,15.6,21.4,17.5l8.7-8.7-19.4-19.4Z"/>
        <path class="cls-2" d="M57.2,178.6l-9.1-9.1-8.5,8.5c2.4.4,5.1.6,7.9.6h9.6Z"/>
        <polygon class="cls-2" points="210.3 125.5 210.3 94.1 206.5 90.4 187.1 109.8 206.5 129.2 210.3 125.5"/>
        <polygon class="cls-2" points="210.3 173.3 206.5 169.5 200.1 176 210.3 176 210.3 173.3"/>
        <polygon class="cls-2" points="206.9 169.2 210.3 172.6 210.3 165.8 206.9 169.2"/>
        <polygon class="cls-2" points="206.9 129.6 210.3 133 210.3 126.2 206.9 129.6"/>
        <polygon class="cls-2" points="186.7 149.7 177.8 158.7 177.8 176 199.4 176 206.2 169.2 186.7 149.7"/>
        <path class="cls-2" d="M18.8,20.7l9.6,9.6,19.4-19.4-5.4-5.4c-11.6,1.1-19.5,6.2-23.6,15.3Z"/>
        <polygon class="cls-2" points="210.3 165.1 210.3 133.7 206.5 130 187.1 149.4 206.5 168.8 210.3 165.1"/>
        <path class="cls-2" d="M43.1,5.4l5.1,5.1,5.3-5.3h-5.9c-1.6,0-3.1,0-4.5.2Z"/>
        <path class="cls-2" d="M67.9,30.2l19.4-19.4-5.2-5.2c-2.1-.3-4.2-.4-6.5-.4h-21.5l-5.6,5.6,19.4,19.4Z"/>
        <polygon class="cls-2" points="15.3 97.1 15.3 122.5 28 109.8 15.3 97.1"/>
        <path class="cls-2" d="M28.7,30.6l19.1,19.1v-11c0-1.4.4-2.6,1.3-3.6,1-1,2.3-1.6,3.6-1.6h11.9l2.9-2.9-19.4-19.4-19.4,19.4Z"/>
        <polygon class="cls-2" points="186.4 109.8 166.9 90.4 147.6 109.7 177.8 109.7 177.8 118.4 186.4 109.8"/>
        <path class="cls-2" d="M67.6,149.4l-2.8-2.8h-12.1c-1.4,0-2.6-.5-3.6-1.6-.9-1-1.3-2.3-1.3-3.6v-11.1l-19.1,19.1,19.4,19.4,19.4-19.4Z"/>
        <polygon class="cls-2" points="15.3 83.6 15.3 96.4 28.3 109.4 47.8 90 28.3 70.6 15.3 83.6"/>
        <path class="cls-2" d="M28.7,70.2l19.4,19.4,15.5-15.5c-6.2.2-11.5,1.3-15.9,3.3v-26.4l-19.1,19.1Z"/>
        <path class="cls-2" d="M71.7,34c.5.3.9.6,1.3,1.1.3.3.6.7.8,1.1l13.9,13.9,19.4-19.4-19.4-19.4-19.4,19.4,3.4,3.4Z"/>
        <path class="cls-2" d="M65.4,33.5h4.3c.3,0,.6,0,.9,0l-2.7-2.7-2.6,2.6Z"/>
        <polygon class="cls-2" points="47.8 129.6 28.3 110.2 15.3 123.2 15.3 136 28.3 149 47.8 129.6"/>
        <polygon class="cls-2" points="177.8 7.8 177.8 21.3 186.7 30.2 206.2 10.8 203.2 7.8 177.8 7.8"/>
        <polygon class="cls-2" points="187.1 30.6 206.5 50 210.3 46.3 210.3 14.9 206.5 11.2 187.1 30.6"/>
        <path class="cls-2" d="M87.7,10.4l2.8-2.8c-2.3-.9-4.8-1.5-7.6-1.9l4.8,4.8Z"/>
        <polygon class="cls-2" points="210.3 86.6 206.9 90 210.3 93.4 210.3 86.6"/>
        <polygon class="cls-2" points="210.3 85.9 210.3 54.5 206.5 50.8 187.1 70.2 206.5 89.6 210.3 85.9"/>
        <rect class="cls-2" x="173" y="76.2" width="27.5" height="27.5" transform="translate(-8.9 158.4) rotate(-45)"/>
        <polygon class="cls-2" points="206.9 50.4 210.3 53.8 210.3 47 206.9 50.4"/>
      </g>
    </g>
  </g>
</svg>