<?xml version="1.0" encoding="UTF-8"?>
<svg xmlns="http://www.w3.org/2000/svg" version="1.1" viewBox="0 0 255 180">
  <defs>
    <style>
      .cls-1 {
        fill: none;
      }

      .cls-2 {
        fill: #c59f7b;
      }
    </style>
  </defs>
  <!-- Generator: Adobe Illustrator 28.7.1, SVG Export Plug-In . SVG Version: 1.2.0 Build 142)  -->
  <g>
    <g id="Layer_1">
      <rect class="cls-1" x=".5" width="254" height="180"/>
      <path class="cls-2" d="M242.4,8.6h5l-19.6,32.4h-5l19.6-32.4ZM225.1,25.1h-1.2c-4.1,0-6.2-2.2-6.2-6.6v-3.8c0-4.4,2.1-6.6,6.2-6.6h1.2c4.1,0,6.2,2.2,6.2,6.6v3.8c0,4.4-2.1,6.6-6.2,6.6ZM222.8,21c0,.3,0,.5.2.7.2.2.4.3.7.3h1.6c.3,0,.5-.1.6-.3.2-.2.3-.4.3-.7v-8.8c0-.3-.1-.5-.3-.7-.2-.2-.4-.3-.6-.3h-1.6c-.3,0-.5.1-.7.3-.2.2-.2.4-.2.7v8.8ZM246.1,24.5c4.1,0,6.2,2.2,6.2,6.6v3.8c0,4.4-2.1,6.6-6.2,6.6h-1.2c-4.1,0-6.2-2.2-6.2-6.6v-3.8c0-4.4,2.1-6.6,6.2-6.6h1.2ZM247.3,37.4v-8.8c0-.3-.1-.5-.3-.7-.2-.2-.4-.3-.7-.3h-1.5c-.3,0-.5.1-.7.3-.2.2-.2.4-.2.7v8.8c0,.3,0,.5.2.7.2.2.4.3.7.3h1.5c.3,0,.5-.1.7-.3.2-.2.3-.4.3-.7Z"/>
      <g>
        <polygon class="cls-2" points="82.3 90.9 81.7 90.4 62.3 109.8 75.6 123.1 82.3 90.9"/>
        <polygon class="cls-2" points="105.8 154 105.8 176 114.2 176 121 169.2 105.8 154"/>
        <polygon class="cls-2" points="62.3 70.2 81.7 89.6 82.8 88.6 89.1 58.1 81.7 50.8 62.3 70.2"/>
        <path class="cls-2" d="M105.4,26.4l15.6-15.6-2.1-2.1c-6.8,3.4-11.3,9.3-13.5,17.7Z"/>
        <path class="cls-2" d="M119.3,8.5l2,2,4.1-4.1c-2.2.5-4.2,1.2-6.1,2.1Z"/>
        <polygon class="cls-2" points="89.2 57.5 92.9 39.6 82.1 50.4 89.2 57.5"/>
        <path class="cls-2" d="M160.6,90l-8.9-8.9h-13.7c-2.9,0-5.5.2-8,.6l-8.3,8.3,19.4,19.4,19.4-19.4Z"/>
        <polygon class="cls-2" points="163.7 48 163.7 52.8 180.7 69.8 197.3 53.3 197.3 47.5 180.7 31 163.7 48"/>
        <path class="cls-2" d="M141.5,30.6l2.9,2.9h14.4c1.4,0,2.5.5,3.4,1.6,1,1,1.6,2.3,1.6,3.6v8.5l16.7-16.7-19.4-19.4-19.4,19.4Z"/>
        <path class="cls-2" d="M197.3,54l-16.2,16.2,15.8,15.8c.3-2.3.4-4.7.4-7.2v-24.7Z"/>
        <path class="cls-2" d="M194.7,95.5c1-2.7,1.7-5.6,2.1-8.9l-16.1-16.1-19.4,19.4,19.4,19.4,13.9-13.9Z"/>
        <path class="cls-2" d="M105.8,114.4c0,.3,0,.7,0,1v29.4l15.2-15.2-15.2-15.2Z"/>
        <path class="cls-2" d="M140.8,109.8l-19.4-19.4-14.7,14.7c-.5,2.7-.8,5.5-.9,8.6l15.6,15.6,19.4-19.4Z"/>
        <path class="cls-2" d="M105.2,27.3c-.4,1.8-.7,3.7-.9,5.7l17.1,17.1,19.4-19.4-19.4-19.4-16.1,16.1Z"/>
        <polygon class="cls-2" points="81.4 90 61.9 70.6 49.8 82.7 47.4 94.9 61.9 109.4 81.4 90"/>
        <polygon class="cls-2" points="53.8 62.4 50 81.8 61.6 70.2 53.8 62.4"/>
        <polygon class="cls-2" points="41.8 129.6 40.9 128.7 40.4 131 41.8 129.6"/>
        <path class="cls-2" d="M141.5,109.8l3.3,3.3h20.3c5.5,0,10.2-.7,14.3-2.2l1.1-1.1-19.4-19.4-19.4,19.4Z"/>
        <polygon class="cls-2" points="61.6 109.8 47.3 95.5 41 128.1 42.1 129.2 61.6 109.8"/>
        <path class="cls-2" d="M181.1,109.8l.2.2c5.9-2.7,10.2-7.1,12.8-13.3l-13.1,13.1Z"/>
        <path class="cls-2" d="M197.3,46.8v-7.3c0-8.5-1.5-15.3-4.4-20.7l-11.8,11.8,16.2,16.2Z"/>
        <path class="cls-2" d="M117.5,86.5c-5.5,3.8-9.1,9.7-10.7,17.7l14.2-14.2-3.5-3.5Z"/>
        <path class="cls-2" d="M165,5.2h-9.4l5.3,5.3,5.2-5.2c-.4,0-.8,0-1.2,0Z"/>
        <path class="cls-2" d="M180.4,70.2l-16.7-16.7v22.4c0,1.4-.5,2.6-1.6,3.6-.9,1-2,1.6-3.4,1.6h-6.4l8.5,8.5,19.4-19.4Z"/>
        <path class="cls-2" d="M121.7,50.4l1.6,1.6h15.2v-13.3c0-1.4.4-2.6,1.3-3.6,1-1,2.3-1.6,3.6-1.6h.3l-2.6-2.6-19.4,19.4Z"/>
        <path class="cls-2" d="M129.1,81.9c-4.3.8-8.1,2.3-11.2,4.4l3.4,3.4,7.8-7.8Z"/>
        <polygon class="cls-2" points="121.3 50.8 120.1 52 122.6 52 121.3 50.8"/>
        <polygon class="cls-2" points="82.4 90.3 82.6 89.5 82.1 90 82.4 90.3"/>
        <path class="cls-2" d="M104.2,33.6c-.2,1.9-.3,3.8-.3,5.9v12.5h15.5l1.6-1.6-16.8-16.8Z"/>
        <path class="cls-2" d="M126.4,6.1l-4.7,4.7,19.4,19.4,19.4-19.4-5.6-5.6h-18.8c-3.6,0-6.8.3-9.8,1Z"/>
        <polygon class="cls-2" points="17.7 35.6 27 35.6 22.3 31 17.7 35.6"/>
        <polygon class="cls-2" points="177.1 146.1 144.8 146.1 141.5 149.4 160.9 168.8 180.4 149.4 177.1 146.1"/>
        <polygon class="cls-2" points="160.9 169.5 154.5 176 167.4 176 160.9 169.5"/>
        <polygon class="cls-2" points="34.4 161.8 31.7 176 35 176 41.8 169.2 34.4 161.8"/>
        <polygon class="cls-2" points="42.1 169.5 35.7 176 48.6 176 42.1 169.5"/>
        <polygon class="cls-2" points="68.7 156.5 61.9 149.7 42.5 169.2 49.3 176 64.7 176 68.7 156.5"/>
        <polygon class="cls-2" points="183.7 146.1 177.8 146.1 180.7 149 183.7 146.1"/>
        <polygon class="cls-2" points="184.4 146.1 181.1 149.4 195.2 163.5 195.2 146.1 184.4 146.1"/>
        <polygon class="cls-2" points="195.2 164.2 180.7 149.7 161.3 169.2 168.1 176 193.4 176 195.2 174.2 195.2 164.2"/>
        <polygon class="cls-2" points="194.1 176 195.2 176 195.2 174.9 194.1 176"/>
        <polygon class="cls-2" points="42.1 10.4 44.8 7.8 39.5 7.8 42.1 10.4"/>
        <polygon class="cls-2" points="17 35.6 22 30.6 13.7 22.3 13.7 35.6 17 35.6"/>
        <polygon class="cls-2" points="13.7 21.6 22.3 30.2 41.8 10.8 38.8 7.8 13.7 7.8 13.7 21.6"/>
        <polygon class="cls-2" points="141.1 149.7 121.7 169.2 128.5 176 153.8 176 160.6 169.2 141.1 149.7"/>
        <polygon class="cls-2" points="57.3 35.6 59 35.6 53.9 61.8 61.9 69.8 81.4 50.4 61.9 31 57.3 35.6"/>
        <polygon class="cls-2" points="22.7 30.6 27.7 35.6 56.6 35.6 61.6 30.6 42.1 11.2 22.7 30.6"/>
        <polygon class="cls-2" points="72.4 138.6 75.5 123.7 61.9 110.2 42.5 129.6 61.9 149 72.4 138.6"/>
        <polygon class="cls-2" points="72.3 139.4 62.3 149.4 68.8 155.9 72.3 139.4"/>
        <polygon class="cls-2" points="81.7 50 93.1 38.7 95.9 25.3 81.7 11.2 62.3 30.6 81.7 50"/>
        <polygon class="cls-2" points="96 24.7 99.5 7.8 85.1 7.8 82.1 10.8 96 24.7"/>
        <polygon class="cls-2" points="81.7 10.4 84.4 7.8 79.1 7.8 81.7 10.4"/>
        <polygon class="cls-2" points="61.6 149.4 42.1 130 40.2 131.9 34.5 161.2 42.1 168.8 61.6 149.4"/>
        <path class="cls-2" d="M180.7,30.2l11.9-11.9c-4.8-8.4-13.4-12.8-25.7-13.2l-5.6,5.6,19.4,19.4Z"/>
        <path class="cls-2" d="M180.7,110.2l-.3.3c.1,0,.3-.1.4-.2h-.1Z"/>
        <polygon class="cls-2" points="121.3 169.5 114.9 176 127.8 176 121.3 169.5"/>
        <polygon class="cls-2" points="61.9 30.2 81.4 10.8 78.4 7.8 45.5 7.8 42.5 10.8 61.9 30.2"/>
        <path class="cls-2" d="M144.1,146.1h-5.1v-27.8c0-1.4.4-2.6,1.3-3.6,1-1,2.3-1.6,3.6-1.6h0l-2.9-2.9-19.4,19.4,19.4,19.4,2.9-2.9Z"/>
        <polygon class="cls-2" points="121.3 130 105.8 145.5 105.8 153.3 121.3 168.8 140.8 149.4 121.3 130"/>
      </g>
    </g>
  </g>
</svg>