<?xml version="1.0" encoding="UTF-8"?>
<svg xmlns="http://www.w3.org/2000/svg" version="1.1" viewBox="0 0 201 180">
  <defs>
    <style>
      .cls-1 {
        fill: none;
      }

      .cls-2 {
        fill: #c59f7b;
      }
    </style>
  </defs>
  <!-- Generator: Adobe Illustrator 28.7.1, SVG Export Plug-In . SVG Version: 1.2.0 Build 142)  -->
  <g>
    <g id="Layer_1">
      <rect class="cls-1" x=".5" width="200" height="180"/>
      <path class="cls-2" d="M188.4,8.6h5l-19.6,32.4h-5l19.6-32.4ZM171.1,25.1h-1.2c-4.1,0-6.2-2.2-6.2-6.6v-3.8c0-4.4,2.1-6.6,6.2-6.6h1.2c4.1,0,6.2,2.2,6.2,6.6v3.8c0,4.4-2.1,6.6-6.2,6.6ZM168.8,21c0,.3,0,.5.2.7.2.2.4.3.7.3h1.6c.3,0,.5-.1.6-.3.2-.2.3-.4.3-.7v-8.8c0-.3-.1-.5-.3-.7-.2-.2-.4-.3-.6-.3h-1.6c-.3,0-.5.1-.7.3-.2.2-.2.4-.2.7v8.8ZM192.1,24.5c4.1,0,6.2,2.2,6.2,6.6v3.8c0,4.4-2.1,6.6-6.2,6.6h-1.2c-4.1,0-6.2-2.2-6.2-6.6v-3.8c0-4.4,2.1-6.6,6.2-6.6h1.2ZM193.3,37.4v-8.8c0-.3-.1-.5-.3-.7-.2-.2-.4-.3-.7-.3h-1.5c-.3,0-.5.1-.7.3-.2.2-.2.4-.2.7v8.8c0,.3,0,.5.2.7.2.2.4.3.7.3h1.5c.3,0,.5-.1.7-.3.2-.2.3-.4.3-.7Z"/>
      <g>
        <polygon class="cls-2" points="129.7 7.8 125.1 7.8 127.4 10.1 129.7 7.8"/>
        <polygon class="cls-2" points="127.1 10.4 124.4 7.8 90.9 7.8 88.2 10.4 107.6 29.9 127.1 10.4"/>
        <polygon class="cls-2" points="52.1 86.1 48.6 89.6 52.1 93.1 52.1 86.1"/>
        <polygon class="cls-2" points="140.5 36.6 142.7 26 127.4 10.8 108 30.2 127.4 49.7 140.5 36.6"/>
        <polygon class="cls-2" points="87.8 10.8 68.4 30.2 73.8 35.6 101.9 35.6 107.3 30.2 87.8 10.8"/>
        <polygon class="cls-2" points="47.9 89.6 28.5 70.2 16.8 81.9 16.8 97.4 28.5 109.1 47.9 89.6"/>
        <polygon class="cls-2" points="142.8 25.4 146.5 7.8 130.5 7.8 127.8 10.4 142.8 25.4"/>
        <polygon class="cls-2" points="28.1 30.2 16.8 18.9 16.8 41.6 28.1 30.2"/>
        <polygon class="cls-2" points="48.3 10.1 50.3 8 46.2 8 48.3 10.1"/>
        <polygon class="cls-2" points="16.8 18.2 28.5 29.9 47.9 10.4 45.5 8 16.8 8 16.8 18.2"/>
        <polygon class="cls-2" points="28.8 30.2 48.3 49.7 52.1 45.8 52.1 14.7 48.3 10.8 28.8 30.2"/>
        <polygon class="cls-2" points="87.8 10.1 90.1 7.8 85.6 7.8 87.8 10.1"/>
        <polygon class="cls-2" points="47.9 50 28.5 30.6 16.8 42.3 16.8 57.8 28.5 69.5 47.9 50"/>
        <polygon class="cls-2" points="52.1 125 52.1 93.9 48.3 90 28.8 109.4 48.3 128.9 52.1 125"/>
        <polygon class="cls-2" points="52.1 85.4 52.1 54.3 48.3 50.4 28.8 69.8 48.3 89.3 52.1 85.4"/>
        <polygon class="cls-2" points="47.9 168.8 28.5 149.4 16.8 161.1 16.8 176.3 40.5 176.3 47.9 168.8"/>
        <polygon class="cls-2" points="16.8 58.5 16.8 81.2 28.1 69.8 16.8 58.5"/>
        <polygon class="cls-2" points="60.7 23.2 60.7 35.6 62.3 35.6 67.7 30.2 60.7 23.2"/>
        <polygon class="cls-2" points="52.1 13.9 52.1 8 51 8 48.6 10.4 52.1 13.9"/>
        <polygon class="cls-2" points="52.1 53.5 52.1 46.5 48.6 50 52.1 53.5"/>
        <polygon class="cls-2" points="63 35.6 73.1 35.6 68 30.6 63 35.6"/>
        <polygon class="cls-2" points="60.7 22.5 68 29.9 87.5 10.4 84.8 7.8 60.7 7.8 60.7 22.5"/>
        <polygon class="cls-2" points="52.1 173 48.3 169.2 41.2 176.3 52.1 176.3 52.1 173"/>
        <polygon class="cls-2" points="81.2 162.6 78.6 176 80.3 176 87.5 168.8 81.2 162.6"/>
        <polygon class="cls-2" points="28.1 149 16.8 137.7 16.8 160.4 28.1 149"/>
        <polygon class="cls-2" points="127.8 89.6 129.2 91 130 87.5 127.8 89.6"/>
        <polygon class="cls-2" points="87.8 169.2 81 176 94.7 176 87.8 169.2"/>
        <polygon class="cls-2" points="129.1 91.6 127.4 90 108 109.4 122.4 123.9 129.1 91.6"/>
        <polygon class="cls-2" points="108 149 115.6 156.7 119.6 137.4 108 149"/>
        <polygon class="cls-2" points="87.8 129.6 87.6 129.8 81.3 162 87.8 168.5 107.3 149 87.8 129.6"/>
        <polygon class="cls-2" points="115.5 157.2 107.6 149.4 88.2 168.8 95.4 176 111.6 176 115.5 157.2"/>
        <polygon class="cls-2" points="119.8 136.5 122.3 124.4 107.6 109.8 88.2 129.2 107.6 148.7 119.8 136.5"/>
        <polygon class="cls-2" points="127.1 89.6 107.6 70.2 97.1 80.7 94.2 95.7 107.6 109.1 127.1 89.6"/>
        <polygon class="cls-2" points="16.8 98.1 16.8 120.8 28.1 109.4 16.8 98.1"/>
        <polygon class="cls-2" points="127.8 50 136 58.2 140.3 37.5 127.8 50"/>
        <polygon class="cls-2" points="130.1 86.6 135.9 58.8 127.4 50.4 108 69.8 127.4 89.3 130.1 86.6"/>
        <polygon class="cls-2" points="52.1 125.7 48.6 129.2 52.1 132.7 52.1 125.7"/>
        <polygon class="cls-2" points="127.1 50 107.6 30.6 102.6 35.6 105.9 35.6 100.7 62.5 107.6 69.5 127.1 50"/>
        <polygon class="cls-2" points="100.6 63.1 97.3 79.8 107.3 69.8 100.6 63.1"/>
        <polygon class="cls-2" points="52.1 165.3 48.6 168.8 52.1 172.3 52.1 165.3"/>
        <polygon class="cls-2" points="107.3 109.4 94.1 96.2 87.8 128.8 87.8 128.9 107.3 109.4"/>
        <polygon class="cls-2" points="52.1 164.6 52.1 133.5 48.3 129.6 28.8 149 48.3 168.5 52.1 164.6"/>
        <polygon class="cls-2" points="47.9 129.2 28.5 109.8 16.8 121.5 16.8 137 28.5 148.7 47.9 129.2"/>
      </g>
    </g>
  </g>
</svg>