<?xml version="1.0" encoding="UTF-8"?>
<svg id="Layer_2" xmlns="http://www.w3.org/2000/svg" viewBox="0 0 311.81 311.81">
  <defs>
    <style>
      .cls-1 {
        fill: none;
      }

      .cls-2 {
        fill: #231f20;
      }

      .cls-3 {
        fill: #fff;
      }

      .cls-4 {
        fill: #ec1e26;
      }
    </style>
  </defs>
  <g id="Layer_1-2" data-name="Layer_1">
    <path class="cls-3" d="M262.76,88.37c-.28-.47-.64-.88-1.07-1.21-11.04-23.81-38.99-51.14-82.33-51.14-37.48.01-71.88,24.93-84.33,60.83-20.11,2.43-52.48-4.05-53.94-4.35-.32-.1-.84-.24-1.44-.32-.33-.05-.66-.08-.98-.08-2.65-.1-7.5.34-10.26,4.29-2.15,3.09-2.21,7.23-.16,12.31.21.51.13,1.04-.18,1.3-5.08,4.21-6.23,9.56-3.05,14.31.36.54.31,1.04.21,1.19-4.76,6.97,2.01,13.41,4.21,15.22.75.61,1.59,1.11,2.5,1.47,12.53,5.04,32.83,6.83,46.42,6.83,3.87,0,10.23-.15,14.88-.98,3.92,14.75,11.61,28.27,22.34,39.27,3.44,4.16,7.32,8.03,11.57,11.53l-13.8,56.6c-6.13,5.57-8.76,10.26-7.82,13.95.35,1.39,1.53,3.83,5.42,4.65l.23.05,33.18,1.54,11.55.14c.86.05,5.07.13,8.57-3.1,2.75-2.53,4.22-6.35,4.26-11.06l5.18-43.7c4.94.43,9.55.43,14.48,0l5.17,43.56c.05,4.86,1.48,8.63,4.27,11.19,3.05,2.81,6.65,3.11,8.06,3.11.17,0,.32,0,.45-.01l11.56-.15,33.21-1.56.49-.06c2.7-.58,4.59-2.27,5.2-4.61.94-3.69-1.68-8.37-7.78-13.92l-7.47-33.24c4.69,2.29,9.62.6,10.72.16,2.92-.69,6.11.49,7.37,1.04,2.28.99,4.73,1.51,7.09,1.51h.28c4.32-.08,8.1-1.48,11.21-4.16,2.35-2.02,4.16-4.79,5.24-8.02,18.62-55.94-20.28-123.61-20.74-124.4Z"/>
    <g>
      <path class="cls-2" d="M78.37,146.02c-14.4,0-33.71-1.95-45.3-6.61-.64-.26-1.22-.6-1.72-1.01-6.28-5.19-4.97-9.25-3.64-11.21.86-1.26.78-3.09-.19-4.55-2.3-3.45-1.42-7.12,2.47-10.34,1.33-1.1,1.75-3,1.05-4.73-1.65-4.07-1.7-7.26-.16-9.47,1.92-2.76,5.62-3.08,7.69-3.01.22,0,.44.02.65.06.55.07.96.2,1.09.25.31.08,36.94,7.54,57.62,4.08.67-.12,1.31.34,1.42,1.01s-.34,1.31-1.01,1.42c-21.49,3.59-58.48-4.06-58.76-4.16-.1-.03-.35-.11-.69-.16-.14-.02-.26-.03-.39-.03-1.25-.06-4.29.08-5.6,1.95-1.02,1.46-.87,3.93.43,7.14,1.1,2.73.39,5.77-1.77,7.55-4.32,3.58-2.57,6.21-1.99,7.08,1.55,2.33,1.62,5.2.18,7.31-1.54,2.25-.47,4.91,3.17,7.92.31.26.67.47,1.07.63,19.23,7.74,57.11,7.05,61.05,4.85.13-.41.46-.74.91-.84.67-.16,1.33.26,1.47.93.14.62-.08,1.23-.62,1.68-1.71,1.45-9.03,2.28-18.43,2.28Z"/>
      <circle class="cls-4" cx="181.19" cy="133.21" r="82.04"/>
      <path d="M266.63,130.27c-.3,0-.6-.11-.84-.33l-3.37-3.16-3.68,2.95c-.52.42-1.3.34-1.73-.19-.42-.53-.34-1.31.19-1.73l4.51-3.61c.48-.38,1.17-.35,1.61.06l4.15,3.89c.5.47.52,1.25.06,1.74-.24.26-.57.39-.9.39Z"/>
      <path d="M266.23,144.68c-.39,0-.77-.18-1.01-.52l-2.66-3.78-4.2,2.14c-.6.31-1.35.07-1.66-.54s-.07-1.35.54-1.66l5.15-2.63c.55-.28,1.21-.12,1.57.39l3.28,4.65c.39.56.26,1.33-.3,1.72-.22.15-.46.22-.71.22Z"/>
      <path d="M263.43,157.4c-.47,0-.93-.27-1.13-.74l-1.86-4.23-4.54,1.26c-.67.18-1.34-.2-1.52-.86-.18-.65.2-1.33.86-1.52l5.57-1.55c.59-.17,1.21.13,1.46.69l2.29,5.21c.27.62,0,1.35-.63,1.63-.16.07-.33.1-.5.1Z"/>
      <path d="M258.84,169.37c-.53,0-1.02-.35-1.18-.88l-1.32-4.43-4.66.69c-.67.1-1.3-.36-1.4-1.04-.1-.67.36-1.3,1.04-1.4l5.72-.85c.59-.1,1.18.28,1.36.87l1.62,5.46c.19.65-.18,1.34-.83,1.53-.12.03-.24.05-.35.05Z"/>
      <path d="M205.93,272.8c-.93,0-3.71-.2-6.02-2.32-2.18-2.01-3.29-5.09-3.3-9.18l-6.11-51.44c-.08-.67.4-1.29,1.08-1.37.66-.09,1.29.4,1.37,1.08l6.12,51.58c.02,3.49.85,5.97,2.49,7.49,1.98,1.84,4.56,1.71,4.59,1.69l11.69-.15,32.86-1.53c.43-.11.78-.32.85-.6.4-1.57-3.36-6.12-7.13-9.38-.2-.17-.34-.4-.4-.66l-14.34-63.85c-.15-.66.27-1.32.93-1.47.68-.14,1.32.27,1.47.93l14.25,63.45c2.38,2.1,8.53,7.94,7.59,11.59-.22.87-.91,1.99-2.92,2.42l-33.11,1.56-11.66.15s-.12,0-.31,0Z"/>
      <path d="M156.42,272.79c-.21,0-.34,0-.37-.01l-11.53-.14-32.95-1.53c-2.22-.46-2.91-1.58-3.13-2.45-.93-3.65,5.23-9.5,7.6-11.59l15.01-61.57c.16-.66.84-1.07,1.49-.91.66.16,1.07.83.91,1.49l-15.1,61.95c-.06.25-.2.47-.39.64-3.77,3.26-7.53,7.81-7.12,9.38.07.28.43.49,1.05.63l32.7,1.5,11.57.14c.11,0,2.68.16,4.66-1.68,1.63-1.52,2.47-3.99,2.48-7.35l6.09-51.4c.08-.68.72-1.18,1.37-1.08.68.08,1.16.69,1.08,1.37l-6.08,51.26c0,3.94-1.11,7.03-3.29,9.04-2.3,2.11-5.07,2.32-6.05,2.32Z"/>
      <path class="cls-2" d="M266.77,221.94c-1.95,0-3.99-.44-5.9-1.26-1.95-.85-5.78-2.13-9.52-1.14,0,.02-4.49,1.97-8.5-.03-2.54-1.26-4.26-3.76-5.12-7.42-.34-1.44-.43-3.04-.27-4.75.56-6.06,3.07-36.95-2.17-49.24-.27-.63.02-1.35.65-1.62.63-.27,1.35.02,1.62.65,5.34,12.52,3.16,41.77,2.36,50.44-.13,1.44-.06,2.77.22,3.96.68,2.91,1.96,4.85,3.81,5.77,2.97,1.48,6.57-.06,6.6-.08,4.63-1.25,9.07.22,11.31,1.2,1.66.72,3.41,1.1,5.1,1.06,3.01-.05,5.62-1,7.74-2.83,1.6-1.38,2.85-3.32,3.61-5.6,17.81-53.52-19.89-119.26-20.27-119.92-.34-.59-.14-1.34.44-1.69.59-.35,1.34-.15,1.69.44.39.67,38.65,67.35,20.49,121.94-.9,2.71-2.41,5.02-4.35,6.69-2.57,2.21-5.71,3.37-9.31,3.43-.08,0-.15,0-.23,0Z"/>
      <path class="cls-2" d="M179.37,211.27c-47.49,0-86.13-38.64-86.13-86.13s39.44-86.11,86.13-86.13h.04c47.32,0,79.13,34.18,85.04,66.35.12.67-.32,1.31-.99,1.43-.67.11-1.31-.32-1.43-.99-5.73-31.19-36.63-64.33-82.61-64.33h-.04c-45.35.02-83.66,38.33-83.66,83.66s37.53,83.66,83.66,83.66c16.32,0,41.7-6.21,59.56-23.7.49-.47,1.27-.47,1.74.02s.47,1.27-.02,1.74c-18.39,18.01-44.51,24.41-61.29,24.41Z"/>
      <g>
        <path class="cls-3" d="M194.05,123.93c.53-1.21-.36-2.56-1.68-2.56h-10.35s-.15,0-.15,0h-10.35c-1.32,0-2.2,1.35-1.68,2.56,1.25,2.86,4.39,7.1,12.03,7.16h0s.05,0,.08,0c.03,0,.05,0,.08,0h0c7.64-.07,10.78-4.3,12.03-7.16Z"/>
        <rect class="cls-3" x="169.36" y="107.11" width="14.21" height="6.14" rx="3.07" ry="3.07" transform="translate(66.29 286.64) rotate(-90)"/>
        <rect class="cls-3" x="180.32" y="107.11" width="14.21" height="6.14" rx="3.07" ry="3.07" transform="translate(77.24 297.6) rotate(-90)"/>
      </g>
    </g>
    <rect class="cls-1" width="311.81" height="311.81"/>
  </g>
</svg>