<?xml version="1.0" encoding="UTF-8"?>
<svg xmlns="http://www.w3.org/2000/svg" version="1.1" viewBox="0 0 163 180">
  <defs>
    <style>
      .cls-1 {
        fill: none;
      }

      .cls-2 {
        fill: #c59f7b;
      }
    </style>
  </defs>
  <!-- Generator: Adobe Illustrator 28.7.1, SVG Export Plug-In . SVG Version: 1.2.0 Build 142)  -->
  <g>
    <g id="Layer_1">
      <rect class="cls-1" x=".5" width="162" height="180"/>
      <path class="cls-2" d="M150.4,8.6h5l-19.6,32.4h-5l19.6-32.4ZM133.1,25.1h-1.2c-4.1,0-6.2-2.2-6.2-6.6v-3.8c0-4.4,2.1-6.6,6.2-6.6h1.2c4.1,0,6.2,2.2,6.2,6.6v3.8c0,4.4-2.1,6.6-6.2,6.6ZM130.8,21c0,.3,0,.5.2.7.2.2.4.3.7.3h1.6c.3,0,.5-.1.6-.3.2-.2.3-.4.3-.7v-8.8c0-.3-.1-.5-.3-.7-.2-.2-.4-.3-.6-.3h-1.6c-.3,0-.5.1-.7.3-.2.2-.2.4-.2.7v8.8ZM154.1,24.5c4.1,0,6.2,2.2,6.2,6.6v3.8c0,4.4-2.1,6.6-6.2,6.6h-1.2c-4.1,0-6.2-2.2-6.2-6.6v-3.8c0-4.4,2.1-6.6,6.2-6.6h1.2ZM155.3,37.4v-8.8c0-.3-.1-.5-.3-.7-.2-.2-.4-.3-.7-.3h-1.5c-.3,0-.5.1-.7.3-.2.2-.2.4-.2.7v8.8c0,.3,0,.5.2.7.2.2.4.3.7.3h1.5c.3,0,.5-.1.7-.3.2-.2.3-.4.3-.7Z"/>
      <g>
        <polygon class="cls-2" points="36.2 55 35.8 55.4 36.5 55.4 36.2 55"/>
        <polygon class="cls-2" points="46.9 44.3 36.5 54.7 37.2 55.4 46.9 55.4 46.9 44.3"/>
        <path class="cls-2" d="M16,34.9l-1.4-1.4c0,1-.2,1.9-.2,3l1.6-1.6Z"/>
        <polygon class="cls-2" points="44 76.7 44 86.1 53.4 76.7 44 76.7"/>
        <path class="cls-2" d="M14.7,32.9l1.7,1.7,19.4-19.4-6.4-6.4c-8.5,4.2-13.4,12.3-14.7,24.2Z"/>
        <polygon class="cls-2" points="74.2 53.4 74.2 55.9 75.4 54.7 74.2 53.4"/>
        <path class="cls-2" d="M66.2,5.2l9.5,9.5,8.5-8.5c-3.1-.7-6.4-1-10.1-1h-7.9Z"/>
        <path class="cls-2" d="M29.9,8.4l6.3,6.3,9.5-9.5c-6.2,0-11.5,1.2-15.8,3.2Z"/>
        <path class="cls-2" d="M95.2,34.9l-19.4-19.4-18.1,18.1h11.5c1.4,0,2.5.5,3.4,1.6,1,1,1.6,2.3,1.6,3.6v14l1.6,1.6,19.4-19.4Z"/>
        <path class="cls-2" d="M13.1,150.8c.2,1.7.4,3.4.8,5l2.1-2.1-2.9-2.9Z"/>
        <path class="cls-2" d="M84.9,6.3l-8.7,8.7,19.4,19.4,9.1-9.1c-2.9-10.3-9.5-16.7-19.8-19.1Z"/>
        <polygon class="cls-2" points="45.3 142.7 45.3 130.5 39.9 130.5 36.5 133.9 45.3 142.7"/>
        <path class="cls-2" d="M106.4,45.4v-5.9c0-5.1-.5-9.6-1.6-13.5l-8.9,8.9,10.5,10.5Z"/>
        <path class="cls-2" d="M95.9,153.7l8.8,8.8c2.1-4.9,3.2-11,3.2-18.2v-2.7l-12,12Z"/>
        <polygon class="cls-2" points="44 104.8 46.3 104.8 44 102.5 44 104.8"/>
        <path class="cls-2" d="M16.7,34.9l19.4,19.4,10.7-10.7v-4.9c0-1.4.4-2.6,1.3-3.6,1-1,2.3-1.6,3.6-1.6h2.5l-18.1-18.1-19.4,19.4Z"/>
        <path class="cls-2" d="M55,33.5h2l18.4-18.4-9.9-9.9h-18.9c0,0-.1,0-.2,0l-9.9,9.9,18.4,18.4Z"/>
        <path class="cls-2" d="M14.4,37.2c0,.8,0,1.5,0,2.3v15.9h20.8l.7-.7-19.4-19.4-2,2Z"/>
        <path class="cls-2" d="M104.5,163l-9-9-19.4,19.4,4.9,4.9c11.6-1.2,19.4-6.3,23.5-15.3Z"/>
        <path class="cls-2" d="M35.8,133.9l-3.4-3.4H12.8v13.8c0,2,0,3.9.3,5.7l3.3,3.3,19.4-19.4Z"/>
        <path class="cls-2" d="M56,154l-19.4,19.4,5,5c1.1,0,2.3.1,3.5.1h25.2l5.1-5.1-19.4-19.4Z"/>
        <path class="cls-2" d="M105.7,103.6c-2-5.9-5.3-10.4-9.9-13.7,2.8-2.1,5.1-4.8,6.8-8.2l-6.9-6.9-19.4,19.4,19.4,19.4,10.1-10.1Z"/>
        <path class="cls-2" d="M75.8,133.5l19.4-19.4-19.4-19.4-10.1,10.1h5.1c1.4,0,2.5.5,3.4,1.6,1,1,1.6,2.3,1.6,3.6v23.5h0Z"/>
        <polygon class="cls-2" points="108 140.9 108 126.8 95.6 114.4 76.1 133.9 95.6 153.3 108 140.9"/>
        <path class="cls-2" d="M75.8,173.8l-4.8,4.8h4.7c1.6,0,3.1,0,4.6-.2l-4.6-4.6Z"/>
        <path class="cls-2" d="M105.8,104.2l-9.9,9.9,12,12v-6.8c0-5.8-.7-10.8-2.1-15.2Z"/>
        <polygon class="cls-2" points="58.2 151 53.7 151 56 153.3 58.2 151"/>
        <path class="cls-2" d="M95.2,153.7l-19.4-19.4h0v11.6c0,1.4-.5,2.6-1.6,3.6-.9,1-2,1.6-3.4,1.6h-11.8l-2.6,2.6,19.4,19.4,19.4-19.4Z"/>
        <polygon class="cls-2" points="57.8 76.7 54.1 76.7 44 86.8 44 101.8 47 104.8 64.9 104.8 75.4 94.3 57.8 76.7"/>
        <path class="cls-2" d="M106.4,63.3c0-.5,0-1,0-1.5v-15.8l-10.8-10.8-19.4,19.4,19.4,19.4,10.8-10.8Z"/>
        <path class="cls-2" d="M95.2,74.5l-19.4-19.4-1.6,1.6v14.8c0,1.4-.5,2.6-1.6,3.6-.9,1-2,1.6-3.4,1.6h-10.7l17.2,17.2,19.4-19.4Z"/>
        <polygon class="cls-2" points="39.2 130.5 33.1 130.5 36.2 133.5 39.2 130.5"/>
        <path class="cls-2" d="M53,151h-2.7c-1.4,0-2.6-.5-3.6-1.6-.9-1-1.3-2.3-1.3-3.6v-2.5l-9.1-9.1-19.4,19.4,19.4,19.4,19.4-19.4-2.6-2.6Z"/>
        <path class="cls-2" d="M36.2,173.8l-3.2,3.2c2.4.7,5,1.1,7.9,1.4l-4.6-4.6Z"/>
        <path class="cls-2" d="M16.4,154l-2.3,2.3c2.4,10.8,8.6,17.6,18.3,20.6l3.4-3.4-19.4-19.4Z"/>
        <path class="cls-2" d="M106.4,64l-10.4,10.4,6.8,6.8c2.2-4.6,3.4-10.3,3.6-17.3Z"/>
      </g>
    </g>
  </g>
</svg>