<?xml version="1.0" encoding="UTF-8"?>
<svg xmlns="http://www.w3.org/2000/svg" version="1.1" viewBox="0 0 263 180">
  <defs>
    <style>
      .cls-1 {
        fill: none;
      }

      .cls-2 {
        fill: #c59f7b;
      }
    </style>
  </defs>
  <!-- Generator: Adobe Illustrator 28.7.1, SVG Export Plug-In . SVG Version: 1.2.0 Build 142)  -->
  <g>
    <g id="Layer_1">
      <rect class="cls-1" width="263" height="180"/>
      <path class="cls-2" d="M250.9,8.6h5l-19.6,32.4h-5l19.6-32.4ZM233.6,25.1h-1.2c-4.1,0-6.2-2.2-6.2-6.6v-3.8c0-4.4,2.1-6.6,6.2-6.6h1.2c4.1,0,6.2,2.2,6.2,6.6v3.8c0,4.4-2.1,6.6-6.2,6.6ZM231.3,21c0,.3,0,.5.2.7.2.2.4.3.7.3h1.6c.3,0,.5-.1.6-.3.2-.2.3-.4.3-.7v-8.8c0-.3-.1-.5-.3-.7-.2-.2-.4-.3-.6-.3h-1.6c-.3,0-.5.1-.7.3-.2.2-.2.4-.2.7v8.8ZM254.6,24.5c4.1,0,6.2,2.2,6.2,6.6v3.8c0,4.4-2.1,6.6-6.2,6.6h-1.2c-4.1,0-6.2-2.2-6.2-6.6v-3.8c0-4.4,2.1-6.6,6.2-6.6h1.2ZM255.8,37.4v-8.8c0-.3-.1-.5-.3-.7-.2-.2-.4-.3-.7-.3h-1.5c-.3,0-.5.1-.7.3-.2.2-.2.4-.2.7v8.8c0,.3,0,.5.2.7.2.2.4.3.7.3h1.5c.3,0,.5-.1.7-.3.2-.2.3-.4.3-.7Z"/>
      <g>
        <path class="cls-2" d="M144,71v-1.6l-18.6-18.6-13.6,13.6v11c0,.2,0,.4,0,.7l13.6,13.6,18.6-18.6Z"/>
        <path class="cls-2" d="M61.3,104.8h8.8c.2,0,.3,0,.5,0l14.8-14.8-14.2-14.2c-.7.6-1.6.9-2.7.9h-8.7l-13.3,13.3,14.8,14.8Z"/>
        <path class="cls-2" d="M73.5,38.7v23.6l11.9-11.9-11.9-11.9c0,0,0,.2,0,.3Z"/>
        <polygon class="cls-2" points="125.3 10.4 128 7.8 122.7 7.8 125.3 10.4"/>
        <polygon class="cls-2" points="43.3 86.8 46.1 89.6 59.1 76.7 43.3 76.7 43.3 86.8"/>
        <polygon class="cls-2" points="111.7 24.1 125 10.8 122 7.8 111.7 7.8 111.7 24.1"/>
        <path class="cls-2" d="M105.3,69.6c.3-2.4.4-5,.4-7.7v-22.4c0-2.9-.2-5.6-.5-8.2l-19.1,19.1,19.2,19.2Z"/>
        <path class="cls-2" d="M73.5,63v8.5c0,1.4-.5,2.6-1.6,3.6-.1.1-.2.2-.4.3l14.2,14.2,19.4-19.4h0s-19.4-19.5-19.4-19.5l-12.3,12.3Z"/>
        <path class="cls-2" d="M184.4,70.2l-10-10v13.6c0,1.4-.5,2.6-1.6,3.6-.9,1-2,1.6-3.4,1.6h-15.1l10.6,10.6,19.4-19.4Z"/>
        <polygon class="cls-2" points="45.8 90 43.3 87.5 43.3 92.5 45.8 90"/>
        <path class="cls-2" d="M153.6,79h-4.7c-1.4,0-2.6-.5-3.6-1.6-.9-1-1.3-2.3-1.3-3.6v-2.1l-18.3,18.3,19.4,19.4,19.4-19.4-11-11Z"/>
        <path class="cls-2" d="M117.5,98.2c5.2,7.7,14.1,11.5,26.5,11.5h.7l-19.3-19.3-7.9,7.9Z"/>
        <path class="cls-2" d="M105.2,149.4l-19.4-19.4-10.7,10.7v5.2c0,1.4-.5,2.6-1.6,3.6-.9,1-2,1.6-3.4,1.6h-2.2l17.8,17.8,19.4-19.4Z"/>
        <path class="cls-2" d="M91.6,175.4l-5.9-5.9-9,9c5.8-.2,10.8-1.2,14.9-3.1Z"/>
        <path class="cls-2" d="M106.9,151.1l-1.4-1.4-19.4,19.4,6,6c8.6-4.2,13.5-12.2,14.8-24.1Z"/>
        <path class="cls-2" d="M105.9,149.4l1.1,1.1c0-.8.1-1.6.2-2.4l-1.3,1.3Z"/>
        <polygon class="cls-2" points="46.1 90.4 43.3 93.2 43.3 104.8 60.6 104.8 46.1 90.4"/>
        <polygon class="cls-2" points="75 119.2 75 140 85.4 129.6 75 119.2"/>
        <path class="cls-2" d="M12.1,135.5v8.8c0,6.4.8,11.9,2.5,16.5l11.4-11.4-13.9-13.9Z"/>
        <polygon class="cls-2" points="204.5 10.4 206.9 8.1 206.9 7.8 201.9 7.8 204.5 10.4"/>
        <path class="cls-2" d="M26,30.6l-9.2-9.2c-2.1,4.9-3.1,10.9-3.1,18.1v3.4l12.3-12.3Z"/>
        <path class="cls-2" d="M67.2,151h-2.6l-18.2,18.2,9.4,9.4h19.1c.3,0,.6,0,1,0l9.4-9.4-18.2-18.2Z"/>
        <path class="cls-2" d="M105.2,109.8l-19.4-19.4-14.5,14.5c.9.2,1.7.7,2.3,1.4,1,1,1.6,2.3,1.6,3.6v8.6l10.7,10.7,19.4-19.4Z"/>
        <path class="cls-2" d="M105.9,109.8l.7.7c0-.4-.1-.9-.2-1.3l-.5.5Z"/>
        <polygon class="cls-2" points="111.7 24.8 111.7 36.4 125.3 50 144 31.4 144 29.8 125.3 11.2 111.7 24.8"/>
        <polygon class="cls-2" points="144 29.1 144 7.8 128.7 7.8 125.7 10.8 144 29.1"/>
        <path class="cls-2" d="M107.2,147.4c0-1,0-2,0-3.1v-25c0-2.8-.2-5.5-.5-8l-1.2-1.2-19.4,19.4,19.4,19.4,1.7-1.7Z"/>
        <polygon class="cls-2" points="125 50.4 111.7 37.1 111.7 63.7 125 50.4"/>
        <polygon class="cls-2" points="144 68.7 144 32.1 125.7 50.4 144 68.7"/>
        <path class="cls-2" d="M111.8,76.8c.2,8.8,2,15.8,5.4,21l7.8-7.8-13.2-13.2Z"/>
        <path class="cls-2" d="M95.1,89.9c5.4-3.9,8.7-10.2,10-18.9l-19,19,19.4,19.4.8-.8c-1.6-8.4-5.4-14.6-11.3-18.7Z"/>
        <path class="cls-2" d="M55.2,178.6l-9.1-9.1-8.6,8.6c2.1.3,4.4.4,6.8.4h10.8Z"/>
        <polygon class="cls-2" points="204.2 129.6 184.7 110.2 174.4 120.5 174.4 138.7 184.7 149 204.2 129.6"/>
        <polygon class="cls-2" points="174.4 139.4 174.4 159.4 184.4 149.4 174.4 139.4"/>
        <polygon class="cls-2" points="206.9 126.9 206.9 92.7 204.5 90.4 185.1 109.8 204.5 129.2 206.9 126.9"/>
        <path class="cls-2" d="M26.3,149.7l-11.5,11.5c3.7,9.5,11,15.2,22.1,16.8l8.9-8.9-19.4-19.4Z"/>
        <path class="cls-2" d="M26.7,30.6l19.4,19.4h0v-11.3c0-1.4.4-2.6,1.3-3.6,1-1,2.3-1.6,3.6-1.6h11.6l2.9-2.9-19.4-19.4-19.4,19.4Z"/>
        <polygon class="cls-2" points="206.9 12.8 206.9 8.8 204.9 10.8 206.9 12.8"/>
        <path class="cls-2" d="M65.9,30.2l19.4-19.4-5.2-5.2c-2.1-.3-4.3-.4-6.7-.4h-21.4l-5.6,5.6,19.4,19.4Z"/>
        <polygon class="cls-2" points="13.7 43.6 13.7 55.4 40.8 55.4 45.8 50.4 26.3 31 13.7 43.6"/>
        <polygon class="cls-2" points="206.9 171.9 204.5 169.5 198.1 176 206.9 176 206.9 171.9"/>
        <polygon class="cls-2" points="204.9 169.2 206.9 171.2 206.9 167.2 204.9 169.2"/>
        <polygon class="cls-2" points="204.9 129.6 206.9 131.6 206.9 127.6 204.9 129.6"/>
        <path class="cls-2" d="M17,20.9l9.3,9.3,19.4-19.4-5.3-5.3c-11.5,1.2-19.3,6.4-23.4,15.5Z"/>
        <polygon class="cls-2" points="206.9 166.5 206.9 132.3 204.5 130 185.1 149.4 204.5 168.8 206.9 166.5"/>
        <polygon class="cls-2" points="204.2 50.4 184.7 31 174.4 41.3 174.4 59.5 184.7 69.8 204.2 50.4"/>
        <polygon class="cls-2" points="184.7 149.7 174.4 160.1 174.4 176 197.4 176 204.2 169.2 184.7 149.7"/>
        <path class="cls-2" d="M41.1,5.4l5.1,5.1,5.3-5.3h-5.5c-1.7,0-3.3,0-4.8.2Z"/>
        <path class="cls-2" d="M69.3,33.6c1,.2,1.9.6,2.6,1.5.8.8,1.2,1.6,1.4,2.6l12.4,12.4,19.4-19.4c0,0,0-.2,0-.2l-19.3-19.3-19.4,19.4,3,3Z"/>
        <polygon class="cls-2" points="63.4 33.5 68.5 33.5 65.9 31 63.4 33.5"/>
        <polygon class="cls-2" points="44.6 130.8 44.6 130.5 12.1 130.5 12.1 134.8 26.3 149 44.6 130.8"/>
        <polygon class="cls-2" points="41.5 55.4 46.2 55.4 46.2 50.8 46.1 50.8 41.5 55.4"/>
        <polygon class="cls-2" points="174.4 40.6 184.4 30.6 174.4 20.6 174.4 40.6"/>
        <path class="cls-2" d="M104.9,29.6c-1.9-10.9-7.2-18.1-15.9-21.8l-2.9,2.9,18.8,18.8Z"/>
        <path class="cls-2" d="M85.7,10.4l2.8-2.8c-2.3-.9-4.8-1.6-7.5-2l4.7,4.7Z"/>
        <path class="cls-2" d="M63.9,151h-14.4c-1.4,0-2.6-.5-3.6-1.6-.9-1-1.3-2.3-1.3-3.6v-14.4l-17.9,17.9,19.4,19.4,17.8-17.8Z"/>
        <polygon class="cls-2" points="204.9 50.4 206.9 52.4 206.9 48.4 204.9 50.4"/>
        <polygon class="cls-2" points="206.9 88 204.9 90 206.9 92 206.9 88"/>
        <polygon class="cls-2" points="185.1 30.6 204.5 50 206.9 47.7 206.9 13.5 204.5 11.2 185.1 30.6"/>
        <polygon class="cls-2" points="206.9 87.3 206.9 53.1 204.5 50.8 185.1 70.2 204.5 89.6 206.9 87.3"/>
        <polygon class="cls-2" points="174.4 7.8 174.4 19.9 184.7 30.2 204.2 10.8 201.2 7.8 174.4 7.8"/>
        <polygon class="cls-2" points="184.4 109.8 164.9 90.4 145.6 109.7 174.4 109.7 174.4 119.8 184.4 109.8"/>
        <rect class="cls-2" x="171" y="76.2" width="27.5" height="27.5" transform="translate(-9.5 157) rotate(-45)"/>
      </g>
    </g>
  </g>
</svg>