<?xml version="1.0" encoding="UTF-8"?>
<svg xmlns="http://www.w3.org/2000/svg" version="1.1" viewBox="0 0 265 180">
  <defs>
    <style>
      .cls-1 {
        fill: none;
      }

      .cls-2 {
        fill: #c59f7b;
      }
    </style>
  </defs>
  <!-- Generator: Adobe Illustrator 28.7.1, SVG Export Plug-In . SVG Version: 1.2.0 Build 142)  -->
  <g>
    <g id="Layer_1">
      <rect class="cls-1" x=".5" width="264" height="180"/>
      <path class="cls-2" d="M252.4,8.6h5l-19.6,32.4h-5l19.6-32.4ZM235.1,25.1h-1.2c-4.1,0-6.2-2.2-6.2-6.6v-3.8c0-4.4,2.1-6.6,6.2-6.6h1.2c4.1,0,6.2,2.2,6.2,6.6v3.8c0,4.4-2.1,6.6-6.2,6.6ZM232.8,21c0,.3,0,.5.2.7.2.2.4.3.7.3h1.6c.3,0,.5-.1.6-.3.2-.2.3-.4.3-.7v-8.8c0-.3-.1-.5-.3-.7-.2-.2-.4-.3-.6-.3h-1.6c-.3,0-.5.1-.7.3-.2.2-.2.4-.2.7v8.8ZM256.1,24.5c4.1,0,6.2,2.2,6.2,6.6v3.8c0,4.4-2.1,6.6-6.2,6.6h-1.2c-4.1,0-6.2-2.2-6.2-6.6v-3.8c0-4.4,2.1-6.6,6.2-6.6h1.2ZM257.3,37.4v-8.8c0-.3,0-.5-.3-.7-.2-.2-.4-.3-.6-.3h-1.6c-.3,0-.5.1-.7.3-.2.2-.2.4-.2.7v8.8c0,.3,0,.5.2.7.2.2.4.3.7.3h1.6c.3,0,.5-.1.6-.3.2-.2.3-.4.3-.7Z"/>
      <g>
        <polygon class="cls-2" points="47.2 140.6 47.2 138.2 46 139.4 47.2 140.6"/>
        <path class="cls-2" d="M77.1,108.3c.3.7.5,1.4.5,2.2v21l7.6,7.6,19.4-19.4-19.4-19.4-8.1,8.1Z"/>
        <path class="cls-2" d="M26.2,159.2l19.3,19.3c0,0,.1,0,.2,0l19.4-19.4-9-9h-4c-1.4,0-2.6-.5-3.6-1.6-.9-1-1.3-2.3-1.3-3.6v-3.7l-1.6-1.6-19.4,19.4Z"/>
        <path class="cls-2" d="M19.6,165.8c4.8,8.1,13.2,12.3,25.2,12.8l-19-19-6.2,6.2Z"/>
        <path class="cls-2" d="M46.9,178.6h30.7c2.3,0,4.4-.1,6.4-.4l-18.6-18.6-19,19c.2,0,.3,0,.5,0Z"/>
        <path class="cls-2" d="M65.4,158.9l8.9-8.9c-.5.2-1.1.3-1.7.3h-15.9l8.6,8.6Z"/>
        <path class="cls-2" d="M129.3,174.9c4.7,2.5,10.6,3.7,17.7,3.7h16.7l-19-19-15.3,15.3Z"/>
        <path class="cls-2" d="M77.6,145.1c0,.8-.2,1.4-.5,2.1l7.7-7.7-7.3-7.3v12.9Z"/>
        <path class="cls-2" d="M105,80.4h0s-19.4,19.4-19.4,19.4l19.4,19.4,4.7-4.7c-.8-11.4-4.9-19.6-12-24.7,3.2-2.3,5.7-5.5,7.4-9.5Z"/>
        <polygon class="cls-2" points="145.9 104.8 159.1 104.8 164.1 99.8 145.9 81.7 145.9 104.8"/>
        <polygon class="cls-2" points="116.3 55.4 119.6 55.4 116.3 52.1 116.3 55.4"/>
        <path class="cls-2" d="M76,69.8v1.5c0,1.4-.5,2.6-1.6,3.6-.9,1-2,1.6-3.4,1.6h-1.7l-3.6,3.6,19.4,19.4,19.4-19.4-19.4-19.4-9.2,9.2Z"/>
        <path class="cls-2" d="M19.3,165.4l6.1-6.1-10.6-10.6c.4,6.7,1.9,12.3,4.5,16.8Z"/>
        <polygon class="cls-2" points="159.8 104.8 169 104.8 164.4 100.2 159.8 104.8"/>
        <path class="cls-2" d="M184.2,159.6l-19,19h12.5c8.4,0,15.2-1.8,20.3-5.3l-13.7-13.7Z"/>
        <polygon class="cls-2" points="177.7 125.8 183.9 119.6 177.7 113.4 177.7 125.8"/>
        <path class="cls-2" d="M177.7,126.5v19.3c0,1.4-.5,2.6-1.6,3.6-.2.2-.4.4-.6.6l8.8,8.8,19.4-19.4-19.4-19.4-6.6,6.6Z"/>
        <path class="cls-2" d="M65.8,159.2l18.9,18.9c.4,0,.9-.1,1.3-.2l18.7-18.7-19.4-19.4-19.4,19.4Z"/>
        <path class="cls-2" d="M105,79.7l.6-.6c1.8-4.7,2.7-10.4,2.7-17.2v-17.8l-3.3-3.3-19.4,19.4,19.4,19.4Z"/>
        <path class="cls-2" d="M108.3,43.3v-3.8c0-.7,0-1.3,0-2l-2.9,2.9,2.9,2.9Z"/>
        <path class="cls-2" d="M204.4,139.4l5.5,5.5c0-.2,0-.4,0-.7v-10.4l-5.5,5.5Z"/>
        <path class="cls-2" d="M184.6,159.2l13.8,13.8c7.4-5.3,11.2-14.4,11.5-27.4l-5.9-5.9-19.4,19.4Z"/>
        <path class="cls-2" d="M121.4,17.6c-1.8,2.8-3.1,6.2-3.9,10l7-7-3-3Z"/>
        <path class="cls-2" d="M175,150.4c-.7.4-1.4.6-2.3.6h-19.6l-8.2,8.2,19.4,19.4h.1l19.4-19.4-8.8-8.8Z"/>
        <path class="cls-2" d="M184.2,40.1l19.4-19.4-13.2-13.2c-3.1-1.1-6.5-1.8-10.4-2.1l-15.3,15.3,19.4,19.4Z"/>
        <path class="cls-2" d="M105,40.1l3.2-3.2c-.5-12.7-4.6-21.6-12.2-26.7l-10.4,10.4,19.4,19.4Z"/>
        <polygon class="cls-2" points="133.4 130.5 116.2 130.5 124.8 139.1 133.4 130.5"/>
        <path class="cls-2" d="M152.4,151h-.3c-1.4,0-2.6-.5-3.6-1.6-.9-1-1.3-2.3-1.3-3.6v-15.3h-13.1l-8.9,8.9,19.4,19.4,7.8-7.8Z"/>
        <polygon class="cls-2" points="76 69 84.9 60.2 76 51.4 76 69"/>
        <path class="cls-2" d="M109.8,124.1v-4.8c0-1.4,0-2.7-.1-4l-4.3,4.3,4.5,4.5Z"/>
        <path class="cls-2" d="M85.6,139.4l19.4,19.4,3.9-3.9c.6-3.2.9-6.8.9-10.7v-19.5l-4.8-4.8-19.4,19.4Z"/>
        <path class="cls-2" d="M105.4,159.2l1.8,1.8c.6-1.6,1.1-3.4,1.5-5.2l-3.4,3.4Z"/>
        <path class="cls-2" d="M115.5,130.5h-.8v13.8c0,1.6,0,3.2.2,4.7l9.6-9.6-8.9-8.9Z"/>
        <path class="cls-2" d="M86.8,177.8c10-1.9,16.7-7.3,20.2-16.2l-2-2-18.2,18.2Z"/>
        <path class="cls-2" d="M124.8,139.8l-9.9,9.9c1,12.2,5.6,20.5,13.9,25l15.4-15.4-19.4-19.4Z"/>
        <path class="cls-2" d="M207.3,102.8c-.5-1.4-1.1-2.8-1.8-4l-1.1,1.1,2.9,2.9Z"/>
        <path class="cls-2" d="M151.1,34.3c.8-.5,1.7-.8,2.6-.8h17.4c1.4,0,2.5.5,3.4,1.6,1,1,1.6,2.3,1.6,3.6v9.5l7.8-7.8-19.4-19.4-13.3,13.3Z"/>
        <path class="cls-2" d="M21.7,84.5c1.4,2.2,3.2,4,5.2,5.5-6,4.2-9.7,10.6-11.3,19.1l10.2,10.2,19.4-19.4-19.4-19.4-4.1,4.1Z"/>
        <path class="cls-2" d="M176.1,5.2h-26.8l15.1,15.1,15-15c-1.1,0-2.2-.1-3.3-.1Z"/>
        <path class="cls-2" d="M139.9,5.9l-14.7,14.7,19.4,19.4,19.4-19.4-15.5-15.5h0c-3.1,0-6,.2-8.6.7Z"/>
        <path class="cls-2" d="M176.1,48.9v22.6s0,0,0,0l8.1,8.1,19.4-19.4-19.4-19.4-8.1,8.1Z"/>
        <path class="cls-2" d="M21.4,84.1l4-4-8.5-8.5c.8,5,2.3,9.2,4.5,12.5Z"/>
        <path class="cls-2" d="M204.4,60.2l3.9,3.9c0-.8,0-1.5,0-2.3v-5.6l-4,4Z"/>
        <polygon class="cls-2" points="65.4 79.7 68.7 76.4 62.2 76.4 65.4 79.7"/>
        <path class="cls-2" d="M59.6,34.3h11.5s0,0,0,0l13.7-13.7-15.5-15.5h-8l-15.5,15.5,13.7,13.7Z"/>
        <path class="cls-2" d="M16.2,49.7l9.2-9.2-8.7-8.7c-.3,2.4-.5,5-.5,7.8v10.2Z"/>
        <path class="cls-2" d="M16.8,31.1l9,9,19.4-19.4-12.6-12.6c-8.9,3.8-14.2,11.5-15.8,23.1Z"/>
        <path class="cls-2" d="M205.2,21.5c-.2-.4-.4-.8-.5-1.2l-.3.3.9.9Z"/>
        <path class="cls-2" d="M191.6,7.9l12.4,12.4.5-.5c-2.8-5.6-7.1-9.6-12.9-12Z"/>
        <path class="cls-2" d="M184.6,40.4l19.4,19.4,4.3-4.3v-16c0-6.5-.9-12.2-2.6-16.8l-1.7-1.7-19.4,19.4Z"/>
        <path class="cls-2" d="M33.1,7.8l12.5,12.5,15.1-15.1h-12.2c-5.9,0-11,.9-15.3,2.6Z"/>
        <path class="cls-2" d="M45.6,59.9l3.1-3.1v-17.2c0-1.4.4-2.6,1.3-3.6,1-1,2.3-1.6,3.6-1.6h5.2l-13.3-13.3-19.4,19.4,19.4,19.4Z"/>
        <path class="cls-2" d="M16.2,50.4v11.5c0,3.2.2,6.1.6,8.8l9,9,19.4-19.4-19.4-19.4-9.6,9.6Z"/>
        <path class="cls-2" d="M184.6,80l19.4,19.4,1.2-1.2c-1.9-3.4-4.4-6.1-7.5-8.3,6.6-4.8,10.1-13.2,10.6-25.1l-4.3-4.3-19.4,19.4Z"/>
        <path class="cls-2" d="M26.2,80l19.4,19.4,19.4-19.4-3.6-3.6h-7.8c-1.4,0-2.6-.5-3.6-1.6-.9-1-1.3-2.3-1.3-3.6v-7.5l-3.1-3.1-19.4,19.4Z"/>
        <path class="cls-2" d="M184.6,119.6l19.4,19.4,5.9-5.9v-13.9c0-5.9-.7-11-2.2-15.5l-3.7-3.7-19.4,19.4Z"/>
        <path class="cls-2" d="M174.5,75.1c-.9,1-2,1.6-3.4,1.6h-22.8l-2.4,2.4v1.9l18.5,18.5,19.4-19.4-7.8-7.8c-.2,1.1-.6,2.1-1.5,2.9Z"/>
        <path class="cls-2" d="M14.7,119.3v11.1l10.8-10.8-10-10c-.5,3-.8,6.2-.8,9.7Z"/>
        <path class="cls-2" d="M26.2,119.6l19.4,19.4,1.6-1.6v-27c0-1.4.4-2.6,1.3-3.6.7-.7,1.5-1.2,2.4-1.4l-5.3-5.3-19.4,19.4Z"/>
        <path class="cls-2" d="M51.5,105.3c.2,0,.4,0,.6,0h20.5c1.4,0,2.5.5,3.4,1.6.3.3.6.7.8,1l8-8-19.4-19.4-19.4,19.4,5.5,5.5Z"/>
        <polygon class="cls-2" points="145.9 78.3 147.6 76.7 145.9 76.7 145.9 78.3"/>
        <path class="cls-2" d="M14.7,131.1v13.2c0,1.2,0,2.4,0,3.6l11,11,19.4-19.4-19.4-19.4-11.1,11.1Z"/>
        <path class="cls-2" d="M164.8,99.8l4.9,4.9h3c1.4,0,2.5.5,3.4,1.6,1,1,1.6,2.3,1.6,3.6v2.8l6.6,6.6,19.4-19.4-19.4-19.4-19.4,19.4Z"/>
        <path class="cls-2" d="M145,40.4l3.8,3.8v-5.5c0-1.1.3-2,.8-2.9l-4.6,4.6Z"/>
        <path class="cls-2" d="M70.1,5.2l15.1,15.1,10.3-10.3c-5-3.2-11.5-4.8-19.5-4.8h-5.9Z"/>
        <polygon class="cls-2" points="48.7 63 48.7 57.5 46 60.2 48.7 63"/>
        <path class="cls-2" d="M74.5,35.9c1,1,1.6,2.3,1.6,3.6v11.2l9.2,9.2,19.4-19.4-19.4-19.4-13.4,13.4c1.1.2,1.9.6,2.7,1.5Z"/>
        <path class="cls-2" d="M121.7,17.2l3.1,3.1,14.2-14.2c-7.8,1.6-13.5,5.3-17.3,11.1Z"/>
        <polygon class="cls-2" points="130 55.4 148.8 55.4 148.8 45 144.6 40.8 130 55.4"/>
        <path class="cls-2" d="M117.3,28.5c-.7,3.3-1,7-1,11v11.9l4,4h9l14.9-14.9-19.4-19.4-7.5,7.5Z"/>
      </g>
    </g>
  </g>
</svg>