<?xml version="1.0" encoding="UTF-8"?>
<svg id="Layer_2" xmlns="http://www.w3.org/2000/svg" viewBox="0 0 311.81 311.81">
  <defs>
    <style>
      .cls-1 {
        fill: none;
      }

      .cls-2 {
        fill: #231f20;
      }

      .cls-3 {
        fill: #fff;
      }

      .cls-4 {
        fill: #811428;
      }
    </style>
  </defs>
  <g id="Layer_1-2" data-name="Layer_1">
    <path class="cls-3" d="M180.32,35.85c-32.83,0-62.69,17.85-78.35,46.72-.14,0-.29,0-.43,0-18.27,0-40.49-5.17-41.24-5.34-.5-.16-1.04-.28-1.59-.35-.3-.04-.6-.07-.96-.08-4.54-.12-8.21,1.4-10.23,4.3-2.15,3.09-2.21,7.23-.16,12.31.2.5.13,1.03-.19,1.29-5.08,4.21-6.22,9.57-3.05,14.31.35.53.31,1.05.21,1.2-4.76,6.97,2.01,13.41,4.2,15.22.74.61,1.58,1.11,2.51,1.48,5.66,2.28,11.84,3.94,18.43,4.95-1.79,3.45-1.35,7.77,1.31,12.85.37.71.32,1.5-.14,1.96-4.96,4.99-5.63,10.78-1.79,15.47.54.66.61,1.4.41,1.78-1.39,2.54-3.59,9.16,6.1,15.69.84.57,1.78,1.01,2.8,1.31,4.27,1.25,19.68,5.52,40.57,8.49,2.39,2.29,4.9,4.44,7.49,6.43l-13.43,59.82c-6.11,5.56-8.73,10.24-7.78,13.92.35,1.39,1.53,3.84,5.42,4.64l.23.05,33.18,1.55,11.55.14c.12,0,.28.01.49.01,1.41,0,5.03-.3,8.08-3.11,2.75-2.53,4.22-6.35,4.26-11.06l5.58-47.08c3.13.35,6.27.52,9.37.52,1.4,0,2.84-.04,4.36-.12l5.53,46.54c.05,4.87,1.48,8.63,4.27,11.2,3.05,2.81,6.65,3.11,8.06,3.11.17,0,.32,0,.45-.01l11.56-.15,33.21-1.56.49-.06c2.71-.58,4.6-2.26,5.2-4.61.94-3.69-1.69-8.38-7.82-13.95l-14.04-57.59c15.86-12,27.02-29.12,31.53-48.43,2.31-8.03,3.48-16.31,3.48-24.61,0-49.15-39.99-89.13-89.13-89.13Z"/>
    <g>
      <circle class="cls-4" cx="183.18" cy="130.19" r="82.04"/>
      <path class="cls-2" d="M166.66,57.1c-.16,0-.32-.03-.48-.1-.63-.26-.92-.99-.66-1.62l1.84-4.34-3.96-2.39c-.58-.35-.77-1.11-.42-1.69.36-.58,1.12-.77,1.69-.42l4.88,2.94c.52.32.74.97.5,1.54l-2.25,5.32c-.2.47-.66.75-1.14.75Z"/>
      <path class="cls-2" d="M155.73,60.57c-.1,0-.21-.01-.32-.04-.66-.18-1.05-.85-.87-1.51l1.22-4.55-4.25-1.82c-.63-.27-.92-.99-.65-1.62s.99-.92,1.62-.65l5.24,2.24c.56.24.86.86.71,1.45l-1.49,5.58c-.15.55-.65.91-1.19.91Z"/>
      <path class="cls-2" d="M145.46,65.63s-.07,0-.11,0c-.68-.06-1.18-.65-1.12-1.33l.4-4.69-4.5-1.05c-.66-.15-1.08-.82-.92-1.48.15-.66.81-1.08,1.48-.92l5.54,1.29c.6.14,1,.69.95,1.31l-.5,5.76c-.06.64-.59,1.13-1.23,1.13Z"/>
      <path class="cls-2" d="M135.83,71.87s-.05,0-.08,0c-.68-.04-1.2-.63-1.15-1.31l.29-4.7-4.53-.94c-.67-.14-1.1-.79-.96-1.46.14-.67.8-1.08,1.46-.96l5.58,1.15c.6.13,1.02.67.98,1.28l-.36,5.77c-.04.65-.58,1.16-1.23,1.16Z"/>
      <path class="cls-2" d="M158.34,189.34c-39.02,0-73.68-9.66-79.33-11.32-.72-.21-1.38-.52-1.97-.91-7.37-4.97-6.39-9.5-5.15-11.76.84-1.52.55-3.58-.71-5.12-2.85-3.48-2.28-7.55,1.6-11.46,1.38-1.39,1.65-3.58.67-5.46-2.22-4.26-2.63-7.71-1.2-10.27,1.79-3.19,5.8-3.92,8.03-4.07.65-.04,1.29,0,1.94.15,41,9,138.04,2.31,141.24,1.71.66-.22,1.29.15,1.51.79.21.65-.19,1.36-.83,1.57-2.68.89-101.3,7.36-142.44-1.67-.42-.09-.84-.13-1.25-.1-1.39.09-4.78.56-6.04,2.81-1,1.78-.58,4.44,1.23,7.92,1.48,2.83,1.04,6.18-1.11,8.34-4.45,4.48-2.18,7.25-1.44,8.16,1.89,2.31,2.28,5.48.97,7.87-1.49,2.7-.01,5.57,4.37,8.53.38.25.81.45,1.29.59,8.66,2.54,86.18,24.08,141.68-.21.63-.27,1.35.01,1.62.64.27.62-.01,1.35-.64,1.62-19.94,8.72-42.64,11.63-64.04,11.63Z"/>
      <path class="cls-2" d="M85.19,130.04c-8.45,0-20.9-1.04-33.02-5.92-.64-.26-1.22-.6-1.72-1.01-6.28-5.19-4.97-9.25-3.63-11.21.86-1.26.78-3.09-.19-4.55-2.3-3.45-1.42-7.12,2.47-10.34,1.33-1.1,1.75-3,1.05-4.73-1.65-4.07-1.7-7.26-.16-9.47,1.93-2.76,5.66-3.06,7.69-3.01.23,0,.44.03.65.05.6.08,1.04.23,1.13.26.19.05,24.73,5.88,44.2,5.44.73.04,1.24.52,1.26,1.2.01.68-.52,1.24-1.21,1.26-20.13.42-44.83-5.5-45.02-5.56-.07-.02-.33-.11-.69-.16-.13-.02-.26-.03-.4-.03-1.26-.04-4.28.08-5.59,1.96-1.02,1.46-.87,3.93.43,7.14,1.1,2.73.39,5.76-1.77,7.55-4.32,3.58-2.57,6.21-1.99,7.08,1.53,2.29,1.6,5.23.18,7.31-1.54,2.25-.47,4.91,3.17,7.91.31.25.67.47,1.08.63,20.14,8.1,41.94,5.21,42.16,5.18.63-.1,1.3.37,1.39,1.05.09.67-.38,1.3-1.05,1.39-.38.05-4.37.59-10.4.59Z"/>
      <path class="cls-2" d="M180.32,211.12c-22.78,0-44.26-8.82-60.49-24.83-.48-.48-.49-1.26,0-1.74.48-.49,1.26-.49,1.74-.01,15.76,15.56,36.63,24.12,58.76,24.12,46.14,0,83.67-37.53,83.67-83.67s-37.53-83.67-83.67-83.67-83.67,37.53-83.67,83.67c0,2.36.12,4.81.35,7.48.06.68-.44,1.28-1.12,1.34-.63.05-1.28-.44-1.34-1.12-.24-2.74-.36-5.26-.36-7.69,0-47.49,38.64-86.13,86.13-86.13s86.13,38.64,86.13,86.13-38.64,86.13-86.13,86.13Z"/>
      <g>
        <path class="cls-2" d="M155.88,272.96c-.21,0-.34,0-.37-.01l-11.53-.14-32.95-1.54c-2.22-.46-2.9-1.58-3.12-2.45-.93-3.64,5.21-9.49,7.59-11.59l14.25-63.46c.15-.66.79-1.08,1.47-.93.66.15,1.08.81.93,1.47l-14.34,63.85c-.06.26-.2.49-.4.66-3.77,3.26-7.53,7.81-7.13,9.38.07.28.43.49,1.05.62l32.7,1.51,11.57.14c.12,0,2.68.16,4.66-1.68,1.63-1.52,2.47-3.99,2.48-7.35l6.13-51.71c.08-.68.7-1.19,1.37-1.08.68.08,1.16.69,1.08,1.37l-6.12,51.57c0,3.95-1.11,7.03-3.29,9.04-2.3,2.11-5.07,2.32-6.05,2.32Z"/>
        <path class="cls-2" d="M205.39,272.96c-.93,0-3.71-.2-6.02-2.32-2.18-2.01-3.29-5.09-3.3-9.18l-6.19-52.12c-.08-.67.4-1.29,1.08-1.37.65-.1,1.29.4,1.37,1.08l6.2,52.26c.02,3.5.85,5.97,2.49,7.49,1.98,1.84,4.56,1.71,4.59,1.69l11.69-.15,32.86-1.53c.43-.11.78-.32.85-.6.4-1.57-3.36-6.12-7.12-9.38-.19-.17-.33-.39-.39-.64l-15.37-63.04c-.16-.66.24-1.33.91-1.49.66-.16,1.33.24,1.49.91l15.28,62.66c2.37,2.09,8.53,7.94,7.6,11.59-.22.86-.91,1.99-2.93,2.42l-33.11,1.56-11.66.15s-.12,0-.31,0Z"/>
      </g>
      <g>
        <path class="cls-3" d="M166.83,117.5c.75-1.08.15-2.58-1.15-2.83l-10.16-2.01-.15-.03-10.16-2.01c-1.29-.26-2.42.9-2.14,2.18.67,3.05,2.93,7.81,10.41,9.35h0s.05.01.07.02c.03,0,.05.01.07.02h0c7.51,1.42,11.41-2.13,13.19-4.69Z"/>
        <rect class="cls-3" x="145.15" y="97.53" width="14.21" height="6.14" rx="3.07" ry="3.07" transform="translate(24.02 230.43) rotate(-78.81)"/>
        <rect class="cls-3" x="155.89" y="99.65" width="14.21" height="6.14" rx="3.07" ry="3.07" transform="translate(30.59 242.68) rotate(-78.81)"/>
      </g>
    </g>
    <rect class="cls-1" width="311.81" height="311.81"/>
  </g>
</svg>