<?xml version="1.0" encoding="UTF-8"?>
<svg xmlns="http://www.w3.org/2000/svg" version="1.1" viewBox="0 0 265 180">
  <defs>
    <style>
      .cls-1 {
        fill: none;
      }

      .cls-2 {
        fill: #c59f7b;
      }
    </style>
  </defs>
  <!-- Generator: Adobe Illustrator 28.7.1, SVG Export Plug-In . SVG Version: 1.2.0 Build 142)  -->
  <g>
    <g id="Layer_1">
      <rect class="cls-1" width="265" height="180"/>
      <path class="cls-2" d="M252.9,8.6h5l-19.6,32.4h-5l19.6-32.4ZM235.6,25.1h-1.2c-4.1,0-6.2-2.2-6.2-6.6v-3.8c0-4.4,2.1-6.6,6.2-6.6h1.2c4.1,0,6.2,2.2,6.2,6.6v3.8c0,4.4-2.1,6.6-6.2,6.6ZM233.3,21c0,.3,0,.5.2.7.2.2.4.3.7.3h1.6c.3,0,.5-.1.6-.3.2-.2.3-.4.3-.7v-8.8c0-.3-.1-.5-.3-.7-.2-.2-.4-.3-.6-.3h-1.6c-.3,0-.5.1-.7.3-.2.2-.2.4-.2.7v8.8ZM256.6,24.5c4.1,0,6.2,2.2,6.2,6.6v3.8c0,4.4-2.1,6.6-6.2,6.6h-1.2c-4.1,0-6.2-2.2-6.2-6.6v-3.8c0-4.4,2.1-6.6,6.2-6.6h1.2ZM257.8,37.4v-8.8c0-.3,0-.5-.3-.7-.2-.2-.4-.3-.6-.3h-1.6c-.3,0-.5.1-.7.3-.2.2-.2.4-.2.7v8.8c0,.3,0,.5.2.7.2.2.4.3.7.3h1.6c.3,0,.5-.1.6-.3.2-.2.3-.4.3-.7Z"/>
      <g>
        <path class="cls-2" d="M126.3,50l19.4-19.4-19.4-19.4-6.1,6.1c-3.4,5.3-5.2,12.5-5.3,21.3l11.4,11.4Z"/>
        <polygon class="cls-2" points="108.4 32.1 108.4 29.1 106.9 30.6 108.4 32.1"/>
        <polygon class="cls-2" points="87.1 50.4 106.5 69.8 108.4 68 108.4 32.8 106.5 31 87.1 50.4"/>
        <path class="cls-2" d="M124.6,12.2c-.8.7-1.5,1.4-2.2,2.2l2.2-2.2Z"/>
        <path class="cls-2" d="M147.1,5.2c-8.1,0-14.6,1.6-19.7,4.8l-.8.8,19.4,19.4,19.4-19.4-5.6-5.6h-12.8Z"/>
        <polygon class="cls-2" points="106.5 110.2 87.1 129.6 106.5 149 108.4 147.2 108.4 112 106.5 110.2"/>
        <path class="cls-2" d="M146.5,30.6l4.4,4.4c1-1,2.2-1.5,3.5-1.5h15.3c1.4,0,2.5.5,3.4,1.6,1,1,1.6,2.3,1.6,3.6v2.6l10.7-10.7-19.4-19.4-19.4,19.4Z"/>
        <polygon class="cls-2" points="93.2 176 86.7 169.5 80.3 176 93.2 176"/>
        <path class="cls-2" d="M185.4,70.2l-10.7-10.7v16.4c0,1.4-.5,2.6-1.6,3.6-.9,1-2,1.6-3.4,1.6h-12.4l8.5,8.5,19.4-19.4Z"/>
        <polygon class="cls-2" points="106.2 149.4 86.7 130 75.9 140.8 75.9 158 86.7 168.8 106.2 149.4"/>
        <polygon class="cls-2" points="106.9 149.4 108.4 150.9 108.4 147.9 106.9 149.4"/>
        <polygon class="cls-2" points="75.9 60.9 86.4 50.4 75.9 39.9 75.9 60.9"/>
        <path class="cls-2" d="M30.4,107.1c4.3,1.7,9.3,2.6,15.2,2.6h21l-19.3-19.3-16.8,16.8Z"/>
        <path class="cls-2" d="M75.9,61.6v12.3c0,1.3-.5,2.5-1.5,3.5l12.3,12.3,19.4-19.4-19.4-19.4-10.8,10.8Z"/>
        <path class="cls-2" d="M66.9,109.4l19.4-19.4-12.3-12.3c-.8.9-1.9,1.3-3.1,1.3h-12.5l-11,11,19.4,19.4Z"/>
        <polygon class="cls-2" points="205.2 50.4 185.7 31 174.7 42 174.7 58.8 185.7 69.8 205.2 50.4"/>
        <polygon class="cls-2" points="116.7 159.9 116.7 176 119.2 176 126 169.2 116.7 159.9"/>
        <path class="cls-2" d="M165.9,90.4l-19.4,19.4,4.8,4.8c1-1,2.2-1.5,3.6-1.5h21.1c2.3,0,4.5-.1,6.5-.4l2.9-2.9-19.4-19.4Z"/>
        <polygon class="cls-2" points="87.1 169.2 93.9 176 108.4 176 108.4 151.6 106.5 149.7 87.1 169.2"/>
        <polygon class="cls-2" points="106.5 70.6 87.1 90 106.5 109.4 108.4 107.6 108.4 72.4 106.5 70.6"/>
        <path class="cls-2" d="M131.1,84.9c-2.1,1.1-3.9,2.4-5.5,4l.8.8,4.7-4.7Z"/>
        <path class="cls-2" d="M205.5,90.4l-19.4,19.4,1.8,1.8c10-2.8,16.3-9.4,18.9-20l-1.3-1.3Z"/>
        <path class="cls-2" d="M186.1,30.6l19.4,19.4,2.7-2.7v-7.8c0-10.5-2.3-18.6-6.8-24.3l-15.4,15.4Z"/>
        <polygon class="cls-2" points="108.4 108.3 106.9 109.8 108.4 111.3 108.4 108.3"/>
        <path class="cls-2" d="M185.7,30.2l15.4-15.4c-5.4-6.4-13.7-9.7-25.1-9.7h-4.1l-5.6,5.6,19.4,19.4Z"/>
        <polygon class="cls-2" points="75.9 119.1 75.9 140.1 86.4 129.6 75.9 119.1"/>
        <path class="cls-2" d="M126.7,50.4l1.6,1.6h21.2v-13.3c0-1.3.4-2.4,1.1-3.3l-4.4-4.4-19.4,19.4Z"/>
        <path class="cls-2" d="M125.2,89.2c-1.6,1.7-3.1,3.6-4.2,5.8l5-5-.8-.8Z"/>
        <polygon class="cls-2" points="106.9 70.2 108.4 71.7 108.4 68.7 106.9 70.2"/>
        <polygon class="cls-2" points="106.2 109.8 86.7 90.4 67.4 109.7 75.9 109.7 75.9 118.4 86.7 129.2 106.2 109.8"/>
        <polygon class="cls-2" points="126.3 50.8 125.1 52 127.6 52 126.3 50.8"/>
        <path class="cls-2" d="M114.9,39.3c0,0,0,.1,0,.2v12.5h9.5l1.6-1.6-11.1-11.1Z"/>
        <polygon class="cls-2" points="165.9 10.4 171.2 5.2 160.7 5.2 165.9 10.4"/>
        <path class="cls-2" d="M13.8,83.4l13.2-13.2-13.7-13.7v18.9c0,2.9.2,5.5.5,8Z"/>
        <polygon class="cls-2" points="146.1 149.7 126.7 169.2 133.5 176 158.8 176 165.6 169.2 146.1 149.7"/>
        <polygon class="cls-2" points="165.9 169.5 159.5 176 172.4 176 165.9 169.5"/>
        <polygon class="cls-2" points="182.1 146.1 150 146.1 150 145.9 146.5 149.4 165.9 168.8 185.4 149.4 182.1 146.1"/>
        <polygon class="cls-2" points="75.9 21.3 86.4 10.8 83.4 7.8 75.9 7.8 75.9 21.3"/>
        <polygon class="cls-2" points="188.7 146.1 182.8 146.1 185.7 149 188.7 146.1"/>
        <polygon class="cls-2" points="13.3 45 13.3 55.8 27.3 69.8 45.5 51.7 45.5 49.1 27.3 31 13.3 45"/>
        <polygon class="cls-2" points="45.5 48.4 45.5 12.8 27.7 30.6 45.5 48.4"/>
        <path class="cls-2" d="M205.9,90l1.1,1.1c.2-.9.4-1.7.5-2.7l-1.6,1.6Z"/>
        <polygon class="cls-2" points="206.2 170.2 205.5 169.5 199.1 176 206.2 176 206.2 170.2"/>
        <polygon class="cls-2" points="205.9 169.2 206.2 169.5 206.2 168.9 205.9 169.2"/>
        <polygon class="cls-2" points="116.7 120.3 116.7 138.9 126 129.6 116.7 120.3"/>
        <polygon class="cls-2" points="45.5 8.8 45.5 7.8 44.5 7.8 45.5 8.8"/>
        <polygon class="cls-2" points="13.3 16.2 27.3 30.2 45.5 12.1 45.5 9.5 43.8 7.8 13.3 7.8 13.3 16.2"/>
        <polygon class="cls-2" points="185.7 149.7 166.3 169.2 173.1 176 198.4 176 205.2 169.2 185.7 149.7"/>
        <polygon class="cls-2" points="27 30.6 13.3 16.9 13.3 44.3 27 30.6"/>
        <polygon class="cls-2" points="206.2 168.2 206.2 146.1 189.4 146.1 186.1 149.4 205.5 168.8 206.2 168.2"/>
        <polygon class="cls-2" points="86.7 10.4 89.4 7.8 84.1 7.8 86.7 10.4"/>
        <path class="cls-2" d="M185.7,110.2l-2.4,2.4c1.4-.2,2.8-.5,4-.8l-1.6-1.6Z"/>
        <polygon class="cls-2" points="106.5 30.2 108.4 28.4 108.4 7.8 90.1 7.8 87.1 10.8 106.5 30.2"/>
        <polygon class="cls-2" points="205.9 50.4 208.2 52.7 208.2 48.1 205.9 50.4"/>
        <rect class="cls-2" x="172" y="76.2" width="27.5" height="27.5" transform="translate(-9.2 157.7) rotate(-45)"/>
        <path class="cls-2" d="M145.8,109.8l-19.4-19.4-6.1,6.1c-2.4,5.1-3.6,11.4-3.6,19v4.2l9.6,9.6,19.4-19.4Z"/>
        <path class="cls-2" d="M165.6,90l-8.9-8.9h-7.7c-6.5,0-12,1-16.5,3.1l-5.8,5.8,19.4,19.4,19.4-19.4Z"/>
        <path class="cls-2" d="M207.6,87.6c.4-2.7.6-5.6.6-8.8v-25.3l-2.7-2.7-19.4,19.4,19.4,19.4,2.1-2.1Z"/>
        <polygon class="cls-2" points="126.3 130 116.7 139.6 116.7 159.2 126.3 168.8 145.8 149.4 126.3 130"/>
        <path class="cls-2" d="M150,145.2v-26.9c0-1.2.4-2.3,1-3.2l-4.9-4.9-19.4,19.4,19.4,19.4,3.9-3.9Z"/>
        <polygon class="cls-2" points="126.3 169.5 119.9 176 132.8 176 126.3 169.5"/>
        <path class="cls-2" d="M27.7,70.2l19.4,19.4,10.6-10.6h-7.3c-1.4,0-2.6-.5-3.6-1.6-.9-1-1.3-2.3-1.3-3.6v-21.4l-17.8,17.8Z"/>
        <polygon class="cls-2" points="75.9 39.2 86.7 50 106.2 30.6 86.7 11.2 75.9 22 75.9 39.2"/>
        <polygon class="cls-2" points="75.9 158.7 75.9 176 79.6 176 86.4 169.2 75.9 158.7"/>
        <path class="cls-2" d="M13.9,84c1.7,11.5,7,19.1,16,22.9l16.9-16.9-19.4-19.4-13.5,13.5Z"/>
      </g>
    </g>
  </g>
</svg>