<?xml version="1.0" encoding="UTF-8"?>
<svg xmlns="http://www.w3.org/2000/svg" version="1.1" viewBox="0 0 265 180">
  <defs>
    <style>
      .cls-1 {
        fill: none;
      }

      .cls-2 {
        fill: #c59f7b;
      }
    </style>
  </defs>
  <!-- Generator: Adobe Illustrator 28.7.1, SVG Export Plug-In . SVG Version: 1.2.0 Build 142)  -->
  <g>
    <g id="Layer_1">
      <rect class="cls-1" width="265" height="180"/>
      <path class="cls-2" d="M252.9,8.6h5l-19.6,32.4h-5l19.6-32.4ZM235.6,25.1h-1.2c-4.1,0-6.2-2.2-6.2-6.6v-3.8c0-4.4,2.1-6.6,6.2-6.6h1.2c4.1,0,6.2,2.2,6.2,6.6v3.8c0,4.4-2.1,6.6-6.2,6.6ZM233.3,21c0,.3,0,.5.2.7.2.2.4.3.7.3h1.6c.3,0,.5-.1.6-.3.2-.2.3-.4.3-.7v-8.8c0-.3-.1-.5-.3-.7-.2-.2-.4-.3-.6-.3h-1.6c-.3,0-.5.1-.7.3-.2.2-.2.4-.2.7v8.8ZM256.6,24.5c4.1,0,6.2,2.2,6.2,6.6v3.8c0,4.4-2.1,6.6-6.2,6.6h-1.2c-4.1,0-6.2-2.2-6.2-6.6v-3.8c0-4.4,2.1-6.6,6.2-6.6h1.2ZM257.8,37.4v-8.8c0-.3,0-.5-.3-.7-.2-.2-.4-.3-.6-.3h-1.6c-.3,0-.5.1-.7.3-.2.2-.2.4-.2.7v8.8c0,.3,0,.5.2.7.2.2.4.3.7.3h1.6c.3,0,.5-.1.6-.3.2-.2.3-.4.3-.7Z"/>
      <g>
        <path class="cls-2" d="M60.2,102.7h8.5c1.4,0,2.5.5,3.4,1.6,0,0,0,0,0,0l14.3-14.3-19.3-19.3h-.3l-19.3,19.3,12.7,12.7Z"/>
        <path class="cls-2" d="M35.5,102c2.7.5,5.5.7,8.7.7h15.3l-12.3-12.3-11.6,11.6Z"/>
        <path class="cls-2" d="M147.4,5.2c-8.5,0-15.4,1.8-20.5,5.4l-.2.2,19.4,19.4,19.4-19.4-5.6-5.6h-12.5Z"/>
        <path class="cls-2" d="M146.5,30.6l3.6,3.6c.8-.5,1.6-.7,2.5-.7h16.9c1.4,0,2.5.5,3.4,1.6,1,1,1.6,2.3,1.6,3.6v2.8l10.9-10.9-19.4-19.4-19.4,19.4Z"/>
        <path class="cls-2" d="M106.2,149.4l-19.4-19.4-13.2,13.2v2c0,1.4-.5,2.6-1.6,3.6-.9,1-2,1.6-3.4,1.6h-.5l18.6,18.6,19.4-19.4Z"/>
        <polygon class="cls-2" points="147.7 69 146.5 70.2 147.7 71.4 147.7 69"/>
        <polygon class="cls-2" points="185.7 31 174.5 42.2 174.5 52 203.6 52 205.2 50.4 185.7 31"/>
        <path class="cls-2" d="M165.6,90l-14.1-14.1c-1.4.4-2.6.9-3.9,1.5v-5.4l-1.5-1.5-19.4,19.4,19.4,19.4,19.4-19.4Z"/>
        <path class="cls-2" d="M181.4,74.2c-1.1,0-2.2-.1-3.3-.1h-13c-4.9,0-9.2.6-13,1.7l13.9,13.9,15.5-15.5Z"/>
        <polygon class="cls-2" points="145.8 109.8 126.3 90.4 115.2 101.5 115.2 118.1 126.3 129.2 145.8 109.8"/>
        <path class="cls-2" d="M147.7,68.3v-29.6c0-1.4.4-2.6,1.3-3.6.2-.2.5-.4.7-.6l-3.5-3.5-19.4,19.4,19.4,19.4,1.5-1.5Z"/>
        <polygon class="cls-2" points="205.5 50.8 204.3 52 206.8 52 205.5 50.8"/>
        <path class="cls-2" d="M107.1,110.7l-.6-.6-19.4,19.4,19.4,19.4.4-.4c0-1.4.1-2.8.1-4.3v-33.5Z"/>
        <path class="cls-2" d="M106.9,149.4h0s0,0,0,0h0Z"/>
        <polygon class="cls-2" points="115.2 118.8 115.2 140.4 126 129.6 115.2 118.8"/>
        <path class="cls-2" d="M92.3,175.1l-5.5-5.5-9,9c5.6-.3,10.5-1.4,14.5-3.5Z"/>
        <polygon class="cls-2" points="126 50.4 115.2 39.6 115.2 61.2 126 50.4"/>
        <path class="cls-2" d="M186.1,30.6l19.4,19.4,2.2-2.2v-8.3c0-10.3-2.2-18.3-6.6-24l-15.1,15.1Z"/>
        <path class="cls-2" d="M117.8,161c1.5,4,3.6,7.4,6.4,10l1.8-1.8-8.2-8.2Z"/>
        <polygon class="cls-2" points="145.8 70.2 126.3 50.8 115.2 61.9 115.2 78.5 126.3 89.6 145.8 70.2"/>
        <path class="cls-2" d="M67.5,150.3h-1l-18.9,18.9,9.4,9.4h18c.7,0,1.4,0,2.1,0l9.4-9.4-18.9-18.9Z"/>
        <path class="cls-2" d="M185.7,30.2l15.1-15.1c-5.3-6.6-13.8-9.9-25.4-9.9h-3.6l-5.6,5.6,19.4,19.4Z"/>
        <path class="cls-2" d="M98.4,78.7l-11.3,11.3,19.4,19.4.6-.6v-3.8c0-11.9-2.9-20.7-8.7-26.4Z"/>
        <path class="cls-2" d="M13.8,136.2v8.1c0,6.2.8,11.5,2.3,16l10.9-10.9-13.2-13.2Z"/>
        <path class="cls-2" d="M87.1,169.2l5.6,5.6c8.3-4.4,13-12.6,14.2-24.7l-.3-.3-19.4,19.4Z"/>
        <polygon class="cls-2" points="205.9 50.4 207.5 52 207.7 52 207.7 48.6 205.9 50.4"/>
        <path class="cls-2" d="M98.1,78.3c-5.4-5.1-13.1-7.6-23.2-7.6h-7.1l18.9,18.9,11.3-11.3Z"/>
        <polygon class="cls-2" points="115.2 79.2 115.2 100.8 126 90 115.2 79.2"/>
        <polygon class="cls-2" points="73.6 116.8 73.6 142.4 86.4 129.6 73.6 116.8"/>
        <path class="cls-2" d="M115.2,38.9l11.2,11.2,19.4-19.4-19.4-19.4-5.2,5.2c-3.9,5.5-5.8,13-5.9,22.5Z"/>
        <polygon class="cls-2" points="107.1 109.6 106.9 109.8 107.1 110 107.1 109.6"/>
        <path class="cls-2" d="M106.2,109.8l-19.4-19.4-14.3,14.3c.8.9,1.2,2,1.2,3.2v8.2l13.2,13.2,19.4-19.4Z"/>
        <polygon class="cls-2" points="165.9 169.5 156.9 178.6 175 178.6 165.9 169.5"/>
        <path class="cls-2" d="M146.1,149.7l-19.4,19.4,7.6,7.6c3.8,1.2,8.2,1.8,13.2,1.8h8.8l9.4-9.4-19.4-19.4Z"/>
        <path class="cls-2" d="M56.2,178.6l-9.1-9.1-8.5,8.5c2.3.3,4.8.5,7.4.5h10.2Z"/>
        <path class="cls-2" d="M27.3,149.7l-11,11c3.5,9.7,10.8,15.4,21.7,17.2l8.8-8.8-19.4-19.4Z"/>
        <path class="cls-2" d="M178,142c-.1,1.1-.6,2.1-1.5,3-.9,1-2,1.6-3.4,1.6h-20.5c-.9,0-1.8-.3-2.6-.7l-3.5,3.5,19.4,19.4,19.4-19.4-7.3-7.3Z"/>
        <path class="cls-2" d="M13.9,83.2l13-13-15-15v13.2c0,5.7.7,10.6,2,14.9Z"/>
        <polygon class="cls-2" points="27.7 30.6 45.2 48.1 45.2 35.6 61.6 35.6 66.6 30.6 47.1 11.2 27.7 30.6"/>
        <polygon class="cls-2" points="205.2 129.6 185.7 110.2 178.1 117.8 178.1 141.4 185.7 149 205.2 129.6"/>
        <polygon class="cls-2" points="12 46.3 12 54.5 27.3 69.8 45.2 51.9 45.2 48.9 27.3 31 12 46.3"/>
        <path class="cls-2" d="M204,168l-18.2-18.2-19.4,19.4,9.4,9.4h2.4c11.9,0,20.6-3.5,25.9-10.6Z"/>
        <path class="cls-2" d="M210.3,124.4v-16c0-5.9-.7-11-2.1-15.4l-2.7-2.7-19.4,19.4,19.4,19.4,4.8-4.8Z"/>
        <polygon class="cls-2" points="205.9 129.6 210.3 134 210.3 125.2 205.9 129.6"/>
        <polygon class="cls-2" points="66.9 30.2 86.4 10.8 83.4 7.8 50.5 7.8 47.5 10.8 66.9 30.2"/>
        <path class="cls-2" d="M210.3,134.7l-4.8-4.8-19.4,19.4,18.2,18.2c4-5.6,6.1-13.4,6.1-23.3v-9.5Z"/>
        <polygon class="cls-2" points="47.1 10.4 49.8 7.8 44.5 7.8 47.1 10.4"/>
        <polygon class="cls-2" points="27 30.6 12 15.6 12 45.6 27 30.6"/>
        <polygon class="cls-2" points="12 14.9 27.3 30.2 46.8 10.8 43.8 7.8 12 7.8 12 14.9"/>
        <polygon class="cls-2" points="165.9 10.4 171.2 5.2 160.7 5.2 165.9 10.4"/>
        <path class="cls-2" d="M27.7,70.2l19.4,19.4,18.9-18.9h-15.9c-1.4,0-2.6-.5-3.6-1.6-.9-1-1.3-2.3-1.3-3.6v-12.8l-17.5,17.5Z"/>
        <polygon class="cls-2" points="62.3 35.6 71.6 35.6 66.9 31 62.3 35.6"/>
        <path class="cls-2" d="M14.1,83.8c3.3,10,10.2,16,20.8,18.1l11.8-11.8-19.4-19.4-13.2,13.2Z"/>
        <polygon class="cls-2" points="72.3 35.6 100.4 35.6 100.4 24.8 86.7 11.2 67.3 30.6 72.3 35.6"/>
        <polygon class="cls-2" points="100.4 24.1 100.4 7.8 90.1 7.8 87.1 10.8 100.4 24.1"/>
        <polygon class="cls-2" points="86.7 10.4 89.4 7.8 84.1 7.8 86.7 10.4"/>
        <polygon class="cls-2" points="44.6 131.8 13.8 131.8 13.8 135.5 27.3 149 44.6 131.8"/>
        <path class="cls-2" d="M185.4,109.8l-19.4-19.4-19.4,19.4,1.2,1.2c0-1.3.5-2.4,1.3-3.4,1-1,2.3-1.6,3.6-1.6h20.5c1.4,0,2.5.5,3.4,1.6,1,1,1.6,2.3,1.6,3.6v5.8l7.3-7.3Z"/>
        <path class="cls-2" d="M205.2,90l-14.2-14.2c-2.7-.8-5.7-1.4-9-1.6l-15.8,15.8,19.4,19.4,19.4-19.4Z"/>
        <path class="cls-2" d="M206.5,88.7c-3-6.1-7.8-10.2-14.4-12.5l13.5,13.5.9-.9Z"/>
        <path class="cls-2" d="M206.7,89.2l-.8.8,1.9,1.9c-.3-1-.7-1.9-1.1-2.7Z"/>
        <path class="cls-2" d="M126.3,130l-11.2,11.2v3.2c0,6,.7,11.2,2.2,15.6l8.9,8.9,19.4-19.4-19.4-19.4Z"/>
        <path class="cls-2" d="M149.6,145.6c-.2-.2-.4-.3-.6-.5-.9-1-1.3-2.3-1.3-3.6v-29.7l-1.5-1.5-19.4,19.4,19.4,19.4,3.5-3.5Z"/>
        <path class="cls-2" d="M126.3,169.5l-1.8,1.8c2.4,2.2,5.3,3.9,8.6,5.1l-6.9-6.9Z"/>
        <path class="cls-2" d="M65.7,150.3h-12.4c-1.4,0-2.6-.5-3.6-1.6-.9-1-1.3-2.3-1.3-3.6v-13.3h-3.1l-17.6,17.6,19.4,19.4,18.6-18.6Z"/>
      </g>
    </g>
  </g>
</svg>