<?xml version="1.0" encoding="UTF-8"?>
<svg xmlns="http://www.w3.org/2000/svg" version="1.1" viewBox="0 0 263 180">
  <defs>
    <style>
      .cls-1 {
        fill: none;
      }

      .cls-2 {
        fill: #c59f7b;
      }
    </style>
  </defs>
  <!-- Generator: Adobe Illustrator 28.7.1, SVG Export Plug-In . SVG Version: 1.2.0 Build 142)  -->
  <g>
    <g id="Layer_1">
      <rect class="cls-1" x=".5" width="262" height="180"/>
      <path class="cls-2" d="M250.4,8.6h5l-19.6,32.4h-5l19.6-32.4ZM233.1,25.1h-1.2c-4.1,0-6.2-2.2-6.2-6.6v-3.8c0-4.4,2.1-6.6,6.2-6.6h1.2c4.1,0,6.2,2.2,6.2,6.6v3.8c0,4.4-2.1,6.6-6.2,6.6ZM230.8,21c0,.3,0,.5.2.7.2.2.4.3.7.3h1.6c.3,0,.5-.1.6-.3.2-.2.3-.4.3-.7v-8.8c0-.3-.1-.5-.3-.7-.2-.2-.4-.3-.6-.3h-1.6c-.3,0-.5.1-.7.3-.2.2-.2.4-.2.7v8.8ZM254.1,24.5c4.1,0,6.2,2.2,6.2,6.6v3.8c0,4.4-2.1,6.6-6.2,6.6h-1.2c-4.1,0-6.2-2.2-6.2-6.6v-3.8c0-4.4,2.1-6.6,6.2-6.6h1.2ZM255.3,37.4v-8.8c0-.3-.1-.5-.3-.7-.2-.2-.4-.3-.7-.3h-1.5c-.3,0-.5.1-.7.3-.2.2-.2.4-.2.7v8.8c0,.3,0,.5.2.7.2.2.4.3.7.3h1.5c.3,0,.5-.1.7-.3.2-.2.3-.4.3-.7Z"/>
      <g>
        <path class="cls-2" d="M86.1,50.4l19.4,19.4,1.9-1.9v-28.5c0-2.5-.1-4.9-.4-7.1l-1.5-1.5-19.4,19.4Z"/>
        <path class="cls-2" d="M73.9,62.6v13.3c0,.6-.1,1.1-.3,1.6l12.2,12.2,19.4-19.4-19.4-19.4-11.9,11.9Z"/>
        <path class="cls-2" d="M46.1,89.6l8.5-8.5h-6.6c-3.5,0-6.7.3-9.6.9l7.6,7.6Z"/>
        <path class="cls-2" d="M49.2,126.2v-8c0-1.4.4-2.6,1.3-3.6,1-1,2.3-1.6,3.6-1.6h8.2l3.3-3.3-19.4-19.4-19.4,19.4,19.4,19.4,3-3Z"/>
        <path class="cls-2" d="M125.3,50l19.4-19.4-19.3-19.3c-.5.4-1.1.9-1.6,1.3l-1.3,1.3c-5.3,5.7-7.9,14.2-7.9,25.5l10.7,10.7Z"/>
        <path class="cls-2" d="M106.9,31.6c0-.6-.2-1.2-.3-1.8l-.7.7,1,1Z"/>
        <path class="cls-2" d="M146.9,5.2c-8.8,0-15.8,1.9-21,5.8l19.3,19.3,19.4-19.4-5.6-5.6h-12.1Z"/>
        <polygon class="cls-2" points="49.2 126.9 46.5 129.6 49.2 132.3 49.2 126.9"/>
        <polygon class="cls-2" points="151.3 76.7 144.3 76.7 144.3 104.8 149.8 104.8 164.6 90 151.3 76.7"/>
        <polygon class="cls-2" points="68.9 146.1 63 146.1 65.9 149 68.9 146.1"/>
        <polygon class="cls-2" points="204.9 129.6 208.3 133 208.3 126.2 204.9 129.6"/>
        <path class="cls-2" d="M184.4,30.6l-19.4-19.4-19.4,19.4,3.8,3.8c.8-.6,1.8-.9,2.8-.9h17.4c1.4,0,2.5.5,3.4,1.6,1,1,1.6,2.3,1.6,3.6v1.8l9.9-9.9Z"/>
        <path class="cls-2" d="M184.4,70.2l-9.9-9.9v11.2c0,1.4-.5,2.6-1.6,3.6-.9,1-2,1.6-3.4,1.6h-17.5l13,13,19.4-19.4Z"/>
        <polygon class="cls-2" points="105.3 150 86.1 169.2 92.9 176 105.3 176 105.3 150"/>
        <polygon class="cls-2" points="105.2 149.4 101.9 146.1 69.6 146.1 66.3 149.4 85.7 168.8 105.2 149.4"/>
        <polygon class="cls-2" points="92.2 176 85.7 169.5 79.3 176 92.2 176"/>
        <path class="cls-2" d="M115.1,159.3c1.6,5,4.1,9.1,7.6,12.2l2.3-2.3-9.9-9.9Z"/>
        <path class="cls-2" d="M17.6,101.4c-1.1,4.1-1.7,8.7-1.7,14v4.5l10.1-10.1-8.4-8.4Z"/>
        <path class="cls-2" d="M185.1,30.6l19.4,19.4,2.2-2.2v-8.4c0-10.3-2.2-18.3-6.6-24l-15.1,15.1Z"/>
        <path class="cls-2" d="M45.8,90l-7.9-7.9c-10.4,2.3-17.1,8.6-20.2,18.7l8.6,8.6,19.4-19.4Z"/>
        <polygon class="cls-2" points="85.4 50.4 73.9 38.9 73.9 61.9 85.4 50.4"/>
        <polygon class="cls-2" points="65.9 149.7 46.5 169.2 53.3 176 78.6 176 85.4 169.2 65.9 149.7"/>
        <path class="cls-2" d="M26,30.6l-8.9-8.9c-2,4.9-3,10.8-3,17.8v3l11.9-11.9Z"/>
        <polygon class="cls-2" points="68.9 113.1 65.9 110.2 63 113.1 68.9 113.1"/>
        <polygon class="cls-2" points="105.3 148.8 105.3 146.1 102.6 146.1 105.3 148.8"/>
        <path class="cls-2" d="M184.7,30.2l15.1-15.1c-5.3-6.6-13.8-10-25.4-10h-3.5l-5.6,5.6,19.4,19.4Z"/>
        <polygon class="cls-2" points="107.4 71.7 107.4 68.7 105.9 70.2 107.4 71.7"/>
        <path class="cls-2" d="M86.1,90l13.8,13.8c5-5.7,7.5-14.1,7.5-25.1v-6.4l-1.9-1.9-19.4,19.4Z"/>
        <path class="cls-2" d="M66.3,109.8l3.3,3.3h5.6c10.9,0,19.1-3,24.4-8.9l-13.9-13.9-19.4,19.4Z"/>
        <polygon class="cls-2" points="125.3 50.8 120.7 55.4 129.9 55.4 125.3 50.8"/>
        <polygon class="cls-2" points="114.7 40.1 114.7 55.4 120 55.4 125 50.4 114.7 40.1"/>
        <path class="cls-2" d="M65.9,109.4l19.4-19.4-12-12c-.3.6-.6,1.1-1.1,1.5-.9,1-2,1.6-3.4,1.6h-13.5l-8.9,8.9,19.4,19.4Z"/>
        <path class="cls-2" d="M125.7,50.4l5,5h16.5v-16.6c0-1.4.4-2.6,1.3-3.6.1-.1.3-.2.4-.4l-3.8-3.8-19.4,19.4Z"/>
        <polygon class="cls-2" points="113.1 130.5 113.1 141.5 124.1 130.5 113.1 130.5"/>
        <polygon class="cls-2" points="26.3 149.7 15.9 160.2 15.9 176 39 176 45.8 169.2 26.3 149.7"/>
        <polygon class="cls-2" points="46.1 169.5 39.7 176 52.6 176 46.1 169.5"/>
        <path class="cls-2" d="M145.1,149.7l-19.4,19.4,8,8c3.4.9,7.3,1.4,11.6,1.4h9.8l9.4-9.4-19.4-19.4Z"/>
        <polygon class="cls-2" points="14.1 43.2 14.1 52 44.2 52 45.8 50.4 26.3 31 14.1 43.2"/>
        <path class="cls-2" d="M26.7,30.6l19.4,19.4,2.5-2.5v-8.8c0-1.4.4-2.6,1.3-3.6,1-1,2.3-1.6,3.6-1.6h9.1l2.9-2.9-19.4-19.4-19.4,19.4Z"/>
        <polygon class="cls-2" points="164.9 169.5 155.9 178.6 174 178.6 164.9 169.5"/>
        <path class="cls-2" d="M200.4,93.8c-1.3-1.4-2.7-2.7-4.3-3.9,1.5-1.1,2.9-2.5,4.1-4l-15.4-15.4-19.4,19.4,19.4,19.4,15.6-15.6Z"/>
        <path class="cls-2" d="M65.9,30.2l19.4-19.4-5.4-5.4c-1.5-.1-3.2-.2-4.8-.2h-23l-5.6,5.6,19.4,19.4Z"/>
        <path class="cls-2" d="M176,141v4.8c0,1.4-.5,2.6-1.6,3.6-.9,1-2,1.6-3.4,1.6h-20.5c-1.4,0-2.6-.5-3.6-1.6-.2-.3-.4-.6-.6-.9l-.8.8,19.4,19.4,19.4-19.4-8.4-8.4Z"/>
        <path class="cls-2" d="M184.4,109.8l-19.4-19.4-14.4,14.4h20.5c1.4,0,2.5.5,3.4,1.6,1,1,1.6,2.3,1.6,3.6v8.2l8.4-8.4Z"/>
        <path class="cls-2" d="M202.4,167.4l-17.6-17.6-19.4,19.4,9.4,9.4h1.3c12.3,0,21.1-3.8,26.3-11.2Z"/>
        <path class="cls-2" d="M208.3,133.7l-3.7-3.7-19.4,19.4,17.5,17.5c3.7-5.6,5.6-13.1,5.6-22.7v-10.6Z"/>
        <path class="cls-2" d="M17.3,21.2l9,9,19.4-19.4-5.3-5.3c-11.4,1.3-19.2,6.5-23.2,15.7Z"/>
        <path class="cls-2" d="M46.1,10.4l5.3-5.3h-5.1c-1.8,0-3.5,0-5.2.2l5,5Z"/>
        <polygon class="cls-2" points="204.2 129.6 184.7 110.2 176 118.9 176 140.3 184.7 149 204.2 129.6"/>
        <path class="cls-2" d="M208.3,125.5v-6.2c0-10.9-2.5-19.3-7.6-25.1l-15.6,15.6,19.4,19.4,3.7-3.7Z"/>
        <polygon class="cls-2" points="65.6 149.4 62.3 146.1 49.2 146.1 49.2 133 46.1 130 26.7 149.4 46.1 168.8 65.6 149.4"/>
        <path class="cls-2" d="M85.7,10.4l3.2-3.2c-2.5-.9-5.2-1.4-8.2-1.8l5,5Z"/>
        <path class="cls-2" d="M105.5,30.2l1-1c-2-11.2-7.7-18.4-17.1-21.8l-3.4,3.4,19.4,19.4Z"/>
        <path class="cls-2" d="M69.3,33.6c1.2,0,2.3.6,3,1.5.9.9,1.4,1.9,1.5,3l11.9,11.9,19.4-19.4-19.4-19.4-19.4,19.4,3,3Z"/>
        <polygon class="cls-2" points="164.9 10.4 170.2 5.2 159.7 5.2 164.9 10.4"/>
        <path class="cls-2" d="M206.7,61.9v-8.9l-2.2-2.2-19.4,19.4,15.4,15.4c4.2-5.5,6.2-13.4,6.2-23.7Z"/>
        <polygon class="cls-2" points="204.9 50.4 206.7 52.2 206.7 48.6 204.9 50.4"/>
        <polygon class="cls-2" points="63.4 33.5 68.5 33.5 65.9 31 63.4 33.5"/>
        <polygon class="cls-2" points="26 149.4 15.9 139.3 15.9 159.5 26 149.4"/>
        <path class="cls-2" d="M125.3,169.5l-2.3,2.3c2.7,2.3,5.9,4,9.7,5.1l-7.4-7.4Z"/>
        <path class="cls-2" d="M125.9,130.5h-1.1l-11.7,11.7v2.1c0,5.3.6,10,1.7,14.1l10.5,10.5,19.4-19.4-18.9-18.9Z"/>
        <polygon class="cls-2" points="204.2 50.4 184.7 31 174.5 41.2 174.5 59.6 184.7 69.8 204.2 50.4"/>
        <polygon class="cls-2" points="44.9 52 47.4 52 46.1 50.8 44.9 52"/>
        <polygon class="cls-2" points="48.1 52 48.6 52 48.6 48.3 46.5 50.4 48.1 52"/>
        <path class="cls-2" d="M146.1,148.1c-.3-.7-.5-1.4-.5-2.3v-15.3h-19l18.5,18.5.9-.9Z"/>
        <polygon class="cls-2" points="45.8 129.6 26.3 110.2 15.9 120.6 15.9 138.6 26.3 149 45.8 129.6"/>
      </g>
    </g>
  </g>
</svg>