<?xml version="1.0" encoding="UTF-8"?>
<svg xmlns="http://www.w3.org/2000/svg" version="1.1" viewBox="0 0 213 180">
  <defs>
    <style>
      .cls-1 {
        fill: none;
      }

      .cls-2 {
        fill: #c59f7b;
      }
    </style>
  </defs>
  <!-- Generator: Adobe Illustrator 28.7.1, SVG Export Plug-In . SVG Version: 1.2.0 Build 142)  -->
  <g>
    <g id="Layer_1">
      <rect class="cls-1" x=".5" width="212" height="180"/>
      <path class="cls-2" d="M200.4,8.6h5l-19.6,32.4h-5l19.6-32.4ZM183.1,25.1h-1.2c-4.1,0-6.2-2.2-6.2-6.6v-3.8c0-4.4,2.1-6.6,6.2-6.6h1.2c4.1,0,6.2,2.2,6.2,6.6v3.8c0,4.4-2.1,6.6-6.2,6.6ZM180.8,21c0,.3,0,.5.2.7.2.2.4.3.7.3h1.6c.3,0,.5-.1.6-.3.2-.2.3-.4.3-.7v-8.8c0-.3-.1-.5-.3-.7-.2-.2-.4-.3-.6-.3h-1.6c-.3,0-.5.1-.7.3-.2.2-.2.4-.2.7v8.8ZM204.1,24.5c4.1,0,6.2,2.2,6.2,6.6v3.8c0,4.4-2.1,6.6-6.2,6.6h-1.2c-4.1,0-6.2-2.2-6.2-6.6v-3.8c0-4.4,2.1-6.6,6.2-6.6h1.2ZM205.3,37.4v-8.8c0-.3-.1-.5-.3-.7-.2-.2-.4-.3-.7-.3h-1.5c-.3,0-.5.1-.7.3-.2.2-.2.4-.2.7v8.8c0,.3,0,.5.2.7.2.2.4.3.7.3h1.5c.3,0,.5-.1.7-.3.2-.2.3-.4.3-.7Z"/>
      <g>
        <polygon class="cls-2" points="118.2 68.6 118.2 71.8 119.8 70.2 118.2 68.6"/>
        <polygon class="cls-2" points="118.2 8 118.2 28.3 120.1 30.2 139.6 10.8 136.8 8 118.2 8"/>
        <polygon class="cls-2" points="139.6 50.4 120.1 31 118.2 32.9 118.2 67.9 120.1 69.8 139.6 50.4"/>
        <path class="cls-2" d="M100,90l-19.4-19.4-4,4c-.2,1.1-.6,2-1.5,2.9-.8.9-1.7,1.4-2.9,1.5l-11,11,19.4,19.4,19.4-19.4Z"/>
        <polygon class="cls-2" points="76.6 34.9 76.6 65.9 80.5 69.8 100 50.4 80.5 31 76.6 34.9"/>
        <path class="cls-2" d="M51.1,79c-.4,0-.8,0-1.1-.1l10.8,10.8,10.6-10.6h-20.3Z"/>
        <polygon class="cls-2" points="80.2 70.2 76.6 66.6 76.6 73.8 80.2 70.2"/>
        <path class="cls-2" d="M21.5,90l19.4,19.4,19.4-19.4-11.5-11.5c-.5-.3-.9-.6-1.4-1-.3-.3-.5-.7-.7-1.1l-5.8-5.8-19.4,19.4Z"/>
        <path class="cls-2" d="M17.4,94.1c4,8.9,11.6,14,22.8,15.2l-19-19-3.8,3.8Z"/>
        <polygon class="cls-2" points="100.3 10.4 103 7.8 97.7 7.8 100.3 10.4"/>
        <path class="cls-2" d="M41.3,70.2l5.1,5.1c-.1-.5-.2-.9-.2-1.4v-8.5l-4.9,4.9Z"/>
        <polygon class="cls-2" points="76.6 26.3 80.5 30.2 100 10.8 97 7.8 76.6 7.8 76.6 26.3"/>
        <path class="cls-2" d="M17.2,93.6l3.6-3.6-6.3-6.3c.5,3.7,1.4,7,2.7,10Z"/>
        <polygon class="cls-2" points="80.2 30.6 76.6 27 76.6 34.2 80.2 30.6"/>
        <polygon class="cls-2" points="100.3 90.4 80.9 109.8 100.3 129.2 109.1 120.5 109.1 99.1 100.3 90.4"/>
        <polygon class="cls-2" points="109.1 121.2 100.7 129.6 109.1 138 109.1 121.2"/>
        <polygon class="cls-2" points="153.5 63.6 153.5 37.2 140.3 50.4 153.5 63.6"/>
        <polygon class="cls-2" points="153.5 24 153.5 8 143.1 8 140.3 10.8 153.5 24"/>
        <polygon class="cls-2" points="100.7 169.2 107.5 176 109.1 176 109.1 160.8 100.7 169.2"/>
        <polygon class="cls-2" points="120.5 30.6 139.9 50 153.5 36.5 153.5 24.7 139.9 11.2 120.5 30.6"/>
        <polygon class="cls-2" points="109.1 42 100.7 50.4 109.1 58.8 109.1 42"/>
        <polygon class="cls-2" points="118.2 29 118.2 32.2 119.8 30.6 118.2 29"/>
        <polygon class="cls-2" points="80.9 30.6 100.3 50 109.1 41.3 109.1 19.9 100.3 11.2 80.9 30.6"/>
        <polygon class="cls-2" points="109.1 81.6 100.7 90 109.1 98.4 109.1 81.6"/>
        <path class="cls-2" d="M80.2,109.8l-19.4-19.4-19.2,19.2c1.5.1,3,.2,4.6.2h30.4v3.7l3.6-3.6Z"/>
        <polygon class="cls-2" points="100.3 50.8 80.9 70.2 100.3 89.6 109.1 80.9 109.1 59.5 100.3 50.8"/>
        <polygon class="cls-2" points="109.1 19.2 109.1 7.8 103.7 7.8 100.7 10.8 109.1 19.2"/>
        <polygon class="cls-2" points="40.9 30.2 46.2 25 46.2 7.8 24.5 7.8 21.5 10.8 40.9 30.2"/>
        <polygon class="cls-2" points="13.9 18.4 13.9 42.8 21.1 50 40.6 30.6 21.1 11.2 13.9 18.4"/>
        <polygon class="cls-2" points="153.5 116.4 140.3 129.6 153.5 142.8 153.5 116.4"/>
        <polygon class="cls-2" points="139.6 129.6 120.1 110.2 118.2 112.1 118.2 147.1 120.1 149 139.6 129.6"/>
        <polygon class="cls-2" points="153.5 115.7 153.5 103.9 139.9 90.4 120.5 109.8 139.9 129.2 153.5 115.7"/>
        <polygon class="cls-2" points="20.8 50.4 13.9 43.5 13.9 57.3 20.8 50.4"/>
        <polygon class="cls-2" points="120.1 149.7 118.2 151.7 118.2 176.3 132.5 176.3 139.6 169.2 120.1 149.7"/>
        <polygon class="cls-2" points="21.1 10.4 23.8 7.8 18.5 7.8 21.1 10.4"/>
        <polygon class="cls-2" points="13.9 17.7 20.8 10.8 17.8 7.8 13.9 7.8 13.9 17.7"/>
        <polygon class="cls-2" points="118.2 147.8 118.2 151 119.8 149.4 118.2 147.8"/>
        <polygon class="cls-2" points="153.5 156 140.3 169.2 147.4 176.3 153.5 176.3 153.5 156"/>
        <polygon class="cls-2" points="153.5 143.5 139.9 130 120.5 149.4 139.9 168.8 153.5 155.3 153.5 143.5"/>
        <polygon class="cls-2" points="139.9 169.5 133.2 176.3 146.7 176.3 139.9 169.5"/>
        <polygon class="cls-2" points="153.5 76.8 140.3 90 153.5 103.2 153.5 76.8"/>
        <polygon class="cls-2" points="139.6 90 120.1 70.6 118.2 72.5 118.2 107.5 120.1 109.4 139.6 90"/>
        <polygon class="cls-2" points="153.5 76.1 153.5 64.3 139.9 50.8 120.5 70.2 139.9 89.6 153.5 76.1"/>
        <polygon class="cls-2" points="118.2 108.2 118.2 111.4 119.8 109.8 118.2 108.2"/>
        <polygon class="cls-2" points="76.6 145.8 76.6 153 80.2 149.4 76.6 145.8"/>
        <polygon class="cls-2" points="80.5 149.7 76.6 153.7 76.6 176 93.2 176 100 169.2 80.5 149.7"/>
        <polygon class="cls-2" points="80.5 110.2 76.6 114.1 76.6 145.1 80.5 149 100 129.6 80.5 110.2"/>
        <polygon class="cls-2" points="21.5 50.4 40.9 69.8 46.2 64.6 46.2 36.2 40.9 31 21.5 50.4"/>
        <polygon class="cls-2" points="139.9 10.4 142.4 8 137.5 8 139.9 10.4"/>
        <polygon class="cls-2" points="100.3 169.5 93.9 176 106.8 176 100.3 169.5"/>
        <path class="cls-2" d="M13.9,58v17.4c0,2.7.2,5.1.4,7.5l6.8,6.8,19.4-19.4-19.4-19.4-7.2,7.2Z"/>
        <polygon class="cls-2" points="46.2 35.5 46.2 25.7 41.3 30.6 46.2 35.5"/>
        <polygon class="cls-2" points="100.3 130 80.9 149.4 100.3 168.8 109.1 160.1 109.1 138.7 100.3 130"/>
      </g>
    </g>
  </g>
</svg>