<?xml version="1.0" encoding="UTF-8"?>
<svg xmlns="http://www.w3.org/2000/svg" version="1.1" viewBox="0 0 251 180">
  <defs>
    <style>
      .cls-1 {
        fill: none;
      }

      .cls-2 {
        fill: #c59f7b;
      }
    </style>
  </defs>
  <!-- Generator: Adobe Illustrator 28.7.1, SVG Export Plug-In . SVG Version: 1.2.0 Build 142)  -->
  <g>
    <g id="Layer_1">
      <rect class="cls-1" width="251" height="180"/>
      <g>
        <path class="cls-2" d="M157.9,29.9c1.4,0,2.5.5,3.4,1.6,1,1,1.6,2.3,1.6,3.6v1.2l13.5,13.5,19.4-19.4-19.4-19.4-19,19h.6Z"/>
        <polygon class="cls-2" points="162.9 63.2 176 50.1 162.9 36.9 162.9 63.2"/>
        <polygon class="cls-2" points="162.9 75.8 176.4 89.3 195.8 69.9 176.4 50.4 162.9 63.9 162.9 75.8"/>
        <path class="cls-2" d="M196.2,69.5l2.1-2.1v-28c0-2.5-.1-4.9-.4-7.2l-1.6-1.6-19.4,19.4,19.4,19.4Z"/>
        <polygon class="cls-2" points="176 129.3 162.9 116.1 162.9 142.4 176 129.3"/>
        <path class="cls-2" d="M195.8,149.1l-19.4-19.4-13.5,13.5v5.3c0,1.4-.5,2.6-1.6,3.6-.2.3-.5.5-.7.7l15.8,15.8,19.4-19.4Z"/>
        <path class="cls-2" d="M196.5,149.1l1.4,1.4c0-1,.2-2,.2-3l-1.6,1.6Z"/>
        <path class="cls-2" d="M166,178.6c.1,0,.2,0,.3,0l9.7-9.7-15.8-15.8c-.7.4-1.4.6-2.2.6h-5.6l-15.2,15.2,9.7,9.7h19.1Z"/>
        <path class="cls-2" d="M179.4,7.1c-2.3-.8-4.9-1.3-7.7-1.6l4.7,4.7,3-3Z"/>
        <path class="cls-2" d="M197.3,28.8c-2.1-11.1-7.9-18.3-17.3-21.5l-3.2,3.2,19.4,19.4,1.1-1.1Z"/>
        <polygon class="cls-2" points="138.2 90.7 138.2 88.6 137.1 89.7 138.2 90.7"/>
        <polygon class="cls-2" points="162.9 102.8 176 89.7 162.9 76.5 162.9 102.8"/>
        <polygon class="cls-2" points="136.8 128.9 138.2 127.5 138.2 91.4 136.8 90 117.3 109.5 136.8 128.9"/>
        <path class="cls-2" d="M136.8,168.5l14.9-14.9h-8.6c-1.4,0-2.6-.5-3.6-1.6-.9-1-1.3-2.3-1.3-3.6v-17.4l-1.4-1.4-19.4,19.4,19.4,19.4Z"/>
        <polygon class="cls-2" points="138.2 128.2 137.1 129.3 138.2 130.3 138.2 128.2"/>
        <path class="cls-2" d="M197.7,31.5c0-.7-.2-1.4-.3-2.1l-.9.9,1.2,1.2Z"/>
        <polygon class="cls-2" points="77 109.5 57.6 90 45.4 102.2 43 114.4 57.6 128.9 77 109.5"/>
        <path class="cls-2" d="M116.6,30.3l-10.1-10.1c-2.5,5.1-3.7,11.6-3.7,19.3v4.6l13.8-13.8Z"/>
        <polygon class="cls-2" points="136.4 50.1 117 30.6 102.8 44.8 102.8 55.4 117 69.5 136.4 50.1"/>
        <polygon class="cls-2" points="136.4 129.3 117 109.8 102.8 124 102.8 134.6 117 148.7 136.4 129.3"/>
        <path class="cls-2" d="M102.8,135.3v9c0,6.3.8,11.7,2.4,16.2l11.4-11.4-13.8-13.8Z"/>
        <polygon class="cls-2" points="49.4 81.8 45.6 101.3 57.2 89.7 49.4 81.8"/>
        <polygon class="cls-2" points="17.6 10.5 14.9 7.8 13.1 7.8 13.1 15 17.6 10.5"/>
        <polygon class="cls-2" points="162.9 115.4 176.4 128.9 195.8 109.5 176.4 90 162.9 103.5 162.9 115.4"/>
        <polygon class="cls-2" points="57.2 168.9 37.8 149.4 35.8 151.4 31.1 176 50.1 176 57.2 168.9"/>
        <polygon class="cls-2" points="198.2 71.6 198.2 68.2 196.5 69.9 198.2 71.6"/>
        <polygon class="cls-2" points="196.2 109.1 198.2 107.1 198.2 72.3 196.2 70.2 176.7 89.7 196.2 109.1"/>
        <polygon class="cls-2" points="196.5 109.5 198.2 111.2 198.2 107.8 196.5 109.5"/>
        <path class="cls-2" d="M196.2,148.7l2-2c0-.8,0-1.6,0-2.4v-32.4l-2.1-2.1-19.4,19.4,19.4,19.4Z"/>
        <path class="cls-2" d="M196.2,149.4l-19.4,19.4,6.3,6.3c8.6-4.2,13.5-12.2,14.8-24.1l-1.7-1.7Z"/>
        <path class="cls-2" d="M182.6,175.4l-6.2-6.2-9.3,9.3c6.1-.1,11.3-1.2,15.5-3.1Z"/>
        <polygon class="cls-2" points="136.4 89.7 117 70.2 102.8 84.4 102.8 95 117 109.1 136.4 89.7"/>
        <path class="cls-2" d="M141.7,5.2h-6.7c-1.1,0-2.1,0-3.1,0l4.9,4.9,5-5Z"/>
        <polygon class="cls-2" points="67.7 158.4 70.9 143 57.6 129.6 38.1 149.1 57.6 168.5 67.7 158.4"/>
        <polygon class="cls-2" points="67.5 159.3 57.9 168.9 64.2 175.2 67.5 159.3"/>
        <polygon class="cls-2" points="96.8 10.5 94.1 7.8 60.6 7.8 57.9 10.5 77.4 29.9 96.8 10.5"/>
        <polygon class="cls-2" points="55.1 52.2 57.2 50.1 55.8 48.7 55.1 52.2"/>
        <polygon class="cls-2" points="77.4 69.5 88.4 58.5 91.3 44.6 77.4 30.6 57.9 50.1 77.4 69.5"/>
        <polygon class="cls-2" points="138.2 51.1 138.2 49 137.1 50.1 138.2 51.1"/>
        <polygon class="cls-2" points="57.6 10.1 59.9 7.8 55.2 7.8 57.6 10.1"/>
        <polygon class="cls-2" points="49.5 81.2 57.6 89.3 77 69.9 57.6 50.4 55 53.1 49.5 81.2"/>
        <polygon class="cls-2" points="13.1 35.6 32.1 35.6 37.4 30.3 18 10.8 13.1 15.7 13.1 35.6"/>
        <polygon class="cls-2" points="18 10.1 20.3 7.8 15.6 7.8 18 10.1"/>
        <polygon class="cls-2" points="37.8 29.9 57.2 10.5 54.5 7.8 21 7.8 18.3 10.5 37.8 29.9"/>
        <polygon class="cls-2" points="43.4 35.6 58.4 35.6 55.9 48.1 57.6 49.7 77 30.3 57.6 10.8 38.1 30.3 43.4 35.6"/>
        <polygon class="cls-2" points="64.1 175.8 57.6 169.2 50.8 176 64.1 176 64.1 175.8"/>
        <polygon class="cls-2" points="42.7 35.6 37.8 30.6 32.8 35.6 42.7 35.6"/>
        <polygon class="cls-2" points="37.4 149.1 36.5 148.1 36 150.5 37.4 149.1"/>
        <polygon class="cls-2" points="57.2 129.3 42.9 115 36.6 147.5 37.8 148.7 57.2 129.3"/>
        <path class="cls-2" d="M146.1,178.6l-9.4-9.4-8.9,8.9c2.2.3,4.6.5,7.2.5h11.1Z"/>
        <polygon class="cls-2" points="116.6 69.9 102.8 56.1 102.8 83.7 116.6 69.9"/>
        <path class="cls-2" d="M136.8,49.7l1.4-1.4v-13.3c0-1.4.4-2.6,1.3-3.6,1-1,2.3-1.6,3.6-1.6h12.7l-19-19-19.4,19.4,19.4,19.4Z"/>
        <path class="cls-2" d="M156.6,29.9l19.4-19.4-5.1-5.1c-1.6-.1-3.2-.2-4.9-.2h-23.6l-5.3,5.3,19.4,19.4h.1Z"/>
        <path class="cls-2" d="M127.3,178l9.1-9.1-19.4-19.4-11.6,11.6c3.6,9.6,10.9,15.3,21.9,17Z"/>
        <polygon class="cls-2" points="136.8 89.3 138.2 87.9 138.2 51.8 136.8 50.4 117.3 69.9 136.8 89.3"/>
        <polygon class="cls-2" points="116.6 109.5 102.8 95.7 102.8 123.3 116.6 109.5"/>
        <path class="cls-2" d="M117,29.9l19.4-19.4-5.2-5.2c-11.9.8-20.1,5.6-24.5,14.4l10.2,10.2Z"/>
        <polygon class="cls-2" points="77.7 110.2 77.4 109.8 57.9 129.3 71 142.4 77.7 110.2"/>
        <polygon class="cls-2" points="98.8 8.6 98.9 7.8 94.8 7.8 97.2 10.1 98.8 8.6"/>
        <polygon class="cls-2" points="98.6 9.4 97.5 10.5 98.2 11.2 98.6 9.4"/>
        <polygon class="cls-2" points="84.6 76.8 88.2 59.4 77.7 69.9 84.6 76.8"/>
        <polygon class="cls-2" points="91.4 44 98.1 11.8 97.2 10.8 77.7 30.3 91.4 44"/>
        <polygon class="cls-2" points="77.4 109.1 78.1 108.4 84.5 77.4 77.4 70.2 57.9 89.7 77.4 109.1"/>
        <polygon class="cls-2" points="77.8 109.6 77.9 109.3 77.7 109.5 77.8 109.6"/>
      </g>
      <path class="cls-2" d="M238.9,8.6h5l-19.6,32.4h-5l19.6-32.4ZM221.6,25.1h-1.2c-4.1,0-6.2-2.2-6.2-6.6v-3.8c0-4.4,2.1-6.6,6.2-6.6h1.2c4.1,0,6.2,2.2,6.2,6.6v3.8c0,4.4-2.1,6.6-6.2,6.6ZM219.3,21c0,.3,0,.5.2.7.2.2.4.3.7.3h1.6c.3,0,.5-.1.6-.3.2-.2.3-.4.3-.7v-8.8c0-.3-.1-.5-.3-.7-.2-.2-.4-.3-.6-.3h-1.6c-.3,0-.5.1-.7.3-.2.2-.2.4-.2.7v8.8ZM242.6,24.5c4.1,0,6.2,2.2,6.2,6.6v3.8c0,4.4-2.1,6.6-6.2,6.6h-1.2c-4.1,0-6.2-2.2-6.2-6.6v-3.8c0-4.4,2.1-6.6,6.2-6.6h1.2ZM243.8,37.4v-8.8c0-.3-.1-.5-.3-.7-.2-.2-.4-.3-.7-.3h-1.5c-.3,0-.5.1-.7.3-.2.2-.2.4-.2.7v8.8c0,.3,0,.5.2.7.2.2.4.3.7.3h1.5c.3,0,.5-.1.7-.3.2-.2.3-.4.3-.7Z"/>
    </g>
  </g>
</svg>