<svg width="15" height="18" viewBox="0 0 15 18" fill="none" xmlns="http://www.w3.org/2000/svg">
<path d="M3.14062 17.6875C2.27604 17.6875 1.61719 17.4635 1.16406 17.0156C0.716146 16.5729 0.492188 15.9219 0.492188 15.0625V7.45312C0.492188 6.59375 0.716146 5.94271 1.16406 5.5C1.61719 5.05208 2.27604 4.82812 3.14062 4.82812H5.34375V6.57031H3.28125C2.9375 6.57031 2.67448 6.65885 2.49219 6.83594C2.3151 7.00781 2.22656 7.27344 2.22656 7.63281V14.8828C2.22656 15.2422 2.3151 15.5104 2.49219 15.6875C2.67448 15.8646 2.9375 15.9531 3.28125 15.9531H12.0078C12.3464 15.9531 12.6068 15.8646 12.7891 15.6875C12.9714 15.5104 13.0625 15.2422 13.0625 14.8828V7.63281C13.0625 7.27344 12.9714 7.00781 12.7891 6.83594C12.6068 6.65885 12.3464 6.57031 12.0078 6.57031H9.95312V4.82812H12.1562C13.0208 4.82812 13.6771 5.05208 14.125 5.5C14.5781 5.94792 14.8047 6.59896 14.8047 7.45312V15.0625C14.8047 15.9167 14.5781 16.5677 14.125 17.0156C13.6771 17.4635 13.0208 17.6875 12.1562 17.6875H3.14062ZM7.64062 12.6797C7.53646 12.6797 7.4349 12.6615 7.33594 12.625C7.23698 12.5833 7.13281 12.5104 7.02344 12.4062L4.41406 9.89062C4.26823 9.74479 4.19531 9.58073 4.19531 9.39844C4.19531 9.19531 4.26302 9.03125 4.39844 8.90625C4.53906 8.78125 4.70573 8.71875 4.89844 8.71875C5.11198 8.71875 5.28906 8.79688 5.42969 8.95312L6.46094 10.0469L6.94531 10.6328L6.84375 9.47656V1.47656C6.84375 1.26302 6.92188 1.07812 7.07812 0.921875C7.23438 0.765625 7.42188 0.6875 7.64062 0.6875C7.86979 0.6875 8.0599 0.765625 8.21094 0.921875C8.36719 1.07812 8.44531 1.26302 8.44531 1.47656V9.47656L8.35156 10.6328L8.82812 10.0469L9.86719 8.95312C10.0078 8.79688 10.1823 8.71875 10.3906 8.71875C10.5781 8.71875 10.7422 8.78125 10.8828 8.90625C11.0234 9.03125 11.0938 9.19531 11.0938 9.39844C11.0938 9.58073 11.0208 9.74479 10.875 9.89062L8.26562 12.4062C8.16146 12.5104 8.05729 12.5833 7.95312 12.625C7.85417 12.6615 7.75 12.6797 7.64062 12.6797Z" fill="white"/>
</svg>
