<?xml version="1.0" encoding="UTF-8"?>
<svg id="Layer_2" xmlns="http://www.w3.org/2000/svg" viewBox="0 0 184.25 184.25">
  <defs>
    <style>
      .cls-1 {
        fill: none;
      }

      .cls-2 {
        fill: #8e8e93;
      }
    </style>
  </defs>
  <g id="Layer_1-2" data-name="Layer_1">
    <path class="cls-2" d="M88.1,13.88C43.4,13.88,7.16,50.11,7.16,94.82s36.24,80.94,80.94,80.94,80.94-36.24,80.94-80.94S132.8,13.88,88.1,13.88ZM46.33,55.48c.91-1.43,2.81-1.86,4.24-.95l6.81,4.32c1.43.91,1.86,2.81.95,4.24s-2.81,1.86-4.24.95l-6.81-4.32c-1.43-.91-1.86-2.81-.95-4.24ZM65.85,76.69h-10.04c-2.97,0-5.26-2.87-4.26-5.98.73-2.26,3.32-3.23,5.55-2.44,1.27.45,2.55.59,3.73.55,1.18.03,2.46-.1,3.73-.55,2.24-.8,4.83.17,5.55,2.44,1,3.11-1.3,5.98-4.26,5.98ZM74.38,59.72l-6.81,4.32c-1.43.91-3.33.48-4.24-.95s-.48-3.33.95-4.24l6.81-4.32c1.43-.91,3.33-.48,4.24.95s.48,3.33-.95,4.24Z"/>
    <rect class="cls-1" width="184.25" height="184.25"/>
  </g>
</svg>