<?xml version="1.0" encoding="UTF-8"?>
<svg xmlns="http://www.w3.org/2000/svg" version="1.1" viewBox="0 0 265 180">
  <defs>
    <style>
      .cls-1 {
        fill: none;
      }

      .cls-2 {
        fill: #c59f7b;
      }
    </style>
  </defs>
  <!-- Generator: Adobe Illustrator 28.7.1, SVG Export Plug-In . SVG Version: 1.2.0 Build 142)  -->
  <g>
    <g id="Layer_1">
      <rect class="cls-1" width="265" height="180"/>
      <path class="cls-2" d="M252.9,8.6h5l-19.6,32.4h-5l19.6-32.4ZM235.6,25.1h-1.2c-4.1,0-6.2-2.2-6.2-6.6v-3.8c0-4.4,2.1-6.6,6.2-6.6h1.2c4.1,0,6.2,2.2,6.2,6.6v3.8c0,4.4-2.1,6.6-6.2,6.6ZM233.3,21c0,.3,0,.5.2.7.2.2.4.3.7.3h1.6c.3,0,.5-.1.6-.3.2-.2.3-.4.3-.7v-8.8c0-.3-.1-.5-.3-.7-.2-.2-.4-.3-.6-.3h-1.6c-.3,0-.5.1-.7.3-.2.2-.2.4-.2.7v8.8ZM256.6,24.5c4.1,0,6.2,2.2,6.2,6.6v3.8c0,4.4-2.1,6.6-6.2,6.6h-1.2c-4.1,0-6.2-2.2-6.2-6.6v-3.8c0-4.4,2.1-6.6,6.2-6.6h1.2ZM257.8,37.4v-8.8c0-.3,0-.5-.3-.7-.2-.2-.4-.3-.6-.3h-1.6c-.3,0-.5.1-.7.3-.2.2-.2.4-.2.7v8.8c0,.3,0,.5.2.7.2.2.4.3.7.3h1.6c.3,0,.5-.1.6-.3.2-.2.3-.4.3-.7Z"/>
      <g>
        <path class="cls-2" d="M39.3,81.8l7.9,7.9,8.5-8.5h-8c-3,0-5.8.2-8.4.7Z"/>
        <path class="cls-2" d="M73.5,38.7v24.6l12.9-12.9-13.2-13.2c.2.5.3,1,.3,1.5Z"/>
        <path class="cls-2" d="M73.5,64v11.9c0,.1,0,.3,0,.4l13.3,13.3,19.4-19.4-19.4-19.4-13.3,13.3Z"/>
        <path class="cls-2" d="M48.8,127.6v-9.4c0-1.4.4-2.6,1.3-3.6,1-1,2.3-1.6,3.6-1.6h9.6l3.3-3.3-19.4-19.4-19.4,19.4,19.4,19.4,1.6-1.6Z"/>
        <path class="cls-2" d="M146.5,30.6l3.7,3.7c.8-.5,1.6-.7,2.6-.7h16.9c1.4,0,2.5.5,3.4,1.6,1,1,1.6,2.3,1.6,3.6v2.7l10.8-10.8-19.4-19.4-19.4,19.4Z"/>
        <path class="cls-2" d="M106.5,69.8l.5-.5v-29.9c0-3-.2-5.8-.6-8.4l-19.3,19.3,19.4,19.4Z"/>
        <polygon class="cls-2" points="147.8 68.9 146.5 70.2 147.8 71.5 147.8 68.9"/>
        <path class="cls-2" d="M147.5,5.2c-8.7,0-15.7,1.9-20.8,5.6l19.4,19.4,19.4-19.4-5.6-5.6h-12.4Z"/>
        <polygon class="cls-2" points="185.7 31 174.6 42.1 174.6 52 203.6 52 205.2 50.4 185.7 31"/>
        <path class="cls-2" d="M118,161.2c1.5,3.9,3.6,7.1,6.3,9.7l1.7-1.7-8-8Z"/>
        <polygon class="cls-2" points="115.3 118.9 115.3 140.3 126 129.6 115.3 118.9"/>
        <polygon class="cls-2" points="104.9 151.4 87.1 169.2 93.9 176 104.9 176 104.9 151.4"/>
        <polygon class="cls-2" points="145.8 109.8 126.3 90.4 115.3 101.4 115.3 118.2 126.3 129.2 145.8 109.8"/>
        <polygon class="cls-2" points="104.9 150.7 104.9 148.1 102.9 146.1 70.6 146.1 67.3 149.4 86.7 168.8 104.9 150.7"/>
        <polygon class="cls-2" points="93.2 176 86.7 169.5 80.3 176 93.2 176"/>
        <polygon class="cls-2" points="69.9 146.1 64 146.1 66.9 149 69.9 146.1"/>
        <polygon class="cls-2" points="48.8 128.3 47.5 129.6 48.8 130.9 48.8 128.3"/>
        <path class="cls-2" d="M27,30.6l-9.9-9.9c-2.3,5-3.5,11.3-3.5,18.8v4.4l13.3-13.3Z"/>
        <path class="cls-2" d="M46.8,90l-8.1-8.1c-10.7,2-17.7,8-21,17.9l9.6,9.6,19.4-19.4Z"/>
        <path class="cls-2" d="M17.5,100.3c-1.4,4.3-2,9.3-2,15.1v5.9l11.5-11.5-9.5-9.5Z"/>
        <polygon class="cls-2" points="104.9 147.4 104.9 146.1 103.6 146.1 104.9 147.4"/>
        <path class="cls-2" d="M186.1,30.6l19.4,19.4,2.3-2.3v-8.2c0-10.4-2.2-18.4-6.6-24l-15.1,15.1Z"/>
        <path class="cls-2" d="M66.9,109.4l19.4-19.4-13-13c-.2,1-.7,1.8-1.4,2.6-.9,1-2,1.6-3.4,1.6h-12.1l-8.9,8.9,19.4,19.4Z"/>
        <path class="cls-2" d="M185.7,30.2l15.2-15.2c-5.3-6.6-13.8-9.9-25.3-9.9h-3.7l-5.6,5.6,19.4,19.4Z"/>
        <path class="cls-2" d="M165.6,90l-14-14c-1.3.4-2.6.9-3.8,1.5v-5.2l-1.7-1.7-19.4,19.4,19.4,19.4,19.4-19.4Z"/>
        <polygon class="cls-2" points="66.9 149.7 47.5 169.2 54.3 176 79.6 176 86.4 169.2 66.9 149.7"/>
        <polygon class="cls-2" points="69.9 113.1 66.9 110.2 64 113.1 69.9 113.1"/>
        <polygon class="cls-2" points="145.8 70.2 126.3 50.8 115.3 61.8 115.3 78.6 126.3 89.6 145.8 70.2"/>
        <path class="cls-2" d="M115.3,39l11,11,19.4-19.4-19.4-19.4-4.8,4.8c-4.1,5.5-6.2,13.2-6.2,23.1Z"/>
        <path class="cls-2" d="M87.1,90l13.1,13.1c4.6-5.7,6.8-13.8,6.8-24.3v-7.8l-.5-.5-19.4,19.4Z"/>
        <polygon class="cls-2" points="126 50.4 115.3 39.7 115.3 61.1 126 50.4"/>
        <polygon class="cls-2" points="115.3 79.3 115.3 100.7 126 90 115.3 79.3"/>
        <polygon class="cls-2" points="106.9 70.2 107 70.3 107 70.1 106.9 70.2"/>
        <path class="cls-2" d="M67.3,109.8l3.3,3.3h4.2c11.4,0,19.7-3.2,25.1-9.6l-13.1-13.1-19.4,19.4Z"/>
        <path class="cls-2" d="M147.8,68.2v-29.5c0-1.4.4-2.6,1.3-3.6.2-.2.4-.4.6-.5l-3.6-3.6-19.4,19.4,19.4,19.4,1.7-1.7Z"/>
        <polygon class="cls-2" points="45.9 52 48.2 52 48.2 51.8 47.1 50.8 45.9 52"/>
        <polygon class="cls-2" points="47.1 169.5 40.7 176 53.6 176 47.1 169.5"/>
        <path class="cls-2" d="M206.5,88.6c-3.1-6.1-7.9-10.2-14.5-12.5l13.5,13.5,1-1Z"/>
        <polygon class="cls-2" points="27.3 149.7 15.5 161.6 15.5 176 40 176 46.8 169.2 27.3 149.7"/>
        <path class="cls-2" d="M146.1,149.7l-19.4,19.4,7.5,7.5c3.9,1.3,8.3,1.9,13.3,1.9h8.6l9.4-9.4-19.4-19.4Z"/>
        <polygon class="cls-2" points="165.9 169.5 156.9 178.6 175 178.6 165.9 169.5"/>
        <path class="cls-2" d="M206.8,89.1l-.9.9,2.1,2.1c-.4-1-.8-2.1-1.3-3Z"/>
        <path class="cls-2" d="M27.7,30.6l19.4,19.4,1.1-1.1v-10.2c0-1.4.4-2.6,1.3-3.6,1-1,2.3-1.6,3.6-1.6h10.5l2.9-2.9-19.4-19.4-19.4,19.4Z"/>
        <path class="cls-2" d="M66.9,30.2l19.4-19.4-5.2-5.2c-2-.3-4.1-.4-6.4-.4h-21.6l-5.6,5.6,19.4,19.4Z"/>
        <polygon class="cls-2" points="13.7 44.6 13.7 52 45.2 52 46.8 50.4 27.3 31 13.7 44.6"/>
        <path class="cls-2" d="M178.2,142.2c-.2,1.1-.6,2-1.5,2.9-.9,1-2,1.6-3.4,1.6h-20.5c-1,0-1.9-.3-2.7-.8l-3.6,3.6,19.4,19.4,19.4-19.4-7.2-7.2Z"/>
        <path class="cls-2" d="M17.3,20.2l10,10,19.4-19.4-5.4-5.4c-11.7,1-19.7,5.9-24,14.9Z"/>
        <path class="cls-2" d="M204,168.1l-18.3-18.3-19.4,19.4,9.4,9.4h2.5c11.9,0,20.5-3.5,25.8-10.5Z"/>
        <polygon class="cls-2" points="205.9 129.6 210.5 134.2 210.5 125 205.9 129.6"/>
        <path class="cls-2" d="M210.5,134.9l-4.9-4.9-19.4,19.4,18.3,18.3c4.1-5.6,6.1-13.4,6.1-23.4v-9.4Z"/>
        <path class="cls-2" d="M205.2,129.6l-19.4-19.4-7.5,7.5v23.8s0,0,0,0l7.5,7.5,19.4-19.4Z"/>
        <path class="cls-2" d="M210.5,124.3v-15.9c0-5.8-.7-10.9-2.1-15.2l-2.8-2.8-19.4,19.4,19.4,19.4,4.9-4.9Z"/>
        <path class="cls-2" d="M42,5.3l5.1,5.1,5.3-5.3h-6.5c-1.3,0-2.6,0-3.9.1Z"/>
        <path class="cls-2" d="M70.9,34.2c.3.2.7.5,1,.8.2.2.5.5.6.8l14.2,14.2,19.4-19.4-19.4-19.4-19.4,19.4,3.6,3.6Z"/>
        <path class="cls-2" d="M86.7,10.4l2.8-2.8c-2.3-.9-4.9-1.5-7.6-1.9l4.8,4.8Z"/>
        <polygon class="cls-2" points="48.2 51.1 48.2 49.7 47.5 50.4 48.2 51.1"/>
        <path class="cls-2" d="M106.3,30c-1.9-11.2-7.2-18.5-16.2-22.2l-3,3,19.2,19.2Z"/>
        <path class="cls-2" d="M64.4,33.5h4.1c.4,0,.8,0,1.1.1l-2.7-2.7-2.6,2.6Z"/>
        <path class="cls-2" d="M181.4,74.2c-1,0-2.1,0-3.2,0h-13c-4.9,0-9.3.6-13.1,1.7l13.8,13.8,15.5-15.5Z"/>
        <polygon class="cls-2" points="205.5 50.8 204.3 52 206.8 52 205.5 50.8"/>
        <polygon class="cls-2" points="205.9 50.4 207.5 52 207.9 52 207.9 48.4 205.9 50.4"/>
        <polygon class="cls-2" points="165.9 10.4 171.2 5.2 160.7 5.2 165.9 10.4"/>
        <polygon class="cls-2" points="27 149.4 15.5 137.9 15.5 160.9 27 149.4"/>
        <path class="cls-2" d="M126.3,130l-11,11v3.3c0,6.1.8,11.3,2.3,15.8l8.8,8.8,19.4-19.4-19.4-19.4Z"/>
        <path class="cls-2" d="M149.7,145.5c-.2-.1-.4-.3-.6-.5-.9-1-1.3-2.3-1.3-3.6v-29.6l-1.7-1.7-19.4,19.4,19.4,19.4,3.5-3.5Z"/>
        <path class="cls-2" d="M185.4,109.8l-19.4-19.4-19.4,19.4,1.3,1.3c0-1.3.5-2.5,1.3-3.5,1-1,2.3-1.6,3.6-1.6h20.5c1.4,0,2.5.5,3.4,1.6,1,1,1.6,2.3,1.6,3.6v5.7l7.2-7.2Z"/>
        <polygon class="cls-2" points="66.6 149.4 63.3 146.1 48.8 146.1 48.8 131.6 47.1 130 27.7 149.4 47.1 168.8 66.6 149.4"/>
        <path class="cls-2" d="M205.2,90l-14.2-14.2c-2.7-.8-5.6-1.3-8.9-1.6l-15.8,15.8,19.4,19.4,19.4-19.4Z"/>
        <polygon class="cls-2" points="46.8 129.6 27.3 110.2 15.5 122 15.5 137.2 27.3 149 46.8 129.6"/>
        <path class="cls-2" d="M126.3,169.5l-1.7,1.7c2.4,2.2,5.2,3.9,8.5,5.1l-6.8-6.8Z"/>
      </g>
    </g>
  </g>
</svg>