<?xml version="1.0" encoding="UTF-8"?>
<svg xmlns="http://www.w3.org/2000/svg" version="1.1" viewBox="0 0 267 180">
  <defs>
    <style>
      .cls-1 {
        fill: none;
      }

      .cls-2 {
        fill: #c59f7b;
      }
    </style>
  </defs>
  <!-- Generator: Adobe Illustrator 28.7.1, SVG Export Plug-In . SVG Version: 1.2.0 Build 142)  -->
  <g>
    <g id="Layer_1">
      <rect class="cls-1" x=".5" width="266" height="180"/>
      <path class="cls-2" d="M254.4,8.6h5l-19.6,32.4h-5l19.6-32.4ZM237.1,25.1h-1.2c-4.1,0-6.2-2.2-6.2-6.6v-3.8c0-4.4,2.1-6.6,6.2-6.6h1.2c4.1,0,6.2,2.2,6.2,6.6v3.8c0,4.4-2.1,6.6-6.2,6.6ZM234.8,21c0,.3,0,.5.2.7.2.2.4.3.7.3h1.6c.3,0,.5-.1.6-.3.2-.2.3-.4.3-.7v-8.8c0-.3-.1-.5-.3-.7-.2-.2-.4-.3-.6-.3h-1.6c-.3,0-.5.1-.7.3-.2.2-.2.4-.2.7v8.8ZM258.1,24.5c4.1,0,6.2,2.2,6.2,6.6v3.8c0,4.4-2.1,6.6-6.2,6.6h-1.2c-4.1,0-6.2-2.2-6.2-6.6v-3.8c0-4.4,2.1-6.6,6.2-6.6h1.2ZM259.3,37.4v-8.8c0-.3,0-.5-.3-.7-.2-.2-.4-.3-.6-.3h-1.6c-.3,0-.5.1-.7.3-.2.2-.3.4-.3.7v8.8c0,.3,0,.5.3.7.2.2.4.3.7.3h1.6c.3,0,.5-.1.6-.3.2-.2.3-.4.3-.7Z"/>
      <g>
        <path class="cls-2" d="M31.3,107.2c4.2,1.6,9.2,2.5,15,2.5h21.2l-19.3-19.3-16.9,16.9Z"/>
        <path class="cls-2" d="M76.7,61.8v12c0,1.3-.5,2.4-1.4,3.4l12.4,12.4,19.4-19.4-19.4-19.4-11.1,11.1Z"/>
        <path class="cls-2" d="M67.9,109.4l19.4-19.4-12.4-12.4c-.8.9-1.9,1.4-3.2,1.4h-12.3l-11,11,19.4,19.4Z"/>
        <polygon class="cls-2" points="76.7 61.1 87.4 50.4 76.7 39.7 76.7 61.1"/>
        <path class="cls-2" d="M148.9,5.2c-8.8,0-15.8,1.9-21.1,5.8l19.3,19.3,19.4-19.4-5.6-5.6h-12Z"/>
        <polygon class="cls-2" points="109.2 31.9 109.2 29.3 107.9 30.6 109.2 31.9"/>
        <polygon class="cls-2" points="88.1 50.4 107.5 69.8 109.2 68.2 109.2 32.6 107.5 31 88.1 50.4"/>
        <polygon class="cls-2" points="107.9 149.4 109.2 150.7 109.2 148.1 107.9 149.4"/>
        <path class="cls-2" d="M182.4,74.2c-.9,0-1.9,0-2.8,0h-13c-5.1,0-9.5.6-13.4,1.8l13.7,13.7,15.5-15.5Z"/>
        <polygon class="cls-2" points="146.8 109.8 127.3 90.4 116.7 101 116.7 118.6 127.3 129.2 146.8 109.8"/>
        <path class="cls-2" d="M166.6,90l-13.9-13.9c-1.2.4-2.4.9-3.5,1.4v-4.9l-2-2-19.4,19.4,19.4,19.4,19.4-19.4Z"/>
        <polygon class="cls-2" points="107.2 149.4 87.7 130 76.7 141 76.7 157.8 87.7 168.8 107.2 149.4"/>
        <polygon class="cls-2" points="107.5 110.2 88.1 129.6 107.5 149 109.2 147.4 109.2 111.8 107.5 110.2"/>
        <polygon class="cls-2" points="94.2 176 87.7 169.5 81.3 176 94.2 176"/>
        <path class="cls-2" d="M147.5,30.6l3.8,3.8c.8-.6,1.8-.9,2.8-.9h16.9c1.4,0,2.5.5,3.4,1.6,1,1,1.6,2.3,1.6,3.6v2.3l10.4-10.4-19.4-19.4-19.4,19.4Z"/>
        <polygon class="cls-2" points="116.7 119.3 116.7 139.9 127 129.6 116.7 119.3"/>
        <polygon class="cls-2" points="107.5 70.6 88.1 90 107.5 109.4 109.2 107.8 109.2 72.2 107.5 70.6"/>
        <polygon class="cls-2" points="186.7 31 176 41.7 176 52 204.6 52 206.2 50.4 186.7 31"/>
        <polygon class="cls-2" points="88.1 169.2 94.9 176 109.2 176 109.2 151.4 107.5 149.7 88.1 169.2"/>
        <path class="cls-2" d="M186.7,30.2l15.4-15.4c-5.4-6.4-13.7-9.7-25.1-9.7h-4.1l-5.6,5.6,19.4,19.4Z"/>
        <polygon class="cls-2" points="76.7 118.9 76.7 140.3 87.4 129.6 76.7 118.9"/>
        <path class="cls-2" d="M187.1,30.6l19.4,19.4,2.7-2.7v-7.8c0-10.5-2.3-18.6-6.8-24.3l-15.4,15.4Z"/>
        <path class="cls-2" d="M119.6,161.8c1.4,3.5,3.4,6.5,5.8,8.9l1.5-1.5-7.4-7.4Z"/>
        <polygon class="cls-2" points="109.2 108.5 107.9 109.8 109.2 111.1 109.2 108.5"/>
        <path class="cls-2" d="M149.2,67.8v-29.1c0-1.4.4-2.6,1.3-3.6.1-.1.3-.2.4-.4l-3.8-3.8-19.4,19.4,19.4,19.4,2-2Z"/>
        <polygon class="cls-2" points="149.2 68.5 147.5 70.2 149.2 71.9 149.2 68.5"/>
        <path class="cls-2" d="M146.8,30.6l-19.3-19.3c-7.2,5.6-10.8,14.9-10.8,28.1l10.7,10.7,19.4-19.4Z"/>
        <polygon class="cls-2" points="146.8 70.2 127.3 50.8 116.7 61.4 116.7 79 127.3 89.6 146.8 70.2"/>
        <polygon class="cls-2" points="107.2 109.8 87.7 90.4 68.4 109.7 76.7 109.7 76.7 118.2 87.7 129.2 107.2 109.8"/>
        <polygon class="cls-2" points="107.9 70.2 109.2 71.5 109.2 68.9 107.9 70.2"/>
        <polygon class="cls-2" points="116.7 79.7 116.7 100.3 127 90 116.7 79.7"/>
        <polygon class="cls-2" points="127 50.4 116.7 40.1 116.7 60.7 127 50.4"/>
        <polygon class="cls-2" points="166.9 169.5 157.9 178.6 176 178.6 166.9 169.5"/>
        <path class="cls-2" d="M147.1,149.7l-19.4,19.4,7.3,7.3c4,1.4,8.6,2.1,13.9,2.1h8.3l9.4-9.4-19.4-19.4Z"/>
        <path class="cls-2" d="M179.5,142.5c-.2.9-.7,1.8-1.4,2.6-.9,1-2,1.6-3.4,1.6h-20.5c-1.1,0-2-.3-2.9-.9l-3.7,3.7,19.4,19.4,19.4-19.4-6.9-6.9Z"/>
        <polygon class="cls-2" points="46.3 48.2 46.3 13 28.7 30.6 46.3 48.2"/>
        <path class="cls-2" d="M206.2,129.6l-19.4-19.4-7.1,7.1v24.1c0,.2,0,.3,0,.4l7.2,7.2,19.4-19.4Z"/>
        <path class="cls-2" d="M14.6,83.6l13.4-13.4-14-14v19.2c0,2.9.2,5.7.5,8.3Z"/>
        <polygon class="cls-2" points="14 45.3 14 55.5 28.3 69.8 46.3 51.9 46.3 48.9 28.3 31 14 45.3"/>
        <polygon class="cls-2" points="28 30.6 14 16.6 14 44.6 28 30.6"/>
        <path class="cls-2" d="M211.8,135.3l-5.3-5.3-19.4,19.4,18.5,18.5c4.2-5.6,6.3-13.5,6.3-23.6v-9Z"/>
        <polygon class="cls-2" points="206.9 129.6 211.8 134.6 211.8 124.6 206.9 129.6"/>
        <path class="cls-2" d="M205.3,168.3l-18.5-18.5-19.4,19.4,9.4,9.4h2.9c11.8,0,20.3-3.4,25.7-10.3Z"/>
        <polygon class="cls-2" points="76.7 21.5 87.4 10.8 84.4 7.8 76.7 7.8 76.7 21.5"/>
        <polygon class="cls-2" points="46.3 8.6 46.3 7.8 45.5 7.8 46.3 8.6"/>
        <path class="cls-2" d="M211.8,123.9v-15.5c0-5.6-.6-10.4-1.9-14.7l-3.4-3.4-19.4,19.4,19.4,19.4,5.3-5.3Z"/>
        <polygon class="cls-2" points="14 15.9 28.3 30.2 46.3 12.3 46.3 9.3 44.8 7.8 14 7.8 14 15.9"/>
        <path class="cls-2" d="M14.7,84.3c1.7,11.5,7.1,19.1,16.1,22.8l17-17-19.4-19.4-13.7,13.7Z"/>
        <polygon class="cls-2" points="87.7 10.4 90.4 7.8 85.1 7.8 87.7 10.4"/>
        <polygon class="cls-2" points="76.7 39 87.7 50 107.2 30.6 87.7 11.2 76.7 22.2 76.7 39"/>
        <path class="cls-2" d="M28.7,70.2l19.4,19.4,10.6-10.6h-7.6c-1.4,0-2.6-.5-3.6-1.6-.9-1-1.3-2.3-1.3-3.6v-21.2l-17.6,17.6Z"/>
        <polygon class="cls-2" points="206.9 50.4 208.5 52 209.2 52 209.2 48 206.9 50.4"/>
        <polygon class="cls-2" points="206.5 50.8 205.3 52 207.8 52 206.5 50.8"/>
        <polygon class="cls-2" points="166.9 10.4 172.2 5.2 161.7 5.2 166.9 10.4"/>
        <path class="cls-2" d="M208,88.9l-1.1,1.1,2.7,2.7c-.5-1.4-1-2.6-1.6-3.9Z"/>
        <polygon class="cls-2" points="107.5 30.2 109.2 28.6 109.2 7.8 91.1 7.8 88.1 10.8 107.5 30.2"/>
        <path class="cls-2" d="M206.2,90l-14.4-14.4c-2.6-.8-5.5-1.2-8.7-1.4l-15.8,15.8,19.4,19.4,19.4-19.4Z"/>
        <polygon class="cls-2" points="76.7 158.5 76.7 176 80.6 176 87.4 169.2 76.7 158.5"/>
        <path class="cls-2" d="M186.4,109.8l-19.4-19.4-19.4,19.4,1.7,1.7v-.2c0-1.4.4-2.6,1.3-3.6,1-1,2.3-1.6,3.6-1.6h20.5c1.4,0,2.5.5,3.4,1.6,1,1,1.6,2.3,1.6,3.6v5.3l6.8-6.8Z"/>
        <path class="cls-2" d="M207.8,88.4c-3.1-6.1-8.1-10.3-15-12.5l13.7,13.7,1.3-1.3Z"/>
        <path class="cls-2" d="M127.3,169.5l-1.5,1.5c2.3,2.1,5,3.8,8.1,5l-6.5-6.5Z"/>
        <path class="cls-2" d="M127.3,130l-10.7,10.7v3.7c0,6.3.8,11.8,2.5,16.4l8.2,8.2,19.4-19.4-19.4-19.4Z"/>
        <path class="cls-2" d="M150.8,145.4c-.1,0-.2-.2-.3-.3-.9-1-1.3-2.3-1.3-3.6v-29.2l-2-2-19.4,19.4,19.4,19.4,3.7-3.7Z"/>
      </g>
    </g>
  </g>
</svg>