<?xml version="1.0" encoding="UTF-8"?>
<svg xmlns="http://www.w3.org/2000/svg" version="1.1" viewBox="0 0 265 180">
  <defs>
    <style>
      .cls-1 {
        fill: none;
      }

      .cls-2 {
        fill: #c59f7b;
      }
    </style>
  </defs>
  <!-- Generator: Adobe Illustrator 28.7.1, SVG Export Plug-In . SVG Version: 1.2.0 Build 142)  -->
  <g>
    <g id="Layer_1">
      <rect class="cls-1" width="265" height="180"/>
      <path class="cls-2" d="M252.9,8.6h5l-19.6,32.4h-5l19.6-32.4ZM235.6,25.1h-1.2c-4.1,0-6.2-2.2-6.2-6.6v-3.8c0-4.4,2.1-6.6,6.2-6.6h1.2c4.1,0,6.2,2.2,6.2,6.6v3.8c0,4.4-2.1,6.6-6.2,6.6ZM233.3,21c0,.3,0,.5.2.7.2.2.4.3.7.3h1.6c.3,0,.5-.1.6-.3.2-.2.3-.4.3-.7v-8.8c0-.3-.1-.5-.3-.7-.2-.2-.4-.3-.6-.3h-1.6c-.3,0-.5.1-.7.3-.2.2-.2.4-.2.7v8.8ZM256.6,24.5c4.1,0,6.2,2.2,6.2,6.6v3.8c0,4.4-2.1,6.6-6.2,6.6h-1.2c-4.1,0-6.2-2.2-6.2-6.6v-3.8c0-4.4,2.1-6.6,6.2-6.6h1.2ZM257.8,37.4v-8.8c0-.3,0-.5-.3-.7-.2-.2-.4-.3-.6-.3h-1.6c-.3,0-.5.1-.7.3-.2.2-.2.4-.2.7v8.8c0,.3,0,.5.2.7.2.2.4.3.7.3h1.6c.3,0,.5-.1.6-.3.2-.2.3-.4.3-.7Z"/>
      <g>
        <polygon class="cls-2" points="87.1 50.4 106.5 69.8 108.6 67.8 108.6 33 106.5 31 87.1 50.4"/>
        <polygon class="cls-2" points="76.1 60.7 86.4 50.4 76.1 40.1 76.1 60.7"/>
        <polygon class="cls-2" points="129.7 7.8 126.7 10.8 146.1 30.2 165.6 10.8 162.6 7.8 129.7 7.8"/>
        <path class="cls-2" d="M76.1,61.4v12.4c0,1.4-.5,2.6-1.5,3.6l12.2,12.2,19.4-19.4-19.4-19.4-10.7,10.7Z"/>
        <polygon class="cls-2" points="146.5 30.6 151.5 35.6 180.4 35.6 185.4 30.6 165.9 11.2 146.5 30.6"/>
        <polygon class="cls-2" points="108.6 32.3 108.6 28.9 106.9 30.6 108.6 32.3"/>
        <polygon class="cls-2" points="126.3 50 145.8 30.6 126.3 11.2 113.2 24.3 113.2 36.9 126.3 50"/>
        <polygon class="cls-2" points="126.3 10.4 129 7.8 123.7 7.8 126.3 10.4"/>
        <polygon class="cls-2" points="106.5 110.2 87.1 129.6 106.5 149 108.6 147 108.6 112.2 106.5 110.2"/>
        <path class="cls-2" d="M66.9,109.4l19.4-19.4-12.2-12.2c-.8.8-1.8,1.2-3.1,1.2h-12.6l-11,11,19.4,19.4Z"/>
        <polygon class="cls-2" points="115 131.8 115 140.6 123.8 131.8 115 131.8"/>
        <polygon class="cls-2" points="106.9 149.4 108.6 151.1 108.6 147.7 106.9 149.4"/>
        <polygon class="cls-2" points="93.2 176 86.7 169.5 80.3 176 93.2 176"/>
        <path class="cls-2" d="M30.4,107.1c4.3,1.7,9.4,2.6,15.3,2.6h20.9l-19.3-19.3-16.8,16.8Z"/>
        <path class="cls-2" d="M147.4,68.6c-.6-.9-.9-1.9-.9-3.1v-29.9h4.3l-4.6-4.6-19.4,19.4,19.4,19.4,1.3-1.3Z"/>
        <polygon class="cls-2" points="76.1 119.3 76.1 139.9 86.4 129.6 76.1 119.3"/>
        <polygon class="cls-2" points="108.6 107.4 108.6 72.6 106.5 70.6 87.1 90 106.5 109.4 108.6 107.4"/>
        <polygon class="cls-2" points="106.2 109.8 86.7 90.4 67.4 109.7 76.1 109.7 76.1 118.6 86.7 129.2 106.2 109.8"/>
        <polygon class="cls-2" points="126 10.8 123 7.8 113.2 7.8 113.2 23.6 126 10.8"/>
        <polygon class="cls-2" points="87.1 169.2 93.9 176 108.6 176 108.6 151.8 106.5 149.7 87.1 169.2"/>
        <polygon class="cls-2" points="166.3 10.8 185.7 30.2 201.6 14.4 201.6 7.8 169.3 7.8 166.3 10.8"/>
        <path class="cls-2" d="M117.5,160.7c1.5,4.2,3.7,7.6,6.6,10.3l1.9-1.9-8.5-8.5Z"/>
        <polygon class="cls-2" points="181.1 35.6 190.4 35.6 185.7 31 181.1 35.6"/>
        <polygon class="cls-2" points="113.2 63.2 126 50.4 113.2 37.6 113.2 63.2"/>
        <path class="cls-2" d="M146.1,70.6l-19.4,19.4,12.3,12.3c2,.3,4.2.4,6.5.4h7.5l12.7-12.7-19.4-19.4Z"/>
        <path class="cls-2" d="M126.3,50.8l-13.1,13.1v4.5c0,3.1.2,6.1.6,8.8l12.5,12.5,19.4-19.4-19.4-19.4Z"/>
        <path class="cls-2" d="M114,78c1.2,7,3.7,12.4,7.6,16.5l4.4-4.4-12-12Z"/>
        <polygon class="cls-2" points="106.9 70.2 108.6 71.9 108.6 68.5 106.9 70.2"/>
        <polygon class="cls-2" points="108.6 108.1 106.9 109.8 108.6 111.5 108.6 108.1"/>
        <path class="cls-2" d="M121.9,94.8c4,4,9.4,6.4,16.2,7.4l-11.8-11.8-4.4,4.4Z"/>
        <polygon class="cls-2" points="106.2 149.4 86.7 130 76.1 140.6 76.1 158.2 86.7 168.8 106.2 149.4"/>
        <path class="cls-2" d="M146.1,149.7l-19.4,19.4,7.6,7.6c3.8,1.2,8.1,1.8,12.9,1.8h8.9l9.4-9.4-19.4-19.4Z"/>
        <polygon class="cls-2" points="165.9 169.5 156.9 178.6 175 178.6 165.9 169.5"/>
        <polygon class="cls-2" points="76.1 21.1 86.4 10.8 83.4 7.8 76.1 7.8 76.1 21.1"/>
        <polygon class="cls-2" points="205.2 129.6 185.7 110.2 174.8 121.1 174.8 138.1 185.7 149 205.2 129.6"/>
        <path class="cls-2" d="M13.9,83.3l13.1-13.1-13.6-13.6v18.8c0,2.8.2,5.5.5,7.9Z"/>
        <polygon class="cls-2" points="45.6 48.5 45.6 12.7 27.7 30.6 45.6 48.5"/>
        <polygon class="cls-2" points="13.4 44.9 13.4 55.9 27.3 69.8 45.6 51.6 45.6 49.2 27.3 31 13.4 44.9"/>
        <path class="cls-2" d="M174.8,138.8v6.2c0,1.4-.5,2.6-1.6,3.6-.9,1-2,1.6-3.4,1.6h-15.3c-1.4,0-2.6-.5-3.6-1.6-.6-.8-1-1.6-1.2-2.5l-3.2,3.2,19.4,19.4,19.4-19.4-10.6-10.6Z"/>
        <path class="cls-2" d="M208.4,126.4v-21.4c0-5-.5-9.5-1.5-13.4l-1.3-1.3-19.4,19.4,19.4,19.4,2.8-2.8Z"/>
        <path class="cls-2" d="M202.8,166.8l-17.1-17.1-19.4,19.4,9.4,9.4h.4c12.6,0,21.5-3.9,26.7-11.8Z"/>
        <polygon class="cls-2" points="205.9 129.6 208.4 132.1 208.4 127.1 205.9 129.6"/>
        <path class="cls-2" d="M208.4,132.8l-2.8-2.8-19.4,19.4,17,17c3.5-5.5,5.3-12.9,5.3-22.1v-11.5Z"/>
        <polygon class="cls-2" points="45.6 8.9 45.6 7.8 44.5 7.8 45.6 8.9"/>
        <polygon class="cls-2" points="13.4 16.3 27.3 30.2 45.6 12 45.6 9.6 43.8 7.8 13.4 7.8 13.4 16.3"/>
        <polygon class="cls-2" points="27 30.6 13.4 17 13.4 44.2 27 30.6"/>
        <path class="cls-2" d="M206.1,89.1c-3-8.8-9-14.5-18-17l17.5,17.5.5-.5Z"/>
        <polygon class="cls-2" points="76.1 39.4 86.7 50 106.2 30.6 86.7 11.2 76.1 21.8 76.1 39.4"/>
        <path class="cls-2" d="M14,83.9c1.7,11.5,7,19.2,15.9,23l16.9-16.9-19.4-19.4-13.4,13.4Z"/>
        <polygon class="cls-2" points="86.7 10.4 89.4 7.8 84.1 7.8 86.7 10.4"/>
        <path class="cls-2" d="M27.7,70.2l19.4,19.4,10.6-10.6h-7.2c-1.4,0-2.6-.5-3.6-1.6-.9-1-1.3-2.3-1.3-3.6v-21.6l-17.9,17.9Z"/>
        <polygon class="cls-2" points="106.5 30.2 108.6 28.2 108.6 7.8 90.1 7.8 87.1 10.8 106.5 30.2"/>
        <polygon class="cls-2" points="186.1 30.6 191.1 35.6 201.6 35.6 201.6 15.1 186.1 30.6"/>
        <polygon class="cls-2" points="165.9 10.4 168.6 7.8 163.3 7.8 165.9 10.4"/>
        <path class="cls-2" d="M128.2,131.8h-3.7l-9.5,9.5v3c0,5.9.7,11,2.1,15.4l9.2,9.2,19.4-19.4-17.6-17.6Z"/>
        <path class="cls-2" d="M205.2,90l-18.1-18.1c-.7-.2-1.5-.3-2.2-.5l-18.6,18.6,19.4,19.4,19.4-19.4Z"/>
        <path class="cls-2" d="M185.4,109.8l-19.4-19.4-12.3,12.3h16.3c1.4,0,2.5.5,3.4,1.6,1,1,1.6,2.3,1.6,3.6v12.5l10.6-10.6Z"/>
        <polygon class="cls-2" points="76.1 158.9 76.1 176 79.6 176 86.4 169.2 76.1 158.9"/>
        <path class="cls-2" d="M184.3,71.3c-2.5-.4-5.2-.6-8.1-.6h-24.7c-1.4,0-2.6-.5-3.6-1.6,0,0,0,0,0-.1l-1.2,1.2,19.4,19.4,18.3-18.3Z"/>
        <path class="cls-2" d="M126.3,169.5l-1.8,1.8c2.5,2.2,5.4,3.9,8.8,5.1l-6.9-6.9Z"/>
        <path class="cls-2" d="M206.2,89.7l-.3.3.6.6c0-.3-.2-.7-.3-1Z"/>
        <path class="cls-2" d="M149.6,145.5c0-.2,0-.3,0-.5v-13.3h-20.7l17.2,17.2,3.5-3.5Z"/>
      </g>
    </g>
  </g>
</svg>