<?xml version="1.0" encoding="UTF-8"?>
<svg xmlns="http://www.w3.org/2000/svg" version="1.1" viewBox="0 0 253 180">
  <defs>
    <style>
      .cls-1 {
        fill: none;
      }

      .cls-2 {
        fill: #c59f7b;
      }
    </style>
  </defs>
  <!-- Generator: Adobe Illustrator 28.7.1, SVG Export Plug-In . SVG Version: 1.2.0 Build 142)  -->
  <g>
    <g id="Layer_1">
      <rect class="cls-1" width="253" height="180"/>
      <path class="cls-2" d="M240.9,8.6h5l-19.6,32.4h-5l19.6-32.4ZM223.6,25.1h-1.2c-4.1,0-6.2-2.2-6.2-6.6v-3.8c0-4.4,2.1-6.6,6.2-6.6h1.2c4.1,0,6.2,2.2,6.2,6.6v3.8c0,4.4-2.1,6.6-6.2,6.6ZM221.3,21c0,.3,0,.5.2.7.2.2.4.3.7.3h1.6c.3,0,.5-.1.6-.3.2-.2.3-.4.3-.7v-8.8c0-.3-.1-.5-.3-.7-.2-.2-.4-.3-.6-.3h-1.6c-.3,0-.5.1-.7.3-.2.2-.2.4-.2.7v8.8ZM244.6,24.5c4.1,0,6.2,2.2,6.2,6.6v3.8c0,4.4-2.1,6.6-6.2,6.6h-1.2c-4.1,0-6.2-2.2-6.2-6.6v-3.8c0-4.4,2.1-6.6,6.2-6.6h1.2ZM245.8,37.4v-8.8c0-.3-.1-.5-.3-.7-.2-.2-.4-.3-.7-.3h-1.5c-.3,0-.5.1-.7.3-.2.2-.2.4-.2.7v8.8c0,.3,0,.5.2.7.2.2.4.3.7.3h1.5c.3,0,.5-.1.7-.3.2-.2.3-.4.3-.7Z"/>
      <g>
        <path class="cls-2" d="M74.7,178.6c5,0,9.4-.6,13.2-1.9l-7.2-7.2-9.1,9.1h3Z"/>
        <path class="cls-2" d="M106,155.2l-5.4-5.4-19.4,19.4,7.4,7.4c9.5-3.2,15.3-10.4,17.5-21.4Z"/>
        <path class="cls-2" d="M100.9,149.4l5.2,5.2c.6-3.1.9-6.6.9-10.3v-1l-6.1,6.1Z"/>
        <path class="cls-2" d="M100.2,149.4l-19.4-19.4-7.3,7.3v7.8c0,1.4-.5,2.6-1.6,3.6-.9,1-2,1.6-3.4,1.6h-6.3l18.6,18.6,19.4-19.4Z"/>
        <polygon class="cls-2" points="54.2 102.7 67.7 102.7 80.4 90 61.1 70.7 60.8 70.7 41.5 90 54.2 102.7"/>
        <path class="cls-2" d="M30.7,100.8c3.9,1.3,8.3,1.9,13.3,1.9h9.4l-12.3-12.3-10.4,10.4Z"/>
        <polygon class="cls-2" points="48.2 131.8 43.7 131.8 48.2 136.3 48.2 131.8"/>
        <polygon class="cls-2" points="184.9 75.7 179.7 70.6 160.3 90 178.3 108 184.9 75.7"/>
        <polygon class="cls-2" points="180.1 70.2 185 75.2 187.6 62.7 180.1 70.2"/>
        <polygon class="cls-2" points="140.5 30.6 145.5 35.6 158.4 35.6 156.3 46.4 159.9 50 179.4 30.6 159.9 11.2 140.5 30.6"/>
        <polygon class="cls-2" points="149.8 80.2 145 104.6 159.6 90 149.8 80.2"/>
        <polygon class="cls-2" points="180.1 30.6 191.8 42.3 198 12.7 180.1 30.6"/>
        <polygon class="cls-2" points="179.4 70.2 159.9 50.8 154.4 56.3 149.9 79.6 159.9 89.6 179.4 70.2"/>
        <polygon class="cls-2" points="100.2 35.6 100.2 31.3 95.9 35.6 100.2 35.6"/>
        <polygon class="cls-2" points="160.3 50.4 179.7 69.8 187.8 61.8 191.7 42.9 179.7 31 160.3 50.4"/>
        <path class="cls-2" d="M100.2,109.8l-19.4-19.4-12.3,12.3h0c1.4,0,2.5.5,3.4,1.6,1,1,1.6,2.3,1.6,3.6v14l7.3,7.3,19.4-19.4Z"/>
        <path class="cls-2" d="M100.5,109.4l6.4-6.4c-.4-12.8-4.3-21.8-11.9-27l-14,14,19.4,19.4Z"/>
        <polygon class="cls-2" points="120.3 11.2 113.2 18.3 113.2 35.6 134.8 35.6 139.8 30.6 120.3 11.2"/>
        <polygon class="cls-2" points="113.2 17.6 120 10.8 117 7.8 113.2 7.8 113.2 17.6"/>
        <polygon class="cls-2" points="73.4 122.6 73.4 136.6 80.4 129.6 73.4 122.6"/>
        <polygon class="cls-2" points="61.5 150.3 60.4 150.3 41.5 169.2 50.9 178.6 71 178.6 80.4 169.2 61.5 150.3"/>
        <path class="cls-2" d="M94.7,75.7c-5.1-3.3-11.7-5-19.9-5h-12.9l18.9,18.9,13.9-13.9Z"/>
        <path class="cls-2" d="M13.6,142v2.3c0,4.2.4,8,1.1,11.4l6.3-6.3-7.4-7.4Z"/>
        <polygon class="cls-2" points="156.2 47 154.6 55.4 159.6 50.4 156.2 47"/>
        <polygon class="cls-2" points="156.6 7.8 123.7 7.8 120.7 10.8 140.1 30.2 159.6 10.8 156.6 7.8"/>
        <polygon class="cls-2" points="120.3 10.4 123 7.8 117.7 7.8 120.3 10.4"/>
        <polygon class="cls-2" points="107 142.6 107 116.6 100.5 110.2 81.1 129.6 100.5 149 107 142.6"/>
        <polygon class="cls-2" points="135.5 35.6 144.8 35.6 140.1 31 135.5 35.6"/>
        <path class="cls-2" d="M106.9,103.7l-6.1,6.1,6.1,6.1v-10.8c0-.4,0-.8,0-1.3Z"/>
        <polygon class="cls-2" points="80.7 10.4 83.4 7.8 78.1 7.8 80.7 10.4"/>
        <path class="cls-2" d="M21.3,149.7l-6.5,6.5c2.4,10.8,8.5,17.7,18.3,20.6l7.7-7.7-19.4-19.4Z"/>
        <path class="cls-2" d="M12.7,78.5l8.3-8.3-9.2-9.2v7.3c0,3.7.3,7.1.8,10.2Z"/>
        <path class="cls-2" d="M50.2,178.6l-9.1-9.1-7.5,7.5c3.6,1,7.7,1.5,12.2,1.5h4.3Z"/>
        <polygon class="cls-2" points="160.3 10.8 179.7 30.2 198.2 11.8 198.5 10.1 196.2 7.8 163.3 7.8 160.3 10.8"/>
        <polygon class="cls-2" points="157.3 7.8 159.9 10.4 162.6 7.8 157.3 7.8"/>
        <polygon class="cls-2" points="60.9 30.2 80.4 10.8 77.4 7.8 44.5 7.8 41.5 10.8 60.9 30.2"/>
        <polygon class="cls-2" points="21.7 30.6 41.1 50 45.1 46.1 45.1 35.6 55.6 35.6 60.6 30.6 41.1 11.2 21.7 30.6"/>
        <polygon class="cls-2" points="140.1 149.7 135.3 154.6 131.1 176 152.8 176 159.6 169.2 140.1 149.7"/>
        <polygon class="cls-2" points="21 30.6 11.8 21.4 11.8 39.8 21 30.6"/>
        <polygon class="cls-2" points="164.5 174.1 159.9 169.5 153.5 176 164.2 176 164.5 174.1"/>
        <polygon class="cls-2" points="11.8 20.7 21.3 30.2 40.8 10.8 37.8 7.8 11.8 7.8 11.8 20.7"/>
        <polygon class="cls-2" points="160.3 169.2 164.7 173.6 166.9 162.5 160.3 169.2"/>
        <polygon class="cls-2" points="171.3 141.3 159.9 130 140.5 149.4 159.9 168.8 167.1 161.7 171.3 141.3"/>
        <polygon class="cls-2" points="41.1 10.4 43.8 7.8 38.5 7.8 41.1 10.4"/>
        <polygon class="cls-2" points="11.8 40.5 11.8 60.3 21.3 69.8 40.8 50.4 21.3 31 11.8 40.5"/>
        <polygon class="cls-2" points="45.1 54 45.1 46.8 41.5 50.4 45.1 54"/>
        <polygon class="cls-2" points="56.3 35.6 65.6 35.6 60.9 31 56.3 35.6"/>
        <path class="cls-2" d="M21.7,70.2l19.4,19.4,18.9-18.9h-10.1c-1.4,0-2.6-.5-3.6-1.6-.9-1-1.3-2.3-1.3-3.6v-10.8l-3.9-3.9-19.4,19.4Z"/>
        <polygon class="cls-2" points="66.3 35.6 95.2 35.6 100.2 30.6 80.7 11.2 61.3 30.6 66.3 35.6"/>
        <polygon class="cls-2" points="100.2 29.9 100.2 7.8 84.1 7.8 81.1 10.8 100.2 29.9"/>
        <path class="cls-2" d="M12.8,79.1c2.2,11,8,18.2,17.4,21.5l10.6-10.6-19.4-19.4-8.6,8.6Z"/>
        <polygon class="cls-2" points="177.3 112.6 160.3 129.6 171.5 140.8 177.3 112.6"/>
        <polygon class="cls-2" points="177.5 111.7 178.1 108.5 159.9 90.4 144.9 105.4 143.4 112.7 159.9 129.2 177.5 111.7"/>
        <polygon class="cls-2" points="38.6 131.8 13.6 131.8 13.6 141.3 21.3 149 38.6 131.8"/>
        <polygon class="cls-2" points="198.6 9.5 199 7.8 196.9 7.8 198.6 9.5"/>
        <polygon class="cls-2" points="159.6 129.6 143.3 113.3 137 145.9 140.1 149 159.6 129.6"/>
        <polygon class="cls-2" points="136.9 146.5 135.5 153.7 139.8 149.4 136.9 146.5"/>
        <path class="cls-2" d="M59.7,150.3h-6.6c-1.4,0-2.6-.5-3.6-1.6-.9-1-1.3-2.3-1.3-3.6v-8l-5.2-5.2h-3.7l-17.6,17.6,19.4,19.4,18.6-18.6Z"/>
      </g>
    </g>
  </g>
</svg>