<?xml version="1.0" encoding="UTF-8"?>
<svg id="Layer_2" xmlns="http://www.w3.org/2000/svg" viewBox="0 0 311.81 311.81">
  <defs>
    <style>
      .cls-1 {
        fill: none;
      }

      .cls-2 {
        fill: #62aee0;
      }

      .cls-3 {
        fill: #fff;
      }
    </style>
  </defs>
  <g id="Layer_1-2" data-name="Layer_1">
    <path class="cls-3" d="M285.47,124.24c3.17-4.75,2.03-10.1-3.05-14.32-.31-.26-.39-.79-.18-1.29,2.05-5.07,2-9.21-.16-12.31-2.02-2.89-5.61-4.42-10.27-4.29-.32.01-.62.04-.93.08-.52.07-1.05.19-1.54.34-1.21.28-17.25,3.99-33.21,5.07-11.85-37.18-47.15-62.93-86.69-62.93-50.11,0-90.88,40.35-90.88,89.95,0,23.97,9.44,46.53,26.6,63.53,2.7,3.1,5.59,5.98,8.6,8.58l-13.54,60.29c-6.11,5.56-8.73,10.24-7.78,13.93.35,1.39,1.53,3.83,5.42,4.64l.23.05,33.19,1.54,11.55.14c.84.05,5.06.13,8.58-3.1,2.75-2.53,4.22-6.35,4.26-11.06l5.48-46.24c4.77.46,9.33.52,13.91.21l5.45,45.9c.05,4.86,1.48,8.63,4.27,11.19,3.05,2.81,6.65,3.11,8.06,3.11.17,0,.32,0,.45-.01l11.56-.15,33.21-1.56.49-.06c2.7-.58,4.6-2.27,5.2-4.61.94-3.69-1.69-8.38-7.82-13.95l-14.11-57.85c3.21-2.53,6.29-5.35,9.18-8.4,12.7-11.59,21.71-26.28,26.17-42.63,1.84.14,4.31.26,7.24.26,8.62,0,21.53-1.06,34.14-6.14.92-.37,1.77-.87,2.51-1.48,2.19-1.81,8.96-8.25,4.2-15.22-.1-.14-.14-.66.21-1.19Z"/>
    <g>
      <circle class="cls-2" cx="149.26" cy="132.19" r="82.04"/>
      <path d="M168.27,201.61c6.96-.63,11.1-2.87,12.35-6.71.67-2.04,2.52-3.75,5.09-4.7,4.62-1.71,6.33-5.77,4.81-11.41-.59-2.18.06-4.63,1.68-6.41,2.57-2.81,3.46-5.49,2.66-7.97-1.73-5.31-10.91-7.23-11.3-7.31-50.22-9.16-96.15-54-96.61-54.45l-1.73,1.75c.46.46,46.92,45.82,97.88,55.12,2.24.46,8.35,2.37,9.42,5.65.51,1.57-.21,3.43-2.13,5.54-2.19,2.39-3.05,5.73-2.24,8.71,1.17,4.37.07,7.21-3.28,8.46-3.28,1.22-5.68,3.5-6.58,6.25-.8,2.42-4.54,6.28-20.76,4.9-.49-.04-47.73-3.82-80.84-44.9l-1.92,1.55c33.81,41.94,82.09,45.78,82.57,45.81,4.2.36,7.85.4,10.94.11Z"/>
      <path d="M149.45,37.57c-48.45,0-87.88,39.01-87.88,86.95s39.42,86.95,87.88,86.95,87.88-39.01,87.88-86.95-39.42-86.95-87.88-86.95ZM224.63,128.51c.43.53,1.21.62,1.73.19l3.68-2.95,3.37,3.16c.24.22.54.33.84.33.14,0,.29-.04.43-.09-.2,3.57-.64,7.07-1.27,10.51l-1.83-2.6c-.35-.5-1.02-.67-1.57-.39l-5.15,2.63c-.61.31-.85,1.05-.54,1.66.31.61,1.05.85,1.66.54l4.2-2.14,2.56,3.62c-.61,2.69-1.34,5.32-2.21,7.91l-.64-1.45c-.25-.56-.87-.85-1.46-.69l-5.57,1.55c-.66.18-1.04.86-.86,1.52.18.65.85,1.04,1.52.86l4.54-1.26,1.26,2.87c-.96,2.5-2.03,4.95-3.21,7.34l-.09-.31c-.18-.59-.72-.97-1.36-.87l-5.72.84c-.67.1-1.14.73-1.04,1.4.1.67.71,1.14,1.4,1.04l4.66-.69.51,1.73c-14.48,26.31-42.69,44.2-75.04,44.2s-61.25-18.35-75.56-45.2l.22-.73,4.66.69c.7.1,1.3-.37,1.4-1.04.1-.67-.37-1.3-1.04-1.4l-5.72-.84c-.41-.07-.78.09-1.04.36-1.18-2.44-2.24-4.94-3.19-7.51l.83-1.88,4.54,1.26c.67.19,1.34-.2,1.52-.86.18-.65-.2-1.33-.86-1.52l-5.57-1.55c-.59-.18-1.21.13-1.46.69l-.18.41c-.81-2.53-1.49-5.11-2.05-7.73l1.94-2.76,4.2,2.14c.6.31,1.35.07,1.66-.54.31-.61.07-1.35-.54-1.66l-5.15-2.63c-.55-.28-1.22-.11-1.57.39l-1.19,1.68c-.54-3.14-.92-6.33-1.1-9.57.16-.05.32-.13.45-.26l3.37-3.16,3.68,2.95c.53.42,1.31.34,1.73-.19.42-.53.34-1.31-.19-1.73l-4.51-3.61c-.48-.38-1.17-.35-1.61.06l-3.02,2.83c0-.51-.04-1.02-.04-1.53,0-46.57,38.3-84.45,85.38-84.45s85.38,37.88,85.38,84.45c0,.76-.04,1.52-.06,2.28l-3.81-3.57c-.45-.42-1.13-.45-1.61-.06l-4.51,3.61c-.53.43-.62,1.2-.19,1.73Z"/>
      <path d="M123.33,274.24c-.21,0-.34,0-.37-.01l-11.53-.14-32.95-1.53c-2.22-.46-2.9-1.58-3.12-2.45-.93-3.64,5.21-9.49,7.59-11.59l14.25-63.45c.15-.66.8-1.07,1.47-.93.66.15,1.08.81.93,1.47l-14.34,63.85c-.06.26-.2.49-.4.66-3.77,3.26-7.53,7.81-7.13,9.38.07.28.43.49,1.05.63l32.7,1.5,11.57.14c.11,0,2.68.16,4.66-1.68,1.63-1.52,2.47-3.99,2.48-7.35l6.13-51.72c.08-.68.72-1.18,1.37-1.08.68.08,1.16.69,1.08,1.37l-6.12,51.58c0,3.94-1.11,7.03-3.29,9.04-2.3,2.11-5.07,2.32-6.05,2.32Z"/>
      <path d="M172.84,274.24c-.93,0-3.71-.2-6.02-2.32-2.18-2.01-3.29-5.09-3.3-9.18l-6.12-51.55c-.08-.67.4-1.29,1.08-1.37.68-.1,1.29.4,1.37,1.08l6.13,51.69c.02,3.49.85,5.97,2.49,7.49,1.98,1.84,4.56,1.7,4.59,1.69l11.69-.15,32.86-1.53c.43-.11.78-.32.85-.6.4-1.57-3.36-6.12-7.12-9.38-.19-.17-.33-.39-.39-.64l-15.1-61.95c-.16-.66.24-1.33.91-1.49.66-.16,1.33.25,1.49.91l15.01,61.57c2.37,2.09,8.53,7.94,7.6,11.59-.22.87-.91,1.99-2.93,2.42l-33.11,1.56-11.66.15s-.12,0-.31,0Z"/>
      <path d="M233.55,103.13c18.24-.84,37.21-5.4,37.37-5.45.07-.02.33-.11.69-.16.13-.02.26-.03.4-.03,1.26-.04,4.28.08,5.59,1.96,1.02,1.46.87,3.93-.43,7.14-1.1,2.73-.39,5.76,1.77,7.55,4.32,3.58,2.57,6.21,1.99,7.08-1.53,2.29-1.6,5.23-.18,7.31,1.54,2.25.47,4.91-3.17,7.91-.31.25-.67.47-1.08.63-20.14,8.1-41.94,5.21-42.16,5.18-.63-.1-1.3.37-1.39,1.05-.09.67.38,1.3,1.05,1.39.38.05,4.37.59,10.4.59,8.45,0,20.9-1.04,33.02-5.92.64-.26,1.22-.6,1.72-1.01,6.28-5.19,4.97-9.25,3.63-11.21-.86-1.26-.78-3.09.19-4.55,2.3-3.45,1.42-7.12-2.47-10.34-1.33-1.1-1.75-3-1.05-4.73,1.65-4.07,1.7-7.26.16-9.47-1.93-2.76-5.66-3.06-7.69-3.01-.23,0-.44.03-.65.05-.6.08-1.04.23-1.13.26-.17.05-19.47,4.63-37.41,5.37"/>
      <g>
        <path class="cls-3" d="M166.1,126.84c.51-1.22-.4-2.55-1.72-2.53l-10.35.16h-.15s-10.35.16-10.35.16c-1.32.02-2.18,1.38-1.64,2.58,1.29,2.84,4.5,7.03,12.14,6.97h0s.05,0,.08,0c.03,0,.05,0,.08,0h0c7.64-.18,10.71-4.47,11.92-7.35Z"/>
        <rect class="cls-3" x="141.21" y="110.29" width="14.21" height="6.14" rx="3.07" ry="3.07" transform="translate(37.24 263.39) rotate(-90.88)"/>
        <rect class="cls-3" x="152.16" y="110.12" width="14.21" height="6.14" rx="3.07" ry="3.07" transform="translate(48.52 274.16) rotate(-90.88)"/>
      </g>
    </g>
    <rect class="cls-1" width="311.81" height="311.81"/>
  </g>
</svg>