<?xml version="1.0" encoding="UTF-8"?>
<svg xmlns="http://www.w3.org/2000/svg" version="1.1" viewBox="0 0 163 180">
  <defs>
    <style>
      .cls-1 {
        fill: none;
      }

      .cls-2 {
        fill: #c59f7b;
      }
    </style>
  </defs>
  <!-- Generator: Adobe Illustrator 28.7.1, SVG Export Plug-In . SVG Version: 1.2.0 Build 142)  -->
  <g>
    <g id="Layer_1">
      <rect class="cls-1" x=".5" width="162" height="180"/>
      <path class="cls-2" d="M150.4,8.6h5l-19.6,32.4h-5l19.6-32.4ZM133.1,25.1h-1.2c-4.1,0-6.2-2.2-6.2-6.6v-3.8c0-4.4,2.1-6.6,6.2-6.6h1.2c4.1,0,6.2,2.2,6.2,6.6v3.8c0,4.4-2.1,6.6-6.2,6.6ZM130.8,21c0,.3,0,.5.2.7.2.2.4.3.7.3h1.6c.3,0,.5-.1.6-.3.2-.2.3-.4.3-.7v-8.8c0-.3-.1-.5-.3-.7-.2-.2-.4-.3-.6-.3h-1.6c-.3,0-.5.1-.7.3-.2.2-.2.4-.2.7v8.8ZM154.1,24.5c4.1,0,6.2,2.2,6.2,6.6v3.8c0,4.4-2.1,6.6-6.2,6.6h-1.2c-4.1,0-6.2-2.2-6.2-6.6v-3.8c0-4.4,2.1-6.6,6.2-6.6h1.2ZM155.3,37.4v-8.8c0-.3-.1-.5-.3-.7-.2-.2-.4-.3-.7-.3h-1.5c-.3,0-.5.1-.7.3-.2.2-.2.4-.2.7v8.8c0,.3,0,.5.2.7.2.2.4.3.7.3h1.5c.3,0,.5-.1.7-.3.2-.2.3-.4.3-.7Z"/>
      <g>
        <path class="cls-2" d="M58.7,100.3l-9.4,9.4h8c3.6,0,6.9-.3,9.9-.9l-8.5-8.5Z"/>
        <path class="cls-2" d="M73.6,75.6c-.1.2-.3.4-.5.5-.9,1-2,1.6-3.4,1.6h-20.5c-1.4,0-2.6-.5-3.6-1.6-.4-.5-.7-1-.9-1.5l-5.5,5.5,19.4,19.4,19.4-19.4-4.5-4.5Z"/>
        <polygon class="cls-2" points="14.6 131.8 14.6 134.7 19.1 139.2 26.5 131.8 14.6 131.8"/>
        <path class="cls-2" d="M19.1,139.9l-4.4,4.4c0,13.2,3.6,22.6,10.8,28.1l13.1-13.1-19.4-19.4Z"/>
        <path class="cls-2" d="M97.9,60.4l-19.4-19.4-3.8,3.8v27.8c0,1-.3,1.9-.8,2.7l4.6,4.6,19.4-19.4Z"/>
        <path class="cls-2" d="M44.3,5.2c-.3,0-.5,0-.8,0l15.2,15.2,15.2-15.2h-29.6Z"/>
        <path class="cls-2" d="M39.2,40.6l5,5v-3.2c0-1.4.4-2.6,1.3-3.6,1-1,2.3-1.6,3.6-1.6h20.5c1.4,0,2.5.5,3.4,1.6,1,1,1.6,2.3,1.6,3.6v1.6l3.4-3.4-19.4-19.4-19.4,19.4Z"/>
        <path class="cls-2" d="M18.7,20.8l-2.2-2.2c-1.2,2.1-2.2,4.6-2.9,7.2l5.1-5.1Z"/>
        <path class="cls-2" d="M38.9,40.9l-19.4,19.4,19.4,19.4,5.6-5.6c-.2-.5-.2-1.1-.2-1.6v-26.2l-5.4-5.4Z"/>
        <path class="cls-2" d="M19.1,20.4l13.9-13.9c-7.3,1.9-12.7,5.8-16.2,11.7l2.3,2.3Z"/>
        <path class="cls-2" d="M19.1,60.7l-7,7v7.6c0,9.8,2,17.5,5.9,23.1l1.1,1.1,19.4-19.4-19.4-19.4Z"/>
        <path class="cls-2" d="M57.8,178.6l-18.9-18.9-13.1,13.1c5.2,3.9,12.2,5.8,21.1,5.8h10.9Z"/>
        <path class="cls-2" d="M38.9,80.5l-19.4,19.4,4.3,4.3c5.1,3.6,12,5.4,20.5,5.4h4.3l9.7-9.7-19.4-19.4Z"/>
        <path class="cls-2" d="M42.8,5.2c-3.2,0-6.1.4-8.8,1l-14.5,14.5,19.4,19.4,19.4-19.4-15.5-15.5Z"/>
        <polygon class="cls-2" points="14.6 135.5 14.6 143.6 18.7 139.5 14.6 135.5"/>
        <polygon class="cls-2" points="18.7 60.4 12 53.7 12 67 18.7 60.4"/>
        <path class="cls-2" d="M19.1,21.1l-5.7,5.7c-.9,3.8-1.4,8-1.4,12.7v13.5l7,7,19.4-19.4-19.4-19.4Z"/>
        <polygon class="cls-2" points="107.2 130.3 107.2 109.2 98.3 100.3 78.8 119.7 98.3 139.2 107.2 130.3"/>
        <path class="cls-2" d="M69,150.3h-16.2c-1.2,0-2.3-.4-3.3-1.3l-10.3,10.3,19.3,19.3h.4l19.3-19.3-9.1-9.1Z"/>
        <path class="cls-2" d="M93.3,174.5l-14.8-14.8-18.9,18.9h15.4c7.4,0,13.5-1.4,18.4-4.1Z"/>
        <path class="cls-2" d="M106.1,28.3c-.9-4.2-2.3-7.8-4.2-10.8l-3.3,3.3,7.5,7.5Z"/>
        <path class="cls-2" d="M78.5,120.1l-3.8,3.8v21.2c0,1.4-.5,2.6-1.6,3.6-.9,1-2,1.6-3.4,1.6h0l8.7,8.7,19.4-19.4-19.4-19.4Z"/>
        <path class="cls-2" d="M107.2,131l-8.6,8.6,8.5,8.5c0-1.2.1-2.4.1-3.7v-13.3Z"/>
        <path class="cls-2" d="M83.8,5.9l14.5,14.5,3.4-3.4c-3.9-5.9-9.8-9.6-17.9-11.1Z"/>
        <path class="cls-2" d="M107,148.7l-8.8-8.8-19.4,19.4,14.9,14.9c8-4.7,12.5-13.2,13.3-25.6Z"/>
        <path class="cls-2" d="M47.9,145.1v-13.3h-20.7l-7.7,7.7,19.4,19.4,10.3-10.3c-.9-1-1.3-2.2-1.3-3.6Z"/>
        <path class="cls-2" d="M97.9,100l-19.4-19.4-19.4,19.4,8.7,8.7c2.5-.6,4.9-1.3,7-2.3v9.3l3.8,3.8,19.4-19.4Z"/>
        <polygon class="cls-2" points="74.7 116.3 74.7 123.2 78.1 119.7 74.7 116.3"/>
        <path class="cls-2" d="M74.9,5.2h-.3l-15.6,15.6,19.4,19.4,19.4-19.4-15-15c-2.5-.4-5.1-.6-8-.6Z"/>
        <polygon class="cls-2" points="107.2 90.7 107.2 69.6 98.3 60.7 78.8 80.2 98.3 99.6 107.2 90.7"/>
        <path class="cls-2" d="M78.8,40.6l19.4,19.4,8.9-8.9v-11.6c0-3.8-.3-7.2-.9-10.4l-8-8-19.4,19.4Z"/>
        <polygon class="cls-2" points="107.2 91.4 98.6 100 107.2 108.5 107.2 91.4"/>
        <polygon class="cls-2" points="98.6 60.4 107.2 68.9 107.2 51.8 98.6 60.4"/>
      </g>
    </g>
  </g>
</svg>