<?xml version="1.0" encoding="UTF-8"?>
<svg xmlns="http://www.w3.org/2000/svg" version="1.1" viewBox="0 0 209 180">
  <defs>
    <style>
      .cls-1 {
        fill: none;
      }

      .cls-2 {
        fill: #c59f7b;
      }
    </style>
  </defs>
  <!-- Generator: Adobe Illustrator 28.7.1, SVG Export Plug-In . SVG Version: 1.2.0 Build 142)  -->
  <g>
    <g id="Layer_1">
      <rect class="cls-1" width="209" height="180"/>
      <path class="cls-2" d="M196.9,8.6h5l-19.6,32.4h-5l19.6-32.4ZM179.6,25.1h-1.2c-4.1,0-6.2-2.2-6.2-6.6v-3.8c0-4.4,2.1-6.6,6.2-6.6h1.2c4.1,0,6.2,2.2,6.2,6.6v3.8c0,4.4-2.1,6.6-6.2,6.6ZM177.3,21c0,.3,0,.5.2.7.2.2.4.3.7.3h1.6c.3,0,.5-.1.6-.3.2-.2.3-.4.3-.7v-8.8c0-.3-.1-.5-.3-.7-.2-.2-.4-.3-.6-.3h-1.6c-.3,0-.5.1-.7.3-.2.2-.2.4-.2.7v8.8ZM200.6,24.5c4.1,0,6.2,2.2,6.2,6.6v3.8c0,4.4-2.1,6.6-6.2,6.6h-1.2c-4.1,0-6.2-2.2-6.2-6.6v-3.8c0-4.4,2.1-6.6,6.2-6.6h1.2ZM201.8,37.4v-8.8c0-.3-.1-.5-.3-.7-.2-.2-.4-.3-.7-.3h-1.5c-.3,0-.5.1-.7.3-.2.2-.2.4-.2.7v8.8c0,.3,0,.5.2.7.2.2.4.3.7.3h1.5c.3,0,.5-.1.7-.3.2-.2.3-.4.3-.7Z"/>
      <g>
        <polygon class="cls-2" points="96.1 91.9 96.1 88.1 78.5 70.6 60.7 88.4 60.7 91.6 78.5 109.4 96.1 91.9"/>
        <polygon class="cls-2" points="96.1 92.6 78.9 109.8 96.1 127 96.1 92.6"/>
        <polygon class="cls-2" points="60.7 92.3 60.7 127.3 78.2 109.8 60.7 92.3"/>
        <polygon class="cls-2" points="78.2 70.2 60.7 52.7 60.7 87.7 78.2 70.2"/>
        <polygon class="cls-2" points="51.9 122.4 51.9 97.2 39.3 109.8 51.9 122.4"/>
        <path class="cls-2" d="M137.6,50.4l-17.1-17.1c.2.6.4,1.2.4,1.8v32.1l16.8-16.8Z"/>
        <polygon class="cls-2" points="98.3 10.4 103.6 5.2 93.1 5.2 98.3 10.4"/>
        <polygon class="cls-2" points="51.9 82.8 51.9 57.6 39.3 70.2 51.9 82.8"/>
        <path class="cls-2" d="M123.9,5.2h-19.6l-5.6,5.6,19.4,19.4,19.4-19.4-4.9-4.9c-2.7-.5-5.6-.8-8.8-.8Z"/>
        <polygon class="cls-2" points="19.5 90 38.9 109.4 51.9 96.5 51.9 83.5 38.9 70.6 19.5 90"/>
        <path class="cls-2" d="M60.7,48.1l17.5-17.5-12.6-12.6c-3.2,5.4-4.9,12.6-4.9,21.5v8.6Z"/>
        <path class="cls-2" d="M65.9,17.6l12.7,12.7,19.4-19.4-5.6-5.6c-12.6.1-21.4,4.3-26.5,12.4Z"/>
        <polygon class="cls-2" points="96.1 87.4 96.1 53 78.9 70.2 96.1 87.4"/>
        <polygon class="cls-2" points="51.9 162.7 38.9 149.7 19.5 169.2 26.6 176.3 51.3 176.3 51.9 175.7 51.9 162.7"/>
        <path class="cls-2" d="M154.9,27.4c-2.1-9.2-6.8-15.5-14.3-19l-2.4,2.4,16.6,16.6Z"/>
        <polygon class="cls-2" points="16.6 87.8 16.6 92.2 18.8 90 16.6 87.8"/>
        <polygon class="cls-2" points="19.1 169.5 16.6 172.1 16.6 176.3 25.9 176.3 19.1 169.5"/>
        <polygon class="cls-2" points="16.6 127.4 16.6 131.8 18.8 129.6 16.6 127.4"/>
        <path class="cls-2" d="M138.3,129.6l17.8,17.8c0-1,0-2,0-3.1v-32.5l-17.9,17.9Z"/>
        <path class="cls-2" d="M118.5,30.6l19.4,19.4,17.8-17.8c-.2-1.4-.4-2.7-.6-3.9l-17.2-17.2-19.4,19.4Z"/>
        <path class="cls-2" d="M78.9,30.6l17.2,17.2v-12.7c0-1.4.4-2.6,1.3-3.6,1-1,2.3-1.6,3.6-1.6h14.8c.5,0,1,.1,1.5.3l-19-19-19.4,19.4Z"/>
        <polygon class="cls-2" points="51.9 136.1 51.9 123.1 38.9 110.2 19.5 129.6 38.9 149 51.9 136.1"/>
        <polygon class="cls-2" points="60.7 48.8 60.7 52 78.5 69.8 96.1 52.3 96.1 48.5 78.5 31 60.7 48.8"/>
        <path class="cls-2" d="M156.2,68.3v-28.8c0-2.3-.1-4.5-.3-6.6l-17.5,17.5,17.9,17.9Z"/>
        <polygon class="cls-2" points="38.6 109.8 19.1 90.4 16.6 92.9 16.6 126.7 19.1 129.2 38.6 109.8"/>
        <path class="cls-2" d="M60.7,131.9v12.3c0,7.6,1.2,13.9,3.6,19l13.9-13.9-17.5-17.5Z"/>
        <polygon class="cls-2" points="18.8 50.4 16.6 48.2 16.6 52.6 18.8 50.4"/>
        <path class="cls-2" d="M119.8,151.4c-.2.2-.3.5-.6.7-.9,1-2,1.6-3.4,1.6h-1.6l-15.6,15.6,9.4,9.4h15.8c1.5,0,3,0,4.5-.2l9.2-9.2-17.8-17.8Z"/>
        <polygon class="cls-2" points="16.6 13.7 16.6 47.5 19.1 50 38.6 30.6 19.1 11.2 16.6 13.7"/>
        <polygon class="cls-2" points="16.6 167 16.6 171.4 18.8 169.2 16.6 167"/>
        <polygon class="cls-2" points="38.9 30.2 51.9 17.3 51.9 8 22.3 8 19.5 10.8 38.9 30.2"/>
        <polygon class="cls-2" points="120.8 112.8 120.8 146.4 137.6 129.6 120.8 112.8"/>
        <polygon class="cls-2" points="156.2 111 156.2 108.6 137.9 90.4 120.8 107.5 120.8 112.1 137.9 129.2 156.2 111"/>
        <polygon class="cls-2" points="18.8 10.8 16.6 8.6 16.6 13 18.8 10.8"/>
        <polygon class="cls-2" points="51.9 136.8 39.3 149.4 51.9 162 51.9 136.8"/>
        <polygon class="cls-2" points="19.1 10.4 21.6 8 16.7 8 19.1 10.4"/>
        <path class="cls-2" d="M137.9,169.5l-8.8,8.8c5.3-.5,9.8-1.9,13.5-4.1l-4.7-4.7Z"/>
        <path class="cls-2" d="M156,148.1l-18.1-18.1-17.1,17.1v1.3c0,.9-.3,1.8-.7,2.5l17.9,17.9,17.9-17.9c.1-.9.2-1.9.2-2.9Z"/>
        <path class="cls-2" d="M155.7,151.8l-17.4,17.4,4.8,4.8c7.1-4.3,11.3-11.8,12.6-22.3Z"/>
        <path class="cls-2" d="M137.9,10.4l2.2-2.2c-2-.9-4.2-1.6-6.6-2.1l4.3,4.3Z"/>
        <polygon class="cls-2" points="156.2 72.1 138.3 90 156.2 107.9 156.2 72.1"/>
        <polygon class="cls-2" points="120.8 73.2 120.8 106.8 137.6 90 120.8 73.2"/>
        <polygon class="cls-2" points="156.2 71.4 156.2 69 137.9 50.8 120.8 67.9 120.8 72.5 137.9 89.6 156.2 71.4"/>
        <polygon class="cls-2" points="96.1 127.7 78.5 110.2 60.7 128 60.7 131.2 78.5 149 96.1 131.5 96.1 127.7"/>
        <path class="cls-2" d="M101,153.6c-1.4,0-2.6-.5-3.6-1.6-.9-1-1.3-2.3-1.3-3.6v-16.2l-17.2,17.2,19.4,19.4,15.2-15.2h-12.5Z"/>
        <path class="cls-2" d="M78.5,149.7l-14,14c4.3,8.9,12.4,13.7,24.2,14.7l9.2-9.2-19.4-19.4Z"/>
        <path class="cls-2" d="M98.3,169.5l-8.9,8.9c1.2,0,2.3.1,3.6.1h14.4l-9.1-9.1Z"/>
        <polygon class="cls-2" points="38.6 149.4 19.1 130 16.6 132.5 16.6 166.3 19.1 168.8 38.6 149.4"/>
        <polygon class="cls-2" points="51.9 43.2 51.9 18 39.3 30.6 51.9 43.2"/>
        <polygon class="cls-2" points="19.5 50.4 38.9 69.8 51.9 56.9 51.9 43.9 38.9 31 19.5 50.4"/>
        <polygon class="cls-2" points="16.6 53.3 16.6 87.1 19.1 89.6 38.6 70.2 19.1 50.8 16.6 53.3"/>
      </g>
    </g>
  </g>
</svg>