<?xml version="1.0" encoding="UTF-8"?>
<svg xmlns="http://www.w3.org/2000/svg" version="1.1" viewBox="0 0 267 180">
  <defs>
    <style>
      .cls-1 {
        fill: none;
      }

      .cls-2 {
        fill: #c59f7b;
      }
    </style>
  </defs>
  <!-- Generator: Adobe Illustrator 28.7.1, SVG Export Plug-In . SVG Version: 1.2.0 Build 142)  -->
  <g>
    <g id="Layer_1">
      <rect class="cls-1" x=".5" width="266" height="180"/>
      <path class="cls-2" d="M254.4,8.6h5l-19.6,32.4h-5l19.6-32.4ZM237.1,25.1h-1.2c-4.1,0-6.2-2.2-6.2-6.6v-3.8c0-4.4,2.1-6.6,6.2-6.6h1.2c4.1,0,6.2,2.2,6.2,6.6v3.8c0,4.4-2.1,6.6-6.2,6.6ZM234.8,21c0,.3,0,.5.2.7.2.2.4.3.7.3h1.6c.3,0,.5-.1.6-.3.2-.2.3-.4.3-.7v-8.8c0-.3-.1-.5-.3-.7-.2-.2-.4-.3-.6-.3h-1.6c-.3,0-.5.1-.7.3-.2.2-.2.4-.2.7v8.8ZM258.1,24.5c4.1,0,6.2,2.2,6.2,6.6v3.8c0,4.4-2.1,6.6-6.2,6.6h-1.2c-4.1,0-6.2-2.2-6.2-6.6v-3.8c0-4.4,2.1-6.6,6.2-6.6h1.2ZM259.3,37.4v-8.8c0-.3,0-.5-.3-.7-.2-.2-.4-.3-.6-.3h-1.6c-.3,0-.5.1-.7.3-.2.2-.3.4-.3.7v8.8c0,.3,0,.5.3.7.2.2.4.3.7.3h1.6c.3,0,.5-.1.6-.3.2-.2.3-.4.3-.7Z"/>
      <g>
        <polygon class="cls-2" points="76.6 61.2 87.4 50.4 76.6 39.6 76.6 61.2"/>
        <path class="cls-2" d="M76.6,61.9v11.9c0,1.3-.4,2.4-1.3,3.3l12.5,12.5,19.4-19.4-19.4-19.4-11.2,11.2Z"/>
        <path class="cls-2" d="M67.9,109.4l19.4-19.4-12.5-12.5c-.9,1-2,1.5-3.3,1.5h-12.1l-11,11,19.4,19.4Z"/>
        <polygon class="cls-2" points="127.3 50 146.8 30.6 127.3 11.2 115.3 23.2 115.3 38 127.3 50"/>
        <path class="cls-2" d="M31.2,107.3c4.2,1.6,9.2,2.4,14.9,2.4h21.4l-19.3-19.3-16.9,16.9Z"/>
        <polygon class="cls-2" points="88.1 50.4 107.5 69.8 109.1 68.3 109.1 32.5 107.5 31 88.1 50.4"/>
        <polygon class="cls-2" points="127.3 10.4 130 7.8 124.7 7.8 127.3 10.4"/>
        <polygon class="cls-2" points="109.1 31.8 109.1 29.4 107.9 30.6 109.1 31.8"/>
        <path class="cls-2" d="M186.4,70.2l-8.5-8.5v12.1c0,1.4-.5,2.6-1.6,3.6-.9,1-2,1.6-3.4,1.6h-16.7l10.6,10.6,19.4-19.4Z"/>
        <polygon class="cls-2" points="206.2 50.4 186.7 31 177.9 39.8 177.9 61 186.7 69.8 206.2 50.4"/>
        <path class="cls-2" d="M155.6,79h-3.2c-1.4,0-2.6-.5-3.6-1.6-.9-1-1.3-2.3-1.3-3.6v-2.9l-.4-.4-19.4,19.4,19.4,19.4,19.4-19.4-11-11Z"/>
        <polygon class="cls-2" points="109.1 151.3 107.5 149.7 88.1 169.2 94.9 176 109.1 176 109.1 151.3"/>
        <polygon class="cls-2" points="107.9 149.4 109.1 150.6 109.1 148.2 107.9 149.4"/>
        <polygon class="cls-2" points="94.2 176 87.7 169.5 81.3 176 94.2 176"/>
        <polygon class="cls-2" points="107.2 149.4 87.7 130 76.6 141.1 76.6 157.6 87.7 168.8 107.2 149.4"/>
        <polygon class="cls-2" points="147.5 30.6 147.5 30.6 147.5 30.6 147.5 30.6"/>
        <polygon class="cls-2" points="88.1 90 107.5 109.4 109.1 107.9 109.1 72.1 107.5 70.6 88.1 90"/>
        <polygon class="cls-2" points="107.9 70.2 109.1 71.4 109.1 69 107.9 70.2"/>
        <polygon class="cls-2" points="109.1 108.6 107.9 109.8 109.1 111 109.1 108.6"/>
        <path class="cls-2" d="M115.3,78.3c.3,7.5,1.9,13.7,4.8,18.5l6.9-6.9-11.7-11.7Z"/>
        <polygon class="cls-2" points="127 10.8 124 7.8 115.3 7.8 115.3 22.5 127 10.8"/>
        <polygon class="cls-2" points="177.9 39.1 186.4 30.6 177.9 22.1 177.9 39.1"/>
        <polygon class="cls-2" points="76.6 118.8 76.6 140.4 87.4 129.6 76.6 118.8"/>
        <polygon class="cls-2" points="107.2 109.8 87.7 90.4 68.4 109.7 76.6 109.7 76.6 118.1 87.7 129.2 107.2 109.8"/>
        <polygon class="cls-2" points="147.5 69.5 147.5 31.3 147.1 31 127.7 50.4 147.1 69.8 147.5 69.5"/>
        <polygon class="cls-2" points="147.5 70.2 147.5 70.2 147.5 70.2 147.5 70.2"/>
        <polygon class="cls-2" points="115.3 62.1 127 50.4 115.3 38.7 115.3 62.1"/>
        <path class="cls-2" d="M120.4,97.3c5,8.1,13.8,12.2,26.3,12.4l-19.3-19.3-6.9,6.9Z"/>
        <path class="cls-2" d="M127.3,50.8l-12.1,12.1v12.5c0,.8,0,1.5,0,2.2l12,12,19.4-19.4-19.4-19.4Z"/>
        <polygon class="cls-2" points="109.1 147.5 109.1 111.7 107.5 110.2 88.1 129.6 107.5 149 109.1 147.5"/>
        <polygon class="cls-2" points="127.7 10.8 147.1 30.2 147.5 29.9 147.5 7.8 130.7 7.8 127.7 10.8"/>
        <polygon class="cls-2" points="46.1 8.4 46.1 7.8 45.5 7.8 46.1 8.4"/>
        <polygon class="cls-2" points="210.4 125.4 210.4 94.2 206.5 90.4 187.1 109.8 206.5 129.2 210.4 125.4"/>
        <polygon class="cls-2" points="206.5 10.4 209.2 7.8 203.9 7.8 206.5 10.4"/>
        <polygon class="cls-2" points="210.4 14.3 210.4 7.8 209.9 7.8 206.9 10.8 210.4 14.3"/>
        <path class="cls-2" d="M14.4,83.7l13.5-13.5-14.1-14.1v19.3c0,3,.2,5.8.6,8.4Z"/>
        <polygon class="cls-2" points="13.9 45.4 13.9 55.4 28.3 69.8 46.1 52.1 46.1 48.7 28.3 31 13.9 45.4"/>
        <polygon class="cls-2" points="206.2 129.6 186.7 110.2 177.9 119 177.9 140.2 186.7 149 206.2 129.6"/>
        <polygon class="cls-2" points="177.9 140.9 177.9 157.9 186.4 149.4 177.9 140.9"/>
        <polygon class="cls-2" points="206.9 129.6 210.4 133.1 210.4 126.1 206.9 129.6"/>
        <polygon class="cls-2" points="210.4 173.4 206.5 169.5 200.1 176 210.4 176 210.4 173.4"/>
        <polygon class="cls-2" points="13.9 15.8 28.3 30.2 46.1 12.5 46.1 9.1 44.8 7.8 13.9 7.8 13.9 15.8"/>
        <polygon class="cls-2" points="206.9 169.2 210.4 172.7 210.4 165.7 206.9 169.2"/>
        <polygon class="cls-2" points="210.4 165 210.4 133.8 206.5 130 187.1 149.4 206.5 168.8 210.4 165"/>
        <polygon class="cls-2" points="28 30.6 13.9 16.5 13.9 44.7 28 30.6"/>
        <polygon class="cls-2" points="186.7 149.7 177.9 158.6 177.9 176 199.4 176 206.2 169.2 186.7 149.7"/>
        <rect class="cls-2" x="173" y="76.2" width="27.5" height="27.5" transform="translate(-8.9 158.4) rotate(-45)"/>
        <polygon class="cls-2" points="76.6 158.4 76.6 176 80.6 176 87.4 169.2 76.6 158.4"/>
        <path class="cls-2" d="M14.5,84.4c1.8,11.4,7.2,19,16.2,22.7l17.1-17.1-19.4-19.4-13.8,13.8Z"/>
        <polygon class="cls-2" points="186.4 109.8 166.9 90.4 147.6 109.7 177.9 109.7 177.9 118.3 186.4 109.8"/>
        <polygon class="cls-2" points="76.6 38.9 87.7 50 107.2 30.6 87.7 11.2 76.6 22.3 76.6 38.9"/>
        <polygon class="cls-2" points="87.7 10.4 90.4 7.8 85.1 7.8 87.7 10.4"/>
        <polygon class="cls-2" points="107.5 30.2 109.1 28.7 109.1 7.8 91.1 7.8 88.1 10.8 107.5 30.2"/>
        <path class="cls-2" d="M28.7,70.2l19.4,19.4,10.6-10.6h-7.7c-1.4,0-2.6-.5-3.6-1.6-.9-1-1.3-2.3-1.3-3.6v-21.1l-17.4,17.4Z"/>
        <polygon class="cls-2" points="206.9 50.4 210.4 53.9 210.4 46.9 206.9 50.4"/>
        <polygon class="cls-2" points="187.1 30.6 206.5 50 210.4 46.2 210.4 15 206.5 11.2 187.1 30.6"/>
        <polygon class="cls-2" points="210.4 85.8 210.4 54.6 206.5 50.8 187.1 70.2 206.5 89.6 210.4 85.8"/>
        <polygon class="cls-2" points="76.6 21.6 87.4 10.8 84.4 7.8 76.6 7.8 76.6 21.6"/>
        <polygon class="cls-2" points="177.9 7.8 177.9 21.4 186.7 30.2 206.2 10.8 203.2 7.8 177.9 7.8"/>
        <polygon class="cls-2" points="46.1 48 46.1 13.2 28.7 30.6 46.1 48"/>
        <polygon class="cls-2" points="210.4 86.5 206.9 90 210.4 93.5 210.4 86.5"/>
      </g>
    </g>
  </g>
</svg>