<?xml version="1.0" encoding="UTF-8"?>
<svg xmlns="http://www.w3.org/2000/svg" version="1.1" viewBox="0 0 265 180">
  <defs>
    <style>
      .cls-1 {
        fill: none;
      }

      .cls-2 {
        fill: #c59f7b;
      }
    </style>
  </defs>
  <!-- Generator: Adobe Illustrator 28.7.1, SVG Export Plug-In . SVG Version: 1.2.0 Build 142)  -->
  <g>
    <g id="Layer_1">
      <path class="cls-2" d="M252.4,8.6h5l-19.6,32.4h-5l19.6-32.4ZM235.1,25.1h-1.2c-4.1,0-6.2-2.2-6.2-6.6v-3.8c0-4.4,2.1-6.6,6.2-6.6h1.2c4.1,0,6.2,2.2,6.2,6.6v3.8c0,4.4-2.1,6.6-6.2,6.6ZM232.8,21c0,.3,0,.5.2.7.2.2.4.3.7.3h1.6c.3,0,.5-.1.6-.3.2-.2.3-.4.3-.7v-8.8c0-.3-.1-.5-.3-.7-.2-.2-.4-.3-.6-.3h-1.6c-.3,0-.5.1-.7.3-.2.2-.2.4-.2.7v8.8ZM256.1,24.5c4.1,0,6.2,2.2,6.2,6.6v3.8c0,4.4-2.1,6.6-6.2,6.6h-1.2c-4.1,0-6.2-2.2-6.2-6.6v-3.8c0-4.4,2.1-6.6,6.2-6.6h1.2ZM257.3,37.4v-8.8c0-.3,0-.5-.3-.7-.2-.2-.4-.3-.6-.3h-1.6c-.3,0-.5.1-.7.3-.2.2-.2.4-.2.7v8.8c0,.3,0,.5.2.7.2.2.4.3.7.3h1.6c.3,0,.5-.1.6-.3.2-.2.3-.4.3-.7Z"/>
      <g>
        <path class="cls-2" d="M66.4,108.9c.4,0,.9-.2,1.3-.3l18.7-18.7-13.5-13.5c-.8.8-1.8,1.2-3.1,1.2h-10l-12.3,12.3,18.9,18.9Z"/>
        <path class="cls-2" d="M30,107.5c4.1,1.5,8.8,2.2,14.3,2.2h13c3.1,0,5.9-.2,8.5-.7l-18.7-18.7-17.1,17.1Z"/>
        <polygon class="cls-2" points="74.7 117.9 74.7 141.2 86.4 129.6 74.7 117.9"/>
        <path class="cls-2" d="M106.2,109.8l-19.4-19.4-18.1,18.1c2.2-.5,4.3-1.2,6.1-2.1v10.9l12,12,19.4-19.4Z"/>
        <path class="cls-2" d="M87.1,50.4l19.4,19.4.7-.7v-29.6c0-3-.2-5.8-.6-8.4h-.1c0-.1-19.4,19.3-19.4,19.3Z"/>
        <path class="cls-2" d="M119.4,18.1c-3.1,5.2-4.7,11.9-4.8,20.2l11.8,11.8,19.4-19.4-19.4-19.4-7,7Z"/>
        <path class="cls-2" d="M114.6,61.8l11.4-11.4-11.4-11.4c0,.2,0,.3,0,.5v22.3Z"/>
        <path class="cls-2" d="M113.1,116.7c0,.9,0,1.8,0,2.7v23.3l13-13-12.9-12.9Z"/>
        <path class="cls-2" d="M74.7,62.8v9.8c0,1.4-.5,2.6-1.5,3.6l13.5,13.5,19.4-19.4-19.4-19.4-12,12Z"/>
        <path class="cls-2" d="M128,9.5l-1.3,1.3,19.4,19.4,19.4-19.4-5.6-5.6h-13.2c-7.6,0-13.9,1.4-18.8,4.3Z"/>
        <polygon class="cls-2" points="160.7 5.2 165.9 10.4 171.2 5.2 160.7 5.2"/>
        <path class="cls-2" d="M106.5,30.2h0c-1.8-11.4-7.3-18.9-16.4-22.5l-3.1,3.1,19.4,19.4Z"/>
        <path class="cls-2" d="M152,76.4h0c-1.4,0-2.6-.5-3.6-1.6-.8-1-1.2-2.1-1.3-3.4l-.9-.9-19.4,19.4,19,19c.2-.8.6-1.5,1.1-2.2,1-1,2.2-1.5,3.5-1.5l15.3-15.3-13.6-13.6Z"/>
        <path class="cls-2" d="M145.5,110c0-.2,0-.3,0-.5l-19.2-19.2-9.5,9.5c-2.2,4.4-3.4,9.8-3.7,16.1l13.2,13.2,19.2-19.2Z"/>
        <path class="cls-2" d="M185.4,70.2l-11-11v12c0,1.4-.5,2.6-1.6,3.6-.9,1-2,1.6-3.4,1.6h-16.7l13.2,13.2,19.4-19.4Z"/>
        <path class="cls-2" d="M146.5,30.6l4,4c.5-.2,1-.3,1.5-.3h17.4c1.4,0,2.5.5,3.4,1.6,1,1,1.6,2.3,1.6,3.6v2.1l11-11-19.4-19.4-19.4,19.4Z"/>
        <path class="cls-2" d="M186.1,30.6l19.4,19.4,1.1-1.1v-9.5c0-9.9-2-17.7-6.1-23.3l-14.4,14.4Z"/>
        <path class="cls-2" d="M107.2,110.8l-.7-.7-19.4,19.4,19.4,19.4.6-.6c0-1.4.1-2.8.1-4.2v-33.4Z"/>
        <path class="cls-2" d="M87.1,169.2l5.7,5.7c8.4-4.4,13.1-12.6,14.2-24.7l-.4-.4-19.4,19.4Z"/>
        <path class="cls-2" d="M114.6,157.8c1.6,6.1,4.5,10.8,8.6,14.2l2.8-2.8-11.4-11.4Z"/>
        <path class="cls-2" d="M106.9,149.4h.1s0,0,0-.2l-.2.2Z"/>
        <polygon class="cls-2" points="174.4 42.3 174.4 58.5 185.7 69.8 205.2 50.4 185.7 31 174.4 42.3"/>
        <path class="cls-2" d="M86.7,10.4l2.9-2.9c-2.3-.9-4.9-1.5-7.7-1.9l4.8,4.8Z"/>
        <path class="cls-2" d="M206.6,51.8l-1.1-1.1-19.4,19.4,14.7,14.7c3.8-5.4,5.8-13.1,5.8-23.1v-10Z"/>
        <path class="cls-2" d="M145.8,70.2l-19.4-19.4-11.8,11.8c0,7.8,1.4,14.2,3.9,19.2l7.9,7.9,19.4-19.4Z"/>
        <polygon class="cls-2" points="205.9 50.4 206.6 51.1 206.6 49.7 205.9 50.4"/>
        <path class="cls-2" d="M126,10.8h0c-2,1.5-3.8,3.2-5.3,5.3l5.3-5.3Z"/>
        <polygon class="cls-2" points="107.2 109.5 106.9 109.8 107.2 110.1 107.2 109.5"/>
        <path class="cls-2" d="M117.6,98.3l8.4-8.4-6.7-6.7c1.6,2.7,3.6,4.9,5.9,6.7-3.1,2.2-5.7,5-7.6,8.4Z"/>
        <polygon class="cls-2" points="106.9 70.2 107.2 70.5 107.2 69.9 106.9 70.2"/>
        <polygon class="cls-2" points="106.5 70.6 87.1 90 106.5 109.4 107.2 108.7 107.2 71.3 106.5 70.6"/>
        <polygon class="cls-2" points="146.5 70.2 147.1 70.8 147.1 69.6 146.5 70.2"/>
        <path class="cls-2" d="M126.7,50.4l19.4,19.4.9-.9v-29.4c0-1.4.4-2.6,1.3-3.6.5-.5,1-.8,1.6-1.1l-3.8-3.8-19.4,19.4Z"/>
        <path class="cls-2" d="M202.7,166.7l-17-17-19.4,19.4,9.4,9.4h.2c12.6,0,21.6-4,26.8-11.9Z"/>
        <path class="cls-2" d="M56.2,178.6l-9.1-9.1-8.4,8.4c2.5.4,5.3.6,8.2.6h9.3Z"/>
        <path class="cls-2" d="M146.1,149.7l-19.4,19.4,8.4,8.4c3.1.7,6.5,1,10.2,1h10.9l9.4-9.4-19.4-19.4Z"/>
        <polygon class="cls-2" points="12.1 46.2 12.1 54.6 27.3 69.8 44.3 52.9 44.3 47.9 27.3 31 12.1 46.2"/>
        <polygon class="cls-2" points="165.9 169.5 156.9 178.6 175 178.6 165.9 169.5"/>
        <rect class="cls-2" x="73" y="16.9" width="27.5" height="27.5" transform="translate(3.8 70.3) rotate(-45)"/>
        <path class="cls-2" d="M175.9,139.9v5.1c0,1.4-.5,2.6-1.6,3.6-.9,1-2,1.6-3.4,1.6h-20.5c-1.3,0-2.4-.5-3.4-1.4l-.5.5,19.4,19.4,19.4-19.4-9.5-9.5Z"/>
        <path class="cls-2" d="M12.7,84.5l14.3-14.3-14.9-14.9v20.1c0,3.3.2,6.3.7,9.1Z"/>
        <path class="cls-2" d="M14.7,137.1v7.2c0,5.9.7,11,2.1,15.3l10.2-10.2-12.3-12.3Z"/>
        <path class="cls-2" d="M77,178.6l9.4-9.4-18.9-18.9h-1l-18.9,18.9,9.4,9.4h18.1c.7,0,1.4,0,2,0Z"/>
        <path class="cls-2" d="M208.2,132.6l-2.6-2.6-19.4,19.4,16.9,16.9c3.5-5.5,5.2-12.8,5.2-22v-11.7Z"/>
        <polygon class="cls-2" points="205.9 129.6 208.2 131.9 208.2 127.3 205.9 129.6"/>
        <path class="cls-2" d="M12.1,45.5l14.9-14.9-10.9-10.9c-2.6,5.2-4,11.8-4,19.8v6Z"/>
        <polygon class="cls-2" points="205.2 129.6 185.7 110.2 175.9 120 175.9 139.2 185.7 149 205.2 129.6"/>
        <path class="cls-2" d="M208.2,126.6v-7.3c0-10.5-2.4-18.7-7.1-24.5l-15,15,19.4,19.4,2.6-2.6Z"/>
        <path class="cls-2" d="M16.3,19.2l11.1,11.1,19.4-19.4-5.5-5.5c-12.1.7-20.4,5.3-25,13.9Z"/>
        <path class="cls-2" d="M41.9,5.2l5.2,5.2,5.3-5.3h-8.1c-.8,0-1.6,0-2.4,0Z"/>
        <path class="cls-2" d="M38.1,177.8l8.7-8.7-19.4-19.4-10.4,10.4c3.4,9.8,10.4,15.8,21.2,17.7Z"/>
        <path class="cls-2" d="M65.7,150.3h-12.8c-1.4,0-2.6-.5-3.6-1.6-.9-1-1.3-2.3-1.3-3.6v-13.3h-2.7l-17.6,17.6,19.4,19.4,18.6-18.6Z"/>
        <polygon class="cls-2" points="44.6 131.8 14.7 131.8 14.7 136.4 27.3 149 44.6 131.8"/>
        <path class="cls-2" d="M106.2,149.4l-19.4-19.4-12,12v3.1c0,1.4-.5,2.6-1.6,3.6-.9,1-2,1.6-3.4,1.6h-1.6l18.6,18.6,19.4-19.4Z"/>
        <path class="cls-2" d="M92.3,175.1l-5.5-5.5-9,9c5.7-.3,10.5-1.4,14.5-3.4Z"/>
        <path class="cls-2" d="M60.7,37.2h9.1c1.4,0,2.5.5,3.4,1.6,1,1,1.6,2.3,1.6,3.6v19.7l11.6-11.6-19.4-19.4-6.2,6.2Z"/>
        <path class="cls-2" d="M27.7,70.2l19.4,19.4,11.9-11.9h-9.8c-1.4,0-2.6-.5-3.6-1.6-.9-1-1.3-2.3-1.3-3.6v-18.9l-16.6,16.6Z"/>
        <path class="cls-2" d="M12.8,85.1c1.9,11.3,7.5,18.7,16.7,22.2l17.3-17.3-19.4-19.4-14.5,14.5Z"/>
        <path class="cls-2" d="M200.8,94.4c-1.4-1.7-3-3.2-4.8-4.5,1.7-1.3,3.3-2.8,4.6-4.6l-14.8-14.8-19.4,19.4,19.4,19.4,15-15Z"/>
        <path class="cls-2" d="M185.7,30.2l14.5-14.5c-5.3-7.1-13.9-10.6-25.9-10.6h-2.4l-5.6,5.6,19.4,19.4Z"/>
        <path class="cls-2" d="M27.7,30.6l16.6,16.6v-4.9c0-1.4.4-2.6,1.3-3.6,1-1,2.3-1.6,3.6-1.6h10.8l6.6-6.6-19.4-19.4-19.4,19.4Z"/>
        <path class="cls-2" d="M66.9,30.2l19.4-19.4-5.3-5.3c-1.9-.2-4-.3-6.1-.3h-21.9l-5.6,5.6,19.4,19.4Z"/>
        <path class="cls-2" d="M126.3,130l-13.3,13.3v1c0,4.7.5,8.9,1.4,12.6l12,12,19.4-19.4-19.4-19.4Z"/>
        <path class="cls-2" d="M126.3,169.5l-2.8,2.8c2.9,2.3,6.4,4,10.6,5l-7.8-7.8Z"/>
        <path class="cls-2" d="M146.7,148.5c-.8-1-1.2-2.1-1.2-3.5v-34.3l-18.8,18.8,19.4,19.4.5-.5Z"/>
        <path class="cls-2" d="M185.4,109.8l-19.4-19.4-14.9,14.9h20c1.4,0,2.5.5,3.4,1.6,1,1,1.6,2.3,1.6,3.6v8.8l9.5-9.5Z"/>
      </g>
      <rect class="cls-1" width="265" height="180"/>
    </g>
  </g>
</svg>