<?xml version="1.0" encoding="UTF-8"?>
<svg xmlns="http://www.w3.org/2000/svg" version="1.1" viewBox="0 0 161 180">
  <defs>
    <style>
      .cls-1 {
        fill: none;
      }

      .cls-2 {
        fill: #c59f7b;
      }
    </style>
  </defs>
  <!-- Generator: Adobe Illustrator 28.7.1, SVG Export Plug-In . SVG Version: 1.2.0 Build 142)  -->
  <g>
    <g id="Layer_1">
      <rect class="cls-1" width="161" height="180"/>
      <path class="cls-2" d="M148.9,8.6h5l-19.6,32.4h-5l19.6-32.4ZM131.6,25.1h-1.2c-4.1,0-6.2-2.2-6.2-6.6v-3.8c0-4.4,2.1-6.6,6.2-6.6h1.2c4.1,0,6.2,2.2,6.2,6.6v3.8c0,4.4-2.1,6.6-6.2,6.6ZM129.3,21c0,.3,0,.5.2.7.2.2.4.3.7.3h1.6c.3,0,.5-.1.6-.3.2-.2.3-.4.3-.7v-8.8c0-.3-.1-.5-.3-.7-.2-.2-.4-.3-.6-.3h-1.6c-.3,0-.5.1-.7.3-.2.2-.2.4-.2.7v8.8ZM152.6,24.5c4.1,0,6.2,2.2,6.2,6.6v3.8c0,4.4-2.1,6.6-6.2,6.6h-1.2c-4.1,0-6.2-2.2-6.2-6.6v-3.8c0-4.4,2.1-6.6,6.2-6.6h1.2ZM153.8,37.4v-8.8c0-.3-.1-.5-.3-.7-.2-.2-.4-.3-.7-.3h-1.5c-.3,0-.5.1-.7.3-.2.2-.2.4-.2.7v8.8c0,.3,0,.5.2.7.2.2.4.3.7.3h1.5c.3,0,.5-.1.7-.3.2-.2.3-.4.3-.7Z"/>
      <g>
        <path class="cls-2" d="M104.1,30.1l-19.4-19.4-19.2,19.2h2.8c1.4,0,2.5.5,3.4,1.6,1,1,1.6,2.3,1.6,3.6v3l11.5,11.5,19.4-19.4Z"/>
        <path class="cls-2" d="M76.3,5.2h-25.8l-5.1,5.1,19.4,19.4,19.4-19.4-5-5c-1,0-2,0-3,0Z"/>
        <polygon class="cls-2" points="73.2 38.8 73.2 61 84.3 49.9 73.2 38.8"/>
        <path class="cls-2" d="M45,9.9l4.7-4.7h-4.4c-1.7,0-3.3,0-4.8.2l4.5,4.5Z"/>
        <path class="cls-2" d="M16.4,20.9l8.8,8.8,19.4-19.4-4.8-4.8c-11.5,1.2-19.3,6.4-23.4,15.5Z"/>
        <polygon class="cls-2" points="48.5 86.4 45.4 89.5 48.5 92.6 48.5 86.4"/>
        <polygon class="cls-2" points="48.5 125.3 48.5 93.3 45 89.8 25.6 109.3 45 128.7 48.5 125.3"/>
        <polygon class="cls-2" points="25.2 109.6 13.1 121.8 13.1 136.4 25.2 148.5 44.7 129.1 25.2 109.6"/>
        <path class="cls-2" d="M13.1,41.9l11.8-11.8-8.6-8.6c-2.1,4.9-3.1,10.9-3.1,18.1v2.4Z"/>
        <path class="cls-2" d="M25.2,149.2l-10.1,10.1c3.2,10,10,16.2,20.5,18.3l9-9-19.4-19.4Z"/>
        <path class="cls-2" d="M13.1,137.1v7.2c0,5.5.6,10.3,1.9,14.5l9.9-9.9-11.8-11.8Z"/>
        <path class="cls-2" d="M25.6,30.1l19.4,19.4,3.4-3.4v-11c0-1.4.4-2.6,1.3-3.6,1-1,2.3-1.6,3.6-1.6h10.9l-19.2-19.2-19.4,19.4Z"/>
        <polygon class="cls-2" points="48.5 46.8 45.4 49.9 48.5 53 48.5 46.8"/>
        <path class="cls-2" d="M104.4,29.7l2.8-2.8c-2.6-10.6-8.8-17.4-18.7-20.2l-3.5,3.5,19.4,19.4Z"/>
        <polygon class="cls-2" points="24.9 69.7 13.1 57.9 13.1 81.5 24.9 69.7"/>
        <polygon class="cls-2" points="13.1 97.5 13.1 121.1 24.9 109.3 13.1 97.5"/>
        <polygon class="cls-2" points="13.1 42.6 13.1 57.2 25.2 69.3 44.7 49.9 25.2 30.4 13.1 42.6"/>
        <polygon class="cls-2" points="44.7 89.5 25.2 70 13.1 82.2 13.1 96.8 25.2 108.9 44.7 89.5"/>
        <polygon class="cls-2" points="48.5 85.7 48.5 53.7 45 50.2 25.6 69.7 45 89.1 48.5 85.7"/>
        <polygon class="cls-2" points="73.2 78.4 73.2 100.6 84.3 89.5 73.2 78.4"/>
        <path class="cls-2" d="M91.6,176l-7-7-9.6,9.6h1.2c5.9,0,11-.9,15.3-2.6Z"/>
        <path class="cls-2" d="M69.1,153.5c-.3,0-.6,0-.9,0h-7.8l-15,15,9.9,9.9h19l9.9-9.9-15.1-15.1Z"/>
        <polygon class="cls-2" points="108.5 105.5 104.8 109.3 108.5 113 108.5 105.5"/>
        <polygon class="cls-2" points="108.5 104.8 108.5 74.1 104.4 70 85 89.5 104.4 108.9 108.5 104.8"/>
        <path class="cls-2" d="M84.6,129.4l-11.5,11.5v7.5c0,1.4-.5,2.6-1.6,3.6-.5.6-1.2,1.1-1.9,1.3l14.9,14.9,19.4-19.4-19.4-19.4Z"/>
        <path class="cls-2" d="M104.8,148.9l3.3,3.3c.3-2.2.4-4.5.5-7l-3.7,3.7Z"/>
        <polygon class="cls-2" points="104.1 109.3 84.6 89.8 73.2 101.3 73.2 117.3 84.6 128.7 104.1 109.3"/>
        <path class="cls-2" d="M107.9,152.7l-3.5-3.5-19.4,19.4,7.1,7.1c8.9-3.8,14.2-11.5,15.9-23Z"/>
        <path class="cls-2" d="M108.5,144.4c0,0,0,0,0-.1v-30.6l-4.1-4.1-19.4,19.4,19.4,19.4,4.1-4.1Z"/>
        <path class="cls-2" d="M53.4,153.6c-1.4,0-2.6-.5-3.6-1.6-.9-1-1.3-2.3-1.3-3.6v-15.6l-3.4-3.4-19.4,19.4,19.4,19.4,14.7-14.7h-6.3Z"/>
        <path class="cls-2" d="M104.8,30.1l3.5,3.5c-.2-2.1-.5-4.1-.9-6l-2.5,2.5Z"/>
        <polygon class="cls-2" points="108.5 65.9 104.8 69.7 108.5 73.4 108.5 65.9"/>
        <path class="cls-2" d="M108.5,65.2v-25.7c0-1.8,0-3.5-.2-5.2l-3.9-3.9-19.4,19.4,19.4,19.4,4.1-4.1Z"/>
        <polygon class="cls-2" points="104.1 69.7 84.6 50.2 73.2 61.7 73.2 77.7 84.6 89.1 104.1 69.7"/>
        <path class="cls-2" d="M84.6,9.9l3.3-3.3c-2.4-.7-5.1-1.1-8-1.3l4.6,4.6Z"/>
        <polygon class="cls-2" points="48.5 126 45.4 129.1 48.5 132.1 48.5 126"/>
        <polygon class="cls-2" points="73.2 118 73.2 140.2 84.3 129.1 73.2 118"/>
        <path class="cls-2" d="M54.6,178.6l-9.6-9.6-8.8,8.8c2.8.5,5.8.8,9.1.8h9.3Z"/>
      </g>
    </g>
  </g>
</svg>