<?xml version="1.0" encoding="UTF-8"?>
<svg xmlns="http://www.w3.org/2000/svg" version="1.1" viewBox="0 0 211 180">
  <defs>
    <style>
      .cls-1 {
        fill: none;
      }

      .cls-2 {
        fill: #c59f7b;
      }
    </style>
  </defs>
  <!-- Generator: Adobe Illustrator 28.7.1, SVG Export Plug-In . SVG Version: 1.2.0 Build 142)  -->
  <g>
    <g id="Layer_1">
      <rect class="cls-1" width="211" height="180"/>
      <path class="cls-2" d="M198.9,8.6h5l-19.6,32.4h-5l19.6-32.4ZM181.6,25.1h-1.2c-4.1,0-6.2-2.2-6.2-6.6v-3.8c0-4.4,2.1-6.6,6.2-6.6h1.2c4.1,0,6.2,2.2,6.2,6.6v3.8c0,4.4-2.1,6.6-6.2,6.6ZM179.3,21c0,.3,0,.5.2.7.2.2.4.3.7.3h1.6c.3,0,.5-.1.6-.3.2-.2.3-.4.3-.7v-8.8c0-.3-.1-.5-.3-.7-.2-.2-.4-.3-.6-.3h-1.6c-.3,0-.5.1-.7.3-.2.2-.2.4-.2.7v8.8ZM202.6,24.5c4.1,0,6.2,2.2,6.2,6.6v3.8c0,4.4-2.1,6.6-6.2,6.6h-1.2c-4.1,0-6.2-2.2-6.2-6.6v-3.8c0-4.4,2.1-6.6,6.2-6.6h1.2ZM203.8,37.4v-8.8c0-.3-.1-.5-.3-.7-.2-.2-.4-.3-.7-.3h-1.5c-.3,0-.5.1-.7.3-.2.2-.2.4-.2.7v8.8c0,.3,0,.5.2.7.2.2.4.3.7.3h1.5c.3,0,.5-.1.7-.3.2-.2.3-.4.3-.7Z"/>
      <g>
        <polygon class="cls-2" points="99.3 10.4 102 7.8 96.7 7.8 99.3 10.4"/>
        <polygon class="cls-2" points="102.7 7.8 99.7 10.8 119.1 30.2 138.6 10.8 135.6 7.8 102.7 7.8"/>
        <polygon class="cls-2" points="119.5 30.6 124.5 35.6 147.6 35.6 147.6 19.8 138.9 11.2 119.5 30.6"/>
        <path class="cls-2" d="M97.4,70.7c-1.4,0-2.6-.5-3.6-1.6-.9-1-1.3-2.3-1.3-3.6v-7.8l-12.5,12.5,19.4,19.4,18.9-18.9h-20.9Z"/>
        <path class="cls-2" d="M87.2,102.5c1.4.1,2.8.2,4.2.2h20.3l-12.3-12.3-12.2,12.2Z"/>
        <polygon class="cls-2" points="119.1 31 114.5 35.6 123.8 35.6 119.1 31"/>
        <polygon class="cls-2" points="20.5 90 39.9 109.4 51.7 97.7 51.7 82.3 39.9 70.6 20.5 90"/>
        <polygon class="cls-2" points="92.4 43.2 92.4 35.6 113.8 35.6 118.8 30.6 99.3 11.2 79.9 30.6 92.4 43.2"/>
        <polygon class="cls-2" points="51.7 138 40.3 149.4 51.7 160.8 51.7 138"/>
        <polygon class="cls-2" points="51.7 137.3 51.7 121.9 39.9 110.2 20.5 129.6 39.9 149 51.7 137.3"/>
        <path class="cls-2" d="M79.5,149.7l-14.5,14.5c4.5,8.7,12.7,13.5,24.7,14.2l9.3-9.3-19.4-19.4Z"/>
        <polygon class="cls-2" points="60.1 50.4 79.5 69.8 92.4 56.9 92.4 43.9 79.5 31 60.1 50.4"/>
        <polygon class="cls-2" points="51.7 81.6 51.7 58.8 40.3 70.2 51.7 81.6"/>
        <polygon class="cls-2" points="147.6 19.1 147.6 7.8 142.3 7.8 139.3 10.8 147.6 19.1"/>
        <path class="cls-2" d="M119.3,70.7h-.3l-19.3,19.3,12.7,12.7h3.5c1.4,0,2.5.5,3.4,1.6,1,1,1.5,2.2,1.6,3.6l17.8-17.8-19.3-19.3Z"/>
        <path class="cls-2" d="M100.5,150.3c-1.4,0-2.6-.5-3.6-1.6-.9-1-1.3-2.3-1.3-3.6v-11.3l-15.7,15.7,19.4,19.4,19.4-19.4h-.1c-.8.5-1.7.9-2.8.9h-15.3Z"/>
        <polygon class="cls-2" points="20.1 169.5 16.3 173.4 16.3 176.3 26.9 176.3 20.1 169.5"/>
        <polygon class="cls-2" points="16.3 86.5 16.3 93.5 19.8 90 16.3 86.5"/>
        <path class="cls-2" d="M139.3,129.6l15,15c0-.1,0-.2,0-.3v-29.7l-15,15Z"/>
        <path class="cls-2" d="M79.5,70.6l-16.8,16.8c4.2,9,12.1,14,23.8,15.1l12.5-12.5-19.4-19.4Z"/>
        <polygon class="cls-2" points="16.3 126.1 16.3 133.1 19.8 129.6 16.3 126.1"/>
        <path class="cls-2" d="M61.6,131.8h-.6v12.5c0,7.9,1.3,14.4,3.8,19.5l14.4-14.4-17.6-17.6Z"/>
        <polygon class="cls-2" points="51.7 121.2 51.7 98.4 40.3 109.8 51.7 121.2"/>
        <path class="cls-2" d="M62.5,86.9l16.7-16.7-19.4-19.4-.6.6v17c0,7.4,1.1,13.5,3.3,18.5Z"/>
        <polygon class="cls-2" points="39.6 109.8 20.1 90.4 16.3 94.2 16.3 125.4 20.1 129.2 39.6 109.8"/>
        <polygon class="cls-2" points="59.2 50.6 59.4 50.4 59.2 50.2 59.2 50.6"/>
        <polygon class="cls-2" points="16.3 15 16.3 46.2 20.1 50 39.6 30.6 20.1 11.2 16.3 15"/>
        <polygon class="cls-2" points="19.8 50.4 16.3 46.9 16.3 53.9 19.8 50.4"/>
        <polygon class="cls-2" points="39.9 30.2 51.7 18.5 51.7 8 23.3 8 20.5 10.8 39.9 30.2"/>
        <polygon class="cls-2" points="154.3 113.9 154.3 105.7 138.9 90.4 120.8 108.5 120.8 111.1 138.9 129.2 154.3 113.9"/>
        <path class="cls-2" d="M138.6,129.6l-17.8-17.8v33.3c0,1.4-.5,2.6-1.6,3.6,0,0-.1.1-.2.2h.1c0,.1,19.4-19.3,19.4-19.3Z"/>
        <polygon class="cls-2" points="59.4 10.8 59.2 10.6 59.2 11 59.4 10.8"/>
        <polygon class="cls-2" points="16.3 165.7 16.3 172.7 19.8 169.2 16.3 165.7"/>
        <polygon class="cls-2" points="16.3 14.3 19.8 10.8 17 8 16.3 8 16.3 14.3"/>
        <polygon class="cls-2" points="20.1 10.4 22.6 8 17.7 8 20.1 10.4"/>
        <path class="cls-2" d="M153.4,155.1l-14.1,14.1,3.7,3.7c5.3-3.9,8.8-9.8,10.3-17.8Z"/>
        <path class="cls-2" d="M154.3,145.3l-15.4-15.4-19.4,19.4,19.4,19.4,14.6-14.6c.5-2.7.7-5.7.8-8.9Z"/>
        <path class="cls-2" d="M119.1,149.7l-19.4,19.4,9.4,9.4h13c2.7,0,5.3-.2,7.6-.6l8.9-8.9-19.4-19.4Z"/>
        <path class="cls-2" d="M138.9,169.5l-8.4,8.4c4.7-.8,8.7-2.4,12-4.7l-3.6-3.6Z"/>
        <polygon class="cls-2" points="95.6 131.8 62.3 131.8 79.5 149 95.6 133 95.6 131.8"/>
        <polygon class="cls-2" points="79.5 30.2 99 10.8 96 7.8 63.1 7.8 60.1 10.8 79.5 30.2"/>
        <polygon class="cls-2" points="59.2 49.5 59.7 50 79.2 30.6 59.7 11.2 59.2 11.7 59.2 49.5"/>
        <polygon class="cls-2" points="59.2 9.9 59.7 10.4 62.4 7.8 59.2 7.8 59.2 9.9"/>
        <polygon class="cls-2" points="138.9 10.4 141.6 7.8 136.3 7.8 138.9 10.4"/>
        <path class="cls-2" d="M147.7,80.9c-5.3-6.8-13.8-10.2-25.6-10.2h-2.1l18.9,18.9,8.7-8.7Z"/>
        <path class="cls-2" d="M154.3,105c0-10.2-2.1-18-6.4-23.7l-8.7,8.7,15,15h0Z"/>
        <polygon class="cls-2" points="20.5 50.4 39.9 69.8 51.7 58.1 51.7 42.7 39.9 31 20.5 50.4"/>
        <polygon class="cls-2" points="51.7 176.3 51.7 161.5 39.9 149.7 20.5 169.2 27.6 176.3 51.7 176.3"/>
        <polygon class="cls-2" points="51.7 42 51.7 19.2 40.3 30.6 51.7 42"/>
        <polygon class="cls-2" points="39.6 149.4 20.1 130 16.3 133.8 16.3 165 20.1 168.8 39.6 149.4"/>
        <path class="cls-2" d="M99.3,169.5l-9,9c.9,0,1.9,0,2.9,0h15.2l-9.1-9.1Z"/>
        <polygon class="cls-2" points="16.3 54.6 16.3 85.8 20.1 89.6 39.6 70.2 20.1 50.8 16.3 54.6"/>
      </g>
    </g>
  </g>
</svg>