<?xml version="1.0" encoding="UTF-8"?>
<svg xmlns="http://www.w3.org/2000/svg" version="1.1" viewBox="0 0 165 180">
  <defs>
    <style>
      .cls-1 {
        fill: none;
      }

      .cls-2 {
        fill: #c59f7b;
      }
    </style>
  </defs>
  <!-- Generator: Adobe Illustrator 28.7.1, SVG Export Plug-In . SVG Version: 1.2.0 Build 142)  -->
  <g>
    <g id="Layer_1">
      <rect class="cls-1" x=".5" width="164" height="180"/>
      <path class="cls-2" d="M152.4,8.6h5l-19.6,32.4h-5l19.6-32.4ZM135.1,25.1h-1.2c-4.1,0-6.2-2.2-6.2-6.6v-3.8c0-4.4,2.1-6.6,6.2-6.6h1.2c4.1,0,6.2,2.2,6.2,6.6v3.8c0,4.4-2.1,6.6-6.2,6.6ZM132.8,21c0,.3,0,.5.2.7.2.2.4.3.7.3h1.6c.3,0,.5-.1.6-.3.2-.2.3-.4.3-.7v-8.8c0-.3-.1-.5-.3-.7-.2-.2-.4-.3-.6-.3h-1.6c-.3,0-.5.1-.7.3-.2.2-.2.4-.2.7v8.8ZM156.1,24.5c4.1,0,6.2,2.2,6.2,6.6v3.8c0,4.4-2.1,6.6-6.2,6.6h-1.2c-4.1,0-6.2-2.2-6.2-6.6v-3.8c0-4.4,2.1-6.6,6.2-6.6h1.2ZM157.3,37.4v-8.8c0-.3-.1-.5-.3-.7-.2-.2-.4-.3-.7-.3h-1.5c-.3,0-.5.1-.7.3-.2.2-.2.4-.2.7v8.8c0,.3,0,.5.2.7.2.2.4.3.7.3h1.5c.3,0,.5-.1.7-.3.2-.2.3-.4.3-.7Z"/>
      <g>
        <polygon class="cls-2" points="19.2 61.3 12.5 54.6 12.5 68 19.2 61.3"/>
        <path class="cls-2" d="M39.4,81.5l-15.5,15.5c5.2,3.8,12.2,5.7,20.9,5.7h12.3l1.8-1.8-19.4-19.4Z"/>
        <path class="cls-2" d="M19.6,140.9l-5.2,5.2c.3,12.9,4.3,21.9,11.8,27.1l12.9-12.9-19.4-19.4Z"/>
        <polygon class="cls-2" points="19.2 21.7 12.5 15 12.5 28.4 19.2 21.7"/>
        <path class="cls-2" d="M47.1,69.1c-.9-1-1.3-2.3-1.3-3.6v-17.2l-6.4-6.4-19.4,19.4,19.4,19.4,10.2-10.2c-.9-.2-1.7-.7-2.5-1.4Z"/>
        <polygon class="cls-2" points="12.5 29.1 12.5 53.9 19.6 61 39 41.5 19.6 22.1 12.5 29.1"/>
        <polygon class="cls-2" points="12.5 14.3 19.6 21.4 33.2 7.8 12.5 7.8 12.5 14.3"/>
        <path class="cls-2" d="M19.6,61.7l-7.1,7.1c0,13.1,3.7,22.4,10.9,28l15.6-15.6-19.4-19.4Z"/>
        <polygon class="cls-2" points="98.8 21.4 100.9 19.2 100.9 7.8 85.2 7.8 98.8 21.4"/>
        <path class="cls-2" d="M107.7,109.5v-4.4c0-4.2-.4-8.1-1.1-11.5l-7.4,7.4,8.5,8.5Z"/>
        <polygon class="cls-2" points="73.4 35.6 84.6 35.6 98.4 21.7 84.5 7.8 73.5 7.8 59.5 21.7 73.4 35.6"/>
        <polygon class="cls-2" points="39.7 41.5 45.8 47.6 45.8 35.6 72.7 35.6 59.2 22.1 39.7 41.5"/>
        <path class="cls-2" d="M14.3,135.6v8.6c0,.4,0,.7,0,1.1l4.9-4.9-4.9-4.9Z"/>
        <polygon class="cls-2" points="45.6 7.8 59.2 21.4 72.8 7.8 45.6 7.8"/>
        <polygon class="cls-2" points="39.4 41.2 58.8 21.7 44.9 7.8 33.9 7.8 19.9 21.7 39.4 41.2"/>
        <polygon class="cls-2" points="85.3 35.6 100.9 35.6 100.9 24.2 98.8 22.1 85.3 35.6"/>
        <path class="cls-2" d="M68.6,150.3h-14.7c-1.1,0-2.1-.4-3-1l-11.1,11.1,18.3,18.3h2.3l18.3-18.3-10.1-10.1Z"/>
        <path class="cls-2" d="M93.2,174.9l-14.2-14.2-17.9,17.9h14.4c7.1,0,13-1.2,17.7-3.7Z"/>
        <path class="cls-2" d="M106.4,92.9c-2.5-10.7-8.6-17.6-18.4-20.5l-8.8,8.8,19.4,19.4,7.7-7.7Z"/>
        <path class="cls-2" d="M98.4,100.9l-19.4-19.4-19.4,19.4,1.8,1.8h7.9c1.4,0,2.5.5,3.4,1.6,1,1,1.6,2.3,1.6,3.6v7.6l4.8,4.8,19.4-19.4Z"/>
        <path class="cls-2" d="M79,121.1l-4.8,4.8v19.1c0,1.4-.5,2.6-1.6,3.6-.9,1-2,1.5-3.3,1.6l9.7,9.7,19.4-19.4-19.4-19.4Z"/>
        <path class="cls-2" d="M107.7,132l-8.5,8.5,8.4,8.4c.1-1.5.2-3,.2-4.6v-12.3Z"/>
        <path class="cls-2" d="M107.5,149.6l-8.7-8.7-19.4,19.4,14.3,14.3c8.2-4.5,12.8-12.9,13.8-25.1Z"/>
        <polygon class="cls-2" points="107.7 131.3 107.7 110.2 98.8 101.3 79.3 120.7 98.8 140.2 107.7 131.3"/>
        <path class="cls-2" d="M50.2,148.7c-.9-1-1.3-2.3-1.3-3.6v-13.3h-20.3l-8.7,8.7,19.4,19.4,11.1-11.1c0,0-.2-.1-.2-.2Z"/>
        <path class="cls-2" d="M68.2,70.7h-17.5c-.2,0-.4,0-.5,0l-10.5,10.5,19.4,19.4,19.4-19.4-10.4-10.4Z"/>
        <path class="cls-2" d="M87.5,72.2c-3.6-1-7.6-1.5-12.1-1.5h-6.5l10.1,10.1,8.6-8.6Z"/>
        <polygon class="cls-2" points="59.2 101.3 57.8 102.7 60.6 102.7 59.2 101.3"/>
        <path class="cls-2" d="M57.3,178.6l-17.9-17.9-12.8,12.8c5.1,3.4,11.8,5.1,20,5.1h10.7Z"/>
        <polygon class="cls-2" points="14.3 131.8 14.3 134.9 19.6 140.2 27.9 131.8 14.3 131.8"/>
        <polygon class="cls-2" points="99.1 21.7 100.9 23.5 100.9 19.9 99.1 21.7"/>
        <polygon class="cls-2" points="74.1 116.2 74.1 125.2 78.6 120.7 74.1 116.2"/>
      </g>
    </g>
  </g>
</svg>