<?xml version="1.0" encoding="UTF-8"?>
<svg id="Layer_2" xmlns="http://www.w3.org/2000/svg" viewBox="0 0 169.94 169.54">
  <defs>
    <style>
      .cls-1 {
        fill: #231f20;
      }

      .cls-2 {
        fill: #8e8e93;
      }

      .cls-3 {
        fill: #fff;
      }
    </style>
  </defs>
  <g id="Layer_1-2" data-name="Layer_1">
    <circle class="cls-2" cx="80.94" cy="87.46" r="80.94"/>
    <path class="cls-1" d="M140.84,39.13c.54,0,1.02-.38,1.11-.93l.56-3.1,3.75.38c.58.04,1.18-.39,1.24-1.02.06-.62-.39-1.18-1.02-1.24l-4.79-.48c-.59-.04-1.12.34-1.23.93l-.75,4.13c-.11.62.3,1.21.92,1.32.07.01.14.02.2.02Z"/>
    <path class="cls-1" d="M146.77,46.7c.54,0,1.02-.38,1.11-.93l.56-3.1,3.75.38c.6.04,1.18-.39,1.24-1.02.06-.62-.39-1.18-1.02-1.24l-4.79-.48c-.59-.04-1.12.34-1.23.93l-.75,4.13c-.11.62.3,1.21.92,1.32.07.01.14.02.2.02Z"/>
    <path class="cls-1" d="M150.68,54.79c.45,0,.88-.27,1.05-.71l1.16-2.92,3.6,1.12c.61.18,1.24-.15,1.42-.75.19-.6-.15-1.23-.75-1.42l-4.6-1.43c-.58-.17-1.17.11-1.39.66l-1.55,3.9c-.23.58.05,1.24.63,1.47.14.06.28.08.42.08Z"/>
    <path class="cls-1" d="M154.62,63.19c.35-.06.68-.28.84-.63l1.37-2.83,3.51,1.37c.58.23,1.24-.06,1.47-.65.23-.58-.06-1.24-.65-1.47l-4.49-1.75c-.54-.22-1.18.03-1.43.57l-1.82,3.78c-.27.56-.04,1.24.53,1.51.22.1.45.13.67.1Z"/>
    <path class="cls-1" d="M.4,84.77C.4,38.03,38.43,0,85.17,0c46.74,0,84.77,38.03,84.77,84.77s-38.03,84.77-84.77,84.77S.4,131.51.4,84.77ZM2.67,84.77c0,45.49,37.01,82.5,82.5,82.5,45.49,0,82.5-37.01,82.5-82.5S130.66,2.27,85.17,2.27c-45.49,0-82.5,37.01-82.5,82.5Z"/>
    <g>
      <path class="cls-3" d="M54.56,60.33c-2.51,0-4.54,2.92-4.54,6.53,0,.58.07,1.13.17,1.66-.19,1.29-.42,3.99.56,5.28,0,0,.56.82.8,1.67,0,0,.27,1.47,1.77.73,0,0,1.59-1.13.62-2.67,0,0-.06-.11-.13-.26.25.06.5.11.75.11,2.51,0,4.54-2.92,4.54-6.53s-2.03-6.53-4.54-6.53Z"/>
      <path class="cls-3" d="M68.6,55.99l-1,.2c-2.68.54-5.44.54-8.12,0l-1-.2c-1.19-.24-2.05-1.28-2.05-2.5v-.95c0-1.61,1.47-2.81,3.05-2.5h0c2.68.54,5.44.54,8.12,0h0c1.58-.32,3.05.89,3.05,2.5v.95c0,1.21-.86,2.26-2.05,2.5Z"/>
      <path class="cls-3" d="M50.65,55.99l-1,.2c-2.68.54-5.44.54-8.12,0l-1-.2c-1.19-.24-2.05-1.28-2.05-2.5v-.95c0-1.61,1.47-2.81,3.05-2.5h0c2.68.54,5.44.54,8.12,0h0c1.58-.32,3.05.89,3.05,2.5v.95c0,1.21-.86,2.26-2.05,2.5Z"/>
    </g>
  </g>
</svg>