<?xml version="1.0" encoding="UTF-8"?>
<svg xmlns="http://www.w3.org/2000/svg" version="1.1" viewBox="0 0 213 180">
  <defs>
    <style>
      .cls-1 {
        fill: none;
      }

      .cls-2 {
        fill: #c59f7b;
      }
    </style>
  </defs>
  <!-- Generator: Adobe Illustrator 28.7.1, SVG Export Plug-In . SVG Version: 1.2.0 Build 142)  -->
  <g>
    <g id="Layer_1">
      <rect class="cls-1" width="213" height="180"/>
      <path class="cls-2" d="M200.9,8.6h5l-19.6,32.4h-5l19.6-32.4ZM183.6,25.1h-1.2c-4.1,0-6.2-2.2-6.2-6.6v-3.8c0-4.4,2.1-6.6,6.2-6.6h1.2c4.1,0,6.2,2.2,6.2,6.6v3.8c0,4.4-2.1,6.6-6.2,6.6ZM181.3,21c0,.3,0,.5.2.7.2.2.4.3.7.3h1.6c.3,0,.5-.1.6-.3.2-.2.3-.4.3-.7v-8.8c0-.3-.1-.5-.3-.7-.2-.2-.4-.3-.6-.3h-1.6c-.3,0-.5.1-.7.3-.2.2-.2.4-.2.7v8.8ZM204.6,24.5c4.1,0,6.2,2.2,6.2,6.6v3.8c0,4.4-2.1,6.6-6.2,6.6h-1.2c-4.1,0-6.2-2.2-6.2-6.6v-3.8c0-4.4,2.1-6.6,6.2-6.6h1.2ZM205.8,37.4v-8.8c0-.3-.1-.5-.3-.7-.2-.2-.4-.3-.7-.3h-1.5c-.3,0-.5.1-.7.3-.2.2-.2.4-.2.7v8.8c0,.3,0,.5.2.7.2.2.4.3.7.3h1.5c.3,0,.5-.1.7-.3.2-.2.3-.4.3-.7Z"/>
      <g>
        <path class="cls-2" d="M46.7,110.5c0-1.4.4-2.6,1.3-3.6,1-1,2.3-1.6,3.6-1.6h20.5c1.4,0,2.5.5,3.4,1.6,1,1,1.6,2.3,1.6,3.6v2.4l3.1-3.1-19.4-19.4-19.4,19.4,5.4,5.4v-4.7Z"/>
        <polygon class="cls-2" points="118.4 108.4 118.4 111.2 119.8 109.8 118.4 108.4"/>
        <path class="cls-2" d="M41.3,70.2l19.4,19.4,19.4-19.4-4.6-4.6v5.7c0,1.4-.5,2.6-1.6,3.6-.9,1-2,1.6-3.4,1.6h-17.4c-1.4,0-2.6-.5-3.6-1.6-.9-1-1.3-2.3-1.3-3.6v-8l-7,7Z"/>
        <path class="cls-2" d="M100.3,50l7.5-7.5v-3.1c0-12.1-3-21-9.1-26.7l-17.8,17.8,19.4,19.4Z"/>
        <path class="cls-2" d="M74.7,36.8c.5.8.8,1.7.8,2.7v25.4l5,5,19.4-19.4-19.4-19.4-5.8,5.8Z"/>
        <polygon class="cls-2" points="139.6 90 120.1 70.6 118.4 72.3 118.4 107.7 120.1 109.4 139.6 90"/>
        <polygon class="cls-2" points="153.8 76.5 140.3 90 153.8 103.5 153.8 76.5"/>
        <polygon class="cls-2" points="120.5 30.6 139.9 50 153.8 36.2 153.8 25 139.9 11.2 120.5 30.6"/>
        <polygon class="cls-2" points="137.5 8 139.9 10.4 142.4 8 137.5 8"/>
        <polygon class="cls-2" points="153.8 75.8 153.8 64.6 139.9 50.8 120.5 70.2 139.9 89.6 153.8 75.8"/>
        <polygon class="cls-2" points="153.8 63.9 153.8 36.9 140.3 50.4 153.8 63.9"/>
        <polygon class="cls-2" points="118.4 32 119.8 30.6 118.4 29.2 118.4 32"/>
        <path class="cls-2" d="M80.9,70.2l18.1,18.1c5.8-5.4,8.8-14.2,8.8-26.5v-3.6l-7.5-7.5-19.4,19.4Z"/>
        <path class="cls-2" d="M80.5,110.2l-3.4,3.4v31.5c0,.2,0,.3,0,.5l3.5,3.5,19.4-19.4-19.4-19.4Z"/>
        <path class="cls-2" d="M40.6,109.8l-17.3-17.3c-6.1,5.9-9.1,14.8-9.1,26.8v3l6.9,6.9,19.4-19.4Z"/>
        <path class="cls-2" d="M80.5,149.7l-19.4,19.4,9.4,9.4h6.6c6.6,0,12.1-1.1,16.7-3.2l6.2-6.2-19.4-19.4Z"/>
        <polygon class="cls-2" points="20.8 129.6 14.2 123 14.2 136.2 20.8 129.6"/>
        <polygon class="cls-2" points="109.4 120.9 100.7 129.6 109.4 138.3 109.4 120.9"/>
        <polygon class="cls-2" points="139.6 50.4 120.1 31 118.4 32.7 118.4 68.1 120.1 69.8 139.6 50.4"/>
        <path class="cls-2" d="M99.2,91.5l-18.3,18.3,19.4,19.4,9-9v-.9c0-12.7-3.4-21.9-10.2-27.8Z"/>
        <polygon class="cls-2" points="118.4 68.8 118.4 71.6 119.8 70.2 118.4 68.8"/>
        <path class="cls-2" d="M60.4,90l-19.4-19.4-17.1,17.1c.8.8,1.7,1.6,2.6,2.3-1,.7-1.9,1.4-2.7,2.2l17.3,17.3,19.4-19.4Z"/>
        <path class="cls-2" d="M61.1,90l19.4,19.4,18.2-18.2c-.5-.4-1.1-.9-1.6-1.3.5-.4,1-.8,1.5-1.3l-18.1-18.1-19.4,19.4Z"/>
        <polygon class="cls-2" points="100.7 50.4 107.8 57.5 107.8 43.3 100.7 50.4"/>
        <polygon class="cls-2" points="118.4 28.5 120.1 30.2 139.6 10.8 136.8 8 118.4 8 118.4 28.5"/>
        <polygon class="cls-2" points="60.7 10.4 66 5.2 55.5 5.2 60.7 10.4"/>
        <polygon class="cls-2" points="153.8 24.3 153.8 8 143.1 8 140.3 10.8 153.8 24.3"/>
        <path class="cls-2" d="M24.1,13.4l16.8,16.8,19.4-19.4-5.6-5.6h-6.8c-10.5,0-18.5,2.8-23.9,8.3Z"/>
        <path class="cls-2" d="M15.8,44.7l5.4,5.4,19.4-19.4L23.8,13.8c-5.4,5.7-8,14.3-8,25.7v5.2Z"/>
        <polygon class="cls-2" points="153.8 115.4 153.8 104.2 139.9 90.4 120.5 109.8 139.9 129.2 153.8 115.4"/>
        <polygon class="cls-2" points="153.8 116.1 140.3 129.6 153.8 143.1 153.8 116.1"/>
        <polygon class="cls-2" points="20.8 50.4 15.8 45.4 15.8 55.4 20.8 50.4"/>
        <polygon class="cls-2" points="120.1 149.7 118.4 151.5 118.4 176.3 132.5 176.3 139.6 169.2 120.1 149.7"/>
        <polygon class="cls-2" points="153.8 143.8 139.9 130 120.5 149.4 139.9 168.8 153.8 155 153.8 143.8"/>
        <path class="cls-2" d="M51,178.6l9.4-9.4-19.4-19.4-19.4,19.4c0,0,.2.2.2.3l2.1,2.1c5.3,4.7,12.8,7,22.6,7h4.5Z"/>
        <polygon class="cls-2" points="153.8 155.7 140.3 169.2 147.4 176.3 153.8 176.3 153.8 155.7"/>
        <polygon class="cls-2" points="139.6 129.6 120.1 110.2 118.4 111.9 118.4 147.3 120.1 149 139.6 129.6"/>
        <polygon class="cls-2" points="139.9 169.5 133.2 176.3 146.7 176.3 139.9 169.5"/>
        <path class="cls-2" d="M100.3,169.5l-5.1,5.1c2.2-1.2,4.2-2.7,5.8-4.4l-.7-.7Z"/>
        <path class="cls-2" d="M15.8,56.1v5.7c0,11.5,2.6,20,7.7,25.5l17.1-17.1-19.4-19.4-5.4,5.4Z"/>
        <path class="cls-2" d="M21.1,130l-6.9,6.9v7.4c0,10.7,2.3,18.8,7,24.5l19.4-19.4-19.4-19.4Z"/>
        <path class="cls-2" d="M48.5,37.8c.2-.7.5-1.4,1-2,1-1,2.3-1.6,3.6-1.6h17.4c1.4,0,2.5.5,3.4,1.6.2.2.3.3.4.5l5.8-5.8-19.4-19.4-19.4,19.4,7.2,7.2Z"/>
        <polygon class="cls-2" points="46.7 143.3 46.7 115.9 40.9 110.2 21.5 129.6 40.9 149 46.7 143.3"/>
        <path class="cls-2" d="M21.5,50.4l19.4,19.4,7.3-7.3v-23c0-.4,0-.8.1-1.1l-7.4-7.4-19.4,19.4Z"/>
        <path class="cls-2" d="M109.4,139l-9-9-19.4,19.4,19.4,19.4,5.4-5.4c2.4-5.1,3.7-11.5,3.7-19.2v-5.3Z"/>
        <path class="cls-2" d="M100.7,169.2l.7.7c1.4-1.5,2.6-3.1,3.6-5l-4.3,4.3Z"/>
        <polygon class="cls-2" points="118.4 148 118.4 150.8 119.8 149.4 118.4 148"/>
        <path class="cls-2" d="M80.2,149.4l-3.2-3.2c-.2.9-.7,1.8-1.4,2.5-.9,1-2,1.6-3.4,1.6h-20.5c-1.4,0-2.6-.5-3.6-1.6-.9-1-1.3-2.3-1.3-3.6v-1.1l-5.4,5.4,19.4,19.4,19.4-19.4Z"/>
        <path class="cls-2" d="M80.5,30.2l17.8-17.8c-5.3-4.8-12.9-7.2-22.8-7.2h-8.8l-5.6,5.6,19.4,19.4Z"/>
        <polygon class="cls-2" points="69.8 178.6 60.7 169.5 51.7 178.6 69.8 178.6"/>
      </g>
    </g>
  </g>
</svg>