<?xml version="1.0" encoding="UTF-8"?>
<svg xmlns="http://www.w3.org/2000/svg" version="1.1" viewBox="0 0 261 180">
  <defs>
    <style>
      .cls-1 {
        fill: none;
      }

      .cls-2 {
        fill: #c59f7b;
      }
    </style>
  </defs>
  <!-- Generator: Adobe Illustrator 28.7.1, SVG Export Plug-In . SVG Version: 1.2.0 Build 142)  -->
  <g>
    <g id="Layer_1">
      <rect class="cls-1" x=".5" width="260" height="180"/>
      <path class="cls-2" d="M248.4,8.6h5l-19.6,32.4h-5l19.6-32.4ZM231.1,25.1h-1.2c-4.1,0-6.2-2.2-6.2-6.6v-3.8c0-4.4,2.1-6.6,6.2-6.6h1.2c4.1,0,6.2,2.2,6.2,6.6v3.8c0,4.4-2.1,6.6-6.2,6.6ZM228.8,21c0,.3,0,.5.2.7.2.2.4.3.7.3h1.6c.3,0,.5-.1.6-.3.2-.2.3-.4.3-.7v-8.8c0-.3-.1-.5-.3-.7-.2-.2-.4-.3-.6-.3h-1.6c-.3,0-.5.1-.7.3-.2.2-.2.4-.2.7v8.8ZM252.1,24.5c4.1,0,6.2,2.2,6.2,6.6v3.8c0,4.4-2.1,6.6-6.2,6.6h-1.2c-4.1,0-6.2-2.2-6.2-6.6v-3.8c0-4.4,2.1-6.6,6.2-6.6h1.2ZM253.3,37.4v-8.8c0-.3-.1-.5-.3-.7-.2-.2-.4-.3-.7-.3h-1.5c-.3,0-.5.1-.7.3-.2.2-.2.4-.2.7v8.8c0,.3,0,.5.2.7.2.2.4.3.7.3h1.5c.3,0,.5-.1.7-.3.2-.2.3-.4.3-.7Z"/>
      <g>
        <path class="cls-2" d="M124.3,10.4l2.6-2.6c-1.2.5-2.4,1.1-3.5,1.7l.9.9Z"/>
        <path class="cls-2" d="M105.7,31.4c0-.5-.1-1-.2-1.4l-.6.6.8.8Z"/>
        <path class="cls-2" d="M142.4,71.6v-2.7l-18.1-18.1-14.2,14.2v10.5s0,0,0,.1l14.2,14.2,18.1-18.1Z"/>
        <path class="cls-2" d="M124.3,50l19.4-19.4-19.4-19.4-11.5,11.5c-1.4,3.8-2.3,8.2-2.5,13.3l14.1,14.1Z"/>
        <path class="cls-2" d="M142.4,5.2c-5.5,0-10.3.7-14.3,2.2l-3.4,3.4,19.4,19.4,19.4-19.4-5.6-5.6h-15.5Z"/>
        <path class="cls-2" d="M163.9,11.2l-19.4,19.4,6.6,6.6h16.8c1.4,0,2.5.5,3.4,1.6.8.8,1.2,1.6,1.4,2.6l10.7-10.7-19.4-19.4Z"/>
        <path class="cls-2" d="M124,50.4l-13.7-13.7c0,.9,0,1.9,0,2.8v24.7l13.8-13.8Z"/>
        <path class="cls-2" d="M124.7,50.4l17.7,17.7v-25.8c0-1.4.4-2.6,1.3-3.6,1-1,2.3-1.6,3.6-1.6h3l-6.2-6.2-19.4,19.4Z"/>
        <path class="cls-2" d="M85.1,50.4l19.4,19.4,1.4-1.4c.2-2.1.3-4.3.3-6.6v-22.4c0-2.6-.1-5-.4-7.3l-1.3-1.3-19.4,19.4Z"/>
        <path class="cls-2" d="M104.9,149.4l2.5,2.5c.2-1.7.4-3.5.4-5.3l-2.9,2.9Z"/>
        <path class="cls-2" d="M91.1,175.9l-6.4-6.4-9,9c6,0,11.1-.9,15.4-2.7Z"/>
        <path class="cls-2" d="M107.8,119.3c0-2.2-.1-4.2-.3-6.2l-2.9-2.9-19.4,19.4,19.4,19.4,3.2-3.2c0-.5,0-1,0-1.5v-25Z"/>
        <path class="cls-2" d="M104.2,149.4l-19.4-19.4-9.2,9.2v6.7c0,1.4-.5,2.6-1.6,3.6-.9,1-2,1.6-3.4,1.6h-3.7l17.8,17.8,19.4-19.4Z"/>
        <polygon class="cls-2" points="44.8 90 43.8 89 43.8 91 44.8 90"/>
        <path class="cls-2" d="M74,61.5v10c0,1.4-.5,2.6-1.6,3.6-.4.4-.8.7-1.2,1l13.5,13.5,19.4-19.4-19.4-19.4-10.7,10.7Z"/>
        <polygon class="cls-2" points="112.8 131.8 112.8 140.8 121.8 131.8 112.8 131.8"/>
        <polygon class="cls-2" points="43.8 88.3 45.1 89.6 58.1 76.7 43.8 76.7 43.8 88.3"/>
        <polygon class="cls-2" points="74 60.8 84.4 50.4 74 40 74 60.8"/>
        <path class="cls-2" d="M184.1,30.6l19.4,19.4,1.8-1.8v-8.7c0-10.2-2.1-18.1-6.4-23.7l-14.9,14.9Z"/>
        <polygon class="cls-2" points="205.3 49 203.9 50.4 205.3 51.8 205.3 49"/>
        <path class="cls-2" d="M85.1,169.2l6.5,6.5c8.9-3.9,14.1-11.6,15.7-23.2l-2.7-2.7-19.4,19.4Z"/>
        <path class="cls-2" d="M115.2,160.4c1.5,4.4,3.8,8,6.9,10.8l2-2-8.8-8.8Z"/>
        <path class="cls-2" d="M110.2,76.2c.1,9.2,2,16.5,5.7,21.9l8.1-8.1-13.8-13.8Z"/>
        <path class="cls-2" d="M12.6,137v7.2c0,5.9.7,11,2.1,15.3l10.2-10.2-12.4-12.4Z"/>
        <path class="cls-2" d="M25,30.6l-8.1-8.1c-1.8,4.7-2.7,10.4-2.7,17v1.9l10.8-10.8Z"/>
        <polygon class="cls-2" points="66.2 151 63.7 151 45.5 169.2 54.9 178.6 75 178.6 84.4 169.2 66.2 151"/>
        <path class="cls-2" d="M183.7,30.2l14.9-14.9c-5.3-6.8-13.8-10.2-25.5-10.2h-3.2l-5.6,5.6,19.4,19.4Z"/>
        <polygon class="cls-2" points="43.8 91.7 43.8 104.8 59.6 104.8 45.1 90.4 43.8 91.7"/>
        <path class="cls-2" d="M104.2,109.8l-19.4-19.4-14.4,14.4h.3c1.4,0,2.5.5,3.4,1.6,1,1,1.6,2.3,1.6,3.6v10.1l9.2,9.2,19.4-19.4Z"/>
        <path class="cls-2" d="M124,10.8l-1-1c-4.4,2.7-7.6,6.6-9.7,11.7l10.7-10.7Z"/>
        <path class="cls-2" d="M104.9,70.2l.7.7c0-.5.2-1.1.2-1.7l-.9.9Z"/>
        <polygon class="cls-2" points="75.6 120.8 75.6 138.4 84.4 129.6 75.6 120.8"/>
        <path class="cls-2" d="M60.3,104.8h9.4l14.8-14.8-13.6-13.6c-.5.2-1.1.3-1.7.3h-10.2l-13.3,13.3,14.8,14.8Z"/>
        <path class="cls-2" d="M95.6,89.9c5.3-3.9,8.6-10,9.9-18.4l-1-1-19.4,19.4,19.4,19.4,2-2c-1.8-7.7-5.4-13.6-11-17.5Z"/>
        <path class="cls-2" d="M106.7,108l-1.8,1.8,2.5,2.5c-.2-1.5-.4-2.9-.7-4.3Z"/>
        <path class="cls-2" d="M200.2,166.2l-16.5-16.5-19.4,19.4,9.4,9.4c12.6-.1,21.4-4.3,26.5-12.4Z"/>
        <rect class="cls-2" x="170" y="76.2" width="27.5" height="27.5" transform="translate(-9.8 156.3) rotate(-45)"/>
        <path class="cls-2" d="M25.7,30.6l19.4,19.4,1.6-1.6v-9.8c0-1.4.4-2.6,1.3-3.6,1-1,2.3-1.6,3.6-1.6h10l2.9-2.9-19.4-19.4-19.4,19.4Z"/>
        <polygon class="cls-2" points="14.2 42.1 14.2 55.4 39.8 55.4 44.8 50.4 25.3 31 14.2 42.1"/>
        <path class="cls-2" d="M54.2,178.6l-9.1-9.1-8.4,8.4c2.5.4,5.2.6,8.1.6h9.3Z"/>
        <polygon class="cls-2" points="205.3 88.6 203.9 90 205.3 91.4 205.3 88.6"/>
        <polygon class="cls-2" points="205.3 87.8 205.3 52.6 203.5 50.8 184.1 70.2 203.5 89.6 205.3 87.8"/>
        <path class="cls-2" d="M64.9,30.2l19.4-19.4-5.4-5.4c-1.6-.2-3.3-.2-5-.2h-22.9l-5.6,5.6,19.4,19.4Z"/>
        <path class="cls-2" d="M144.1,149.7l-19.4,19.4,7.8,7.8c3.7,1.1,7.9,1.6,12.6,1.6h9.2l9.4-9.4-19.4-19.4Z"/>
        <path class="cls-2" d="M116.1,98.5c5.3,7.4,14,11.2,26.3,11.2h1.3l-19.3-19.3-8.2,8.2Z"/>
        <path class="cls-2" d="M17.1,22l8.2,8.2,19.4-19.4-5.2-5.2c-11.2,1.5-18.7,7-22.5,16.4Z"/>
        <path class="cls-2" d="M205.3,131.8l-1.8-1.8-19.4,19.4,16.4,16.4c3.2-5.4,4.9-12.6,4.9-21.5v-12.5Z"/>
        <polygon class="cls-2" points="203.9 129.6 205.3 131 205.3 128.1 203.9 129.6"/>
        <path class="cls-2" d="M45.1,10.4l5.3-5.3h-4c-2.2,0-4.2.1-6.2.4l4.9,4.9Z"/>
        <polygon class="cls-2" points="163.9 169.5 154.9 178.6 173 178.6 163.9 169.5"/>
        <polygon class="cls-2" points="205.3 127.4 205.3 92.2 203.5 90.4 184.1 109.8 203.5 129.2 205.3 127.4"/>
        <path class="cls-2" d="M172.8,138.8v6.2c0,1.4-.5,2.6-1.6,3.6-.9,1-2,1.6-3.4,1.6h-16.9c-1.4,0-2.6-.5-3.6-1.6-.3-.4-.6-.9-.8-1.4l-2,2,19.4,19.4,19.4-19.4-10.5-10.5Z"/>
        <polygon class="cls-2" points="203.2 129.6 183.7 110.2 172.8 121.1 172.8 138.1 183.7 149 203.2 129.6"/>
        <path class="cls-2" d="M25.3,149.7l-10.4,10.4c3.4,9.8,10.4,15.7,21.2,17.7l8.7-8.7-19.4-19.4Z"/>
        <path class="cls-2" d="M84.7,10.4l3.2-3.2c-2.5-.9-5.2-1.5-8.1-1.8l5,5Z"/>
        <polygon class="cls-2" points="62.4 33.5 67.5 33.5 64.9 31 62.4 33.5"/>
        <polygon class="cls-2" points="163.9 10.4 169.2 5.2 158.7 5.2 163.9 10.4"/>
        <path class="cls-2" d="M68.2,33.5h.8c1.4,0,2.5.5,3.4,1.6,1,1,1.6,2.3,1.6,3.6v.6l10.7,10.7,19.4-19.4-19.4-19.4-19.4,19.4,2.9,2.9Z"/>
        <path class="cls-2" d="M104.5,30.2l.9-.9c-2-11.2-7.7-18.5-17-21.9l-3.3,3.3,19.4,19.4Z"/>
        <path class="cls-2" d="M151.3,77.7h-3.9c-1.4,0-2.6-.5-3.6-1.6-.9-1-1.3-2.3-1.3-3.6v-.2l-17.7,17.7,19.4,19.4,19.4-19.4-12.3-12.3Z"/>
        <path class="cls-2" d="M183.4,70.2l-10.5-10.5v12.9c0,1.4-.5,2.6-1.6,3.6-.9,1-2,1.6-3.4,1.6h-15.9l11.9,11.9,19.4-19.4Z"/>
        <path class="cls-2" d="M203.2,50.4l-19.4-19.4-10.9,10.9c0,.2,0,.3,0,.5v16.6l10.9,10.9,19.4-19.4Z"/>
        <path class="cls-2" d="M62.9,151h-12.9c-1.4,0-2.6-.5-3.6-1.6-.9-1-1.3-2.3-1.3-3.6v-15.3h-.5l-18.9,18.9,19.4,19.4,17.8-17.8Z"/>
        <path class="cls-2" d="M126.2,131.8h-3.7l-9.7,9.7v2.8c0,5.7.7,10.7,2,15l9.5,9.5,19.4-19.4-17.6-17.6Z"/>
        <path class="cls-2" d="M124.3,169.5l-2,2c2.5,2.2,5.5,3.9,9,5.1l-7.1-7.1Z"/>
        <path class="cls-2" d="M146.3,146.8c-.2-.6-.3-1.2-.3-1.8v-13.3h-19.2l17.2,17.2,2.2-2.2Z"/>
        <path class="cls-2" d="M183.4,109.8l-19.4-19.4-19.3,19.3h10.8c6.9,0,12.7-1.1,17.4-3.4v14l10.5-10.5Z"/>
        <polygon class="cls-2" points="40.5 55.4 46.7 55.4 46.7 52.3 45.1 50.8 40.5 55.4"/>
        <polygon class="cls-2" points="46.7 51.6 46.7 49.2 45.5 50.4 46.7 51.6"/>
        <polygon class="cls-2" points="43.9 130.5 12.6 130.5 12.6 136.3 25.3 149 43.9 130.5"/>
      </g>
    </g>
  </g>
</svg>