<?xml version="1.0" encoding="UTF-8"?>
<svg id="Layer_2" xmlns="http://www.w3.org/2000/svg" viewBox="0 0 311.81 311.81">
  <defs>
    <style>
      .cls-1 {
        fill: none;
      }

      .cls-2 {
        fill: #231f20;
      }

      .cls-3 {
        fill: #2d2c2c;
      }

      .cls-4 {
        fill: #fff;
      }
    </style>
  </defs>
  <g id="Layer_1-2" data-name="Layer_1">
    <path class="cls-4" d="M308.84,58.01c-.75-1.48-2.03-2.61-3.44-3.02-.2-.06-.41-.1-.64-.13.37-4.92-1.58-7.37-3.29-8.55-1.98-1.37-4.24-1.5-6.11-1.23.21-3.4-1.31-6.55-4.14-8.24-7.4-4.44-18.02,2.61-19.68,3.78-9.79,5.43-28.91,21.2-44.19,34.35-16.08-23.09-41.73-36.26-70.9-36.26-35.41,0-67.69,21.88-80.97,54.65-19.96,3-54.05-3.85-55.5-4.15-.32-.1-.84-.24-1.45-.32-.32-.05-.66-.07-.98-.08-2.64-.1-7.5.34-10.26,4.29-2.16,3.09-2.21,7.24-.16,12.31.21.51.13,1.03-.18,1.29-5.08,4.21-6.23,9.56-3.05,14.31.36.54.32,1.05.21,1.19-4.76,6.97,2.01,13.41,4.21,15.23.75.61,1.59,1.11,2.5,1.47,12.53,5.04,32.84,6.83,46.42,6.83,5.63,0,10.43-.29,13.94-.82.19.88.38,1.71.58,2.51.67,4.92,1.77,9.78,3.29,14.49l-39.55,32.9c-8.24.82-13.14,3.02-14.59,6.56-.54,1.32-1.05,3.99,1.59,6.96l.16.18,25.74,21,9.2,7c.7.58,3.5,2.67,7.51,2.67.42,0,.83-.02,1.21-.06,3.71-.39,7.17-2.59,10.01-6.35l27.81-29.51c10.4,8,22.53,13.5,35.39,16.02l-1.58,35.37c-.74,4.81.06,8.76,2.39,11.74,2.76,3.52,6.63,4.27,7.79,4.42h0s11.52,1.75,11.52,1.75l33.27,3.88h.25c2.76-.15,4.9-1.5,5.88-3.72,1.53-3.49-.3-8.54-5.45-15.03l-3.36-44c24.57-10.83,42.66-32.68,48.63-58.88,1.71-4.87,2.98-9.88,3.79-14.91,36.87-24.59,64.81-69.25,65.06-69.69l.22-.46c1.95-5.19,2.23-9.02.87-11.73Z"/>
    <g>
      <circle class="cls-3" cx="155.99" cy="135.85" r="82.04"/>
      <path d="M217.68,149.19c-.51,0-.99-.32-1.17-.83-.22-.64.12-1.35.76-1.57,46.04-16.03,85.28-78.56,85.67-79.19,1.81-4.89,1.28-6.9.87-7.34-1.8-.19-3.11-.86-3.9-2-1.05-1.51-.75-3.26-.62-3.79.1-1.33,0-3.01-.95-3.67-1.22-.84-3.61-.03-4.36.32-.19.09-.4.13-.6.12-1.55-.1-2.67-.62-3.33-1.56-.68-.96-.8-2.26-.35-3.85.41-1.45.18-3.42-1.3-4.31-3.9-2.34-11.4,1.89-13.97,3.72-17.54,9.64-69.2,56.51-69.72,56.99-.5.46-1.28.43-1.74-.08-.46-.5-.42-1.28.08-1.74,2.13-1.94,52.39-47.54,70.07-57.25.3-.23,10.47-7.4,16.54-3.75,2.26,1.36,3.22,4.21,2.41,7.09-.23.82-.24,1.44-.01,1.76.18.25.6.43,1.19.5,1.06-.44,4.23-1.54,6.49.02,1.57,1.09,2.24,3.11,2,6.01,0,.08-.02.17-.05.25,0,0-.29,1.09.25,1.84.39.55,1.18.87,2.35.96.08,0,.17.02.25.05.48.14,1.16.6,1.6,1.49.95,1.89.61,5.02-1,9.32-.5.85-40.21,64.12-87.06,80.43-.13.05-.27.07-.4.07Z"/>
      <path d="M156.44,210.38c-46.5,0-84.34-37.83-84.34-84.34s37.83-84.34,84.34-84.34c29.65,0,55.43,14.01,70.74,38.43.36.58.19,1.34-.39,1.7-.58.36-1.34.19-1.7-.39-14.85-23.69-39.87-37.27-68.65-37.27-45.14,0-81.87,36.73-81.87,81.87s36.73,81.87,81.87,81.87c40.31,0,75.13-30.03,80.99-69.86.1-.67.74-1.11,1.4-1.04.67.1,1.14.73,1.04,1.4-6.03,41.03-41.9,71.97-83.43,71.97Z"/>
      <path d="M193.03,273.44l-32.92-3.83-11.52-1.75c-.07,0-3.54-.33-5.88-3.31-1.82-2.33-2.42-5.56-1.77-9.59l2.09-46.6c.03-.66.57-1.18,1.23-1.18.02,0,.04,0,.06,0,.68.03,1.21.61,1.17,1.29l-2.1,46.75c-.55,3.45-.13,6.03,1.24,7.79,1.65,2.14,4.23,2.41,4.25,2.41l11.56,1.75,32.67,3.82c.44-.04.82-.19.94-.45.65-1.49-2.32-6.59-5.51-10.41-.16-.2-.26-.44-.28-.7l-4.19-54.95c-.05-.68.46-1.27,1.14-1.32.62-.07,1.27.46,1.32,1.14l4.16,54.56c2,2.45,7.13,9.22,5.62,12.67-.36.82-1.22,1.82-3.28,1.92Z"/>
      <path d="M65.12,236.18c-3.29,0-5.53-1.93-5.64-2.02l-9.18-6.98-25.56-20.85c-1.51-1.69-1.39-3-1.05-3.83,1.43-3.49,9.86-4.52,13.01-4.79l42.69-35.52c.52-.43,1.3-.36,1.74.16.43.52.36,1.3-.16,1.74l-42.99,35.76c-.2.16-.44.26-.69.28-4.97.38-10.7,1.79-11.31,3.29-.11.26.05.65.48,1.13l25.38,20.68,9.21,7.01c.08.07,2.04,1.72,4.75,1.43,2.22-.25,4.36-1.74,6.37-4.43l34.15-36.26c.47-.5,1.25-.52,1.74-.05.5.47.52,1.25.05,1.74l-34.06,36.15c-2.35,3.17-5.08,4.99-8.03,5.3-.3.03-.6.05-.89.05Z"/>
      <path d="M200.96,74.17h-.03c-.68-.02-1.22-.58-1.2-1.26l.14-5.69c.01-.61.48-1.12,1.09-1.19l5.74-.68c.65-.1,1.29.4,1.37,1.08.08.68-.4,1.29-1.08,1.37l-4.68.55-.11,4.62c-.02.67-.57,1.2-1.23,1.2Z"/>
      <path d="M189.7,67.85c-.6,0-1.13-.44-1.22-1.05l-.84-5.63c-.09-.61.28-1.19.87-1.36l5.54-1.65c.66-.19,1.34.18,1.53.83.19.65-.18,1.34-.83,1.53l-4.51,1.34.68,4.57c.1.67-.36,1.3-1.04,1.4-.06,0-.12.01-.18.01Z"/>
      <path d="M176.86,63.02c-.52,0-1.01-.34-1.18-.87l-1.69-5.44c-.18-.59.09-1.22.65-1.48l5.22-2.48c.61-.3,1.35-.03,1.64.58.29.61.03,1.35-.58,1.64l-4.25,2.02,1.38,4.42c.2.65-.16,1.34-.81,1.54-.12.04-.25.06-.37.06Z"/>
      <path d="M210.31,82.3c-.07,0-.13,0-.2-.01-.67-.11-1.13-.74-1.03-1.41l.89-5.62c.1-.6.57-1.11,1.24-1.04l5.78.08c.68,0,1.23.57,1.22,1.25-.01.68-.54,1.11-1.25,1.22l-4.71-.07-.72,4.57c-.1.61-.62,1.04-1.22,1.04Z"/>
      <path class="cls-2" d="M57.24,142.74c-14.4,0-33.71-1.95-45.3-6.61-.64-.26-1.22-.6-1.72-1.01-6.28-5.19-4.97-9.25-3.64-11.21.86-1.26.78-3.09-.19-4.55-2.3-3.45-1.42-7.12,2.47-10.34,1.33-1.1,1.75-3,1.05-4.73-1.65-4.07-1.7-7.26-.16-9.47,1.92-2.76,5.63-3.08,7.69-3.01.22,0,.44.02.65.06.55.07.96.2,1.09.25.31.08,36.93,7.55,57.62,4.08.68-.12,1.31.34,1.42,1.01s-.34,1.31-1.01,1.42c-21.55,3.61-58.48-4.06-58.76-4.16-.09-.03-.35-.11-.69-.15-.14-.02-.26-.03-.39-.03-1.26-.06-4.29.08-5.6,1.95-1.02,1.46-.87,3.93.43,7.14,1.11,2.73.4,5.77-1.76,7.55-4.32,3.58-2.57,6.21-1.99,7.08,1.55,2.33,1.62,5.2.18,7.31-1.54,2.25-.47,4.91,3.17,7.92.31.26.67.47,1.07.63,19.23,7.74,57.11,7.05,61.05,4.85.13-.41.46-.74.91-.84.67-.16,1.32.26,1.47.93.14.62-.08,1.23-.62,1.68-1.71,1.45-9.03,2.28-18.43,2.28Z"/>
      <g>
        <path class="cls-4" d="M136.14,127.67c.53-1.21-.36-2.56-1.68-2.56h-10.35s-.15,0-.15,0h-10.35c-1.32,0-2.2,1.35-1.68,2.56,1.25,2.86,4.39,7.1,12.03,7.16h0s.05,0,.08,0c.03,0,.05,0,.08,0h0c7.64-.07,10.78-4.3,12.03-7.16Z"/>
        <rect class="cls-4" x="111.46" y="110.84" width="14.21" height="6.14" rx="3.07" ry="3.07" transform="translate(4.65 232.47) rotate(-90)"/>
        <rect class="cls-4" x="122.41" y="110.84" width="14.21" height="6.14" rx="3.07" ry="3.07" transform="translate(15.6 243.42) rotate(-90)"/>
      </g>
    </g>
    <rect class="cls-1" width="311.81" height="311.81"/>
  </g>
</svg>