<?xml version="1.0" encoding="UTF-8"?>
<svg xmlns="http://www.w3.org/2000/svg" version="1.1" viewBox="0 0 265 180">
  <defs>
    <style>
      .cls-1 {
        fill: none;
      }

      .cls-2 {
        fill: #c59f7b;
      }
    </style>
  </defs>
  <!-- Generator: Adobe Illustrator 28.7.1, SVG Export Plug-In . SVG Version: 1.2.0 Build 142)  -->
  <g>
    <g id="Layer_1">
      <rect class="cls-1" width="265" height="180"/>
      <path class="cls-2" d="M252.9,8.6h5l-19.6,32.4h-5l19.6-32.4ZM235.6,25.1h-1.2c-4.1,0-6.2-2.2-6.2-6.6v-3.8c0-4.4,2.1-6.6,6.2-6.6h1.2c4.1,0,6.2,2.2,6.2,6.6v3.8c0,4.4-2.1,6.6-6.2,6.6ZM233.3,21c0,.3,0,.5.2.7.2.2.4.3.7.3h1.6c.3,0,.5-.1.6-.3.2-.2.3-.4.3-.7v-8.8c0-.3-.1-.5-.3-.7-.2-.2-.4-.3-.6-.3h-1.6c-.3,0-.5.1-.7.3-.2.2-.2.4-.2.7v8.8ZM256.6,24.5c4.1,0,6.2,2.2,6.2,6.6v3.8c0,4.4-2.1,6.6-6.2,6.6h-1.2c-4.1,0-6.2-2.2-6.2-6.6v-3.8c0-4.4,2.1-6.6,6.2-6.6h1.2ZM257.8,37.4v-8.8c0-.3,0-.5-.3-.7-.2-.2-.4-.3-.6-.3h-1.6c-.3,0-.5.1-.7.3-.2.2-.2.4-.2.7v8.8c0,.3,0,.5.2.7.2.2.4.3.7.3h1.6c.3,0,.5-.1.6-.3.2-.2.3-.4.3-.7Z"/>
      <g>
        <path class="cls-2" d="M73.3,38.7v24.7l13.1-13.1-13.4-13.4c.2.5.3,1.1.3,1.7Z"/>
        <path class="cls-2" d="M39.3,81.8l7.9,7.9,8.5-8.5h-8.1c-3,0-5.8.2-8.3.7Z"/>
        <path class="cls-2" d="M48.6,127.8v-9.5c0-1.4.4-2.6,1.3-3.6,1-1,2.3-1.6,3.6-1.6h9.7l3.3-3.3-19.4-19.4-19.4,19.4,19.4,19.4,1.5-1.5Z"/>
        <polygon class="cls-2" points="126.3 10.4 129 7.8 123.7 7.8 126.3 10.4"/>
        <path class="cls-2" d="M73.3,64.2v11.7c0,.1,0,.2,0,.3l13.4,13.4,19.4-19.4-19.4-19.4-13.4,13.4Z"/>
        <polygon class="cls-2" points="113.9 22.9 126 10.8 123 7.8 113.9 7.8 113.9 22.9"/>
        <polygon class="cls-2" points="176.5 39.4 185.4 30.6 176.5 21.8 176.5 39.4"/>
        <polygon class="cls-2" points="48.6 128.5 47.5 129.6 48.6 130.7 48.6 128.5"/>
        <path class="cls-2" d="M185.4,70.2l-8.8-8.8v12.5c0,1.4-.5,2.6-1.6,3.6-.9,1-2,1.6-3.4,1.6h-16.3l10.6,10.6,19.4-19.4Z"/>
        <path class="cls-2" d="M154.6,79h-3.6c-1.4,0-2.6-.5-3.6-1.6-.9-1-1.3-2.3-1.3-3.6v-3.2l-19.4,19.4,19.4,19.4,19.4-19.4-11-11Z"/>
        <polygon class="cls-2" points="205.2 50.4 185.7 31 176.5 40.2 176.5 60.6 185.7 69.8 205.2 50.4"/>
        <polygon class="cls-2" points="104.8 150.8 104.8 148 102.9 146.1 70.6 146.1 67.3 149.4 86.7 168.8 104.8 150.8"/>
        <polygon class="cls-2" points="69.9 146.1 64 146.1 66.9 149 69.9 146.1"/>
        <polygon class="cls-2" points="93.2 176 86.7 169.5 80.3 176 93.2 176"/>
        <polygon class="cls-2" points="104.8 151.5 87.1 169.2 93.9 176 104.8 176 104.8 151.5"/>
        <path class="cls-2" d="M106.5,69.8l.3-.3v-30c0-3-.2-5.7-.5-8.3l-19.2,19.2,19.4,19.4Z"/>
        <path class="cls-2" d="M46.8,90l-8.1-8.1c-10.7,2-17.7,8-21.1,17.8l9.7,9.7,19.4-19.4Z"/>
        <path class="cls-2" d="M66.9,109.4l19.4-19.4-13.2-13.2c-.2,1-.7,1.9-1.5,2.7-.9,1-2,1.6-3.4,1.6h-12l-8.9,8.9,19.4,19.4Z"/>
        <polygon class="cls-2" points="146.1 30.2 146.1 7.8 129.7 7.8 126.7 10.8 146.1 30.2"/>
        <polygon class="cls-2" points="113.9 23.6 113.9 37.6 126.3 50 145.8 30.6 126.3 11.2 113.9 23.6"/>
        <path class="cls-2" d="M27,30.6l-10-10c-2.3,5.1-3.5,11.3-3.5,18.9v4.6l13.5-13.5Z"/>
        <polygon class="cls-2" points="126 50.4 113.9 38.3 113.9 62.5 126 50.4"/>
        <polygon class="cls-2" points="66.9 149.7 47.5 169.2 54.3 176 79.6 176 86.4 169.2 66.9 149.7"/>
        <path class="cls-2" d="M17.4,100.2c-1.4,4.3-2.1,9.4-2.1,15.2v6l11.6-11.6-9.6-9.6Z"/>
        <path class="cls-2" d="M126.3,50.8l-12.5,12.5v12.2c0,.6,0,1.2,0,1.8l12.4,12.4,19.4-19.4-19.4-19.4Z"/>
        <path class="cls-2" d="M119.2,97.5c5.1,8,14,12.1,26.5,12.2l-19.3-19.3-7.2,7.2Z"/>
        <polygon class="cls-2" points="104.8 146.1 103.6 146.1 104.8 147.3 104.8 146.1"/>
        <path class="cls-2" d="M87.1,90l13,13c4.5-5.7,6.8-13.8,6.8-24.2v-7.9l-.3-.3-19.4,19.4Z"/>
        <polygon class="cls-2" points="146.1 31 126.7 50.4 146.1 69.8 146.1 31"/>
        <polygon class="cls-2" points="69.9 113.1 66.9 110.2 64 113.1 69.9 113.1"/>
        <path class="cls-2" d="M113.9,77.9c.3,7.8,1.9,14.2,5,19.2l7.1-7.1-12.1-12.1Z"/>
        <path class="cls-2" d="M67.3,109.8l3.3,3.3h4.1c11.4,0,19.8-3.2,25.2-9.7l-13-13-19.4,19.4Z"/>
        <polygon class="cls-2" points="46.8 129.6 27.3 110.2 15.4 122.1 15.4 137 27.3 149 46.8 129.6"/>
        <polygon class="cls-2" points="176.5 140.5 176.5 158.2 185.4 149.4 176.5 140.5"/>
        <polygon class="cls-2" points="205.2 129.6 185.7 110.2 176.5 119.4 176.5 139.8 185.7 149 205.2 129.6"/>
        <polygon class="cls-2" points="209 125.7 209 93.9 205.5 90.4 186.1 109.8 205.5 129.2 209 125.7"/>
        <polygon class="cls-2" points="209 13.9 209 7.8 208.9 7.8 205.9 10.8 209 13.9"/>
        <path class="cls-2" d="M27.7,30.6l19.4,19.4,1-1v-10.4c0-1.4.4-2.6,1.3-3.6,1-1,2.3-1.6,3.6-1.6h10.6l2.9-2.9-19.4-19.4-19.4,19.4Z"/>
        <polygon class="cls-2" points="205.5 10.4 208.2 7.8 202.9 7.8 205.5 10.4"/>
        <polygon class="cls-2" points="13.5 44.8 13.5 52 45.2 52 46.8 50.4 27.3 31 13.5 44.8"/>
        <polygon class="cls-2" points="27.3 149.7 15.4 161.7 15.4 176 40 176 46.8 169.2 27.3 149.7"/>
        <polygon class="cls-2" points="47.1 169.5 40.7 176 53.6 176 47.1 169.5"/>
        <polygon class="cls-2" points="209 173 205.5 169.5 199.1 176 209 176 209 173"/>
        <path class="cls-2" d="M42,5.3l5.1,5.1,5.3-5.3h-6.6c-1.3,0-2.6,0-3.8.1Z"/>
        <polygon class="cls-2" points="205.9 129.6 209 132.7 209 126.5 205.9 129.6"/>
        <polygon class="cls-2" points="205.9 169.2 209 172.3 209 166 205.9 169.2"/>
        <path class="cls-2" d="M17.3,20.2l10.1,10.1,19.4-19.4-5.4-5.4c-11.8,1-19.8,5.9-24.1,14.8Z"/>
        <polygon class="cls-2" points="209 165.3 209 133.4 205.5 130 186.1 149.4 205.5 168.8 209 165.3"/>
        <polygon class="cls-2" points="185.7 149.7 176.5 159 176.5 176 198.4 176 205.2 169.2 185.7 149.7"/>
        <polygon class="cls-2" points="186.1 30.6 205.5 50 209 46.5 209 14.7 205.5 11.2 186.1 30.6"/>
        <polygon class="cls-2" points="45.9 52 48.1 52 48.1 51.7 47.1 50.8 45.9 52"/>
        <polygon class="cls-2" points="66.6 149.4 63.3 146.1 48.6 146.1 48.6 131.4 47.1 130 27.7 149.4 47.1 168.8 66.6 149.4"/>
        <polygon class="cls-2" points="48.1 51 48.1 49.8 47.5 50.4 48.1 51"/>
        <polygon class="cls-2" points="27 149.4 15.4 137.8 15.4 161 27 149.4"/>
        <path class="cls-2" d="M86.7,10.4l2.8-2.8c-2.3-.9-4.8-1.5-7.6-1.9l4.8,4.8Z"/>
        <rect class="cls-2" x="73" y="16.9" width="27.5" height="27.5" transform="translate(3.8 70.3) rotate(-45)"/>
        <path class="cls-2" d="M64.4,33.5h4c.5,0,.9,0,1.3.2l-2.8-2.8-2.6,2.6Z"/>
        <polygon class="cls-2" points="205.9 50.4 209 53.5 209 47.3 205.9 50.4"/>
        <path class="cls-2" d="M106.1,29.8c-1.9-11-7.2-18.4-16.1-22l-3,3,19,19Z"/>
        <polygon class="cls-2" points="209 86.9 205.9 90 209 93.1 209 86.9"/>
        <polygon class="cls-2" points="185.4 109.8 165.9 90.4 146.6 109.7 176.5 109.7 176.5 118.6 185.4 109.8"/>
        <polygon class="cls-2" points="176.5 7.8 176.5 21 185.7 30.2 205.2 10.8 202.2 7.8 176.5 7.8"/>
        <rect class="cls-2" x="172" y="76.2" width="27.5" height="27.5" transform="translate(-9.2 157.7) rotate(-45)"/>
        <polygon class="cls-2" points="209 86.1 209 54.3 205.5 50.8 186.1 70.2 205.5 89.6 209 86.1"/>
        <path class="cls-2" d="M66.9,30.2l19.4-19.4-5.2-5.2c-2.1-.3-4.2-.4-6.5-.4h-21.5l-5.6,5.6,19.4,19.4Z"/>
      </g>
    </g>
  </g>
</svg>