<?xml version="1.0" encoding="UTF-8"?>
<svg xmlns="http://www.w3.org/2000/svg" version="1.1" viewBox="0 0 263 180">
  <defs>
    <style>
      .cls-1 {
        fill: none;
      }

      .cls-2 {
        fill: #c59f7b;
      }
    </style>
  </defs>
  <!-- Generator: Adobe Illustrator 28.7.1, SVG Export Plug-In . SVG Version: 1.2.0 Build 142)  -->
  <g>
    <g id="Layer_1">
      <rect class="cls-1" width="263" height="180"/>
      <path class="cls-2" d="M250.9,8.6h5l-19.6,32.4h-5l19.6-32.4ZM233.6,25.1h-1.2c-4.1,0-6.2-2.2-6.2-6.6v-3.8c0-4.4,2.1-6.6,6.2-6.6h1.2c4.1,0,6.2,2.2,6.2,6.6v3.8c0,4.4-2.1,6.6-6.2,6.6ZM231.3,21c0,.3,0,.5.2.7.2.2.4.3.7.3h1.6c.3,0,.5-.1.6-.3.2-.2.3-.4.3-.7v-8.8c0-.3-.1-.5-.3-.7-.2-.2-.4-.3-.6-.3h-1.6c-.3,0-.5.1-.7.3-.2.2-.2.4-.2.7v8.8ZM254.6,24.5c4.1,0,6.2,2.2,6.2,6.6v3.8c0,4.4-2.1,6.6-6.2,6.6h-1.2c-4.1,0-6.2-2.2-6.2-6.6v-3.8c0-4.4,2.1-6.6,6.2-6.6h1.2ZM255.8,37.4v-8.8c0-.3-.1-.5-.3-.7-.2-.2-.4-.3-.7-.3h-1.5c-.3,0-.5.1-.7.3-.2.2-.2.4-.2.7v8.8c0,.3,0,.5.2.7.2.2.4.3.7.3h1.5c.3,0,.5-.1.7-.3.2-.2.3-.4.3-.7Z"/>
      <g>
        <path class="cls-2" d="M125.3,50l19.4-19.4-19.4-19.4-8.9,8.9c-2.3,4.7-3.6,10.5-3.8,17.4l12.6,12.6Z"/>
        <path class="cls-2" d="M164.9,11.2l-19.4,19.4,6.6,6.6h18.4c1.4,0,2.5.5,3.4,1.6.4.4.8.9,1,1.4l9.6-9.6-19.4-19.4Z"/>
        <polygon class="cls-2" points="86.1 50.4 105.5 69.8 108.6 66.8 108.6 34 105.5 31 86.1 50.4"/>
        <polygon class="cls-2" points="108.6 33.3 108.6 27.9 105.9 30.6 108.6 33.3"/>
        <path class="cls-2" d="M76.1,60.4v13.4c0,1.4-.5,2.6-1.6,3.6-.1.2-.3.3-.5.5l11.7,11.7,19.4-19.4-19.4-19.4-9.7,9.7Z"/>
        <path class="cls-2" d="M144.9,5.2c-6.7,0-12.3,1.1-17,3.3l-2.3,2.3,19.4,19.4,19.4-19.4-5.6-5.6h-14Z"/>
        <path class="cls-2" d="M125.3,10.4l1.2-1.2c-.5.3-1,.6-1.5.9l.3.3Z"/>
        <polygon class="cls-2" points="105.9 149.4 108.6 152.1 108.6 146.7 105.9 149.4"/>
        <polygon class="cls-2" points="92.2 176 85.7 169.5 79.3 176 92.2 176"/>
        <path class="cls-2" d="M144.9,42.4c0-1.4.4-2.6,1.3-3.6,1-1,2.3-1.6,3.6-1.6h1.5l-6.2-6.2-19.4,19.4,19.2,19.2v-27.3Z"/>
        <polygon class="cls-2" points="105.5 110.2 86.1 129.6 105.5 149 108.6 146 108.6 113.2 105.5 110.2"/>
        <path class="cls-2" d="M65.9,109.4l19.4-19.4-11.7-11.7c-.7.5-1.5.8-2.5.8h-13.7l-11,11,19.4,19.4Z"/>
        <polygon class="cls-2" points="105.2 149.4 85.7 130 76.1 139.6 76.1 159.2 85.7 168.8 105.2 149.4"/>
        <polygon class="cls-2" points="76.1 59.7 85.4 50.4 76.1 41.1 76.1 59.7"/>
        <polygon class="cls-2" points="115.3 131.8 115.3 139.3 122.8 131.8 115.3 131.8"/>
        <path class="cls-2" d="M29.7,106.8c4.4,1.9,9.7,2.9,16,2.9h19.8l-19.3-19.3-16.5,16.5Z"/>
        <polygon class="cls-2" points="86.1 169.2 92.9 176 108.6 176 108.6 152.8 105.5 149.7 86.1 169.2"/>
        <path class="cls-2" d="M125,10.8l-.3-.3c-3,2.1-5.5,4.8-7.4,8.1l7.7-7.7Z"/>
        <polygon class="cls-2" points="76.1 120.3 76.1 138.9 85.4 129.6 76.1 120.3"/>
        <path class="cls-2" d="M118.7,162.9c1.3,2.9,3,5.4,5.1,7.5l1.2-1.2-6.3-6.3Z"/>
        <path class="cls-2" d="M184.7,30.2l15.7-15.7c-5.4-6.2-13.6-9.3-24.8-9.3h-4.7l-5.6,5.6,19.4,19.4Z"/>
        <path class="cls-2" d="M185.1,30.6l19.4,19.4,3.3-3.3v-7.2c0-10.7-2.4-18.9-7.1-24.6l-15.7,15.7Z"/>
        <polygon class="cls-2" points="207.9 47.4 204.9 50.4 207.9 53.4 207.9 47.4"/>
        <polygon class="cls-2" points="108.6 106.4 108.6 73.6 105.5 70.6 86.1 90 105.5 109.4 108.6 106.4"/>
        <path class="cls-2" d="M118.1,97.6c5.2,8,14,12,26.6,12.1l-19.3-19.3-7.3,7.3Z"/>
        <polygon class="cls-2" points="108.6 107.1 105.9 109.8 108.6 112.5 108.6 107.1"/>
        <polygon class="cls-2" points="105.2 109.8 85.7 90.4 66.4 109.7 76.1 109.7 76.1 119.6 85.7 129.2 105.2 109.8"/>
        <path class="cls-2" d="M125.3,50.8l-12.6,12.6v12c0,.6,0,1.1,0,1.6l12.6,12.6,19.4-19.4-19.4-19.4Z"/>
        <path class="cls-2" d="M112.7,77.8c.3,8,2,14.5,5,19.4l7.2-7.2-12.2-12.2Z"/>
        <path class="cls-2" d="M125,50.4l-12.3-12.3c0,.5,0,.9,0,1.4v23.2l12.3-12.3Z"/>
        <polygon class="cls-2" points="105.9 70.2 108.6 72.9 108.6 67.5 105.9 70.2"/>
        <path class="cls-2" d="M13.8,82.4l12.2-12.2-12.6-12.6v17.8c0,2.5.1,4.8.4,7Z"/>
        <path class="cls-2" d="M145.1,149.7l-19.4,19.4,7,7c4.2,1.6,9.2,2.4,14.9,2.4h7.6l9.4-9.4-19.4-19.4Z"/>
        <polygon class="cls-2" points="164.9 169.5 155.9 178.6 174 178.6 164.9 169.5"/>
        <path class="cls-2" d="M175.4,140.4v4.7c0,1.4-.5,2.6-1.6,3.6-.9,1-2,1.6-3.4,1.6h-16.9c-1.4,0-2.6-.5-3.6-1.6-.6-.7-1-1.6-1.2-2.5l-3.2,3.2,19.4,19.4,19.4-19.4-9-9Z"/>
        <polygon class="cls-2" points="76.1 20.1 85.4 10.8 82.4 7.8 76.1 7.8 76.1 20.1"/>
        <polygon class="cls-2" points="13.4 43.9 13.4 56.9 26.3 69.8 45.7 50.5 45.7 50.3 26.3 31 13.4 43.9"/>
        <polygon class="cls-2" points="204.2 129.6 184.7 110.2 175.4 119.5 175.4 139.7 184.7 149 204.2 129.6"/>
        <polygon class="cls-2" points="207.9 87 204.9 90 207.9 93 207.9 87"/>
        <polygon class="cls-2" points="45.7 49.6 45.7 11.6 26.7 30.6 45.7 49.6"/>
        <path class="cls-2" d="M202.1,167.1l-17.4-17.4-19.4,19.4,9.4,9.4h.9c12.4,0,21.2-3.8,26.5-11.5Z"/>
        <path class="cls-2" d="M207.9,133.3l-3.3-3.3-19.4,19.4,17.3,17.3c3.6-5.5,5.5-13,5.5-22.4v-11Z"/>
        <polygon class="cls-2" points="204.9 129.6 207.9 132.6 207.9 126.6 204.9 129.6"/>
        <polygon class="cls-2" points="26 30.6 13.4 18 13.4 43.2 26 30.6"/>
        <polygon class="cls-2" points="207.9 125.9 207.9 93.7 204.5 90.4 185.1 109.8 204.5 129.2 207.9 125.9"/>
        <polygon class="cls-2" points="45.7 10 45.7 7.8 43.5 7.8 45.7 10"/>
        <polygon class="cls-2" points="13.4 17.3 26.3 30.2 45.7 10.9 45.7 10.7 42.8 7.8 13.4 7.8 13.4 17.3"/>
        <polygon class="cls-2" points="76.1 40.4 85.7 50 105.2 30.6 85.7 11.2 76.1 20.8 76.1 40.4"/>
        <polygon class="cls-2" points="85.7 10.4 88.4 7.8 83.1 7.8 85.7 10.4"/>
        <polygon class="cls-2" points="105.5 30.2 108.6 27.2 108.6 7.8 89.1 7.8 86.1 10.8 105.5 30.2"/>
        <path class="cls-2" d="M26.7,70.2l19.4,19.4,10.6-10.6h-6.2c-1.4,0-2.6-.5-3.6-1.6-.9-1-1.3-2.3-1.3-3.6v-22.6l-19,19Z"/>
        <path class="cls-2" d="M152.3,77.7h-2.4c-1.4,0-2.6-.5-3.6-1.6-.9-1-1.3-2.3-1.3-3.6v-1.8l-19.2,19.2,19.4,19.4,19.4-19.4-12.3-12.3Z"/>
        <path class="cls-2" d="M184.4,70.2l-9-9v11.3c0,1.4-.5,2.6-1.6,3.6-.9,1-2,1.6-3.4,1.6h-17.4l11.9,11.9,19.4-19.4Z"/>
        <path class="cls-2" d="M204.2,50.4l-19.4-19.4-9.7,9.7c.2.5.3,1.1.3,1.7v18.1l9.4,9.4,19.4-19.4Z"/>
        <polygon class="cls-2" points="164.9 10.4 170.2 5.2 159.7 5.2 164.9 10.4"/>
        <polygon class="cls-2" points="207.9 86.3 207.9 54.1 204.5 50.8 185.1 70.2 204.5 89.6 207.9 86.3"/>
        <path class="cls-2" d="M184.4,109.8l-19.4-19.4-19.3,19.3h12.3c6.9,0,12.7-1.1,17.4-3.4v12.5l9-9Z"/>
        <rect class="cls-2" x="171" y="76.2" width="27.5" height="27.5" transform="translate(-9.5 157) rotate(-45)"/>
        <path class="cls-2" d="M148.6,145.6c0-.2,0-.3,0-.5v-13.3h-20.7l17.2,17.2,3.5-3.5Z"/>
        <path class="cls-2" d="M13.9,83c1.5,11.7,6.6,19.6,15.3,23.6l16.6-16.6-19.4-19.4-12.5,12.5Z"/>
        <path class="cls-2" d="M127.2,131.8h-3.7l-8.2,8.2v4.3c0,6.8,1,12.6,2.9,17.4l7.2,7.2,19.4-19.4-17.6-17.6Z"/>
        <polygon class="cls-2" points="76.1 159.9 76.1 176 78.6 176 85.4 169.2 76.1 159.9"/>
        <path class="cls-2" d="M125.3,169.5l-1.2,1.2c2.1,2,4.5,3.6,7.3,4.9l-6.1-6.1Z"/>
      </g>
    </g>
  </g>
</svg>