<?xml version="1.0" encoding="UTF-8"?>
<svg xmlns="http://www.w3.org/2000/svg" version="1.1" viewBox="0 0 265 180">
  <defs>
    <style>
      .cls-1 {
        fill: none;
      }

      .cls-2 {
        fill: #c59f7b;
      }
    </style>
  </defs>
  <!-- Generator: Adobe Illustrator 28.7.1, SVG Export Plug-In . SVG Version: 1.2.0 Build 142)  -->
  <g>
    <g id="Layer_1">
      <rect class="cls-1" width="265" height="180"/>
      <path class="cls-2" d="M252.9,8.6h5l-19.6,32.4h-5l19.6-32.4ZM235.6,25.1h-1.2c-4.1,0-6.2-2.2-6.2-6.6v-3.8c0-4.4,2.1-6.6,6.2-6.6h1.2c4.1,0,6.2,2.2,6.2,6.6v3.8c0,4.4-2.1,6.6-6.2,6.6ZM233.3,21c0,.3,0,.5.2.7.2.2.4.3.7.3h1.6c.3,0,.5-.1.6-.3.2-.2.3-.4.3-.7v-8.8c0-.3-.1-.5-.3-.7-.2-.2-.4-.3-.6-.3h-1.6c-.3,0-.5.1-.7.3-.2.2-.2.4-.2.7v8.8ZM256.6,24.5c4.1,0,6.2,2.2,6.2,6.6v3.8c0,4.4-2.1,6.6-6.2,6.6h-1.2c-4.1,0-6.2-2.2-6.2-6.6v-3.8c0-4.4,2.1-6.6,6.2-6.6h1.2ZM257.8,37.4v-8.8c0-.3,0-.5-.3-.7-.2-.2-.4-.3-.6-.3h-1.6c-.3,0-.5.1-.7.3-.2.2-.2.4-.2.7v8.8c0,.3,0,.5.2.7.2.2.4.3.7.3h1.6c.3,0,.5-.1.6-.3.2-.2.3-.4.3-.7Z"/>
      <g>
        <path class="cls-2" d="M126.3,156l-7.7,7.7c4.3,8.9,12.4,13.8,24.1,14.8l3-3-19.4-19.4Z"/>
        <polygon class="cls-2" points="149.5 132.1 149.5 131.8 142.5 131.8 146.1 135.4 149.5 132.1"/>
        <polygon class="cls-2" points="141.8 131.8 114.9 131.8 114.9 143.8 126.3 155.2 145.8 135.8 141.8 131.8"/>
        <polygon class="cls-2" points="149.5 132.8 146.5 135.8 149.5 138.8 149.5 132.8"/>
        <path class="cls-2" d="M165.9,76.8l-19.4,19.4,6.5,6.5h16.8c1.4,0,2.5.5,3.4,1.6.8.8,1.3,1.7,1.5,2.7l10.8-10.8-19.4-19.4Z"/>
        <path class="cls-2" d="M66.9,175l19.4-19.4-10.4-10.4c-.8.9-1.9,1.4-3.2,1.4h-16.3l-9,9,19.4,19.4Z"/>
        <path class="cls-2" d="M101.4,170.6l-14.6-14.6-19.4,19.4,3.2,3.2h7.2c10.4,0,18.3-2.7,23.6-8Z"/>
        <path class="cls-2" d="M77.7,141.4c0,1.3-.5,2.4-1.4,3.4l10.4,10.4,19.4-19.4-19.4-19.4-9,9v16.1Z"/>
        <path class="cls-2" d="M47.1,116.4l-19.4,19.4,19.4,19.4,8.6-8.6h-3.5c-1.4,0-2.6-.5-3.6-1.6-.9-1-1.3-2.3-1.3-3.6v-24.9l-.2-.2Z"/>
        <path class="cls-2" d="M102.3,52h5.1v-12.5c0-7.7-1.2-14.2-3.7-19.3l-16.6,16.6,15.2,15.2Z"/>
        <polygon class="cls-2" points="113.1 10.1 115.4 7.8 113.1 7.8 113.1 10.1"/>
        <path class="cls-2" d="M86.7,76l1-1c-.8-.2-1.6-.3-2.4-.5l1.4,1.4Z"/>
        <path class="cls-2" d="M72.8,106.1c1.4,0,2.5.5,3.4,1.6,1,1,1.6,2.3,1.6,3.6v13.4l8.6-8.6-19.4-19.4-9.5,9.5h15.4Z"/>
        <polygon class="cls-2" points="113.1 23.2 126.3 36.4 145.8 17 136.6 7.8 116.1 7.8 113.1 10.8 113.1 23.2"/>
        <polygon class="cls-2" points="126.7 36.8 146.1 56.2 146.4 56 146.4 35.6 164.4 35.6 146.1 17.4 126.7 36.8"/>
        <polygon class="cls-2" points="137.3 7.8 146.1 16.6 155 7.8 137.3 7.8"/>
        <path class="cls-2" d="M201.2,80.4c-5.4-6.5-13.7-9.7-25.2-9.7h-4l-5.7,5.7,19.4,19.4,15.4-15.4Z"/>
        <polygon class="cls-2" points="69.8 178.6 66.9 175.7 64.1 178.6 69.8 178.6"/>
        <path class="cls-2" d="M146.1,57l-19.4,19.4,19.4,19.4,19.4-19.4-5.7-5.7h-8.6c-1.4,0-2.6-.5-3.6-1.6-.9-1-1.3-2.3-1.3-3.6v-8.3l-.2-.2Z"/>
        <path class="cls-2" d="M101.7,170.2c5.5-5.7,8.3-14.4,8.3-25.9v-4.7l-3.4-3.4-19.4,19.4,14.6,14.6Z"/>
        <path class="cls-2" d="M109.2,98.5c-.2-1.3-.5-2.6-.8-3.8l-1.5,1.5,2.3,2.3Z"/>
        <path class="cls-2" d="M87.1,116l19.4,19.4,3.4-3.4v-23.6c0-3.3-.2-6.3-.7-9.1l-2.8-2.8-19.4,19.4Z"/>
        <path class="cls-2" d="M126.3,76.8l-10,10c4,9.2,11.8,14.4,23.2,15.6l6.2-6.2-19.4-19.4Z"/>
        <path class="cls-2" d="M47.5,36.8h.1s0-.1.1-.3l-.3.3Z"/>
        <polygon class="cls-2" points="165.9 76 171.3 70.7 160.6 70.7 165.9 76"/>
        <path class="cls-2" d="M66.9,95.8l19.4-19.4-1.9-1.9c-2.1-.3-4.4-.4-6.8-.4h-13c-6.5,0-12,1-16.6,3l18.8,18.8Z"/>
        <polygon class="cls-2" points="113.1 50.4 113.1 62.8 126.3 76 145.8 56.6 126.3 37.2 113.1 50.4"/>
        <polygon class="cls-2" points="113.1 49.7 126 36.8 113.1 23.9 113.1 49.7"/>
        <path class="cls-2" d="M116.1,86.2l9.8-9.8-12.9-12.9v4.9c0,7,1,13,3.1,17.9Z"/>
        <path class="cls-2" d="M106.5,95.8l1.7-1.7c-3-10.2-9.6-16.6-19.9-19l-1.2,1.2,19.4,19.4Z"/>
        <rect class="cls-2" x="73" y="82.4" width="27.5" height="27.5" transform="translate(-42.6 89.5) rotate(-45)"/>
        <path class="cls-2" d="M114.9,144.5c0,7.4,1.2,13.7,3.5,18.7l7.6-7.6-11.1-11.1Z"/>
        <polygon class="cls-2" points="106.9 135.8 110 138.9 110 132.7 106.9 135.8"/>
        <path class="cls-2" d="M152.3,102.7l-6.1-6.1-5.9,5.9c1.6.2,3.3.2,5.1.2h6.9Z"/>
        <path class="cls-2" d="M14.8,39.5v4.2l12.5,12.5,19.4-19.4-19.4-19.4-11.6,11.6c-.6,3.2-.9,6.7-.9,10.5Z"/>
        <polygon class="cls-2" points="201.5 32.4 201.5 7.8 195.3 7.8 186.1 17 201.5 32.4"/>
        <path class="cls-2" d="M66.9,16.6l11.4-11.4c-1,0-2.1,0-3.2,0h-19.7l11.5,11.5Z"/>
        <path class="cls-2" d="M27.7,56.6l19.4,19.4.2-.2v-37.1c0-.4,0-.8.1-1.2l-.3-.3-19.4,19.4Z"/>
        <polygon class="cls-2" points="14.8 108.4 27 96.2 14.8 84 14.8 108.4"/>
        <path class="cls-2" d="M207.6,153.2c.4-2.7.6-5.7.6-8.9v-25.2l-2.7-2.7-19.4,19.4,19.4,19.4,2.1-2.1Z"/>
        <path class="cls-2" d="M165.9,156l-19.4,19.4,3.2,3.2h26.3c2.3,0,4.5-.1,6.6-.4l2.8-2.8-19.4-19.4Z"/>
        <rect class="cls-2" x="172" y="141.8" width="27.5" height="27.5" transform="translate(-55.6 176.9) rotate(-45)"/>
        <path class="cls-2" d="M185.7,175.7l-2.3,2.3c1.4-.2,2.6-.5,3.9-.8l-1.6-1.6Z"/>
        <path class="cls-2" d="M52.3,33.5h16.9c1.4,0,2.5.5,3.4,1.6,1,1,1.6,2.3,1.6,3.6v10.4l12.3-12.3-19.4-19.4-16.5,16.5c.6-.2,1.2-.4,1.8-.4Z"/>
        <path class="cls-2" d="M47.1,36.4l19.4-19.4-11.8-11.8h-7.7c-2.9,0-5.7.2-8.2.6l-11.2,11.2,19.4,19.4Z"/>
        <path class="cls-2" d="M23.7,13l3.7,3.7,10.7-10.7c-5.9,1.1-10.7,3.5-14.3,7Z"/>
        <path class="cls-2" d="M27,17l-3.7-3.7c-3.6,3.7-6.1,8.6-7.4,14.8l11.1-11.1Z"/>
        <path class="cls-2" d="M206.8,157.2l-1.3-1.3-19.4,19.4,1.8,1.8c10-2.7,16.3-9.4,19-19.9Z"/>
        <path class="cls-2" d="M205.9,155.6l1,1c.2-.9.4-1.7.5-2.6l-1.6,1.6Z"/>
        <polygon class="cls-2" points="14.8 68.8 27 56.6 14.8 44.4 14.8 68.8"/>
        <polygon class="cls-2" points="14.8 69.5 14.8 83.3 27.3 95.8 46.8 76.4 27.3 57 14.8 69.5"/>
        <path class="cls-2" d="M149,178.6l-2.9-2.9-2.7,2.7c1.2,0,2.4.1,3.7.1h1.9Z"/>
        <path class="cls-2" d="M174.7,125.1v19.9c0,.6-.1,1.2-.3,1.8l11-11-10.7-10.7Z"/>
        <polygon class="cls-2" points="14.8 109.1 14.8 122.9 27.3 135.4 46.8 116 27.3 96.6 14.8 109.1"/>
        <path class="cls-2" d="M208.2,112.9v-7.9c0-10.5-2.3-18.5-6.8-24.2l-15.4,15.4,19.4,19.4,2.7-2.7Z"/>
        <path class="cls-2" d="M160.3,150.3h-5.8c-1.4,0-2.6-.5-3.6-1.6-.9-1-1.3-2.3-1.3-3.6v-5.6l-3.3-3.3-19.4,19.4,19.4,19.4,19.4-19.4-5.3-5.3Z"/>
        <path class="cls-2" d="M205.2,116l-19.4-19.4-11.1,11.1c0,0,0,.2,0,.3v16.5l11,11,19.4-19.4Z"/>
        <path class="cls-2" d="M14.8,144.3c0,1.2,0,2.4,0,3.6l12.1-12.1-12.2-12.2v20.6Z"/>
        <path class="cls-2" d="M47.1,156l-18.5,18.5c4.9,2.7,11,4.1,18.5,4.1h16.3l3.2-3.2-19.4-19.4Z"/>
        <path class="cls-2" d="M15,148.5c.8,12.4,5.2,21,13.2,25.7l18.6-18.6-19.4-19.4-12.4,12.4Z"/>
        <path class="cls-2" d="M171.2,150c-.4.1-.9.2-1.4.2h-8.8l5,5,5.2-5.2Z"/>
        <polygon class="cls-2" points="208.2 113.7 205.9 116 208.2 118.3 208.2 113.7"/>
        <path class="cls-2" d="M47.1,76.8l-19.4,19.4,19.4,19.4.2-.2v-4.2c0-1.4.4-2.6,1.3-3.6,1-1,2.3-1.6,3.6-1.6h4.5l9.9-9.9-18.9-18.9c-.1,0-.2.1-.4.2v-.5l-.2-.2Z"/>
        <path class="cls-2" d="M86.7,36.4l16.7-16.7c-4.4-8.8-12.6-13.6-24.5-14.4l-11.7,11.7,19.4,19.4Z"/>
        <polygon class="cls-2" points="74.1 52 101.6 52 86.7 37.2 74.1 49.8 74.1 52"/>
        <polygon class="cls-2" points="167.5 35.6 201.5 35.6 201.5 33.1 185.7 17.4 167.5 35.6"/>
        <polygon class="cls-2" points="146.5 17 165.1 35.6 166.8 35.6 185.4 17 176.2 7.8 155.7 7.8 146.5 17"/>
        <polygon class="cls-2" points="176.9 7.8 185.7 16.6 194.6 7.8 176.9 7.8"/>
      </g>
    </g>
  </g>
</svg>