<?xml version="1.0" encoding="UTF-8"?>
<svg id="Layer_2" xmlns="http://www.w3.org/2000/svg" viewBox="0 0 255.12 255.12">
  <defs>
    <style>
      .cls-1 {
        fill: none;
      }

      .cls-2 {
        fill: #fff;
      }
    </style>
  </defs>
  <g id="Layer_1-2" data-name="Layer_1">
    <path class="cls-2" d="M194.96,227.34l-14.03-57.52c6.82-5.5,12.72-11.99,17.56-19.29,11.93-15.65,18.23-34.3,18.23-53.94,0-49.17-40-89.17-89.17-89.17S38.39,47.42,38.39,96.59c0,19.65,6.3,38.3,18.23,53.94,4.43,6.7,9.77,12.71,15.87,17.9l-13.23,58.93c-6.11,5.56-8.73,10.24-7.78,13.93.35,1.39,1.53,3.83,5.42,4.64l.23.05,33.19,1.54,11.55.14c.12,0,.28.01.49.01,1.42,0,5.04-.3,8.09-3.11,2.75-2.53,4.22-6.35,4.26-11.06l5.36-45.19c4.83.44,9.35.46,14.14.08l5.34,44.97c.05,4.86,1.48,8.63,4.27,11.2,3.05,2.81,6.65,3.11,8.06,3.11.17,0,.31,0,.45-.01l11.56-.15,33.21-1.56.49-.06c2.7-.58,4.6-2.26,5.2-4.61.94-3.69-1.69-8.38-7.82-13.95Z"/>
    <rect class="cls-1" width="255.12" height="255.12"/>
  </g>
</svg>