<?xml version="1.0" encoding="UTF-8"?>
<svg id="Layer_2" xmlns="http://www.w3.org/2000/svg" viewBox="0 0 311.81 311.81">
  <defs>
    <style>
      .cls-1 {
        fill: none;
      }

      .cls-2 {
        fill: #231f20;
      }

      .cls-3 {
        fill: #1466b0;
      }

      .cls-4 {
        fill: #fff;
      }
    </style>
  </defs>
  <g id="Layer_1-2" data-name="Layer_1">
    <path class="cls-4" d="M234.59,124.55c22.97-40.3,22.93-82.58,22.92-82.99l-.03-.34c-.71-4.99-2.52-8.24-5.38-9.67-1.52-.76-2.95-.83-4.07-.68-.03-.07-.05-.14-.08-.2-2.08-4.68-5.04-6.11-7.15-6.48-2.56-.46-4.77.42-6.3,1.37-1.73-3.42-5.26-5.53-8.95-5.11-7.86.85-13.21,11.1-14.01,12.71-7.87,12.38-14.05,28.54-16.93,36.75-14-8.61-30.01-13.15-46.55-13.15s-32.89,4.65-47,13.45c-28.83,14.57-46.73,43.65-46.73,75.92,0,12.13,2.52,23.86,7.48,34.87-9.3,39.27,6.26,58.72,21.04,68.13.5.32,1,.59,1.52.82,1.53.69,5.31,2.25,10.62,3.38l-4.33,17.74c-6.13,5.57-8.76,10.26-7.82,13.95.35,1.39,1.53,3.84,5.42,4.65l.23.05,33.19,1.54,11.57.15c.09,0,.25.01.46.01,1.42,0,5.04-.3,8.09-3.11,2.75-2.53,4.22-6.35,4.26-11.06l5.01-42.25c4.9-.11,9.81-.63,14.64-1.57l5.19,43.69c.05,4.87,1.49,8.64,4.27,11.2,3.05,2.81,6.65,3.11,8.05,3.11.16,0,.29,0,.4-.01l11.61-.15,33.21-1.56.49-.06c2.7-.58,4.6-2.27,5.19-4.62.94-3.69-1.69-8.39-7.82-13.95l-15.06-61.76c-.02-.08-.04-.16-.07-.24,16.57-16.69,26.01-39.53,26.01-63.18,0-7.2-.87-14.37-2.59-21.34Z"/>
    <g>
      <circle class="cls-3" cx="139.35" cy="146.12" r="82.04"/>
      <path d="M230.07,125.15c-.21,0-.43-.05-.62-.17-.59-.34-.78-1.1-.44-1.69,23.14-39.54,23.05-81.05,23.04-81.47-.57-3.87-1.73-5.04-2.37-5.38-.69-.36-1.33-.05-1.36-.03-.2.1-.45.14-.64.14-3.19-.17-4.5-2.46-4.79-3.79-.87-1.91-1.9-2.99-3.05-3.19-1.81-.34-3.54,1.45-3.56,1.47-.1.1-.23.19-.36.26-1.61.76-2.98.88-4.06.35-.65-.31-1.5-1.02-1.88-2.59-.4-1.7-1.88-3.37-3.86-3.18-4.34.47-8.56,7.34-9.82,9.95-10.75,16.86-18.24,40.92-18.32,41.16-.2.65-.9,1.01-1.54.81-.65-.2-1.02-.89-.81-1.54.07-.24,7.67-24.62,18.52-41.63.14-.31,5.12-10.48,11.71-11.2,2.99-.34,5.77,1.85,6.53,5.06.08.35.25.79.55.94.34.16.98.06,1.77-.28.65-.6,2.91-2.47,5.56-2,2.03.36,3.69,1.96,4.93,4.75.04.1.07.2.09.3.05.27.41,1.66,2.25,1.88.61-.23,1.86-.52,3.21.16,1.92.96,3.18,3.45,3.75,7.41.02.59.11,42.77-23.37,82.9-.23.39-.64.61-1.06.61Z"/>
      <path d="M133.69,288.41c-.21,0-.34,0-.37-.01l-11.53-.14-32.95-1.53c-2.22-.46-2.91-1.59-3.13-2.45-.93-3.65,5.23-9.5,7.6-11.59l5.62-23.05c.16-.66.84-1.07,1.49-.91.66.16,1.07.83.91,1.49l-5.71,23.43c-.06.25-.2.47-.39.64-3.77,3.26-7.53,7.81-7.12,9.38.07.28.43.49,1.05.62l32.7,1.51,11.57.15c.12.01,2.68.16,4.66-1.68,1.63-1.52,2.47-3.99,2.48-7.35l5.22-44.04c.08-.68.75-1.14,1.37-1.08.68.08,1.16.69,1.08,1.37l-5.21,43.9c0,3.94-1.11,7.03-3.29,9.04-2.3,2.11-5.07,2.32-6.05,2.32Z"/>
      <path d="M183.2,288.42c-.93,0-3.71-.2-6.02-2.32-2.18-2-3.29-5.09-3.3-9.18l-5.73-48.25c-.08-.68.4-1.29,1.08-1.37.65-.08,1.29.4,1.37,1.08l5.74,48.39c.02,3.5.86,5.97,2.49,7.49,1.98,1.84,4.56,1.69,4.58,1.69l11.69-.15,32.86-1.53c.43-.11.78-.32.85-.6.4-1.58-3.36-6.12-7.13-9.38-.19-.17-.33-.39-.39-.64l-15.37-63.04c-.16-.66.24-1.33.91-1.49.65-.16,1.33.25,1.49.91l15.28,62.66c2.37,2.09,8.53,7.94,7.6,11.59-.22.87-.91,1.99-2.92,2.42l-33.11,1.56-11.66.15s-.12,0-.31,0Z"/>
      <path d="M215.06,130.7c-.26,0-.51-.08-.73-.24-.55-.41-.66-1.18-.26-1.72l3.44-4.65c.37-.49,1.04-.64,1.58-.35l5.01,2.7c.6.32.82,1.07.5,1.67-.33.6-1.07.83-1.67.5l-4.07-2.19-2.8,3.79c-.24.33-.62.5-.99.5Z"/>
      <path d="M216.96,142.63c-.29,0-.57-.1-.81-.3-.52-.45-.57-1.22-.13-1.74l3.78-4.37c.4-.47,1.08-.56,1.6-.23l4.79,3.08c.57.37.74,1.13.37,1.7-.37.58-1.13.74-1.7.37l-3.89-2.5-3.08,3.56c-.24.28-.59.43-.93.43Z"/>
      <path d="M225.17,154.49c-.32,0-.63-.12-.87-.36l-3.27-3.27-3.77,2.83c-.54.41-1.31.3-1.73-.25-.41-.55-.3-1.32.25-1.73l4.62-3.47c.49-.37,1.18-.32,1.61.11l4.03,4.02c.48.48.48,1.26,0,1.74-.24.24-.56.36-.87.36Z"/>
      <path d="M223.13,166.6c-.38,0-.75-.17-.99-.49l-2.77-3.71-4.14,2.25c-.6.33-1.35.11-1.67-.49-.33-.6-.1-1.35.49-1.67l5.08-2.77c.53-.3,1.21-.15,1.58.34l3.41,4.56c.41.55.3,1.32-.25,1.73-.22.16-.48.24-.74.24Z"/>
      <path class="cls-2" d="M107.41,251.65c-11.12,0-19.43-3.35-21.83-4.44-.4-.18-.77-.38-1.14-.62-42.94-27.36-10.98-89.8-10.66-90.43.32-.6,1.06-.83,1.66-.52.6.32.84,1.06.52,1.66-.32.61-31.24,61.07,9.79,87.21.27.17.54.32.84.45,34.36,15.57,60.83-13.94,63.73-17.35.1-.12.2-.24.29-.37,2.1-2.83,20.52-28.42,19.12-54.96-.03-.47-.09-.91-.21-1.34-.61-2.32-2.28-6.08-6.49-5.24-3.2.62-6.27-.29-8.24-2.46-.74-.82-1.69-1.09-2.99-.84-3.08.59-6.15-.52-8.07-2.91-.68-.85-2.76-3.44-8.16.13-1,.66-1.79,1.66-2.23,2.82-3.54,9.3-18.02,39.94-55.81,43.9-.65.06-1.28-.42-1.35-1.1-.07-.68.42-1.28,1.1-1.35,36.39-3.82,50.35-33.36,53.76-42.32.63-1.64,1.75-3.06,3.18-4,6.34-4.2,9.89-1.56,11.45.38,1.32,1.65,3.55,2.44,5.67,2.03,2.69-.52,4.36.58,5.29,1.61,1.38,1.52,3.6,2.16,5.93,1.69,4.47-.88,7.96,1.75,9.35,7.03.16.6.25,1.2.29,1.84,1.45,27.41-17.44,53.66-19.6,56.56-.13.17-.26.33-.39.49-11.99,14.11-26.2,21.64-42.24,22.38-.86.04-1.72.06-2.55.06Z"/>
      <g>
        <path class="cls-2" d="M85.14,204.72c-.33,0-.65-.13-.89-.38-3.72-3.9-5.83-7.29-8.5-11.6l-.85-1.36c-.36-.58-.19-1.34.39-1.7.57-.35,1.34-.19,1.7.39l.85,1.36c2.59,4.18,4.64,7.48,8.18,11.19.47.49.45,1.27-.04,1.74-.24.23-.54.34-.85.34Z"/>
        <path class="cls-2" d="M149.15,232.02c-.68,0-1.23-.55-1.23-1.23s.55-1.23,1.23-1.23c45.52,0,82.56-37.53,82.56-83.67s-37.53-83.67-83.67-83.67-83.67,37.53-83.67,83.67c0,10.4,1.36,18.54,4.53,27.23.23.64-.1,1.35-.73,1.58-.64.23-1.35-.1-1.58-.73-3.28-8.98-4.68-17.37-4.68-28.07,0-47.49,38.64-86.13,86.13-86.13s86.13,38.64,86.13,86.13-38.14,86.13-85.02,86.13Z"/>
      </g>
      <g>
        <path class="cls-4" d="M168.9,137.55c.53-1.21-.36-2.56-1.68-2.56h-10.35s-.15,0-.15,0h-10.35c-1.32,0-2.2,1.35-1.68,2.56,1.25,2.86,4.39,7.1,12.03,7.16h0s.05,0,.08,0c.03,0,.05,0,.08,0h0c7.64-.07,10.78-4.3,12.03-7.16Z"/>
        <rect class="cls-4" x="144.22" y="120.73" width="14.21" height="6.14" rx="3.07" ry="3.07" transform="translate(27.53 275.12) rotate(-90)"/>
        <rect class="cls-4" x="155.17" y="120.73" width="14.21" height="6.14" rx="3.07" ry="3.07" transform="translate(38.48 286.07) rotate(-90)"/>
      </g>
    </g>
    <rect class="cls-1" x="0" width="311.81" height="311.81"/>
  </g>
</svg>