<?xml version="1.0" encoding="UTF-8"?>
<svg xmlns="http://www.w3.org/2000/svg" version="1.1" viewBox="0 0 267 180">
  <defs>
    <style>
      .cls-1 {
        fill: none;
      }

      .cls-2 {
        fill: #c59f7b;
      }
    </style>
  </defs>
  <!-- Generator: Adobe Illustrator 28.7.1, SVG Export Plug-In . SVG Version: 1.2.0 Build 142)  -->
  <g>
    <g id="Layer_1">
      <rect class="cls-1" x=".5" width="266" height="180"/>
      <path class="cls-2" d="M254.4,8.6h5l-19.6,32.4h-5l19.6-32.4ZM237.1,25.1h-1.2c-4.1,0-6.2-2.2-6.2-6.6v-3.8c0-4.4,2.1-6.6,6.2-6.6h1.2c4.1,0,6.2,2.2,6.2,6.6v3.8c0,4.4-2.1,6.6-6.2,6.6ZM234.8,21c0,.3,0,.5.2.7.2.2.4.3.7.3h1.6c.3,0,.5-.1.6-.3.2-.2.3-.4.3-.7v-8.8c0-.3-.1-.5-.3-.7-.2-.2-.4-.3-.6-.3h-1.6c-.3,0-.5.1-.7.3-.2.2-.2.4-.2.7v8.8ZM258.1,24.5c4.1,0,6.2,2.2,6.2,6.6v3.8c0,4.4-2.1,6.6-6.2,6.6h-1.2c-4.1,0-6.2-2.2-6.2-6.6v-3.8c0-4.4,2.1-6.6,6.2-6.6h1.2ZM259.3,37.4v-8.8c0-.3,0-.5-.3-.7-.2-.2-.4-.3-.6-.3h-1.6c-.3,0-.5.1-.7.3-.2.2-.3.4-.3.7v8.8c0,.3,0,.5.3.7.2.2.4.3.7.3h1.6c.3,0,.5-.1.6-.3.2-.2.3-.4.3-.7Z"/>
      <g>
        <path class="cls-2" d="M47.4,81.1c-8.7.1-15.6,2.2-20.7,6.2l7.2,7.2,13.4-13.4Z"/>
        <path class="cls-2" d="M118.6,100.7c-2.3,5.1-3.5,11.3-3.5,18.6v12.9l17.5-17.5-14-14Z"/>
        <path class="cls-2" d="M26.4,87.6c-6.3,5.2-9.7,13.4-10.2,24.8l17.5-17.5-7.3-7.3Z"/>
        <path class="cls-2" d="M152.4,94.9l-19.4-19.4-10.1,10.1c1.3,1.7,2.8,3.2,4.4,4.4-3.7,2.6-6.5,6-8.5,10.2l14.2,14.2,19.4-19.4Z"/>
        <polygon class="cls-2" points="74.1 55.2 74.1 55.4 93.4 74.7 107.6 60.5 107.6 50.1 93.4 35.9 74.1 55.2"/>
        <polygon class="cls-2" points="149.2 58.5 149.2 52.1 133 35.9 116.7 52.1 116.7 58.5 133 74.7 149.2 58.5"/>
        <path class="cls-2" d="M63.4,5.2l10.2,10.2,9.6-9.6c-2.4-.4-5-.6-7.8-.6h-12Z"/>
        <path class="cls-2" d="M192.4,15.4l4.7-4.7c-3.9-2.7-8.7-4.4-14.5-5.1l9.8,9.8Z"/>
        <path class="cls-2" d="M116.7,59.2v2.7c0,10.1,2,17.8,5.9,23.3l10-10-15.9-15.9Z"/>
        <path class="cls-2" d="M154.1,76.4c-1.4,0-2.6-.5-3.6-1.6-.9-1-1.3-2.3-1.3-3.6v-12l-15.9,15.9,19.4,19.4,18.1-18.1h-16.8Z"/>
        <path class="cls-2" d="M208.7,61.9v-22.4c0,0,0-.1,0-.2l-16,16,15.4,15.4c.4-2.7.6-5.7.6-8.8Z"/>
        <path class="cls-2" d="M93.4,35.2l11.8-11.8c-3.4-9.8-10.6-15.6-21.4-17.5l-9.8,9.8,19.4,19.4Z"/>
        <path class="cls-2" d="M208.7,38.6c0-2.3-.2-4.6-.4-6.6l-15.9-15.9-18.7,18.7c.5.3.9.6,1.3,1.1.9.9,1.4,2,1.5,3.2l15.9,15.9,16.3-16.3Z"/>
        <polygon class="cls-2" points="176.5 39.8 176.5 70.8 192 55.3 176.5 39.8"/>
        <path class="cls-2" d="M107.6,49.4v-9.9c0-6-.7-11.2-2.2-15.6l-11.6,11.6,13.9,13.9Z"/>
        <path class="cls-2" d="M133.3,114.7l14.3,14.3v-18.5c0-1.4.4-2.6,1.3-3.6,1-1,2.3-1.6,3.6-1.6h10.2l-10-10-19.4,19.4Z"/>
        <polygon class="cls-2" points="105.5 166.1 105.5 146.1 101.9 146.1 93.7 154.3 105.5 166.1"/>
        <path class="cls-2" d="M171.8,34.3c.5,0,1,.1,1.4.3l18.9-18.9-10.3-10.3c-1.7-.2-3.4-.3-5.3-.3h-12.8l-10.5,10.5,18.6,18.6Z"/>
        <path class="cls-2" d="M59.4,81.1h-11.1c0,0-.1,0-.2,0l-13.8,13.8,18.4,18.4c.5-.2,1-.3,1.5-.3h.7l18.2-18.2-13.8-13.8Z"/>
        <path class="cls-2" d="M208.2,31.2c-1.3-9.2-4.8-15.9-10.7-20.2l-4.8,4.8,15.4,15.4Z"/>
        <path class="cls-2" d="M33.6,15.7l-6.1-6.1c-7.9,4.7-12.3,13.1-13.1,25.3l19.2-19.2Z"/>
        <path class="cls-2" d="M203.5,84.1l-10.8,10.8,17.1,17.1c-1.2-10.1-5.2-17.4-11.8-22.1,2.1-1.6,3.9-3.5,5.4-5.8Z"/>
        <path class="cls-2" d="M75.4,113.1c5.3,0,10-.7,13.9-2.1l-15.7-15.7-17.8,17.8h19.6Z"/>
        <path class="cls-2" d="M119.7,21.8l13.3,13.3,19.4-19.4-10.1-10.1c-11.3,1.5-18.8,6.9-22.6,16.2Z"/>
        <path class="cls-2" d="M93,75.1l-19-19v19.8c0,1.4-.5,2.6-1.6,3.6-.9,1-2,1.6-3.4,1.6h-9l13.4,13.4,19.4-19.4Z"/>
        <path class="cls-2" d="M132.6,35.5l-13.2-13.2c-1.8,4.7-2.8,10.5-2.8,17.2v11.9l15.9-15.9Z"/>
        <path class="cls-2" d="M148.9,5.2c-2.1,0-4.1.1-6,.3l9.8,9.8,10.2-10.2h-14Z"/>
        <path class="cls-2" d="M93.7,75.1l13.1,13.1c.5-2.9.7-6.1.7-9.5v-17.5l-13.9,13.9Z"/>
        <path class="cls-2" d="M106.8,88.9l-13.4-13.4-19.4,19.4,15.9,15.9c9.3-3.4,14.9-10.7,16.9-21.9Z"/>
        <path class="cls-2" d="M133.3,35.5l15.9,15.9v-11.9c0-1.4.4-2.6,1.3-3.6,1-1,2.3-1.6,3.6-1.6h16.9l-18.2-18.2-19.4,19.4Z"/>
        <polygon class="cls-2" points="33.6 134.5 16.1 117 16.1 152 33.6 134.5"/>
        <polygon class="cls-2" points="16.1 156.6 16.1 176 31.7 176 33.6 174.1 16.1 156.6"/>
        <path class="cls-2" d="M210.2,116.3c0-1.2-.1-2.4-.3-3.5l-17.6-17.6-14.4,14.4c0,.3,0,.5,0,.8v9.3l14.3,14.3,17.8-17.8Z"/>
        <path class="cls-2" d="M69.1,33.5c1.4,0,2.5.5,3.4,1.6,1,1,1.6,2.3,1.6,3.6v15.7l19-19-19.4-19.4-17.5,17.5h13Z"/>
        <path class="cls-2" d="M192,134.5l-14-14v24.5c0,1.4-.5,2.6-1.6,3.6-.9,1-2,1.6-3.4,1.6h-4.2l3.7,3.7,19.4-19.4Z"/>
        <path class="cls-2" d="M133,154.7l-12.3,12.3c5.2,7.8,14.1,11.7,26.6,11.7h.6l4.5-4.5-19.4-19.4Z"/>
        <path class="cls-2" d="M168.2,150.3h-15.6c-1.4,0-2.6-.5-3.6-1.6-.9-1-1.3-2.3-1.3-3.6v-5.1l-14.3,14.3,19.4,19.4,19.4-19.4-4-4Z"/>
        <polygon class="cls-2" points="152.8 174.5 148.6 178.6 156.9 178.6 152.8 174.5"/>
        <path class="cls-2" d="M34,15.4l10.1-10.1c-6.4.3-11.8,1.6-16.1,4.1l6,6Z"/>
        <path class="cls-2" d="M192.4,174.5l-2.8,2.8c1.5-.4,2.9-.9,4.2-1.4l-1.4-1.4Z"/>
        <path class="cls-2" d="M208.6,158.3l-15.8,15.8,1.5,1.5c7.2-3.2,12-9,14.3-17.4Z"/>
        <path class="cls-2" d="M210.3,119.3c0-.8,0-1.6,0-2.3l-17.5,17.5,17.1,17.1c.3-2.3.4-4.8.4-7.4v-25Z"/>
        <polygon class="cls-2" points="34 174.5 32.4 176 35.5 176 34 174.5"/>
        <polygon class="cls-2" points="73.2 174.1 53.8 154.7 34.4 174.1 36.3 176 71.3 176 73.2 174.1"/>
        <path class="cls-2" d="M208.9,157.3c.4-1.6.7-3.3,1-5l-17.4-17.4-19.4,19.4,19.4,19.4,16.5-16.5Z"/>
        <path class="cls-2" d="M172.6,154.7l-19.4,19.4,4.5,4.5h20.4c3.9,0,7.4-.4,10.6-1.1l3.4-3.4-19.4-19.4Z"/>
        <polygon class="cls-2" points="75.1 176 73.6 174.5 72 176 75.1 176"/>
        <path class="cls-2" d="M115.1,136.8v7.5c0,9.3,1.8,16.7,5.3,22.2l12.2-12.2-17.5-17.5Z"/>
        <path class="cls-2" d="M173.2,76.1c-.5.2-1,.3-1.6.3l-18.5,18.5,10.4,10.4h9.6c1.4,0,2.5.5,3.4,1.6.7.7,1.1,1.4,1.3,2.2l14.2-14.2-18.8-18.8Z"/>
        <polygon class="cls-2" points="93 154.3 84.8 146.1 62.3 146.1 54.2 154.3 73.6 173.7 93 154.3"/>
        <polygon class="cls-2" points="75.9 176 105.5 176 105.5 166.8 93.4 154.7 74 174.1 75.9 176"/>
        <polygon class="cls-2" points="48.9 52 48.9 40.8 37.7 52 48.9 52"/>
        <path class="cls-2" d="M49.4,118.8v-.5c0-1.4.4-2.6,1.3-3.6.5-.5,1-.9,1.6-1.1l-18.3-18.3-17.9,17.9c0,.8,0,1.5,0,2.3v.8l17.9,17.9,15.4-15.4Z"/>
        <polygon class="cls-2" points="101.2 146.1 85.6 146.1 93.4 153.9 101.2 146.1"/>
        <polygon class="cls-2" points="147.6 139.3 147.6 129.7 133 115.1 115.1 132.9 115.1 136.1 133 153.9 147.6 139.3"/>
        <path class="cls-2" d="M204.6,82.4c1.7-3.1,2.8-6.8,3.5-11.1l-15.7-15.7-15.9,15.9c0,1.2-.6,2.3-1.5,3.3-.4.4-.8.8-1.2,1l18.7,18.7,12.2-12.2Z"/>
        <polygon class="cls-2" points="53.4 154.3 34 134.9 16.1 152.8 16.1 155.8 34 173.7 53.4 154.3"/>
        <polygon class="cls-2" points="61.6 146.1 49.4 146.1 49.4 119.5 34.4 134.5 53.8 153.9 61.6 146.1"/>
        <path class="cls-2" d="M14.3,39.5v12.5h16l-15.9-15.9c0,1.1,0,2.3,0,3.5Z"/>
        <path class="cls-2" d="M52.4,33.7c.5-.1.9-.2,1.4-.2h1.6l17.8-17.8-10.5-10.5h-16.2c-.6,0-1.1,0-1.7,0l-10.5,10.5,18,18Z"/>
        <path class="cls-2" d="M14.6,35.5l16.5,16.5h5.9l11.9-11.9v-1.4c0-1.4.4-2.6,1.3-3.6.5-.5,1.1-.9,1.7-1.2l-17.9-17.9-19.4,19.4Z"/>
      </g>
    </g>
  </g>
</svg>