<?xml version="1.0" encoding="UTF-8"?>
<svg xmlns="http://www.w3.org/2000/svg" version="1.1" viewBox="0 0 111 180">
  <defs>
    <style>
      .cls-1 {
        fill: none;
      }

      .cls-2 {
        fill: #c59f7b;
      }
    </style>
  </defs>
  <!-- Generator: Adobe Illustrator 28.7.1, SVG Export Plug-In . SVG Version: 1.2.0 Build 142)  -->
  <g>
    <g id="Layer_1">
      <rect class="cls-1" width="111" height="180"/>
      <path class="cls-2" d="M98.9,8.6h5l-19.7,32.4h-5l19.7-32.4ZM81.6,25.1h-1.2c-4.1,0-6.2-2.2-6.2-6.6v-3.8c0-4.4,2.1-6.6,6.2-6.6h1.2c4.1,0,6.2,2.2,6.2,6.6v3.8c0,4.4-2.1,6.6-6.2,6.6ZM79.3,21c0,.3,0,.5.2.7.2.2.4.3.7.3h1.6c.3,0,.5-.1.7-.3.2-.2.3-.4.3-.7v-8.8c0-.3,0-.5-.3-.7-.2-.2-.4-.3-.7-.3h-1.6c-.3,0-.5.1-.7.3-.2.2-.2.4-.2.7v8.8ZM102.6,24.5c4.1,0,6.2,2.2,6.2,6.6v3.8c0,4.4-2.1,6.6-6.2,6.6h-1.2c-4.1,0-6.2-2.2-6.2-6.6v-3.8c0-4.4,2.1-6.6,6.2-6.6h1.2ZM103.8,37.4v-8.8c0-.3,0-.5-.3-.7-.2-.2-.4-.3-.7-.3h-1.6c-.3,0-.5.1-.7.3-.2.2-.2.4-.2.7v8.8c0,.3,0,.5.2.7.2.2.4.3.7.3h1.6c.3,0,.5-.1.7-.3.2-.2.3-.4.3-.7Z"/>
      <g>
        <polygon class="cls-2" points="51.8 32.8 51.8 8 43.8 8 35.4 16.4 51.8 32.8"/>
        <polygon class="cls-2" points="51.8 79.2 35.4 95.6 51.8 112 51.8 79.2"/>
        <polygon class="cls-2" points="16.5 35.4 16.5 37.1 35.1 55.7 51.8 38.9 51.8 33.5 35.1 16.8 16.5 35.4"/>
        <polygon class="cls-2" points="51.8 72.4 51.8 39.6 35.4 56 51.8 72.4"/>
        <polygon class="cls-2" points="51.8 78.5 51.8 73.1 35.1 56.4 16.5 75 16.5 76.7 35.1 95.3 51.8 78.5"/>
        <polygon class="cls-2" points="35.4 174.8 36.9 176.3 51.8 176.3 51.8 158.4 35.4 174.8"/>
        <polygon class="cls-2" points="16.5 77.4 16.5 113.9 34.7 95.6 16.5 77.4"/>
        <polygon class="cls-2" points="34.7 56 16.5 37.8 16.5 74.3 34.7 56"/>
        <polygon class="cls-2" points="16.5 156.6 16.5 176.3 33.3 176.3 34.7 174.8 16.5 156.6"/>
        <polygon class="cls-2" points="35.4 135.2 51.8 151.6 51.8 118.8 35.4 135.2"/>
        <polygon class="cls-2" points="35.1 175.2 34 176.3 36.2 176.3 35.1 175.2"/>
        <polygon class="cls-2" points="51.8 157.7 51.8 152.3 35.1 135.6 16.5 154.2 16.5 155.9 35.1 174.5 51.8 157.7"/>
        <polygon class="cls-2" points="51.8 118.1 51.8 112.7 35.1 96 16.5 114.6 16.5 116.3 35.1 134.9 51.8 118.1"/>
        <polygon class="cls-2" points="34.7 135.2 16.5 117 16.5 153.5 34.7 135.2"/>
        <polygon class="cls-2" points="35.1 16.1 43.1 8 27 8 35.1 16.1"/>
        <polygon class="cls-2" points="16.5 34.7 34.7 16.4 26.3 8 16.5 8 16.5 34.7"/>
      </g>
    </g>
  </g>
</svg>