<?xml version="1.0" encoding="UTF-8"?>
<svg xmlns="http://www.w3.org/2000/svg" version="1.1" viewBox="0 0 265 180">
  <defs>
    <style>
      .cls-1 {
        fill: none;
      }

      .cls-2 {
        fill: #c59f7b;
      }
    </style>
  </defs>
  <!-- Generator: Adobe Illustrator 28.7.1, SVG Export Plug-In . SVG Version: 1.2.0 Build 142)  -->
  <g>
    <g id="Layer_1">
      <rect class="cls-1" x=".5" width="264" height="180"/>
      <path class="cls-2" d="M252.4,8.6h5l-19.6,32.4h-5l19.6-32.4ZM235.1,25.1h-1.2c-4.1,0-6.2-2.2-6.2-6.6v-3.8c0-4.4,2.1-6.6,6.2-6.6h1.2c4.1,0,6.2,2.2,6.2,6.6v3.8c0,4.4-2.1,6.6-6.2,6.6ZM232.8,21c0,.3,0,.5.2.7.2.2.4.3.7.3h1.6c.3,0,.5-.1.6-.3.2-.2.3-.4.3-.7v-8.8c0-.3-.1-.5-.3-.7-.2-.2-.4-.3-.6-.3h-1.6c-.3,0-.5.1-.7.3-.2.2-.2.4-.2.7v8.8ZM256.1,24.5c4.1,0,6.2,2.2,6.2,6.6v3.8c0,4.4-2.1,6.6-6.2,6.6h-1.2c-4.1,0-6.2-2.2-6.2-6.6v-3.8c0-4.4,2.1-6.6,6.2-6.6h1.2ZM257.3,37.4v-8.8c0-.3,0-.5-.3-.7-.2-.2-.4-.3-.6-.3h-1.6c-.3,0-.5.1-.7.3-.2.2-.2.4-.2.7v8.8c0,.3,0,.5.2.7.2.2.4.3.7.3h1.6c.3,0,.5-.1.6-.3.2-.2.3-.4.3-.7Z"/>
      <g>
        <path class="cls-2" d="M73.8,63.7v12.2c0,.3,0,.5,0,.8l13,13,19.4-19.4-19.4-19.4-12.9,12.9Z"/>
        <path class="cls-2" d="M87.1,50.4l19.4,19.4.8-.8v-29.5c0-2.9-.2-5.7-.5-8.2l-.3-.3-19.4,19.4Z"/>
        <path class="cls-2" d="M73.8,38.7v24.2l12.6-12.6-12.6-12.6c0,.3,0,.6,0,1Z"/>
        <polygon class="cls-2" points="126 50.4 112.8 37.2 112.8 63.6 126 50.4"/>
        <path class="cls-2" d="M39.3,81.8l7.8,7.8,8.5-8.5h-7.6c-3.2,0-6.1.3-8.8.7Z"/>
        <path class="cls-2" d="M117,160.2c1.5,4.5,3.9,8.2,7,11.1l2-2-9-9Z"/>
        <polygon class="cls-2" points="126.3 10.4 129 7.8 123.7 7.8 126.3 10.4"/>
        <polygon class="cls-2" points="129.7 7.8 126.7 10.8 146.1 30.2 165.6 10.8 162.6 7.8 129.7 7.8"/>
        <polygon class="cls-2" points="146.5 30.6 151.5 35.6 180.4 35.6 185.4 30.6 165.9 11.2 146.5 30.6"/>
        <polygon class="cls-2" points="181.1 35.6 190.4 35.6 185.7 31 181.1 35.6"/>
        <polygon class="cls-2" points="93.2 176 86.7 169.5 80.3 176 93.2 176"/>
        <polygon class="cls-2" points="105.3 151 87.1 169.2 93.9 176 105.3 176 105.3 151"/>
        <polygon class="cls-2" points="69.9 146.1 64 146.1 66.9 149 69.9 146.1"/>
        <polygon class="cls-2" points="49.1 128 47.5 129.6 49.1 131.2 49.1 128"/>
        <path class="cls-2" d="M49.1,127.2v-9c0-1.4.4-2.6,1.3-3.6,1-1,2.3-1.6,3.6-1.6h9.2l3.3-3.3-19.4-19.4-19.4,19.4,19.4,19.4,2-2Z"/>
        <polygon class="cls-2" points="114.6 131.8 114.6 140.9 123.8 131.8 114.6 131.8"/>
        <polygon class="cls-2" points="105.3 150.3 105.3 148.5 102.9 146.1 70.6 146.1 67.3 149.4 86.7 168.8 105.3 150.3"/>
        <path class="cls-2" d="M46.8,90l-8-8c-10.6,2.1-17.5,8.2-20.8,18.1l9.4,9.4,19.4-19.4Z"/>
        <polygon class="cls-2" points="126 10.8 123 7.8 112.8 7.8 112.8 24 126 10.8"/>
        <path class="cls-2" d="M17.8,100.6c-1.3,4.2-2,9.2-2,14.8v5.5l11.1-11.1-9.2-9.2Z"/>
        <path class="cls-2" d="M66.9,109.4l19.4-19.4-12.8-12.8c-.2.8-.7,1.6-1.4,2.3-.9,1-2,1.6-3.4,1.6h-12.5l-8.9,8.9,19.4,19.4Z"/>
        <polygon class="cls-2" points="105.3 147.8 105.3 146.1 103.6 146.1 105.3 147.8"/>
        <path class="cls-2" d="M27,30.6l-9.6-9.6c-2.2,5-3.3,11.2-3.3,18.5v4.1l13-13Z"/>
        <polygon class="cls-2" points="166.3 10.8 185.7 30.2 201.2 14.8 201.2 7.8 169.3 7.8 166.3 10.8"/>
        <polygon class="cls-2" points="66.9 149.7 47.5 169.2 54.3 176 79.6 176 86.4 169.2 66.9 149.7"/>
        <path class="cls-2" d="M126.3,50.8l-13.5,13.5v4.1c0,3,.2,5.7.5,8.3l13,13,19.4-19.4-19.4-19.4Z"/>
        <path class="cls-2" d="M87.1,90l13.3,13.3c4.7-5.7,7-13.9,7-24.5v-7.4l-.8-.8-19.4,19.4Z"/>
        <path class="cls-2" d="M147.2,68.8c-.7-1-1.1-2.1-1.1-3.3v-29.9h4.7l-4.6-4.6-19.4,19.4,19.4,19.4,1-1Z"/>
        <path class="cls-2" d="M121.7,95c4.1,3.9,9.6,6.4,16.5,7.3l-11.9-11.9-4.6,4.6Z"/>
        <polygon class="cls-2" points="126.3 11.2 112.8 24.7 112.8 36.5 126.3 50 145.8 30.6 126.3 11.2"/>
        <polygon class="cls-2" points="69.9 113.1 66.9 110.2 64 113.1 69.9 113.1"/>
        <path class="cls-2" d="M67.3,109.8l3.3,3.3h4.6c11.3,0,19.6-3.1,24.9-9.4l-13.3-13.3-19.4,19.4Z"/>
        <polygon class="cls-2" points="106.9 70.2 107.4 70.7 107.4 69.7 106.9 70.2"/>
        <path class="cls-2" d="M113.5,77.5c1.1,7.3,3.8,13,7.9,17.1l4.6-4.6-12.5-12.5Z"/>
        <path class="cls-2" d="M106.5,30.2h.1c-1.8-11.5-7.3-19-16.5-22.6l-3.1,3.1,19.4,19.4Z"/>
        <polygon class="cls-2" points="47.1 169.5 40.7 176 53.6 176 47.1 169.5"/>
        <polygon class="cls-2" points="14 44.3 14 52 45.2 52 46.8 50.4 27.3 31 14 44.3"/>
        <path class="cls-2" d="M205.8,89.4c-2.9-8.8-8.8-14.5-17.6-17.1l17.3,17.3.2-.2Z"/>
        <path class="cls-2" d="M146.1,149.7l-19.4,19.4,7.8,7.8c3.6,1.1,7.8,1.6,12.4,1.6h9.3l9.4-9.4-19.4-19.4Z"/>
        <path class="cls-2" d="M66.9,30.2l19.4-19.4-5.3-5.3c-1.9-.2-3.9-.3-6-.3h-22l-5.6,5.6,19.4,19.4Z"/>
        <path class="cls-2" d="M206,89.9h0c0,0,.1.2.1.2,0,0,0-.1,0-.2Z"/>
        <polygon class="cls-2" points="165.9 169.5 156.9 178.6 175 178.6 165.9 169.5"/>
        <path class="cls-2" d="M27.7,30.6l19.4,19.4,1.5-1.5v-9.9c0-1.4.4-2.6,1.3-3.6,1-1,2.3-1.6,3.6-1.6h10.1l2.9-2.9-19.4-19.4-19.4,19.4Z"/>
        <polygon class="cls-2" points="27.3 149.7 15.9 161.2 15.9 176 40 176 46.8 169.2 27.3 149.7"/>
        <path class="cls-2" d="M17.6,20.5l9.7,9.7,19.4-19.4-5.4-5.4c-11.7,1.1-19.6,6.1-23.8,15.1Z"/>
        <path class="cls-2" d="M202.6,166.6l-16.9-16.9-19.4,19.4,9.4,9.4h0c12.7,0,21.7-4,26.8-12Z"/>
        <path class="cls-2" d="M174.4,138.5v6.6c0,1.4-.5,2.6-1.6,3.6-.9,1-2,1.6-3.4,1.6h-15.3c-1.4,0-2.6-.5-3.6-1.6-.6-.7-.9-1.4-1.1-2.2l-2.9,2.9,19.4,19.4,19.4-19.4-10.9-10.9Z"/>
        <polygon class="cls-2" points="205.9 129.6 208 131.7 208 127.5 205.9 129.6"/>
        <path class="cls-2" d="M208,132.4l-2.4-2.4-19.4,19.4,16.8,16.8c3.4-5.5,5.1-12.8,5.1-21.9v-11.9Z"/>
        <path class="cls-2" d="M42,5.3l5.1,5.1,5.3-5.3h-6.1c-1.5,0-2.9,0-4.2.2Z"/>
        <polygon class="cls-2" points="205.2 129.6 185.7 110.2 174.4 121.4 174.4 137.7 185.7 149 205.2 129.6"/>
        <path class="cls-2" d="M208,126.8v-21.8c0-5.2-.6-9.9-1.7-13.9l-.7-.7-19.4,19.4,19.4,19.4,2.4-2.4Z"/>
        <path class="cls-2" d="M185.4,109.8l-19.4-19.4-12.3,12.3h15.9c1.4,0,2.5.5,3.4,1.6,1,1,1.6,2.3,1.6,3.6v12.9l10.9-10.9Z"/>
        <path class="cls-2" d="M64.4,33.5h4.5c.2,0,.5,0,.7,0l-2.6-2.6-2.6,2.6Z"/>
        <path class="cls-2" d="M86.7,10.4l3-3c-2.4-.9-5-1.5-7.8-1.9l4.8,4.8Z"/>
        <path class="cls-2" d="M70.5,33.8c.7.3,1.3.7,1.8,1.3.5.5.9,1.1,1.1,1.7l13.3,13.3,19.4-19.4-19.4-19.4-19.4,19.4,3.2,3.2Z"/>
        <polygon class="cls-2" points="48.6 51.5 48.6 49.3 47.5 50.4 48.6 51.5"/>
        <polygon class="cls-2" points="45.9 52 48.4 52 47.1 50.8 45.9 52"/>
        <polygon class="cls-2" points="165.9 10.4 168.6 7.8 163.3 7.8 165.9 10.4"/>
        <path class="cls-2" d="M184.2,71.4c-2.6-.5-5.4-.7-8.4-.7h-24.7c-1.4,0-2.5-.5-3.6-1.5l-1,1,19.4,19.4,18.3-18.3Z"/>
        <polygon class="cls-2" points="186.1 30.6 191.1 35.6 201.2 35.6 201.2 15.5 186.1 30.6"/>
        <polygon class="cls-2" points="66.6 149.4 63.3 146.1 49.1 146.1 49.1 131.9 47.1 130 27.7 149.4 47.1 168.8 66.6 149.4"/>
        <path class="cls-2" d="M149.3,145.9c0-.3,0-.5,0-.8v-13.3h-20.3l17.2,17.2,3.2-3.2Z"/>
        <path class="cls-2" d="M146.1,70.6l-19.4,19.4,12.3,12.3c1.9.2,3.9.3,6,.3h7.8l12.7-12.7-19.4-19.4Z"/>
        <path class="cls-2" d="M128.2,131.8h-3.7l-9.8,9.8v2.6c0,5.6.7,10.6,2,14.8l9.7,9.7,19.4-19.4-17.6-17.6Z"/>
        <path class="cls-2" d="M126.3,169.5l-2,2c2.5,2.2,5.6,3.9,9.2,5.1l-7.1-7.1Z"/>
        <polygon class="cls-2" points="27 149.4 15.9 138.3 15.9 160.5 27 149.4"/>
        <path class="cls-2" d="M205.2,90l-17.9-17.9c-.8-.2-1.6-.4-2.4-.6l-18.5,18.5,19.4,19.4,19.4-19.4Z"/>
        <polygon class="cls-2" points="46.8 129.6 27.3 110.2 15.9 121.6 15.9 137.6 27.3 149 46.8 129.6"/>
      </g>
    </g>
  </g>
</svg>