<?xml version="1.0" encoding="UTF-8"?>
<svg xmlns="http://www.w3.org/2000/svg" version="1.1" viewBox="0 0 265 180">
  <defs>
    <style>
      .cls-1 {
        fill: none;
      }

      .cls-2 {
        fill: #c59f7b;
      }
    </style>
  </defs>
  <!-- Generator: Adobe Illustrator 28.7.1, SVG Export Plug-In . SVG Version: 1.2.0 Build 142)  -->
  <g>
    <g id="Layer_1">
      <rect class="cls-1" x=".5" width="264" height="180"/>
      <path class="cls-2" d="M252.4,8.6h5l-19.6,32.4h-5l19.6-32.4ZM235.1,25.1h-1.2c-4.1,0-6.2-2.2-6.2-6.6v-3.8c0-4.4,2.1-6.6,6.2-6.6h1.2c4.1,0,6.2,2.2,6.2,6.6v3.8c0,4.4-2.1,6.6-6.2,6.6ZM232.8,21c0,.3,0,.5.2.7.2.2.4.3.7.3h1.6c.3,0,.5-.1.6-.3.2-.2.3-.4.3-.7v-8.8c0-.3-.1-.5-.3-.7-.2-.2-.4-.3-.6-.3h-1.6c-.3,0-.5.1-.7.3-.2.2-.2.4-.2.7v8.8ZM256.1,24.5c4.1,0,6.2,2.2,6.2,6.6v3.8c0,4.4-2.1,6.6-6.2,6.6h-1.2c-4.1,0-6.2-2.2-6.2-6.6v-3.8c0-4.4,2.1-6.6,6.2-6.6h1.2ZM257.3,37.4v-8.8c0-.3,0-.5-.3-.7-.2-.2-.4-.3-.6-.3h-1.6c-.3,0-.5.1-.7.3-.2.2-.2.4-.2.7v8.8c0,.3,0,.5.2.7.2.2.4.3.7.3h1.6c.3,0,.5-.1.6-.3.2-.2.3-.4.3-.7Z"/>
      <g>
        <path class="cls-2" d="M107.4,110.8v-5.8c0-7.1-1-13-3.1-17.9l-10.3,10.3,13.4,13.4Z"/>
        <path class="cls-2" d="M206.4,91.1c.9-3.6,1.3-7.7,1.3-12.3v-15.9l-14.7,14.7,13.4,13.4Z"/>
        <polygon class="cls-2" points="149 52 149 42.5 139.5 52 149 52"/>
        <polygon class="cls-2" points="174.2 56.8 174.2 58.8 192.7 77.3 207.7 62.2 207.7 53.5 192.7 38.4 174.2 56.8"/>
        <polygon class="cls-2" points="116.2 159.9 116.2 176 132.3 176 116.2 159.9"/>
        <polygon class="cls-2" points="133.3 137.4 116.2 154.4 116.2 159.2 133 176 133.5 176 152.7 156.8 133.3 137.4"/>
        <polygon class="cls-2" points="132.9 137 116.2 120.3 116.2 153.7 132.9 137"/>
        <polygon class="cls-2" points="163.4 146.1 149.5 146.1 149.5 121.1 133.6 137 153.1 156.5 163.4 146.1"/>
        <path class="cls-2" d="M107.1,150.1c.2-1.9.3-3.8.3-5.8v-20.6l-13.4,13.4,13.1,13.1Z"/>
        <polygon class="cls-2" points="203 146.1 182.3 146.1 192.7 156.5 203 146.1"/>
        <path class="cls-2" d="M150.4,35c1-1,2.2-1.5,3.5-1.5h3.3l15.3-15.3-13-13h-12.8l-13,13,16.8,16.8Z"/>
        <path class="cls-2" d="M185.3,6.1l-12.1,12.1,19.4,19.4,13.1-13.1c-3.1-10.1-9.9-16.2-20.4-18.5Z"/>
        <path class="cls-2" d="M133.3,17.9l12.7-12.7c-8.3,0-14.9,1.9-19.9,5.5l7.2,7.2Z"/>
        <polygon class="cls-2" points="134.2 176 171.9 176 153.1 157.2 134.2 176"/>
        <path class="cls-2" d="M74.2,156.8l18.3,18.3c8.5-4.3,13.3-12.4,14.6-24.3l-13.4-13.4-19.4,19.4Z"/>
        <path class="cls-2" d="M207.7,52.7v-13.2c0-5.4-.6-10.2-1.8-14.4l-12.9,12.9,14.7,14.7Z"/>
        <polygon class="cls-2" points="181.6 146.1 164.1 146.1 153.4 156.8 172.6 176 173.1 176 192.3 156.8 181.6 146.1"/>
        <polygon class="cls-2" points="34.3 156.5 48.6 142.1 48.6 131.9 48.5 131.8 20 131.8 14.8 137 34.3 156.5"/>
        <path class="cls-2" d="M34.3,157.2l-12.5,12.5c5.4,6,13.5,8.9,24.5,8.9h5.5l2-2-19.4-19.4Z"/>
        <polygon class="cls-2" points="205.7 169.5 205.7 146.1 203.7 146.1 193 156.8 205.7 169.5"/>
        <path class="cls-2" d="M33.9,156.8l-19.4-19.4-.4.4v6.5c0,11,2.5,19.3,7.4,25l12.5-12.5Z"/>
        <path class="cls-2" d="M169.3,33.5c1.4,0,2.5.5,3.4,1.6,1,1,1.6,2.3,1.6,3.6v17.4l18.1-18.1-19.4-19.4-14.9,14.9h11.3Z"/>
        <path class="cls-2" d="M175.5,5.2h-15.3l12.7,12.7,11.9-11.9c-2.8-.6-5.9-.8-9.2-.8Z"/>
        <path class="cls-2" d="M132.9,97.4l-8.2-8.2c-5.5,5.5-8.3,13.8-8.5,24.9l16.7-16.7Z"/>
        <path class="cls-2" d="M125.1,88.9l8.2,8.2,16-16h-.8c-10.2,0-18,2.6-23.4,7.8Z"/>
        <path class="cls-2" d="M174.2,75.9c0,1.4-.5,2.6-1.6,3.6-.9,1-2,1.6-3.4,1.6h-12.4l16,16,19.4-19.4-18.1-18.1v16.4Z"/>
        <path class="cls-2" d="M206.3,91.6l-13.6-13.6-19.4,19.4,14.2,14.2c10-2.8,16.3-9.4,18.9-20Z"/>
        <path class="cls-2" d="M186.9,111.8l-14-14-15.3,15.3h17.9c4.2,0,8-.4,11.4-1.3Z"/>
        <path class="cls-2" d="M133.3,136.7l16.2-16.2v-2.2c0-1.2.4-2.3,1-3.2l-17.3-17.3-17,17c0,.2,0,.4,0,.6v4.2l17.1,17.1Z"/>
        <path class="cls-2" d="M150.8,114.6c1-1,2.2-1.5,3.6-1.5h2.4l15.7-15.7-16.3-16.3h-6.2l-16.3,16.3,17.2,17.2Z"/>
        <path class="cls-2" d="M34.6,156.8l19.4,19.4,19.4-19.4-6.6-6.6h-13.4c-1.4,0-2.6-.5-3.6-1.6-.9-1-1.3-2.3-1.3-3.6v-2.2l-14,14Z"/>
        <polygon class="cls-2" points="71.8 35.6 75.9 35.6 93.3 18.2 82.9 7.8 64.9 7.8 54.4 18.2 71.8 35.6"/>
        <polygon class="cls-2" points="54.1 17.9 64.2 7.8 44 7.8 54.1 17.9"/>
        <path class="cls-2" d="M14.8,57.8l19.4,19.4,11.3-11.3c0-.2,0-.3,0-.5v-15.9l-11.2-11.2-19.4,19.4Z"/>
        <polygon class="cls-2" points="45.5 48.9 45.5 35.6 71.1 35.6 54.1 18.6 34.6 38 45.5 48.9"/>
        <path class="cls-2" d="M19.3,93c5.4,6.5,13.7,9.7,25.2,9.7h4l5.3-5.3-19.4-19.4-15,15Z"/>
        <polygon class="cls-2" points="100.6 35.6 100.6 25.5 93.7 18.6 76.6 35.6 100.6 35.6"/>
        <path class="cls-2" d="M54.1,97.1l19.4-19.4-6.9-6.9h-16.1c-1.4,0-2.6-.5-3.6-1.6-.6-.7-1-1.6-1.2-2.5l-11,11,19.4,19.4Z"/>
        <polygon class="cls-2" points="12.2 15.6 14.5 17.9 24.6 7.8 12.2 7.8 12.2 15.6"/>
        <polygon class="cls-2" points="14.1 57.8 12.2 55.9 12.2 59.7 14.1 57.8"/>
        <polygon class="cls-2" points="93.7 17.9 100.6 10.9 100.6 7.8 83.6 7.8 93.7 17.9"/>
        <polygon class="cls-2" points="14.1 18.2 12.2 16.3 12.2 20.1 14.1 18.2"/>
        <polygon class="cls-2" points="12.2 20.8 12.2 55.2 14.5 57.5 33.9 38 14.5 18.6 12.2 20.8"/>
        <polygon class="cls-2" points="34.3 37.7 53.7 18.2 43.3 7.8 25.3 7.8 14.8 18.2 34.3 37.7"/>
        <path class="cls-2" d="M12.2,60.4v7.9c0,10.5,2.3,18.5,6.8,24.2l14.9-14.9-19.4-19.4-2.2,2.2Z"/>
        <polygon class="cls-2" points="54.1 177 52.4 178.6 55.7 178.6 54.1 177"/>
        <path class="cls-2" d="M73.8,117.6v27.5c0,1.4-.5,2.6-1.6,3.6-.9,1-2,1.6-3.4,1.6h-1.2l6.2,6.2,19.4-19.4-19.4-19.4h0Z"/>
        <polygon class="cls-2" points="14 136.2 14.5 136.7 19.3 131.8 14 131.8 14 136.2"/>
        <path class="cls-2" d="M92,175.3l-18.1-18.1-19.4,19.4,2,2h18.7c6.7,0,12.3-1.1,16.9-3.3Z"/>
        <polygon class="cls-2" points="14.1 137 14 136.9 14 137.1 14.1 137"/>
        <path class="cls-2" d="M114.4,52h12.7l-12.7-12.7c0,0,0,.1,0,.2v12.5Z"/>
        <polygon class="cls-2" points="93.7 136.7 107.4 123 107.4 111.5 93.7 97.8 74.2 117.2 93.7 136.7"/>
        <path class="cls-2" d="M93.7,97.1l10.4-10.4c-4-9.2-11.8-14.4-23.3-15.6l-6.6,6.6,19.4,19.4Z"/>
        <path class="cls-2" d="M114.4,38.6l13.4,13.4h11l10.2-10.2v-3c0-1.3.4-2.4,1.1-3.3l-16.8-16.8-18.8,18.8c0,.4,0,.8,0,1.2Z"/>
        <path class="cls-2" d="M59.7,102.7h9.2c1.4,0,2.5.5,3.4,1.6,1,1,1.6,2.3,1.6,3.6v9h0s19.4-19.4,19.4-19.4l-19.4-19.4-19.4,19.4,5.3,5.3Z"/>
        <path class="cls-2" d="M80.2,70.9c-1.6-.2-3.3-.2-5.1-.2h-7.8l6.6,6.6,6.3-6.3Z"/>
        <polygon class="cls-2" points="49.2 102.7 59 102.7 54.1 97.8 49.2 102.7"/>
        <polygon class="cls-2" points="100.6 24.8 100.6 11.6 94 18.2 100.6 24.8"/>
        <path class="cls-2" d="M114.5,36.7l18.5-18.5-7.3-7.3c-7,5.1-10.7,13.7-11.2,25.7Z"/>
        <polygon class="cls-2" points="205.7 170.2 192.7 157.2 173.8 176 205.7 176 205.7 170.2"/>
      </g>
    </g>
  </g>
</svg>