<?xml version="1.0" encoding="UTF-8"?>
<svg id="Layer_2" xmlns="http://www.w3.org/2000/svg" viewBox="0 0 184.25 184.25">
  <defs>
    <style>
      .cls-1 {
        fill: none;
      }

      .cls-2 {
        fill: #8e8e93;
      }
    </style>
  </defs>
  <g id="Layer_1-2" data-name="Layer_1">
    <path class="cls-2" d="M88.1,13.88C43.4,13.88,7.16,50.11,7.16,94.82s36.24,80.94,80.94,80.94,80.94-36.24,80.94-80.94S132.8,13.88,88.1,13.88ZM66.2,52.12c1.7-.03,3.09,1.33,3.12,3.02l.12,8.07c.03,1.7-1.33,3.09-3.02,3.12-1.7.03-3.09-1.33-3.12-3.02l-.12-8.07c-.03-1.7,1.33-3.09,3.02-3.12ZM55.25,52.28c1.7-.03,3.09,1.33,3.12,3.02l.12,8.07c.03,1.7-1.33,3.09-3.02,3.12s-3.09-1.33-3.12-3.02l-.12-8.07c-.03-1.7,1.33-3.09,3.02-3.12ZM73.15,72.87c-1.2,2.88-4.28,7.16-11.92,7.34h0s-.05,0-.08,0c-.03,0-.05,0-.08,0h0c-7.64.05-10.84-4.14-12.14-6.98-.55-1.2.32-2.56,1.64-2.58l10.35-.16h.15s10.35-.16,10.35-.16c1.32-.02,2.22,1.32,1.71,2.53Z"/>
    <rect class="cls-1" width="184.25" height="184.25"/>
  </g>
</svg>