<?xml version="1.0" encoding="UTF-8"?>
<svg xmlns="http://www.w3.org/2000/svg" version="1.1" viewBox="0 0 209 180">
  <defs>
    <style>
      .cls-1 {
        fill: none;
      }

      .cls-2 {
        fill: #c59f7b;
      }
    </style>
  </defs>
  <!-- Generator: Adobe Illustrator 28.7.1, SVG Export Plug-In . SVG Version: 1.2.0 Build 142)  -->
  <g>
    <g id="Layer_1">
      <rect class="cls-1" width="209" height="180"/>
      <path class="cls-2" d="M196.9,8.6h5l-19.6,32.4h-5l19.6-32.4ZM179.6,25.1h-1.2c-4.1,0-6.2-2.2-6.2-6.6v-3.8c0-4.4,2.1-6.6,6.2-6.6h1.2c4.1,0,6.2,2.2,6.2,6.6v3.8c0,4.4-2.1,6.6-6.2,6.6ZM177.3,21c0,.3,0,.5.2.7.2.2.4.3.7.3h1.6c.3,0,.5-.1.6-.3.2-.2.3-.4.3-.7v-8.8c0-.3-.1-.5-.3-.7-.2-.2-.4-.3-.6-.3h-1.6c-.3,0-.5.1-.7.3-.2.2-.2.4-.2.7v8.8ZM200.6,24.5c4.1,0,6.2,2.2,6.2,6.6v3.8c0,4.4-2.1,6.6-6.2,6.6h-1.2c-4.1,0-6.2-2.2-6.2-6.6v-3.8c0-4.4,2.1-6.6,6.2-6.6h1.2ZM201.8,37.4v-8.8c0-.3-.1-.5-.3-.7-.2-.2-.4-.3-.7-.3h-1.5c-.3,0-.5.1-.7.3-.2.2-.2.4-.2.7v8.8c0,.3,0,.5.2.7.2.2.4.3.7.3h1.5c.3,0,.5-.1.7-.3.2-.2.3-.4.3-.7Z"/>
      <g>
        <polygon class="cls-2" points="90.6 98.1 90.6 104.8 112.8 104.8 98.3 90.4 90.6 98.1"/>
        <path class="cls-2" d="M137.6,50.4l-19.4-19.4-2.6,2.6h.3c1.4,0,2.5.5,3.4,1.6,1,1,1.6,2.3,1.6,3.6v28.5l16.8-16.8Z"/>
        <polygon class="cls-2" points="90.6 76.7 90.6 81.9 98.3 89.6 111.3 76.7 90.6 76.7"/>
        <polygon class="cls-2" points="51.7 122.2 51.7 97.4 39.3 109.8 51.7 122.2"/>
        <polygon class="cls-2" points="63.4 55.4 61 53 61 55.4 63.4 55.4"/>
        <path class="cls-2" d="M120.8,5.2h-16.5l-5.6,5.6,19.4,19.4,19.4-19.4-3.9-3.9c-3.8-1.2-8.1-1.8-12.9-1.8Z"/>
        <polygon class="cls-2" points="51.7 82.6 51.7 57.8 39.3 70.2 51.7 82.6"/>
        <polygon class="cls-2" points="19.5 90 38.9 109.4 51.7 96.7 51.7 83.3 38.9 70.6 19.5 90"/>
        <polygon class="cls-2" points="61 48.5 61 52.3 64.1 55.4 93 55.4 93.5 54.9 93.5 45.9 78.5 31 61 48.5"/>
        <path class="cls-2" d="M61,47.8l17.2-17.2-12.4-12.4c-3.2,5.4-4.8,12.5-4.8,21.3v8.3Z"/>
        <path class="cls-2" d="M66,17.7l12.5,12.5,19.4-19.4-5.6-5.6c-12.5.2-21.3,4.4-26.3,12.6Z"/>
        <path class="cls-2" d="M93.1,5.2l5.3,5.3,5.3-5.3h-10.4c0,0-.1,0-.2,0Z"/>
        <path class="cls-2" d="M59.4,130.6v13.6c0,8,1.3,14.7,4,19.9l14.8-14.8-18.7-18.7Z"/>
        <path class="cls-2" d="M150.5,23c-2.2-6.1-5.8-10.6-10.9-13.5l-1.3,1.3,12.2,12.2Z"/>
        <polygon class="cls-2" points="51.7 162.5 38.9 149.7 19.5 169.2 26.6 176.3 51.3 176.3 51.7 175.9 51.7 162.5"/>
        <polygon class="cls-2" points="16.3 87.5 16.3 92.5 18.8 90 16.3 87.5"/>
        <path class="cls-2" d="M98.3,11.2l-19.4,19.4,14.6,14.6v-6.5c0-1.4.4-2.6,1.3-3.6,1-1,2.3-1.6,3.6-1.6h16.4l2.9-2.9-19.4-19.4Z"/>
        <polygon class="cls-2" points="19.1 169.5 16.3 172.4 16.3 176.3 25.9 176.3 19.1 169.5"/>
        <path class="cls-2" d="M154.6,145.9c0-.5,0-1.1,0-1.6v-25c0-2,0-3.9-.3-5.8l-16,16,16.3,16.3Z"/>
        <polygon class="cls-2" points="16.3 127.1 16.3 132.1 18.8 129.6 16.3 127.1"/>
        <polygon class="cls-2" points="51.7 136.3 51.7 122.9 38.9 110.2 19.5 129.6 38.9 149 51.7 136.3"/>
        <polygon class="cls-2" points="90.6 82.7 90.6 97.3 98 90 90.6 82.7"/>
        <path class="cls-2" d="M153,65.1c0-1,0-2.1,0-3.2v-22.4c0-1.3,0-2.5-.1-3.7l-14.6,14.6,14.7,14.7Z"/>
        <path class="cls-2" d="M118.5,30.6l19.4,19.4,15-15c-.3-4.1-.9-7.7-2-11l-13-13-19.4,19.4Z"/>
        <polygon class="cls-2" points="38.6 109.8 19.1 90.4 16.3 93.2 16.3 126.4 19.1 129.2 38.6 109.8"/>
        <polygon class="cls-2" points="19.5 50.4 38.9 69.8 51.7 57.1 51.7 43.7 38.9 31 19.5 50.4"/>
        <polygon class="cls-2" points="18.8 50.4 16.3 47.9 16.3 52.9 18.8 50.4"/>
        <path class="cls-2" d="M119.1,150.7c-.5.2-1.1.3-1.7.3h-.6l-18.2,18.2,9.4,9.4h14.3c2.2,0,4.2-.1,6.2-.4l9-9-18.5-18.5Z"/>
        <polygon class="cls-2" points="16.3 14 16.3 47.2 19.1 50 38.6 30.6 19.1 11.2 16.3 14"/>
        <polygon class="cls-2" points="16.3 166.7 16.3 171.7 18.8 169.2 16.3 166.7"/>
        <path class="cls-2" d="M154.3,112.9c-.3-2.8-.8-5.3-1.5-7.7l-14.9-14.9-16.6,16.6c.7.9,1,1.9,1,3v3.7l15.6,15.6,16.3-16.3Z"/>
        <polygon class="cls-2" points="38.9 30.2 51.7 17.5 51.7 8 22.3 8 19.5 10.8 38.9 30.2"/>
        <path class="cls-2" d="M154.6,146.6l-16.6-16.6-15.6,15.6v.3c0,1.4-.5,2.6-1.6,3.6-.4.4-.8.7-1.2,1l18.4,18.4,16.1-16.1c.3-2,.5-4,.5-6.2Z"/>
        <path class="cls-2" d="M153.9,153.6l-15.6,15.6,4.2,4.2c6.1-4.1,9.9-10.7,11.4-19.8Z"/>
        <polygon class="cls-2" points="18.8 10.8 16.3 8.3 16.3 13.3 18.8 10.8"/>
        <polygon class="cls-2" points="122.4 114.4 122.4 144.8 137.6 129.6 122.4 114.4"/>
        <path class="cls-2" d="M137.9,169.5l-8.6,8.6c5-.7,9.2-2.2,12.8-4.4l-4.2-4.2Z"/>
        <polygon class="cls-2" points="51.7 137 39.3 149.4 51.7 161.8 51.7 137"/>
        <polygon class="cls-2" points="19.1 10.4 21.6 8 16.7 8 19.1 10.4"/>
        <path class="cls-2" d="M142.4,89.9c4-2.9,6.8-7.1,8.6-12.6l-12.7,12.7,14.2,14.2c-2-6.1-5.3-10.9-10.1-14.3Z"/>
        <path class="cls-2" d="M151.3,76.3c.9-3.1,1.5-6.7,1.7-10.6l-15-15-17.1,17.1v3.6c0,.3,0,.6,0,.9l17.2,17.2,13.3-13.3Z"/>
        <path class="cls-2" d="M120.6,73c-.2.8-.7,1.5-1.3,2.2-.9,1-2,1.6-3.4,1.6h-3.8l-13.3,13.3,14.8,14.8h4c1.4,0,2.5.5,3.4,1.6,0,0,.1.2.2.3l16.6-16.6-17-17Z"/>
        <path class="cls-2" d="M78.5,149.7l-14.9,14.9c4.6,8.6,12.9,13.2,25,13.9l9.3-9.3-19.4-19.4Z"/>
        <path class="cls-2" d="M96.9,151c-1.4,0-2.6-.5-3.6-1.6-.9-1-1.3-2.3-1.3-3.6v-9.5l-13,13,19.4,19.4,17.8-17.8h-19.3Z"/>
        <polygon class="cls-2" points="91.9 130.5 60 130.5 78.5 149 91.9 135.6 91.9 130.5"/>
        <path class="cls-2" d="M98.3,169.5l-9,9c.8,0,1.5,0,2.3,0h15.7l-9.1-9.1Z"/>
        <polygon class="cls-2" points="38.6 149.4 19.1 130 16.3 132.8 16.3 166 19.1 168.8 38.6 149.4"/>
        <path class="cls-2" d="M137.9,10.4l1.2-1.2c-1.4-.8-2.8-1.4-4.4-2l3.2,3.2Z"/>
        <polygon class="cls-2" points="16.3 53.6 16.3 86.8 19.1 89.6 38.6 70.2 19.1 50.8 16.3 53.6"/>
        <polygon class="cls-2" points="51.7 43 51.7 18.2 39.3 30.6 51.7 43"/>
      </g>
    </g>
  </g>
</svg>