<?xml version="1.0" encoding="UTF-8"?>
<svg xmlns="http://www.w3.org/2000/svg" version="1.1" viewBox="0 0 263 180">
  <defs>
    <style>
      .cls-1 {
        fill: none;
      }

      .cls-2 {
        fill: #c59f7b;
      }
    </style>
  </defs>
  <!-- Generator: Adobe Illustrator 28.7.1, SVG Export Plug-In . SVG Version: 1.2.0 Build 142)  -->
  <g>
    <g id="Layer_1">
      <rect class="cls-1" width="263" height="180"/>
      <path class="cls-2" d="M250.9,8.6h5l-19.6,32.4h-5l19.6-32.4ZM233.6,25.1h-1.2c-4.1,0-6.2-2.2-6.2-6.6v-3.8c0-4.4,2.1-6.6,6.2-6.6h1.2c4.1,0,6.2,2.2,6.2,6.6v3.8c0,4.4-2.1,6.6-6.2,6.6ZM231.3,21c0,.3,0,.5.2.7.2.2.4.3.7.3h1.6c.3,0,.5-.1.6-.3.2-.2.3-.4.3-.7v-8.8c0-.3-.1-.5-.3-.7-.2-.2-.4-.3-.6-.3h-1.6c-.3,0-.5.1-.7.3-.2.2-.2.4-.2.7v8.8ZM254.6,24.5c4.1,0,6.2,2.2,6.2,6.6v3.8c0,4.4-2.1,6.6-6.2,6.6h-1.2c-4.1,0-6.2-2.2-6.2-6.6v-3.8c0-4.4,2.1-6.6,6.2-6.6h1.2ZM255.8,37.4v-8.8c0-.3-.1-.5-.3-.7-.2-.2-.4-.3-.7-.3h-1.5c-.3,0-.5.1-.7.3-.2.2-.2.4-.2.7v8.8c0,.3,0,.5.2.7.2.2.4.3.7.3h1.5c.3,0,.5-.1.7-.3.2-.2.3-.4.3-.7Z"/>
      <g>
        <path class="cls-2" d="M65.9,109.4l19.4-19.4-11.7-11.7c-.7.5-1.5.8-2.5.8h-13.7l-11,11,19.4,19.4Z"/>
        <path class="cls-2" d="M29.7,106.8c4.4,1.9,9.7,2.9,16,2.9h19.8l-19.3-19.3-16.5,16.5Z"/>
        <polygon class="cls-2" points="76.1 59.7 85.4 50.4 76.1 41.1 76.1 59.7"/>
        <polygon class="cls-2" points="86.1 50.4 105.5 69.8 108.6 66.8 108.6 34 105.5 31 86.1 50.4"/>
        <polygon class="cls-2" points="108.6 33.3 108.6 27.9 105.9 30.6 108.6 33.3"/>
        <path class="cls-2" d="M76.1,60.4v13.4c0,1.4-.5,2.6-1.6,3.6-.1.2-.3.3-.5.5l11.7,11.7,19.4-19.4-19.4-19.4-9.7,9.7Z"/>
        <polygon class="cls-2" points="105.2 149.4 85.7 130 76.1 139.6 76.1 159.2 85.7 168.8 105.2 149.4"/>
        <polygon class="cls-2" points="151.3 76.7 144.7 76.7 144.7 104.8 149.8 104.8 164.6 90 151.3 76.7"/>
        <polygon class="cls-2" points="113.5 130.5 113.5 141.1 124.1 130.5 113.5 130.5"/>
        <path class="cls-2" d="M184.4,70.2l-9.5-9.5v10.8c0,1.4-.5,2.6-1.6,3.6-.9,1-2,1.6-3.4,1.6h-17.9l13,13,19.4-19.4Z"/>
        <polygon class="cls-2" points="105.5 110.2 86.1 129.6 105.5 149 108.6 146 108.6 113.2 105.5 110.2"/>
        <polygon class="cls-2" points="92.2 176 85.7 169.5 79.3 176 92.2 176"/>
        <polygon class="cls-2" points="105.9 149.4 108.6 152.1 108.6 146.7 105.9 149.4"/>
        <path class="cls-2" d="M147.3,5.2c-8.9,0-16,2-21.3,6l19.1,19.1,19.4-19.4-5.6-5.6h-11.7Z"/>
        <path class="cls-2" d="M184.7,30.2l15.3-15.3c-5.3-6.5-13.8-9.8-25.2-9.8h-3.9l-5.6,5.6,19.4,19.4Z"/>
        <polygon class="cls-2" points="86.1 169.2 92.9 176 108.6 176 108.6 152.8 105.5 149.7 86.1 169.2"/>
        <polygon class="cls-2" points="76.1 120.3 76.1 138.9 85.4 129.6 76.1 120.3"/>
        <polygon class="cls-2" points="105.2 109.8 85.7 90.4 66.4 109.7 76.1 109.7 76.1 119.6 85.7 129.2 105.2 109.8"/>
        <path class="cls-2" d="M115.7,159.9c1.6,4.7,3.9,8.5,7.2,11.4l2.1-2.1-9.3-9.3Z"/>
        <polygon class="cls-2" points="108.6 106.4 108.6 73.6 105.5 70.6 86.1 90 105.5 109.4 108.6 106.4"/>
        <polygon class="cls-2" points="204.2 50.4 184.7 31 174.8 40.9 174.8 59.9 184.7 69.8 204.2 50.4"/>
        <path class="cls-2" d="M185.1,30.6l19.4,19.4,2.5-2.5v-8c0-10.4-2.2-18.5-6.7-24.2l-15.3,15.3Z"/>
        <polygon class="cls-2" points="108.6 72.9 108.6 67.5 105.9 70.2 108.6 72.9"/>
        <path class="cls-2" d="M184.4,30.6l-19.4-19.4-19.4,19.4,4,4c.9-.7,1.9-1,3-1h17.4c1.4,0,2.5.5,3.4,1.6,1,1,1.6,2.3,1.6,3.6v1.4l9.5-9.5Z"/>
        <polygon class="cls-2" points="125.3 50.8 120.7 55.4 129.9 55.4 125.3 50.8"/>
        <polygon class="cls-2" points="108.6 107.1 105.9 109.8 108.6 112.5 108.6 107.1"/>
        <polygon class="cls-2" points="115 40.5 115 55.4 120 55.4 125 50.4 115 40.5"/>
        <path class="cls-2" d="M115,39.5v.2l10.3,10.3,19.4-19.4-19.2-19.2c-7.1,5.6-10.6,14.9-10.6,28.1Z"/>
        <path class="cls-2" d="M125.7,50.4l5,5h16.9v-16.6c0-1.4.4-2.6,1.3-3.6,0,0,.2-.1.2-.2l-3.9-3.9-19.4,19.4Z"/>
        <polygon class="cls-2" points="85.7 10.4 88.4 7.8 83.1 7.8 85.7 10.4"/>
        <path class="cls-2" d="M176.4,141.4v4.4c0,1.4-.5,2.6-1.6,3.6-.9,1-2,1.6-3.4,1.6h-20.5c-1.4,0-2.6-.5-3.6-1.6-.3-.4-.5-.7-.7-1.1l-1.1,1.1,19.4,19.4,19.4-19.4-8-8Z"/>
        <polygon class="cls-2" points="45.7 49.6 45.7 11.6 26.7 30.6 45.7 49.6"/>
        <path class="cls-2" d="M207.1,61.9v-8.6l-2.5-2.5-19.4,19.4,15.6,15.6c4.3-5.5,6.4-13.4,6.4-23.9Z"/>
        <path class="cls-2" d="M208.6,125.1v-5.8c0-11-2.6-19.5-7.7-25.3l-15.8,15.8,19.4,19.4,4.1-4.1Z"/>
        <polygon class="cls-2" points="13.4 43.9 13.4 56.9 26.3 69.8 45.7 50.5 45.7 50.3 26.3 31 13.4 43.9"/>
        <path class="cls-2" d="M145.1,149.7l-19.4,19.4,7.9,7.9c3.6,1,7.6,1.5,12.2,1.5h9.5l9.4-9.4-19.4-19.4Z"/>
        <path class="cls-2" d="M13.8,82.4l12.2-12.2-12.6-12.6v17.8c0,2.5.1,4.8.4,7Z"/>
        <polygon class="cls-2" points="164.9 169.5 155.9 178.6 174 178.6 164.9 169.5"/>
        <path class="cls-2" d="M202.6,167.6l-17.8-17.8-19.4,19.4,9.4,9.4h1.7c12.2,0,20.9-3.7,26.2-11Z"/>
        <path class="cls-2" d="M208.6,134.1l-4.1-4.1-19.4,19.4,17.8,17.8c3.8-5.6,5.8-13.2,5.8-22.9v-10.2Z"/>
        <polygon class="cls-2" points="204.9 129.6 208.6 133.3 208.6 125.8 204.9 129.6"/>
        <polygon class="cls-2" points="13.4 17.3 26.3 30.2 45.7 10.9 45.7 10.7 42.8 7.8 13.4 7.8 13.4 17.3"/>
        <polygon class="cls-2" points="26 30.6 13.4 18 13.4 43.2 26 30.6"/>
        <polygon class="cls-2" points="45.7 10 45.7 7.8 43.5 7.8 45.7 10"/>
        <polygon class="cls-2" points="204.2 129.6 184.7 110.2 176.4 118.5 176.4 140.7 184.7 149 204.2 129.6"/>
        <polygon class="cls-2" points="76.1 40.4 85.7 50 105.2 30.6 85.7 11.2 76.1 20.8 76.1 40.4"/>
        <polygon class="cls-2" points="105.5 30.2 108.6 27.2 108.6 7.8 89.1 7.8 86.1 10.8 105.5 30.2"/>
        <path class="cls-2" d="M26.7,70.2l19.4,19.4,10.6-10.6h-6.2c-1.4,0-2.6-.5-3.6-1.6-.9-1-1.3-2.3-1.3-3.6v-22.6l-19,19Z"/>
        <polygon class="cls-2" points="204.9 50.4 207.1 52.6 207.1 48.2 204.9 50.4"/>
        <polygon class="cls-2" points="164.9 10.4 170.2 5.2 159.7 5.2 164.9 10.4"/>
        <path class="cls-2" d="M13.9,83c1.5,11.7,6.6,19.6,15.3,23.6l16.6-16.6-19.4-19.4-12.5,12.5Z"/>
        <path class="cls-2" d="M125.3,169.5l-2.1,2.1c2.6,2.3,5.7,4,9.3,5.1l-7.2-7.2Z"/>
        <path class="cls-2" d="M184.4,109.8l-19.4-19.4-14.4,14.4h20.9c1.4,0,2.5.5,3.4,1.6,1,1,1.6,2.3,1.6,3.6v7.8l8-8Z"/>
        <path class="cls-2" d="M200.6,93.6c-1.2-1.4-2.6-2.6-4.2-3.7,1.5-1.1,2.8-2.3,3.9-3.8l-15.6-15.6-19.4,19.4,19.4,19.4,15.8-15.8Z"/>
        <path class="cls-2" d="M146.3,147.8c-.2-.6-.4-1.3-.4-2v-15.3h-19.4l18.5,18.5,1.2-1.2Z"/>
        <path class="cls-2" d="M125.9,130.5h-1.1l-11.3,11.3v2.5c0,5.5.6,10.4,1.9,14.6l10,10,19.4-19.4-18.9-18.9Z"/>
        <polygon class="cls-2" points="76.1 159.9 76.1 176 78.6 176 85.4 169.2 76.1 159.9"/>
        <polygon class="cls-2" points="76.1 20.1 85.4 10.8 82.4 7.8 76.1 7.8 76.1 20.1"/>
      </g>
    </g>
  </g>
</svg>