<svg width="307" height="180" viewBox="0 0 307 180" fill="none" xmlns="http://www.w3.org/2000/svg">
<g clip-path="url(#clip0_168_27474)">
<path d="M52.0249 8.03999V176.26H16.6649V8.03999H52.0249ZM156.25 39.5V144.28C156.25 167.16 145.503 178.6 124.01 178.6H93.0701C71.5767 178.6 60.8301 167.16 60.8301 144.28V39.5C60.8301 16.62 71.5767 5.18 93.0701 5.18H124.01C145.503 5.18 156.25 16.62 156.25 39.5ZM120.89 148.44V35.08C120.89 33.6933 120.37 32.48 119.33 31.44C118.463 30.4 117.337 29.88 115.95 29.88H101.13C99.7434 29.88 98.5301 30.4 97.4901 31.44C96.6234 32.48 96.1901 33.6933 96.1901 35.08V148.44C96.1901 149.827 96.6234 151.04 97.4901 152.08C98.5301 153.12 99.7434 153.64 101.13 153.64H115.95C117.337 153.64 118.463 153.12 119.33 152.08C120.37 151.04 120.89 149.827 120.89 148.44ZM254.063 39.5V144.28C254.063 167.16 243.316 178.6 221.823 178.6H190.883C169.389 178.6 158.643 167.16 158.643 144.28V39.5C158.643 16.62 169.389 5.18 190.883 5.18H221.823C243.316 5.18 254.063 16.62 254.063 39.5ZM218.703 148.44V35.08C218.703 33.6933 218.183 32.48 217.143 31.44C216.276 30.4 215.149 29.88 213.763 29.88H198.943C197.556 29.88 196.343 30.4 195.303 31.44C194.436 32.48 194.003 33.6933 194.003 35.08V148.44C194.003 149.827 194.436 151.04 195.303 152.08C196.343 153.12 197.556 153.64 198.943 153.64H213.763C215.149 153.64 216.276 153.12 217.143 152.08C218.183 151.04 218.703 149.827 218.703 148.44Z" fill="#C59F7B"/>
<mask id="mask0_168_27474" style="mask-type:alpha" maskUnits="userSpaceOnUse" x="-323" y="-477" width="1121" height="1133">
<path d="M231.875 644.06L797.56 78.3748" stroke="white" stroke-width="0.5"/>
<path d="M212.076 624.261L777.761 58.5757" stroke="white" stroke-width="0.5"/>
<path d="M192.277 604.462L757.962 38.7766" stroke="white" stroke-width="0.5"/>
<path d="M172.478 584.663L738.163 18.9775" stroke="white" stroke-width="0.5"/>
<path d="M152.679 564.864L718.364 -0.821539" stroke="white" stroke-width="0.5"/>
<path d="M132.879 545.065L698.565 -20.6206" stroke="white" stroke-width="0.5"/>
<path d="M113.081 525.266L678.766 -40.4199" stroke="white" stroke-width="0.5"/>
<path d="M93.2812 505.467L658.967 -60.219" stroke="white" stroke-width="0.5"/>
<path d="M73.4824 485.667L639.168 -80.0181" stroke="white" stroke-width="0.5"/>
<path d="M53.6831 465.868L619.368 -99.8171" stroke="white" stroke-width="0.5"/>
<path d="M33.8838 446.069L599.569 -119.616" stroke="white" stroke-width="0.5"/>
<path d="M14.085 426.27L579.77 -139.415" stroke="white" stroke-width="0.5"/>
<path d="M-5.71436 406.471L559.971 -159.214" stroke="white" stroke-width="0.5"/>
<path d="M-25.5132 386.672L540.172 -179.013" stroke="white" stroke-width="0.5"/>
<path d="M-45.3125 366.873L520.373 -198.813" stroke="white" stroke-width="0.5"/>
<path d="M-65.1113 347.074L500.574 -218.612" stroke="white" stroke-width="0.5"/>
<path d="M-84.9106 327.275L480.775 -238.411" stroke="white" stroke-width="0.5"/>
<path d="M-104.709 307.476L460.976 -258.21" stroke="white" stroke-width="0.5"/>
<path d="M-124.509 287.677L441.176 -278.009" stroke="white" stroke-width="0.5"/>
<path d="M-144.308 267.877L421.377 -297.808" stroke="white" stroke-width="0.5"/>
<path d="M-164.107 248.078L401.578 -317.607" stroke="white" stroke-width="0.5"/>
<path d="M-183.906 228.279L381.779 -337.406" stroke="white" stroke-width="0.5"/>
<path d="M-203.705 208.48L361.98 -357.205" stroke="white" stroke-width="0.5"/>
<path d="M-223.504 188.681L342.181 -377.004" stroke="white" stroke-width="0.5"/>
<path d="M-243.303 168.882L322.382 -396.803" stroke="white" stroke-width="0.5"/>
<path d="M-263.103 149.083L302.583 -416.603" stroke="white" stroke-width="0.5"/>
<path d="M-282.901 129.284L282.784 -436.402" stroke="white" stroke-width="0.5"/>
<path d="M-302.701 109.485L262.985 -456.201" stroke="white" stroke-width="0.5"/>
<path d="M-322.5 89.6858L243.186 -476" stroke="white" stroke-width="0.5"/>
<path d="M-322.497 89.6887L243.188 655.374" stroke="white" stroke-width="0.5"/>
<path d="M-302.698 69.8896L262.988 635.575" stroke="white" stroke-width="0.5"/>
<path d="M-282.899 50.0906L282.787 615.776" stroke="white" stroke-width="0.5"/>
<path d="M-263.1 30.2915L302.586 595.977" stroke="white" stroke-width="0.5"/>
<path d="M-243.301 10.4924L322.385 576.178" stroke="white" stroke-width="0.5"/>
<path d="M-223.501 -9.30664L342.184 556.379" stroke="white" stroke-width="0.5"/>
<path d="M-203.703 -29.1057L361.983 536.58" stroke="white" stroke-width="0.5"/>
<path d="M-183.903 -48.905L381.782 516.78" stroke="white" stroke-width="0.5"/>
<path d="M-164.104 -68.7041L401.581 496.981" stroke="white" stroke-width="0.5"/>
<path d="M-144.305 -88.5032L421.38 477.182" stroke="white" stroke-width="0.5"/>
<path d="M-124.506 -108.302L441.18 457.383" stroke="white" stroke-width="0.5"/>
<path d="M-104.707 -128.101L460.978 437.584" stroke="white" stroke-width="0.5"/>
<path d="M-84.9082 -147.9L480.777 417.785" stroke="white" stroke-width="0.5"/>
<path d="M-65.1089 -167.699L500.577 397.986" stroke="white" stroke-width="0.5"/>
<path d="M-45.3096 -187.499L520.376 378.187" stroke="white" stroke-width="0.5"/>
<path d="M-25.5107 -207.298L540.175 358.387" stroke="white" stroke-width="0.5"/>
<path d="M-5.71143 -227.097L559.974 338.588" stroke="white" stroke-width="0.5"/>
<path d="M14.0874 -246.896L579.773 318.789" stroke="white" stroke-width="0.5"/>
<path d="M33.8867 -266.695L599.572 298.99" stroke="white" stroke-width="0.5"/>
<path d="M53.6855 -286.494L619.371 279.191" stroke="white" stroke-width="0.5"/>
<path d="M73.4849 -306.293L639.17 259.392" stroke="white" stroke-width="0.5"/>
<path d="M93.2837 -326.092L658.969 239.593" stroke="white" stroke-width="0.5"/>
<path d="M113.083 -345.891L678.769 219.794" stroke="white" stroke-width="0.5"/>
<path d="M132.882 -365.69L698.568 199.995" stroke="white" stroke-width="0.5"/>
<path d="M152.681 -385.49L718.367 180.196" stroke="white" stroke-width="0.5"/>
<path d="M172.48 -405.289L738.166 160.397" stroke="white" stroke-width="0.5"/>
<path d="M192.279 -425.088L757.965 140.598" stroke="white" stroke-width="0.5"/>
<path d="M212.079 -444.887L777.764 120.799" stroke="white" stroke-width="0.5"/>
<path d="M231.877 -464.686L797.563 101" stroke="white" stroke-width="0.5"/>
</mask>
<g mask="url(#mask0_168_27474)">
<rect x="-56.5" width="320" height="180" fill="white"/>
</g>
<path d="M294.383 8.65H299.383L279.733 41H274.733L294.383 8.65ZM277.083 25.1H275.883C271.749 25.1 269.683 22.9 269.683 18.5V14.75C269.683 10.35 271.749 8.15 275.883 8.15H277.083C281.216 8.15 283.283 10.35 283.283 14.75V18.5C283.283 22.9 281.216 25.1 277.083 25.1ZM274.783 21C274.783 21.2667 274.866 21.5 275.033 21.7C275.233 21.9 275.466 22 275.733 22H277.283C277.549 22 277.766 21.9 277.933 21.7C278.133 21.5 278.233 21.2667 278.233 21V12.2C278.233 11.9333 278.133 11.7 277.933 11.5C277.766 11.3 277.549 11.2 277.283 11.2H275.733C275.466 11.2 275.233 11.3 275.033 11.5C274.866 11.7 274.783 11.9333 274.783 12.2V21ZM298.133 24.55C302.266 24.55 304.333 26.75 304.333 31.15V34.9C304.333 39.3 302.266 41.5 298.133 41.5H296.933C292.799 41.5 290.733 39.3 290.733 34.9V31.15C290.733 26.75 292.799 24.55 296.933 24.55H298.133ZM299.283 37.4V28.6C299.283 28.3333 299.183 28.1 298.983 27.9C298.816 27.7 298.599 27.6 298.333 27.6H296.783C296.516 27.6 296.283 27.7 296.083 27.9C295.916 28.1 295.833 28.3333 295.833 28.6V37.4C295.833 37.6667 295.916 37.9 296.083 38.1C296.283 38.3 296.516 38.4 296.783 38.4H298.333C298.599 38.4 298.816 38.3 298.983 38.1C299.183 37.9 299.283 37.6667 299.283 37.4Z" fill="#C59F7B"/>
</g>
<defs>
<clipPath id="clip0_168_27474">
<rect width="306" height="180" fill="white" transform="translate(0.5)"/>
</clipPath>
</defs>
</svg>
