<?xml version="1.0" encoding="UTF-8"?>
<svg xmlns="http://www.w3.org/2000/svg" version="1.1" viewBox="0 0 165 180">
  <defs>
    <style>
      .cls-1 {
        fill: none;
      }

      .cls-2 {
        fill: #c59f7b;
      }
    </style>
  </defs>
  <!-- Generator: Adobe Illustrator 28.7.1, SVG Export Plug-In . SVG Version: 1.2.0 Build 142)  -->
  <g>
    <g id="Layer_1">
      <rect class="cls-1" x=".5" width="164" height="180"/>
      <path class="cls-2" d="M152.4,8.6h5l-19.6,32.4h-5l19.6-32.4ZM135.1,25.1h-1.2c-4.1,0-6.2-2.2-6.2-6.6v-3.8c0-4.4,2.1-6.6,6.2-6.6h1.2c4.1,0,6.2,2.2,6.2,6.6v3.8c0,4.4-2.1,6.6-6.2,6.6ZM132.8,21c0,.3,0,.5.2.7.2.2.4.3.7.3h1.6c.3,0,.5-.1.6-.3.2-.2.3-.4.3-.7v-8.8c0-.3-.1-.5-.3-.7-.2-.2-.4-.3-.6-.3h-1.6c-.3,0-.5.1-.7.3-.2.2-.2.4-.2.7v8.8ZM156.1,24.5c4.1,0,6.2,2.2,6.2,6.6v3.8c0,4.4-2.1,6.6-6.2,6.6h-1.2c-4.1,0-6.2-2.2-6.2-6.6v-3.8c0-4.4,2.1-6.6,6.2-6.6h1.2ZM157.3,37.4v-8.8c0-.3-.1-.5-.3-.7-.2-.2-.4-.3-.7-.3h-1.5c-.3,0-.5.1-.7.3-.2.2-.2.4-.2.7v8.8c0,.3,0,.5.2.7.2.2.4.3.7.3h1.5c.3,0,.5-.1.7-.3.2-.2.3-.4.3-.7Z"/>
      <g>
        <path class="cls-2" d="M17.2,21.9l10.5,10.5,19.4-19.4-7.4-7.4c-11.2,1.5-18.8,6.9-22.6,16.3Z"/>
        <path class="cls-2" d="M58.3,81.1h-10c-3.8,0-7.3.4-10.4,1.1l9.7,9.7,10.8-10.8Z"/>
        <path class="cls-2" d="M86.7,92.2l-13.6-13.6c-.2.3-.4.6-.7.9-.9,1-2,1.6-3.4,1.6h-10.1l-11.1,11.1,19.4,19.4,19.4-19.4Z"/>
        <path class="cls-2" d="M47.2,92.2l-9.9-9.9c-10.2,2.5-16.7,9-19.6,19.3l10,10,19.4-19.4Z"/>
        <path class="cls-2" d="M106.5,72.4l-19.4-19.4-13.1,13.1v9.8c0,.8-.2,1.6-.6,2.3l13.7,13.7,19.4-19.4Z"/>
        <path class="cls-2" d="M40.4,5.5l7.1,7.1,7.5-7.5h-8.5c-2.1,0-4.2.1-6.1.3Z"/>
        <path class="cls-2" d="M107.6,71.4v-31.9c0-2.1,0-4.1-.3-5.9l-.4-.4-19.4,19.4,19.4,19.4.7-.7Z"/>
        <path class="cls-2" d="M106.9,32.5l.2-.2c-1.4-11.8-6.4-19.7-15.1-23.8l-4.6,4.6,19.4,19.4Z"/>
        <path class="cls-2" d="M17.5,102.2c-1,3.9-1.5,8.3-1.5,13.2v7.9l11.3-11.3-9.8-9.8Z"/>
        <path class="cls-2" d="M106.5,32.8l-19.4-19.4-19.4,19.4.7.7h.7c1.4,0,2.5.5,3.4,1.6,1,1,1.6,2.3,1.6,3.6v.5l13.1,13.1,19.4-19.4Z"/>
        <polygon class="cls-2" points="14.2 46.7 14.2 52 46.5 52 27.7 33.2 14.2 46.7"/>
        <polygon class="cls-2" points="74 39.9 74 65.4 86.7 52.6 74 39.9"/>
        <polygon class="cls-2" points="48.5 52 48.8 52 48.8 51.7 48.5 52"/>
        <polygon class="cls-2" points="67.3 33.2 67 33.5 67.6 33.5 67.3 33.2"/>
        <path class="cls-2" d="M28.1,32.8l19.2,19.2h.6l1-1v-12.3c0-1.4.4-2.6,1.3-3.6,1-1,2.3-1.6,3.6-1.6h12.5l.7-.7-19.4-19.4-19.4,19.4Z"/>
        <path class="cls-2" d="M67.3,32.5l19.4-19.4-7.7-7.7c-1.2,0-2.4-.1-3.7-.1h-19.6l-7.8,7.8,19.4,19.4Z"/>
        <path class="cls-2" d="M79.8,5.4l7.3,7.3,4.5-4.5c-3.4-1.5-7.3-2.5-11.8-2.8Z"/>
        <polygon class="cls-2" points="105.5 149.8 105.5 146.1 101.7 146.1 105.5 149.8"/>
        <polygon class="cls-2" points="72.5 146.1 62.1 146.1 67.3 151.3 72.5 146.1"/>
        <polygon class="cls-2" points="61.4 146.1 49.3 146.1 49.3 134 47.5 132.2 28.1 151.6 47.5 171.1 67 151.6 61.4 146.1"/>
        <polygon class="cls-2" points="47.5 171.8 43.3 176 51.7 176 47.5 171.8"/>
        <polygon class="cls-2" points="27.7 152 16 163.6 16 176 42.6 176 47.2 171.4 27.7 152"/>
        <polygon class="cls-2" points="67.3 152 47.9 171.4 52.4 176 82.2 176 86.7 171.4 67.3 152"/>
        <polygon class="cls-2" points="105.5 153.4 87.5 171.4 92 176 105.5 176 105.5 153.4"/>
        <polygon class="cls-2" points="105.5 150.5 101 146.1 73.2 146.1 67.7 151.6 87.1 171.1 105.5 152.7 105.5 150.5"/>
        <path class="cls-2" d="M14.2,46l13.1-13.1-10.4-10.4c-1.8,4.7-2.7,10.4-2.7,17.1v6.5Z"/>
        <polygon class="cls-2" points="87.1 171.8 82.9 176 91.3 176 87.1 171.8"/>
        <polygon class="cls-2" points="67.3 112.4 66.6 113.1 68 113.1 67.3 112.4"/>
        <polygon class="cls-2" points="16 140.3 16 162.9 27.4 151.6 16 140.3"/>
        <path class="cls-2" d="M49.3,129.7v-11.4c0-1.4.4-2.6,1.3-3.6,1-1,2.3-1.6,3.6-1.6h11.6l1.1-1.1-19.4-19.4-19.4,19.4,19.4,19.4,1.8-1.8Z"/>
        <polygon class="cls-2" points="47.2 131.8 27.7 112.4 16 124 16 139.6 27.7 151.3 47.2 131.8"/>
        <polygon class="cls-2" points="49.3 130.4 47.9 131.8 49.3 133.3 49.3 130.4"/>
        <polygon class="cls-2" points="107.3 72.4 107.6 72.7 107.6 72.1 107.3 72.4"/>
        <path class="cls-2" d="M99.3,104.7l-12.2-12.2-19.4,19.4,1.1,1.1h6.6c10.6,0,18.6-2.8,23.9-8.3Z"/>
        <path class="cls-2" d="M107.6,73.4l-.7-.7-19.4,19.4,12.2,12.2c5.3-5.7,7.9-14.3,7.9-25.6v-5.3Z"/>
      </g>
    </g>
  </g>
</svg>