<?xml version="1.0" encoding="UTF-8"?>
<svg id="Layer_2" xmlns="http://www.w3.org/2000/svg" viewBox="0 0 255.12 255.12">
  <defs>
    <style>
      .cls-1 {
        fill: none;
      }

      .cls-2 {
        fill: #8e8e93;
      }
    </style>
  </defs>
  <g id="Layer_1-2" data-name="Layer_1">
    <path class="cls-2" d="M140.84,35.6c-45.31,0-82.04,36.73-82.04,82.04s36.73,82.04,82.04,82.04,82.04-36.73,82.04-82.04-36.73-82.04-82.04-82.04ZM149.72,93.88c0-1.7,1.37-3.07,3.07-3.07s3.07,1.37,3.07,3.07v8.07c0,1.7-1.37,3.07-3.07,3.07s-3.07-1.37-3.07-3.07v-8.07ZM138.77,93.88c0-1.7,1.37-3.07,3.07-3.07s3.07,1.37,3.07,3.07v8.07c0,1.7-1.37,3.07-3.07,3.07h0c-1.7,0-3.07-1.37-3.07-3.07v-8.07ZM159.42,111.67c-1.25,2.86-4.39,7.1-12.03,7.16h0s-.05,0-.08,0c-.03,0-.05,0-.08,0h0c-7.64-.07-10.78-4.3-12.03-7.16-.53-1.21.36-2.56,1.68-2.56h20.85c1.32,0,2.2,1.35,1.68,2.56Z"/>
    <rect class="cls-1" width="255.12" height="255.12"/>
  </g>
</svg>