<?xml version="1.0" encoding="UTF-8"?>
<svg id="Layer_2" data-name="Layer 2" xmlns="http://www.w3.org/2000/svg" viewBox="0 0 197.55 444.08">
  <defs>
    <style>
      .cls-1 {
        fill: #eaeaea;
      }
    </style>
  </defs>
  <g id="Isolation_Mode" data-name="Isolation Mode">
    <g>
      <rect class="cls-1" x="47.88" y="140.63" width="41.8" height="41.8" transform="translate(-94.08 95.94) rotate(-45)"/>
      <rect class="cls-1" x="108.01" y="318.87" width="41.8" height="43.58" transform="translate(-203.13 190.93) rotate(-45)"/>
      <rect class="cls-1" x="47.88" y="81.13" width="41.8" height="41.8" transform="translate(-52 78.52) rotate(-45)"/>
      <rect class="cls-1" x="137.75" y="289.12" width="41.8" height="43.58" transform="translate(-173.38 203.25) rotate(-45)"/>
      <rect class="cls-1" x="47.88" y="319.13" width="41.8" height="41.8" transform="translate(-220.29 148.23) rotate(-45)"/>
      <rect class="cls-1" x="137.13" y="229.88" width="41.8" height="41.8" transform="translate(-131.04 185.19) rotate(-45)"/>
      <rect class="cls-1" x="47.88" y="200.13" width="41.8" height="41.8" transform="translate(-136.15 113.37) rotate(-45)"/>
      <rect class="cls-1" x="47.88" y="259.63" width="41.8" height="41.8" transform="translate(-178.22 130.8) rotate(-45)"/>
      <rect class="cls-1" x="77.63" y="170.38" width="41.8" height="41.8" transform="translate(-106.4 125.69) rotate(-45)"/>
      <rect class="cls-1" x="77.63" y="229.88" width="41.8" height="41.8" transform="translate(-148.47 143.12) rotate(-45)"/>
      <rect class="cls-1" x="107.38" y="259.63" width="41.8" height="41.8" transform="translate(-160.79 172.87) rotate(-45)"/>
      <rect class="cls-1" x="107.38" y="200.13" width="41.8" height="41.8" transform="translate(-118.72 155.44) rotate(-45)"/>
      <rect class="cls-1" x="107.12" y="80.5" width="43.58" height="41.8" transform="translate(-33.95 120.85) rotate(-45)"/>
      <rect class="cls-1" x="107.38" y="140.63" width="41.8" height="41.8" transform="translate(-76.65 138.02) rotate(-45)"/>
      <rect class="cls-1" x="77.63" y="110.88" width="41.8" height="41.8" transform="translate(-64.33 108.27) rotate(-45)"/>
      <rect class="cls-1" x="77.63" y="289.38" width="41.8" height="41.8" transform="translate(-190.54 160.55) rotate(-45)"/>
      <rect class="cls-1" x="48.51" y="378.37" width="41.8" height="43.58" transform="translate(-262.63 166.28) rotate(-45)"/>
      <rect class="cls-1" x="18.13" y="348.88" width="41.8" height="41.8" transform="translate(-250.04 135.9) rotate(-45)"/>
      <rect class="cls-1" x="18.13" y="289.38" width="41.8" height="41.8" transform="translate(-207.97 118.48) rotate(-45)"/>
      <rect class="cls-1" x="78.26" y="348.62" width="41.8" height="43.58" transform="translate(-232.88 178.6) rotate(-45)"/>
      <path class="cls-1" d="M197.55,422.21l-8.32,8.32,5.39,5.39c1.85-2.83,2.94-6.21,2.94-9.84v-3.87Z"/>
      <rect class="cls-1" x="137.13" y="170.38" width="41.8" height="41.8" transform="translate(-88.97 167.77) rotate(-45)"/>
      <rect class="cls-1" x="108.63" y="379.89" width="41.8" height="41.8" transform="translate(-245.46 208.98) rotate(-45)"/>
      <rect class="cls-1" x="138.38" y="350.14" width="41.8" height="41.8" transform="translate(-215.71 221.31) rotate(-45)"/>
      <rect class="cls-1" x="18.13" y="229.88" width="41.8" height="41.8" transform="translate(-165.9 101.05) rotate(-45)"/>
      <rect class="cls-1" x="138.38" y="50.12" width="41.8" height="41.8" transform="translate(-3.57 133.43) rotate(-45)"/>
      <rect class="cls-1" x="108.63" y="20.37" width="41.8" height="41.8" transform="translate(8.75 103.68) rotate(-45)"/>
      <rect class="cls-1" x="18.13" y="170.38" width="41.8" height="41.8" transform="translate(-123.83 83.62) rotate(-45)"/>
      <rect class="cls-1" x="77.37" y="50.75" width="43.58" height="41.8" transform="translate(-21.62 91.1) rotate(-45)"/>
      <rect class="cls-1" x="136.87" y="110.25" width="43.58" height="41.8" transform="translate(-46.27 150.6) rotate(-45)"/>
      <rect class="cls-1" x="18.13" y="110.88" width="41.8" height="41.8" transform="translate(-81.75 66.2) rotate(-45)"/>
      <rect class="cls-1" x="18.13" y="51.38" width="41.8" height="41.8" transform="translate(-39.68 48.77) rotate(-45)"/>
      <rect class="cls-1" x="47.62" y="21" width="43.58" height="41.8" transform="translate(-9.3 61.35) rotate(-45)"/>
      <polygon class="cls-1" points="158.22 161.53 187.78 191.09 197.55 181.31 197.55 139.23 189.03 130.71 158.22 161.53"/>
      <polygon class="cls-1" points="197.55 79.35 197.55 62.7 189.23 71.02 197.55 79.35"/>
      <path class="cls-1" d="M3.57,7.27C1.34,10.27,0,13.97,0,18v3.87l9.09-9.09L3.57,7.27Z"/>
      <polygon class="cls-1" points="159.48 41.27 189.03 70.83 197.55 62.32 197.55 20.23 189.03 11.72 159.48 41.27"/>
      <polygon class="cls-1" points="140.87 0 118.2 0 129.54 11.33 140.87 0"/>
      <path class="cls-1" d="M197.55,19.85v-1.85c0-4.15-1.42-7.97-3.79-11.02l-4.54,4.54,8.33,8.33Z"/>
      <polygon class="cls-1" points="159.28 41.08 188.84 11.52 177.32 0 141.25 0 129.73 11.52 159.28 41.08"/>
      <path class="cls-1" d="M21.87,0h-3.87C12.18,0,7.03,2.77,3.74,7.05l5.54,5.54L21.87,0Z"/>
      <polygon class="cls-1" points="39.03 42.34 69.84 11.52 58.32 0 22.25 0 9.47 12.78 39.03 42.34"/>
      <polygon class="cls-1" points="81.37 0 58.7 0 70.04 11.33 81.37 0"/>
      <polygon class="cls-1" points="99.79 41.08 129.34 11.52 117.82 0 81.75 0 70.23 11.52 99.79 41.08"/>
      <path class="cls-1" d="M175.68,444.08h3.87c6.21,0,11.68-3.14,14.92-7.92l-5.43-5.43-13.35,13.35Z"/>
      <polygon class="cls-1" points="158.22 280.53 189.03 311.35 197.55 302.83 197.55 260.75 187.78 250.97 158.22 280.53"/>
      <polygon class="cls-1" points="197.55 319.86 197.55 303.21 189.23 311.54 197.55 319.86"/>
      <polygon class="cls-1" points="159.48 341.29 189.03 370.85 197.55 362.33 197.55 320.25 189.03 311.73 159.48 341.29"/>
      <polygon class="cls-1" points="197.55 379.36 197.55 362.71 189.23 371.04 197.55 379.36"/>
      <polygon class="cls-1" points="159.48 400.79 189.03 430.35 197.55 421.83 197.55 379.75 189.03 371.23 159.48 400.79"/>
      <polygon class="cls-1" points="197.55 200.86 197.55 181.7 187.97 191.28 197.55 200.86"/>
      <polygon class="cls-1" points="197.55 138.85 197.55 122.2 189.23 130.52 197.55 138.85"/>
      <polygon class="cls-1" points="159.48 100.77 189.03 130.33 197.55 121.82 197.55 79.73 189.03 71.22 159.48 100.77"/>
      <polygon class="cls-1" points="158.22 221.03 187.78 250.59 197.55 240.81 197.55 201.25 187.78 191.47 158.22 221.03"/>
      <polygon class="cls-1" points="197.55 260.36 197.55 241.2 187.97 250.78 197.55 260.36"/>
      <path class="cls-1" d="M193.6,6.77c-3.3-4.12-8.36-6.77-14.05-6.77h-1.85l11.33,11.33,4.57-4.57Z"/>
      <polygon class="cls-1" points="38.84 42.53 9.28 12.97 0 22.25 0 62.81 9.28 72.09 38.84 42.53"/>
      <path class="cls-1" d="M2.9,435.85c3.21,4.95,8.77,8.23,15.1,8.23h5.89l-14.61-14.61-6.38,6.38Z"/>
      <polygon class="cls-1" points="0 360.69 0 378.87 9.09 369.78 0 360.69"/>
      <polygon class="cls-1" points="39.03 399.72 9.47 429.28 24.27 444.08 56.3 444.08 69.84 430.54 39.03 399.72"/>
      <polygon class="cls-1" points="38.84 399.53 9.28 369.97 0 379.25 0 419.81 9.28 429.09 38.84 399.53"/>
      <polygon class="cls-1" points="116.18 444.08 142.89 444.08 129.54 430.73 116.18 444.08"/>
      <polygon class="cls-1" points="38.84 340.03 9.28 310.47 0 319.75 0 360.31 9.28 369.59 38.84 340.03"/>
      <polygon class="cls-1" points="56.68 444.08 83.39 444.08 70.04 430.73 56.68 444.08"/>
      <polygon class="cls-1" points="159.29 400.98 129.73 430.54 143.27 444.08 175.3 444.08 188.84 430.54 159.29 400.98"/>
      <polygon class="cls-1" points="99.79 400.98 70.23 430.54 83.77 444.08 115.8 444.08 129.34 430.54 99.79 400.98"/>
      <path class="cls-1" d="M0,420.19v5.89c0,3.51,1.02,6.77,2.75,9.53l6.34-6.34-9.09-9.09Z"/>
      <polygon class="cls-1" points="0 122.7 0 140.87 9.09 131.78 0 122.7"/>
      <polygon class="cls-1" points="38.84 102.03 9.28 72.47 0 81.75 0 122.31 9.28 131.59 38.84 102.03"/>
      <polygon class="cls-1" points="38.84 161.53 9.28 131.97 0 141.25 0 181.81 9.28 191.09 38.84 161.53"/>
      <polygon class="cls-1" points="0 63.2 0 81.37 9.09 72.28 0 63.2"/>
      <polygon class="cls-1" points="0 182.19 0 200.37 9.09 191.28 0 182.19"/>
      <polygon class="cls-1" points="38.84 280.53 9.28 250.97 0 260.25 0 300.81 9.28 310.09 38.84 280.53"/>
      <polygon class="cls-1" points="0 301.19 0 319.37 9.09 310.28 0 301.19"/>
      <polygon class="cls-1" points="0 241.69 0 259.87 9.09 250.78 0 241.69"/>
      <polygon class="cls-1" points="38.84 221.03 9.28 191.47 0 200.75 0 241.31 9.28 250.59 38.84 221.03"/>
    </g>
  </g>
</svg>