<?xml version="1.0" encoding="UTF-8"?>
<svg xmlns="http://www.w3.org/2000/svg" version="1.1" viewBox="0 0 153 180">
  <defs>
    <style>
      .cls-1 {
        fill: none;
      }

      .cls-2 {
        fill: #c59f7b;
      }
    </style>
  </defs>
  <!-- Generator: Adobe Illustrator 28.7.1, SVG Export Plug-In . SVG Version: 1.2.0 Build 142)  -->
  <g>
    <g id="Layer_1">
      <rect class="cls-1" width="153" height="180"/>
      <path class="cls-2" d="M140.9,8.6h5l-19.6,32.4h-5l19.6-32.4ZM123.6,25.1h-1.2c-4.1,0-6.2-2.2-6.2-6.6v-3.8c0-4.4,2.1-6.6,6.2-6.6h1.2c4.1,0,6.2,2.2,6.2,6.6v3.8c0,4.4-2.1,6.6-6.2,6.6ZM121.3,21c0,.3,0,.5.2.7.2.2.4.3.7.3h1.5c.3,0,.5-.1.7-.3.2-.2.3-.4.3-.7v-8.8c0-.3,0-.5-.3-.7-.2-.2-.4-.3-.7-.3h-1.5c-.3,0-.5.1-.7.3-.2.2-.2.4-.2.7v8.8ZM144.6,24.5c4.1,0,6.2,2.2,6.2,6.6v3.8c0,4.4-2.1,6.6-6.2,6.6h-1.2c-4.1,0-6.2-2.2-6.2-6.6v-3.8c0-4.4,2.1-6.6,6.2-6.6h1.2ZM145.8,37.4v-8.8c0-.3-.1-.5-.3-.7-.2-.2-.4-.3-.7-.3h-1.5c-.3,0-.5.1-.7.3-.2.2-.2.4-.2.7v8.8c0,.3,0,.5.2.7.2.2.4.3.7.3h1.5c.3,0,.5-.1.7-.3.2-.2.3-.4.3-.7Z"/>
      <g>
        <polygon class="cls-2" points="70 129.6 50.5 110.2 42.1 118.6 38.5 137 50.5 149 70 129.6"/>
        <polygon class="cls-2" points="51.9 68.5 70 50.4 57.8 38.2 51.9 68.5"/>
        <polygon class="cls-2" points="70 90 51.3 71.3 45 103.9 50.5 109.4 70 90"/>
        <polygon class="cls-2" points="50.2 149.4 38.4 137.6 32.7 166.8 50.2 149.4"/>
        <polygon class="cls-2" points="74.5 125.1 79.8 99.8 70.3 90.4 50.9 109.8 70.3 129.2 74.5 125.1"/>
        <polygon class="cls-2" points="86.7 66.4 93.4 34.2 90.1 31 70.7 50.4 86.7 66.4"/>
        <polygon class="cls-2" points="70.7 10.8 90.1 30.2 95.2 25.2 98.8 7.8 73.7 7.8 70.7 10.8"/>
        <polygon class="cls-2" points="66.2 165.4 50.5 149.7 32.6 167.7 32.1 170.2 37.9 176 63.2 176 64.2 175 66.2 165.4"/>
        <polygon class="cls-2" points="93.5 33.6 95 26.1 90.5 30.6 93.5 33.6"/>
        <polygon class="cls-2" points="84.7 76 70.7 90 79.9 99.2 84.7 76"/>
        <polygon class="cls-2" points="44.9 104.5 42.3 117.7 50.2 109.8 44.9 104.5"/>
        <polygon class="cls-2" points="51.7 69.4 51.4 70.7 70.3 89.6 84.9 75.1 86.6 67 70.3 50.8 51.7 69.4"/>
        <polygon class="cls-2" points="13 35.6 15.6 35.6 13 33 13 35.6"/>
        <polygon class="cls-2" points="30.7 10.4 33.4 7.8 28.1 7.8 30.7 10.4"/>
        <polygon class="cls-2" points="13 32.3 16.3 35.6 45.2 35.6 50.2 30.6 30.7 11.2 13 28.9 13 32.3"/>
        <polygon class="cls-2" points="63.9 176 64 176 64 175.9 63.9 176"/>
        <polygon class="cls-2" points="50.5 30.2 70 10.8 67 7.8 34.1 7.8 31.1 10.8 50.5 30.2"/>
        <polygon class="cls-2" points="13 28.2 30.4 10.8 27.4 7.8 13 7.8 13 28.2"/>
        <polygon class="cls-2" points="32 170.8 31 176 37.2 176 32 170.8"/>
        <polygon class="cls-2" points="70.7 129.6 73.1 132 74.4 125.9 70.7 129.6"/>
        <polygon class="cls-2" points="55.9 35.6 58.3 35.6 57.9 37.6 70.3 50 89.8 30.6 70.3 11.2 50.9 30.6 55.9 35.6"/>
        <polygon class="cls-2" points="45.9 35.6 55.2 35.6 50.5 31 45.9 35.6"/>
        <polygon class="cls-2" points="70.3 10.4 73 7.8 67.7 7.8 70.3 10.4"/>
        <polygon class="cls-2" points="70.3 130 50.9 149.4 66.3 164.8 73 132.6 70.3 130"/>
      </g>
    </g>
  </g>
</svg>