<?xml version="1.0" encoding="UTF-8"?>
<svg xmlns="http://www.w3.org/2000/svg" version="1.1" viewBox="0 0 159 180">
  <defs>
    <style>
      .cls-1 {
        fill: none;
      }

      .cls-2 {
        fill: #c59f7b;
      }
    </style>
  </defs>
  <!-- Generator: Adobe Illustrator 28.7.1, SVG Export Plug-In . SVG Version: 1.2.0 Build 142)  -->
  <g>
    <g id="Layer_1">
      <rect class="cls-1" x=".5" width="158" height="180"/>
      <path class="cls-2" d="M146.4,8.6h5l-19.6,32.4h-5l19.6-32.4ZM129.1,25.1h-1.2c-4.1,0-6.2-2.2-6.2-6.6v-3.8c0-4.4,2.1-6.6,6.2-6.6h1.2c4.1,0,6.2,2.2,6.2,6.6v3.8c0,4.4-2.1,6.6-6.2,6.6ZM126.8,21c0,.3,0,.5.2.7.2.2.4.3.7.3h1.6c.3,0,.5-.1.6-.3.2-.2.3-.4.3-.7v-8.8c0-.3-.1-.5-.3-.7-.2-.2-.4-.3-.6-.3h-1.6c-.3,0-.5.1-.7.3-.2.2-.2.4-.2.7v8.8ZM150.1,24.5c4.1,0,6.2,2.2,6.2,6.6v3.8c0,4.4-2.1,6.6-6.2,6.6h-1.2c-4.1,0-6.2-2.2-6.2-6.6v-3.8c0-4.4,2.1-6.6,6.2-6.6h1.2ZM151.3,37.4v-8.8c0-.3-.1-.5-.3-.7-.2-.2-.4-.3-.7-.3h-1.5c-.3,0-.5.1-.7.3-.2.2-.2.4-.2.7v8.8c0,.3,0,.5.2.7.2.2.4.3.7.3h1.5c.3,0,.5-.1.7-.3.2-.2.3-.4.3-.7Z"/>
      <g>
        <polygon class="cls-2" points="52.2 108.1 52.2 71.9 34.1 90 52.2 108.1"/>
        <polygon class="cls-2" points="64.1 120.7 64.1 138.5 73 129.6 64.1 120.7"/>
        <polygon class="cls-2" points="52.2 111.5 34.1 129.6 52.2 147.7 52.2 111.5"/>
        <polygon class="cls-2" points="73 50.4 64.1 41.5 64.1 59.3 73 50.4"/>
        <polygon class="cls-2" points="99.5 103.1 99.5 76.9 93.1 70.6 73.7 90 93.1 109.4 99.5 103.1"/>
        <polygon class="cls-2" points="73.3 10.4 75.8 8 70.9 8 73.3 10.4"/>
        <polygon class="cls-2" points="92.8 109.8 73.3 90.4 64.1 99.6 64.1 120 73.3 129.2 92.8 109.8"/>
        <polygon class="cls-2" points="64.1 20.4 64.1 40.8 73.3 50 92.8 30.6 73.3 11.2 64.1 20.4"/>
        <polygon class="cls-2" points="52.2 110.8 52.2 108.8 33.7 90.4 16.8 107.3 16.8 112.3 33.7 129.2 52.2 110.8"/>
        <polygon class="cls-2" points="73.7 10.8 93.1 30.2 99.5 23.9 99.5 8 76.5 8 73.7 10.8"/>
        <polygon class="cls-2" points="64.1 19.7 73 10.8 70.2 8 64.1 8 64.1 19.7"/>
        <polygon class="cls-2" points="16.8 113 16.8 146.2 33.4 129.6 16.8 113"/>
        <polygon class="cls-2" points="16.8 73.4 16.8 106.6 33.4 90 16.8 73.4"/>
        <polygon class="cls-2" points="92.8 70.2 73.3 50.8 64.1 60 64.1 80.4 73.3 89.6 92.8 70.2"/>
        <polygon class="cls-2" points="73 90 64.1 81.1 64.1 98.9 73 90"/>
        <polygon class="cls-2" points="73.7 50.4 93.1 69.8 99.5 63.5 99.5 37.3 93.1 31 73.7 50.4"/>
        <polygon class="cls-2" points="99.5 76.2 99.5 64.2 93.5 70.2 99.5 76.2"/>
        <polygon class="cls-2" points="99.5 36.6 99.5 24.6 93.5 30.6 99.5 36.6"/>
        <polygon class="cls-2" points="16.8 33.1 33.7 50 52.2 31.6 52.2 29.6 33.7 11.2 16.8 28.1 16.8 33.1"/>
        <polygon class="cls-2" points="16.8 152.6 16.8 176.3 26.3 176.3 33.4 169.2 16.8 152.6"/>
        <polygon class="cls-2" points="93.5 109.8 99.5 115.8 99.5 103.8 93.5 109.8"/>
        <polygon class="cls-2" points="52.2 68.5 52.2 32.3 34.1 50.4 52.2 68.5"/>
        <polygon class="cls-2" points="33.7 10.4 36.2 8 31.3 8 33.7 10.4"/>
        <polygon class="cls-2" points="93.5 149.4 99.5 155.4 99.5 143.4 93.5 149.4"/>
        <polygon class="cls-2" points="73.3 169.5 66.6 176.3 80.1 176.3 73.3 169.5"/>
        <polygon class="cls-2" points="16.8 27.4 33.4 10.8 30.6 8 16.8 8 16.8 27.4"/>
        <polygon class="cls-2" points="99.5 156.1 93.1 149.7 73.7 169.2 80.8 176.3 99.5 176.3 99.5 156.1"/>
        <polygon class="cls-2" points="52.2 28.9 52.2 8 36.9 8 34.1 10.8 52.2 28.9"/>
        <polygon class="cls-2" points="52.2 150.4 52.2 148.4 33.7 130 16.8 146.9 16.8 151.9 33.7 168.8 52.2 150.4"/>
        <polygon class="cls-2" points="40.5 176.3 33.7 169.5 27 176.3 40.5 176.3"/>
        <polygon class="cls-2" points="99.5 142.7 99.5 116.5 93.1 110.2 73.7 129.6 93.1 149 99.5 142.7"/>
        <polygon class="cls-2" points="16.8 67.7 16.8 72.7 33.7 89.6 52.2 71.2 52.2 69.2 33.7 50.8 16.8 67.7"/>
        <polygon class="cls-2" points="16.8 67 33.4 50.4 16.8 33.8 16.8 67"/>
        <polygon class="cls-2" points="92.8 149.4 73.3 130 64.1 139.2 64.1 159.6 73.3 168.8 92.8 149.4"/>
        <polygon class="cls-2" points="52.2 151.1 34.1 169.2 41.2 176.3 52.2 176.3 52.2 151.1"/>
        <polygon class="cls-2" points="64.1 160.3 64.1 176.3 65.9 176.3 73 169.2 64.1 160.3"/>
      </g>
    </g>
  </g>
</svg>