<svg width="17" height="16" viewBox="0 0 17 16" fill="none" xmlns="http://www.w3.org/2000/svg">
<path d="M8.50002 0C6.32734 0 6.05489 0.00921719 5.2016 0.0481342C4.3501 0.0869798 3.76855 0.222237 3.25968 0.419966C2.73361 0.624411 2.28747 0.897974 1.84273 1.34271C1.39797 1.78744 1.12441 2.23363 0.91999 2.7597C0.722213 3.26855 0.587004 3.8501 0.54811 4.7016C0.509193 5.55489 0.5 5.82734 0.5 8.00002C0.5 10.1727 0.509193 10.4451 0.54811 11.2984C0.587004 12.1499 0.722213 12.7314 0.91999 13.2403C1.12444 13.7664 1.398 14.2125 1.84273 14.6573C2.28749 15.102 2.73361 15.3756 3.25968 15.58C3.76855 15.7778 4.3501 15.913 5.2016 15.9519C6.05489 15.9908 6.32734 16 8.50002 16C10.6727 16 10.9451 15.9908 11.7984 15.9519C12.6499 15.913 13.2314 15.7778 13.7403 15.58C14.2664 15.3756 14.7125 15.102 15.1573 14.6573C15.602 14.2125 15.8756 13.7664 16.08 13.2403C16.2778 12.7314 16.413 12.1499 16.4519 11.2984C16.4908 10.4451 16.5 10.1727 16.5 8.00002C16.5 5.82734 16.4908 5.55489 16.4519 4.7016C16.413 3.8501 16.2778 3.26855 16.08 2.7597C15.8756 2.23363 15.602 1.78744 15.1573 1.34271C14.7125 0.897974 14.2664 0.624411 13.7403 0.419966C13.2314 0.222237 12.6499 0.0869798 11.7984 0.0481342C10.9451 0.00921719 10.6727 0 8.50002 0ZM8.50002 1.44143C10.6361 1.44143 10.8891 1.4496 11.7327 1.48809C12.5127 1.52365 12.9363 1.65397 13.2182 1.76353C13.5916 1.90867 13.8581 2.08201 14.138 2.36196C14.418 2.6419 14.5913 2.90842 14.7365 3.28182C14.846 3.56372 14.9764 3.98733 15.0119 4.76731C15.0504 5.61089 15.0586 5.86392 15.0586 8C15.0586 10.1361 15.0504 10.3891 15.0119 11.2327C14.9764 12.0127 14.846 12.4363 14.7365 12.7182C14.5913 13.0916 14.418 13.3581 14.138 13.638C13.8581 13.918 13.5916 14.0913 13.2182 14.2365C12.9363 14.346 12.5127 14.4764 11.7327 14.5119C10.8893 14.5504 10.6362 14.5586 8.5 14.5586C6.36375 14.5586 6.11079 14.5504 5.26731 14.5119C4.48731 14.4764 4.06372 14.346 3.78184 14.2365C3.40839 14.0913 3.1419 13.918 2.86198 13.638C2.58204 13.3581 2.40867 13.0916 2.26353 12.7182C2.15397 12.4363 2.02367 12.0127 1.98809 11.2327C1.9496 10.3891 1.94143 10.1361 1.94143 8C1.94143 5.86392 1.9496 5.61089 1.98809 4.76731C2.02367 3.98731 2.15397 3.56372 2.26353 3.28184C2.40867 2.90839 2.58204 2.6419 2.86196 2.36198C3.1419 2.08201 3.40842 1.90867 3.78182 1.76353C4.06372 1.65397 4.48733 1.52365 5.26731 1.48809C6.11089 1.4496 6.36392 1.44143 8.5 1.44143" fill="white"/>
<path d="M8.4968 10.6662C7.024 10.6662 5.8301 9.47225 5.8301 7.9995C5.8301 6.5267 7.024 5.3328 8.4968 5.3328C9.96955 5.3328 11.1635 6.5267 11.1635 7.9995C11.1635 9.47225 9.96955 10.6662 8.4968 10.6662ZM8.4968 3.89137C6.22792 3.89137 4.38867 5.73062 4.38867 7.9995C4.38867 10.2683 6.22792 12.1076 8.4968 12.1076C10.7656 12.1076 12.6049 10.2683 12.6049 7.9995C12.6049 5.73062 10.7656 3.89137 8.4968 3.89137ZM13.7272 3.72906C13.7272 4.25927 13.2974 4.68905 12.7672 4.68905C12.237 4.68905 11.8072 4.25927 11.8072 3.72906C11.8072 3.19887 12.237 2.76904 12.7672 2.76904C13.2974 2.76904 13.7272 3.19887 13.7272 3.72906Z" fill="white"/>
</svg>
