<?xml version="1.0" encoding="UTF-8"?>
<svg xmlns="http://www.w3.org/2000/svg" version="1.1" viewBox="0 0 251 180">
  <defs>
    <style>
      .cls-1 {
        fill: none;
      }

      .cls-2 {
        fill: #c59f7b;
      }
    </style>
  </defs>
  <!-- Generator: Adobe Illustrator 28.7.1, SVG Export Plug-In . SVG Version: 1.2.0 Build 142)  -->
  <g>
    <g id="Layer_1">
      <rect class="cls-1" width="251" height="180"/>
      <path class="cls-2" d="M238.9,8.6h5l-19.6,32.4h-5l19.6-32.4ZM221.6,25.1h-1.2c-4.1,0-6.2-2.2-6.2-6.6v-3.8c0-4.4,2.1-6.6,6.2-6.6h1.2c4.1,0,6.2,2.2,6.2,6.6v3.8c0,4.4-2.1,6.6-6.2,6.6ZM219.3,21c0,.3,0,.5.2.7.2.2.4.3.7.3h1.6c.3,0,.5-.1.6-.3.2-.2.3-.4.3-.7v-8.8c0-.3-.1-.5-.3-.7-.2-.2-.4-.3-.6-.3h-1.6c-.3,0-.5.1-.7.3-.2.2-.2.4-.2.7v8.8ZM242.6,24.5c4.1,0,6.2,2.2,6.2,6.6v3.8c0,4.4-2.1,6.6-6.2,6.6h-1.2c-4.1,0-6.2-2.2-6.2-6.6v-3.8c0-4.4,2.1-6.6,6.2-6.6h1.2ZM243.8,37.4v-8.8c0-.3-.1-.5-.3-.7-.2-.2-.4-.3-.7-.3h-1.5c-.3,0-.5.1-.7.3-.2.2-.2.4-.2.7v8.8c0,.3,0,.5.2.7.2.2.4.3.7.3h1.5c.3,0,.5-.1.7-.3.2-.2.3-.4.3-.7Z"/>
      <g>
        <path class="cls-2" d="M101.5,130.5v13.8c0,.9,0,1.8,0,2.7l16.5-16.5h-16.6Z"/>
        <path class="cls-2" d="M102,152.2c1.3,10.2,5.4,17.4,12.3,21.7l4.7-4.7-17-17Z"/>
        <polygon class="cls-2" points="60.3 70.2 79.7 89.6 82.2 87.2 88 59.1 79.7 50.8 60.3 70.2"/>
        <path class="cls-2" d="M117.7,8.8l1.6,1.6,3.7-3.7c-1.9.6-3.7,1.3-5.3,2.1Z"/>
        <path class="cls-2" d="M105,24.8l14-14-1.7-1.7c-6,3.2-10.1,8.5-12.3,15.7Z"/>
        <polygon class="cls-2" points="88.2 58.5 92.4 38.1 80.1 50.4 88.2 58.5"/>
        <path class="cls-2" d="M139.5,30.6l2.9,2.9h15.5c1.4,0,2.5.5,3.4,1.6,1,1,1.6,2.3,1.6,3.6v7.4l15.5-15.5-19.4-19.4-19.4,19.4Z"/>
        <path class="cls-2" d="M162.9,5.2h-9.2l5.3,5.3,5.2-5.2c-.4,0-.9,0-1.3,0Z"/>
        <polygon class="cls-2" points="134 130.5 120.6 130.5 134 143.9 134 130.5"/>
        <path class="cls-2" d="M124,6.5l-4.3,4.3,19.4,19.4,19.4-19.4-5.6-5.6h-17.6c-4.2,0-7.9.4-11.3,1.3Z"/>
        <path class="cls-2" d="M178.4,70.2l-15.5-15.5v16.8c0,1.4-.5,2.6-1.6,3.6-.9,1-2,1.6-3.4,1.6h-12l13,13,19.4-19.4Z"/>
        <polygon class="cls-2" points="145.3 76.7 133 76.7 132.7 77 132.7 103 134.5 104.8 143.8 104.8 158.6 90 145.3 76.7"/>
        <polygon class="cls-2" points="79.4 90 59.9 70.6 49.2 81.3 46.4 95.9 59.9 109.4 79.4 90"/>
        <polygon class="cls-2" points="162.9 46.8 162.9 54 178.7 69.8 195.1 53.5 195.1 47.3 178.7 31 162.9 46.8"/>
        <polygon class="cls-2" points="52.7 63.3 49.4 80.4 59.6 70.2 52.7 63.3"/>
        <polygon class="cls-2" points="59.6 109.8 46.3 96.5 39.9 129 40.1 129.2 59.6 109.8"/>
        <path class="cls-2" d="M179.1,70.2l11.9,11.9c2.7-5.2,4.1-11.9,4.1-20.3v-7.7l-16,16Z"/>
        <path class="cls-2" d="M196.7,127.4v-8.1c0-9-1.7-16.3-5.2-21.9l-12.4,12.4,17.6,17.6Z"/>
        <path class="cls-2" d="M195.1,46.6v-7.1c0-8.4-1.5-15.3-4.4-20.6l-11.7,11.7,16,16Z"/>
        <path class="cls-2" d="M103.3,34.7c-.1,1.6-.2,3.2-.2,4.8v15.9h11l5-5-15.7-15.7Z"/>
        <polygon class="cls-2" points="132.7 104.8 133.8 104.8 132.7 103.7 132.7 104.8"/>
        <polygon class="cls-2" points="81.4 91.3 82 88.1 80.1 90 81.4 91.3"/>
        <path class="cls-2" d="M119.7,50.4l5,5h10.9v-16.6c0-1.4.4-2.6,1.3-3.6,1-1,2.3-1.6,3.6-1.6h1.2l-2.6-2.6-19.4,19.4Z"/>
        <path class="cls-2" d="M104.7,25.8c-.7,2.5-1.2,5.3-1.4,8.2l16,16,19.4-19.4-19.4-19.4-14.6,14.6Z"/>
        <polygon class="cls-2" points="95 25.7 98.7 7.8 83.1 7.8 80.1 10.8 95 25.7"/>
        <polygon class="cls-2" points="119.3 50.8 114.7 55.4 123.9 55.4 119.3 50.8"/>
        <polygon class="cls-2" points="81.2 91.9 79.7 90.4 60.3 109.8 74.6 124.1 81.2 91.9"/>
        <path class="cls-2" d="M140.4,151h-1.5c-.3,0-.7,0-1,0l-18.3,18.3,9.2,9.2c1.6.1,3.2.2,4.9.2h15.4l9.4-9.4-18.2-18.2Z"/>
        <path class="cls-2" d="M164.4,135.4v10.4c0,1.4-.5,2.6-1.6,3.6-.9,1-2,1.6-3.4,1.6h-18.4l17.8,17.8,19.4-19.4-13.9-13.9Z"/>
        <polygon class="cls-2" points="67.7 157.5 59.9 149.7 40.5 169.2 47.3 176 63.8 176 67.7 157.5"/>
        <path class="cls-2" d="M167.9,178.5l-8.9-8.9-9.1,9.1h14.5c1.2,0,2.3,0,3.4-.1Z"/>
        <polygon class="cls-2" points="33.4 162.8 30.8 176 33 176 39.8 169.2 33.4 162.8"/>
        <polygon class="cls-2" points="40.1 169.5 33.7 176 46.6 176 40.1 169.5"/>
        <polygon class="cls-2" points="12.9 22.8 20.3 30.2 39.8 10.8 36.8 7.8 12.9 7.8 12.9 22.8"/>
        <path class="cls-2" d="M192.8,163.9l-14.1-14.1-19.4,19.4,9.3,9.3c11.8-.9,19.9-5.8,24.3-14.6Z"/>
        <polygon class="cls-2" points="15 35.6 20 30.6 12.9 23.5 12.9 35.6 15 35.6"/>
        <path class="cls-2" d="M196.7,131.8l-17.6,17.6,14,14c2.4-5.1,3.6-11.4,3.6-19.1v-12.5Z"/>
        <polygon class="cls-2" points="196.7 131.1 196.7 128.1 178.7 110.2 164.4 124.5 164.4 134.7 178.7 149 196.7 131.1"/>
        <polygon class="cls-2" points="79.7 10.4 82.4 7.8 77.1 7.8 79.7 10.4"/>
        <polygon class="cls-2" points="15.7 35.6 25 35.6 20.3 31 15.7 35.6"/>
        <polygon class="cls-2" points="40.1 10.4 42.8 7.8 37.5 7.8 40.1 10.4"/>
        <polygon class="cls-2" points="20.7 30.6 25.7 35.6 54.6 35.6 59.6 30.6 40.1 11.2 20.7 30.6"/>
        <polygon class="cls-2" points="71.7 138 60.3 149.4 67.8 156.9 71.7 138"/>
        <polygon class="cls-2" points="59.6 149.4 40.1 130 39.7 130.4 33.5 162.2 40.1 168.8 59.6 149.4"/>
        <path class="cls-2" d="M119.3,169.5l-4.6,4.6c3.7,2.2,8.1,3.6,13.4,4.2l-8.8-8.8Z"/>
        <polygon class="cls-2" points="55.3 35.6 58.1 35.6 52.8 62.7 59.9 69.8 79.4 50.4 59.9 31 55.3 35.6"/>
        <polygon class="cls-2" points="79.7 50 92.6 37.2 94.8 26.2 79.7 11.2 60.3 30.6 79.7 50"/>
        <polygon class="cls-2" points="71.9 137.1 74.5 124.7 59.9 110.2 40.5 129.6 59.9 149 71.9 137.1"/>
        <path class="cls-2" d="M178.7,30.2l11.8-11.8c-4.8-8.4-13.3-12.8-25.6-13.3l-5.6,5.6,19.4,19.4Z"/>
        <polygon class="cls-2" points="59.9 30.2 79.4 10.8 76.4 7.8 43.5 7.8 40.5 10.8 59.9 30.2"/>
        <path class="cls-2" d="M178.4,109.8l-19.4-19.4-14.4,14.4h15c1.4,0,2.5.5,3.4,1.6,1,1,1.6,2.3,1.6,3.6v13.8l14-14Z"/>
        <path class="cls-2" d="M191.2,97c-1.8-2.8-4-5.1-6.7-7,2.6-1.9,4.7-4.3,6.3-7.3l-12.1-12.1-19.4,19.4,19.4,19.4,12.5-12.5Z"/>
        <path class="cls-2" d="M135.3,149.5c-.9-1-1.3-2.3-1.3-3.6v-1.2l-14.1-14.1h-1.1l-17.2,17.2c0,1.3.2,2.5.3,3.7l17.4,17.4,18.1-18.1c-.8-.2-1.5-.7-2.1-1.3Z"/>
      </g>
    </g>
  </g>
</svg>