<?xml version="1.0" encoding="UTF-8"?>
<svg xmlns="http://www.w3.org/2000/svg" version="1.1" viewBox="0 0 263 180">
  <defs>
    <style>
      .cls-1 {
        fill: none;
      }

      .cls-2 {
        fill: #c59f7b;
      }
    </style>
  </defs>
  <!-- Generator: Adobe Illustrator 28.7.1, SVG Export Plug-In . SVG Version: 1.2.0 Build 142)  -->
  <g>
    <g id="Layer_1">
      <rect class="cls-1" width="263" height="180"/>
      <path class="cls-2" d="M250.9,8.6h5l-19.6,32.4h-5l19.6-32.4ZM233.6,25.1h-1.2c-4.1,0-6.2-2.2-6.2-6.6v-3.8c0-4.4,2.1-6.6,6.2-6.6h1.2c4.1,0,6.2,2.2,6.2,6.6v3.8c0,4.4-2.1,6.6-6.2,6.6ZM231.3,21c0,.3,0,.5.2.7.2.2.4.3.7.3h1.6c.3,0,.5-.1.6-.3.2-.2.3-.4.3-.7v-8.8c0-.3-.1-.5-.3-.7-.2-.2-.4-.3-.6-.3h-1.6c-.3,0-.5.1-.7.3-.2.2-.2.4-.2.7v8.8ZM254.6,24.5c4.1,0,6.2,2.2,6.2,6.6v3.8c0,4.4-2.1,6.6-6.2,6.6h-1.2c-4.1,0-6.2-2.2-6.2-6.6v-3.8c0-4.4,2.1-6.6,6.2-6.6h1.2ZM255.8,37.4v-8.8c0-.3-.1-.5-.3-.7-.2-.2-.4-.3-.7-.3h-1.5c-.3,0-.5.1-.7.3-.2.2-.2.4-.2.7v8.8c0,.3,0,.5.2.7.2.2.4.3.7.3h1.5c.3,0,.5-.1.7-.3.2-.2.3-.4.3-.7Z"/>
      <g>
        <path class="cls-2" d="M73.6,67.9v3.6c0,1.4-.5,2.6-1.6,3.6-.9,1-2,1.6-3.4,1.6h-3.8l-8.8,8.8,19.4,19.4,19.4-19.4-19.4-19.4-1.9,1.9Z"/>
        <path class="cls-2" d="M113.2,63.4l1.9,1.9,19.4-19.4-19.4-19.4-.6.6c-.9,3.7-1.3,7.8-1.3,12.5v23.9Z"/>
        <path class="cls-2" d="M75.8,65.7l19.4,19.4,8.8-8.8c1.2-4.1,1.8-9,1.8-14.5v-5l-10.6-10.6-19.4,19.4Z"/>
        <path class="cls-2" d="M105.8,56.1v-16.6c0-1.3,0-2.5-.1-3.7l-10.1,10.1,10.2,10.2Z"/>
        <polygon class="cls-2" points="114.7 26.1 114.7 26.1 114.7 26.1 114.7 26.1"/>
        <polygon class="cls-2" points="174.5 46.3 172.4 48.3 172.4 52 180.2 52 174.5 46.3"/>
        <path class="cls-2" d="M115.1,25.7l19.4-19.4c-10.2,2.5-16.7,8.9-19.5,19.2l.2.2Z"/>
        <path class="cls-2" d="M155,26.1l7.4,7.4h5.1c1.4,0,2.5.5,3.4,1.6,1,1,1.6,2.3,1.6,3.6v4.8l2,2,19.4-19.4-19.4-19.4-19.4,19.4Z"/>
        <path class="cls-2" d="M113.2,143.3v.9c0,.7,0,1.4,0,2.1l1.5-1.5-1.6-1.6Z"/>
        <path class="cls-2" d="M106.8,152.8c.4-2.6.6-5.5.6-8.5v-6.7l-12.1-12.1-19.4,19.4,19.4,19.4,11.6-11.6Z"/>
        <path class="cls-2" d="M99.8,169.5l-4.5-4.5-13.1,13.1c7.6-1.1,13.4-3.9,17.6-8.6Z"/>
        <path class="cls-2" d="M55.7,85.8l-12.2,12.2v6.7h26.8c1.4,0,2.5.5,3.4,1.6,0,0,.1.2.2.3l1.3-1.3-19.4-19.4Z"/>
        <path class="cls-2" d="M75.5,144.5l19.4-19.4-19.4-19.4-1.3,1.3c.7.9,1,1.9,1,3v34.3l.3.3Z"/>
        <polygon class="cls-2" points="73.6 67.2 75.1 65.7 73.6 64.2 73.6 67.2"/>
        <polygon class="cls-2" points="55.7 85.1 64.1 76.7 47.2 76.7 55.7 85.1"/>
        <polygon class="cls-2" points="43.4 97.4 55.3 85.5 46.5 76.7 43.4 76.7 43.4 97.4"/>
        <path class="cls-2" d="M135.2,45.9l10.4,10.4v-17.6c0-1.4.4-2.6,1.3-3.6,1-1,2.3-1.6,3.6-1.6h11.1l-7.1-7.1-19.4,19.4Z"/>
        <path class="cls-2" d="M135.3,6.2h-.1c0,.1,19.4,19.6,19.4,19.6l19.4-19.4-1.1-1.1h-27.6c-3.7,0-7,.3-10.1,1Z"/>
        <path class="cls-2" d="M75.5,145.2l-.3.3v.3c0,1.4-.5,2.6-1.6,3.6-.9,1-2,1.6-3.4,1.6h-.5l-13.7,13.7,13.9,13.9h5.2c2.2,0,4.2-.1,6.2-.4l13.5-13.5-19.4-19.4Z"/>
        <path class="cls-2" d="M174.8,45.9l6.1,6.1h24.8v-12.5c0-.5,0-1.1,0-1.6l-11.4-11.4-19.4,19.4Z"/>
        <path class="cls-2" d="M107.4,136.9v-17.6c0-2,0-3.9-.3-5.7l-11.5,11.5,11.8,11.8Z"/>
        <path class="cls-2" d="M35.9,145.2l-19.4,19.4c0,0,0,.2.1.2l9.8,9.8c4.1,2.2,9.1,3.5,15,3.8l13.8-13.8-19.4-19.4Z"/>
        <path class="cls-2" d="M22.9,12.7l13,13L55.3,6.3l-1.1-1.1h-8.2c-10.1,0-17.8,2.5-23.2,7.6Z"/>
        <path class="cls-2" d="M95.2,89.9c.8-.6,1.5-1.2,2.3-1.9l-2.2-2.2-19.4,19.4,19.4,19.4,11.8-11.8c-1.1-10.5-5.1-18.2-11.9-23Z"/>
        <path class="cls-2" d="M208.3,119v-10.6c0-5.6-.7-10.6-2-14.8l-11.7,11.7,13.7,13.7Z"/>
        <polygon class="cls-2" points="145.7 74.3 145.7 57 134.9 46.3 115.4 65.7 134.9 85.1 145.7 74.3"/>
        <path class="cls-2" d="M95.6,164.7l4.5,4.5c3.4-3.9,5.6-9.1,6.6-15.5l-11.1,11.1Z"/>
        <polygon class="cls-2" points="172.4 44.2 172.4 47.6 174.1 45.9 172.4 44.2"/>
        <path class="cls-2" d="M95.6,85.5l2.2,2.2c2.6-2.7,4.6-6.1,6-10.3l-8.1,8.1Z"/>
        <rect class="cls-2" x="121.1" y="12.3" width="27.5" height="27.5" transform="translate(21 103) rotate(-45)"/>
        <polygon class="cls-2" points="113.2 67.2 114.7 65.7 113.2 64.1 113.2 67.2"/>
        <polygon class="cls-2" points="113.2 103.7 113.2 106.8 114.7 105.3 113.2 103.7"/>
        <polygon class="cls-2" points="134.5 85.5 115.1 66 113.2 68 113.2 103 115.1 104.9 134.5 85.5"/>
        <path class="cls-2" d="M68.4,33.5h.3c1.4,0,2.5.5,3.4,1.6,1,1,1.6,2.3,1.6,3.6v24.8l1.9,1.9,19.4-19.4-19.4-19.4-7.1,7.1Z"/>
        <path class="cls-2" d="M69.2,178.6l-13.6-13.6-13.5,13.5c.8,0,1.5,0,2.3,0h24.7Z"/>
        <polygon class="cls-2" points="13.8 48.5 13.8 55.4 25.2 55.4 16.1 46.3 13.8 48.5"/>
        <path class="cls-2" d="M24.7,173.7l-7.1-7.1c1.9,2.9,4.2,5.3,7.1,7.1Z"/>
        <polygon class="cls-2" points="156 146.6 153.3 146.6 135.2 164.7 149.1 178.6 160.2 178.6 174.1 164.7 156 146.6"/>
        <path class="cls-2" d="M186.9,177.4l-12.4-12.4-13.6,13.6h15.2c4,0,7.5-.4,10.8-1.2Z"/>
        <path class="cls-2" d="M75.5,25.7l16.5-16.5c-4.9-2.7-11-4.1-18.4-4.1h-16.5l-1.1,1.1,19.4,19.4Z"/>
        <path class="cls-2" d="M36.2,26.1l10.5,10.5c.2-.5.5-1,.9-1.5,1-1,2.3-1.6,3.6-1.6h16.5l7.4-7.4L55.7,6.7l-19.4,19.4Z"/>
        <path class="cls-2" d="M16.4,45.9l9.5,9.5h20l.4-.4v-16.2c0-.6,0-1.1.2-1.6l-10.7-10.7-19.4,19.4Z"/>
        <path class="cls-2" d="M208.3,131.2l-13.7,13.7,12.3,12.3c.9-3.8,1.4-8.1,1.4-12.9v-13.1Z"/>
        <path class="cls-2" d="M206.8,157.7l-12.5-12.5-19.4,19.4,12.6,12.6c10.1-2.6,16.6-9.1,19.3-19.6Z"/>
        <path class="cls-2" d="M206.2,93c-3.2-10-10.2-16-20.8-18.1l-10.6,10.6,19.4,19.4,11.9-11.9Z"/>
        <path class="cls-2" d="M176.1,127.1v14.4c0,1.4-.5,2.6-1.6,3.6-.9,1-2,1.6-3.4,1.6h-14.4l17.7,17.7,19.4-19.4-17.8-17.8Z"/>
        <polygon class="cls-2" points="15.7 45.9 13.8 44 13.8 47.8 15.7 45.9"/>
        <polygon class="cls-2" points="208.3 130.5 208.3 119.7 194.3 105.6 176.1 123.8 176.1 126.4 194.3 144.5 208.3 130.5"/>
        <path class="cls-2" d="M13.8,43.3l2.3,2.3,19.4-19.4-13-13c-5.8,5.7-8.7,14.5-8.7,26.4v3.8Z"/>
        <polygon class="cls-2" points="55.7 5.9 56.4 5.2 54.9 5.2 55.7 5.9"/>
        <path class="cls-2" d="M95.3,45.5l10.4-10.4c-.8-12.4-5.3-20.9-13.3-25.6l-16.6,16.6,19.4,19.4Z"/>
        <path class="cls-2" d="M162.7,74.1c-6.8,0-12.4,1.2-17,3.4v-2.4l-10.4,10.4,19.4,19.4,19.4-19.4-11.4-11.4Z"/>
        <path class="cls-2" d="M184.8,74.8c-2.7-.5-5.6-.7-8.7-.7h-12.7l11.1,11.1,10.3-10.3Z"/>
        <polygon class="cls-2" points="154.3 106.1 155.1 106.1 154.7 105.6 154.3 106.1"/>
        <path class="cls-2" d="M194.6,26.1l11.1,11.1c-.2-7.2-1.6-13.2-4.2-18l-6.9,6.9Z"/>
        <path class="cls-2" d="M145.7,113.9v-2.7c0-1.4.4-2.6,1.3-3.6,1-1,2.3-1.6,3.6-1.6h2.9l.8-.8-19.4-19.4-19.4,19.4,19.4,19.4,10.8-10.8Z"/>
        <polygon class="cls-2" points="145.7 114.7 135.2 125.1 145.7 135.5 145.7 114.7"/>
        <polygon class="cls-2" points="115.1 105.6 113.2 107.6 113.2 142.6 115.1 144.5 134.5 125.1 115.1 105.6"/>
        <path class="cls-2" d="M175.9,5.2l-1.1,1.1,19.4,19.4,7-7c-4.7-8.5-13.2-13-25.4-13.5Z"/>
        <path class="cls-2" d="M115.1,145.2l-1.8,1.8c.5,12.7,4.6,21.5,12.3,26.6l9-9-19.4-19.4Z"/>
        <path class="cls-2" d="M69,151h-19.3c-1.4,0-2.6-.5-3.6-1.6-.9-1-1.3-2.3-1.3-3.6v-9.5l-8.5,8.5,19.4,19.4,13.3-13.3Z"/>
        <path class="cls-2" d="M174.5,5.9l.7-.7c-.5,0-1,0-1.5,0l.8.8Z"/>
        <path class="cls-2" d="M150.6,146.6c-1.4,0-2.6-.5-3.6-1.6-.9-1-1.3-2.3-1.3-3.6v-5.2l-10.8-10.8-19.4,19.4,19.4,19.4,17.7-17.7h-2Z"/>
        <path class="cls-2" d="M148.4,178.6l-13.6-13.6-8.9,8.9c5,3.1,11.5,4.7,19.4,4.7h3Z"/>
        <polygon class="cls-2" points="44.7 135.7 44.7 130.5 21.8 130.5 35.9 144.5 44.7 135.7"/>
        <path class="cls-2" d="M193.9,105.3l-19.4-19.4-19.4,19.4.8.8h15.4c1.4,0,2.5.5,3.4,1.6,1,1,1.6,2.3,1.6,3.6v11.9l17.8-17.8Z"/>
        <path class="cls-2" d="M35.5,144.9l-14.4-14.4h-8.9v13.8c0,8,1.3,14.7,4,19.9l19.3-19.3Z"/>
      </g>
    </g>
  </g>
</svg>