<svg width="8" height="12" viewBox="0 0 8 12" fill="none" xmlns="http://www.w3.org/2000/svg">
<path d="M7.21143 6.00684C7.21143 6.15072 7.18376 6.28353 7.12842 6.40527C7.07308 6.52702 6.9873 6.646 6.87109 6.76221L1.89893 11.6846C1.71631 11.8672 1.49495 11.9585 1.23486 11.9585C0.963704 11.9585 0.734049 11.8672 0.545898 11.6846C0.357747 11.4964 0.263672 11.2695 0.263672 11.0039C0.263672 10.7383 0.366048 10.5031 0.570801 10.2983L4.92871 6.00684L0.570801 1.71533C0.366048 1.51058 0.263672 1.27539 0.263672 1.00977C0.263672 0.744141 0.357747 0.52002 0.545898 0.337402C0.734049 0.149251 0.963704 0.0551758 1.23486 0.0551758C1.49495 0.0551758 1.71631 0.146484 1.89893 0.329102L6.87109 5.25146C7.09798 5.46729 7.21143 5.71908 7.21143 6.00684Z" fill="#BFBFBF"/>
</svg>
