<?xml version="1.0" encoding="UTF-8"?>
<svg xmlns="http://www.w3.org/2000/svg" version="1.1" viewBox="0 0 263 180">
  <defs>
    <style>
      .cls-1 {
        fill: none;
      }

      .cls-2 {
        fill: #c59f7b;
      }
    </style>
  </defs>
  <!-- Generator: Adobe Illustrator 28.7.1, SVG Export Plug-In . SVG Version: 1.2.0 Build 142)  -->
  <g>
    <g id="Layer_1">
      <rect class="cls-1" width="263" height="180"/>
      <path class="cls-2" d="M250.9,8.6h5l-19.6,32.4h-5l19.6-32.4ZM233.6,25.1h-1.2c-4.1,0-6.2-2.2-6.2-6.6v-3.8c0-4.4,2.1-6.6,6.2-6.6h1.2c4.1,0,6.2,2.2,6.2,6.6v3.8c0,4.4-2.1,6.6-6.2,6.6ZM231.3,21c0,.3,0,.5.2.7.2.2.4.3.7.3h1.6c.3,0,.5-.1.6-.3.2-.2.3-.4.3-.7v-8.8c0-.3-.1-.5-.3-.7-.2-.2-.4-.3-.6-.3h-1.6c-.3,0-.5.1-.7.3-.2.2-.2.4-.2.7v8.8ZM254.6,24.5c4.1,0,6.2,2.2,6.2,6.6v3.8c0,4.4-2.1,6.6-6.2,6.6h-1.2c-4.1,0-6.2-2.2-6.2-6.6v-3.8c0-4.4,2.1-6.6,6.2-6.6h1.2ZM255.8,37.4v-8.8c0-.3-.1-.5-.3-.7-.2-.2-.4-.3-.7-.3h-1.5c-.3,0-.5.1-.7.3-.2.2-.2.4-.2.7v8.8c0,.3,0,.5.2.7.2.2.4.3.7.3h1.5c.3,0,.5-.1.7-.3.2-.2.3-.4.3-.7Z"/>
      <g>
        <path class="cls-2" d="M184.4,30.6l-19.4-19.4-19.4,19.4,3.9,3.9c.9-.6,1.9-1,3-1h17.4c1.4,0,2.5.5,3.4,1.6,1,1,1.6,2.3,1.6,3.6v1.6l9.7-9.7Z"/>
        <polygon class="cls-2" points="47.3 128.8 46.5 129.6 47.3 130.4 47.3 128.8"/>
        <path class="cls-2" d="M62.6,106.1h6.8l16.1-16.1-15.9-15.9h-4.7c-.8,0-1.6,0-2.4,0l-15.9,15.9,16.1,16.1Z"/>
        <path class="cls-2" d="M26.7,109.8l19.4,19.4,1.2-1.2v-16.8c0-1.4.4-2.6,1.3-3.6,1-1,2.3-1.6,3.6-1.6h9.6l-15.7-15.7-19.4,19.4Z"/>
        <path class="cls-2" d="M106.9,31.6c0-.6-.2-1.2-.3-1.8l-.8.8,1,1Z"/>
        <path class="cls-2" d="M147.2,5.2c-8.9,0-16,2-21.2,5.9l19.2,19.2,19.4-19.4-5.6-5.6h-11.8Z"/>
        <polygon class="cls-2" points="84.5 52 87 52 85.7 50.8 84.5 52"/>
        <path class="cls-2" d="M86.1,50.4l1.6,1.6h19.7v-12.5c0-2.5-.1-4.9-.4-7.1l-1.5-1.5-19.4,19.4Z"/>
        <polygon class="cls-2" points="68.4 146.6 63.5 146.6 65.9 149 68.4 146.6"/>
        <polygon class="cls-2" points="113.4 130.5 113.4 141.2 124.1 130.5 113.4 130.5"/>
        <polygon class="cls-2" points="151.3 76.7 144.6 76.7 144.6 104.8 149.8 104.8 164.6 90 151.3 76.7"/>
        <path class="cls-2" d="M184.4,70.2l-9.7-9.7v11c0,1.4-.5,2.6-1.6,3.6-.9,1-2,1.6-3.4,1.6h-17.8l13,13,19.4-19.4Z"/>
        <path class="cls-2" d="M77.8,178.6c5.6,0,10.5-.8,14.7-2.4l-6.7-6.7-9.1,9.1h1.1Z"/>
        <path class="cls-2" d="M105.2,149.4l-19.4-19.4-8,8v3.5c0,1.4-.5,2.6-1.6,3.6-.9,1-2,1.6-3.4,1.6h-3.7l-2.8,2.8,19.4,19.4,19.4-19.4Z"/>
        <path class="cls-2" d="M105.9,149.4l3.5,3.5c.3-2.4.5-4.9.6-7.6l-4.1,4.1Z"/>
        <path class="cls-2" d="M110,114.6l-4.5-4.5-19.4,19.4,19.4,19.4,4.5-4.5c0-.1,0-.2,0-.3v-29.7Z"/>
        <path class="cls-2" d="M125.7,50.4l5,5h16.8v-16.6c0-1.4.4-2.6,1.3-3.6,0,0,.2-.2.3-.3l-3.9-3.9-19.4,19.4Z"/>
        <path class="cls-2" d="M184.7,30.2l15.2-15.2c-5.3-6.5-13.8-9.8-25.3-9.8h-3.8l-5.6,5.6,19.4,19.4Z"/>
        <path class="cls-2" d="M115.5,159.7c1.6,4.8,4,8.7,7.3,11.7l2.2-2.2-9.5-9.5Z"/>
        <path class="cls-2" d="M185.1,30.6l19.4,19.4,2.4-2.4v-8.1c0-10.4-2.2-18.4-6.7-24.1l-15.2,15.2Z"/>
        <path class="cls-2" d="M105.2,109.8l-19.4-19.4-15.7,15.7h2.8c1.4,0,2.5.5,3.4,1.6,1,1,1.6,2.3,1.6,3.6v10l8,8,19.4-19.4Z"/>
        <polygon class="cls-2" points="74.1 39.1 74.1 52 83.8 52 85.4 50.4 74.1 39.1"/>
        <path class="cls-2" d="M14.8,138.2v6c0,5.5.6,10.3,1.8,14.4l9.3-9.3-11.2-11.2Z"/>
        <path class="cls-2" d="M26,30.6l-8.3-8.3c-1.9,4.8-2.8,10.5-2.8,17.2v2.3l11.2-11.2Z"/>
        <polygon class="cls-2" points="65.9 149.7 46.5 169.2 55.9 178.6 76 178.6 85.4 169.2 65.9 149.7"/>
        <path class="cls-2" d="M114.9,39.5h0c0,.1,10.4,10.5,10.4,10.5l19.4-19.4-19.2-19.2c-7.1,5.6-10.7,15-10.7,28.1Z"/>
        <path class="cls-2" d="M110,108.4c0-.9,0-1.8,0-2.7l-4,4,4.1,4.1v-5.5Z"/>
        <path class="cls-2" d="M109.9,105.1c-.6-12.6-4.8-21.3-12.6-26.2l-11.2,11.2,19.4,19.4,4.4-4.4Z"/>
        <polygon class="cls-2" points="204.2 50.4 184.7 31 174.7 41 174.7 59.8 184.7 69.8 204.2 50.4"/>
        <polygon class="cls-2" points="85.4 129.6 77.8 122 77.8 137.2 85.4 129.6"/>
        <polygon class="cls-2" points="125.3 50.8 120.7 55.4 129.9 55.4 125.3 50.8"/>
        <path class="cls-2" d="M96.8,78.6c-5-3-11.3-4.5-19.1-4.5h-7.6l15.6,15.6,11.1-11.1Z"/>
        <polygon class="cls-2" points="114.9 40.3 114.9 55.4 120 55.4 125 50.4 114.9 40.3"/>
        <path class="cls-2" d="M86.1,169.2l6.8,6.8c9.1-3.6,14.6-11.1,16.4-22.5l-3.8-3.8-19.4,19.4Z"/>
        <polygon class="cls-2" points="26 70.2 14.8 59 14.8 81.4 26 70.2"/>
        <path class="cls-2" d="M26.3,149.7l-9.5,9.5c3.1,10.1,10,16.2,20.5,18.4l8.5-8.5-19.4-19.4Z"/>
        <path class="cls-2" d="M55.2,178.6l-9.1-9.1-8.2,8.2c2.8.5,5.9.8,9.2.8h8.1Z"/>
        <path class="cls-2" d="M145.1,149.7l-19.4,19.4,7.9,7.9c3.5,1,7.5,1.5,12,1.5h9.6l9.4-9.4-19.4-19.4Z"/>
        <polygon class="cls-2" points="14.8 42.5 14.8 58.3 26.3 69.8 45.8 50.4 26.3 31 14.8 42.5"/>
        <path class="cls-2" d="M65.9,30.2l19.4-19.4-5.4-5.4c-1.5-.1-3.1-.2-4.8-.2h-23l-5.6,5.6,19.4,19.4Z"/>
        <polygon class="cls-2" points="164.9 169.5 155.9 178.6 174 178.6 164.9 169.5"/>
        <path class="cls-2" d="M26.7,30.6l19.4,19.4,1.2-1.2v-10.1c0-1.4.4-2.6,1.3-3.6,1-1,2.3-1.6,3.6-1.6h10.4l2.9-2.9-19.4-19.4-19.4,19.4Z"/>
        <path class="cls-2" d="M202.5,167.5l-17.8-17.8-19.4,19.4,9.4,9.4h1.6c12.2,0,21-3.7,26.2-11.1Z"/>
        <path class="cls-2" d="M208.5,133.9l-4-4-19.4,19.4,17.7,17.7c3.8-5.6,5.7-13.2,5.7-22.8v-10.4Z"/>
        <path class="cls-2" d="M200.5,93.7c-1.3-1.4-2.7-2.6-4.2-3.7,1.5-1.1,2.8-2.4,4-3.8l-15.6-15.6-19.4,19.4,19.4,19.4,15.8-15.8Z"/>
        <path class="cls-2" d="M17.9,21.8l8.5,8.5,19.4-19.4-5.2-5.2c-11.3,1.4-18.9,6.8-22.7,16.2Z"/>
        <polygon class="cls-2" points="204.9 129.6 208.5 133.2 208.5 126 204.9 129.6"/>
        <path class="cls-2" d="M208.5,125.3v-5.9c0-11-2.6-19.4-7.7-25.3l-15.7,15.7,19.4,19.4,4-4Z"/>
        <polygon class="cls-2" points="204.2 129.6 184.7 110.2 176.3 118.6 176.3 140.6 184.7 149 204.2 129.6"/>
        <path class="cls-2" d="M46.1,10.4l5.3-5.3h-4.3c-2.1,0-4,.1-5.9.3l5,5Z"/>
        <path class="cls-2" d="M176.3,141.3v4.6c0,1.4-.5,2.6-1.6,3.6-.9,1-2,1.6-3.4,1.6h-20.5c-1.4,0-2.6-.5-3.6-1.6-.3-.3-.5-.7-.7-1.1l-1,1,19.4,19.4,19.4-19.4-8.1-8.1Z"/>
        <path class="cls-2" d="M146.2,147.9c-.3-.6-.4-1.3-.4-2.1v-15.3h-19.3l18.5,18.5,1.1-1.1Z"/>
        <path class="cls-2" d="M69.2,33.5c1.4,0,2.5.5,3.3,1.6,1,1,1.5,2.1,1.5,3.3l11.7,11.7,19.4-19.4-19.4-19.4-19.4,19.4,2.9,2.9Z"/>
        <polygon class="cls-2" points="63.4 33.5 68.5 33.5 65.9 31 63.4 33.5"/>
        <path class="cls-2" d="M26.7,70.2l19.4,19.4,15.5-15.5c-5.6.3-10.3,1.4-14.3,3.3v-25.5l-1.2-1.2-19.4,19.4Z"/>
        <path class="cls-2" d="M85.7,10.4l3.2-3.2c-2.5-.9-5.2-1.4-8.2-1.8l5,5Z"/>
        <polygon class="cls-2" points="47.3 51.2 47.3 49.6 46.5 50.4 47.3 51.2"/>
        <polygon class="cls-2" points="204.9 50.4 207 52.5 207 48.3 204.9 50.4"/>
        <path class="cls-2" d="M105.5,30.2l1-1c-2-11.2-7.7-18.4-17.1-21.8l-3.4,3.4,19.4,19.4Z"/>
        <polygon class="cls-2" points="164.9 10.4 170.2 5.2 159.7 5.2 164.9 10.4"/>
        <path class="cls-2" d="M125.3,169.5l-2.2,2.2c2.6,2.3,5.8,4,9.4,5.1l-7.3-7.3Z"/>
        <path class="cls-2" d="M125.9,130.5h-1.1l-11.4,11.4v2.3c0,5.5.6,10.3,1.8,14.4l10.1,10.1,19.4-19.4-18.9-18.9Z"/>
        <polygon class="cls-2" points="14.8 82.1 14.8 97.9 26.3 109.4 45.8 90 26.3 70.6 14.8 82.1"/>
        <path class="cls-2" d="M184.4,109.8l-19.4-19.4-14.4,14.4h20.8c1.4,0,2.5.5,3.4,1.6,1,1,1.6,2.3,1.6,3.6v7.9l8.1-8.1Z"/>
        <path class="cls-2" d="M207,61.9v-8.7l-2.4-2.4-19.4,19.4,15.5,15.5c4.2-5.5,6.4-13.4,6.4-23.8Z"/>
        <polygon class="cls-2" points="14.8 98.6 14.8 120.9 26 109.8 14.8 98.6"/>
        <path class="cls-2" d="M65.6,149.4l-2.8-2.8h-10.5c-1.4,0-2.6-.5-3.6-1.6-.9-1-1.3-2.3-1.3-3.6v-10.3l-1.2-1.2-19.4,19.4,19.4,19.4,19.4-19.4Z"/>
        <polygon class="cls-2" points="45.8 129.6 26.3 110.2 14.8 121.7 14.8 137.5 26.3 149 45.8 129.6"/>
      </g>
    </g>
  </g>
</svg>