<?xml version="1.0" encoding="UTF-8"?>
<svg id="Layer_2" xmlns="http://www.w3.org/2000/svg" viewBox="0 0 184.25 184.25">
  <defs>
    <style>
      .cls-1 {
        fill: none;
      }

      .cls-2 {
        fill: #8e8e93;
      }
    </style>
  </defs>
  <g id="Layer_1-2" data-name="Layer_1">
    <path class="cls-2" d="M88.1,13.88C43.4,13.88,7.16,50.11,7.16,94.82s36.24,80.94,80.94,80.94,80.94-36.24,80.94-80.94S132.8,13.88,88.1,13.88ZM48.69,63.55l-1-.2c-1.19-.24-2.05-1.28-2.05-2.5v-.95c0-1.61,1.47-2.81,3.05-2.5,2.68.54,5.44.54,8.12,0,1.58-.32,3.05.89,3.05,2.5v.95c0,1.21-.86,2.26-2.05,2.5l-1,.2c-2.68.54-5.44.54-8.12,0ZM61.72,80.74c-.26,0-.51-.05-.75-.11.08.15.13.26.13.26.97,1.54-.62,2.67-.62,2.67-1.5.73-1.77-.73-1.77-.73-.23-.85-.8-1.67-.8-1.67-.99-1.29-.75-3.98-.56-5.28-.1-.53-.17-1.08-.17-1.66,0-3.61,2.03-6.53,4.54-6.53s4.54,2.92,4.54,6.53-2.03,6.53-4.54,6.53ZM77.8,60.85c0,1.21-.86,2.26-2.05,2.5l-1,.2c-2.68.54-5.44.54-8.12,0l-1-.2c-1.19-.24-2.05-1.28-2.05-2.5v-.95c0-1.61,1.47-2.81,3.05-2.5,2.68.54,5.44.54,8.12,0,1.58-.32,3.05.89,3.05,2.5v.95Z"/>
    <rect class="cls-1" width="184.25" height="184.25"/>
  </g>
</svg>