<?xml version="1.0" encoding="UTF-8"?>
<svg xmlns="http://www.w3.org/2000/svg" version="1.1" viewBox="0 0 263 180">
  <defs>
    <style>
      .cls-1 {
        fill: none;
      }

      .cls-2 {
        fill: #c59f7b;
      }
    </style>
  </defs>
  <!-- Generator: Adobe Illustrator 28.7.1, SVG Export Plug-In . SVG Version: 1.2.0 Build 142)  -->
  <g>
    <g id="Layer_1">
      <rect class="cls-1" x=".5" width="262" height="180"/>
      <path class="cls-2" d="M250.4,8.6h5l-19.6,32.4h-5l19.6-32.4ZM233.1,25.1h-1.2c-4.1,0-6.2-2.2-6.2-6.6v-3.8c0-4.4,2.1-6.6,6.2-6.6h1.2c4.1,0,6.2,2.2,6.2,6.6v3.8c0,4.4-2.1,6.6-6.2,6.6ZM230.8,21c0,.3,0,.5.2.7.2.2.4.3.7.3h1.6c.3,0,.5-.1.6-.3.2-.2.3-.4.3-.7v-8.8c0-.3-.1-.5-.3-.7-.2-.2-.4-.3-.6-.3h-1.6c-.3,0-.5.1-.7.3-.2.2-.2.4-.2.7v8.8ZM254.1,24.5c4.1,0,6.2,2.2,6.2,6.6v3.8c0,4.4-2.1,6.6-6.2,6.6h-1.2c-4.1,0-6.2-2.2-6.2-6.6v-3.8c0-4.4,2.1-6.6,6.2-6.6h1.2ZM255.3,37.4v-8.8c0-.3-.1-.5-.3-.7-.2-.2-.4-.3-.7-.3h-1.5c-.3,0-.5.1-.7.3-.2.2-.2.4-.2.7v8.8c0,.3,0,.5.2.7.2.2.4.3.7.3h1.5c.3,0,.5-.1.7-.3.2-.2.3-.4.3-.7Z"/>
      <g>
        <path class="cls-2" d="M55.8,146.1h-6.4v-27.8c0-1.4.4-2.6,1.3-3.6,0,0,.2-.1.2-.2l-1.2-1.2-19.4,19.4,19.4,19.4,6.1-6.1Z"/>
        <polygon class="cls-2" points="16.1 119.2 16.1 146.2 29.6 132.7 16.1 119.2"/>
        <path class="cls-2" d="M49.4,112.9l-19.4-19.4-13.2,13.2c-.4,2.7-.6,5.6-.6,8.7v3.1l13.8,13.8,19.4-19.4Z"/>
        <path class="cls-2" d="M140.1,5.6c-11.3,1.4-18.8,6.8-22.7,16.2l11.6,11.6,19.4-19.4-8.3-8.3Z"/>
        <path class="cls-2" d="M29.6,93.1l-4.4-4.4c-4.3,4.1-7.1,9.8-8.3,17.2l12.8-12.8Z"/>
        <polygon class="cls-2" points="89 152.5 82.6 146.1 56.5 146.1 50.1 152.5 69.6 172 89 152.5"/>
        <polygon class="cls-2" points="148.4 53.5 129 34.1 114.4 48.6 114.4 58.4 129 73 148.4 53.5"/>
        <path class="cls-2" d="M146.6,5.2c-2.1,0-4.1.1-5.9.3l8.1,8.1,8.4-8.4h-10.5Z"/>
        <path class="cls-2" d="M107.7,51.7v-12.2c0-8-1.3-14.6-3.9-19.8l-14,14,17.9,17.9Z"/>
        <polygon class="cls-2" points="149.1 53.5 149.8 54.2 149.8 52.9 149.1 53.5"/>
        <polygon class="cls-2" points="149.8 92.5 149.1 93.1 149.8 93.8 149.8 92.5"/>
        <polygon class="cls-2" points="174.5 40 174.5 67.1 188 53.5 174.5 40"/>
        <path class="cls-2" d="M129.3,33.7l19.4,19.4,1-1v-17.1c0-1.4.4-2.6,1.3-3.6,1-1,2.3-1.6,3.6-1.6h9.7l-15.6-15.6-19.4,19.4Z"/>
        <polygon class="cls-2" points="148.4 93.1 129 73.7 114.4 88.2 114.4 98 129 112.6 148.4 93.1"/>
        <polygon class="cls-2" points="114.4 98.7 114.4 127.1 128.6 112.9 114.4 98.7"/>
        <polygon class="cls-2" points="149.8 91.8 149.8 54.9 148.8 53.9 129.3 73.3 148.8 92.8 149.8 91.8"/>
        <polygon class="cls-2" points="72.9 176 69.6 172.7 66.2 176 72.9 176"/>
        <polygon class="cls-2" points="74.1 49.3 74.1 57.7 89.4 73 107.7 54.7 107.7 52.4 89.4 34.1 74.1 49.3"/>
        <polygon class="cls-2" points="105.6 168.4 105.6 146.1 96.1 146.1 89.7 152.5 105.6 168.4"/>
        <polygon class="cls-2" points="49.8 152.9 30.3 172.3 34 176 65.5 176 69.2 172.3 49.8 152.9"/>
        <polygon class="cls-2" points="209.8 72 208.5 73.3 209.8 74.6 209.8 72"/>
        <polygon class="cls-2" points="89.4 152.9 69.9 172.3 73.6 176 105.1 176 105.6 175.6 105.6 169.1 89.4 152.9"/>
        <path class="cls-2" d="M69.2,93.1l-12-12h-8.8c-2.3,0-4.4.1-6.4.4l-11.6,11.6,19.4,19.4,19.4-19.4Z"/>
        <path class="cls-2" d="M208.2,152.9l-19.4,19.4,3.8,3.8c9.2-3.6,14.7-11,16.6-22.3l-.9-.9Z"/>
        <polygon class="cls-2" points="114.4 59.1 114.4 87.5 128.6 73.3 114.4 59.1"/>
        <path class="cls-2" d="M188.7,53.5l19.4,19.4,1.7-1.7v-31.8c0-1.3,0-2.6-.1-3.9l-1.5-1.5-19.4,19.4Z"/>
        <path class="cls-2" d="M208.2,33.4l1.2-1.2c-1.4-11.8-6.5-19.7-15.1-23.8l-5.5,5.5,19.4,19.4Z"/>
        <path class="cls-2" d="M54.4,113.1h21.1c4.6,0,8.6-.5,12.2-1.5l-18.1-18.1-19.4,19.4,1.2,1.2c.9-.7,1.9-1,3-1Z"/>
        <polygon class="cls-2" points="95.4 146.1 83.3 146.1 89.4 152.2 95.4 146.1"/>
        <path class="cls-2" d="M74.1,75.9c0,1.4-.5,2.6-1.6,3.6-.9,1-2,1.6-3.4,1.6h-11.3l11.7,11.7,19.4-19.4-14.9-14.9v17.5Z"/>
        <path class="cls-2" d="M30,92.8l11.2-11.2c-6.4.9-11.6,3.2-15.6,6.8l4.4,4.4Z"/>
        <path class="cls-2" d="M69.9,93.1l18.3,18.3c1.4-.4,2.6-.9,3.9-1.5l12-12c1-2.2,1.8-4.5,2.4-7.2l-17.1-17.1-19.4,19.4Z"/>
        <path class="cls-2" d="M128.6,33.7l-11.4-11.4c-1.9,4.7-2.8,10.5-2.8,17.2v8.4l14.2-14.2Z"/>
        <path class="cls-2" d="M89.7,73.3l16.8,16.8c.7-3.4,1.1-7.2,1.1-11.4v-23.4l-17.9,17.9Z"/>
        <path class="cls-2" d="M103.3,99.3l-9.8,9.8c4.2-2.3,7.5-5.6,9.8-9.8Z"/>
        <path class="cls-2" d="M188.4,13.6l5.4-5.4c-3.9-1.7-8.5-2.7-13.7-2.9l8.3,8.3Z"/>
        <path class="cls-2" d="M89.4,33.4l14.1-14.1c-4.6-8.6-12.9-13.3-24.9-14l-8.6,8.6,19.4,19.4Z"/>
        <polygon class="cls-2" points="209.8 110.9 209.8 75.3 208.2 73.7 188.7 93.1 208.2 112.6 209.8 110.9"/>
        <path class="cls-2" d="M209.7,34.9c0-.7-.1-1.4-.2-2.1l-.9.9,1.1,1.1Z"/>
        <polygon class="cls-2" points="207.8 112.9 188.4 93.5 174.5 107.4 174.5 118.5 188.4 132.4 207.8 112.9"/>
        <path class="cls-2" d="M129,152.9l-10.8,10.8c4.3,8.9,12.4,13.8,24.2,14.7l6.1-6.1-19.4-19.4Z"/>
        <path class="cls-2" d="M154.7,178.6l-5.9-5.9-5.8,5.8c1.2,0,2.4.1,3.7.1h8.1Z"/>
        <polygon class="cls-2" points="30 172.7 26.6 176 33.3 176 30 172.7"/>
        <path class="cls-2" d="M154.7,153.6c-1.4,0-2.6-.5-3.6-1.6-.9-1-1.3-2.3-1.3-3.6v-14.4l-1-1-19.4,19.4,19.4,19.4,18.3-18.3h-12.4Z"/>
        <path class="cls-2" d="M188.4,172.7l-5.7,5.7c3.4-.3,6.6-1,9.3-2l-3.7-3.7Z"/>
        <path class="cls-2" d="M209.5,150.8c.2-2.1.3-4.3.3-6.6v-29.4l-1.7-1.7-19.4,19.4,19.4,19.4,1.3-1.3Z"/>
        <path class="cls-2" d="M30,13.6l7.6-7.6c-4.2.8-7.9,2.2-11,4.2l3.4,3.4Z"/>
        <path class="cls-2" d="M208.5,152.5l.7.7c0-.5.1-1,.2-1.5l-.9.9Z"/>
        <polygon class="cls-2" points="208.5 112.9 209.8 114.2 209.8 111.6 208.5 112.9"/>
        <path class="cls-2" d="M15.4,28.2l14.2-14.2-3.4-3.4c-5.5,3.8-9.1,9.7-10.8,17.7Z"/>
        <path class="cls-2" d="M169.3,153.6h-1.5l-18.7,18.7,6.3,6.3h22.2c1.5,0,2.9,0,4.3-.2l6.1-6.1-18.7-18.7Z"/>
        <path class="cls-2" d="M207.8,152.5l-19.4-19.4-13.9,13.9v1.5c0,1.4-.5,2.6-1.6,3.6-.8.9-1.7,1.4-2.9,1.5l18.4,18.4,19.4-19.4Z"/>
        <polygon class="cls-2" points="174.5 119.2 174.5 146.3 188 132.7 174.5 119.2"/>
        <polygon class="cls-2" points="148.4 132.7 129 113.3 114.4 127.8 114.4 137.6 129 152.2 148.4 132.7"/>
        <polygon class="cls-2" points="149.8 132.1 149.1 132.7 149.8 133.4 149.8 132.1"/>
        <polygon class="cls-2" points="49.4 152.5 30 133.1 16.1 146.9 16.1 158.1 30 172 49.4 152.5"/>
        <polygon class="cls-2" points="149.8 131.4 149.8 94.5 148.8 93.5 129.3 112.9 148.8 132.4 149.8 131.4"/>
        <path class="cls-2" d="M114.4,138.3v6c0,7.6,1.2,13.9,3.5,18.9l10.7-10.7-14.2-14.2Z"/>
        <path class="cls-2" d="M61.2,5.2l8.4,8.4,8.3-8.3c-.8,0-1.6,0-2.5,0h-14.2Z"/>
        <path class="cls-2" d="M50.9,34.5c.9-.6,1.9-1,2.9-1h15.3c1.4,0,2.5.5,3.4,1.6,1,1,1.6,2.3,1.6,3.6v9.9l14.9-14.9-19.4-19.4-19.4,19.4.8.8Z"/>
        <path class="cls-2" d="M31.9,52h17v-13.3c0-1.4.4-2.6,1.3-3.6.1-.1.2-.2.3-.3l-.7-.7-17.9,17.9Z"/>
        <path class="cls-2" d="M49.8,33.4l19.4-19.4-8.7-8.7h-13.9c-2.9,0-5.6.2-8.1.6l-8.1,8.1,19.4,19.4Z"/>
        <polygon class="cls-2" points="174.5 79.6 174.5 106.7 188 93.1 174.5 79.6"/>
        <path class="cls-2" d="M14.3,52h13.8l-13.7-13.7c0,.4,0,.8,0,1.3v12.5Z"/>
        <polygon class="cls-2" points="16.1 158.8 16.1 176 25.9 176 29.6 172.3 16.1 158.8"/>
        <path class="cls-2" d="M15.2,29c-.5,2.6-.8,5.5-.9,8.5l14.4,14.4h2.4l18.3-18.3L30,14.3l-14.8,14.8Z"/>
        <polygon class="cls-2" points="207.8 73.3 188.4 53.9 174.5 67.8 174.5 78.9 188.4 92.8 207.8 73.3"/>
        <path class="cls-2" d="M177.6,5.2h-19.7l-8.7,8.7,16,16h4.4c.8,0,1.4.2,2,.5l16.4-16.4-8.7-8.7c-.6,0-1.1,0-1.7,0Z"/>
        <path class="cls-2" d="M172,30.6c.3.2.6.5.9.8,1,1,1.6,2.3,1.6,3.6v4.2l13.9,13.9,19.4-19.4-19.4-19.4-16.4,16.4Z"/>
      </g>
    </g>
  </g>
</svg>