<?xml version="1.0" encoding="UTF-8"?>
<svg id="Layer_2" xmlns="http://www.w3.org/2000/svg" viewBox="0 0 184.25 184.25">
  <defs>
    <style>
      .cls-1 {
        fill: none;
      }

      .cls-2 {
        fill: #8e8e93;
      }
    </style>
  </defs>
  <g id="Layer_1-2" data-name="Layer_1">
    <path class="cls-2" d="M88.1,13.88C43.4,13.88,7.16,50.11,7.16,94.82s36.24,80.94,80.94,80.94,80.94-36.24,80.94-80.94S132.8,13.88,88.1,13.88ZM52.35,63.47l-.12-8.07c-.03-1.7,1.33-3.09,3.02-3.12s3.09,1.33,3.12,3.02l.12,8.07c.03,1.7-1.33,3.09-3.02,3.12h0c-1.7.03-3.09-1.33-3.12-3.02ZM61,85.88c-3.21,0-5.81-3.61-5.81-8.07s2.6-8.07,5.81-8.07,5.81,3.61,5.81,8.07-2.6,8.07-5.81,8.07ZM66.42,66.32c-1.7.03-3.09-1.33-3.12-3.02l-.12-8.07c-.03-1.7,1.33-3.09,3.02-3.12,1.7-.03,3.09,1.33,3.12,3.02l.12,8.07c.03,1.7-1.33,3.09-3.02,3.12Z"/>
    <rect class="cls-1" width="184.25" height="184.25"/>
  </g>
</svg>