<?xml version="1.0" encoding="UTF-8"?>
<svg xmlns="http://www.w3.org/2000/svg" version="1.1" viewBox="0 0 306 180">
  <defs>
    <style>
      .cls-1 {
        fill: none;
      }

      .cls-2 {
        fill: #c59f7b;
      }
    </style>
  </defs>
  <!-- Generator: Adobe Illustrator 28.7.1, SVG Export Plug-In . SVG Version: 1.2.0 Build 142)  -->
  <g>
    <g id="Layer_1">
      <g>
        <polygon class="cls-2" points="60.3 94.6 60.3 111.3 68.7 102.9 60.3 94.6"/>
        <polygon class="cls-2" points="95.7 75.9 95.7 50.8 88.8 43.9 69.4 63.3 88.8 82.8 95.7 75.9"/>
        <polygon class="cls-2" points="89.2 43.5 95.7 50.1 95.7 37 89.2 43.5"/>
        <polygon class="cls-2" points="108.6 24.1 102.8 29.9 114.4 29.9 108.6 24.1"/>
        <path class="cls-2" d="M123.5,5.2h-30.9c-.7,0-1.4,0-2.1,0l18.2,18.2,18.1-18.1c-1.1,0-2.1,0-3.2,0Z"/>
        <polygon class="cls-2" points="88.5 83.1 69 63.7 60.3 72.4 60.3 93.9 69 102.6 88.5 83.1"/>
        <polygon class="cls-2" points="48.9 83.1 29.4 63.7 16.2 77 16.2 89.3 29.4 102.6 48.9 83.1"/>
        <polygon class="cls-2" points="16.2 10.1 29.4 23.4 44.8 8 16.2 8 16.2 10.1"/>
        <path class="cls-2" d="M88.5,43.5l-19.4-19.4-8.3,8.3c-.3,2.2-.4,4.6-.4,7.1v14.8l8.7,8.7,19.4-19.4Z"/>
        <polygon class="cls-2" points="16.2 90 16.2 115.9 29.1 102.9 16.2 90"/>
        <polygon class="cls-2" points="29.1 23.7 16.2 10.8 16.2 36.7 29.1 23.7"/>
        <polygon class="cls-2" points="48.9 122.7 29.4 103.3 16.2 116.6 16.2 128.9 29.4 142.2 48.9 122.7"/>
        <polygon class="cls-2" points="120.4 35.9 120.4 51.2 128.1 43.5 120.4 35.9"/>
        <path class="cls-2" d="M147.9,23.7l-18.2-18.2c-.7,0-1.5-.2-2.2-.2l-18.4,18.4,6.1,6.1h.3c1.4,0,2.5.5,3.4,1.6,1,1,1.6,2.3,1.6,3.6h0c0,0,8,8.1,8,8.1l19.4-19.4Z"/>
        <path class="cls-2" d="M152.1,20.3l-3.5,3.5,6.5,6.5c-.6-3.7-1.6-7.1-3-10Z"/>
        <polygon class="cls-2" points="89.2 83.1 95.7 89.7 95.7 76.6 89.2 83.1"/>
        <polygon class="cls-2" points="60.3 55 60.3 71.7 68.7 63.3 60.3 55"/>
        <path class="cls-2" d="M151.8,19.8c-4-8-11.1-12.7-21.4-14.1l17.8,17.8,3.6-3.6Z"/>
        <polygon class="cls-2" points="29.1 142.5 16.2 129.6 16.2 155.5 29.1 142.5"/>
        <polygon class="cls-2" points="95.7 116.2 89.2 122.7 95.7 129.3 95.7 116.2"/>
        <path class="cls-2" d="M60.3,134.2v10.1c0,2.2.1,4.3.3,6.3l8-8-8.3-8.3Z"/>
        <polygon class="cls-2" points="88.5 122.7 69 103.3 60.3 112 60.3 133.5 69 142.2 88.5 122.7"/>
        <polygon class="cls-2" points="95.7 115.5 95.7 90.4 88.8 83.5 69.4 102.9 88.8 122.4 95.7 115.5"/>
        <polygon class="cls-2" points="49.2 43.2 51.5 40.9 51.5 8 45.5 8 29.8 23.7 49.2 43.2"/>
        <path class="cls-2" d="M155.2,31.1l-7-7-19.4,19.4,19.4,19.4,7.5-7.5v-16c0-3-.2-5.8-.6-8.4Z"/>
        <polygon class="cls-2" points="155.8 56.2 148.6 63.3 155.8 70.5 155.8 56.2"/>
        <polygon class="cls-2" points="49.6 162.3 51.5 164.3 51.5 160.4 49.6 162.3"/>
        <polygon class="cls-2" points="49.2 123.1 29.8 142.5 49.2 162 51.5 159.7 51.5 125.4 49.2 123.1"/>
        <polygon class="cls-2" points="155.8 95.8 148.6 102.9 155.8 110.1 155.8 95.8"/>
        <polygon class="cls-2" points="35.7 176.3 51.5 176.3 51.5 165 49.2 162.7 35.7 176.3"/>
        <path class="cls-2" d="M168.4,162.3l15.9,15.9c1.9.2,4,.3,6.1.3h.6l16.3-16.3-8.7-8.7h-.1c-1.4,0-2.6-.5-3.6-1.6-.8-1-1.3-2.2-1.3-3.5l-5.7-5.7-19.4,19.4Z"/>
        <path class="cls-2" d="M148.6,142.5l7,7c.1-1.7.2-3.4.2-5.2v-8.9l-7.2,7.2Z"/>
        <path class="cls-2" d="M148.2,142.9l-19.4,19.4,12.5,12.5c8.3-4.4,13.1-12.6,14.2-24.7l-7.3-7.3Z"/>
        <polygon class="cls-2" points="148.2 63.7 128.8 83.1 148.2 102.6 155.8 95.1 155.8 71.2 148.2 63.7"/>
        <path class="cls-2" d="M168.4,43.5l19.4,19.4,5.7-5.7v-22.2c0-1.4.4-2.6,1.3-3.6,0,0,.1-.1.2-.2l-7.2-7.2-19.4,19.4Z"/>
        <polygon class="cls-2" points="51.5 120.8 49.6 122.7 51.5 124.7 51.5 120.8"/>
        <polygon class="cls-2" points="16.2 50.4 16.2 76.3 29.1 63.3 16.2 50.4"/>
        <path class="cls-2" d="M69,23.4l17.9-17.9c-10.6,1.1-18,5.7-22.3,13.5l4.4,4.4Z"/>
        <polygon class="cls-2" points="48.9 43.5 29.4 24.1 16.2 37.4 16.2 49.7 29.4 63 48.9 43.5"/>
        <path class="cls-2" d="M68.7,23.7l-4.3-4.3c-1.8,3.4-3,7.5-3.6,12.1l7.9-7.9Z"/>
        <polygon class="cls-2" points="16.2 169.2 16.2 176.3 23.2 176.3 16.2 169.2"/>
        <path class="cls-2" d="M89.8,5.3c-.7,0-1.4,0-2,.1l-18.3,18.3,19.4,19.4,6.9-6.9v-1.2c0-1.4.4-2.6,1.3-3.6,1-1,2.3-1.6,3.6-1.6h1.5l6.1-6.1-18.5-18.5Z"/>
        <polygon class="cls-2" points="51.5 41.6 49.6 43.5 51.5 45.5 51.5 41.6"/>
        <polygon class="cls-2" points="49.2 83.5 29.8 102.9 49.2 122.4 51.5 120.1 51.5 85.8 49.2 83.5"/>
        <polygon class="cls-2" points="49.2 43.9 29.8 63.3 49.2 82.8 51.5 80.5 51.5 46.2 49.2 43.9"/>
        <polygon class="cls-2" points="51.5 81.2 49.6 83.1 51.5 85.1 51.5 81.2"/>
        <polygon class="cls-2" points="246.9 83.1 227.4 63.7 218.2 72.9 218.2 93.4 227.4 102.6 246.9 83.1"/>
        <path class="cls-2" d="M253.5,36.9c-.5-12.7-4.6-21.6-12.2-26.7l-13.5,13.5,19.4,19.4,6.3-6.3Z"/>
        <path class="cls-2" d="M253.6,39.5c0-.6,0-1.3,0-1.9l-6,6,6,6v-10Z"/>
        <polygon class="cls-2" points="188.2 142.5 193.5 147.9 193.5 137.2 188.2 142.5"/>
        <path class="cls-2" d="M246.9,43.5l-19.4-19.4-9.5,9.5c.2.5.3,1,.3,1.5v18.7l9.2,9.2,19.4-19.4Z"/>
        <polygon class="cls-2" points="218.2 94.1 218.2 111.8 227.1 102.9 218.2 94.1"/>
        <path class="cls-2" d="M168,123.1l-9.9,9.9v11.3c0,3,.2,5.8.6,8.4l9.3,9.3,19.4-19.4-19.4-19.4Z"/>
        <path class="cls-2" d="M183.5,178.1l-15.5-15.5-4.3,4.3c4.2,6.2,10.8,10,19.7,11.2Z"/>
        <polygon class="cls-2" points="218.2 54.5 218.2 72.2 227.1 63.3 218.2 54.5"/>
        <polygon class="cls-2" points="253.6 76.4 253.6 50.2 247.2 43.9 227.8 63.3 247.2 82.8 253.6 76.4"/>
        <polygon class="cls-2" points="188.2 102.9 193.5 108.3 193.5 97.6 188.2 102.9"/>
        <polygon class="cls-2" points="193.5 136.5 193.5 109 187.8 103.3 168.4 122.7 187.8 142.2 193.5 136.5"/>
        <polygon class="cls-2" points="253.6 116 253.6 89.8 247.2 83.5 227.8 102.9 247.2 122.4 253.6 116"/>
        <path class="cls-2" d="M227.4,142.9l-19.4,19.4,16.2,16.2c2.7-.1,5.2-.5,7.5-1l15.2-15.2-19.4-19.4Z"/>
        <polygon class="cls-2" points="253.6 116.8 247.6 122.7 253.6 128.7 253.6 116.8"/>
        <path class="cls-2" d="M249.3,164.7l-2-2-14.6,14.6c7.6-2,13.2-6.1,16.7-12.6Z"/>
        <path class="cls-2" d="M253.6,144.3v-14.8l-6.3-6.3-19.4,19.4,19.4,19.4,4.9-4.9c.9-3.8,1.4-8,1.4-12.8Z"/>
        <path class="cls-2" d="M247.6,162.3l1.9,1.9c1-1.9,1.8-4,2.4-6.3l-4.3,4.3Z"/>
        <polygon class="cls-2" points="246.9 122.7 227.4 103.3 218.2 112.5 218.2 133 227.4 142.2 246.9 122.7"/>
        <path class="cls-2" d="M223.5,178.6l-15.9-15.9-15.9,15.9h29.6c.7,0,1.5,0,2.2,0Z"/>
        <polygon class="cls-2" points="48.9 162.3 29.4 142.9 16.2 156.2 16.2 168.5 23.9 176.3 35 176.3 48.9 162.3"/>
        <path class="cls-2" d="M218.2,133.7v14.8c0,1.4-.5,2.6-1.6,3.6-.9,1-2,1.6-3.4,1.6h-14l8.3,8.3,19.4-19.4-8.9-8.9Z"/>
        <polygon class="cls-2" points="253.6 77.2 247.6 83.1 253.6 89.1 253.6 77.2"/>
        <path class="cls-2" d="M158.8,153.5c.8,5.1,2.4,9.5,4.7,13l4.2-4.2-8.8-8.8Z"/>
        <path class="cls-2" d="M187.5,23.7l-14.8-14.8c-8.4,4.4-13.1,12.6-14.2,24.7l9.6,9.6,19.4-19.4Z"/>
        <path class="cls-2" d="M158.4,34.2c-.1,1.7-.2,3.4-.2,5.3v13.6l9.5-9.5-9.3-9.3Z"/>
        <path class="cls-2" d="M147.9,142.5l-19.4-19.4-8,8v17.3c0,1.4-.5,2.6-1.6,3.6,0,0-.1,0-.2.2l9.8,9.8,19.4-19.4Z"/>
        <polygon class="cls-2" points="128.4 83.5 120.4 91.5 120.4 114.4 128.4 122.4 147.9 102.9 128.4 83.5"/>
        <path class="cls-2" d="M118.3,152.6c-.8.7-1.7,1.1-2.9,1.1h-14.8c-.8,0-1.5-.2-2.2-.5l-9.2,9.2,16.3,16.3h6.4l16.3-16.3-9.8-9.8Z"/>
        <polygon class="cls-2" points="147.9 63.3 128.4 43.9 120.4 51.9 120.4 74.8 128.4 82.8 147.9 63.3"/>
        <path class="cls-2" d="M104.7,178.6l-15.9-15.9-12.8,12.8c4.5,2.1,10,3.1,16.5,3.1h12.2Z"/>
        <path class="cls-2" d="M69,142.9l-8.3,8.3c1.3,11.9,6.3,19.9,14.9,24l12.9-12.9-19.4-19.4Z"/>
        <path class="cls-2" d="M97,152.1c-.9-1-1.3-2.3-1.3-3.6v-18.5l-6.9-6.9-19.4,19.4,19.4,19.4,9.1-9.1c-.3-.2-.7-.5-1-.8Z"/>
        <polygon class="cls-2" points="120.4 75.5 120.4 90.8 128.1 83.1 120.4 75.5"/>
        <polygon class="cls-2" points="120.4 115.1 120.4 130.4 128.1 122.7 120.4 115.1"/>
        <polygon class="cls-2" points="188.2 63.3 193.5 68.7 193.5 58 188.2 63.3"/>
        <polygon class="cls-2" points="187.5 102.9 168 83.5 158.1 93.4 158.1 112.5 168 122.4 187.5 102.9"/>
        <polygon class="cls-2" points="193.5 96.9 193.5 69.4 187.8 63.7 168.4 83.1 187.8 102.6 193.5 96.9"/>
        <path class="cls-2" d="M208.5,5.2h-1.8l-18.6,18.6,7.2,7.2c.9-.7,1.9-1.1,3.1-1.1h14.8c1.4,0,2.5.5,3.4,1.6.5.5.9,1,1.1,1.6l9.3-9.3-18.6-18.6Z"/>
        <path class="cls-2" d="M240.9,9.9c-5-3.2-11.5-4.8-19.5-4.8h-12.1l18.2,18.2,13.4-13.4Z"/>
        <polygon class="cls-2" points="158.1 113.2 158.1 132.3 167.7 122.7 158.1 113.2"/>
        <polygon class="cls-2" points="158.1 73.6 158.1 92.7 167.7 83.1 158.1 73.6"/>
        <path class="cls-2" d="M190.4,5.2c-6.9,0-12.6,1.2-17.3,3.5l14.7,14.7,18.2-18.2h-15.7Z"/>
        <polygon class="cls-2" points="187.5 63.3 168 43.9 158.1 53.8 158.1 72.9 168 82.8 187.5 63.3"/>
        <polygon class="cls-2" points="148.2 103.3 128.8 122.7 148.2 142.2 155.8 134.7 155.8 110.8 148.2 103.3"/>
        <path class="cls-2" d="M128.4,162.7l-15.9,15.9h11c6.9,0,12.6-1.2,17.3-3.5l-12.4-12.4Z"/>
      </g>
      <path class="cls-2" d="M293.9,8.6h5l-19.6,32.4h-5l19.6-32.4ZM276.6,25.1h-1.2c-4.1,0-6.2-2.2-6.2-6.6v-3.8c0-4.4,2.1-6.6,6.2-6.6h1.2c4.1,0,6.2,2.2,6.2,6.6v3.8c0,4.4-2.1,6.6-6.2,6.6ZM274.3,21c0,.3,0,.5.2.7.2.2.4.3.7.3h1.5c.3,0,.5-.1.7-.3.2-.2.3-.4.3-.7v-8.8c0-.3-.1-.5-.3-.7-.2-.2-.4-.3-.7-.3h-1.5c-.3,0-.5.1-.7.3-.2.2-.2.4-.2.7v8.8ZM297.6,24.5c4.1,0,6.2,2.2,6.2,6.6v3.8c0,4.4-2.1,6.6-6.2,6.6h-1.2c-4.1,0-6.2-2.2-6.2-6.6v-3.8c0-4.4,2.1-6.6,6.2-6.6h1.2ZM298.8,37.4v-8.8c0-.3,0-.5-.3-.7-.2-.2-.4-.3-.6-.3h-1.6c-.3,0-.5.1-.7.3-.2.2-.2.4-.2.7v8.8c0,.3,0,.5.2.7.2.2.4.3.7.3h1.6c.3,0,.5-.1.6-.3.2-.2.3-.4.3-.7Z"/>
      <rect class="cls-1" width="306" height="178.6"/>
    </g>
  </g>
</svg>