<?xml version="1.0" encoding="UTF-8"?>
<svg id="Layer_2" xmlns="http://www.w3.org/2000/svg" viewBox="0 0 255.12 255.12">
  <defs>
    <style>
      .cls-1 {
        fill: none;
      }
    </style>
  </defs>
  <g id="Layer_1-2" data-name="Layer_1">
    <g>
      <path d="M40.83,100.09c-.33,0-.66-.13-.9-.39-.46-.5-.44-1.28.06-1.74l4.15-3.89c.45-.42,1.13-.45,1.61-.06l4.51,3.61c.53.43.62,1.2.19,1.73-.43.53-1.21.62-1.73.19l-3.68-2.95-3.37,3.16c-.24.22-.54.33-.84.33Z"/>
      <path d="M41.23,114.5c-.25,0-.49-.07-.71-.23-.56-.39-.69-1.16-.3-1.72l3.28-4.65c.35-.5,1.01-.67,1.57-.39l5.15,2.63c.61.31.85,1.05.54,1.66-.31.61-1.05.85-1.66.54l-4.2-2.14-2.67,3.78c-.24.34-.62.52-1.01.52Z"/>
      <path d="M44.03,127.23c-.17,0-.33-.03-.5-.1-.62-.27-.91-1-.63-1.63l2.29-5.21c.25-.56.87-.87,1.46-.69l5.57,1.55c.66.18,1.04.86.86,1.52-.18.66-.85,1.04-1.52.86l-4.54-1.26-1.86,4.23c-.2.46-.65.74-1.13.74Z"/>
      <path d="M48.61,139.19c-.12,0-.23-.02-.35-.05-.65-.2-1.02-.88-.83-1.53l1.62-5.46c.18-.59.74-.97,1.36-.87l5.72.84c.67.1,1.14.73,1.04,1.4-.1.67-.7,1.14-1.4,1.04l-4.66-.69-1.32,4.43c-.16.53-.65.88-1.18.88Z"/>
      <path d="M211.27,100.09c-.3,0-.6-.11-.84-.33l-3.37-3.16-3.68,2.95c-.52.42-1.3.34-1.73-.19-.42-.53-.34-1.31.19-1.73l4.51-3.61c.48-.38,1.17-.35,1.61.06l4.15,3.89c.5.47.52,1.25.06,1.74-.24.26-.57.39-.9.39Z"/>
      <path d="M210.86,114.5c-.39,0-.77-.18-1.01-.52l-2.67-3.78-4.2,2.14c-.6.31-1.35.07-1.66-.54-.31-.61-.07-1.35.54-1.66l5.15-2.63c.55-.28,1.22-.11,1.57.39l3.28,4.65c.39.56.26,1.33-.3,1.72-.22.15-.46.23-.71.23Z"/>
      <path d="M208.07,127.23c-.47,0-.92-.27-1.13-.74l-1.86-4.23-4.54,1.26c-.67.18-1.34-.2-1.52-.86-.18-.65.2-1.33.86-1.52l5.57-1.55c.59-.16,1.21.13,1.46.69l2.29,5.21c.27.62,0,1.35-.63,1.63-.16.07-.33.1-.5.1Z"/>
      <path d="M203.48,139.19c-.53,0-1.02-.35-1.18-.88l-1.32-4.43-4.66.69c-.69.1-1.3-.37-1.4-1.04-.1-.67.37-1.3,1.04-1.4l5.72-.84c.64-.1,1.19.28,1.36.87l1.62,5.46c.19.65-.18,1.34-.83,1.53-.12.03-.24.05-.35.05Z"/>
      <path d="M206.58,61.45c-.04-.12-.12-.22-.2-.32h.03c-11.65-26.87-40.49-51.09-80.33-51.09-.02,0-.03,0-.04,0-.01,0-.02,0-.04,0-47.31,0-79.13,34.18-85.04,66.35,0,0,0,0,0,0,0,.02-.02.03-.02.04-.19.75-20.14,66.27,12.76,113.47,1.63,2.34,3.73,4.13,6.06,5.18,2.42,1.09,4.98,1.45,7.64,1.1l-7.45,33.17c-2.38,2.1-8.52,7.94-7.59,11.59.22.87.91,1.99,3.12,2.45l32.95,1.53,11.53.14s.16.01.37.01c.99,0,3.76-.2,6.05-2.32,2.18-2.01,3.29-5.09,3.29-9.04l6.12-51.58c.02-.2-.01-.39-.08-.57,3.7.49,7.18.72,10.33.72,2.58,0,5.4-.16,8.37-.48,0,.07-.03.14-.02.22l6.12,51.55c.01,4.08,1.12,7.17,3.3,9.18,2.31,2.13,5.1,2.32,6.02,2.32.19,0,.3,0,.31,0l11.66-.15,33.11-1.56c2.02-.44,2.7-1.56,2.92-2.42.93-3.65-5.23-9.5-7.6-11.59l-10.1-41.4c3.08.31,5.79,1.8,7.25,2.79,1.73,1.16,3.65,1.95,5.57,2.3.08.01.15.02.23.04,3.56.59,6.85.01,9.77-1.7,2.21-1.3,4.1-3.3,5.47-5.8,27.67-50.45-1.6-123.39-1.87-124.12ZM113.35,181.86l-6.13,51.72c0,3.35-.85,5.83-2.48,7.35-1.98,1.84-4.55,1.68-4.66,1.68l-11.57-.14-32.7-1.5c-.63-.14-.98-.35-1.05-.63-.4-1.57,3.36-6.12,7.13-9.38.2-.17.34-.4.4-.66l7.79-34.68c1.81-.56,3.58-1.53,5.12-2.82,1.63-1.37,4.94-3.68,8.61-3.8.2.03,5.05.62,8.34-2.42,2.08-1.93,3.02-4.81,2.81-8.57-.03-.53-.11-1.07-.21-1.61,6.48,2.39,12.92,3.97,18.88,4.9-.13.17-.23.36-.26.58ZM188.33,230.95c3.77,3.26,7.53,7.81,7.12,9.38-.07.28-.43.49-.85.6l-32.86,1.53-11.69.15s-2.6.16-4.59-1.69c-1.63-1.52-2.47-3.99-2.49-7.49l-6.13-51.69c0-.08-.05-.15-.07-.22,9.37-1.27,20.08-4.2,30.33-9.35-.13.49-.25.91-.34,1.24-.46,1.65-.66,3.24-.58,4.72.19,3.76,1.44,6.52,3.71,8.22,2.81,2.1,6.35,1.87,7.74,1.66l10.31,42.29c.06.25.2.47.39.64ZM206.29,184.39c-1.16,2.11-2.73,3.79-4.56,4.86-2.42,1.42-5.15,1.88-8.13,1.4-1.68-.24-3.32-.95-4.83-1.95-2.03-1.37-6.13-3.6-10.92-3.21-.04,0-3.82.9-6.49-1.1-1.65-1.24-2.57-3.38-2.72-6.37-.06-1.21.11-2.54.5-3.93.26-.93.58-2.11.94-3.47,0,0,0,0,0,0l.03-.13c.25-.95.52-1.99.8-3.11l.02-.08s0,0,0,0c3-11.94,7.36-32.54,4.93-43.26-.15-.66-.8-1.08-1.47-.93-.66.15-1.08.81-.93,1.48,2.48,10.95-2.79,33.88-5.5,44.38-14.62,7.83-30.49,10.87-41.91,10.87-8.92,0-20.54-1.86-32.17-6.4,0-.02-.02-.05-.03-.07-2.25-5.66-13.42-34.58-11.88-47.84.08-.68-.41-1.29-1.08-1.37-.68-.08-1.29.41-1.37,1.08-1.57,13.5,8.81,40.95,12.03,49.04.54,1.34.84,2.64.91,3.86.17,2.98-.51,5.21-2.01,6.61-2.43,2.26-6.32,1.8-6.55,1.79-4.61.14-8.44,2.79-10.32,4.36-1.39,1.16-2.96,2.05-4.59,2.46-2.91.8-5.68.63-8.23-.52-1.93-.87-3.68-2.37-5.05-4.35-32.26-46.28-12.57-110.73-12.39-111.47,0-.02,0-.03,0-.05.02-.05.04-.09.05-.14C49.13,45.64,80.02,12.5,126.01,12.5h.08c38.72,0,66.75,23.5,78.05,49.55l.08-.03c.01.09.01.18.05.27,1.16,2.91,29.15,72.63,2.02,122.09Z"/>
    </g>
    <rect class="cls-1" width="255.12" height="255.12"/>
  </g>
</svg>