<?xml version="1.0" encoding="UTF-8"?>
<svg xmlns="http://www.w3.org/2000/svg" version="1.1" viewBox="0 0 251 180">
  <defs>
    <style>
      .cls-1 {
        fill: none;
      }

      .cls-2 {
        fill: #c59f7b;
      }
    </style>
  </defs>
  <!-- Generator: Adobe Illustrator 28.7.1, SVG Export Plug-In . SVG Version: 1.2.0 Build 142)  -->
  <g>
    <g id="Layer_1">
      <rect class="cls-1" width="251" height="180"/>
      <path class="cls-2" d="M238.9,8.6h5l-19.6,32.4h-5l19.6-32.4ZM221.6,25.1h-1.2c-4.1,0-6.2-2.2-6.2-6.6v-3.8c0-4.4,2.1-6.6,6.2-6.6h1.2c4.1,0,6.2,2.2,6.2,6.6v3.8c0,4.4-2.1,6.6-6.2,6.6ZM219.3,21c0,.3,0,.5.2.7.2.2.4.3.7.3h1.6c.3,0,.5-.1.6-.3.2-.2.3-.4.3-.7v-8.8c0-.3-.1-.5-.3-.7-.2-.2-.4-.3-.6-.3h-1.6c-.3,0-.5.1-.7.3-.2.2-.2.4-.2.7v8.8ZM242.6,24.5c4.1,0,6.2,2.2,6.2,6.6v3.8c0,4.4-2.1,6.6-6.2,6.6h-1.2c-4.1,0-6.2-2.2-6.2-6.6v-3.8c0-4.4,2.1-6.6,6.2-6.6h1.2ZM243.8,37.4v-8.8c0-.3-.1-.5-.3-.7-.2-.2-.4-.3-.7-.3h-1.5c-.3,0-.5.1-.7.3-.2.2-.2.4-.2.7v8.8c0,.3,0,.5.2.7.2.2.4.3.7.3h1.5c.3,0,.5-.1.7-.3.2-.2.3-.4.3-.7Z"/>
      <g>
        <path class="cls-2" d="M104.2,154.4c1.5,8.5,5.1,14.8,10.9,18.8l4-4-14.8-14.8Z"/>
        <polygon class="cls-2" points="95 25.7 98.7 7.8 83.1 7.8 80.1 10.8 95 25.7"/>
        <polygon class="cls-2" points="81.2 91.9 79.7 90.4 60.3 109.8 74.6 124.1 81.2 91.9"/>
        <path class="cls-2" d="M101.8,27.9l17.1-17.1-2.5-2.5c-7.7,3.5-12.6,10.1-14.6,19.6Z"/>
        <polygon class="cls-2" points="88.2 58.5 92.4 38.1 80.1 50.4 88.2 58.5"/>
        <polygon class="cls-2" points="60.3 70.2 79.7 89.6 82.2 87.2 88 59.1 79.7 50.8 60.3 70.2"/>
        <path class="cls-2" d="M103.3,131.8v12.5c0,.3,0,.6,0,1l13.4-13.4h-13.4Z"/>
        <path class="cls-2" d="M139.5,30.6l6.6,6.6h12.4c1.4,0,2.5.5,3.4,1.6,1,1,1.6,2.3,1.6,3.6v3.2l15-15-19.4-19.4-19.4,19.4Z"/>
        <path class="cls-2" d="M108.7,101c5.4,5.8,13.5,8.7,24.3,8.7h5.7l-19.3-19.3-10.7,10.7Z"/>
        <path class="cls-2" d="M124.6,5.9l-5,5,19.4,19.4,19.4-19.4-5.6-5.6h-20c-3,0-5.8.2-8.3.7Z"/>
        <path class="cls-2" d="M163.7,5.2h-10l5.3,5.3,5.3-5.3c-.2,0-.4,0-.5,0Z"/>
        <path class="cls-2" d="M146.3,77.7h-8.4c-1.4,0-2.6-.5-3.6-1.6-.1-.1-.2-.3-.3-.4l-14.3,14.3,19.4,19.4,19.4-19.4-12.3-12.3Z"/>
        <path class="cls-2" d="M178.4,70.2l-15-15v17.3c0,1.4-.5,2.6-1.6,3.6-.9,1-2,1.6-3.4,1.6h-11.4l11.9,11.9,19.4-19.4Z"/>
        <path class="cls-2" d="M136.6,145.1v-13.3h-14.7l15,15c-.2-.5-.3-1.1-.3-1.7Z"/>
        <polygon class="cls-2" points="163.4 46.3 163.4 54.5 178.7 69.8 195.9 52.7 195.9 48.1 178.7 31 163.4 46.3"/>
        <polygon class="cls-2" points="52.7 63.3 49.4 80.4 59.6 70.2 52.7 63.3"/>
        <polygon class="cls-2" points="79.4 90 59.9 70.6 49.2 81.3 46.4 95.9 59.9 109.4 79.4 90"/>
        <polygon class="cls-2" points="59.6 109.8 46.3 96.5 39.9 129 40.1 129.2 59.6 109.8"/>
        <path class="cls-2" d="M101.7,28.8c-.2,1-.4,2-.5,3.1l18.2,18.2,19.4-19.4-19.4-19.4-17.7,17.7Z"/>
        <path class="cls-2" d="M195.9,47.4v-7.9c0-8.7-1.5-15.7-4.6-21.1l-12.2,12.2,16.8,16.8Z"/>
        <polygon class="cls-2" points="195.9 87 195.9 53.4 179.1 70.2 195.9 87"/>
        <path class="cls-2" d="M133.7,75.3c-.5-.8-.7-1.8-.7-2.8v-8.1l-13.6-13.6-18.6,18.6v1.7l18.6,18.6,14.3-14.3Z"/>
        <path class="cls-2" d="M119,50.4l-17.9-17.9c-.2,2.2-.4,4.5-.4,7v29.2l18.3-18.3Z"/>
        <path class="cls-2" d="M119.7,50.4l13.3,13.3v-21.3c0-1.4.4-2.6,1.3-3.6,1-1,2.3-1.6,3.6-1.6h7.4l-6.2-6.2-19.4,19.4Z"/>
        <polygon class="cls-2" points="81.4 91.3 82 88.1 80.1 90 81.4 91.3"/>
        <path class="cls-2" d="M100.7,71.7v3.6c0,11.1,2.5,19.5,7.6,25.2l10.6-10.6-18.3-18.3Z"/>
        <path class="cls-2" d="M117,8.1l2.4,2.4,4.4-4.4c-2.5.5-4.7,1.2-6.8,2.1Z"/>
        <path class="cls-2" d="M139.1,149.7l-19.4,19.4,9,9c2.2.3,4.5.5,6.9.5h13.6l9.4-9.4-19.4-19.4Z"/>
        <path class="cls-2" d="M167.8,178.4l-8.9-8.9-9.1,9.1h13.8c1.4,0,2.8,0,4.2-.2Z"/>
        <polygon class="cls-2" points="67.7 157.5 59.9 149.7 40.5 169.2 47.3 176 63.8 176 67.7 157.5"/>
        <polygon class="cls-2" points="33.4 162.8 30.8 176 33 176 39.8 169.2 33.4 162.8"/>
        <polygon class="cls-2" points="40.1 169.5 33.7 176 46.6 176 40.1 169.5"/>
        <path class="cls-2" d="M163.4,134.4v10.7c0,1.4-.5,2.6-1.6,3.6-.9,1-2,1.6-3.4,1.6h-16.9c-.5,0-1,0-1.4-.2l18.8,18.8,19.4-19.4-15-15Z"/>
        <polygon class="cls-2" points="40.1 10.4 42.8 7.8 37.5 7.8 40.1 10.4"/>
        <path class="cls-2" d="M192.3,163.3l-13.6-13.6-19.4,19.4,9.2,9.2c11.7-1.1,19.6-6.1,23.8-15.1Z"/>
        <path class="cls-2" d="M195.9,132.6l-16.8,16.8,13.4,13.4c2.2-5,3.4-11.2,3.4-18.6v-11.7Z"/>
        <polygon class="cls-2" points="15 35.6 20 30.6 12.9 23.5 12.9 35.6 15 35.6"/>
        <polygon class="cls-2" points="195.9 131.9 195.9 127.3 178.7 110.2 163.4 125.5 163.4 133.7 178.7 149 195.9 131.9"/>
        <polygon class="cls-2" points="12.9 22.8 20.3 30.2 39.8 10.8 36.8 7.8 12.9 7.8 12.9 22.8"/>
        <polygon class="cls-2" points="15.7 35.6 25 35.6 20.3 31 15.7 35.6"/>
        <polygon class="cls-2" points="59.9 30.2 79.4 10.8 76.4 7.8 43.5 7.8 40.5 10.8 59.9 30.2"/>
        <polygon class="cls-2" points="71.9 137.1 74.5 124.7 59.9 110.2 40.5 129.6 59.9 149 71.9 137.1"/>
        <path class="cls-2" d="M119.3,169.5l-3.9,3.9c3.4,2.3,7.5,3.8,12.4,4.6l-8.5-8.5Z"/>
        <polygon class="cls-2" points="71.7 138 60.3 149.4 67.8 156.9 71.7 138"/>
        <polygon class="cls-2" points="59.6 149.4 40.1 130 39.7 130.4 33.5 162.2 40.1 168.8 59.6 149.4"/>
        <polygon class="cls-2" points="55.3 35.6 58.1 35.6 52.8 62.7 59.9 69.8 79.4 50.4 59.9 31 55.3 35.6"/>
        <polygon class="cls-2" points="20.7 30.6 25.7 35.6 54.6 35.6 59.6 30.6 40.1 11.2 20.7 30.6"/>
        <polygon class="cls-2" points="79.7 50 92.6 37.2 94.8 26.2 79.7 11.2 60.3 30.6 79.7 50"/>
        <path class="cls-2" d="M178.7,30.2l12.3-12.3c-4.9-8.3-13.6-12.5-26.1-12.8l-5.6,5.6,19.4,19.4Z"/>
        <polygon class="cls-2" points="79.7 10.4 82.4 7.8 77.1 7.8 79.7 10.4"/>
        <polygon class="cls-2" points="195.9 93 179.1 109.8 195.9 126.6 195.9 93"/>
        <polygon class="cls-2" points="195.9 92.3 195.9 87.7 178.7 70.6 159.3 90 178.7 109.4 195.9 92.3"/>
        <path class="cls-2" d="M178.4,109.8l-19.4-19.4-19.3,19.3h6.4c6.9,0,12.7-1.1,17.4-3.4v18.5l15-15Z"/>
        <path class="cls-2" d="M137.9,148.7c-.2-.2-.3-.4-.4-.6l-16.3-16.3h-3.7l-14.1,14.1c0,2.7.3,5.2.7,7.6l15.3,15.3,19.4-19.4c-.3-.2-.6-.4-.9-.7Z"/>
      </g>
    </g>
  </g>
</svg>