<?xml version="1.0" encoding="UTF-8"?>
<svg xmlns="http://www.w3.org/2000/svg" version="1.1" viewBox="0 0 255 180">
  <defs>
    <style>
      .cls-1 {
        fill: none;
      }

      .cls-2 {
        fill: #c59f7b;
      }
    </style>
  </defs>
  <!-- Generator: Adobe Illustrator 28.7.1, SVG Export Plug-In . SVG Version: 1.2.0 Build 142)  -->
  <g>
    <g id="Layer_1">
      <rect class="cls-1" width="255" height="180"/>
      <path class="cls-2" d="M242.9,8.6h5l-19.6,32.4h-5l19.6-32.4ZM225.6,25.1h-1.2c-4.1,0-6.2-2.2-6.2-6.6v-3.8c0-4.4,2.1-6.6,6.2-6.6h1.2c4.1,0,6.2,2.2,6.2,6.6v3.8c0,4.4-2.1,6.6-6.2,6.6ZM223.3,21c0,.3,0,.5.2.7.2.2.4.3.7.3h1.6c.3,0,.5-.1.6-.3.2-.2.3-.4.3-.7v-8.8c0-.3-.1-.5-.3-.7-.2-.2-.4-.3-.6-.3h-1.6c-.3,0-.5.1-.7.3-.2.2-.2.4-.2.7v8.8ZM246.6,24.5c4.1,0,6.2,2.2,6.2,6.6v3.8c0,4.4-2.1,6.6-6.2,6.6h-1.2c-4.1,0-6.2-2.2-6.2-6.6v-3.8c0-4.4,2.1-6.6,6.2-6.6h1.2ZM247.8,37.4v-8.8c0-.3-.1-.5-.3-.7-.2-.2-.4-.3-.7-.3h-1.5c-.3,0-.5.1-.7.3-.2.2-.2.4-.2.7v8.8c0,.3,0,.5.2.7.2.2.4.3.7.3h1.5c.3,0,.5-.1.7-.3.2-.2.3-.4.3-.7Z"/>
      <g>
        <path class="cls-2" d="M109.3,141.3v-22c0-.5,0-1,0-1.5l-7.7-7.7-19.4,19.4,19.4,19.4,7.7-7.7Z"/>
        <path class="cls-2" d="M89.8,176.9c9.8-3,15.8-9.8,18.3-20.6l-6.5-6.5-19.4,19.4,7.7,7.7Z"/>
        <path class="cls-2" d="M101.2,109.8l-19.4-19.4-14.9,14.9h5.3c1.4,0,2.5.5,3.4,1.6,1,1,1.6,2.3,1.6,3.6v14.1l4.7,4.7,19.4-19.4Z"/>
        <path class="cls-2" d="M101.9,149.4l6.3,6.3c.7-3.4,1.1-7.2,1.1-11.4v-2.3l-7.4,7.4Z"/>
        <polygon class="cls-2" points="57.8 105.3 66.1 105.3 81.4 90 67.8 76.4 56.1 76.4 42.5 90 57.8 105.3"/>
        <polygon class="cls-2" points="46.6 125.5 42.5 129.6 46.6 133.7 46.6 125.5"/>
        <polygon class="cls-2" points="77 125.3 77 133.9 81.4 129.6 77 125.3"/>
        <polygon class="cls-2" points="121.7 10.8 141.1 30.2 160.6 10.8 157.6 7.8 124.7 7.8 121.7 10.8"/>
        <polygon class="cls-2" points="151.4 80.8 147 103.6 160.6 90 151.4 80.8"/>
        <polygon class="cls-2" points="141.5 30.6 146.5 35.6 160.2 35.6 158 47.1 160.9 50 180.4 30.6 160.9 11.2 141.5 30.6"/>
        <polygon class="cls-2" points="158.3 7.8 160.9 10.4 163.6 7.8 158.3 7.8"/>
        <polygon class="cls-2" points="161.3 50.4 180.7 69.8 189.8 60.8 193.3 43.6 180.7 31 161.3 50.4"/>
        <polygon class="cls-2" points="181.1 70.2 186.7 75.8 189.6 61.7 181.1 70.2"/>
        <polygon class="cls-2" points="180.4 70.2 160.9 50.8 156.4 55.3 151.5 80.2 160.9 89.6 180.4 70.2"/>
        <polygon class="cls-2" points="186.6 76.4 180.7 70.6 161.3 90 179.9 108.6 186.6 76.4"/>
        <path class="cls-2" d="M22.7,109.8l19.4,19.4,4.5-4.5v-14.3c0-1.4.4-2.6,1.3-3.6,1-1,2.3-1.6,3.6-1.6h5.5l-14.9-14.9-19.4,19.4Z"/>
        <polygon class="cls-2" points="124 7.8 118.7 7.8 121.3 10.4 124 7.8"/>
        <path class="cls-2" d="M106.4,74.7c.7-3.1,1.2-6.5,1.3-10.3l-5.8,5.8,4.5,4.5Z"/>
        <polygon class="cls-2" points="121 10.8 118 7.8 115 7.8 115 16.8 121 10.8"/>
        <path class="cls-2" d="M61.9,30.2l19.4-19.4-5.6-5.6c0,0-.2,0-.3,0h-27.4l-5.6,5.6,19.4,19.4Z"/>
        <path class="cls-2" d="M22.3,30.2l19.4-19.4-4.5-4.5c-10.3,2.4-16.9,8.8-19.9,19l4.9,4.9Z"/>
        <polygon class="cls-2" points="75.5 56.3 81.4 50.4 75.5 44.5 75.5 56.3"/>
        <polygon class="cls-2" points="180.7 30.2 200.1 10.9 200.1 10.8 197.2 7.8 164.3 7.8 161.3 10.8 180.7 30.2"/>
        <path class="cls-2" d="M82.1,90l19.4,19.4,5.5-5.5c-2-6-5.3-10.7-10-14,4.5-3.3,7.5-8.2,9.2-14.7l-4.7-4.7-19.4,19.4Z"/>
        <path class="cls-2" d="M82.1,50.4l19.4,19.4,6.2-6.2c0-.6,0-1.2,0-1.8v-22.4c0-.8,0-1.6,0-2.4l-6.1-6.1-19.4,19.4Z"/>
        <path class="cls-2" d="M107.3,104.4l-5.4,5.4,7.3,7.3c-.2-4.7-.8-9-2-12.7Z"/>
        <path class="cls-2" d="M107.6,36.3c-.2-3.7-.6-7-1.4-10.1l-4.3,4.3,5.7,5.7Z"/>
        <path class="cls-2" d="M75.5,57v14.2c0,1.4-.5,2.6-1.6,3.6-.9,1-2,1.6-3.4,1.6h-2l13.2,13.2,19.4-19.4-19.4-19.4-6.3,6.3Z"/>
        <polygon class="cls-2" points="157.9 47.7 156.5 54.5 160.6 50.4 157.9 47.7"/>
        <polygon class="cls-2" points="136.5 35.6 145.8 35.6 141.1 31 136.5 35.6"/>
        <polygon class="cls-2" points="135.8 35.6 140.8 30.6 121.3 11.2 115 17.5 115 35.6 135.8 35.6"/>
        <polygon class="cls-2" points="81.4 169.2 62.5 150.3 61.4 150.3 42.5 169.2 51.9 178.6 72 178.6 81.4 169.2"/>
        <path class="cls-2" d="M14.1,141.5v2.8c0,4.4.4,8.3,1.2,11.8l6.7-6.7-7.9-7.9Z"/>
        <path class="cls-2" d="M51.2,178.6l-9.1-9.1-7.6,7.6c3.5,1,7.4,1.4,11.8,1.4h4.8Z"/>
        <path class="cls-2" d="M34,177l7.8-7.8-19.4-19.4-6.9,6.9c2.5,10.7,8.7,17.5,18.6,20.3Z"/>
        <path class="cls-2" d="M22.7,30.6l19.4,19.4,6-6v-4.5c0-1.4.4-2.6,1.3-3.6,1-1,2.3-1.6,3.6-1.6h4.8l3.7-3.7-19.4-19.4-19.4,19.4Z"/>
        <path class="cls-2" d="M22,70.2l-6.3-6.3c.1,4.1.6,7.8,1.4,11.1l4.9-4.9Z"/>
        <path class="cls-2" d="M15.7,37.6c0,.6,0,1.3,0,1.9v22.4c0,.5,0,.9,0,1.3l6.6,6.6,19.4-19.4-19.4-19.4-6.6,6.6Z"/>
        <polygon class="cls-2" points="173 142 160.9 130 141.5 149.4 160.9 168.8 169.1 160.7 173 142"/>
        <polygon class="cls-2" points="141.1 149.7 137.2 153.6 132.9 176 153.8 176 160.6 169.2 141.1 149.7"/>
        <path class="cls-2" d="M22,30.6l-4.7-4.7c-.9,3.3-1.4,6.9-1.6,11l6.3-6.3Z"/>
        <polygon class="cls-2" points="161.3 169.2 166.3 174.2 168.9 161.6 161.3 169.2"/>
        <path class="cls-2" d="M42.1,10.4l5.3-5.3c-3.5,0-6.6.4-9.5,1l4.3,4.3Z"/>
        <polygon class="cls-2" points="200.3 10.2 200.8 7.8 197.9 7.8 200.3 10.2"/>
        <polygon class="cls-2" points="166.2 174.8 160.9 169.5 154.5 176 165.9 176 166.2 174.8"/>
        <polygon class="cls-2" points="193.5 43 199.9 11.8 181.1 30.6 193.5 43"/>
        <path class="cls-2" d="M66,34.3h4.5c1.4,0,2.5.5,3.4,1.6,1,1,1.6,2.3,1.6,3.6v4.3l6.3,6.3,19.4-19.4-19.4-19.4-19.4,19.4,3.7,3.7Z"/>
        <polygon class="cls-2" points="48.2 56.1 48.2 44.7 42.5 50.4 48.2 56.1"/>
        <path class="cls-2" d="M22.7,70.2l19.4,19.4,13.2-13.2h-2.2c-1.4,0-2.6-.5-3.6-1.6-.9-1-1.3-2.3-1.3-3.6v-14.4l-6-6-19.4,19.4Z"/>
        <path class="cls-2" d="M17.3,75.6c1.7,6.3,4.7,11.1,9.1,14.3-4.6,3.2-7.9,7.8-9.9,13.6l5.9,5.9,19.4-19.4-19.4-19.4-5.1,5.1Z"/>
        <path class="cls-2" d="M22,109.8l-5.7-5.7c-1.3,3.9-2,8.5-2.1,13.6l7.8-7.8Z"/>
        <path class="cls-2" d="M81.7,10.4l4.2-4.2c-2.9-.7-6-1-9.4-1.1l5.3,5.3Z"/>
        <path class="cls-2" d="M101.5,30.2l4.5-4.5c-2.8-10.4-9.4-16.8-19.6-19.3l-4.4,4.4,19.4,19.4Z"/>
        <polygon class="cls-2" points="58.6 34.3 65.3 34.3 61.9 31 58.6 34.3"/>
        <path class="cls-2" d="M77,178.6c4.6,0,8.6-.5,12.2-1.5l-7.5-7.5-9.1,9.1h4.4Z"/>
        <polygon class="cls-2" points="160.6 129.6 145 114 138.6 146.5 141.1 149 160.6 129.6"/>
        <polygon class="cls-2" points="179.4 110.7 179.8 109.2 160.9 90.4 146.8 104.5 145.1 113.4 160.9 129.2 179.4 110.7"/>
        <path class="cls-2" d="M41.8,129.6l-19.4-19.4-8.2,8.2c0,.3,0,.6,0,1v21.5l8.2,8.2,19.4-19.4Z"/>
        <polygon class="cls-2" points="138.5 147.1 137.4 152.8 140.8 149.4 138.5 147.1"/>
        <polygon class="cls-2" points="179.3 111.6 161.3 129.6 173.1 141.4 179.3 111.6"/>
        <path class="cls-2" d="M60.7,150.3h-9.2c-1.4,0-2.6-.5-3.6-1.6-.9-1-1.3-2.3-1.3-3.6v-10.6l-4.5-4.5-19.4,19.4,19.4,19.4,18.6-18.6Z"/>
        <path class="cls-2" d="M101.2,149.4l-19.4-19.4-4.7,4.7v10.4c0,1.4-.5,2.6-1.6,3.6-.9,1-2,1.6-3.4,1.6h-8.9l18.6,18.6,19.4-19.4Z"/>
      </g>
    </g>
  </g>
</svg>