<?xml version="1.0" encoding="UTF-8"?>
<svg xmlns="http://www.w3.org/2000/svg" version="1.1" viewBox="0 0 263 180">
  <defs>
    <style>
      .cls-1 {
        fill: none;
      }

      .cls-2 {
        fill: #c59f7b;
      }
    </style>
  </defs>
  <!-- Generator: Adobe Illustrator 28.7.1, SVG Export Plug-In . SVG Version: 1.2.0 Build 142)  -->
  <g>
    <g id="Layer_1">
      <rect class="cls-1" width="263" height="180"/>
      <g>
        <polygon class="cls-2" points="145.9 131.8 115.2 131.8 115.2 134.9 129 148.7 145.9 131.8"/>
        <path class="cls-2" d="M167,150.3h-13.6c-1.4,0-2.6-.5-3.6-1.6-.9-1-1.3-2.3-1.3-3.6v-13.3h-1.8l-17.3,17.3,19.4,19.4,18.3-18.3Z"/>
        <polygon class="cls-2" points="110 129.8 110 128.8 109.5 129.3 110 129.8"/>
        <path class="cls-2" d="M162.1,37.2h8.2c1.4,0,2.5.5,3.4,1.6,1,1,1.6,2.3,1.6,3.6v20.5l12.8-12.8-19.4-19.4-6.5,6.5Z"/>
        <path class="cls-2" d="M188.4,49.7l18.8-18.8c0-.5-.2-1.1-.3-1.6l-18.5-18.5-19.4,19.4,19.4,19.4Z"/>
        <path class="cls-2" d="M129.3,69.9l19.4,19.4,11.6-11.6h-10.6c-1.4,0-2.6-.5-3.6-1.6-.9-1-1.3-2.3-1.3-3.6v-18.1l-15.5,15.5Z"/>
        <path class="cls-2" d="M143.8,5.2l4.9,4.9,5-5h-8.9c-.3,0-.7,0-1,0Z"/>
        <path class="cls-2" d="M144.8,45.8v-3.4c0-1.4.4-2.6,1.3-3.6,1-1,2.3-1.6,3.6-1.6h11.6l6.9-6.9-19.4-19.4-19.4,19.4,15.5,15.5Z"/>
        <polygon class="cls-2" points="112.6 47 112.6 53.1 129 69.5 144.8 53.7 144.8 46.5 129 30.6 112.6 47"/>
        <path class="cls-2" d="M188.4,10.1l2.4-2.4c-2-.8-4.2-1.4-6.6-1.9l4.2,4.2Z"/>
        <path class="cls-2" d="M147.4,178.6h10.7l-9.4-9.4-8.8,8.8c2.3.3,4.8.5,7.5.5Z"/>
        <path class="cls-2" d="M207.5,149.4c0-.2,0-.3,0-.5l-19.2-19.2-13.1,13.1v2.3c0,1.4-.5,2.6-1.6,3.6-.9,1-2,1.6-3.4,1.6h-.2l18.3,18.3,19.2-19.2Z"/>
        <path class="cls-2" d="M207.7,110.3l-19,19,18.9,18.9c0-1.3.1-2.6.1-3.9v-34Z"/>
        <path class="cls-2" d="M168.6,29.9l19.4-19.4-4.7-4.7c-2.4-.4-5-.6-7.8-.6h-21.1l-5.3,5.3,19.4,19.4Z"/>
        <path class="cls-2" d="M47.3,111.6v-.3c0-1.1.3-2.1.9-3l-18.2-18.2-15.1,15.1v8.6l15.1,15.1,17.4-17.4Z"/>
        <path class="cls-2" d="M89.4,109.1l17.9-17.9c-1.1-2.8-2.5-5.3-4.3-7.4l-3.2-3.2c-3.8-3.1-8.7-5.2-14.7-6l-15.1,15.1,19.4,19.4Z"/>
        <path class="cls-2" d="M207.7,109.6v-.2l-19.4-19.4-18.1,18.1c1.8-.5,3.4-1.1,5-1.8v9.5l13.1,13.1,19.4-19.4Z"/>
        <path class="cls-2" d="M188.7,168.9l5.5,5.5c7.8-4.5,12.2-12.6,13.3-24.2l-18.7,18.7Z"/>
        <path class="cls-2" d="M112.6,53.8v21.5c0,3.5.3,6.8.8,9.8l15.3-15.3-16-16Z"/>
        <path class="cls-2" d="M15.8,155.1c1.5,7.8,4.9,13.7,10,17.6l3.8-3.8-13.8-13.8Z"/>
        <polygon class="cls-2" points="14.8 74.9 14.8 104.5 29.6 89.7 14.8 74.9"/>
        <path class="cls-2" d="M110,128.1v-19.7c0-6.5-.9-12-2.6-16.6l-17.7,17.7,19.4,19.4.8-.8Z"/>
        <path class="cls-2" d="M169.4,150.3h-1.6l-18.6,18.6,9.7,9.7h16.6c1,0,1.9,0,2.9,0l9.6-9.6-18.6-18.6Z"/>
        <path class="cls-2" d="M131.1,107.7c3.9,1.3,8.5,2,13.7,2h13c3.5,0,6.8-.3,9.7-.9l-18.8-18.8-17.7,17.7Z"/>
        <path class="cls-2" d="M168.1,108.7c.4,0,.8-.2,1.1-.3l18.7-18.7-14-14c-.1.1-.2.3-.4.4-.9,1-2,1.6-3.4,1.6h-9.2l-12,12,19,19Z"/>
        <polygon class="cls-2" points="175.2 116.5 175.2 142.1 188 129.3 175.2 116.5"/>
        <path class="cls-2" d="M207.7,69.1v-29.6c0-2.8-.2-5.5-.5-7.9l-18.5,18.5,19,19Z"/>
        <polygon class="cls-2" points="207.7 70.7 188.7 89.7 207.7 108.7 207.7 70.7"/>
        <path class="cls-2" d="M206.7,28.5c-2-10.2-7.2-17-15.5-20.5l-2.5,2.5,18,18Z"/>
        <path class="cls-2" d="M175.2,63.6v8.9c0,1-.3,2-.9,2.8l14,14,19.4-19.4v-.2l-19.4-19.4-13.1,13.1Z"/>
        <path class="cls-2" d="M113.5,85.8c1,5.3,2.8,9.8,5.5,13.4l4.7,4.7c2,1.5,4.3,2.8,6.9,3.7l17.8-17.8-19.4-19.4-15.5,15.5Z"/>
        <polygon class="cls-2" points="14.8 65.6 14.8 74.2 30 89.3 47.3 72 47.3 67.8 30 50.4 14.8 65.6"/>
        <path class="cls-2" d="M30.3,50.1l17,17v-28.4c0-1.4.4-2.6,1.3-3.6,1-1,2.3-1.6,3.6-1.6h.4l-2.9-2.9-19.4,19.4Z"/>
        <path class="cls-2" d="M77.8,178.6c.4,0,.8,0,1.2,0l-9.3-9.3-9.4,9.4h17.5Z"/>
        <path class="cls-2" d="M105.6,164.9c2.9-5.3,4.4-12.2,4.4-20.7v-13.8l-.8-.8-19.4,19.4,15.9,15.9Z"/>
        <path class="cls-2" d="M89.4,29.9l12.7-12.7c-5.2-8-14.1-12.1-26.8-12.1l-5.3,5.3,19.4,19.4Z"/>
        <polygon class="cls-2" points="69.6 10.1 74.5 5.2 64.6 5.2 69.6 10.1"/>
        <path class="cls-2" d="M53.4,33.5h15.8c1.4,0,2.5.5,3.4,1.6,1,1,1.6,2.3,1.6,3.6v6.5l14.9-14.9-19.4-19.4-19.4,19.4,3.2,3.2Z"/>
        <polygon class="cls-2" points="14.8 114.5 14.8 144.1 29.6 129.3 14.8 114.5"/>
        <path class="cls-2" d="M30,10.1l2.7-2.7c-1.3.5-2.6,1-3.7,1.7l1,1Z"/>
        <path class="cls-2" d="M30,169.2l-3.7,3.7c3.4,2.5,7.5,4.1,12.4,4.9l-8.7-8.7Z"/>
        <path class="cls-2" d="M47.1,178.6h12.4l9.7-9.7-19.4-19.4-19.4,19.4,9.2,9.2c2.4.4,4.9.5,7.6.5Z"/>
        <path class="cls-2" d="M17.5,22.6l12.1-12.1-1.1-1.1c-5.1,2.9-8.7,7.3-11,13.2Z"/>
        <path class="cls-2" d="M49.8,29.9l19.4-19.4-5.3-5.3h-16.8c-5,0-9.5.6-13.3,1.9l-3.4,3.4,19.4,19.4Z"/>
        <path class="cls-2" d="M17.1,23.7c-1.1,3.3-1.8,6.9-2.1,11.1l15,15,19.4-19.4L30,10.8l-12.9,12.9Z"/>
        <path class="cls-2" d="M14.8,64.9l14.8-14.8-14.7-14.7c0,1.3-.1,2.7-.1,4.1v25.4Z"/>
        <path class="cls-2" d="M49.4,149.1l-19.4-19.4-15.1,15.1c0,3.4.3,6.5.8,9.4l14.3,14.3,19.4-19.4Z"/>
        <path class="cls-2" d="M89,149.1l-11.3-11.3v3.6c0,1.4-.5,2.6-1.6,3.6-.9,1-2,1.6-3.4,1.6h-20.2l-2.5,2.5,19.4,19.4,19.4-19.4Z"/>
        <path class="cls-2" d="M117.3,18.3l11.7,11.7,19.4-19.4-5.3-5.3c-12.4.4-21,4.7-25.8,13.1Z"/>
        <path class="cls-2" d="M84.4,74.5c-2.1-.3-4.3-.4-6.7-.4h-13c-3.5,0-6.7.3-9.6.9l14.4,14.4,14.8-14.8Z"/>
        <path class="cls-2" d="M188.4,169.2l-9.2,9.2c5.7-.4,10.6-1.7,14.6-3.9l-5.4-5.4Z"/>
        <path class="cls-2" d="M72.8,106.1c1.4,0,2.5.5,3.4,1.6,1,1,1.6,2.3,1.6,3.6v9.5l11.3-11.3-19.4-19.4-16,16h19.3Z"/>
        <path class="cls-2" d="M115.2,135.6v8.6c0,6.1.8,11.4,2.3,15.9l11.1-11.1-13.4-13.4Z"/>
        <path class="cls-2" d="M129,149.4l-11.3,11.3c3.5,9.7,10.7,15.4,21.7,17.2l9.1-9.1-19.4-19.4Z"/>
        <path class="cls-2" d="M112.6,46.3l16-16-11.6-11.6c-3,5.3-4.5,12.3-4.5,20.8v6.8Z"/>
        <polygon class="cls-2" points="74.1 45.9 74.1 52 106.9 52 107.4 51.5 107.4 48.7 89.4 30.6 74.1 45.9"/>
        <path class="cls-2" d="M30.3,89.7l18.2,18.2c0,0,0-.1.2-.2,1-1,2.3-1.6,3.6-1.6h.6l16.4-16.4-14.6-14.6c-2.7.6-5.1,1.4-7.3,2.4v-4.8l-17,17Z"/>
        <path class="cls-2" d="M51.9,146.6c-1.2,0-2.3-.6-3.3-1.5-.9-1-1.3-2.3-1.3-3.6v-29.1l-17,17,19.4,19.4,2.1-2.1Z"/>
        <path class="cls-2" d="M79.6,178.6c12.3-.4,20.9-4.8,25.7-13.2l-16-16-19.4,19.4,9.7,9.7Z"/>
        <path class="cls-2" d="M107.4,48v-8.5c0-9.1-1.7-16.3-5.1-21.8l-12.6,12.6,17.7,17.7Z"/>
        <polygon class="cls-2" points="108.8 129.3 89.4 109.8 77.8 121.5 77.8 137.1 89.4 148.7 108.8 129.3"/>
      </g>
      <path class="cls-2" d="M250.9,8.6h5l-19.6,32.4h-5l19.6-32.4ZM233.6,25.1h-1.2c-4.1,0-6.2-2.2-6.2-6.6v-3.8c0-4.4,2.1-6.6,6.2-6.6h1.2c4.1,0,6.2,2.2,6.2,6.6v3.8c0,4.4-2.1,6.6-6.2,6.6ZM231.3,21c0,.3,0,.5.2.7.2.2.4.3.7.3h1.6c.3,0,.5-.1.6-.3.2-.2.3-.4.3-.7v-8.8c0-.3-.1-.5-.3-.7-.2-.2-.4-.3-.6-.3h-1.6c-.3,0-.5.1-.7.3-.2.2-.2.4-.2.7v8.8ZM254.6,24.5c4.1,0,6.2,2.2,6.2,6.6v3.8c0,4.4-2.1,6.6-6.2,6.6h-1.2c-4.1,0-6.2-2.2-6.2-6.6v-3.8c0-4.4,2.1-6.6,6.2-6.6h1.2ZM255.8,37.4v-8.8c0-.3-.1-.5-.3-.7-.2-.2-.4-.3-.7-.3h-1.5c-.3,0-.5.1-.7.3-.2.2-.2.4-.2.7v8.8c0,.3,0,.5.2.7.2.2.4.3.7.3h1.5c.3,0,.5-.1.7-.3.2-.2.3-.4.3-.7Z"/>
    </g>
  </g>
</svg>